<?xml version="1.0" encoding="UTF-8" standalone="no"?>
<!DOCTYPE svg PUBLIC "-//W3C//DTD SVG 1.1//EN" "http://www.w3.org/Graphics/SVG/1.1/DTD/svg11.dtd">
<!-- Generated by Microsoft Visio, SVG Export keepalived.svg Page-1 -->
<svg xmlns="http://www.w3.org/2000/svg" xmlns:xlink="http://www.w3.org/1999/xlink" xmlns:ev="http://www.w3.org/2001/xml-events"
		xmlns:v="http://schemas.microsoft.com/visio/2003/SVGExtensions/" width="6.53909in" height="9.03355in"
		viewBox="0 0 470.814 650.416" xml:space="preserve" color-interpolation-filters="sRGB" class="st9">
	<v:documentProperties v:langID="1033" v:metric="true" v:viewMarkup="false">
		<v:userDefs>
			<v:ud v:nameU="msvNoAutoConnect" v:val="VT0(1):26"/>
		</v:userDefs>
	</v:documentProperties>

	<style type="text/css">
	<![CDATA[
		.st1 {fill:#ffffff;stroke:#000000;stroke-linecap:round;stroke-linejoin:round;stroke-width:0.75}
		.st2 {fill:#434445;stroke:none;stroke-linecap:butt;stroke-width:0.75}
		.st3 {fill:none;stroke:none;stroke-linecap:round;stroke-linejoin:round;stroke-width:0.75}
		.st4 {fill:#000000;font-family:Calibri;font-size:1.00001em}
		.st5 {font-size:1em}
		.st6 {fill:#219e31;font-size:1em}
		.st7 {fill:#000000;font-family:Calibri;font-size:1.99999em}
		.st8 {stroke:#ff0000;stroke-linecap:round;stroke-linejoin:round;stroke-width:6}
		.st9 {fill:none;fill-rule:evenodd;font-size:12px;overflow:visible;stroke-linecap:square;stroke-miterlimit:3}
	]]>
	</style>

	<g v:mID="0" v:index="1" v:groupContext="foregroundPage">
		<title>Page-1</title>
		<v:pageProperties v:drawingScale="0.0393701" v:pageScale="0.0393701" v:drawingUnits="24" v:shadowOffsetX="8.50394"
				v:shadowOffsetY="-8.50394"/>
		<g id="shape57-1" v:mID="57" v:groupContext="shape" transform="translate(122.474,-457.858)">
			<title>Sheet.57</title>
			<ellipse cx="111.969" cy="630.573" rx="111.969" ry="19.8425" class="st1"/>
		</g>
		<g id="group16-3" transform="translate(49.9197,-409.394)" v:mID="16" v:groupContext="group">
			<title>Machine</title>
			<g id="shape17-4" v:mID="17" v:groupContext="shape">
				<title>Sheet.17</title>
				<path d="M0 473.34 L0 650.42 L72.55 650.42 L72.55 647.8 L72.55 473.34 L0 473.34 ZM5.24 478.57 L67.32 478.57 L67.32
							 645.18 L5.24 645.18 L5.24 478.57 Z" class="st2"/>
			</g>
			<g id="shape18-6" v:mID="18" v:groupContext="shape" transform="translate(9.6252,-151.681)">
				<title>Sheet.18</title>
				<path d="M53.3 647.8 L53.3 635.41 L0 635.41 L0 650.42 L53.3 650.42 L53.3 647.8 L53.3 647.8 ZM5.24 640.65 L48.07 640.65
							 L48.07 645.18 L5.24 645.18 L5.24 640.65 Z" class="st2"/>
			</g>
			<g id="shape19-8" v:mID="19" v:groupContext="shape" transform="translate(9.31377,-21.3547)">
				<title>Sheet.19</title>
				<path d="M0 647.8 L0 650.42 L53.93 650.42 L53.93 647.8 L53.93 645.85 L53.93 643.23 L0 643.23 L0 647.8 Z"
						class="st2"/>
			</g>
			<g id="shape20-10" v:mID="20" v:groupContext="shape" transform="translate(9.31377,-32.5109)">
				<title>Sheet.20</title>
				<path d="M0 643.23 L0 647.8 L0 650.42 L53.93 650.42 L53.93 647.8 L53.93 645.85 L53.93 643.23 L0 643.23 Z"
						class="st2"/>
			</g>
			<g id="shape21-12" v:mID="21" v:groupContext="shape" transform="translate(9.31377,-10.2015)">
				<title>Sheet.21</title>
				<path d="M0 647.8 L0 650.42 L53.93 650.42 L53.93 647.8 L53.93 645.84 L53.93 643.23 L0 643.23 L0 647.8 Z"
						class="st2"/>
			</g>
			<g id="shape22-14" v:mID="22" v:groupContext="shape" transform="translate(22.9672,-96.2025)">
				<title>Sheet.22</title>
				<path d="M0 637.11 C0 644.45 5.96 650.41 13.31 650.42 C20.66 650.41 26.62 644.45 26.62 637.11 C26.62 629.75 20.66
							 623.8 13.31 623.8 C5.96 623.8 0 629.75 0 637.11 ZM21.38 637.11 C21.38 641.56 17.77 645.17 13.31 645.18
							 C8.85 645.17 5.24 641.56 5.24 637.11 C5.24 632.64 8.85 629.04 13.31 629.03 C17.77 629.04 21.38 632.65
							 21.38 637.11 Z" class="st2"/>
			</g>
		</g>
		<g id="group36-16" transform="translate(346.984,-409.394)" v:mID="36" v:groupContext="group">
			<title>Machine.36</title>
			<g id="shape37-17" v:mID="37" v:groupContext="shape">
				<title>Sheet.37</title>
				<path d="M0 473.34 L0 650.42 L72.55 650.42 L72.55 647.8 L72.55 473.34 L0 473.34 ZM5.24 478.57 L67.32 478.57 L67.32
							 645.18 L5.24 645.18 L5.24 478.57 Z" class="st2"/>
			</g>
			<g id="shape38-19" v:mID="38" v:groupContext="shape" transform="translate(9.6252,-151.681)">
				<title>Sheet.38</title>
				<path d="M53.3 647.8 L53.3 635.41 L0 635.41 L0 650.42 L53.3 650.42 L53.3 647.8 L53.3 647.8 ZM5.24 640.65 L48.07 640.65
							 L48.07 645.18 L5.24 645.18 L5.24 640.65 Z" class="st2"/>
			</g>
			<g id="shape39-21" v:mID="39" v:groupContext="shape" transform="translate(9.31377,-21.3547)">
				<title>Sheet.39</title>
				<path d="M0 647.8 L0 650.42 L53.93 650.42 L53.93 647.8 L53.93 645.85 L53.93 643.23 L0 643.23 L0 647.8 Z"
						class="st2"/>
			</g>
			<g id="shape40-23" v:mID="40" v:groupContext="shape" transform="translate(9.31377,-32.5109)">
				<title>Sheet.40</title>
				<path d="M0 643.23 L0 647.8 L0 650.42 L53.93 650.42 L53.93 647.8 L53.93 645.85 L53.93 643.23 L0 643.23 Z"
						class="st2"/>
			</g>
			<g id="shape41-25" v:mID="41" v:groupContext="shape" transform="translate(9.31377,-10.2015)">
				<title>Sheet.41</title>
				<path d="M0 647.8 L0 650.42 L53.93 650.42 L53.93 647.8 L53.93 645.84 L53.93 643.23 L0 643.23 L0 647.8 Z"
						class="st2"/>
			</g>
			<g id="shape42-27" v:mID="42" v:groupContext="shape" transform="translate(22.9672,-96.2025)">
				<title>Sheet.42</title>
				<path d="M0 637.11 C0 644.45 5.96 650.41 13.31 650.42 C20.66 650.41 26.62 644.45 26.62 637.11 C26.62 629.75 20.66
							 623.8 13.31 623.8 C5.96 623.8 0 629.75 0 637.11 ZM21.38 637.11 C21.38 641.56 17.77 645.17 13.31 645.18
							 C8.85 645.17 5.24 641.56 5.24 637.11 C5.24 632.64 8.85 629.04 13.31 629.03 C17.77 629.04 21.38 632.65
							 21.38 637.11 Z" class="st2"/>
			</g>
		</g>
		<g id="shape48-29" v:mID="48" v:groupContext="shape" transform="translate(35.1732,-361.48)">
			<title>Sheet.48</title>
			<desc>MASTER Priority 150 IP: 192.168.0.1/24 VIP: 192.168.0.100</desc>
			<v:textBlock v:margins="rect(4,4,4,4)" v:tabSpace="42.5197"/>
			<v:textRect cx="51.0236" cy="639.077" width="102.05" height="22.6772"/>
			<rect x="0" y="627.739" width="102.047" height="22.6772" class="st3"/>
			<text x="30.55" y="613.88" class="st4" v:langID="1045"><v:paragraph v:horizAlign="1"/><v:tabList/>MASTER<v:newlineChar/><tspan
						x="22.62" dy="1.2em" class="st5">Priority 150<v:newlineChar/><v:newlineChar/></tspan><tspan x="6.18"
						dy="2.4em" class="st5">IP: 192.168.0.1/24<v:newlineChar/></tspan><tspan x="5.09" dy="1.2em" class="st6">VIP: 192.168.0.100</tspan></text>		</g>
		<g id="shape53-35" v:mID="53" v:groupContext="shape" transform="translate(314.083,-369.984)">
			<title>Sheet.53</title>
			<desc>BACKUP Priority 100 IP: 192.168.0.2/24</desc>
			<v:textBlock v:margins="rect(4,4,4,4)" v:tabSpace="42.5197"/>
			<v:textRect cx="69.1779" cy="640.416" width="138.36" height="20"/>
			<rect x="0" y="630.416" width="138.356" height="20" class="st3"/>
			<text x="49.18" y="622.42" class="st4" v:langID="1045"><v:paragraph v:horizAlign="1"/><v:tabList/>BACKUP<v:newlineChar/><tspan
						x="40.77" dy="1.2em" class="st5">Priority 100<v:newlineChar/><v:newlineChar/></tspan><tspan x="24.33"
						dy="2.4em" class="st5">IP: 192.168.0.2/24</tspan></text>		</g>
		<g id="shape55-40" v:mID="55" v:groupContext="shape" transform="translate(113.391,-466.205)">
			<title>Sheet.55</title>
			<desc>Keepalived</desc>
			<v:textBlock v:margins="rect(4,4,4,4)" v:tabSpace="42.5197"/>
			<v:textRect cx="121.339" cy="640.416" width="242.68" height="20"/>
			<rect x="0" y="630.416" width="242.677" height="20" class="st3"/>
			<text x="94.62" y="644.02" class="st4" v:langID="1045"><v:paragraph v:horizAlign="1"/><v:tabList/>Keepalived</text>		</g>
		<g id="shape58-43" v:mID="58" v:groupContext="shape" transform="translate(49.9197,-610.929)">
			<title>Sheet.58</title>
			<desc>Stable state</desc>
			<v:textBlock v:margins="rect(4,4,4,4)" v:tabSpace="42.5197"/>
			<v:textRect cx="191.052" cy="643.329" width="382.11" height="14.1732"/>
			<rect x="0" y="636.243" width="382.104" height="14.1732" class="st3"/>
			<text x="133.58" y="650.53" class="st7" v:langID="1045"><v:paragraph v:horizAlign="1"/><v:tabList/>Stable state</text>		</g>
		<g id="shape78-46" v:mID="78" v:groupContext="shape" transform="translate(122.474,-140.378)">
			<title>Sheet.78</title>
			<ellipse cx="111.969" cy="630.573" rx="111.969" ry="19.8425" class="st1"/>
		</g>
		<g id="group79-48" transform="translate(49.9197,-91.9133)" v:mID="79" v:groupContext="group">
			<title>Machine.79</title>
			<g id="shape80-49" v:mID="80" v:groupContext="shape">
				<title>Sheet.80</title>
				<path d="M0 473.34 L0 650.42 L72.55 650.42 L72.55 647.8 L72.55 473.34 L0 473.34 ZM5.24 478.57 L67.32 478.57 L67.32
							 645.18 L5.24 645.18 L5.24 478.57 Z" class="st2"/>
			</g>
			<g id="shape81-51" v:mID="81" v:groupContext="shape" transform="translate(9.6252,-151.681)">
				<title>Sheet.81</title>
				<path d="M53.3 647.8 L53.3 635.41 L0 635.41 L0 650.42 L53.3 650.42 L53.3 647.8 L53.3 647.8 ZM5.24 640.65 L48.07 640.65
							 L48.07 645.18 L5.24 645.18 L5.24 640.65 Z" class="st2"/>
			</g>
			<g id="shape82-53" v:mID="82" v:groupContext="shape" transform="translate(9.31377,-21.3547)">
				<title>Sheet.82</title>
				<path d="M0 647.8 L0 650.42 L53.93 650.42 L53.93 647.8 L53.93 645.85 L53.93 643.23 L0 643.23 L0 647.8 Z"
						class="st2"/>
			</g>
			<g id="shape83-55" v:mID="83" v:groupContext="shape" transform="translate(9.31377,-32.5109)">
				<title>Sheet.83</title>
				<path d="M0 643.23 L0 647.8 L0 650.42 L53.93 650.42 L53.93 647.8 L53.93 645.85 L53.93 643.23 L0 643.23 Z"
						class="st2"/>
			</g>
			<g id="shape84-57" v:mID="84" v:groupContext="shape" transform="translate(9.31377,-10.2015)">
				<title>Sheet.84</title>
				<path d="M0 647.8 L0 650.42 L53.93 650.42 L53.93 647.8 L53.93 645.84 L53.93 643.23 L0 643.23 L0 647.8 Z"
						class="st2"/>
			</g>
			<g id="shape85-59" v:mID="85" v:groupContext="shape" transform="translate(22.9672,-96.2025)">
				<title>Sheet.85</title>
				<path d="M0 637.11 C0 644.45 5.96 650.41 13.31 650.42 C20.66 650.41 26.62 644.45 26.62 637.11 C26.62 629.75 20.66
							 623.8 13.31 623.8 C5.96 623.8 0 629.75 0 637.11 ZM21.38 637.11 C21.38 641.56 17.77 645.17 13.31 645.18
							 C8.85 645.17 5.24 641.56 5.24 637.11 C5.24 632.64 8.85 629.04 13.31 629.03 C17.77 629.04 21.38 632.65
							 21.38 637.11 Z" class="st2"/>
			</g>
		</g>
		<g id="group86-61" transform="translate(346.984,-91.9133)" v:mID="86" v:groupContext="group">
			<title>Machine.86</title>
			<g id="shape87-62" v:mID="87" v:groupContext="shape">
				<title>Sheet.87</title>
				<path d="M0 473.34 L0 650.42 L72.55 650.42 L72.55 647.8 L72.55 473.34 L0 473.34 ZM5.24 478.57 L67.32 478.57 L67.32
							 645.18 L5.24 645.18 L5.24 478.57 Z" class="st2"/>
			</g>
			<g id="shape88-64" v:mID="88" v:groupContext="shape" transform="translate(9.6252,-151.681)">
				<title>Sheet.88</title>
				<path d="M53.3 647.8 L53.3 635.41 L0 635.41 L0 650.42 L53.3 650.42 L53.3 647.8 L53.3 647.8 ZM5.24 640.65 L48.07 640.65
							 L48.07 645.18 L5.24 645.18 L5.24 640.65 Z" class="st2"/>
			</g>
			<g id="shape89-66" v:mID="89" v:groupContext="shape" transform="translate(9.31377,-21.3547)">
				<title>Sheet.89</title>
				<path d="M0 647.8 L0 650.42 L53.93 650.42 L53.93 647.8 L53.93 645.85 L53.93 643.23 L0 643.23 L0 647.8 Z"
						class="st2"/>
			</g>
			<g id="shape90-68" v:mID="90" v:groupContext="shape" transform="translate(9.31377,-32.5109)">
				<title>Sheet.90</title>
				<path d="M0 643.23 L0 647.8 L0 650.42 L53.93 650.42 L53.93 647.8 L53.93 645.85 L53.93 643.23 L0 643.23 Z"
						class="st2"/>
			</g>
			<g id="shape91-70" v:mID="91" v:groupContext="shape" transform="translate(9.31377,-10.2015)">
				<title>Sheet.91</title>
				<path d="M0 647.8 L0 650.42 L53.93 650.42 L53.93 647.8 L53.93 645.84 L53.93 643.23 L0 643.23 L0 647.8 Z"
						class="st2"/>
			</g>
			<g id="shape92-72" v:mID="92" v:groupContext="shape" transform="translate(22.9672,-96.2025)">
				<title>Sheet.92</title>
				<path d="M0 637.11 C0 644.45 5.96 650.41 13.31 650.42 C20.66 650.41 26.62 644.45 26.62 637.11 C26.62 629.75 20.66
							 623.8 13.31 623.8 C5.96 623.8 0 629.75 0 637.11 ZM21.38 637.11 C21.38 641.56 17.77 645.17 13.31 645.18
							 C8.85 645.17 5.24 641.56 5.24 637.11 C5.24 632.64 8.85 629.04 13.31 629.03 C17.77 629.04 21.38 632.65
							 21.38 637.11 Z" class="st2"/>
			</g>
		</g>
		<g id="shape93-74" v:mID="93" v:groupContext="shape" transform="translate(35.1732,-44)">
			<title>Sheet.93</title>
			<desc>MASTER Priority 150 IP: 192.168.0.1/24</desc>
			<v:textBlock v:margins="rect(4,4,4,4)" v:tabSpace="42.5197"/>
			<v:textRect cx="51.0236" cy="639.077" width="102.05" height="22.6772"/>
			<rect x="0" y="627.739" width="102.047" height="22.6772" class="st3"/>
			<text x="30.55" y="613.88" class="st4" v:langID="1045"><v:paragraph v:horizAlign="1"/><v:tabList/>MASTER<v:newlineChar/><tspan
						x="22.62" dy="1.2em" class="st5">Priority 150<v:newlineChar/><v:newlineChar/></tspan><tspan x="6.18"
						dy="2.4em" class="st5">IP: 192.168.0.1/24</tspan><v:newlineChar/></text>		</g>
		<g id="shape94-79" v:mID="94" v:groupContext="shape" transform="translate(314.083,-44)">
			<title>Sheet.94</title>
			<desc>BACKUP Priority 100 IP: 192.168.0.2/24 VIP: 192.168.0.100</desc>
			<v:textBlock v:margins="rect(4,4,4,4)" v:tabSpace="42.5197"/>
			<v:textRect cx="69.1779" cy="640.416" width="138.36" height="20"/>
			<rect x="0" y="630.416" width="138.356" height="20" class="st3"/>
			<text x="49.18" y="615.22" class="st4" v:langID="1045"><v:paragraph v:horizAlign="1"/><v:tabList/>BACKUP<v:newlineChar/><tspan
						x="40.77" dy="1.2em" class="st5">Priority 100<v:newlineChar/><v:newlineChar/></tspan><tspan x="24.33"
						dy="2.4em" class="st5">IP: 192.168.0.2/24<v:newlineChar/></tspan><tspan x="23.25" dy="1.2em" class="st6">VIP: 192.168.0.100</tspan></text>		</g>
		<g id="shape95-85" v:mID="95" v:groupContext="shape" transform="translate(113.391,-148.724)">
			<title>Sheet.95</title>
			<desc>Keepalived</desc>
			<v:textBlock v:margins="rect(4,4,4,4)" v:tabSpace="42.5197"/>
			<v:textRect cx="121.339" cy="640.416" width="242.68" height="20"/>
			<rect x="0" y="630.416" width="242.677" height="20" class="st3"/>
			<text x="94.62" y="644.02" class="st4" v:langID="1045"><v:paragraph v:horizAlign="1"/><v:tabList/>Keepalived</text>		</g>
		<g id="shape96-88" v:mID="96" v:groupContext="shape" transform="translate(592.785,46.9629) rotate(61.5348)">
			<title>Sheet.96</title>
			<path d="M0 650.42 L267.63 650.42" class="st8"/>
		</g>
		<g id="shape97-91" v:mID="97" v:groupContext="shape" transform="translate(-553.83,287.921) rotate(-62.1027)">
			<title>Sheet.97</title>
			<path d="M0 650.42 L264.95 650.42" class="st8"/>
		</g>
		<g id="shape99-94" v:mID="99" v:groupContext="shape" transform="translate(49.9197,-299.118)">
			<title>Sheet.99</title>
			<desc>Failover state</desc>
			<v:textBlock v:margins="rect(4,4,4,4)" v:tabSpace="42.5197"/>
			<v:textRect cx="191.052" cy="643.329" width="382.11" height="14.1732"/>
			<rect x="0" y="636.243" width="382.104" height="14.1732" class="st3"/>
			<text x="125.22" y="650.53" class="st7" v:langID="1045"><v:paragraph v:horizAlign="1"/><v:tabList/>Failover state</text>		</g>
	</g>
</svg>
