<?xml version="1.0" encoding="UTF-8" standalone="no"?>
<!DOCTYPE svg PUBLIC "-//W3C//DTD SVG 1.1//EN" "http://www.w3.org/Graphics/SVG/1.1/DTD/svg11.dtd">
<!-- Generated by Microsoft Visio, SVG Export Drawing1.svg Page-1 -->
<svg xmlns="http://www.w3.org/2000/svg" xmlns:xlink="http://www.w3.org/1999/xlink" xmlns:ev="http://www.w3.org/2001/xml-events"
		xmlns:v="http://schemas.microsoft.com/visio/2003/SVGExtensions/" width="8.27105in" height="10.6045in"
		viewBox="0 0 595.516 763.524" xml:space="preserve" color-interpolation-filters="sRGB" class="st27">
	<v:documentProperties v:langID="1033"/>

	<style type="text/css">
	<![CDATA[
		.st1 {fill:url(#grad4-4);stroke:#f59d56;stroke-linecap:round;stroke-linejoin:round;stroke-width:0.239999}
		.st2 {fill:#311000;font-family:Calibri;font-size:0.833336em}
		.st3 {font-size:1em}
		.st4 {fill:url(#grad0-47);stroke:#002060;stroke-linecap:round;stroke-linejoin:round;stroke-width:0.239999}
		.st5 {fill:#000000;font-family:Calibri;font-size:0.833336em}
		.st6 {fill:url(#grad7-98);stroke:#000000;stroke-linecap:round;stroke-linejoin:round;stroke-width:0.239999}
		.st7 {fill:#ffffff;font-family:Calibri;font-size:0.833336em}
		.st8 {fill:url(#grad0-106);stroke:#ff0000;stroke-linecap:round;stroke-linejoin:round;stroke-width:0.239999}
		.st9 {fill:#ff0000;font-family:Calibri;font-size:0.833336em}
		.st10 {fill:url(#grad7-113);stroke:#003300;stroke-linecap:round;stroke-linejoin:round;stroke-width:0.239999}
		.st11 {fill:#003300;font-family:Calibri;font-size:0.833336em}
		.st12 {marker-end:url(#mrkr5-148);stroke:#f59d56;stroke-linecap:round;stroke-linejoin:round;stroke-width:0.749996}
		.st13 {fill:#f59d56;fill-opacity:1;stroke:#f59d56;stroke-opacity:1;stroke-width:0.22935697243108}
		.st14 {marker-end:url(#mrkr5-179);stroke:#002060;stroke-linecap:round;stroke-linejoin:round;stroke-width:0.749996}
		.st15 {fill:#002060;fill-opacity:1;stroke:#002060;stroke-opacity:1;stroke-width:0.22935697243108}
		.st16 {marker-end:url(#mrkr5-200);stroke:#ea700d;stroke-linecap:round;stroke-linejoin:round;stroke-width:0.749996}
		.st17 {fill:#ea700d;fill-opacity:1;stroke:#ea700d;stroke-opacity:1;stroke-width:0.22935697243108}
		.st18 {marker-end:url(#mrkr5-216);stroke:#003300;stroke-linecap:round;stroke-linejoin:round;stroke-width:0.749996}
		.st19 {fill:#003300;fill-opacity:1;stroke:#003300;stroke-opacity:1;stroke-width:0.22935697243108}
		.st20 {fill:url(#grad5-235);stroke:#f59d56;stroke-linecap:round;stroke-linejoin:round;stroke-width:0.239999}
		.st21 {fill:none}
		.st22 {stroke:#ffb380;stroke-linecap:butt;stroke-width:0.74545}
		.st23 {stroke:#ffb380;stroke-linecap:butt;stroke-width:0.761623}
		.st24 {stroke:#ffb380;stroke-linecap:butt;stroke-width:0.749999}
		.st25 {marker-end:url(#mrkr5-257);stroke:#f59d56;stroke-linecap:round;stroke-linejoin:round;stroke-width:0.717354}
		.st26 {fill:#f59d56;fill-opacity:1;stroke:#f59d56;stroke-opacity:1;stroke-width:0.22158663717587}
		.st27 {fill:none;fill-rule:evenodd;font-size:12px;overflow:visible;stroke-linecap:square;stroke-miterlimit:3}
	]]>
	</style>

	<defs id="Patterns_And_Gradients">
		<radialGradient id="grad4-4" cx="0.5" cy="0" r="1.1">
			<stop offset="0" stop-color="#ffffff" stop-opacity="1"/>
			<stop offset="0.2" stop-color="#ffffff" stop-opacity="1"/>
			<stop offset="1" stop-color="#f59d56" stop-opacity="1"/>
		</radialGradient>
		<linearGradient id="grad0-47" x1="0" y1="0" x2="1" y2="0" gradientTransform="rotate(-89.999999999999 0.5 0.5)">
			<stop offset="0" stop-color="#0070c0" stop-opacity="1"/>
			<stop offset="0.2" stop-color="#5fa5d8" stop-opacity="1"/>
			<stop offset="1" stop-color="#ffffff" stop-opacity="1"/>
		</linearGradient>
		<radialGradient id="grad7-98" cx="0" cy="0" r="1.4">
			<stop offset="0.38" stop-color="#002060" stop-opacity="1"/>
			<stop offset="1" stop-color="#0070c0" stop-opacity="1"/>
		</radialGradient>
		<linearGradient id="grad0-106" x1="0" y1="0" x2="1" y2="0" gradientTransform="rotate(0 0.5 0.5)">
			<stop offset="0" stop-color="#de8787" stop-opacity="1"/>
			<stop offset="1" stop-color="#de8787" stop-opacity="1"/>
		</linearGradient>
		<radialGradient id="grad7-113" cx="0" cy="0" r="1.4">
			<stop offset="0" stop-color="#ffffff" stop-opacity="1"/>
			<stop offset="0.31" stop-color="#ffffff" stop-opacity="1"/>
			<stop offset="1" stop-color="#9dbb61" stop-opacity="1"/>
		</radialGradient>
		<radialGradient id="grad5-235" cx="0.5" cy="1" r="1.1">
			<stop offset="0" stop-color="#ffffff" stop-opacity="1"/>
			<stop offset="0.2" stop-color="#ffffff" stop-opacity="1"/>
			<stop offset="1" stop-color="#f59d56" stop-opacity="1"/>
		</radialGradient>
	</defs>
	<defs id="Markers">
		<g id="lend5">
			<path d="M 2 1 L 0 0 L 1.98117 -0.993387 C 1.67173 -0.364515 1.67301 0.372641 1.98465 1.00043 " style="stroke:none"/>
		</g>
		<marker id="mrkr5-148" class="st13" v:arrowType="5" v:arrowSize="2" v:setback="0" refX="-0" orient="auto"
				markerUnits="strokeWidth" overflow="visible">
			<use xlink:href="#lend5" transform="scale(-4.3600156969306,-4.3600156969306) "/>
		</marker>
		<marker id="mrkr5-179" class="st15" v:arrowType="5" v:arrowSize="2" v:setback="0" refX="-0" orient="auto"
				markerUnits="strokeWidth" overflow="visible">
			<use xlink:href="#lend5" transform="scale(-4.3600156969306,-4.3600156969306) "/>
		</marker>
		<marker id="mrkr5-200" class="st17" v:arrowType="5" v:arrowSize="2" v:setback="0" refX="-0" orient="auto"
				markerUnits="strokeWidth" overflow="visible">
			<use xlink:href="#lend5" transform="scale(-4.3600156969306,-4.3600156969306) "/>
		</marker>
		<marker id="mrkr5-216" class="st19" v:arrowType="5" v:arrowSize="2" v:setback="0" refX="-0" orient="auto"
				markerUnits="strokeWidth" overflow="visible">
			<use xlink:href="#lend5" transform="scale(-4.3600156969306,-4.3600156969306) "/>
		</marker>
		<marker id="mrkr5-257" class="st26" v:arrowType="5" v:arrowSize="2" v:setback="0" refX="-0" orient="auto"
				markerUnits="strokeWidth" overflow="visible">
			<use xlink:href="#lend5" transform="scale(-4.5129075143928,-4.5129075143928) "/>
		</marker>
	</defs>
	<g v:mID="0" v:index="1" v:groupContext="foregroundPage">
		<title>Page-1</title>
		<v:pageProperties v:drawingScale="0.0393701" v:pageScale="0.0393701" v:drawingUnits="24" v:shadowOffsetX="8.5039"
				v:shadowOffsetY="-8.5039"/>
		<v:layer v:name="Connector" v:index="0"/>
		<g id="shape1-1" v:mID="1" v:groupContext="shape" transform="translate(0.121342,-678.366)">
			<title>Rounded Rectangle</title>
			<desc>vRLI agents installed on Windows, Ubuntu and Cloud Proxy Phot...</desc>
			<v:userDefs>
				<v:ud v:nameU="CTypeTopLeftSnip" v:prompt="" v:val="VT0(0):5"/>
				<v:ud v:nameU="CTypeTopRightSnip" v:prompt="" v:val="VT0(0):5"/>
				<v:ud v:nameU="CTypeBotLeftSnip" v:prompt="" v:val="VT0(0):5"/>
				<v:ud v:nameU="CTypeBotRightSnip" v:prompt="" v:val="VT0(0):5"/>
				<v:ud v:nameU="CornerLockHoriz" v:prompt="" v:val="VT0(1):5"/>
				<v:ud v:nameU="CornerLockVert" v:prompt="" v:val="VT0(1):5"/>
				<v:ud v:nameU="CornerLockDiag" v:prompt="" v:val="VT0(0):5"/>
				<v:ud v:nameU="TopLeftOffset" v:prompt="" v:val="VT0(0.15748031496063):24"/>
				<v:ud v:nameU="TopRightOffset" v:prompt="" v:val="VT0(0.15748031496063):24"/>
				<v:ud v:nameU="BotLeftOffset" v:prompt="" v:val="VT0(0.15748031496063):24"/>
				<v:ud v:nameU="BotRightOffset" v:prompt="" v:val="VT0(0.15748031496063):24"/>
				<v:ud v:nameU="visVersion" v:prompt="" v:val="VT0(15):26"/>
			</v:userDefs>
			<v:textBlock v:margins="rect(3.99998,3.99998,3.99998,3.99998)" v:tabSpace="42.5195"/>
			<v:textRect cx="56.6912" cy="721.006" width="113.39" height="85.039"/>
			<path d="M11.34 763.52 L102.05 763.52 A11.3384 11.3384 -180 0 0 113.39 752.18 L113.39 689.82 A11.3384 11.3384 -180 0
						 0 102.05 678.48 L11.34 678.48 A11.3384 11.3384 -180 0 0 0 689.82 L0 752.18 A11.3384 11.3384 -180 0 0 11.34
						 763.52 Z" class="st1"/>
			<text x="7.56" y="700.01" class="st2" v:langID="1033"><v:paragraph v:horizAlign="1"/><v:tabList/>Aria Operations for Logs <tspan
						x="18.46" dy="1.2em" class="st3">agents installed on </tspan><tspan x="11.13" dy="1.2em" class="st3">Windows, Ubuntu and </tspan><tspan
						x="10.94" dy="1.2em" class="st3">Cloud Proxy PhotonOS </tspan><tspan x="9.18" dy="1.2em" class="st3">management machines</tspan></text>		</g>
		<g id="shape2-10" v:mID="2" v:groupContext="shape" transform="translate(162.546,-678.366)">
			<title>Rounded Rectangle.2</title>
			<desc>Agents Configuration</desc>
			<v:userDefs>
				<v:ud v:nameU="CTypeTopLeftSnip" v:prompt="" v:val="VT0(0):5"/>
				<v:ud v:nameU="CTypeTopRightSnip" v:prompt="" v:val="VT0(0):5"/>
				<v:ud v:nameU="CTypeBotLeftSnip" v:prompt="" v:val="VT0(0):5"/>
				<v:ud v:nameU="CTypeBotRightSnip" v:prompt="" v:val="VT0(0):5"/>
				<v:ud v:nameU="CornerLockHoriz" v:prompt="" v:val="VT0(1):5"/>
				<v:ud v:nameU="CornerLockVert" v:prompt="" v:val="VT0(1):5"/>
				<v:ud v:nameU="CornerLockDiag" v:prompt="" v:val="VT0(0):5"/>
				<v:ud v:nameU="TopLeftOffset" v:prompt="" v:val="VT0(0.15748031496063):24"/>
				<v:ud v:nameU="TopRightOffset" v:prompt="" v:val="VT0(0.15748031496063):24"/>
				<v:ud v:nameU="BotLeftOffset" v:prompt="" v:val="VT0(0.15748031496063):24"/>
				<v:ud v:nameU="BotRightOffset" v:prompt="" v:val="VT0(0.15748031496063):24"/>
				<v:ud v:nameU="visVersion" v:prompt="" v:val="VT0(15):26"/>
			</v:userDefs>
			<v:textBlock v:margins="rect(3.99998,3.99998,3.99998,3.99998)" v:tabSpace="42.5195"/>
			<v:textRect cx="56.6912" cy="721.006" width="113.39" height="85.039"/>
			<path d="M11.34 763.52 L102.05 763.52 A11.3384 11.3384 -180 0 0 113.39 752.18 L113.39 689.82 A11.3384 11.3384 -180 0
						 0 102.05 678.48 L11.34 678.48 A11.3384 11.3384 -180 0 0 0 689.82 L0 752.18 A11.3384 11.3384 -180 0 0 11.34
						 763.52 Z" class="st1"/>
			<text x="13.76" y="724.01" class="st2" v:langID="1033"><v:paragraph v:horizAlign="1"/><v:tabList/>Agents Configuration</text>		</g>
		<g id="shape3-14" v:mID="3" v:groupContext="shape" transform="translate(322.277,-678.366)">
			<title>Rounded Rectangle.3</title>
			<desc>vRLI Listener collecting forwarded data</desc>
			<v:userDefs>
				<v:ud v:nameU="CTypeTopLeftSnip" v:prompt="" v:val="VT0(0):5"/>
				<v:ud v:nameU="CTypeTopRightSnip" v:prompt="" v:val="VT0(0):5"/>
				<v:ud v:nameU="CTypeBotLeftSnip" v:prompt="" v:val="VT0(0):5"/>
				<v:ud v:nameU="CTypeBotRightSnip" v:prompt="" v:val="VT0(0):5"/>
				<v:ud v:nameU="CornerLockHoriz" v:prompt="" v:val="VT0(1):5"/>
				<v:ud v:nameU="CornerLockVert" v:prompt="" v:val="VT0(1):5"/>
				<v:ud v:nameU="CornerLockDiag" v:prompt="" v:val="VT0(0):5"/>
				<v:ud v:nameU="TopLeftOffset" v:prompt="" v:val="VT0(0.15748031496063):24"/>
				<v:ud v:nameU="TopRightOffset" v:prompt="" v:val="VT0(0.15748031496063):24"/>
				<v:ud v:nameU="BotLeftOffset" v:prompt="" v:val="VT0(0.15748031496063):24"/>
				<v:ud v:nameU="BotRightOffset" v:prompt="" v:val="VT0(0.15748031496063):24"/>
				<v:ud v:nameU="visVersion" v:prompt="" v:val="VT0(15):26"/>
			</v:userDefs>
			<v:textBlock v:margins="rect(3.99998,3.99998,3.99998,3.99998)" v:tabSpace="42.5195"/>
			<v:textRect cx="56.6912" cy="721.006" width="113.39" height="85.039"/>
			<path d="M11.34 763.52 L102.05 763.52 A11.3384 11.3384 -180 0 0 113.39 752.18 L113.39 689.82 A11.3384 11.3384 -180 0
						 0 102.05 678.48 L11.34 678.48 A11.3384 11.3384 -180 0 0 0 689.82 L0 752.18 A11.3384 11.3384 -180 0 0 11.34
						 763.52 Z" class="st1"/>
			<text x="7.56" y="712.01" class="st2" v:langID="1033"><v:paragraph v:horizAlign="1"/><v:tabList/>Aria Operations for Logs <tspan
						x="19.88" dy="1.2em" class="st3">Listener collecting </tspan><tspan x="25.11" dy="1.2em" class="st3">forwarded data</tspan></text>		</g>
		<g id="shape4-20" v:mID="4" v:groupContext="shape" transform="translate(482.01,-678.366)">
			<title>Rounded Rectangle.4</title>
			<desc>vRLI Content packs configuration - VCF preconfigured - VCS Cu...</desc>
			<v:userDefs>
				<v:ud v:nameU="CTypeTopLeftSnip" v:prompt="" v:val="VT0(0):5"/>
				<v:ud v:nameU="CTypeTopRightSnip" v:prompt="" v:val="VT0(0):5"/>
				<v:ud v:nameU="CTypeBotLeftSnip" v:prompt="" v:val="VT0(0):5"/>
				<v:ud v:nameU="CTypeBotRightSnip" v:prompt="" v:val="VT0(0):5"/>
				<v:ud v:nameU="CornerLockHoriz" v:prompt="" v:val="VT0(1):5"/>
				<v:ud v:nameU="CornerLockVert" v:prompt="" v:val="VT0(1):5"/>
				<v:ud v:nameU="CornerLockDiag" v:prompt="" v:val="VT0(0):5"/>
				<v:ud v:nameU="TopLeftOffset" v:prompt="" v:val="VT0(0.15748031496063):24"/>
				<v:ud v:nameU="TopRightOffset" v:prompt="" v:val="VT0(0.15748031496063):24"/>
				<v:ud v:nameU="BotLeftOffset" v:prompt="" v:val="VT0(0.15748031496063):24"/>
				<v:ud v:nameU="BotRightOffset" v:prompt="" v:val="VT0(0.15748031496063):24"/>
				<v:ud v:nameU="visVersion" v:prompt="" v:val="VT0(15):26"/>
			</v:userDefs>
			<v:textBlock v:margins="rect(3.99998,3.99998,3.99998,3.99998)" v:tabSpace="42.5195"/>
			<v:textRect cx="56.6912" cy="721.006" width="113.39" height="85.039"/>
			<path d="M11.34 763.52 L102.05 763.52 A11.3384 11.3384 -180 0 0 113.39 752.18 L113.39 689.82 A11.3384 11.3384 -180 0
						 0 102.05 678.48 L11.34 678.48 A11.3384 11.3384 -180 0 0 0 689.82 L0 752.18 A11.3384 11.3384 -180 0 0 11.34
						 763.52 Z" class="st1"/>
			<text x="7.56" y="694.01" class="st2" v:langID="1033"><v:paragraph v:horizAlign="1"/><v:tabList/>Aria Operations for Logs <tspan
						x="27.8" dy="1.2em" class="st3">Content packs </tspan><tspan x="29.43" dy="1.2em" class="st3">configuration<v:newlineChar/></tspan><tspan
						x="16.35" dy="1.2em" class="st3">-</tspan> VCF preconfigured<v:newlineChar/><tspan x="12.02" dy="1.2em"
						class="st3">-</tspan> VCS Custom Content <tspan x="47.28" dy="1.2em" class="st3">pack</tspan></text>		</g>
		<g id="shape5-29" v:mID="5" v:groupContext="shape" transform="translate(482.01,-570.591)">
			<title>Rounded Rectangle.5</title>
			<desc>vRLI alerting configuration to sent events to vROPS if conten...</desc>
			<v:userDefs>
				<v:ud v:nameU="CTypeTopLeftSnip" v:prompt="" v:val="VT0(0):5"/>
				<v:ud v:nameU="CTypeTopRightSnip" v:prompt="" v:val="VT0(0):5"/>
				<v:ud v:nameU="CTypeBotLeftSnip" v:prompt="" v:val="VT0(0):5"/>
				<v:ud v:nameU="CTypeBotRightSnip" v:prompt="" v:val="VT0(0):5"/>
				<v:ud v:nameU="CornerLockHoriz" v:prompt="" v:val="VT0(1):5"/>
				<v:ud v:nameU="CornerLockVert" v:prompt="" v:val="VT0(1):5"/>
				<v:ud v:nameU="CornerLockDiag" v:prompt="" v:val="VT0(0):5"/>
				<v:ud v:nameU="TopLeftOffset" v:prompt="" v:val="VT0(0.15748031496063):24"/>
				<v:ud v:nameU="TopRightOffset" v:prompt="" v:val="VT0(0.15748031496063):24"/>
				<v:ud v:nameU="BotLeftOffset" v:prompt="" v:val="VT0(0.15748031496063):24"/>
				<v:ud v:nameU="BotRightOffset" v:prompt="" v:val="VT0(0.15748031496063):24"/>
				<v:ud v:nameU="visVersion" v:prompt="" v:val="VT0(15):26"/>
			</v:userDefs>
			<v:textBlock v:margins="rect(3.99998,3.99998,3.99998,3.99998)" v:tabSpace="42.5195"/>
			<v:textRect cx="56.6912" cy="721.006" width="113.39" height="85.039"/>
			<path d="M11.34 763.52 L102.05 763.52 A11.3384 11.3384 -180 0 0 113.39 752.18 L113.39 689.82 A11.3384 11.3384 -180 0
						 0 102.05 678.48 L11.34 678.48 A11.3384 11.3384 -180 0 0 0 689.82 L0 752.18 A11.3384 11.3384 -180 0 0 11.34
						 763.52 Z" class="st1"/>
			<text x="7.56" y="700.01" class="st2" v:langID="1033"><v:paragraph v:horizAlign="1"/><v:tabList/>Aria Operations for Logs <tspan
						x="7.29" dy="1.2em" class="st3">alerting configuration to </tspan><tspan x="18.57" dy="1.2em" class="st3">sent events to Aria </tspan><tspan
						x="13.31" dy="1.2em" class="st3">Operations if content </tspan><tspan x="4.05" dy="1.2em" class="st3">packs threshold exceeded</tspan></text>		</g>
		<g id="shape6-37" v:mID="6" v:groupContext="shape" transform="translate(0.121339,-570.591)">
			<title>Rounded Rectangle.6</title>
			<desc>Preconfigured VCF components forwarding data to vRLI cluster</desc>
			<v:userDefs>
				<v:ud v:nameU="CTypeTopLeftSnip" v:prompt="" v:val="VT0(0):5"/>
				<v:ud v:nameU="CTypeTopRightSnip" v:prompt="" v:val="VT0(0):5"/>
				<v:ud v:nameU="CTypeBotLeftSnip" v:prompt="" v:val="VT0(0):5"/>
				<v:ud v:nameU="CTypeBotRightSnip" v:prompt="" v:val="VT0(0):5"/>
				<v:ud v:nameU="CornerLockHoriz" v:prompt="" v:val="VT0(1):5"/>
				<v:ud v:nameU="CornerLockVert" v:prompt="" v:val="VT0(1):5"/>
				<v:ud v:nameU="CornerLockDiag" v:prompt="" v:val="VT0(0):5"/>
				<v:ud v:nameU="TopLeftOffset" v:prompt="" v:val="VT0(0.15748031496063):24"/>
				<v:ud v:nameU="TopRightOffset" v:prompt="" v:val="VT0(0.15748031496063):24"/>
				<v:ud v:nameU="BotLeftOffset" v:prompt="" v:val="VT0(0.15748031496063):24"/>
				<v:ud v:nameU="BotRightOffset" v:prompt="" v:val="VT0(0.15748031496063):24"/>
				<v:ud v:nameU="visVersion" v:prompt="" v:val="VT0(15):26"/>
			</v:userDefs>
			<v:textBlock v:margins="rect(3.99998,3.99998,3.99998,3.99998)" v:tabSpace="42.5195"/>
			<v:textRect cx="56.6912" cy="721.006" width="113.39" height="85.039"/>
			<path d="M11.34 763.52 L102.05 763.52 A11.3384 11.3384 -180 0 0 113.39 752.18 L113.39 689.82 A11.3384 11.3384 -180 0
						 0 102.05 678.48 L11.34 678.48 A11.3384 11.3384 -180 0 0 -0 689.82 L0 752.18 A11.3384 11.3384 -180 0 0 11.34
						 763.52 Z" class="st1"/>
			<text x="19.06" y="706.01" class="st2" v:langID="1033"><v:paragraph v:horizAlign="1"/><v:tabList/>Preconfigured VCF <tspan
						x="7.81" dy="1.2em" class="st3">components forwarding </tspan><tspan x="9.11" dy="1.2em" class="st3">data to Aria Operations </tspan><tspan
						x="25.73" dy="1.2em" class="st3">for Logs cluster</tspan></text>		</g>
		<g id="shape7-44" v:mID="7" v:groupContext="shape" transform="translate(192.452,-461.93)">
			<title>Diamond</title>
			<desc>Enable Launch in Context to integrate vRLI and vROPS</desc>
			<v:userDefs>
				<v:ud v:nameU="visVersion" v:prompt="" v:val="VT0(15):26"/>
			</v:userDefs>
			<v:textBlock v:margins="rect(3.99998,3.99998,3.99998,3.99998)" v:tabSpace="42.5195"/>
			<v:textRect cx="109.344" cy="721.006" width="218.7" height="85.039"/>
			<path d="M109.35 763.52 L218.69 721 L109.35 678.48 L0 721 L109.35 763.52 Z" class="st4"/>
			<text x="58.03" y="712.01" class="st5" v:langID="1033"><v:paragraph v:horizAlign="1"/><v:tabList/>Enable Launch in Context<v:lf/><tspan
						x="16.96" dy="1.2em" class="st3">to integrate Aria Operations for Logs and Aria </tspan><tspan x="86.74"
						dy="1.2em" class="st3">Operations</tspan></text>		</g>
		<g id="shape8-51" v:mID="8" v:groupContext="shape" transform="translate(482.01,-461.93)">
			<title>Rounded Rectangle.8</title>
			<desc>If errors are found in the logs and for this particular log a...</desc>
			<v:userDefs>
				<v:ud v:nameU="CTypeTopLeftSnip" v:prompt="" v:val="VT0(0):5"/>
				<v:ud v:nameU="CTypeTopRightSnip" v:prompt="" v:val="VT0(0):5"/>
				<v:ud v:nameU="CTypeBotLeftSnip" v:prompt="" v:val="VT0(0):5"/>
				<v:ud v:nameU="CTypeBotRightSnip" v:prompt="" v:val="VT0(0):5"/>
				<v:ud v:nameU="CornerLockHoriz" v:prompt="" v:val="VT0(1):5"/>
				<v:ud v:nameU="CornerLockVert" v:prompt="" v:val="VT0(1):5"/>
				<v:ud v:nameU="CornerLockDiag" v:prompt="" v:val="VT0(0):5"/>
				<v:ud v:nameU="TopLeftOffset" v:prompt="" v:val="VT0(0.15748031496063):24"/>
				<v:ud v:nameU="TopRightOffset" v:prompt="" v:val="VT0(0.15748031496063):24"/>
				<v:ud v:nameU="BotLeftOffset" v:prompt="" v:val="VT0(0.15748031496063):24"/>
				<v:ud v:nameU="BotRightOffset" v:prompt="" v:val="VT0(0.15748031496063):24"/>
				<v:ud v:nameU="visVersion" v:prompt="" v:val="VT0(15):26"/>
			</v:userDefs>
			<v:textBlock v:margins="rect(3.99998,3.99998,3.99998,3.99998)" v:tabSpace="42.5195"/>
			<v:textRect cx="56.6912" cy="721.006" width="113.39" height="85.039"/>
			<path d="M11.34 763.52 L102.05 763.52 A11.3384 11.3384 -180 0 0 113.39 752.18 L113.39 689.82 A11.3384 11.3384 -180 0
						 0 102.05 678.48 L11.34 678.48 A11.3384 11.3384 -180 0 0 0 689.82 L0 752.18 A11.3384 11.3384 -180 0 0 11.34
						 763.52 Z" class="st1"/>
			<text x="6.71" y="688.01" class="st2" v:langID="1033"><v:paragraph v:horizAlign="1"/><v:tabList/>If errors are found in the <tspan
						x="24.25" dy="1.2em" class="st3">logs and for this </tspan><tspan x="8.87" dy="1.2em" class="st3">particular log alerting is </tspan><tspan
						x="19.19" dy="1.2em" class="st3">enabled, then Aria </tspan><tspan x="16.87" dy="1.2em" class="st3">Operations for Logs </tspan><tspan
						x="8.02" dy="1.2em" class="st3">informs Aria Operations </tspan><tspan x="35.23" dy="1.2em" class="st3">about that</tspan></text>		</g>
		<g id="shape9-61" v:mID="9" v:groupContext="shape" transform="translate(0.121339,-462.816)">
			<title>Rounded Rectangle.9</title>
			<desc>Services configured to forward logs without Agent - KMS</desc>
			<v:userDefs>
				<v:ud v:nameU="CTypeTopLeftSnip" v:prompt="" v:val="VT0(0):5"/>
				<v:ud v:nameU="CTypeTopRightSnip" v:prompt="" v:val="VT0(0):5"/>
				<v:ud v:nameU="CTypeBotLeftSnip" v:prompt="" v:val="VT0(0):5"/>
				<v:ud v:nameU="CTypeBotRightSnip" v:prompt="" v:val="VT0(0):5"/>
				<v:ud v:nameU="CornerLockHoriz" v:prompt="" v:val="VT0(1):5"/>
				<v:ud v:nameU="CornerLockVert" v:prompt="" v:val="VT0(1):5"/>
				<v:ud v:nameU="CornerLockDiag" v:prompt="" v:val="VT0(0):5"/>
				<v:ud v:nameU="TopLeftOffset" v:prompt="" v:val="VT0(0.15748031496063):24"/>
				<v:ud v:nameU="TopRightOffset" v:prompt="" v:val="VT0(0.15748031496063):24"/>
				<v:ud v:nameU="BotLeftOffset" v:prompt="" v:val="VT0(0.15748031496063):24"/>
				<v:ud v:nameU="BotRightOffset" v:prompt="" v:val="VT0(0.15748031496063):24"/>
				<v:ud v:nameU="visVersion" v:prompt="" v:val="VT0(15):26"/>
			</v:userDefs>
			<v:textBlock v:margins="rect(3.99998,3.99998,3.99998,3.99998)" v:tabSpace="42.5195"/>
			<v:textRect cx="56.6912" cy="721.006" width="113.39" height="85.039"/>
			<path d="M11.34 763.52 L102.05 763.52 A11.3384 11.3384 -180 0 0 113.39 752.18 L113.39 689.82 A11.3384 11.3384 -180 0
						 0 102.05 678.48 L11.34 678.48 A11.3384 11.3384 -180 0 0 -0 689.82 L0 752.18 A11.3384 11.3384 -180 0 0 11.34
						 763.52 Z" class="st1"/>
			<text x="11.74" y="712.01" class="st2" v:langID="1033"><v:paragraph v:horizAlign="1"/><v:tabList/>Services configured to <tspan
						x="14.13" dy="1.2em" class="st3">forward logs without </tspan><tspan x="44.65" dy="1.2em" class="st3">Agent</tspan></text>		</g>
		<g id="shape10-67" v:mID="10" v:groupContext="shape" transform="translate(0.121339,-355.041)">
			<title>Rounded Rectangle.10</title>
			<desc>Hardware log forwarding Bull and DELL</desc>
			<v:userDefs>
				<v:ud v:nameU="CTypeTopLeftSnip" v:prompt="" v:val="VT0(0):5"/>
				<v:ud v:nameU="CTypeTopRightSnip" v:prompt="" v:val="VT0(0):5"/>
				<v:ud v:nameU="CTypeBotLeftSnip" v:prompt="" v:val="VT0(0):5"/>
				<v:ud v:nameU="CTypeBotRightSnip" v:prompt="" v:val="VT0(0):5"/>
				<v:ud v:nameU="CornerLockHoriz" v:prompt="" v:val="VT0(1):5"/>
				<v:ud v:nameU="CornerLockVert" v:prompt="" v:val="VT0(1):5"/>
				<v:ud v:nameU="CornerLockDiag" v:prompt="" v:val="VT0(0):5"/>
				<v:ud v:nameU="TopLeftOffset" v:prompt="" v:val="VT0(0.15748031496063):24"/>
				<v:ud v:nameU="TopRightOffset" v:prompt="" v:val="VT0(0.15748031496063):24"/>
				<v:ud v:nameU="BotLeftOffset" v:prompt="" v:val="VT0(0.15748031496063):24"/>
				<v:ud v:nameU="BotRightOffset" v:prompt="" v:val="VT0(0.15748031496063):24"/>
				<v:ud v:nameU="visVersion" v:prompt="" v:val="VT0(15):26"/>
			</v:userDefs>
			<v:textBlock v:margins="rect(3.99998,3.99998,3.99998,3.99998)" v:tabSpace="42.5195"/>
			<v:textRect cx="56.6912" cy="721.006" width="113.39" height="85.039"/>
			<path d="M11.34 763.52 L102.05 763.52 A11.3384 11.3384 -180 0 0 113.39 752.18 L113.39 689.82 A11.3384 11.3384 -180 0
						 0 102.05 678.48 L11.34 678.48 A11.3384 11.3384 -180 0 0 -0 689.82 L0 752.18 A11.3384 11.3384 -180 0 0 11.34
						 763.52 Z" class="st1"/>
			<text x="5.84" y="718.01" class="st2" v:langID="1033"><v:paragraph v:horizAlign="1"/><v:tabList/>Hardware log forwarding <tspan
						x="29.42" dy="1.2em" class="st3">Bull and DELL</tspan></text>		</g>
		<g id="shape11-72" v:mID="11" v:groupContext="shape" transform="translate(0.121342,-247.266)">
			<title>Rounded Rectangle.11</title>
			<desc>Creation of two users, one for agent installation and one for...</desc>
			<v:userDefs>
				<v:ud v:nameU="CTypeTopLeftSnip" v:prompt="" v:val="VT0(0):5"/>
				<v:ud v:nameU="CTypeTopRightSnip" v:prompt="" v:val="VT0(0):5"/>
				<v:ud v:nameU="CTypeBotLeftSnip" v:prompt="" v:val="VT0(0):5"/>
				<v:ud v:nameU="CTypeBotRightSnip" v:prompt="" v:val="VT0(0):5"/>
				<v:ud v:nameU="CornerLockHoriz" v:prompt="" v:val="VT0(1):5"/>
				<v:ud v:nameU="CornerLockVert" v:prompt="" v:val="VT0(1):5"/>
				<v:ud v:nameU="CornerLockDiag" v:prompt="" v:val="VT0(0):5"/>
				<v:ud v:nameU="TopLeftOffset" v:prompt="" v:val="VT0(0.15748031496063):24"/>
				<v:ud v:nameU="TopRightOffset" v:prompt="" v:val="VT0(0.15748031496063):24"/>
				<v:ud v:nameU="BotLeftOffset" v:prompt="" v:val="VT0(0.15748031496063):24"/>
				<v:ud v:nameU="BotRightOffset" v:prompt="" v:val="VT0(0.15748031496063):24"/>
				<v:ud v:nameU="visVersion" v:prompt="" v:val="VT0(15):26"/>
			</v:userDefs>
			<v:textBlock v:margins="rect(3.99998,3.99998,3.99998,3.99998)" v:tabSpace="42.5195"/>
			<v:textRect cx="56.6912" cy="721.006" width="113.39" height="85.039"/>
			<path d="M11.34 763.52 L102.05 763.52 A11.3384 11.3384 -180 0 0 113.39 752.18 L113.39 689.82 A11.3384 11.3384 -180 0
						 0 102.05 678.48 L11.34 678.48 A11.3384 11.3384 -180 0 0 0 689.82 L0 752.18 A11.3384 11.3384 -180 0 0 11.34
						 763.52 Z" class="st4"/>
			<text x="11.86" y="712.01" class="st5" v:langID="1033"><v:paragraph v:horizAlign="1"/><v:tabList/>Creation of two users, <tspan
						x="5.53" dy="1.2em" class="st3">one for agent installation </tspan><tspan x="25.97" dy="1.2em" class="st3">and one for LIC</tspan></text>		</g>
		<g id="shape12-78" v:mID="12" v:groupContext="shape" transform="translate(0.121342,-139.49)">
			<title>Rounded Rectangle.12</title>
			<desc>vROPS agents installed on Windows, Ubuntu and Cloud Proxy Pho...</desc>
			<v:userDefs>
				<v:ud v:nameU="CTypeTopLeftSnip" v:prompt="" v:val="VT0(0):5"/>
				<v:ud v:nameU="CTypeTopRightSnip" v:prompt="" v:val="VT0(0):5"/>
				<v:ud v:nameU="CTypeBotLeftSnip" v:prompt="" v:val="VT0(0):5"/>
				<v:ud v:nameU="CTypeBotRightSnip" v:prompt="" v:val="VT0(0):5"/>
				<v:ud v:nameU="CornerLockHoriz" v:prompt="" v:val="VT0(1):5"/>
				<v:ud v:nameU="CornerLockVert" v:prompt="" v:val="VT0(1):5"/>
				<v:ud v:nameU="CornerLockDiag" v:prompt="" v:val="VT0(0):5"/>
				<v:ud v:nameU="TopLeftOffset" v:prompt="" v:val="VT0(0.15748031496063):24"/>
				<v:ud v:nameU="TopRightOffset" v:prompt="" v:val="VT0(0.15748031496063):24"/>
				<v:ud v:nameU="BotLeftOffset" v:prompt="" v:val="VT0(0.15748031496063):24"/>
				<v:ud v:nameU="BotRightOffset" v:prompt="" v:val="VT0(0.15748031496063):24"/>
				<v:ud v:nameU="visVersion" v:prompt="" v:val="VT0(15):26"/>
			</v:userDefs>
			<v:textBlock v:margins="rect(3.99998,3.99998,3.99998,3.99998)" v:tabSpace="42.5195"/>
			<v:textRect cx="56.6912" cy="721.006" width="113.39" height="85.039"/>
			<path d="M11.34 763.52 L102.05 763.52 A11.3384 11.3384 -180 0 0 113.39 752.18 L113.39 689.82 A11.3384 11.3384 -180 0
						 0 102.05 678.48 L11.34 678.48 A11.3384 11.3384 -180 0 0 0 689.82 L0 752.18 A11.3384 11.3384 -180 0 0 11.34
						 763.52 Z" class="st4"/>
			<text x="10.15" y="700.01" class="st5" v:langID="1033"><v:paragraph v:horizAlign="1"/><v:tabList/>Aria Operations agents <tspan
						x="11.69" dy="1.2em" class="st3">installed on Windows, </tspan><tspan x="7.16" dy="1.2em" class="st3">Ubuntu and Cloud Proxy </tspan><tspan
						x="8.13" dy="1.2em" class="st3">PhotonOS management </tspan><tspan x="37.34" dy="1.2em" class="st3">machines</tspan></text>		</g>
		<g id="shape13-86" v:mID="13" v:groupContext="shape" transform="translate(177.286,-139.49)">
			<title>Rounded Rectangle.13</title>
			<desc>Collecting data from agents installed and from appliances whi...</desc>
			<v:userDefs>
				<v:ud v:nameU="CTypeTopLeftSnip" v:prompt="" v:val="VT0(0):5"/>
				<v:ud v:nameU="CTypeTopRightSnip" v:prompt="" v:val="VT0(0):5"/>
				<v:ud v:nameU="CTypeBotLeftSnip" v:prompt="" v:val="VT0(0):5"/>
				<v:ud v:nameU="CTypeBotRightSnip" v:prompt="" v:val="VT0(0):5"/>
				<v:ud v:nameU="CornerLockHoriz" v:prompt="" v:val="VT0(1):5"/>
				<v:ud v:nameU="CornerLockVert" v:prompt="" v:val="VT0(1):5"/>
				<v:ud v:nameU="CornerLockDiag" v:prompt="" v:val="VT0(0):5"/>
				<v:ud v:nameU="TopLeftOffset" v:prompt="" v:val="VT0(0.15748031496063):24"/>
				<v:ud v:nameU="TopRightOffset" v:prompt="" v:val="VT0(0.15748031496063):24"/>
				<v:ud v:nameU="BotLeftOffset" v:prompt="" v:val="VT0(0.15748031496063):24"/>
				<v:ud v:nameU="BotRightOffset" v:prompt="" v:val="VT0(0.15748031496063):24"/>
				<v:ud v:nameU="visVersion" v:prompt="" v:val="VT0(15):26"/>
			</v:userDefs>
			<v:textBlock v:margins="rect(3.99998,3.99998,3.99998,3.99998)" v:tabSpace="42.5195"/>
			<v:textRect cx="56.6912" cy="721.006" width="113.39" height="85.039"/>
			<path d="M11.34 763.52 L102.05 763.52 A11.3384 11.3384 -180 0 0 113.39 752.18 L113.39 689.82 A11.3384 11.3384 -180 0
						 0 102.05 678.48 L11.34 678.48 A11.3384 11.3384 -180 0 0 -0 689.82 L0 752.18 A11.3384 11.3384 -180 0 0 11.34
						 763.52 Z" class="st4"/>
			<text x="15.44" y="694.01" class="st5" v:langID="1033"><v:paragraph v:horizAlign="1"/><v:tabList/>Collecting data from <tspan
						x="5.05" dy="1.2em" class="st3">agents installed and from </tspan><tspan x="14.19" dy="1.2em" class="st3">appliances which are </tspan><tspan
						x="31.79" dy="1.2em" class="st3">managed by </tspan><tspan x="9.99" dy="1.2em" class="st3">Management Packs via </tspan><tspan
						x="38.79" dy="1.2em" class="st3">adapters</tspan></text>		</g>
		<g id="shape14-95" v:mID="14" v:groupContext="shape" transform="translate(323.978,-300.711)">
			<title>Rounded Rectangle.14</title>
			<desc>vROPS collects events from VRLI, collects data via configured...</desc>
			<v:userDefs>
				<v:ud v:nameU="CTypeTopLeftSnip" v:prompt="" v:val="VT0(0):5"/>
				<v:ud v:nameU="CTypeTopRightSnip" v:prompt="" v:val="VT0(0):5"/>
				<v:ud v:nameU="CTypeBotLeftSnip" v:prompt="" v:val="VT0(0):5"/>
				<v:ud v:nameU="CTypeBotRightSnip" v:prompt="" v:val="VT0(0):5"/>
				<v:ud v:nameU="CornerLockHoriz" v:prompt="" v:val="VT0(1):5"/>
				<v:ud v:nameU="CornerLockVert" v:prompt="" v:val="VT0(1):5"/>
				<v:ud v:nameU="CornerLockDiag" v:prompt="" v:val="VT0(0):5"/>
				<v:ud v:nameU="TopLeftOffset" v:prompt="" v:val="VT0(0):26"/>
				<v:ud v:nameU="TopRightOffset" v:prompt="" v:val="VT0(0):26"/>
				<v:ud v:nameU="BotLeftOffset" v:prompt="" v:val="VT0(0):26"/>
				<v:ud v:nameU="BotRightOffset" v:prompt="" v:val="VT0(0):26"/>
				<v:ud v:nameU="visVersion" v:prompt="" v:val="VT0(15):26"/>
			</v:userDefs>
			<v:textBlock v:margins="rect(3.99998,3.99998,3.99998,3.99998)" v:tabSpace="42.5195"/>
			<v:textRect cx="87.1635" cy="721.006" width="174.34" height="85.039"/>
			<path d="M17.43 763.52 L156.9 763.52 A17.4327 17.4327 -180 0 0 174.33 746.08 L174.33 695.91 A17.4327 17.4327 -180 0 0
						 156.9 678.48 L17.43 678.48 A17.4327 17.4327 -180 0 0 0 695.91 L0 746.08 A17.4327 17.4327 -180 0 0 17.43
						 763.52 Z" class="st6"/>
			<text x="13.19" y="706.01" class="st7" v:langID="1033"><v:paragraph v:horizAlign="1"/><v:tabList/>Aria Operations collects events from <tspan
						x="10.16" dy="1.2em" class="st3">Aria Operations for Logs, collects data </tspan><tspan x="8.62" dy="1.2em"
						class="st3">via configured Management packs and </tspan><tspan x="44.3" dy="1.2em" class="st3">from installed agents</tspan></text>		</g>
		<g id="shape15-103" v:mID="15" v:groupContext="shape" transform="translate(354.451,-139.49)">
			<title>Rounded Rectangle.15</title>
			<desc>Configured policies and groups of VMs responsible for generat...</desc>
			<v:userDefs>
				<v:ud v:nameU="CTypeTopLeftSnip" v:prompt="" v:val="VT0(0):5"/>
				<v:ud v:nameU="CTypeTopRightSnip" v:prompt="" v:val="VT0(0):5"/>
				<v:ud v:nameU="CTypeBotLeftSnip" v:prompt="" v:val="VT0(0):5"/>
				<v:ud v:nameU="CTypeBotRightSnip" v:prompt="" v:val="VT0(0):5"/>
				<v:ud v:nameU="CornerLockHoriz" v:prompt="" v:val="VT0(1):5"/>
				<v:ud v:nameU="CornerLockVert" v:prompt="" v:val="VT0(1):5"/>
				<v:ud v:nameU="CornerLockDiag" v:prompt="" v:val="VT0(0):5"/>
				<v:ud v:nameU="TopLeftOffset" v:prompt="" v:val="VT0(0):26"/>
				<v:ud v:nameU="TopRightOffset" v:prompt="" v:val="VT0(0):26"/>
				<v:ud v:nameU="BotLeftOffset" v:prompt="" v:val="VT0(0):26"/>
				<v:ud v:nameU="BotRightOffset" v:prompt="" v:val="VT0(0):26"/>
				<v:ud v:nameU="visVersion" v:prompt="" v:val="VT0(15):26"/>
			</v:userDefs>
			<v:textBlock v:margins="rect(3.99998,3.99998,3.99998,3.99998)" v:tabSpace="42.5195"/>
			<v:textRect cx="120.47" cy="721.006" width="240.95" height="85.039"/>
			<path d="M24.09 763.52 L216.85 763.52 A24.094 24.094 -180 0 0 240.94 739.42 L240.94 702.57 A24.094 24.094 -180 0 0 216.85
						 678.48 L24.09 678.48 A24.094 24.094 -180 0 0 -0 702.57 L0 739.42 A24.094 24.094 -180 0 0 24.09 763.52 Z"
					class="st8"/>
			<text x="10.68" y="712.01" class="st9" v:langID="1033"><v:paragraph v:horizAlign="1"/><v:tabList/>Configured policies and groups of VMs responsible for <tspan
						x="5.04" dy="1.2em" class="st3">generating alerts to ITSM in proper way (DPC</tspan>-22419) still <tspan
						x="15.78" dy="1.2em" class="st3">all critical and immediate alerts transferred to ITSM</tspan></text>		</g>
		<g id="shape16-110" v:mID="16" v:groupContext="shape" transform="translate(0.121342,-0.121256)">
			<title>Rounded Rectangle.16</title>
			<desc>vROPS Snow plugin Enabled and configured to send data to HTTP...</desc>
			<v:userDefs>
				<v:ud v:nameU="CTypeTopLeftSnip" v:prompt="" v:val="VT0(0):5"/>
				<v:ud v:nameU="CTypeTopRightSnip" v:prompt="" v:val="VT0(0):5"/>
				<v:ud v:nameU="CTypeBotLeftSnip" v:prompt="" v:val="VT0(0):5"/>
				<v:ud v:nameU="CTypeBotRightSnip" v:prompt="" v:val="VT0(0):5"/>
				<v:ud v:nameU="CornerLockHoriz" v:prompt="" v:val="VT0(1):5"/>
				<v:ud v:nameU="CornerLockVert" v:prompt="" v:val="VT0(1):5"/>
				<v:ud v:nameU="CornerLockDiag" v:prompt="" v:val="VT0(0):5"/>
				<v:ud v:nameU="TopLeftOffset" v:prompt="" v:val="VT0(0):26"/>
				<v:ud v:nameU="TopRightOffset" v:prompt="" v:val="VT0(0):26"/>
				<v:ud v:nameU="BotLeftOffset" v:prompt="" v:val="VT0(0):26"/>
				<v:ud v:nameU="BotRightOffset" v:prompt="" v:val="VT0(0):26"/>
				<v:ud v:nameU="visVersion" v:prompt="" v:val="VT0(15):26"/>
			</v:userDefs>
			<v:textBlock v:margins="rect(3.99998,3.99998,3.99998,3.99998)" v:tabSpace="42.5195"/>
			<v:textRect cx="38.5496" cy="721.006" width="77.11" height="85.039"/>
			<path d="M7.71 763.52 L69.39 763.52 A7.71007 7.71007 -180 0 0 77.1 755.81 L77.1 686.19 A7.71007 7.71007 -180 0 0 69.39
						 678.48 L7.71 678.48 A7.71007 7.71007 -180 0 0 0 686.19 L0 755.81 A7.71007 7.71007 -180 0 0 7.71 763.52 Z"
					class="st10"/>
			<text x="6.64" y="694.01" class="st11" v:langID="1033"><v:paragraph v:horizAlign="1"/><v:tabList/>Aria Operations <tspan
						x="13.75" dy="1.2em" class="st3">Snow plugin </tspan><tspan x="13.42" dy="1.2em" class="st3">Enabled and </tspan><tspan
						x="11.22" dy="1.2em" class="st3">configured to </tspan><tspan x="13.19" dy="1.2em" class="st3">send data to </tspan><tspan
						x="8.9" dy="1.2em" class="st3">HTTP Gateway</tspan></text>		</g>
		<g id="shape17-120" v:mID="17" v:groupContext="shape" transform="translate(117.356,-0.121256)">
			<title>Rounded Rectangle.17</title>
			<desc>JSON file transfer from vROPS to HTTP Gateway</desc>
			<v:userDefs>
				<v:ud v:nameU="CTypeTopLeftSnip" v:prompt="" v:val="VT0(0):5"/>
				<v:ud v:nameU="CTypeTopRightSnip" v:prompt="" v:val="VT0(0):5"/>
				<v:ud v:nameU="CTypeBotLeftSnip" v:prompt="" v:val="VT0(0):5"/>
				<v:ud v:nameU="CTypeBotRightSnip" v:prompt="" v:val="VT0(0):5"/>
				<v:ud v:nameU="CornerLockHoriz" v:prompt="" v:val="VT0(1):5"/>
				<v:ud v:nameU="CornerLockVert" v:prompt="" v:val="VT0(1):5"/>
				<v:ud v:nameU="CornerLockDiag" v:prompt="" v:val="VT0(0):5"/>
				<v:ud v:nameU="TopLeftOffset" v:prompt="" v:val="VT0(0):26"/>
				<v:ud v:nameU="TopRightOffset" v:prompt="" v:val="VT0(0):26"/>
				<v:ud v:nameU="BotLeftOffset" v:prompt="" v:val="VT0(0):26"/>
				<v:ud v:nameU="BotRightOffset" v:prompt="" v:val="VT0(0):26"/>
				<v:ud v:nameU="visVersion" v:prompt="" v:val="VT0(15):26"/>
			</v:userDefs>
			<v:textBlock v:margins="rect(3.99998,3.99998,3.99998,3.99998)" v:tabSpace="42.5195"/>
			<v:textRect cx="38.5496" cy="721.006" width="77.11" height="85.039"/>
			<path d="M7.71 763.52 L69.39 763.52 A7.71007 7.71007 -180 0 0 77.1 755.81 L77.1 686.19 A7.71007 7.71007 -180 0 0 69.39
						 678.48 L7.71 678.48 A7.71007 7.71007 -180 0 0 -0 686.19 L0 755.81 A7.71007 7.71007 -180 0 0 7.71 763.52
						 Z" class="st10"/>
			<text x="20.68" y="700.01" class="st11" v:langID="1033"><v:paragraph v:horizAlign="1"/><v:tabList/>JSON file <tspan
						x="11.37" dy="1.2em" class="st3">transfer from </tspan><tspan x="6.64" dy="1.2em" class="st3">Aria Operations </tspan><tspan
						x="22.54" dy="1.2em" class="st3">to HTTP </tspan><tspan x="20.6" dy="1.2em" class="st3">Gateway</tspan></text>		</g>
		<g id="shape18-128" v:mID="18" v:groupContext="shape" transform="translate(232.278,-0.121256)">
			<title>Rounded Rectangle.18</title>
			<desc>Deployed HTTP Gateway receiving JSON and translating it to cl...</desc>
			<v:userDefs>
				<v:ud v:nameU="CTypeTopLeftSnip" v:prompt="" v:val="VT0(0):5"/>
				<v:ud v:nameU="CTypeTopRightSnip" v:prompt="" v:val="VT0(0):5"/>
				<v:ud v:nameU="CTypeBotLeftSnip" v:prompt="" v:val="VT0(0):5"/>
				<v:ud v:nameU="CTypeBotRightSnip" v:prompt="" v:val="VT0(0):5"/>
				<v:ud v:nameU="CornerLockHoriz" v:prompt="" v:val="VT0(1):5"/>
				<v:ud v:nameU="CornerLockVert" v:prompt="" v:val="VT0(1):5"/>
				<v:ud v:nameU="CornerLockDiag" v:prompt="" v:val="VT0(0):5"/>
				<v:ud v:nameU="TopLeftOffset" v:prompt="" v:val="VT0(0):26"/>
				<v:ud v:nameU="TopRightOffset" v:prompt="" v:val="VT0(0):26"/>
				<v:ud v:nameU="BotLeftOffset" v:prompt="" v:val="VT0(0):26"/>
				<v:ud v:nameU="BotRightOffset" v:prompt="" v:val="VT0(0):26"/>
				<v:ud v:nameU="visVersion" v:prompt="" v:val="VT0(15):26"/>
			</v:userDefs>
			<v:textBlock v:margins="rect(3.99998,3.99998,3.99998,3.99998)" v:tabSpace="42.5195"/>
			<v:textRect cx="61.0259" cy="721.006" width="122.07" height="85.039"/>
			<path d="M12.21 763.52 L109.85 763.52 A12.2054 7.71007 -0 0 0 122.05 755.81 L122.05 686.19 A12.2054 7.71007 -0 0 0 109.85
						 678.48 L12.21 678.48 A12.2054 7.71007 -0 0 0 0 686.19 L0 755.81 A12.2054 7.71007 -0 0 0 12.21 763.52 Z"
					class="st10"/>
			<text x="10.9" y="700.01" class="st11" v:langID="1033"><v:paragraph v:horizAlign="1"/><v:tabList/>Deployed HTTP Gateway <tspan
						x="22.32" dy="1.2em" class="st3">receiving JSON and </tspan><tspan x="17.68" dy="1.2em" class="st3">translating it to SOAP </tspan><tspan
						x="6.74" dy="1.2em" class="st3">understandable by ATF 2.0 </tspan><tspan x="30.13" dy="1.2em" class="st3">Event Manager</tspan></text>		</g>
		<g id="shape19-136" v:mID="19" v:groupContext="shape" transform="translate(396.85,-0.00396014)">
			<title>Rounded Rectangle.21</title>
			<desc>Sending SOAP to Event Manager and creating Incident ticket in...</desc>
			<v:userDefs>
				<v:ud v:nameU="CTypeTopLeftSnip" v:prompt="" v:val="VT0(0):5"/>
				<v:ud v:nameU="CTypeTopRightSnip" v:prompt="" v:val="VT0(0):5"/>
				<v:ud v:nameU="CTypeBotLeftSnip" v:prompt="" v:val="VT0(0):5"/>
				<v:ud v:nameU="CTypeBotRightSnip" v:prompt="" v:val="VT0(0):5"/>
				<v:ud v:nameU="CornerLockHoriz" v:prompt="" v:val="VT0(1):5"/>
				<v:ud v:nameU="CornerLockVert" v:prompt="" v:val="VT0(1):5"/>
				<v:ud v:nameU="CornerLockDiag" v:prompt="" v:val="VT0(0):5"/>
				<v:ud v:nameU="TopLeftOffset" v:prompt="" v:val="VT0(0):26"/>
				<v:ud v:nameU="TopRightOffset" v:prompt="" v:val="VT0(0):26"/>
				<v:ud v:nameU="BotLeftOffset" v:prompt="" v:val="VT0(0):26"/>
				<v:ud v:nameU="BotRightOffset" v:prompt="" v:val="VT0(0):26"/>
				<v:ud v:nameU="visVersion" v:prompt="" v:val="VT0(15):26"/>
			</v:userDefs>
			<v:textBlock v:margins="rect(3.99998,3.99998,3.99998,3.99998)" v:tabSpace="42.5195"/>
			<v:textRect cx="52.4406" cy="721.006" width="104.9" height="85.039"/>
			<path d="M10.49 763.52 L94.39 763.52 A10.4883 7.71007 -0 0 0 104.88 755.81 L104.88 686.19 A10.4883 7.71007 -0 0 0 94.39
						 678.48 L10.49 678.48 A10.4883 7.71007 -0 0 0 -0 686.19 L0 755.81 A10.4883 7.71007 -0 0 0 10.49 763.52 Z"
					class="st10"/>
			<text x="6" y="706.01" class="st11" v:langID="1033"><v:paragraph v:horizAlign="1"/><v:tabList/>Sending SOAP to Event <tspan
						x="7.71" dy="1.2em" class="st3">Manager and creating </tspan><tspan x="5.05" dy="1.2em" class="st3">Event/Incident ticket in </tspan><tspan
						x="39.16" dy="1.2em" class="st3">SNOW</tspan></text>		</g>
		<g id="shape20-143" v:mID="20" v:groupContext="shape" v:layerMember="0" transform="translate(113.507,-720.889)">
			<title>Dynamic connector</title>
			<path d="M0 763.52 L43.32 763.52 L49.04 763.52" class="st12"/>
		</g>
		<g id="shape21-149" v:mID="21" v:groupContext="shape" v:layerMember="0" transform="translate(275.931,-720.889)">
			<title>Dynamic connector.26</title>
			<path d="M0 763.52 L40.62 763.52 L46.34 763.52" class="st12"/>
		</g>
		<g id="shape22-154" v:mID="22" v:groupContext="shape" v:layerMember="0" transform="translate(435.663,-720.889)">
			<title>Dynamic connector.27</title>
			<path d="M0 763.52 L40.62 763.52 L46.34 763.52" class="st12"/>
		</g>
		<g id="shape23-159" v:mID="23" v:groupContext="shape" v:layerMember="0" transform="translate(538.705,-655.634)">
			<title>Dynamic connector.28</title>
			<path d="M0 740.79 L0 757.8 L0 763.52" class="st12"/>
		</g>
		<g id="shape24-164" v:mID="24" v:groupContext="shape" v:layerMember="0" transform="translate(538.698,-546.968)">
			<title>Dynamic connector.29</title>
			<path d="M0 739.9 L0 757.8 L0 763.52" class="st12"/>
		</g>
		<g id="shape25-169" v:mID="25" v:groupContext="shape" v:layerMember="0" transform="translate(301.8,-546.968)">
			<title>Dynamic connector.30</title>
			<path d="M180.21 697.38 L0 697.38 L0 757.8 L0 763.52" class="st12"/>
		</g>
		<g id="shape26-174" v:mID="26" v:groupContext="shape" v:layerMember="0" transform="translate(113.507,-289.785)">
			<title>Dynamic connector.34</title>
			<path d="M0 763.52 L49.61 763.52 L49.61 548.85 L73.22 548.85 L78.94 548.85" class="st14"/>
		</g>
		<g id="shape27-180" v:mID="27" v:groupContext="shape" v:layerMember="0" transform="translate(56.8174,-224.534)">
			<title>Dynamic connector.35</title>
			<path d="M0 740.79 L0 757.8 L0 763.52" class="st14"/>
		</g>
		<g id="shape28-185" v:mID="28" v:groupContext="shape" v:layerMember="0" transform="translate(113.507,-182.013)">
			<title>Dynamic connector.36</title>
			<path d="M0 763.52 L58.06 763.52 L63.78 763.52" class="st14"/>
		</g>
		<g id="shape29-190" v:mID="29" v:groupContext="shape" v:layerMember="0" transform="translate(233.979,-224.529)">
			<title>Dynamic connector.37</title>
			<path d="M0 763.52 L0 644.82 L84.28 644.82 L90 644.82" class="st14"/>
		</g>
		<g id="shape30-195" v:mID="30" v:groupContext="shape" v:layerMember="0" transform="translate(498.31,-343.231)">
			<title>Dynamic connector.38</title>
			<path d="M40.39 644.82 L40.39 763.52 L5.72 763.52 L0 763.52" class="st16"/>
		</g>
		<g id="shape31-201" v:mID="31" v:groupContext="shape" v:layerMember="0" transform="translate(301.797,-385.748)">
			<title>Dynamic connector.39</title>
			<path d="M0 687.34 L0 729.86 L109.35 729.86 L109.35 757.8 L109.35 763.52" class="st14"/>
		</g>
		<g id="shape32-206" v:mID="32" v:groupContext="shape" v:layerMember="0" transform="translate(411.143,-224.529)">
			<title>Dynamic connector.40</title>
			<path d="M0 687.34 L0 730.45 L63.78 730.45 L63.78 757.8 L63.78 763.52" class="st14"/>
		</g>
		<g id="shape33-211" v:mID="33" v:groupContext="shape" v:layerMember="0" transform="translate(38.6743,-85.1584)">
			<title>Dynamic connector.41</title>
			<path d="M436.25 709.19 L436.25 735.17 L0 735.17 L0 757.8 L0 763.52" class="st18"/>
		</g>
		<g id="shape34-217" v:mID="34" v:groupContext="shape" v:layerMember="0" transform="translate(77.2233,-42.6441)">
			<title>Dynamic connector.42</title>
			<path d="M0 763.52 L29.54 763.52 L34.69 763.52 L40.41 763.52" class="st18"/>
		</g>
		<g id="shape35-222" v:mID="35" v:groupContext="shape" v:layerMember="0" transform="translate(195.591,-42.5239)">
			<title>Dynamic connector.43</title>
			<path d="M0 763.52 L29.41 763.52 L31.13 763.52 L36.85 763.52" class="st18"/>
		</g>
		<g id="shape36-227" v:mID="36" v:groupContext="shape" v:layerMember="0" transform="translate(354.331,-42.5239)">
			<title>Dynamic connector.44</title>
			<path d="M0 763.52 L34.65 763.52 L36.8 763.52 L42.52 763.52" class="st18"/>
		</g>
		<g id="shape37-232" v:mID="37" v:groupContext="shape" transform="translate(162.736,-572.59)">
			<title>Sheet.37</title>
			<desc>Preconfigured VCF components forwarding data to vRLI cluster</desc>
			<v:userDefs>
				<v:ud v:nameU="CTypeTopLeftSnip" v:prompt="" v:val="VT0(0):5"/>
				<v:ud v:nameU="CTypeTopRightSnip" v:prompt="" v:val="VT0(0):5"/>
				<v:ud v:nameU="CTypeBotLeftSnip" v:prompt="" v:val="VT0(0):5"/>
				<v:ud v:nameU="CTypeBotRightSnip" v:prompt="" v:val="VT0(0):5"/>
				<v:ud v:nameU="CornerLockHoriz" v:prompt="" v:val="VT0(1):5"/>
				<v:ud v:nameU="CornerLockVert" v:prompt="" v:val="VT0(1):5"/>
				<v:ud v:nameU="CornerLockDiag" v:prompt="" v:val="VT0(0):5"/>
				<v:ud v:nameU="TopLeftOffset" v:prompt="" v:val="VT0(0.15748031496063):24"/>
				<v:ud v:nameU="TopRightOffset" v:prompt="" v:val="VT0(0.15748031496063):24"/>
				<v:ud v:nameU="BotLeftOffset" v:prompt="" v:val="VT0(0.15748031496063):24"/>
				<v:ud v:nameU="BotRightOffset" v:prompt="" v:val="VT0(0.15748031496063):24"/>
				<v:ud v:nameU="visVersion" v:prompt="" v:val="VT0(15):26"/>
			</v:userDefs>
			<v:textBlock v:margins="rect(3.99998,3.99998,3.99998,3.99998)" v:tabSpace="42.5195"/>
			<v:textRect cx="56.6912" cy="721.006" width="113.39" height="85.039"/>
			<path d="M11.34 763.52 L102.05 763.52 A11.3384 11.3384 -180 0 0 113.39 752.18 L113.39 689.82 A11.3384 11.3384 -180 0
						 0 102.05 678.48 L11.34 678.48 A11.3384 11.3384 -180 0 0 0 689.82 L0 752.18 A11.3384 11.3384 -180 0 0 11.34
						 763.52 Z" class="st20"/>
			<text x="4" y="694.01" class="st2" v:langID="1033"><v:paragraph/><v:tabList/>Pre-installed fluentd <tspan x="4"
						dy="1.2em" class="st3">based logging agent </tspan><tspan x="4" dy="1.2em" class="st3">within Aria Automation </tspan><tspan
						x="4" dy="1.2em" class="st3">(on</tspan>-prem)  configured to <tspan x="4" dy="1.2em" class="st3">forward logs to Aria </tspan><tspan
						x="4" dy="1.2em" class="st3">Operations for Logs</tspan></text>		</g>
		<g id="shape38-242" v:mID="38" v:groupContext="shape" transform="translate(113.511,-613.111)">
			<title>path6211</title>
			<path d="M0 763.52 L21.78 763.52 L21.78 655.77 L0 763.52 Z" class="st21"/>
			<path d="M0 763.52 L21.78 763.52 L21.78 655.77" class="st22"/>
		</g>
		<g id="shape39-245" v:mID="39" v:groupContext="shape" transform="translate(56.8163,-397.561)">
			<title>path6215</title>
		</g>
		<g id="shape40-246" v:mID="40" v:groupContext="shape" transform="translate(113.511,-505.336)">
			<title>path6217</title>
			<path d="M0 763.52 L21.77 763.52 L21.77 652.62 L0 763.52 Z" class="st21"/>
			<path d="M0 763.52 L21.77 763.52 L21.77 652.62" class="st23"/>
		</g>
		<g id="shape41-249" v:mID="41" v:groupContext="shape" transform="translate(112.63,-394.976)">
			<title>path6223</title>
			<path d="M0 763.52 L22.66 763.52 L22.66 652.89 L0 763.52 Z" class="st21"/>
			<path d="M0 763.52 L22.66 763.52 L22.66 652.89" class="st24"/>
		</g>
		<g id="shape42-252" v:mID="42" v:groupContext="shape" v:layerMember="0" transform="translate(218.808,848.652) rotate(180)">
			<title>Sheet.42</title>
			<path d="M0 742.73 L0 758.29 L0 763.52" class="st25"/>
		</g>
	</g>
</svg>
