<?xml version="1.0" encoding="UTF-8" standalone="no"?>
<!DOCTYPE svg PUBLIC "-//W3C//DTD SVG 1.1//EN" "http://www.w3.org/Graphics/SVG/1.1/DTD/svg11.dtd">
<!-- Generated by Microsoft Visio, SVG Export workflowOverview.svg workflowOverview -->
<svg xmlns="http://www.w3.org/2000/svg" xmlns:xlink="http://www.w3.org/1999/xlink" xmlns:ev="http://www.w3.org/2001/xml-events"
		xmlns:v="http://schemas.microsoft.com/visio/2003/SVGExtensions/" width="12.5104in" height="7.61458in"
		viewBox="0 0 900.75 548.25" xml:space="preserve" color-interpolation-filters="sRGB" class="st22">
	<v:documentProperties v:langID="1033" v:viewMarkup="false"/>

	<style type="text/css">
	<![CDATA[
		.st1 {fill:#dae8fc;stroke:#6c8ebf;stroke-linecap:butt;stroke-width:0.75}
		.st2 {fill:none;stroke:none;stroke-linecap:butt;stroke-width:0.75}
		.st3 {fill:#000000;font-family:Calibri;font-size:0.75em}
		.st4 {fill:#f9f7ed;stroke:#36393d;stroke-linecap:butt;stroke-width:0.75}
		.st5 {fill:#ffffff;stroke:#000000;stroke-linecap:butt;stroke-width:0.75}
		.st6 {fill:#fff2cc;stroke:#d6b656;stroke-linecap:butt;stroke-width:0.75}
		.st7 {font-size:1em}
		.st8 {fill:none}
		.st9 {stroke:#000000;stroke-linecap:butt;stroke-width:0.75}
		.st10 {fill:#000000;stroke:#000000;stroke-linecap:butt;stroke-width:0.75}
		.st11 {stroke:#00cc66;stroke-linecap:butt;stroke-width:0.75}
		.st12 {fill:#00cc66;stroke:#00cc66;stroke-linecap:butt;stroke-width:0.75}
		.st13 {fill:#f5f5f5;stroke:#666666;stroke-linecap:butt;stroke-width:0.75}
		.st14 {fill:#333333;font-family:Calibri;font-size:0.75em}
		.st15 {stroke:#000000;stroke-linecap:butt;stroke-width:1.5}
		.st16 {fill:#000000;stroke:#000000;stroke-linecap:butt;stroke-width:1.5}
		.st17 {stroke:#66b2ff;stroke-linecap:butt;stroke-width:1.5}
		.st18 {fill:#66b2ff;stroke:#66b2ff;stroke-linecap:butt;stroke-width:1.5}
		.st19 {marker-end:url(#mrkr5-153);stroke:#000000;stroke-linecap:round;stroke-linejoin:round;stroke-width:0.75}
		.st20 {fill:#000000;fill-opacity:1;stroke:#000000;stroke-opacity:1;stroke-width:0.22935779816514}
		.st21 {fill:#000000;font-family:Calibri;font-size:1.00001em}
		.st22 {fill:none;fill-rule:evenodd;font-size:12px;overflow:visible;stroke-linecap:square;stroke-miterlimit:3}
	]]>
	</style>

	<defs id="Markers">
		<g id="lend5">
			<path d="M 2 1 L 0 0 L 1.98117 -0.993387 C 1.67173 -0.364515 1.67301 0.372641 1.98465 1.00043 " style="stroke:none"/>
		</g>
		<marker id="mrkr5-153" class="st20" v:arrowType="5" v:arrowSize="2" v:setback="7.63" refX="-7.63" orient="auto"
				markerUnits="strokeWidth" overflow="visible">
			<use xlink:href="#lend5" transform="scale(-4.36,-4.36) "/>
		</marker>
	</defs>
	<g v:mID="0" v:index="1" v:groupContext="foregroundPage">
		<title>workflowOverview</title>
		<v:pageProperties v:drawingScale="1" v:pageScale="1" v:drawingUnits="19" v:shadowOffsetX="9" v:shadowOffsetY="-9"/>
		<v:layer v:name="Connector" v:index="0"/>
		<g id="group1-1" transform="translate(0.375,-0.375)" v:mID="1" v:groupContext="group">
			<title>Sheet.1</title>
			<g id="shape2-2" v:mID="2" v:groupContext="shape" transform="translate(3.0056E-12,-305.625)">
				<title>Sheet.2</title>
				<rect x="0" y="306.375" width="345" height="241.875" class="st1"/>
			</g>
			<g id="shape3-4" v:mID="3" v:groupContext="shape" transform="translate(154.475,-531.3)">
				<title>Sheet.3</title>
				<desc>vRA </desc>
				<v:textBlock v:margins="rect(0,0,0,0)"/>
				<v:textRect cx="18.025" cy="542.85" width="36.05" height="10.8"/>
				<rect x="0" y="537.45" width="36.05" height="10.8" class="st2"/>
				<text x="9.93" y="545.55" class="st3" v:langID="1033"><v:paragraph v:horizAlign="1"/><v:tabList/>vRA </text>			</g>
			<g id="shape4-7" v:mID="4" v:groupContext="shape" transform="translate(352.5,-17.625)">
				<title>Sheet.4</title>
				<rect x="0" y="18.375" width="360" height="529.875" class="st4"/>
			</g>
			<g id="shape5-9" v:mID="5" v:groupContext="shape" transform="translate(518.975,-531.3)">
				<title>Sheet.5</title>
				<desc>VRO</desc>
				<v:textBlock v:margins="rect(0,0,0,0)"/>
				<v:textRect cx="13.525" cy="542.85" width="27.05" height="10.8"/>
				<rect x="0" y="537.45" width="27.05" height="10.8" class="st2"/>
				<text x="5.55" y="545.55" class="st3" v:langID="1033"><v:paragraph v:horizAlign="1"/><v:tabList/>VRO</text>			</g>
			<g id="shape6-12" v:mID="6" v:groupContext="shape" transform="translate(420,-472.5)">
				<title>Sheet.6</title>
				<rect x="0" y="503.25" width="90" height="45" class="st5"/>
			</g>
			<g id="shape7-14" v:mID="7" v:groupContext="shape" transform="translate(383.975,-490.05)">
				<title>Sheet.7</title>
				<desc>Configuration file</desc>
				<v:textBlock v:margins="rect(0,0,0,0)"/>
				<v:textRect cx="81.025" cy="542.85" width="162.06" height="10.8"/>
				<rect x="0" y="537.45" width="162.05" height="10.8" class="st2"/>
				<text x="49.3" y="545.55" class="st3" v:langID="1033"><v:paragraph v:horizAlign="1"/><v:tabList/>Configuration file</text>			</g>
			<g id="shape8-17" v:mID="8" v:groupContext="shape" transform="translate(750,-422.625)">
				<title>Sheet.8</title>
				<rect x="0" y="503.25" width="150" height="45" class="st6"/>
			</g>
			<g id="shape9-19" v:mID="9" v:groupContext="shape" transform="translate(793.475,-441.3)">
				<title>Sheet.9</title>
				<desc>vSphere Replication</desc>
				<v:textBlock v:margins="rect(0,0,0,0)"/>
				<v:textRect cx="31.525" cy="542.85" width="63.05" height="10.8"/>
				<rect x="0" y="537.45" width="63.05" height="10.8" class="st2"/>
				<text x="16.65" y="540.15" class="st3" v:langID="1033"><v:paragraph v:horizAlign="1"/><v:tabList/>vSphere <tspan
							x="11.08" dy="1.2em" class="st7">Replication</tspan></text>			</g>
			<g id="shape10-23" v:mID="10" v:groupContext="shape" transform="translate(750,-314.625)">
				<title>Sheet.10</title>
				<rect x="0" y="495.375" width="150" height="52.875" class="st6"/>
			</g>
			<g id="shape11-25" v:mID="11" v:groupContext="shape" transform="translate(797.975,-332.625)">
				<title>Sheet.11</title>
				<desc>SRM</desc>
				<v:textBlock v:margins="rect(0,0,0,0)"/>
				<v:textRect cx="27.025" cy="542.85" width="54.05" height="10.8"/>
				<rect x="0" y="537.45" width="54.05" height="10.8" class="st2"/>
				<text x="18.67" y="545.55" class="st3" v:langID="1033"><v:paragraph v:horizAlign="1"/><v:tabList/>SRM</text>			</g>
			<g id="shape12-28" v:mID="12" v:groupContext="shape" transform="translate(750,-215.625)">
				<title>Sheet.12</title>
				<rect x="0" y="494.25" width="150" height="54" class="st6"/>
			</g>
			<g id="shape13-30" v:mID="13" v:groupContext="shape" transform="translate(782.625,-237.225)">
				<title>Sheet.13</title>
				<desc>Hashivault</desc>
				<v:textBlock v:margins="rect(0,0,0,0)"/>
				<v:textRect cx="45.025" cy="542.85" width="90.06" height="10.8"/>
				<rect x="0" y="537.45" width="90.05" height="10.8" class="st2"/>
				<text x="25.82" y="545.55" class="st3" v:langID="1033"><v:paragraph v:horizAlign="1"/><v:tabList/>Hashivault</text>			</g>
			<g id="shape14-33" v:mID="14" v:groupContext="shape" transform="translate(465,-429)">
				<title>Sheet.14</title>
				<path d="M0 548.25 L0 509.53 L0 548.25 Z" class="st8"/>
				<path d="M0 548.25 L0 509.53" class="st9"/>
			</g>
			<g id="shape15-36" v:mID="15" v:groupContext="shape" transform="translate(462.375,-466.41)">
				<title>Sheet.15</title>
				<path d="M2.63 543 L5.25 548.25 L2.63 546.94 L0 548.25 L2.63 543 Z" class="st10"/>
			</g>
			<g id="shape16-38" v:mID="16" v:groupContext="shape" transform="translate(555,-269.25)">
				<title>Sheet.16</title>
				<path d="M0 498 L26.25 498 L26.25 548.25 L47.72 548.25 L0 498 Z" class="st8"/>
				<path d="M0 498 L26.25 498 L26.25 548.25 L47.72 548.25" class="st9"/>
			</g>
			<g id="shape17-41" v:mID="17" v:groupContext="shape" transform="translate(601.41,-266.625)">
				<title>Sheet.17</title>
				<path d="M5.25 545.62 L0 548.25 L1.31 545.62 L0 543 L5.25 545.62 Z" class="st10"/>
			</g>
			<g id="shape18-43" v:mID="18" v:groupContext="shape" transform="translate(555,-319.5)">
				<title>Sheet.18</title>
				<path d="M0 548.25 L26.25 548.25 L26.25 473.25 L47.72 473.25 L0 548.25 Z" class="st8"/>
				<path d="M0 548.25 L26.25 548.25 L26.25 473.25 L47.72 473.25" class="st9"/>
			</g>
			<g id="shape19-46" v:mID="19" v:groupContext="shape" transform="translate(601.41,-391.875)">
				<title>Sheet.19</title>
				<path d="M5.25 545.62 L0 548.25 L1.31 545.62 L0 543 L5.25 545.62 Z" class="st10"/>
			</g>
			<g id="shape20-48" v:mID="20" v:groupContext="shape" transform="translate(375,-287.625)">
				<title>Sheet.20</title>
				<rect x="0" y="406.875" width="180" height="141.375" class="st5"/>
			</g>
			<g id="shape21-50" v:mID="21" v:groupContext="shape" transform="translate(433.475,-412.8)">
				<title>Sheet.21</title>
				<desc>Actions</desc>
				<v:textBlock v:margins="rect(0,0,0,0)"/>
				<v:textRect cx="31.525" cy="542.85" width="63.05" height="10.8"/>
				<rect x="0" y="537.45" width="63.05" height="10.8" class="st2"/>
				<text x="17.98" y="545.55" class="st3" v:langID="1033"><v:paragraph v:horizAlign="1"/><v:tabList/>Actions</text>			</g>
			<g id="shape22-53" v:mID="22" v:groupContext="shape" transform="translate(577.5,-93.75)">
				<title>Sheet.22</title>
				<path d="M0 548.25 L15 548.25 L15 381.37 L25.22 381.37 L0 548.25 Z" class="st8"/>
				<path d="M0 548.25 L15 548.25 L15 381.37 L25.22 381.37" class="st9"/>
			</g>
			<g id="shape23-56" v:mID="23" v:groupContext="shape" transform="translate(601.41,-258)">
				<title>Sheet.23</title>
				<path d="M5.25 545.62 L0 548.25 L1.31 545.62 L0 543 L5.25 545.62 Z" class="st10"/>
			</g>
			<g id="shape24-58" v:mID="24" v:groupContext="shape" transform="translate(577.5,-93.75)">
				<title>Sheet.24</title>
				<path d="M0 548.25 L15 548.25 L15 230.25 L25.22 230.25 L0 548.25 Z" class="st8"/>
				<path d="M0 548.25 L15 548.25 L15 230.25 L25.22 230.25" class="st9"/>
			</g>
			<g id="shape25-61" v:mID="25" v:groupContext="shape" transform="translate(601.41,-409.125)">
				<title>Sheet.25</title>
				<path d="M5.25 545.62 L0 548.25 L1.31 545.62 L0 543 L5.25 545.62 Z" class="st10"/>
			</g>
			<g id="shape26-63" v:mID="26" v:groupContext="shape" transform="translate(476.25,-172.5)">
				<title>Sheet.26</title>
				<path d="M0 548.25 L0 482.28 L0.07 433.12 L0 548.25 Z" class="st8"/>
				<path d="M0 548.25 L0 482.28 L0.07 433.12" class="st11"/>
			</g>
			<g id="shape27-66" v:mID="27" v:groupContext="shape" transform="translate(473.685,-282.746)">
				<title>Sheet.27</title>
				<path d="M2.65 542.99 L5.25 548.25 L2.63 546.93 L0 548.23 L2.65 542.99 Z" class="st12"/>
			</g>
			<g id="shape28-68" v:mID="28" v:groupContext="shape" transform="translate(360,-93.75)">
				<title>Sheet.28</title>
				<path d="M15 548.25 L0 548.25 L0 147 L55.22 147 L15 548.25 Z" class="st8"/>
				<path d="M15 548.25 L0 548.25 L0 147 L55.22 147" class="st11"/>
			</g>
			<g id="shape29-71" v:mID="29" v:groupContext="shape" transform="translate(413.91,-492.375)">
				<title>Sheet.29</title>
				<path d="M5.25 545.62 L0 548.25 L1.31 545.62 L0 543 L5.25 545.62 Z" class="st12"/>
			</g>
			<g id="shape30-73" v:mID="30" v:groupContext="shape" transform="translate(375,-44.625)">
				<title>Sheet.30</title>
				<rect x="0" y="420.375" width="202.5" height="127.875" class="st5"/>
			</g>
			<g id="shape31-75" v:mID="31" v:groupContext="shape" transform="translate(435.725,-156.3)">
				<title>Sheet.31</title>
				<desc>Workflows</desc>
				<v:textBlock v:margins="rect(0,0,0,0)"/>
				<v:textRect cx="40.525" cy="542.85" width="81.06" height="10.8"/>
				<rect x="0" y="537.45" width="81.05" height="10.8" class="st2"/>
				<text x="20.78" y="545.55" class="st3" v:langID="1033"><v:paragraph v:horizAlign="1"/><v:tabList/>Workflows</text>			</g>
			<g id="shape34-78" v:mID="34" v:groupContext="shape" transform="translate(386.25,-375)">
				<title>Sheet.34</title>
				<rect x="0" y="525.75" width="90" height="22.5" class="st13"/>
			</g>
			<g id="shape35-80" v:mID="35" v:groupContext="shape" transform="translate(354.725,-381.3)">
				<title>Sheet.35</title>
				<desc>getRecoveryPlans</desc>
				<v:textBlock v:margins="rect(0,0,0,0)"/>
				<v:textRect cx="76.525" cy="542.85" width="153.06" height="10.8"/>
				<rect x="0" y="537.45" width="153.05" height="10.8" class="st2"/>
				<text x="44.19" y="545.55" class="st14" v:langID="1033"><v:paragraph v:horizAlign="1"/><v:tabList/>getRecoveryPlans</text>			</g>
			<g id="shape36-83" v:mID="36" v:groupContext="shape" transform="translate(386.25,-337.5)">
				<title>Sheet.36</title>
				<rect x="0" y="525.75" width="112.5" height="22.5" class="st13"/>
			</g>
			<g id="shape37-85" v:mID="37" v:groupContext="shape" transform="translate(343.475,-343.8)">
				<title>Sheet.37</title>
				<desc>getProtectionGroups</desc>
				<v:textBlock v:margins="rect(0,0,0,0)"/>
				<v:textRect cx="99.025" cy="542.85" width="198.06" height="10.8"/>
				<rect x="0" y="537.45" width="198.05" height="10.8" class="st2"/>
				<text x="60.7" y="545.55" class="st14" v:langID="1033"><v:paragraph v:horizAlign="1"/><v:tabList/>getProtectionGroups</text>			</g>
			<g id="shape46-88" v:mID="46" v:groupContext="shape" transform="translate(172.5,-127.5)">
				<title>Sheet.46</title>
				<path d="M0 224.25 L0 293.25 L127.5 293.25 L127.5 548.25 L218.82 548.25 L0 224.25 Z" class="st8"/>
				<path d="M0 224.25 L0 293.25 L127.5 293.25 L127.5 548.25 L218.82 548.25" class="st15"/>
			</g>
			<g id="shape47-91" v:mID="47" v:groupContext="shape" transform="translate(389.82,-124.5)">
				<title>Sheet.47</title>
				<path d="M6 545.25 L0 548.25 L1.5 545.25 L0 542.25 L6 545.25 Z" class="st16"/>
			</g>
			<g id="shape48-93" v:mID="48" v:groupContext="shape" transform="translate(15.375,-372.75)">
				<title>Sheet.48</title>
				<rect x="0" y="390.75" width="157.5" height="157.5" class="st5"/>
			</g>
			<g id="shape49-95" v:mID="49" v:groupContext="shape" transform="translate(-9.775,-514.05)">
				<title>Sheet.49</title>
				<desc>Manage</desc>
				<v:textBlock v:margins="rect(0,0,0,0)"/>
				<v:textRect cx="103.525" cy="542.85" width="207.06" height="10.8"/>
				<rect x="0" y="537.45" width="207.05" height="10.8" class="st2"/>
				<text x="88.65" y="545.55" class="st3" v:langID="1033"><v:paragraph v:horizAlign="1"/><v:tabList/>Manage</text>			</g>
			<g id="shape54-98" v:mID="54" v:groupContext="shape" transform="translate(397.5,-120)">
				<title>Sheet.54</title>
				<rect x="0" y="518.25" width="127.5" height="30" class="st13"/>
			</g>
			<g id="shape55-100" v:mID="55" v:groupContext="shape" transform="translate(357.725,-130.05)">
				<title>Sheet.55</title>
				<desc>dhcProtectVmDrActivePassive</desc>
				<v:textBlock v:margins="rect(0,0,0,0)"/>
				<v:textRect cx="103.525" cy="542.85" width="207.06" height="10.8"/>
				<rect x="0" y="537.45" width="207.05" height="10.8" class="st2"/>
				<text x="48.36" y="545.55" class="st14" v:langID="1033"><v:paragraph v:horizAlign="1"/><v:tabList/>dhcProtectVmDrActivePassive</text>			</g>
			<g id="shape56-103" v:mID="56" v:groupContext="shape" transform="translate(397.5,-75)">
				<title>Sheet.56</title>
				<rect x="0" y="518.25" width="127.5" height="30" class="st13"/>
			</g>
			<g id="shape57-105" v:mID="57" v:groupContext="shape" transform="translate(384.725,-85.05)">
				<title>Sheet.57</title>
				<desc>dhcRemoveVmDrActivePassive</desc>
				<v:textBlock v:margins="rect(0,0,0,0)"/>
				<v:textRect cx="76.525" cy="542.85" width="153.06" height="10.8"/>
				<rect x="0" y="537.45" width="153.05" height="10.8" class="st2"/>
				<text x="19.86" y="545.55" class="st14" v:langID="1033"><v:paragraph v:horizAlign="1"/><v:tabList/>dhcRemoveVmDrActivePassive</text>			</g>
			<g id="shape60-108" v:mID="60" v:groupContext="shape" transform="translate(38.25,-462.75)">
				<title>Sheet.60</title>
				<rect x="0" y="514.5" width="97.5" height="33.75" class="st13"/>
			</g>
			<g id="shape61-110" v:mID="61" v:groupContext="shape" transform="translate(-21.025,-475.05)">
				<title>Sheet.61</title>
				<desc>Inputs with dynamic v...</desc>
				<v:textBlock v:margins="rect(0,0,0,0)"/>
				<v:textRect cx="108.025" cy="542.85" width="216.06" height="10.8"/>
				<rect x="0" y="537.45" width="216.05" height="10.8" class="st2"/>
				<text x="64.47" y="545.55" class="st14" v:langID="1033"><v:paragraph v:horizAlign="1"/><v:tabList/>Inputs with dynamic v...</text>			</g>
			<g id="shape62-113" v:mID="62" v:groupContext="shape" transform="translate(38.25,-410.25)">
				<title>Sheet.62</title>
				<rect x="0" y="514.5" width="97.5" height="33.75" class="st13"/>
			</g>
			<g id="shape63-115" v:mID="63" v:groupContext="shape" transform="translate(-21.025,-422.55)">
				<title>Sheet.63</title>
				<desc>Inputs with manual/fi...</desc>
				<v:textBlock v:margins="rect(0,0,0,0)"/>
				<v:textRect cx="108.025" cy="542.85" width="216.06" height="10.8"/>
				<rect x="0" y="537.45" width="216.05" height="10.8" class="st2"/>
				<text x="65.16" y="545.55" class="st14" v:langID="1033"><v:paragraph v:horizAlign="1"/><v:tabList/>Inputs with manual/fi...</text>			</g>
			<g id="shape64-118" v:mID="64" v:groupContext="shape" transform="translate(752.625,-125.625)">
				<title>Sheet.64</title>
				<rect x="0" y="494.25" width="150" height="54" class="st6"/>
			</g>
			<g id="shape65-120" v:mID="65" v:groupContext="shape" transform="translate(809.625,-147.225)">
				<title>Sheet.65</title>
				<desc>VRA</desc>
				<v:textBlock v:margins="rect(0,0,0,0)"/>
				<v:textRect cx="13.525" cy="542.85" width="27.05" height="10.8"/>
				<rect x="0" y="537.45" width="27.05" height="10.8" class="st2"/>
				<text x="5.92" y="545.55" class="st3" v:langID="1033"><v:paragraph v:horizAlign="1"/><v:tabList/>VRA</text>			</g>
			<g id="shape66-123" v:mID="66" v:groupContext="shape" transform="translate(697.5,-143.625)">
				<title>Sheet.66</title>
				<path d="M0 453.75 L26.25 453.75 L26.25 548.25 L47.72 548.25 L0 453.75 Z" class="st8"/>
				<path d="M0 453.75 L26.25 453.75 L26.25 548.25 L47.72 548.25" class="st9"/>
			</g>
			<g id="shape67-126" v:mID="67" v:groupContext="shape" transform="translate(746.625,-141)">
				<title>Sheet.67</title>
				<path d="M5.25 545.62 L0 548.25 L1.31 545.62 L0 543 L5.25 545.62 Z" class="st10"/>
			</g>
			<g id="shape72-128" v:mID="72" v:groupContext="shape" transform="translate(607.5,-225)">
				<title>Sheet.72</title>
				<rect x="0" y="477" width="90" height="71.25" class="st5"/>
			</g>
			<g id="shape73-130" v:mID="73" v:groupContext="shape" transform="translate(634.475,-256.05)">
				<title>Sheet.73</title>
				<desc>REST</desc>
				<v:textBlock v:margins="rect(0,0,0,0)"/>
				<v:textRect cx="18.025" cy="542.85" width="36.05" height="10.8"/>
				<rect x="0" y="537.45" width="36.05" height="10.8" class="st2"/>
				<text x="9.12" y="545.55" class="st3" v:langID="1033"><v:paragraph v:horizAlign="1"/><v:tabList/>REST</text>			</g>
			<g id="shape74-133" v:mID="74" v:groupContext="shape" transform="translate(697.5,-394.5)">
				<title>Sheet.74</title>
				<path d="M0 548.25 L26.25 548.25 L26.25 496.5 L47.72 496.5 L0 548.25 Z" class="st8"/>
				<path d="M0 548.25 L26.25 548.25 L26.25 496.5 L47.72 496.5" class="st9"/>
			</g>
			<g id="shape75-136" v:mID="75" v:groupContext="shape" transform="translate(743.91,-443.625)">
				<title>Sheet.75</title>
				<path d="M5.25 545.62 L0 548.25 L1.31 545.62 L0 543 L5.25 545.62 Z" class="st10"/>
			</g>
			<g id="shape76-138" v:mID="76" v:groupContext="shape" transform="translate(607.5,-360)">
				<title>Sheet.76</title>
				<rect x="0" y="479.25" width="90" height="69" class="st5"/>
			</g>
			<g id="shape77-140" v:mID="77" v:groupContext="shape" transform="translate(625.475,-389.55)">
				<title>Sheet.77</title>
				<desc>Plugin</desc>
				<v:textBlock v:margins="rect(0,0,0,0)"/>
				<v:textRect cx="27.025" cy="542.85" width="54.05" height="10.8"/>
				<rect x="0" y="537.45" width="54.05" height="10.8" class="st2"/>
				<text x="15.79" y="545.55" class="st3" v:langID="1033"><v:paragraph v:horizAlign="1"/><v:tabList/>Plugin</text>			</g>
			<g id="shape90-143" v:mID="90" v:groupContext="shape" transform="translate(135.75,-407.978)">
				<title>Sheet.90</title>
				<path d="M0 476.6 L119.63 476.6 L119.63 548.23 L233.79 548.25 L0 476.6 Z" class="st8"/>
				<path d="M0 476.6 L119.63 476.6 L119.63 548.23 L233.79 548.25" class="st17"/>
			</g>
			<g id="shape91-146" v:mID="91" v:groupContext="shape" transform="translate(368.04,-404.977)">
				<title>Sheet.91</title>
				<path d="M6 545.25 L0 548.25 L1.5 545.25 L0 542.25 L6 545.25 Z" class="st18"/>
			</g>
		</g>
		<g id="shape92-148" v:mID="92" v:groupContext="shape" v:layerMember="0" transform="translate(697.875,-382.687)">
			<title>Dynamic connector</title>
			<path d="M0 551.44 L127.5 551.44 L127.5 557.34" class="st19"/>
		</g>
		<g id="shape93-154" v:mID="93" v:groupContext="shape" transform="translate(750,-481.5)">
			<title>Sheet.93</title>
			<desc>vCenter</desc>
			<v:textBlock v:margins="rect(0,0,0,0)"/>
			<v:textRect cx="75" cy="525.75" width="150.01" height="45"/>
			<rect x="0" y="503.25" width="150" height="45" class="st6"/>
			<text x="55.87" y="529.35" class="st21" v:langID="1033"><v:paragraph v:horizAlign="1"/><v:tabList/>vCenter</text>		</g>
		<g id="shape94-157" v:mID="94" v:groupContext="shape" v:layerMember="0" transform="translate(652.875,-429.375)">
			<title>Dynamic connector.94</title>
			<path d="M0 548.25 L0 473.62 L91.4 473.62" class="st19"/>
		</g>
		<g id="shape95-162" v:mID="95" v:groupContext="shape" v:layerMember="0" transform="translate(697.875,-238.687)">
			<title>Dynamic connector.95</title>
			<path d="M0 539.25 L46.78 539.25" class="st19"/>
		</g>
	</g>
</svg>
