<?xml version="1.0" encoding="UTF-8" standalone="no"?>
<!DOCTYPE svg PUBLIC "-//W3C//DTD SVG 1.1//EN" "http://www.w3.org/Graphics/SVG/1.1/DTD/svg11.dtd">
<!-- Generated by Microsoft Visio, SVG Export ntp.svg Page-1 -->
<svg xmlns="http://www.w3.org/2000/svg" xmlns:xlink="http://www.w3.org/1999/xlink" xmlns:ev="http://www.w3.org/2001/xml-events"
		xmlns:v="http://schemas.microsoft.com/visio/2003/SVGExtensions/" width="10.2362in" height="8.66142in"
		viewBox="0 0 737.006 623.622" xml:space="preserve" color-interpolation-filters="sRGB" class="st23">
	<v:documentProperties v:langID="1033">
		<v:userDefs>
			<v:ud v:nameU="msvConvertTheme"/>
		</v:userDefs>
	</v:documentProperties>

	<style type="text/css">
	<![CDATA[
		.st1 {fill:#e8eef7;stroke:#000000;stroke-linecap:round;stroke-linejoin:round;stroke-width:0.239999}
		.st2 {fill:#ff00ff;fill-opacity:0;stroke:#000000;stroke-linecap:round;stroke-linejoin:round;stroke-opacity:0;stroke-width:0.719998}
		.st3 {fill:#000000;stroke:#ffffff;stroke-linecap:round;stroke-linejoin:round;stroke-width:0.719998}
		.st4 {fill:url(#grad0-11);stroke:#ffffff;stroke-linecap:round;stroke-linejoin:round;stroke-width:0.719998}
		.st5 {fill:#000000;stroke:#000000;stroke-linecap:round;stroke-linejoin:round;stroke-width:0.719998}
		.st6 {fill:none;stroke:#000000;stroke-linecap:round;stroke-linejoin:round;stroke-width:1.5}
		.st7 {fill:url(#grad7-20);stroke:#000000;stroke-linecap:round;stroke-linejoin:round;stroke-width:0.12}
		.st8 {fill:url(#grad7-24);stroke:#000000;stroke-linecap:round;stroke-linejoin:round;stroke-width:0.12}
		.st9 {fill:#000000;font-family:Calibri;font-size:1.00001em}
		.st10 {fill:none;stroke:none;stroke-linecap:round;stroke-linejoin:round;stroke-width:0.749998}
		.st11 {fill:#000000;font-family:Calibri;font-size:1.16666em;font-weight:bold}
		.st12 {fill:#d8d8d8;stroke:#000000;stroke-linecap:round;stroke-linejoin:round;stroke-width:0.239999}
		.st13 {fill:#000000;font-family:Calibri;font-size:1.00001em;font-weight:bold}
		.st14 {fill:#ffffff;stroke:none;stroke-linecap:butt;stroke-width:0.749998}
		.st15 {fill:#515050;stroke:none;stroke-linecap:butt;stroke-width:0.749998}
		.st16 {marker-end:url(#mrkr13-131);stroke:#000000;stroke-linecap:round;stroke-linejoin:round;stroke-width:1.5}
		.st17 {fill:#000000;fill-opacity:1;stroke:#000000;stroke-opacity:1;stroke-width:0.3731338205639}
		.st18 {fill:#000000;font-family:Calibri;font-size:0.916672em}
		.st19 {fill:none}
		.st20 {stroke:#000000;stroke-linecap:round;stroke-linejoin:round;stroke-width:1.5}
		.st21 {fill:#515150;stroke:none;stroke-linecap:butt;stroke-width:0.749998}
		.st22 {font-size:1em}
		.st23 {fill:none;fill-rule:evenodd;font-size:12px;overflow:visible;stroke-linecap:square;stroke-miterlimit:3}
	]]>
	</style>

	<defs id="Patterns_And_Gradients">
		<linearGradient id="grad0-11" x1="0" y1="0" x2="1" y2="0" gradientTransform="rotate(-89.999999999999 0.5 0.5)">
			<stop offset="0" stop-color="#ffffff" stop-opacity="1"/>
			<stop offset="1" stop-color="#dddddd" stop-opacity="1"/>
		</linearGradient>
		<radialGradient id="grad7-20" cx="0" cy="0" r="1.4">
			<stop offset="0" stop-color="#ffffff" stop-opacity="1"/>
			<stop offset="1" stop-color="#00ff00" stop-opacity="1"/>
		</radialGradient>
		<radialGradient id="grad7-24" cx="0" cy="0" r="1.4">
			<stop offset="0" stop-color="#ffffff" stop-opacity="1"/>
			<stop offset="1" stop-color="#ff0000" stop-opacity="1"/>
		</radialGradient>
	</defs>
	<defs id="Markers">
		<g id="lend13">
			<path d="M 3 1 L 0 0 L 3 -1 L 3 1 " style="stroke:none"/>
		</g>
		<marker id="mrkr13-131" class="st17" v:arrowType="13" v:arrowSize="2" v:setback="0" refX="-0" orient="auto"
				markerUnits="strokeWidth" overflow="visible">
			<use xlink:href="#lend13" transform="scale(-2.6800036471868,-2.6800036471868) "/>
		</marker>
	</defs>
	<g v:mID="0" v:index="1" v:groupContext="foregroundPage">
		<title>Page-1</title>
		<v:pageProperties v:drawingScale="0.0393701" v:pageScale="0.0393701" v:drawingUnits="24" v:shadowOffsetX="8.50392"
				v:shadowOffsetY="-8.50392"/>
		<v:layer v:name="symbols" v:index="0"/>
		<v:layer v:name="Connector" v:index="1"/>
		<g id="shape1-1" v:mID="1" v:groupContext="shape" transform="translate(3.77809,-0.242796)">
			<title>Triangle</title>
			<v:userDefs>
				<v:ud v:nameU="visVersion" v:val="VT0(14):26"/>
			</v:userDefs>
			<path d="M729.1 623.62 L364.55 22.68 L0 623.62 L729.1 623.62 Z" class="st1"/>
		</g>
		<g id="group2-3" transform="translate(123.484,-422.604)" v:mID="2" v:groupContext="group">
			<v:custProps>
				<v:cp v:nameU="ShapeClass" v:lbl="ShapeClass" v:type="0" v:invis="true" v:ask="false" v:langID="1033"
						v:val="VT4(Equipment)"/>
				<v:cp v:nameU="ShapeType" v:lbl="ShapeType" v:type="0" v:invis="true" v:ask="false" v:langID="1033"
						v:val="VT4(Device)"/>
				<v:cp v:nameU="SubShapeType" v:lbl="SubShapeType" v:type="0" v:invis="true" v:ask="false" v:langID="1033"
						v:val="VT4(Switch)"/>
				<v:cp v:nameU="Manufacturer" v:lbl="Manufacturer" v:type="0" v:sortKey="Equipment" v:invis="false" v:ask="false"
						v:langID="1033"/>
				<v:cp v:nameU="ProductNumber" v:lbl="Product Number" v:type="0" v:sortKey="Equipment" v:invis="false" v:ask="false"
						v:langID="1033"/>
				<v:cp v:nameU="PartNumber" v:lbl="Part Number" v:type="0" v:sortKey="Equipment" v:invis="false" v:ask="false"
						v:langID="1033"/>
				<v:cp v:nameU="ProductDescription" v:lbl="Product Description" v:type="0" v:sortKey="Equipment" v:invis="false"
						v:ask="false" v:langID="1033"/>
				<v:cp v:nameU="AssetNumber" v:lbl="Asset Number" v:type="0" v:sortKey="Asset" v:invis="false" v:ask="false"
						v:langID="1033"/>
				<v:cp v:nameU="SerialNumber" v:lbl="Serial Number" v:type="0" v:sortKey="Asset" v:invis="false" v:ask="false"
						v:langID="1033"/>
				<v:cp v:nameU="Location" v:lbl="Location" v:type="0" v:sortKey="Asset" v:invis="false" v:ask="false"
						v:langID="1033"/>
				<v:cp v:nameU="Building" v:lbl="Building" v:type="0" v:sortKey="Asset" v:invis="false" v:ask="false"
						v:langID="1033"/>
				<v:cp v:nameU="Room" v:lbl="Room" v:type="0" v:sortKey="Asset" v:invis="false" v:ask="false" v:langID="1033"/>
				<v:cp v:nameU="NetworkName" v:lbl="Network Name" v:type="0" v:sortKey="Network" v:invis="false" v:ask="false"
						v:langID="1033"/>
				<v:cp v:nameU="IPAddress" v:lbl="IP Address" v:type="0" v:sortKey="Network" v:invis="false" v:ask="false"
						v:langID="1033"/>
				<v:cp v:nameU="SubnetMask" v:lbl="Subnet Mask" v:type="0" v:sortKey="Network" v:invis="false" v:ask="false"
						v:langID="1033"/>
				<v:cp v:nameU="AdminInterface" v:lbl="Administrative Interface" v:type="0" v:sortKey="Network" v:invis="false"
						v:ask="false" v:langID="1033"/>
				<v:cp v:nameU="NumberofPorts" v:lbl="Number of Ports" v:type="0" v:sortKey="Network" v:invis="false" v:ask="false"
						v:langID="1033"/>
				<v:cp v:nameU="MACAddress" v:lbl="MAC Address" v:type="0" v:sortKey="Network" v:invis="false" v:ask="false"
						v:langID="1033"/>
				<v:cp v:nameU="CommunityString" v:lbl="Community String" v:type="0" v:sortKey="Network" v:invis="false"
						v:ask="false" v:langID="1033"/>
				<v:cp v:nameU="NetworkDescription" v:lbl="Network Description" v:type="0" v:sortKey="Network" v:invis="false"
						v:ask="false" v:langID="1033"/>
			</v:custProps>
			<v:userDefs>
				<v:ud v:nameU="HasText" v:prompt="" v:val="VT0(0):26"/>
				<v:ud v:nameU="ShapeClass" v:val="VT0(5):26"/>
				<v:ud v:nameU="ShapeType" v:val="VT0(8):26"/>
				<v:ud v:nameU="SubShapeType" v:val="VT0(66):26"/>
				<v:ud v:nameU="SolSH" v:val="VT4({BF0433D9-CD73-4EB5-8390-8653BE590246})"/>
				<v:ud v:nameU="visLegendShape" v:val="VT0(2):26"/>
				<v:ud v:nameU="visVersion" v:prompt="" v:val="VT0(14):26"/>
			</v:userDefs>
			<title>Switch</title>
			<desc>TOR Switch</desc>
			<g id="shape3-4" v:mID="3" v:groupContext="shape">
				<title>Sheet.3</title>
				<path d="M55.1 623.62 L67.01 616.82 L67.01 615.46 L68.03 614.78 L68.03 604.4 L12.93 572.6 L0 580.08 L0 590.35 L1.02
							 590.97 L1.02 592.33 L55.1 623.62 Z" class="st2"/>
			</g>
			<g id="shape4-6" v:mID="4" v:groupContext="shape" transform="translate(55.1023,2.27374E-13)">
				<title>Sheet.4</title>
				<path d="M0 623.62 L11.91 616.82 L11.91 615.46 L12.93 614.78 L12.93 604.4 L0 611.89 L0 623.62 Z" class="st3"/>
			</g>
			<g id="shape5-8" v:mID="5" v:groupContext="shape" transform="translate(2.39808E-13,-11.7354)">
				<title>Sheet.5</title>
				<path d="M0 591.82 L55.11 623.62 L68.03 616.14 L12.93 584.33 L0 591.82 Z" class="st4"/>
			</g>
			<g id="shape6-12" v:mID="6" v:groupContext="shape">
				<title>Sheet.6</title>
				<path d="M1.02 592.33 L55.1 623.62 L55.11 611.89 L0 580.08 L0 590.35 L1.02 590.97 L1.02 592.33 Z" class="st5"/>
			</g>
			<g id="shape7-14" v:mID="7" v:groupContext="shape">
				<title>Sheet.7</title>
				<path d="M0 580.08 L0 590.35 L1.02 590.97 L1.02 592.33 L55.1 623.62 L67.01 616.82 L67.01 615.46 L68.03 614.78 L68.03
							 604.4 L12.93 572.6 L0 580.08 Z" class="st6"/>
			</g>
			<g id="group8-16" transform="translate(2.70283,-23.0191)" v:mID="8" v:groupContext="group">
				<title>Sheet.8</title>
				<g id="shape9-17" v:mID="9" v:groupContext="shape" transform="translate(-290.691,81.8102) rotate(-30)">
					<title>Sheet.9</title>
					<ellipse cx="0.396631" cy="622.981" rx="0.396631" ry="0.641414" class="st7"/>
				</g>
				<g id="shape10-21" v:mID="10" v:groupContext="shape" transform="translate(-294.787,79.4455) rotate(-30)">
					<title>Sheet.10</title>
					<ellipse cx="0.396631" cy="622.981" rx="0.396631" ry="0.641414" class="st8"/>
				</g>
				<g id="shape11-25" v:mID="11" v:groupContext="shape" transform="translate(-298.883,77.081) rotate(-30)">
					<title>Sheet.11</title>
					<ellipse cx="0.396631" cy="622.981" rx="0.396631" ry="0.641414" class="st7"/>
				</g>
				<g id="shape12-28" v:mID="12" v:groupContext="shape" transform="translate(-302.978,74.7163) rotate(-30)">
					<title>Sheet.12</title>
					<ellipse cx="0.396631" cy="622.981" rx="0.396631" ry="0.641414" class="st7"/>
				</g>
				<g id="shape13-31" v:mID="13" v:groupContext="shape" transform="translate(-307.074,72.3516) rotate(-30)">
					<title>Sheet.13</title>
					<ellipse cx="0.396631" cy="622.981" rx="0.396631" ry="0.641414" class="st8"/>
				</g>
				<g id="shape14-34" v:mID="14" v:groupContext="shape" transform="translate(-311.17,69.9869) rotate(-30)">
					<title>Sheet.14</title>
					<ellipse cx="0.396631" cy="622.981" rx="0.396631" ry="0.641414" class="st8"/>
				</g>
				<g id="shape15-37" v:mID="15" v:groupContext="shape" transform="translate(-290.691,80.0328) rotate(-30)">
					<title>Sheet.15</title>
					<ellipse cx="0.396631" cy="622.981" rx="0.396631" ry="0.641414" class="st7"/>
				</g>
				<g id="shape16-40" v:mID="16" v:groupContext="shape" transform="translate(-294.787,77.6682) rotate(-30)">
					<title>Sheet.16</title>
					<ellipse cx="0.396631" cy="622.981" rx="0.396631" ry="0.641414" class="st8"/>
				</g>
				<g id="shape17-43" v:mID="17" v:groupContext="shape" transform="translate(-298.883,75.3035) rotate(-30)">
					<title>Sheet.17</title>
					<ellipse cx="0.396631" cy="622.981" rx="0.396631" ry="0.641414" class="st7"/>
				</g>
				<g id="shape18-46" v:mID="18" v:groupContext="shape" transform="translate(-302.978,72.9389) rotate(-30)">
					<title>Sheet.18</title>
					<ellipse cx="0.396631" cy="622.981" rx="0.396631" ry="0.641414" class="st7"/>
				</g>
				<g id="shape19-49" v:mID="19" v:groupContext="shape" transform="translate(-307.074,70.5742) rotate(-30)">
					<title>Sheet.19</title>
					<ellipse cx="0.396631" cy="622.981" rx="0.396631" ry="0.641414" class="st8"/>
				</g>
				<g id="shape20-52" v:mID="20" v:groupContext="shape" transform="translate(-311.17,68.2095) rotate(-30)">
					<title>Sheet.20</title>
					<ellipse cx="0.396631" cy="622.981" rx="0.396631" ry="0.641414" class="st8"/>
				</g>
				<g id="shape21-55" v:mID="21" v:groupContext="shape" transform="translate(-290.691,83.5495) rotate(-30)">
					<title>Sheet.21</title>
					<ellipse cx="0.396631" cy="622.981" rx="0.396631" ry="0.641414" class="st7"/>
				</g>
				<g id="shape22-58" v:mID="22" v:groupContext="shape" transform="translate(-294.787,81.1848) rotate(-30)">
					<title>Sheet.22</title>
					<ellipse cx="0.396631" cy="622.981" rx="0.396631" ry="0.641414" class="st8"/>
				</g>
				<g id="shape23-61" v:mID="23" v:groupContext="shape" transform="translate(-298.883,78.8201) rotate(-30)">
					<title>Sheet.23</title>
					<ellipse cx="0.396631" cy="622.981" rx="0.396631" ry="0.641414" class="st7"/>
				</g>
				<g id="shape24-64" v:mID="24" v:groupContext="shape" transform="translate(-302.978,76.4556) rotate(-30)">
					<title>Sheet.24</title>
					<ellipse cx="0.396631" cy="622.981" rx="0.396631" ry="0.641414" class="st7"/>
				</g>
				<g id="shape25-67" v:mID="25" v:groupContext="shape" transform="translate(-307.074,74.0909) rotate(-30)">
					<title>Sheet.25</title>
					<ellipse cx="0.396631" cy="622.981" rx="0.396631" ry="0.641414" class="st8"/>
				</g>
				<g id="shape26-70" v:mID="26" v:groupContext="shape" transform="translate(-311.17,71.7262) rotate(-30)">
					<title>Sheet.26</title>
					<ellipse cx="0.396631" cy="622.981" rx="0.396631" ry="0.641414" class="st8"/>
				</g>
			</g>
			<g id="shape2-73" v:mID="2" v:groupContext="groupContent">
				<v:textBlock v:margins="rect(3.99999,3.99999,3.99999,3.99999)" v:tabSpace="42.5196"/>
				<v:textRect cx="34.0156" cy="634.825" width="65.99" height="22.4037"/>
				<text x="6.38" y="638.43" class="st9" v:langID="1033"><v:paragraph v:horizAlign="1"/><v:tabList/>TOR Switch</text>			</g>
		</g>
		<g id="shape27-75" v:mID="27" v:groupContext="shape" transform="translate(292.326,-453.626)">
			<title>Sheet.27</title>
			<desc>DPC Domain</desc>
			<v:userDefs/>
			<v:textBlock v:margins="rect(3.99999,3.99999,3.99999,3.99999)" v:tabSpace="42.5196"/>
			<v:textRect cx="75.9998" cy="613.621" width="152" height="20"/>
			<rect x="0" y="603.622" width="152" height="20" class="st10"/>
			<text x="39.08" y="617.82" class="st11" v:langID="1033"><v:paragraph v:horizAlign="1"/><v:tabList/>VCS Domain</text>		</g>
		<g id="shape28-78" v:mID="28" v:groupContext="shape" transform="translate(151.831,-20.0853)">
			<title>Rounded rectangle.28</title>
			<v:userDefs>
				<v:ud v:nameU="visVersion" v:val="VT0(14):26"/>
			</v:userDefs>
			<path d="M192.76 623.62 A14.1733 14.1733 -180 0 0 206.93 609.45 L206.93 425.2 A14.1733 14.1733 -180 0 0 192.76 411.02
						 L14.17 411.02 A14.1733 14.1733 -180 0 0 0 425.2 L0 609.45 A14.1733 14.1733 -180 0 0 14.17 623.62 L192.76
						 623.62 Z" class="st12"/>
		</g>
		<g id="shape29-80" v:mID="29" v:groupContext="shape" transform="translate(380.019,-20.0853)">
			<title>Rounded rectangle.29</title>
			<v:userDefs>
				<v:ud v:nameU="visVersion" v:val="VT0(14):26"/>
			</v:userDefs>
			<path d="M188.5 623.62 A14.1733 14.1733 -180 0 0 202.68 609.45 L202.68 425.2 A14.1733 14.1733 -180 0 0 188.5 411.02 L14.17
						 411.02 A14.1733 14.1733 -180 0 0 -0 425.2 L0 609.45 A14.1733 14.1733 -180 0 0 14.17 623.62 L188.5 623.62
						 Z" class="st12"/>
		</g>
		<g id="shape30-82" v:mID="30" v:groupContext="shape" transform="translate(283.286,-303.549)">
			<title>Rounded rectangle.30</title>
			<v:userDefs>
				<v:ud v:nameU="visVersion" v:val="VT0(14):26"/>
			</v:userDefs>
			<path d="M155.91 623.62 A14.1733 14.1733 -180 0 0 170.08 609.45 L170.08 510.24 A14.1733 14.1733 -180 0 0 155.91 496.06
						 L14.17 496.06 A14.1733 14.1733 -180 0 0 0 510.24 L0 609.45 A14.1733 14.1733 -180 0 0 14.17 623.62 L155.91
						 623.62 Z" class="st12"/>
		</g>
		<g id="shape31-84" v:mID="31" v:groupContext="shape" transform="translate(334.31,-411.106)">
			<title>Sheet.31</title>
			<desc>Central Site</desc>
			<v:userDefs/>
			<v:textBlock v:margins="rect(3.99999,3.99999,3.99999,3.99999)" v:tabSpace="42.5196"/>
			<v:textRect cx="34.0156" cy="613.621" width="68.04" height="20"/>
			<rect x="0" y="603.622" width="68.0314" height="20" class="st10"/>
			<text x="5.18" y="617.22" class="st13" v:langID="1033"><v:paragraph v:horizAlign="1"/><v:tabList/>Central Site</text>		</g>
		<g id="shape32-87" v:mID="32" v:groupContext="shape" transform="translate(496.062,-208.508)">
			<title>Sheet.32</title>
			<desc>Remote Site</desc>
			<v:userDefs/>
			<v:textBlock v:margins="rect(3.99999,3.99999,3.99999,3.99999)" v:tabSpace="42.5196"/>
			<v:textRect cx="43.3168" cy="613.621" width="86.64" height="20"/>
			<rect x="0" y="603.622" width="86.6336" height="20" class="st10"/>
			<text x="12.94" y="617.22" class="st13" v:langID="1033"><v:paragraph v:horizAlign="1"/><v:tabList/>Remote Site</text>		</g>
		<g id="shape33-90" v:mID="33" v:groupContext="shape" transform="translate(158.917,-208.508)">
			<title>Sheet.33</title>
			<desc>Remote Site</desc>
			<v:userDefs/>
			<v:textBlock v:margins="rect(3.99999,3.99999,3.99999,3.99999)" v:tabSpace="42.5196"/>
			<v:textRect cx="35.433" cy="613.621" width="70.87" height="20"/>
			<rect x="0" y="603.622" width="70.8659" height="20" class="st10"/>
			<text x="5.06" y="617.22" class="st13" v:langID="1033"><v:paragraph v:horizAlign="1"/><v:tabList/>Remote Site</text>		</g>
		<g id="group34-93" transform="translate(314.703,-370.011)" v:mID="34" v:groupContext="group" v:layerMember="0">
			<title>Domain Controller</title>
			<g id="group35-94" transform="translate(-1.59872E-14,-1.80286)" v:mID="35" v:groupContext="group" v:layerMember="0">
				<title>Sheet.35</title>
				<g id="shape36-95" v:mID="36" v:groupContext="shape" v:layerMember="0">
					<title>Sheet.36</title>
					<path d="M0 623.62 L0 592.52 C0 590.76 1.4 589.37 3.16 589.37 L15.78 589.37 C17.53 589.37 18.93 590.76 18.93
								 592.52 L18.93 623.62 L0 623.62 Z" class="st14"/>
				</g>
				<g id="shape37-97" v:mID="37" v:groupContext="shape" v:layerMember="0" transform="translate(1.35215,-1.35215)">
					<title>Sheet.37</title>
					<path d="M14.42 592.07 L1.8 592.07 C0.81 592.07 0 592.88 0 593.87 L0 623.62 L16.23 623.62 L16.23 593.87 C16.23
								 592.88 15.41 592.07 14.42 592.07 ZM13.07 620.02 L3.16 620.02 L3.16 618.66 L13.07 618.66 L13.07 620.02
								 ZM13.07 615.96 L3.16 615.96 L3.16 614.61 L13.07 614.61 L13.07 615.96 ZM13.07 597.48 L3.16 597.48
								 L3.16 596.13 L13.07 596.13 L13.07 597.48 Z" class="st15"/>
				</g>
			</g>
			<g id="group38-99" transform="translate(9.37488,1.13687E-13)" v:mID="38" v:groupContext="group" v:layerMember="0">
				<title>Sheet.38</title>
				<g id="shape39-100" v:mID="39" v:groupContext="shape" v:layerMember="0">
					<title>Sheet.39</title>
					<path d="M2.25 623.62 C1.4 623.62 0.72 623.26 0.36 622.63 C0 622 0 621.19 0.45 620.47 L8.38 605.86 C8.83 605.1
								 9.51 604.69 10.23 604.69 C10.95 604.69 11.63 605.1 12.08 605.82 L20.06 620.47 C20.46 621.19 20.51
								 621.95 20.1 622.59 C19.74 623.22 19.02 623.58 18.21 623.58 L2.25 623.58 L2.25 623.62 Z"
							class="st14"/>
				</g>
				<g id="shape40-102" v:mID="40" v:groupContext="shape" v:layerMember="0" transform="translate(1.21693,-1.35215)">
					<title>Sheet.40</title>
					<path d="M17.67 622.5 L9.65 607.85 C9.28 607.22 8.7 607.22 8.34 607.85 L0.36 622.5 C0 623.13 0.32 623.62 1.04
								 623.62 L16.99 623.62 C17.71 623.62 18.03 623.13 17.67 622.5 Z" class="st15"/>
				</g>
			</g>
		</g>
		<g id="group41-104" transform="translate(252.341,-164.859)" v:mID="41" v:groupContext="group" v:layerMember="0">
			<title>Domain Controller.34</title>
			<g id="group42-105" transform="translate(1.29896E-13,-1.97388)" v:mID="42" v:groupContext="group" v:layerMember="0">
				<title>Sheet.42</title>
				<g id="shape43-106" v:mID="43" v:groupContext="shape" v:layerMember="0">
					<title>Sheet.43</title>
					<path d="M0 623.62 L0 589.57 C0 587.65 1.53 586.12 3.45 586.12 L17.27 586.12 C19.2 586.12 20.73 587.65 20.73
								 589.57 L20.73 623.62 L0 623.62 Z" class="st14"/>
				</g>
				<g id="shape44-108" v:mID="44" v:groupContext="shape" v:layerMember="0" transform="translate(1.48041,-1.48041)">
					<title>Sheet.44</title>
					<path d="M15.79 589.08 L1.97 589.08 C0.89 589.08 0 589.97 0 591.05 L0 623.62 L17.76 623.62 L17.76 591.05 C17.76
								 589.97 16.88 589.08 15.79 589.08 ZM14.31 619.67 L3.45 619.67 L3.45 618.19 L14.31 618.19 L14.31 619.67
								 ZM14.31 615.23 L3.45 615.23 L3.45 613.75 L14.31 613.75 L14.31 615.23 ZM14.31 595 L3.45 595 L3.45
								 593.52 L14.31 593.52 L14.31 595 Z" class="st15"/>
				</g>
			</g>
			<g id="group45-110" transform="translate(10.2642,0)" v:mID="45" v:groupContext="group" v:layerMember="0">
				<title>Sheet.45</title>
				<g id="shape46-111" v:mID="46" v:groupContext="shape" v:layerMember="0">
					<title>Sheet.46</title>
					<path d="M2.47 623.62 C1.53 623.62 0.79 623.23 0.39 622.54 C0 621.85 0 620.96 0.49 620.17 L9.18 604.18 C9.67
								 603.34 10.41 602.9 11.2 602.9 C11.99 602.9 12.73 603.34 13.23 604.13 L21.96 620.17 C22.4 620.96
								 22.45 621.8 22.01 622.49 C21.61 623.18 20.82 623.57 19.94 623.57 L2.47 623.57 L2.47 623.62 Z"
							class="st14"/>
				</g>
				<g id="shape47-113" v:mID="47" v:groupContext="shape" v:layerMember="0" transform="translate(1.33237,-1.48041)">
					<title>Sheet.47</title>
					<path d="M19.34 622.39 L10.56 606.35 C10.17 605.66 9.52 605.66 9.13 606.35 L0.39 622.39 C0 623.08 0.35 623.62
								 1.13 623.62 L18.6 623.62 C19.39 623.62 19.74 623.08 19.34 622.39 Z" class="st15"/>
				</g>
			</g>
		</g>
		<g id="group48-115" transform="translate(392.775,-164.019)" v:mID="48" v:groupContext="group" v:layerMember="0">
			<title>Domain Controller.41</title>
			<g id="group49-116" transform="translate(9.99201E-14,-2.05223)" v:mID="49" v:groupContext="group" v:layerMember="0">
				<title>Sheet.49</title>
				<g id="shape50-117" v:mID="50" v:groupContext="shape" v:layerMember="0">
					<title>Sheet.50</title>
					<path d="M0 623.62 L0 588.22 C0 586.22 1.59 584.63 3.59 584.63 L17.96 584.63 C19.96 584.63 21.55 586.22 21.55
								 588.22 L21.55 623.62 L0 623.62 Z" class="st14"/>
				</g>
				<g id="shape51-119" v:mID="51" v:groupContext="shape" v:layerMember="0" transform="translate(1.53917,-1.53917)">
					<title>Sheet.51</title>
					<path d="M16.42 587.71 L2.05 587.71 C0.92 587.71 0 588.63 0 589.76 L0 623.62 L18.47 623.62 L18.47 589.76 C18.47
								 588.63 17.55 587.71 16.42 587.71 ZM14.88 619.52 L3.59 619.52 L3.59 617.98 L14.88 617.98 L14.88 619.52
								 ZM14.88 614.9 L3.59 614.9 L3.59 613.36 L14.88 613.36 L14.88 614.9 ZM14.88 593.86 L3.59 593.86 L3.59
								 592.33 L14.88 592.33 L14.88 593.86 Z" class="st15"/>
				</g>
			</g>
			<g id="group52-121" transform="translate(10.6716,0)" v:mID="52" v:groupContext="group" v:layerMember="0">
				<title>Sheet.52</title>
				<g id="shape53-122" v:mID="53" v:groupContext="shape" v:layerMember="0">
					<title>Sheet.53</title>
					<path d="M2.57 623.62 C1.59 623.62 0.82 623.21 0.41 622.49 C0 621.78 0 620.85 0.51 620.03 L9.54 603.41 C10.06
								 602.54 10.83 602.07 11.65 602.07 C12.47 602.07 13.24 602.54 13.75 603.36 L22.83 620.03 C23.29 620.85
								 23.34 621.72 22.88 622.44 C22.47 623.16 21.65 623.57 20.73 623.57 L2.57 623.57 L2.57 623.62 Z"
							class="st14"/>
				</g>
				<g id="shape54-124" v:mID="54" v:groupContext="shape" v:layerMember="0" transform="translate(1.38526,-1.53917)">
					<title>Sheet.54</title>
					<path d="M20.11 622.34 L10.98 605.66 C10.57 604.95 9.9 604.95 9.49 605.66 L0.41 622.34 C0 623.06 0.36 623.62
								 1.18 623.62 L19.34 623.62 C20.16 623.62 20.52 623.06 20.11 622.34 Z" class="st15"/>
				</g>
			</g>
		</g>
		<g id="shape55-126" v:mID="55" v:groupContext="shape" v:layerMember="1" transform="translate(268.718,-208.654)">
			<title>Dynamic connector</title>
			<path d="M0 623.62 L48.84 497.45 L53.19 486.21" class="st16"/>
		</g>
		<g id="shape56-132" v:mID="56" v:groupContext="shape" v:layerMember="1" transform="translate(194.348,-388.04)">
			<title>Dynamic connector.73</title>
			<path d="M115.69 623.62 L11.39 587.35 L0 583.39" class="st16"/>
		</g>
		<g id="shape57-137" v:mID="57" v:groupContext="shape" transform="translate(293.562,-346.067)">
			<title>Sheet.57</title>
			<desc>PDC Emulator</desc>
			<v:userDefs/>
			<v:textBlock v:margins="rect(3.99999,3.99999,3.99999,3.99999)" v:tabSpace="42.5196"/>
			<v:textRect cx="43.3149" cy="613.621" width="86.63" height="20"/>
			<rect x="0" y="603.622" width="86.6297" height="20" class="st10"/>
			<text x="9.58" y="617.22" class="st9" v:langID="1033"><v:paragraph v:horizAlign="1"/><v:tabList/>PDC Emulator</text>		</g>
		<g id="shape58-140" v:mID="58" v:groupContext="shape" transform="translate(477.814,-174.539)">
			<title>Sheet.58</title>
			<desc>Site DC</desc>
			<v:userDefs/>
			<v:textBlock v:margins="rect(3.99999,3.99999,3.99999,3.99999)" v:tabSpace="42.5196"/>
			<v:textRect cx="26.6613" cy="613.621" width="53.33" height="20"/>
			<rect x="0" y="603.622" width="53.3227" height="20" class="st10"/>
			<text x="9.29" y="617.22" class="st9" v:langID="1033"><v:paragraph v:horizAlign="1"/><v:tabList/>Site DC</text>		</g>
		<g id="shape59-143" v:mID="59" v:groupContext="shape" transform="translate(310.57,-177.327)">
			<title>Sheet.59</title>
			<desc>Site DC</desc>
			<v:userDefs/>
			<v:textBlock v:margins="rect(3.99999,3.99999,3.99999,3.99999)" v:tabSpace="42.5196"/>
			<v:textRect cx="26.6613" cy="613.621" width="53.33" height="20"/>
			<rect x="0" y="603.622" width="53.3227" height="20" class="st10"/>
			<text x="10.73" y="616.92" class="st18" v:langID="1033"><v:paragraph v:horizAlign="1"/><v:tabList/>Site DC</text>		</g>
		<g id="group60-146" transform="translate(293.562,-164.859)" v:mID="60" v:groupContext="group" v:layerMember="0">
			<title>Domain Controller.77</title>
			<g id="group61-147" transform="translate(1.45883E-13,-1.97388)" v:mID="61" v:groupContext="group" v:layerMember="0">
				<title>Sheet.61</title>
				<g id="shape62-148" v:mID="62" v:groupContext="shape" v:layerMember="0">
					<title>Sheet.62</title>
					<path d="M0 623.62 L0 589.57 C0 587.65 1.53 586.12 3.45 586.12 L17.27 586.12 C19.2 586.12 20.73 587.65 20.73
								 589.57 L20.73 623.62 L0 623.62 Z" class="st14"/>
				</g>
				<g id="shape63-150" v:mID="63" v:groupContext="shape" v:layerMember="0" transform="translate(1.48041,-1.48041)">
					<title>Sheet.63</title>
					<path d="M15.79 589.08 L1.97 589.08 C0.89 589.08 0 589.97 0 591.05 L0 623.62 L17.76 623.62 L17.76 591.05 C17.76
								 589.97 16.88 589.08 15.79 589.08 ZM14.31 619.67 L3.45 619.67 L3.45 618.19 L14.31 618.19 L14.31 619.67
								 ZM14.31 615.23 L3.45 615.23 L3.45 613.75 L14.31 613.75 L14.31 615.23 ZM14.31 595 L3.45 595 L3.45
								 593.52 L14.31 593.52 L14.31 595 Z" class="st15"/>
				</g>
			</g>
			<g id="group64-152" transform="translate(10.2642,0)" v:mID="64" v:groupContext="group" v:layerMember="0">
				<title>Sheet.64</title>
				<g id="shape65-153" v:mID="65" v:groupContext="shape" v:layerMember="0">
					<title>Sheet.65</title>
					<path d="M2.47 623.62 C1.53 623.62 0.79 623.23 0.39 622.54 C0 621.85 0 620.96 0.49 620.17 L9.18 604.18 C9.67
								 603.34 10.41 602.9 11.2 602.9 C11.99 602.9 12.73 603.34 13.23 604.13 L21.96 620.17 C22.4 620.96
								 22.45 621.8 22.01 622.49 C21.61 623.18 20.82 623.57 19.94 623.57 L2.47 623.57 L2.47 623.62 Z"
							class="st14"/>
				</g>
				<g id="shape66-155" v:mID="66" v:groupContext="shape" v:layerMember="0" transform="translate(1.33237,-1.48041)">
					<title>Sheet.66</title>
					<path d="M19.34 622.39 L10.56 606.35 C10.17 605.66 9.52 605.66 9.13 606.35 L0.39 622.39 C0 623.08 0.35 623.62
								 1.13 623.62 L18.6 623.62 C19.39 623.62 19.74 623.08 19.34 622.39 Z" class="st15"/>
				</g>
			</g>
		</g>
		<g id="group67-157" transform="translate(460.806,-164.019)" v:mID="67" v:groupContext="group" v:layerMember="0">
			<title>Domain Controller.84</title>
			<g id="group68-158" transform="translate(9.99201E-14,-2.05223)" v:mID="68" v:groupContext="group" v:layerMember="0">
				<title>Sheet.68</title>
				<g id="shape69-159" v:mID="69" v:groupContext="shape" v:layerMember="0">
					<title>Sheet.69</title>
					<path d="M0 623.62 L0 588.22 C0 586.22 1.59 584.63 3.59 584.63 L17.96 584.63 C19.96 584.63 21.55 586.22 21.55
								 588.22 L21.55 623.62 L0 623.62 Z" class="st14"/>
				</g>
				<g id="shape70-161" v:mID="70" v:groupContext="shape" v:layerMember="0" transform="translate(1.53917,-1.53917)">
					<title>Sheet.70</title>
					<path d="M16.42 587.71 L2.05 587.71 C0.92 587.71 0 588.63 0 589.76 L0 623.62 L18.47 623.62 L18.47 589.76 C18.47
								 588.63 17.55 587.71 16.42 587.71 ZM14.88 619.52 L3.59 619.52 L3.59 617.98 L14.88 617.98 L14.88 619.52
								 ZM14.88 614.9 L3.59 614.9 L3.59 613.36 L14.88 613.36 L14.88 614.9 ZM14.88 593.86 L3.59 593.86 L3.59
								 592.33 L14.88 592.33 L14.88 593.86 Z" class="st15"/>
				</g>
			</g>
			<g id="group71-163" transform="translate(10.6716,0)" v:mID="71" v:groupContext="group" v:layerMember="0">
				<title>Sheet.71</title>
				<g id="shape72-164" v:mID="72" v:groupContext="shape" v:layerMember="0">
					<title>Sheet.72</title>
					<path d="M2.57 623.62 C1.59 623.62 0.82 623.21 0.41 622.49 C0 621.78 0 620.85 0.51 620.03 L9.54 603.41 C10.06
								 602.54 10.83 602.07 11.65 602.07 C12.47 602.07 13.24 602.54 13.75 603.36 L22.83 620.03 C23.29 620.85
								 23.34 621.72 22.88 622.44 C22.47 623.16 21.65 623.57 20.73 623.57 L2.57 623.57 L2.57 623.62 Z"
							class="st14"/>
				</g>
				<g id="shape73-166" v:mID="73" v:groupContext="shape" v:layerMember="0" transform="translate(1.38526,-1.53917)">
					<title>Sheet.73</title>
					<path d="M20.11 622.34 L10.98 605.66 C10.57 604.95 9.9 604.95 9.49 605.66 L0.41 622.34 C0 623.06 0.36 623.62
								 1.18 623.62 L19.34 623.62 C20.16 623.62 20.52 623.06 20.11 622.34 Z" class="st15"/>
				</g>
			</g>
		</g>
		<g id="shape74-168" v:mID="74" v:groupContext="shape" v:layerMember="1" transform="translate(309.943,-208.654)">
			<title>Dynamic connector.91</title>
			<path d="M0 623.62 L10.06 491.14 L0 623.62 Z" class="st19"/>
			<path d="M0 623.62 L10.06 491.14" class="st20"/>
		</g>
		<g id="shape75-171" v:mID="75" v:groupContext="shape" transform="translate(410.318,-174.539)">
			<title>Sheet.75</title>
			<desc>Site DC</desc>
			<v:userDefs/>
			<v:textBlock v:margins="rect(3.99999,3.99999,3.99999,3.99999)" v:tabSpace="42.5196"/>
			<v:textRect cx="26.6613" cy="613.621" width="53.33" height="20"/>
			<rect x="0" y="603.622" width="53.3227" height="20" class="st10"/>
			<text x="9.29" y="617.22" class="st9" v:langID="1033"><v:paragraph v:horizAlign="1"/><v:tabList/>Site DC</text>		</g>
		<g id="shape76-174" v:mID="76" v:groupContext="shape" transform="translate(203.39,-177.327)">
			<title>Sheet.76</title>
			<desc>Site DC</desc>
			<v:userDefs/>
			<v:textBlock v:margins="rect(3.99999,3.99999,3.99999,3.99999)" v:tabSpace="42.5196"/>
			<v:textRect cx="26.6613" cy="613.621" width="53.33" height="20"/>
			<rect x="0" y="603.622" width="53.3227" height="20" class="st10"/>
			<text x="10.73" y="616.92" class="st18" v:langID="1033"><v:paragraph v:horizAlign="1"/><v:tabList/>Site DC</text>		</g>
		<g id="shape77-177" v:mID="77" v:groupContext="shape" v:layerMember="1" transform="translate(200.95,-98.6048)">
			<title>Dynamic connector.94</title>
			<path d="M0 623.62 L58.85 569.82 L67.75 561.69" class="st16"/>
		</g>
		<g id="group78-182" transform="translate(194.35,-62.6049)" v:mID="78" v:groupContext="group" v:layerMember="0">
			<title>Server, Generic - small</title>
			<g id="group79-183" v:mID="79" v:groupContext="group" v:layerMember="0">
				<title>Sheet.79</title>
				<g id="shape80-184" v:mID="80" v:groupContext="shape" v:layerMember="0">
					<title>Sheet.80</title>
					<path d="M0 623.62 L0 584.62 C0 582.15 2.02 580.12 4.5 580.12 L19.5 580.12 C21.97 580.12 24 582.15 24 584.62
								 L24 623.62 L0 623.62 Z" class="st14"/>
				</g>
				<g id="shape81-186" v:mID="81" v:groupContext="shape" v:layerMember="0" transform="translate(2.25,-2.25)">
					<title>Sheet.81</title>
					<path d="M17.25 584.62 L2.25 584.62 C1.05 584.62 0 585.6 0 586.87 L0 623.62 L19.5 623.62 L19.5 586.87 C19.5 585.67
								 18.52 584.62 17.25 584.62 ZM15.15 619.12 L4.35 619.12 L4.35 617.62 L15.15 617.62 L15.15 619.12 ZM15.15
								 613.87 L4.35 613.87 L4.35 612.37 L15.15 612.37 L15.15 613.87 ZM15.15 591.37 L4.35 591.37 L4.35 589.87
								 L15.15 589.87 L15.15 591.37 Z" class="st21"/>
				</g>
			</g>
		</g>
		<g id="shape82-188" v:mID="82" v:groupContext="shape" v:layerMember="1" transform="translate(209.14,-106.092)">
			<title>Dynamic connector.95</title>
			<path d="M0 623.62 L90.17 574.9 L100.78 569.17" class="st16"/>
		</g>
		<g id="shape83-193" v:mID="83" v:groupContext="shape" v:layerMember="1" transform="translate(347.42,-209.553)">
			<title>Dynamic connector.72</title>
			<path d="M62.38 623.62 L5.01 498.07 L0 487.1" class="st16"/>
		</g>
		<g id="shape84-198" v:mID="84" v:groupContext="shape" v:layerMember="1" transform="translate(347.019,-209.553)">
			<title>Dynamic connector.96</title>
			<path d="M130.81 623.62 L8.34 495.81 L0 487.1" class="st16"/>
		</g>
		<g id="group85-203" transform="translate(391.239,-370.011)" v:mID="85" v:groupContext="group" v:layerMember="0">
			<title>Domain Controller.97</title>
			<g id="group86-204" transform="translate(-1.59872E-14,-1.80286)" v:mID="86" v:groupContext="group" v:layerMember="0">
				<title>Sheet.86</title>
				<g id="shape87-205" v:mID="87" v:groupContext="shape" v:layerMember="0">
					<title>Sheet.87</title>
					<path d="M0 623.62 L0 592.52 C0 590.76 1.4 589.37 3.16 589.37 L15.78 589.37 C17.53 589.37 18.93 590.76 18.93
								 592.52 L18.93 623.62 L0 623.62 Z" class="st14"/>
				</g>
				<g id="shape88-207" v:mID="88" v:groupContext="shape" v:layerMember="0" transform="translate(1.35215,-1.35215)">
					<title>Sheet.88</title>
					<path d="M14.42 592.07 L1.8 592.07 C0.81 592.07 0 592.88 0 593.87 L0 623.62 L16.23 623.62 L16.23 593.87 C16.23
								 592.88 15.41 592.07 14.42 592.07 ZM13.07 620.02 L3.16 620.02 L3.16 618.66 L13.07 618.66 L13.07 620.02
								 ZM13.07 615.96 L3.16 615.96 L3.16 614.61 L13.07 614.61 L13.07 615.96 ZM13.07 597.48 L3.16 597.48
								 L3.16 596.13 L13.07 596.13 L13.07 597.48 Z" class="st15"/>
				</g>
			</g>
			<g id="group89-209" transform="translate(9.37488,1.13687E-13)" v:mID="89" v:groupContext="group" v:layerMember="0">
				<title>Sheet.89</title>
				<g id="shape90-210" v:mID="90" v:groupContext="shape" v:layerMember="0">
					<title>Sheet.90</title>
					<path d="M2.25 623.62 C1.4 623.62 0.72 623.26 0.36 622.63 C0 622 0 621.19 0.45 620.47 L8.38 605.86 C8.83 605.1
								 9.51 604.69 10.23 604.69 C10.95 604.69 11.63 605.1 12.08 605.82 L20.06 620.47 C20.46 621.19 20.51
								 621.95 20.1 622.59 C19.74 623.22 19.02 623.58 18.21 623.58 L2.25 623.58 L2.25 623.62 Z"
							class="st14"/>
				</g>
				<g id="shape91-212" v:mID="91" v:groupContext="shape" v:layerMember="0" transform="translate(1.21693,-1.35215)">
					<title>Sheet.91</title>
					<path d="M17.67 622.5 L9.65 607.85 C9.28 607.22 8.7 607.22 8.34 607.85 L0.36 622.5 C0 623.13 0.32 623.62 1.04
								 623.62 L16.99 623.62 C17.71 623.62 18.03 623.13 17.67 622.5 Z" class="st15"/>
				</g>
			</g>
		</g>
		<g id="shape92-214" v:mID="92" v:groupContext="shape" transform="translate(385.956,-346.067)">
			<title>Sheet.92</title>
			<desc>Site DC</desc>
			<v:userDefs/>
			<v:textBlock v:margins="rect(3.99999,3.99999,3.99999,3.99999)" v:tabSpace="42.5196"/>
			<v:textRect cx="26.6613" cy="613.621" width="53.33" height="20"/>
			<rect x="0" y="603.622" width="53.3227" height="20" class="st10"/>
			<text x="9.29" y="617.22" class="st9" v:langID="1033"><v:paragraph v:horizAlign="1"/><v:tabList/>Site DC</text>		</g>
		<g id="shape93-217" v:mID="93" v:groupContext="shape" v:layerMember="1" transform="translate(345.194,-388.037)">
			<title>Dynamic connector.105</title>
			<path d="M41.38 623.62 L12.06 623.62 L0 623.62" class="st16"/>
		</g>
		<g id="shape94-222" v:mID="94" v:groupContext="shape" transform="translate(174.287,-38.4297)">
			<title>Sheet.94</title>
			<desc>Virtual Server</desc>
			<v:userDefs/>
			<v:textBlock v:margins="rect(3.99999,3.99999,3.99999,3.99999)" v:tabSpace="42.5196"/>
			<v:textRect cx="34.2361" cy="613.621" width="68.48" height="20"/>
			<rect x="0" y="603.622" width="68.4723" height="20" class="st10"/>
			<text x="17.95" y="610.02" class="st9" v:langID="1033"><v:paragraph v:horizAlign="1"/><v:tabList/>Virtual <tspan
						x="18.62" dy="1.2em" class="st22">Server</tspan></text>		</g>
		<g id="shape95-226" v:mID="95" v:groupContext="shape" transform="translate(416.649,-36.9336)">
			<title>Sheet.95</title>
			<desc>Virtual Server</desc>
			<v:userDefs/>
			<v:textBlock v:margins="rect(3.99999,3.99999,3.99999,3.99999)" v:tabSpace="42.5196"/>
			<v:textRect cx="27.1495" cy="613.621" width="54.3" height="20"/>
			<rect x="0" y="603.622" width="54.2991" height="20" class="st10"/>
			<text x="10.86" y="610.02" class="st9" v:langID="1033"><v:paragraph v:horizAlign="1"/><v:tabList/>Virtual <tspan
						x="11.53" dy="1.2em" class="st22">Server</tspan></text>		</g>
		<g id="shape96-230" v:mID="96" v:groupContext="shape" v:layerMember="1" transform="translate(409.779,-99.4552)">
			<title>Dynamic connector.65</title>
			<path d="M25.51 623.62 L4.71 574.65 L0 563.55" class="st16"/>
		</g>
		<g id="shape97-235" v:mID="97" v:groupContext="shape" v:layerMember="1" transform="translate(434.46,-101.421)">
			<title>Dynamic connector.66</title>
			<path d="M0 623.62 L36.14 575.18 L43.35 565.52" class="st16"/>
		</g>
		<g id="group98-240" transform="translate(428.302,-61.6246)" v:mID="98" v:groupContext="group" v:layerMember="0">
			<title>Server, Generic - small.59</title>
			<g id="group99-241" v:mID="99" v:groupContext="group" v:layerMember="0">
				<title>Sheet.99</title>
				<g id="shape100-242" v:mID="100" v:groupContext="shape" v:layerMember="0">
					<title>Sheet.100</title>
					<path d="M0 623.62 L0 584.62 C0 582.15 2.02 580.12 4.5 580.12 L19.5 580.12 C21.97 580.12 24 582.15 24 584.62
								 L24 623.62 L0 623.62 Z" class="st14"/>
				</g>
				<g id="shape101-244" v:mID="101" v:groupContext="shape" v:layerMember="0" transform="translate(2.25,-2.25)">
					<title>Sheet.101</title>
					<path d="M17.25 584.62 L2.25 584.62 C1.05 584.62 0 585.6 0 586.87 L0 623.62 L19.5 623.62 L19.5 586.87 C19.5 585.67
								 18.52 584.62 17.25 584.62 ZM15.15 619.12 L4.35 619.12 L4.35 617.62 L15.15 617.62 L15.15 619.12 ZM15.15
								 613.87 L4.35 613.87 L4.35 612.37 L15.15 612.37 L15.15 613.87 ZM15.15 591.37 L4.35 591.37 L4.35 589.87
								 L15.15 589.87 L15.15 591.37 Z" class="st21"/>
				</g>
			</g>
		</g>
	</g>
</svg>
