<?xml version="1.0" encoding="UTF-8" standalone="no"?>
<!DOCTYPE svg PUBLIC "-//W3C//DTD SVG 1.1//EN" "http://www.w3.org/Graphics/SVG/1.1/DTD/svg11.dtd">
<!-- Generated by Microsoft Visio, SVG Export figure3.svg Page-1 -->
<svg xmlns="http://www.w3.org/2000/svg" xmlns:xlink="http://www.w3.org/1999/xlink" xmlns:ev="http://www.w3.org/2001/xml-events"
		xmlns:v="http://schemas.microsoft.com/visio/2003/SVGExtensions/" width="7.9483in" height="7.05846in"
		viewBox="0 0 572.278 508.209" xml:space="preserve" color-interpolation-filters="sRGB" class="st9">
	<v:documentProperties v:langID="2057" v:metric="true" v:viewMarkup="false"/>

	<style type="text/css">
	<![CDATA[
		.st1 {fill:#0596ff;stroke:none;stroke-linecap:butt;stroke-width:2.55}
		.st2 {fill:#ffffff;stroke:none;stroke-linecap:butt;stroke-width:2.53942}
		.st3 {fill:#0596ff;stroke:none;stroke-linecap:butt;stroke-width:2.53942}
		.st4 {fill:#0596ff;stroke:none;stroke-linecap:butt;stroke-width:0.640136}
		.st5 {fill:#00a1ff;stroke:none;stroke-linecap:butt;stroke-width:2.55}
		.st6 {fill:none;stroke:none;stroke-linecap:round;stroke-linejoin:round;stroke-width:0.75}
		.st7 {fill:#000000;font-family:Calibri;font-size:1.00001em}
		.st8 {stroke:#000000;stroke-linecap:round;stroke-linejoin:round;stroke-width:0.75}
		.st9 {fill:none;fill-rule:evenodd;font-size:12px;overflow:visible;stroke-linecap:square;stroke-miterlimit:3}
	]]>
	</style>

	<g v:mID="0" v:index="1" v:groupContext="foregroundPage">
		<title>Page-1</title>
		<v:pageProperties v:drawingScale="0.0393701" v:pageScale="0.0393701" v:drawingUnits="24" v:shadowOffsetX="9"
				v:shadowOffsetY="-9"/>
		<v:layer v:name="Connector" v:index="0"/>
		<g id="group1000-1" transform="translate(31.0207,-121.333)" v:mID="1000" v:groupContext="group">
			<title>Sheet.1000</title>
			<g id="shape1001-2" v:mID="1001" v:groupContext="shape">
				<title>Sheet.1001</title>
				<path d="M46.79 412.24 C20.94 412.24 0 433.71 0 460.22 C0 486.74 20.94 508.21 46.79 508.21 C72.64 508.21 93.58 486.74
							 93.58 460.22 C93.54 433.75 72.6 412.28 46.79 412.24 ZM46.79 505.41 C22.46 505.41 2.73 485.18 2.73 460.22
							 C2.73 435.27 22.46 415.04 46.79 415.04 C71.12 415.04 90.85 435.27 90.85 460.22 C90.81 485.18 71.12 505.37
							 46.79 505.41 Z" class="st1"/>
			</g>
			<g id="group1002-4" transform="translate(14.3878,-27.0718)" v:mID="1002" v:groupContext="group">
				<title>Sheet.1002</title>
				<g id="shape1003-5" v:mID="1003" v:groupContext="shape" transform="translate(17.8191,0)">
					<title>Sheet.1003</title>
					<path d="M24.68 508.21 L4.02 508.21 C1.79 508.21 0 506.13 0 503.57 C0 503.57 0 502.53 0 502.29 L0 502.25 L0 502.21
								 C0.04 501.17 0.35 499.09 1.09 497.89 C2.69 495.37 4.64 493.77 7.25 492.85 C7.76 492.61 9.86 491.77
								 14.35 491.77 C18.83 491.77 20.94 492.57 21.45 492.85 C24.06 493.73 26.01 495.33 27.61 497.89 C28.35
								 499.09 28.66 501.17 28.7 502.21 L28.7 502.25 L28.7 502.29 C28.7 502.53 28.7 503.57 28.7 503.57 C28.7
								 506.13 26.9 508.21 24.68 508.21 ZM2.73 502.25 C2.73 502.57 2.73 503.57 2.73 503.57 C2.73 504.57
								 3.31 505.41 4.02 505.41 L24.68 505.41 C25.38 505.41 25.97 504.57 25.97 503.57 C25.97 503.57 25.97
								 502.57 25.97 502.25 C25.93 501.37 25.66 499.97 25.31 499.45 C24.02 497.45 22.58 496.21 20.51 495.53
								 L20.31 495.45 C20.31 495.45 18.6 494.65 14.35 494.65 C10.06 494.65 8.38 495.45 8.34 495.45 L8.19
								 495.53 C6.12 496.25 4.64 497.45 3.39 499.45 C3.04 499.97 2.73 501.37 2.73 502.25 Z" class="st1"/>
				</g>
				<g id="shape1004-7" v:mID="1004" v:groupContext="shape" transform="translate(23.5118,-15.6352)">
					<title>Sheet.1004</title>
					<path d="M8.66 508.21 C3 508.21 0 501.45 0 496.57 C0 491.65 3.86 487.66 8.66 487.66 C13.41 487.66 17.31 491.65
								 17.31 496.57 C17.27 501.33 14.23 508.21 8.66 508.21 ZM8.66 490.45 C5.38 490.45 2.73 493.21 2.73
								 496.57 C2.73 500.25 4.99 505.41 8.66 505.41 C12.32 505.41 14.58 500.25 14.58 496.57 C14.54 493.17
								 11.89 490.45 8.66 490.45 Z" class="st1"/>
				</g>
				<g id="shape1005-9" v:mID="1005" v:groupContext="shape" transform="translate(0,-7.27779)">
					<title>Sheet.1005</title>
					<path d="M17.47 508.21 L3.86 508.21 C1.72 508.21 0 506.21 0 503.77 L0 503.01 C0 502.85 0 502.69 0 502.57 L0 502.53
								 L0 502.49 C0.04 501.49 0.31 499.57 1.05 498.41 C2.53 496.05 4.37 494.53 6.86 493.69 C7.37 493.45
								 9.36 492.69 13.53 492.69 C17.7 492.69 19.69 493.45 20.2 493.69 C22.26 494.41 23.86 495.57 25.23
								 497.33 L26.44 498.89 L24.6 499.53 C21.95 500.45 20.04 502.01 18.44 504.61 C18.17 505.05 17.86 505.97
								 17.7 507.01 L17.47 508.21 ZM2.73 502.57 C2.73 502.73 2.73 502.89 2.73 503.09 L2.73 503.81 C2.73
								 504.69 3.24 505.45 3.86 505.45 L15.21 505.45 C15.4 504.65 15.67 503.81 16.1 503.17 C17.66 500.73
								 19.46 498.97 21.76 497.81 C21.02 497.21 20.2 496.77 19.22 496.41 L19.03 496.33 C19.03 496.33 17.43
								 495.57 13.49 495.57 C9.51 495.57 7.95 496.33 7.92 496.33 L7.76 496.41 C5.85 497.05 4.48 498.17 3.31
								 500.01 C3 500.45 2.73 501.77 2.73 502.57 Z" class="st1"/>
				</g>
				<g id="shape1006-11" v:mID="1006" v:groupContext="shape" transform="translate(5.30283,-21.8733)">
					<title>Sheet.1006</title>
					<path d="M8.19 508.21 C2.85 508.21 0 501.85 0 497.21 C0 492.57 3.67 488.78 8.19 488.78 C12.67 488.78 16.34 492.57
								 16.34 497.21 C16.38 501.73 13.45 508.21 8.19 508.21 ZM8.19 491.61 C5.19 491.61 2.73 494.13 2.73
								 497.25 C2.73 500.65 4.8 505.45 8.19 505.45 C11.5 505.45 13.61 500.61 13.61 497.25 C13.65 494.13
								 11.19 491.61 8.19 491.61 Z" class="st1"/>
				</g>
				<g id="shape1007-13" v:mID="1007" v:groupContext="shape" transform="translate(37.9387,-7.27779)">
					<title>Sheet.1007</title>
					<path d="M22.58 508.21 L8.97 508.21 L8.77 507.05 C8.62 506.01 8.31 505.09 8.03 504.65 C6.39 502.05 4.48 500.49
								 1.83 499.57 L0 498.93 L1.21 497.37 C2.53 495.61 4.21 494.41 6.24 493.73 C6.75 493.49 8.73 492.73
								 12.91 492.73 C17.08 492.73 19.07 493.49 19.57 493.73 C22.03 494.57 23.86 496.09 25.38 498.45 C26.09
								 499.57 26.4 501.49 26.44 502.53 L26.44 502.57 L26.44 502.61 C26.44 502.73 26.44 502.89 26.44 503.05
								 L26.44 503.81 C26.44 506.21 24.68 508.21 22.58 508.21 ZM11.19 505.41 L22.54 505.41 C23.16 505.41
								 23.67 504.65 23.67 503.77 L23.67 503.05 C23.67 502.89 23.67 502.69 23.67 502.53 C23.63 501.73 23.39
								 500.45 23.08 499.97 C21.91 498.13 20.55 497.01 18.64 496.33 L18.44 496.25 C18.44 496.25 16.84 495.49
								 12.91 495.49 C8.93 495.49 7.37 496.25 7.33 496.25 L7.14 496.33 C6.16 496.65 5.34 497.09 4.6 497.73
								 C6.9 498.93 8.73 500.65 10.25 503.13 C10.72 503.77 11 504.61 11.19 505.41 Z" class="st1"/>
				</g>
				<g id="shape1008-15" v:mID="1008" v:groupContext="shape" transform="translate(42.6956,-21.8733)">
					<title>Sheet.1008</title>
					<path d="M8.15 508.21 C2.89 508.21 0 501.73 0 497.21 C0 492.57 3.67 488.78 8.15 488.78 C12.67 488.78 16.34 492.57
								 16.34 497.21 C16.34 501.85 13.49 508.21 8.15 508.21 ZM8.15 491.61 C5.15 491.61 2.73 494.13 2.73
								 497.25 C2.73 500.57 4.83 505.45 8.15 505.45 C11.5 505.45 13.61 500.69 13.61 497.25 C13.61 494.13
								 11.15 491.61 8.15 491.61 Z" class="st1"/>
				</g>
			</g>
		</g>
		<g id="group1009-17" transform="translate(449.284,-217.826)" v:mID="1009" v:groupContext="group">
			<title>Sheet.1009</title>
			<g id="shape1010-18" v:mID="1010" v:groupContext="shape" transform="translate(0.0465956,0)">
				<title>White</title>
				<path d="M46.6 412.64 C20.89 412.64 0 434.06 0 460.42 C0 486.79 20.89 508.21 46.6 508.21 C72.3 508.21 93.19 486.79
							 93.19 460.42 C93.19 434.06 72.3 412.64 46.6 412.64 ZM46.6 505.42 C22.4 505.42 2.72 485.23 2.72 460.42
							 C2.72 435.61 22.4 415.42 46.6 415.42 C70.79 415.42 90.47 435.61 90.47 460.42 C90.47 485.23 70.79 505.42
							 46.6 505.42 Z" class="st2"/>
			</g>
			<g id="shape1011-20" v:mID="1011" v:groupContext="shape">
				<title>Blue</title>
				<path d="M46.6 412.64 C20.89 412.64 0 434.06 0 460.42 C0 486.79 20.89 508.21 46.6 508.21 C72.3 508.21 93.19 486.79
							 93.19 460.42 C93.19 434.06 72.3 412.64 46.6 412.64 ZM46.6 505.42 C22.4 505.42 2.72 485.23 2.72 460.42
							 C2.72 435.61 22.4 415.42 46.6 415.42 C70.79 415.42 90.47 435.61 90.47 460.42 C90.47 485.23 70.79 505.42
							 46.6 505.42 Z" class="st3"/>
			</g>
			<g id="group1012-22" transform="translate(21.1738,-21.3605)" v:mID="1012" v:groupContext="group">
				<title>_126-Server</title>
				<g id="shape1013-23" v:mID="1013" v:groupContext="shape" transform="translate(0,-33.327)">
					<title>Sheet.1013</title>
					<path d="M49.91 508.21 L1.16 508.21 C0.52 508.21 0 507.68 0 507.01 L0 490.35 C0 489.69 0.52 489.15 1.16 489.15
								 L49.91 489.15 C50.55 489.15 51.07 489.69 51.07 490.35 L51.07 507.01 C51.07 507.68 50.55 508.21 49.91
								 508.21 ZM2.33 505.82 L48.74 505.82 L48.74 491.54 L2.33 491.54 L2.33 505.82 Z" class="st3"/>
				</g>
				<g id="shape1014-25" v:mID="1014" v:groupContext="shape" transform="translate(0,-16.6655)">
					<title>Sheet.1014</title>
					<path d="M49.91 508.21 L1.16 508.21 C0.52 508.21 0 507.68 0 507.01 L0 490.35 C0 489.69 0.52 489.16 1.16 489.16
								 L49.91 489.16 C50.55 489.16 51.07 489.69 51.07 490.35 L51.07 507.01 C51.07 507.68 50.55 508.21 49.91
								 508.21 ZM2.33 505.82 L48.74 505.82 L48.74 491.55 L2.33 491.55 L2.33 505.82 Z" class="st3"/>
				</g>
				<g id="shape1015-27" v:mID="1015" v:groupContext="shape">
					<title>Sheet.1015</title>
					<path d="M49.91 508.21 L1.16 508.21 C0.52 508.21 0 507.68 0 507.01 L0 490.35 C0 489.69 0.52 489.16 1.16 489.16
								 L49.91 489.16 C50.55 489.16 51.07 489.69 51.07 490.35 L51.07 507.01 C51.07 507.67 50.55 508.21 49.91
								 508.21 ZM2.33 505.82 L48.74 505.82 L48.74 491.55 L2.33 491.55 L2.33 505.82 Z" class="st3"/>
				</g>
				<g id="shape1016-29" v:mID="1016" v:groupContext="shape" transform="translate(6.04189,-41.6577)">
					<title>Sheet.1016</title>
					<rect x="0" y="505.82" width="9.75012" height="2.38931" class="st3"/>
				</g>
				<g id="shape1017-31" v:mID="1017" v:groupContext="shape" transform="translate(7.66497,-24.9962)">
					<title>Sheet.1017</title>
					<rect x="0" y="505.82" width="29.2465" height="2.38931" class="st3"/>
				</g>
				<g id="shape1018-33" v:mID="1018" v:groupContext="shape" transform="translate(40.1615,-24.9962)">
					<title>Sheet.1018</title>
					<rect x="0" y="505.82" width="3.25004" height="2.38931" class="st3"/>
				</g>
				<g id="shape1019-35" v:mID="1019" v:groupContext="shape" transform="translate(40.1615,-8.33473)">
					<title>Sheet.1019</title>
					<rect x="0" y="505.82" width="3.25004" height="2.38931" class="st3"/>
				</g>
				<g id="shape1020-37" v:mID="1020" v:groupContext="shape" transform="translate(33.6614,-8.33473)">
					<title>Sheet.1020</title>
					<rect x="0" y="505.82" width="3.25004" height="2.38931" class="st3"/>
				</g>
				<g id="shape1021-39" v:mID="1021" v:groupContext="shape" transform="translate(27.1613,-8.33473)">
					<title>Sheet.1021</title>
					<rect x="0" y="505.82" width="3.25004" height="2.38931" class="st3"/>
				</g>
				<g id="shape1022-41" v:mID="1022" v:groupContext="shape" transform="translate(7.66497,-8.33473)">
					<title>Sheet.1022</title>
					<rect x="0" y="505.82" width="16.2463" height="2.38931" class="st3"/>
				</g>
				<g id="shape1023-43" v:mID="1023" v:groupContext="shape" transform="translate(19.0382,-41.6577)">
					<title>Sheet.1023</title>
					<rect x="0" y="505.82" width="3.25004" height="2.38931" class="st3"/>
				</g>
				<g id="shape1024-45" v:mID="1024" v:groupContext="shape" transform="translate(25.5383,-41.6577)">
					<title>Sheet.1024</title>
					<rect x="0" y="505.82" width="3.25004" height="2.38931" class="st3"/>
				</g>
				<g id="shape1025-47" v:mID="1025" v:groupContext="shape" transform="translate(32.0383,-41.6577)">
					<title>Sheet.1025</title>
					<rect x="0" y="505.82" width="3.25004" height="2.38931" class="st3"/>
				</g>
				<g id="shape1026-49" v:mID="1026" v:groupContext="shape" transform="translate(38.5345,-41.6577)">
					<title>Sheet.1026</title>
					<rect x="0" y="505.82" width="3.25004" height="2.38931" class="st3"/>
				</g>
			</g>
		</g>
		<g id="group1027-51" transform="translate(216.843,-22.5189)" v:mID="1027" v:groupContext="group">
			<title>Sheet.1027</title>
			<g id="shape1028-52" v:mID="1028" v:groupContext="shape" transform="translate(0.0465956,0)">
				<title>White</title>
				<path d="M46.6 412.64 C20.89 412.64 0 434.06 0 460.42 C0 486.79 20.89 508.21 46.6 508.21 C72.3 508.21 93.19 486.79
							 93.19 460.42 C93.19 434.06 72.3 412.64 46.6 412.64 ZM46.6 505.42 C22.4 505.42 2.72 485.23 2.72 460.42
							 C2.72 435.61 22.4 415.42 46.6 415.42 C70.79 415.42 90.47 435.61 90.47 460.42 C90.47 485.23 70.79 505.42
							 46.6 505.42 Z" class="st2"/>
			</g>
			<g id="shape1029-54" v:mID="1029" v:groupContext="shape">
				<title>Blue</title>
				<path d="M46.6 412.64 C20.89 412.64 0 434.06 0 460.42 C0 486.79 20.89 508.21 46.6 508.21 C72.3 508.21 93.19 486.79
							 93.19 460.42 C93.19 434.06 72.3 412.64 46.6 412.64 ZM46.6 505.42 C22.4 505.42 2.72 485.23 2.72 460.42
							 C2.72 435.61 22.4 415.42 46.6 415.42 C70.79 415.42 90.47 435.61 90.47 460.42 C90.47 485.23 70.79 505.42
							 46.6 505.42 Z" class="st3"/>
			</g>
			<g id="group1030-56" transform="translate(18.5606,-31.3239)" v:mID="1030" v:groupContext="group">
				<title>Sheet.1030</title>
				<g id="group1031-57" v:mID="1031" v:groupContext="group">
					<title>Sheet.1031</title>
					<g id="shape1032-58" v:mID="1032" v:groupContext="shape" transform="translate(0.582445,-0.601311)">
						<title>Sheet.1032</title>
						<path d="M51.83 508.21 L3.16 508.21 C1.41 508.21 0 506.76 0 504.97 L0 471.95 C0 470.16 1.42 468.71 3.16 468.71
									 L51.83 468.71 C53.58 468.71 54.99 470.16 54.99 471.95 L54.99 504.97 C54.99 506.76 53.57 508.21
									 51.83 508.21 ZM3.16 470.04 C2.13 470.04 1.3 470.9 1.3 471.95 L1.3 504.97 C1.3 506.02 2.13 506.87
									 3.16 506.87 L51.83 506.87 C52.85 506.87 53.69 506.02 53.69 504.97 L53.69 471.95 C53.69 470.9
									 52.86 470.04 51.83 470.04 L3.16 470.04 Z" class="st3"/>
					</g>
					<g id="shape1033-60" v:mID="1033" v:groupContext="shape">
						<title>Sheet.1033</title>
						<path d="M52.42 508.21 L3.74 508.21 C1.68 508.21 0 506.49 0 504.37 L0 471.35 C0 469.23 1.68 467.51 3.74 467.51
									 L52.42 467.51 C54.48 467.51 56.16 469.23 56.16 471.35 L56.16 504.37 C56.16 506.48 54.48 508.21
									 52.42 508.21 ZM3.74 468.71 C2.32 468.71 1.16 469.89 1.16 471.35 L1.16 504.37 C1.16 505.83 2.32
									 507.01 3.74 507.01 L52.42 507.01 C53.84 507.01 54.99 505.83 54.99 504.37 L54.99 471.35 C54.99
									 469.89 53.83 468.7 52.42 468.7 L3.74 468.7 L3.74 468.71 ZM52.42 506.87 L3.74 506.87 C2.4 506.87
									 1.3 505.75 1.3 504.37 L1.3 471.35 C1.3 469.97 2.39 468.85 3.74 468.85 L52.42 468.85 C53.76 468.85
									 54.85 469.97 54.85 471.35 L54.85 504.37 C54.85 505.75 53.76 506.87 52.42 506.87 ZM3.74 470.04
									 C3.04 470.04 2.47 470.63 2.47 471.35 L2.47 504.37 C2.47 505.09 3.04 505.67 3.74 505.67 L52.42
									 505.67 C53.12 505.67 53.69 505.09 53.69 504.37 L53.69 471.35 C53.69 470.63 53.12 470.04 52.42
									 470.04 L3.74 470.04 Z" class="st3"/>
					</g>
				</g>
			</g>
			<g id="shape1034-62" v:mID="1034" v:groupContext="shape" transform="translate(19.7915,-38.0459)">
				<title>Sheet.1034</title>
				<rect x="0" y="506.871" width="53.6897" height="1.33802" class="st3"/>
			</g>
			<g id="shape1035-64" v:mID="1035" v:groupContext="shape" transform="translate(37.2726,-23.8175)">
				<title>Sheet.1035</title>
				<path d="M5.29 500.11 L13.28 500.11 L16.49 506.88 L2.09 506.88 L5.29 500.11 ZM4.48 498.77 L0 508.21 L18.58 508.21
							 L14.1 498.77 L4.48 498.77 Z" class="st3"/>
			</g>
			<g id="shape1036-66" v:mID="1036" v:groupContext="shape" transform="translate(34.7719,-23.8215)">
				<title>Sheet.1036</title>
				<rect x="0" y="506.875" width="23.7288" height="1.33403" class="st3"/>
			</g>
			<g id="group1037-68" transform="translate(22.0941,-41.0763)" v:mID="1037" v:groupContext="group">
				<title>Sheet.1037</title>
				<g id="shape1038-69" v:mID="1038" v:groupContext="shape">
					<title>Sheet.1038</title>
					<path d="M47.96 508.21 L1.13 508.21 C0.51 508.21 0 507.69 0 507.05 L0 482.05 C0 481.41 0.5 480.9 1.13 480.9 L47.96
								 480.9 C48.58 480.9 49.08 481.41 49.08 482.05 L49.08 507.05 C49.08 507.69 48.58 508.21 47.96 508.21
								 ZM1.31 506.87 L47.78 506.87 L47.78 482.23 L1.31 482.23 L1.31 506.87 Z" class="st3"/>
				</g>
			</g>
			<g id="shape1039-71" v:mID="1039" v:groupContext="shape" transform="translate(28.7611,-60.8598)">
				<title>Sheet.1039</title>
				<rect x="0" y="506.875" width="1.55319" height="1.33403" class="st3"/>
			</g>
			<g id="shape1040-73" v:mID="1040" v:groupContext="shape" transform="translate(30.3143,-60.8598)">
				<title>Sheet.1040</title>
				<rect x="0" y="506.875" width="1.55319" height="1.33403" class="st3"/>
			</g>
			<g id="shape1041-75" v:mID="1041" v:groupContext="shape" transform="translate(33.4246,-60.8598)">
				<title>Sheet.1041</title>
				<rect x="0" y="506.875" width="1.55319" height="1.33403" class="st3"/>
			</g>
			<g id="shape1042-77" v:mID="1042" v:groupContext="shape" transform="translate(34.9777,-60.8598)">
				<title>Sheet.1042</title>
				<rect x="0" y="506.875" width="1.55319" height="1.33403" class="st3"/>
			</g>
			<g id="shape1043-79" v:mID="1043" v:groupContext="shape" transform="translate(36.5309,-60.8598)">
				<title>Sheet.1043</title>
				<rect x="0" y="506.875" width="1.55319" height="1.33403" class="st3"/>
			</g>
			<g id="shape1044-81" v:mID="1044" v:groupContext="shape" transform="translate(38.088,-60.8598)">
				<title>Sheet.1044</title>
				<rect x="0" y="506.875" width="1.55319" height="1.33403" class="st3"/>
			</g>
			<g id="shape1045-83" v:mID="1045" v:groupContext="shape" transform="translate(39.6412,-60.8598)">
				<title>Sheet.1045</title>
				<rect x="0" y="506.875" width="1.55319" height="1.33403" class="st3"/>
			</g>
			<g id="shape1046-85" v:mID="1046" v:groupContext="shape" transform="translate(42.7514,-60.8598)">
				<title>Sheet.1046</title>
				<rect x="0" y="506.875" width="1.55319" height="1.33403" class="st3"/>
			</g>
			<g id="shape1047-87" v:mID="1047" v:groupContext="shape" transform="translate(45.8617,-60.8598)">
				<title>Sheet.1047</title>
				<rect x="0" y="506.875" width="1.55319" height="1.33403" class="st3"/>
			</g>
			<g id="shape1048-89" v:mID="1048" v:groupContext="shape" transform="translate(47.4149,-60.8598)">
				<title>Sheet.1048</title>
				<rect x="0" y="506.875" width="1.55707" height="1.33403" class="st3"/>
			</g>
			<g id="shape1049-91" v:mID="1049" v:groupContext="shape" transform="translate(50.5251,-60.8598)">
				<title>Sheet.1049</title>
				<rect x="0" y="506.875" width="1.55319" height="1.33403" class="st3"/>
			</g>
			<g id="shape1050-93" v:mID="1050" v:groupContext="shape" transform="translate(52.0783,-60.8598)">
				<title>Sheet.1050</title>
				<rect x="0" y="506.875" width="1.55707" height="1.33403" class="st3"/>
			</g>
			<g id="shape1051-95" v:mID="1051" v:groupContext="shape" transform="translate(55.1886,-60.8598)">
				<title>Sheet.1051</title>
				<rect x="0" y="506.875" width="1.55319" height="1.33403" class="st3"/>
			</g>
			<g id="shape1052-97" v:mID="1052" v:groupContext="shape" transform="translate(58.2949,-60.8598)">
				<title>Sheet.1052</title>
				<rect x="0" y="506.875" width="1.55319" height="1.33403" class="st3"/>
			</g>
			<g id="shape1053-99" v:mID="1053" v:groupContext="shape" transform="translate(61.4052,-60.8598)">
				<title>Sheet.1053</title>
				<rect x="0" y="506.875" width="1.55707" height="1.33403" class="st3"/>
			</g>
			<g id="shape1054-101" v:mID="1054" v:groupContext="shape" transform="translate(62.9623,-60.8598)">
				<title>Sheet.1054</title>
				<rect x="0" y="506.875" width="1.55319" height="1.33403" class="st3"/>
			</g>
			<g id="shape1055-103" v:mID="1055" v:groupContext="shape" transform="translate(28.7611,-58.144)">
				<title>Sheet.1055</title>
				<rect x="0" y="506.875" width="1.55319" height="1.33403" class="st3"/>
			</g>
			<g id="shape1056-105" v:mID="1056" v:groupContext="shape" transform="translate(31.8675,-58.144)">
				<title>Sheet.1056</title>
				<rect x="0" y="506.875" width="1.55707" height="1.33403" class="st3"/>
			</g>
			<g id="shape1057-107" v:mID="1057" v:groupContext="shape" transform="translate(34.9777,-58.144)">
				<title>Sheet.1057</title>
				<rect x="0" y="506.875" width="1.55319" height="1.33403" class="st3"/>
			</g>
			<g id="shape1058-109" v:mID="1058" v:groupContext="shape" transform="translate(38.088,-58.144)">
				<title>Sheet.1058</title>
				<rect x="0" y="506.875" width="1.55319" height="1.33403" class="st3"/>
			</g>
			<g id="shape1059-111" v:mID="1059" v:groupContext="shape" transform="translate(41.1944,-58.144)">
				<title>Sheet.1059</title>
				<rect x="0" y="506.875" width="1.55707" height="1.33403" class="st3"/>
			</g>
			<g id="shape1060-113" v:mID="1060" v:groupContext="shape" transform="translate(42.7514,-58.144)">
				<title>Sheet.1060</title>
				<rect x="0" y="506.875" width="1.55319" height="1.33403" class="st3"/>
			</g>
			<g id="shape1061-115" v:mID="1061" v:groupContext="shape" transform="translate(44.3046,-58.144)">
				<title>Sheet.1061</title>
				<rect x="0" y="506.875" width="1.55319" height="1.33403" class="st3"/>
			</g>
			<g id="shape1062-117" v:mID="1062" v:groupContext="shape" transform="translate(47.4149,-58.144)">
				<title>Sheet.1062</title>
				<rect x="0" y="506.875" width="1.55707" height="1.33403" class="st3"/>
			</g>
			<g id="shape1063-119" v:mID="1063" v:groupContext="shape" transform="translate(48.9681,-58.144)">
				<title>Sheet.1063</title>
				<rect x="0" y="506.875" width="1.55319" height="1.33403" class="st3"/>
			</g>
			<g id="shape1064-121" v:mID="1064" v:groupContext="shape" transform="translate(52.0783,-58.144)">
				<title>Sheet.1064</title>
				<rect x="0" y="506.875" width="1.55707" height="1.33403" class="st3"/>
			</g>
			<g id="shape1065-123" v:mID="1065" v:groupContext="shape" transform="translate(55.1886,-58.144)">
				<title>Sheet.1065</title>
				<rect x="0" y="506.875" width="1.55319" height="1.33403" class="st3"/>
			</g>
			<g id="shape1066-125" v:mID="1066" v:groupContext="shape" transform="translate(58.2949,-58.144)">
				<title>Sheet.1066</title>
				<rect x="0" y="506.875" width="1.55319" height="1.33403" class="st3"/>
			</g>
			<g id="shape1067-127" v:mID="1067" v:groupContext="shape" transform="translate(59.852,-58.144)">
				<title>Sheet.1067</title>
				<rect x="0" y="506.875" width="1.55319" height="1.33403" class="st3"/>
			</g>
			<g id="shape1068-129" v:mID="1068" v:groupContext="shape" transform="translate(62.9623,-58.144)">
				<title>Sheet.1068</title>
				<rect x="0" y="506.875" width="1.55319" height="1.33403" class="st3"/>
			</g>
			<g id="shape1069-131" v:mID="1069" v:groupContext="shape" transform="translate(62.9623,-55.4281)">
				<title>Sheet.1069</title>
				<rect x="0" y="506.875" width="1.55319" height="1.33403" class="st3"/>
			</g>
			<g id="shape1070-133" v:mID="1070" v:groupContext="shape" transform="translate(59.852,-55.4281)">
				<title>Sheet.1070</title>
				<rect x="0" y="506.875" width="1.55319" height="1.33403" class="st3"/>
			</g>
			<g id="shape1071-135" v:mID="1071" v:groupContext="shape" transform="translate(56.7418,-55.4281)">
				<title>Sheet.1071</title>
				<rect x="0" y="506.875" width="1.55707" height="1.33403" class="st3"/>
			</g>
			<g id="shape1072-137" v:mID="1072" v:groupContext="shape" transform="translate(53.6315,-55.4281)">
				<title>Sheet.1072</title>
				<rect x="0" y="506.875" width="1.55319" height="1.33403" class="st3"/>
			</g>
			<g id="shape1073-139" v:mID="1073" v:groupContext="shape" transform="translate(50.5251,-55.4281)">
				<title>Sheet.1073</title>
				<rect x="0" y="506.875" width="1.55319" height="1.33403" class="st3"/>
			</g>
			<g id="shape1074-141" v:mID="1074" v:groupContext="shape" transform="translate(47.4149,-55.4281)">
				<title>Sheet.1074</title>
				<rect x="0" y="506.875" width="1.55707" height="1.33403" class="st3"/>
			</g>
			<g id="shape1075-143" v:mID="1075" v:groupContext="shape" transform="translate(44.3046,-55.4281)">
				<title>Sheet.1075</title>
				<rect x="0" y="506.875" width="1.55319" height="1.33403" class="st3"/>
			</g>
			<g id="shape1076-145" v:mID="1076" v:groupContext="shape" transform="translate(42.7514,-55.4281)">
				<title>Sheet.1076</title>
				<rect x="0" y="506.875" width="1.55319" height="1.33403" class="st3"/>
			</g>
			<g id="shape1077-147" v:mID="1077" v:groupContext="shape" transform="translate(39.6412,-55.4281)">
				<title>Sheet.1077</title>
				<rect x="0" y="506.875" width="1.55319" height="1.33403" class="st3"/>
			</g>
			<g id="shape1078-149" v:mID="1078" v:groupContext="shape" transform="translate(36.5309,-55.4281)">
				<title>Sheet.1078</title>
				<rect x="0" y="506.875" width="1.55319" height="1.33403" class="st3"/>
			</g>
			<g id="shape1079-151" v:mID="1079" v:groupContext="shape" transform="translate(31.8675,-55.4281)">
				<title>Sheet.1079</title>
				<rect x="0" y="506.875" width="1.55707" height="1.33403" class="st3"/>
			</g>
			<g id="shape1080-153" v:mID="1080" v:groupContext="shape" transform="translate(28.7611,-55.4281)">
				<title>Sheet.1080</title>
				<rect x="0" y="506.875" width="1.55319" height="1.33403" class="st3"/>
			</g>
			<g id="shape1081-155" v:mID="1081" v:groupContext="shape" transform="translate(28.7611,-52.7123)">
				<title>Sheet.1081</title>
				<rect x="0" y="506.875" width="1.55319" height="1.33403" class="st3"/>
			</g>
			<g id="shape1082-157" v:mID="1082" v:groupContext="shape" transform="translate(31.8675,-52.7123)">
				<title>Sheet.1082</title>
				<rect x="0" y="506.875" width="1.55707" height="1.33403" class="st3"/>
			</g>
			<g id="shape1083-159" v:mID="1083" v:groupContext="shape" transform="translate(33.4246,-52.7123)">
				<title>Sheet.1083</title>
				<rect x="0" y="506.875" width="1.55319" height="1.33403" class="st3"/>
			</g>
			<g id="shape1084-161" v:mID="1084" v:groupContext="shape" transform="translate(36.5309,-52.7123)">
				<title>Sheet.1084</title>
				<rect x="0" y="506.875" width="1.55319" height="1.33403" class="st3"/>
			</g>
			<g id="shape1085-163" v:mID="1085" v:groupContext="shape" transform="translate(38.088,-52.7123)">
				<title>Sheet.1085</title>
				<rect x="0" y="506.875" width="1.55319" height="1.33403" class="st3"/>
			</g>
			<g id="shape1086-165" v:mID="1086" v:groupContext="shape" transform="translate(44.3046,-52.7123)">
				<title>Sheet.1086</title>
				<rect x="0" y="506.875" width="1.55319" height="1.33403" class="st3"/>
			</g>
			<g id="shape1087-167" v:mID="1087" v:groupContext="shape" transform="translate(45.8617,-52.7123)">
				<title>Sheet.1087</title>
				<rect x="0" y="506.875" width="1.55319" height="1.33403" class="st3"/>
			</g>
			<g id="shape1088-169" v:mID="1088" v:groupContext="shape" transform="translate(48.9681,-52.7123)">
				<title>Sheet.1088</title>
				<rect x="0" y="506.875" width="1.55319" height="1.33403" class="st3"/>
			</g>
			<g id="shape1089-171" v:mID="1089" v:groupContext="shape" transform="translate(52.0783,-52.7123)">
				<title>Sheet.1089</title>
				<rect x="0" y="506.875" width="1.55707" height="1.33403" class="st3"/>
			</g>
			<g id="shape1090-173" v:mID="1090" v:groupContext="shape" transform="translate(55.1886,-52.7123)">
				<title>Sheet.1090</title>
				<rect x="0" y="506.875" width="1.55319" height="1.33403" class="st3"/>
			</g>
			<g id="shape1091-175" v:mID="1091" v:groupContext="shape" transform="translate(58.2949,-52.7123)">
				<title>Sheet.1091</title>
				<rect x="0" y="506.875" width="1.55319" height="1.33403" class="st3"/>
			</g>
			<g id="shape1092-177" v:mID="1092" v:groupContext="shape" transform="translate(59.852,-52.7123)">
				<title>Sheet.1092</title>
				<rect x="0" y="506.875" width="1.55319" height="1.33403" class="st3"/>
			</g>
			<g id="shape1093-179" v:mID="1093" v:groupContext="shape" transform="translate(61.4052,-52.7123)">
				<title>Sheet.1093</title>
				<rect x="0" y="506.875" width="1.55707" height="1.33403" class="st3"/>
			</g>
			<g id="shape1094-181" v:mID="1094" v:groupContext="shape" transform="translate(62.9623,-52.7123)">
				<title>Sheet.1094</title>
				<rect x="0" y="506.875" width="1.55319" height="1.33403" class="st3"/>
			</g>
			<g id="shape1095-183" v:mID="1095" v:groupContext="shape" transform="translate(28.7611,-49.9924)">
				<title>Sheet.1095</title>
				<rect x="0" y="506.871" width="1.55319" height="1.33802" class="st3"/>
			</g>
			<g id="shape1096-185" v:mID="1096" v:groupContext="shape" transform="translate(31.8675,-49.9924)">
				<title>Sheet.1096</title>
				<rect x="0" y="506.871" width="1.55707" height="1.33802" class="st3"/>
			</g>
			<g id="shape1097-187" v:mID="1097" v:groupContext="shape" transform="translate(34.9777,-49.9924)">
				<title>Sheet.1097</title>
				<rect x="0" y="506.871" width="1.55319" height="1.33802" class="st3"/>
			</g>
			<g id="shape1098-189" v:mID="1098" v:groupContext="shape" transform="translate(36.5309,-49.9924)">
				<title>Sheet.1098</title>
				<rect x="0" y="506.871" width="1.55319" height="1.33802" class="st3"/>
			</g>
			<g id="shape1099-191" v:mID="1099" v:groupContext="shape" transform="translate(39.6412,-49.9924)">
				<title>Sheet.1099</title>
				<rect x="0" y="506.871" width="1.55319" height="1.33802" class="st3"/>
			</g>
			<g id="shape1100-193" v:mID="1100" v:groupContext="shape" transform="translate(41.1944,-49.9924)">
				<title>Sheet.1100</title>
				<rect x="0" y="506.871" width="1.55707" height="1.33802" class="st3"/>
			</g>
			<g id="shape1101-195" v:mID="1101" v:groupContext="shape" transform="translate(42.7514,-49.9924)">
				<title>Sheet.1101</title>
				<rect x="0" y="506.871" width="1.55319" height="1.33802" class="st3"/>
			</g>
			<g id="shape1102-197" v:mID="1102" v:groupContext="shape" transform="translate(45.8617,-49.9924)">
				<title>Sheet.1102</title>
				<rect x="0" y="506.871" width="1.55319" height="1.33802" class="st3"/>
			</g>
			<g id="shape1103-199" v:mID="1103" v:groupContext="shape" transform="translate(47.4149,-49.9924)">
				<title>Sheet.1103</title>
				<rect x="0" y="506.871" width="1.55707" height="1.33802" class="st3"/>
			</g>
			<g id="shape1104-201" v:mID="1104" v:groupContext="shape" transform="translate(50.5251,-49.9924)">
				<title>Sheet.1104</title>
				<rect x="0" y="506.871" width="1.55319" height="1.33802" class="st3"/>
			</g>
			<g id="shape1105-203" v:mID="1105" v:groupContext="shape" transform="translate(53.6315,-49.9924)">
				<title>Sheet.1105</title>
				<rect x="0" y="506.871" width="1.55319" height="1.33802" class="st3"/>
			</g>
			<g id="shape1106-205" v:mID="1106" v:groupContext="shape" transform="translate(55.1886,-49.9924)">
				<title>Sheet.1106</title>
				<rect x="0" y="506.871" width="1.55319" height="1.33802" class="st3"/>
			</g>
			<g id="shape1107-207" v:mID="1107" v:groupContext="shape" transform="translate(56.7418,-49.9924)">
				<title>Sheet.1107</title>
				<rect x="0" y="506.871" width="1.55707" height="1.33802" class="st3"/>
			</g>
			<g id="shape1108-209" v:mID="1108" v:groupContext="shape" transform="translate(58.2949,-49.9924)">
				<title>Sheet.1108</title>
				<rect x="0" y="506.871" width="1.55319" height="1.33802" class="st3"/>
			</g>
			<g id="shape1109-211" v:mID="1109" v:groupContext="shape" transform="translate(61.4052,-49.9924)">
				<title>Sheet.1109</title>
				<rect x="0" y="506.871" width="1.55707" height="1.33802" class="st3"/>
			</g>
			<g id="shape1110-213" v:mID="1110" v:groupContext="shape" transform="translate(62.9623,-49.9924)">
				<title>Sheet.1110</title>
				<rect x="0" y="506.871" width="1.55319" height="1.33802" class="st3"/>
			</g>
			<g id="shape1111-215" v:mID="1111" v:groupContext="shape" transform="translate(28.7611,-47.2766)">
				<title>Sheet.1111</title>
				<rect x="0" y="506.875" width="1.55319" height="1.33403" class="st3"/>
			</g>
			<g id="shape1112-217" v:mID="1112" v:groupContext="shape" transform="translate(31.8675,-47.2766)">
				<title>Sheet.1112</title>
				<rect x="0" y="506.875" width="1.55707" height="1.33403" class="st3"/>
			</g>
			<g id="shape1113-219" v:mID="1113" v:groupContext="shape" transform="translate(34.9777,-47.2766)">
				<title>Sheet.1113</title>
				<rect x="0" y="506.875" width="1.55319" height="1.33403" class="st3"/>
			</g>
			<g id="shape1114-221" v:mID="1114" v:groupContext="shape" transform="translate(36.5309,-47.2766)">
				<title>Sheet.1114</title>
				<rect x="0" y="506.875" width="1.55319" height="1.33403" class="st3"/>
			</g>
			<g id="shape1115-223" v:mID="1115" v:groupContext="shape" transform="translate(39.6412,-47.2766)">
				<title>Sheet.1115</title>
				<rect x="0" y="506.875" width="1.55319" height="1.33403" class="st3"/>
			</g>
			<g id="shape1116-225" v:mID="1116" v:groupContext="shape" transform="translate(45.8617,-47.2766)">
				<title>Sheet.1116</title>
				<rect x="0" y="506.875" width="1.55319" height="1.33403" class="st3"/>
			</g>
			<g id="shape1117-227" v:mID="1117" v:groupContext="shape" transform="translate(47.4149,-47.2766)">
				<title>Sheet.1117</title>
				<rect x="0" y="506.875" width="1.55707" height="1.33403" class="st3"/>
			</g>
			<g id="shape1118-229" v:mID="1118" v:groupContext="shape" transform="translate(50.5251,-47.2766)">
				<title>Sheet.1118</title>
				<rect x="0" y="506.875" width="1.55319" height="1.33403" class="st3"/>
			</g>
			<g id="shape1119-231" v:mID="1119" v:groupContext="shape" transform="translate(53.6315,-47.2766)">
				<title>Sheet.1119</title>
				<rect x="0" y="506.875" width="1.55319" height="1.33403" class="st3"/>
			</g>
			<g id="shape1120-233" v:mID="1120" v:groupContext="shape" transform="translate(55.1886,-47.2766)">
				<title>Sheet.1120</title>
				<rect x="0" y="506.875" width="1.55319" height="1.33403" class="st3"/>
			</g>
			<g id="shape1121-235" v:mID="1121" v:groupContext="shape" transform="translate(58.2949,-47.2766)">
				<title>Sheet.1121</title>
				<rect x="0" y="506.875" width="1.55319" height="1.33403" class="st3"/>
			</g>
			<g id="shape1122-237" v:mID="1122" v:groupContext="shape" transform="translate(59.852,-47.2766)">
				<title>Sheet.1122</title>
				<rect x="0" y="506.875" width="1.55319" height="1.33403" class="st3"/>
			</g>
			<g id="shape1123-239" v:mID="1123" v:groupContext="shape" transform="translate(62.9623,-47.2766)">
				<title>Sheet.1123</title>
				<rect x="0" y="506.875" width="1.55319" height="1.33403" class="st3"/>
			</g>
		</g>
		<g id="group1124-241" transform="translate(216.672,-217.304)" v:mID="1124" v:groupContext="group">
			<title>Sheet.1124</title>
			<g id="shape1125-242" v:mID="1125" v:groupContext="shape">
				<title>Sheet.1125</title>
				<path d="M46.79 412.24 C20.94 412.24 0 433.71 0 460.22 C0 486.74 20.94 508.21 46.79 508.21 C72.64 508.21 93.58 486.74
							 93.58 460.22 C93.54 433.75 72.6 412.28 46.79 412.24 ZM46.79 505.41 C22.46 505.41 2.73 485.18 2.73 460.22
							 C2.73 435.27 22.46 415.04 46.79 415.04 C71.12 415.04 90.85 435.27 90.85 460.22 C90.81 485.18 71.12 505.37
							 46.79 505.41 Z" class="st1"/>
			</g>
			<g id="group1126-244" transform="translate(17.8191,-23.153)" v:mID="1126" v:groupContext="group">
				<title>Sheet.1126</title>
				<g id="shape1127-245" v:mID="1127" v:groupContext="shape">
					<title>Sheet.1127</title>
					<path d="M54.74 508.21 L2.53 508.21 C1.13 508.21 0 507.05 0 505.61 L0 460.54 C0 459.1 1.13 457.94 2.53 457.94
								 L54.74 457.94 C56.15 457.94 57.28 459.1 57.28 460.54 L57.28 505.61 C57.28 507.05 56.15 508.21 54.74
								 508.21 ZM2.53 460.3 C2.42 460.3 2.34 460.38 2.34 460.5 L2.34 505.57 C2.34 505.69 2.42 505.77 2.53
								 505.77 L54.74 505.77 C54.86 505.77 54.94 505.69 54.94 505.57 L54.94 460.54 C54.94 460.42 54.86 460.34
								 54.74 460.34 L2.53 460.34 L2.53 460.3 Z" class="st1"/>
				</g>
				<g id="shape1128-247" v:mID="1128" v:groupContext="shape" transform="translate(0,-39.428)">
					<title>Sheet.1128</title>
					<path d="M56.11 508.21 L1.17 508.21 C0.51 508.21 0 507.69 0 507.01 C0 506.33 0.51 505.81 1.17 505.81 L56.11 505.81
								 C56.77 505.81 57.28 506.33 57.28 507.01 C57.28 507.69 56.77 508.21 56.11 508.21 Z" class="st1"/>
				</g>
				<g id="group1129-249" transform="translate(5.17779,-43.5746)" v:mID="1129" v:groupContext="group">
					<title>Sheet.1129</title>
					<g id="shape1130-250" v:mID="1130" v:groupContext="shape">
						<title>Sheet.1130</title>
						<path d="M1.25 508.21 C0.56 508.21 0 507.63 0 506.93 C0 506.23 0.56 505.65 1.25 505.65 C1.93 505.65 2.5 506.23
									 2.5 506.93 C2.5 507.63 1.94 508.21 1.25 508.21 ZM1.25 506.45 C0.98 506.45 0.78 506.67 0.78 506.93
									 C0.78 507.19 0.98 507.41 1.25 507.41 C1.51 507.41 1.72 507.19 1.72 506.93 C1.72 506.66 1.51
									 506.45 1.25 506.45 Z" class="st4"/>
					</g>
					<g id="shape1131-252" v:mID="1131" v:groupContext="shape" transform="translate(3.66531,0)">
						<title>Sheet.1131</title>
						<path d="M1.25 508.21 C0.56 508.21 0 507.63 0 506.93 C0 506.23 0.56 505.65 1.25 505.65 C1.93 505.65 2.5 506.23
									 2.5 506.93 C2.5 507.63 1.93 508.21 1.25 508.21 ZM1.25 506.45 C0.98 506.45 0.78 506.67 0.78 506.93
									 C0.78 507.19 0.98 507.41 1.25 507.41 C1.51 507.41 1.72 507.19 1.72 506.93 C1.72 506.66 1.5 506.45
									 1.25 506.45 Z" class="st4"/>
					</g>
					<g id="shape1132-254" v:mID="1132" v:groupContext="shape" transform="translate(7.32123,0)">
						<title>Sheet.1132</title>
						<path d="M1.25 508.21 C0.56 508.21 0 507.63 0 506.93 C0 506.23 0.56 505.65 1.25 505.65 C1.93 505.65 2.5 506.23
									 2.5 506.93 C2.5 507.63 1.94 508.21 1.25 508.21 ZM1.25 506.45 C0.98 506.45 0.78 506.67 0.78 506.93
									 C0.78 507.19 0.98 507.41 1.25 507.41 C1.51 507.41 1.72 507.19 1.72 506.93 C1.72 506.66 1.51
									 506.45 1.25 506.45 Z" class="st4"/>
					</g>
				</g>
			</g>
		</g>
		<g id="group1133-256" transform="translate(31.0207,-313.399)" v:mID="1133" v:groupContext="group">
			<title>Sheet.1133</title>
			<g id="shape1134-257" v:mID="1134" v:groupContext="shape" transform="translate(0.0465956,0)">
				<title>White</title>
				<path d="M46.6 412.64 C20.89 412.64 0 434.06 0 460.42 C0 486.79 20.89 508.21 46.6 508.21 C72.3 508.21 93.19 486.79
							 93.19 460.42 C93.19 434.06 72.3 412.64 46.6 412.64 ZM46.6 505.42 C22.4 505.42 2.72 485.23 2.72 460.42
							 C2.72 435.61 22.4 415.42 46.6 415.42 C70.79 415.42 90.47 435.61 90.47 460.42 C90.47 485.23 70.79 505.42
							 46.6 505.42 Z" class="st2"/>
			</g>
			<g id="shape1135-259" v:mID="1135" v:groupContext="shape">
				<title>Blue</title>
				<path d="M46.6 412.64 C20.89 412.64 0 434.06 0 460.42 C0 486.79 20.89 508.21 46.6 508.21 C72.3 508.21 93.19 486.79
							 93.19 460.42 C93.19 434.06 72.3 412.64 46.6 412.64 ZM46.6 505.42 C22.4 505.42 2.72 485.23 2.72 460.42
							 C2.72 435.61 22.4 415.42 46.6 415.42 C70.79 415.42 90.47 435.61 90.47 460.42 C90.47 485.23 70.79 505.42
							 46.6 505.42 Z" class="st3"/>
			</g>
			<g id="shape1136-261" v:mID="1136" v:groupContext="shape" transform="translate(41.6914,-39.583)">
				<title>Sheet.1136</title>
				<path d="M1.99 500.25 L8.03 500.25 L8.03 506.24 L1.99 506.24 L1.99 500.25 ZM0 508.21 L10.02 508.21 L10.02 498.27
							 L0 498.27 L0 508.21 Z" class="st3"/>
			</g>
			<g id="group1137-263" transform="translate(20.1099,-24.8568)" v:mID="1137" v:groupContext="group">
				<title>Sheet.1137</title>
				<g id="shape1138-264" v:mID="1138" v:groupContext="shape" transform="translate(46.6965,-16.8885)">
					<title>Sheet.1138</title>
					<path d="M2.83 506.23 C2.38 506.23 1.99 505.85 1.99 505.41 C1.99 504.96 2.38 504.58 2.83 504.58 C3.28 504.58
								 3.66 504.96 3.66 505.41 C3.66 505.85 3.27 506.23 2.83 506.23 ZM2.83 502.6 C1.29 502.6 0 503.88 0
								 505.41 C0 506.93 1.29 508.21 2.83 508.21 C4.37 508.21 5.65 506.93 5.65 505.41 C5.65 503.88 4.37
								 502.6 2.83 502.6 Z" class="st3"/>
				</g>
				<g id="shape1139-266" v:mID="1139" v:groupContext="shape">
					<title>Sheet.1139</title>
					<path d="M43.68 470.55 C44.13 470.55 44.51 470.94 44.51 471.38 C44.51 471.83 44.13 472.21 43.68 472.21 C43.23
								 472.21 42.84 471.83 42.84 471.38 C42.84 470.94 43.16 470.55 43.68 470.55 ZM37.25 497.82 C37.25 498.45
								 36.74 498.96 36.1 498.96 L15.93 498.96 L15.93 477.94 L37.25 477.94 L37.25 497.82 ZM43.68 506.1 C43.23
								 506.1 42.84 505.72 42.84 505.27 C42.84 504.82 43.23 504.44 43.68 504.44 C44.13 504.44 44.51 504.82
								 44.51 505.27 C44.45 505.78 44.13 506.1 43.68 506.1 ZM9.51 506.1 C9.06 506.1 8.67 505.72 8.67 505.27
								 C8.67 504.82 9.06 504.44 9.51 504.44 C9.96 504.44 10.34 504.82 10.34 505.27 C10.34 505.78 9.96 506.1
								 9.51 506.1 ZM2.83 497.56 C2.38 497.56 1.99 497.18 1.99 496.73 C1.99 496.29 2.38 495.9 2.83 495.9
								 C3.28 495.9 3.66 496.29 3.66 496.73 C3.66 497.18 3.28 497.56 2.83 497.56 ZM2.83 486.1 C2.38 486.1
								 1.99 485.71 1.99 485.27 C1.99 484.82 2.38 484.44 2.83 484.44 C3.28 484.44 3.66 484.82 3.66 485.27
								 C3.66 485.78 3.28 486.1 2.83 486.1 ZM18.56 463.74 C19.01 463.74 19.4 464.12 19.4 464.56 C19.4 464.82
								 19.27 465.07 19.08 465.2 C18.95 465.14 18.75 465.07 18.63 465.07 C18.43 465.07 18.31 465.14 18.18
								 465.2 C17.98 465.07 17.85 464.82 17.85 464.56 C17.73 464.12 18.11 463.74 18.56 463.74 ZM36.67 472.4
								 L41.04 472.4 C41.43 473.48 42.46 474.19 43.68 474.19 C45.22 474.19 46.5 472.91 46.5 471.38 C46.5
								 469.85 45.22 468.58 43.68 468.58 C42.46 468.58 41.43 469.34 41.04 470.36 L36.67 470.36 C36.35 469.92
								 35.84 469.6 35.2 469.6 C34.24 469.6 33.4 470.36 33.4 471.38 C33.4 472.02 33.72 472.53 34.17 472.85
								 L34.17 475.97 L27.88 475.97 L27.88 472.85 C28.33 472.53 28.65 472.02 28.65 471.38 C28.65 470.43
								 27.88 469.6 26.85 469.6 C25.82 469.6 25.05 470.43 25.05 471.38 C25.05 472.02 25.38 472.53 25.82
								 472.85 L25.82 475.97 L19.53 475.97 L19.53 472.85 C19.98 472.53 20.3 472.02 20.3 471.38 C20.3 470.74
								 19.98 470.24 19.53 469.92 L19.53 467.11 C20.62 466.73 21.33 465.71 21.33 464.5 C21.33 462.97 20.04
								 461.7 18.5 461.7 C16.96 461.7 15.67 462.97 15.67 464.5 C15.67 465.71 16.44 466.73 17.47 467.11 L17.47
								 469.92 C17.02 470.24 16.7 470.74 16.7 471.38 C16.7 472.02 17.02 472.53 17.47 472.85 L17.47 475.97
								 L13.81 475.97 L13.81 479.28 L10.92 479.28 C10.59 478.84 10.08 478.52 9.44 478.52 C8.8 478.52 8.28
								 478.84 7.96 479.28 L1.86 479.28 L1.86 482.72 C0.77 483.11 0 484.12 0 485.34 C0 486.86 1.29 488.14
								 2.83 488.14 C4.37 488.14 5.65 486.86 5.65 485.34 C5.65 484.12 4.88 483.11 3.86 482.72 L3.86 481.32
								 L8.03 481.32 C8.35 481.77 8.86 482.09 9.51 482.09 C10.15 482.09 10.66 481.77 10.98 481.32 L13.87
								 481.32 L13.87 487.57 L10.98 487.57 C10.66 487.12 10.15 486.8 9.51 486.8 C8.54 486.8 7.71 487.57
								 7.71 488.58 C7.71 489.6 8.48 490.37 9.51 490.37 C10.15 490.37 10.66 490.05 10.98 489.6 L13.87 489.6
								 L13.87 495.85 L10.98 495.85 C10.66 495.4 10.15 495.08 9.51 495.08 C8.86 495.08 8.35 495.4 8.03 495.85
								 L5.46 495.85 C5.08 494.77 4.05 494.06 2.83 494.06 C1.29 494 0 495.21 0 496.8 C0 498.4 1.29 499.61
								 2.83 499.61 C4.05 499.61 5.08 498.84 5.46 497.82 L8.03 497.82 C8.35 498.27 8.86 498.59 9.51 498.59
								 C10.15 498.59 10.66 498.27 10.98 497.82 L13.87 497.82 L13.87 501.01 L17.53 501.01 L17.53 504.13
								 C17.4 504.2 17.34 504.26 17.28 504.39 L12.14 504.39 C11.76 503.3 10.73 502.6 9.51 502.6 C7.97 502.6
								 6.68 503.88 6.68 505.41 C6.68 506.93 7.97 508.21 9.51 508.21 C10.73 508.21 11.76 507.44 12.14 506.43
								 L16.96 506.43 C17.22 507 17.86 507.44 18.57 507.44 C19.53 507.44 20.37 506.68 20.37 505.66 C20.37
								 505.02 20.04 504.51 19.59 504.2 L19.59 501.07 L25.89 501.07 L25.89 504.2 C25.44 504.51 25.12 505.02
								 25.12 505.66 C25.12 506.62 25.89 507.44 26.92 507.44 C27.94 507.44 28.71 506.68 28.71 505.66 C28.71
								 505.02 28.39 504.51 27.94 504.2 L27.94 501.07 L34.24 501.07 L34.24 504.2 C33.79 504.51 33.47 505.02
								 33.47 505.66 C33.47 506.62 34.24 507.44 35.27 507.44 C36.29 507.44 37.06 506.68 37.06 505.66 C37.06
								 505.02 36.74 504.51 36.29 504.2 L36.29 501.07 C38.03 501.07 39.37 499.67 39.37 497.95 L39.37 497.89
								 L42.26 497.89 C42.39 498.08 42.52 498.21 42.71 498.33 L42.71 502.79 C41.62 503.18 40.91 504.2 40.91
								 505.41 C40.91 506.93 42.2 508.21 43.74 508.21 C45.28 508.21 46.57 506.93 46.57 505.41 C46.57 504.2
								 45.8 503.18 44.77 502.79 L44.77 498.33 C45.22 498.01 45.54 497.51 45.54 496.87 C45.54 495.91 44.77
								 495.08 43.74 495.08 C43.1 495.08 42.58 495.4 42.27 495.85 L39.38 495.85 L39.38 489.6 L42.27 489.6
								 C42.59 490.05 43.1 490.37 43.74 490.37 C44.7 490.37 45.54 489.6 45.54 488.58 C45.54 487.57 44.77
								 486.8 43.74 486.8 C43.1 486.8 42.58 487.12 42.27 487.57 L39.38 487.57 L39.38 481.32 L42.27 481.32
								 C42.59 481.77 43.1 482.09 43.74 482.09 C44.7 482.09 45.54 481.32 45.54 480.3 C45.54 479.28 44.77
								 478.52 43.74 478.52 C43.1 478.52 42.58 478.84 42.27 479.28 L39.38 479.28 L39.38 475.97 L36.29 475.97
								 L36.29 472.85 C36.36 472.72 36.55 472.59 36.67 472.4 Z" class="st3"/>
				</g>
			</g>
		</g>
		<g id="group1140-268" transform="translate(230.376,-412.488)" v:mID="1140" v:groupContext="group">
			<title>Sheet.1140</title>
			<g id="shape1141-269" v:mID="1141" v:groupContext="shape">
				<title>Sheet.1141</title>
				<path d="M33.09 415.04 A46.7897 47.9854 -180 1 0 79.88 463.02 A46.8404 48.0374 -180 0 0 33.09 415.04 ZM33.09 508.21
							 A44.0603 45.1863 0 1 1 77.15 463.02 A44.111 45.2382 0 0 1 33.09 508.21 Z" class="st5"/>
			</g>
			<g id="shape1142-271" v:mID="1142" v:groupContext="shape" transform="translate(7.95925,-18.5064)">
				<title>Sheet.1142</title>
				<path d="M49.06 474.23 A1.55966 1.59951 -180 0 0 49.69 471.93 C48.32 469.45 46.93 466.97 45.52 464.5 A1.59865 1.6395
							 -180 0 0 43.39 463.87 C43.2 463.97 43.03 464.08 42.85 464.18 L38.34 466.85 A19.6595 20.1619 -180 0 0
							 31.15 462.56 C30.87 462.47 30.9 462.28 30.9 462.08 L30.9 456.68 A1.63764 1.67949 -180 0 0 29.19 454.89
							 C26.47 454.89 23.75 454.89 21.04 454.89 A1.61425 1.6555 -180 0 0 19.33 456.67 C19.33 458.44 19.33 460.21
							 19.33 461.98 C19.33 462.38 19.19 462.49 18.86 462.64 A35.3379 36.241 -180 0 0 15.14 464.41 C13.97 465.09
							 12.91 465.98 11.77 466.81 C10.21 465.89 8.61 464.92 6.99 463.97 A1.62594 1.66749 -180 0 0 4.6 464.63
							 C3.28 466.99 1.95 469.35 0.62 471.71 C0 472.82 0.23 473.71 1.33 474.34 C2.72 475.17 4.11 476 5.5 476.81
							 C5.76 476.96 5.86 477.09 5.77 477.43 A15.3977 15.7912 -180 0 0 5.77 485.68 a0.425007 0.435867 0 0 1
							 -0.249545 0.595819 C4.07 487.13 2.61 487.99 1.16 488.86 A1.59865 1.6395 -180 0 0 0.53 491.25 C1.9 493.71
							 3.27 496.16 4.66 498.6 A1.48557 1.52354 -180 0 0 6.22 499.4 A2.44866 2.51124 -180 0 0 7.07 499.1 C8.67
							 498.17 10.26 497.22 11.83 496.3 a0.881206 0.903725 0 0 1 0.109176 0.0479854 A19.5542 20.0539 -180 0
							 0 19.05 500.57 C19.3 500.65 19.32 500.81 19.32 501.04 C19.32 502.85 19.32 504.66 19.32 506.47 A1.55966
							 1.59951 -180 0 0 21.01 508.21 L29.11 508.21 C30.28 508.21 30.9 507.57 30.9 506.38 C30.9 504.6 30.9 502.82
							 30.9 501.04 a0.389914 0.399878 0 0 1 0.315831 -0.487852 A19.5971 20.0979 -180 0 0 38.32 496.29 L38.43
							 496.33 C40.01 497.26 41.59 498.2 43.17 499.13 C44.15 499.71 45.06 499.46 45.62 498.46 C46.95 496.1 48.27
							 493.74 49.6 491.38 C50.2 490.31 49.97 489.43 48.92 488.81 C47.55 488.01 46.19 487.18 44.82 486.41 a0.619964
							 0.635807 0 0 1 -0.389914 -0.859739 C44.82 483.92 45.12 482.27 44.91 480.57 C44.77 479.41 44.57 478.24
							 44.39 477.04 C44.48 476.98 44.61 476.89 44.75 476.81 C46.2 475.93 47.63 475.09 49.06 474.23 ZM41.11
							 476.85 A16.3764 16.7949 0 0 1 41.11 486.24 C40.8 487.36 41.04 487.97 42.04 488.56 L46.1 490.96 L43.57
							 495.46 C43.41 495.37 43.27 495.3 43.14 495.22 L39.38 493 C38.51 492.49 37.79 492.62 37.1 493.35 A16.548
							 16.9708 0 0 1 29.35 498.02 C29.21 498.06 29.06 498.08 28.92 498.13 A1.61425 1.6555 -180 0 0 27.68 499.81
							 C27.68 501.31 27.68 502.81 27.68 504.31 L27.68 504.83 L22.61 504.83 L22.61 499.98 C22.61 498.93 22.19
							 498.38 21.2 498.1 A16.7663 17.1948 0 0 1 13.01 493.23 A1.62594 1.66749 -180 0 0 10.93 492.96 C9.65 493.71
							 8.38 494.47 7.1 495.23 L6.69 495.45 L4.16 490.97 C4.31 490.87 4.44 490.79 4.57 490.71 L8.24 488.53 C9.22
							 487.94 9.46 487.35 9.15 486.24 A16.4076 16.8269 0 0 1 9.15 476.85 C9.46 475.74 9.23 475.14 8.25 474.56
							 C7.03 473.84 5.8 473.12 4.57 472.39 C4.45 472.32 4.33 472.24 4.16 472.13 C5.02 470.61 5.85 469.14 6.7
							 467.63 C8.08 468.43 9.43 469.26 10.81 470.06 A2.90096 2.9751 -180 0 0 11.53 470.36 A1.46998 1.50754
							 -180 0 0 13.01 469.9 A16.7429 17.1708 0 0 1 21.2 465 C22.15 464.75 22.58 464.16 22.58 463.15 L22.58
							 458.24 L27.64 458.24 L27.64 463.04 C27.64 464.2 28.03 464.73 29.15 465.01 A16.7312 17.1588 0 0 1 36.13
							 468.79 A12.3252 12.6402 0 0 1 37.1 469.75 A1.64934 1.69149 -180 0 0 39.35 470.1 C40.73 469.3 42.1 468.47
							 43.53 467.62 L46.06 472.12 C45.92 472.21 45.79 472.3 45.67 472.38 C44.45 473.1 43.22 473.82 42 474.55
							 C41.03 475.13 40.79 475.74 41.11 476.85 Z" class="st5"/>
			</g>
			<g id="shape1143-273" v:mID="1143" v:groupContext="shape" transform="translate(37.0528,-39.2927)">
				<title>Sheet.1143</title>
				<path d="M2.71 496.9 A1.6187 1.66006 -180 1 0 0.52 499.35 C1.48 500.34 2.45 501.3 3.48 502.33 C2.97 502.84 2.49 503.3
							 2.03 503.77 C1.46 504.36 0.86 504.91 0.36 505.55 A1.55966 1.59951 -180 0 0 0.56 507.8 A1.61425 1.6555
							 -180 0 0 2.72 507.77 C4.13 506.36 5.52 504.93 6.89 503.48 A1.51677 1.55553 -180 0 0 6.89 501.18 C5.52
							 499.74 4.12 498.31 2.71 496.9 Z" class="st5"/>
			</g>
			<g id="shape1144-275" v:mID="1144" v:groupContext="shape" transform="translate(21.5322,-39.2244)">
				<title>Sheet.1144</title>
				<path d="M4.5 502.65 L4.13 502.25 C5.11 501.26 6.08 500.3 7.01 499.32 A1.62204 1.66349 -180 1 0 4.72 496.98 C3.42
							 498.3 2.13 499.62 0.85 500.95 C0 501.82 0 502.72 0.85 503.58 C2.18 504.95 3.5 506.32 4.83 507.68 A1.64544
							 1.68749 -180 0 0 7.13 507.78 A1.62204 1.66349 -180 0 0 7.13 505.34 C6.26 504.43 5.38 503.53 4.5 502.65
							 Z" class="st5"/>
			</g>
			<g id="shape1145-277" v:mID="1145" v:groupContext="shape" transform="translate(30.2039,-39.456)">
				<title>Sheet.1145</title>
				<path d="M4.14 496.8 A1.61425 1.6555 -180 0 0 2.38 498.02 C1.67 500.69 0.97 503.35 0.28 506.02 C0 507.06 0.45 507.94
							 1.39 508.21 A1.62984 1.67149 -180 0 0 3.41 506.91 C4.1 504.27 4.79 501.63 5.47 498.98 C5.52 498.81 5.54
							 498.63 5.56 498.56 A1.63764 1.67949 -180 0 0 4.14 496.8 Z" class="st5"/>
			</g>
		</g>
		<g id="shape1151-279" v:mID="1151" v:groupContext="shape" transform="translate(187.462,-388.971)">
			<title>Sheet.1151</title>
			<desc>API</desc>
			<v:textBlock v:margins="rect(4,4,4,4)" v:tabSpace="42.5197"/>
			<v:textRect cx="76" cy="498.209" width="152" height="20"/>
			<rect x="0" y="488.209" width="152" height="20" class="st6"/>
			<text x="67.92" y="501.81" class="st7" v:langID="1045"><v:paragraph v:horizAlign="1"/><v:tabList/>API</text>		</g>
		<g id="shape1152-282" v:mID="1152" v:groupContext="shape" transform="translate(187.462,-197.304)">
			<title>Sheet.1152</title>
			<desc>CLI</desc>
			<v:textBlock v:margins="rect(4,4,4,4)" v:tabSpace="42.5197"/>
			<v:textRect cx="76" cy="498.209" width="152" height="20"/>
			<rect x="0" y="488.209" width="152" height="20" class="st6"/>
			<text x="68.77" y="501.81" class="st7" v:langID="1045"><v:paragraph v:horizAlign="1"/><v:tabList/>CLI</text>		</g>
		<g id="shape1153-285" v:mID="1153" v:groupContext="shape" transform="translate(187.462,-0.375)">
			<title>Sheet.1153</title>
			<desc>WEB UI</desc>
			<v:textBlock v:margins="rect(4,4,4,4)" v:tabSpace="42.5197"/>
			<v:textRect cx="76" cy="498.209" width="152" height="20"/>
			<rect x="0" y="488.209" width="152" height="20" class="st6"/>
			<text x="57.75" y="501.81" class="st7" v:langID="1045"><v:paragraph v:horizAlign="1"/><v:tabList/>WEB UI</text>		</g>
		<g id="shape1154-288" v:mID="1154" v:groupContext="shape" transform="translate(419.903,-197.304)">
			<title>Sheet.1154</title>
			<desc>Vault</desc>
			<v:textBlock v:margins="rect(4,4,4,4)" v:tabSpace="42.5197"/>
			<v:textRect cx="76" cy="498.209" width="152" height="20"/>
			<rect x="0" y="488.209" width="152" height="20" class="st6"/>
			<text x="63.18" y="501.81" class="st7" v:langID="1045"><v:paragraph v:horizAlign="1"/><v:tabList/>Vault</text>		</g>
		<g id="shape1155-291" v:mID="1155" v:groupContext="shape" transform="translate(0.375,-98.0915)">
			<title>Sheet.1155</title>
			<desc>VCS Admins</desc>
			<v:textBlock v:margins="rect(4,4,4,4)" v:tabSpace="42.5197"/>
			<v:textRect cx="76" cy="498.209" width="152" height="20"/>
			<rect x="0" y="488.209" width="152" height="20" class="st6"/>
			<text x="45.72" y="501.81" class="st7" v:langID="1045"><v:paragraph v:horizAlign="1"/><v:tabList/>VCS Admins</text>		</g>
		<g id="shape1156-294" v:mID="1156" v:groupContext="shape" transform="translate(1.63953,-293.275)">
			<title>Sheet.1156</title>
			<desc>Application</desc>
			<v:textBlock v:margins="rect(4,4,4,4)" v:tabSpace="42.5197"/>
			<v:textRect cx="76" cy="498.209" width="152" height="20"/>
			<rect x="0" y="488.209" width="152" height="20" class="st6"/>
			<text x="48.36" y="501.81" class="st7" v:langID="1045"><v:paragraph v:horizAlign="1"/><v:tabList/>Application</text>		</g>
		<g id="shape1157-297" v:mID="1157" v:groupContext="shape" v:layerMember="0" transform="translate(119.415,-382.4)">
			<title>Dynamic connector.1157</title>
			<path d="M0 508.21 L102.96 455.89" class="st8"/>
		</g>
		<g id="shape1158-300" v:mID="1158" v:groupContext="shape" v:layerMember="0" transform="translate(119.335,-147.175)">
			<title>Dynamic connector.1158</title>
			<path d="M0 508.21 L102.81 563.03" class="st8"/>
		</g>
		<g id="shape1159-303" v:mID="1159" v:groupContext="shape" v:layerMember="0" transform="translate(119.575,-190.909)">
			<title>Dynamic connector.1159</title>
			<path d="M0 508.21 L102.09 455.43" class="st8"/>
		</g>
		<g id="shape1160-306" v:mID="1160" v:groupContext="shape" v:layerMember="0" transform="translate(119.415,-382.4)">
			<title>Dynamic connector.1160</title>
			<path d="M0 508.21 L102.96 455.89" class="st8"/>
		</g>
		<g id="shape1161-309" v:mID="1161" v:groupContext="shape" v:layerMember="0" transform="translate(302.604,-431.384)">
			<title>Dynamic connector.1161</title>
			<path d="M0 508.21 L157.59 643.34" class="st8"/>
		</g>
		<g id="shape1162-312" v:mID="1162" v:groupContext="shape" v:layerMember="0" transform="translate(310.251,-258.364)">
			<title>Dynamic connector.1162</title>
			<path d="M0 501.22 L139.08 501.03" class="st8"/>
		</g>
		<g id="shape1163-315" v:mID="1163" v:groupContext="shape" v:layerMember="0" transform="translate(299.518,-100.582)">
			<title>Dynamic connector.1163</title>
			<path d="M0 508.21 L160.38 373.45" class="st8"/>
		</g>
		<g id="shape1164-318" v:mID="1164" v:groupContext="shape" v:layerMember="0" transform="translate(119.284,-339.703)">
			<title>Dynamic connector.1164</title>
			<path d="M0 508.21 L102.37 561.04" class="st8"/>
		</g>
	</g>
</svg>
