<?xml version="1.0" encoding="UTF-8" standalone="no"?>
<!DOCTYPE svg PUBLIC "-//W3C//DTD SVG 1.1//EN" "http://www.w3.org/Graphics/SVG/1.1/DTD/svg11.dtd">
<svg width="100%" height="100%" viewBox="0 0 756 802" version="1.1" xmlns="http://www.w3.org/2000/svg" xmlns:xlink="http://www.w3.org/1999/xlink" xml:space="preserve" xmlns:serif="http://www.serif.com/" style="fill-rule:evenodd;clip-rule:evenodd;stroke-linejoin:round;stroke-miterlimit:2;">
    <g transform="matrix(0.826979,0,0,0.826979,0.737739,75.4998)">
        <g id="Layer-1" serif:id="Layer 1">
            <g>
                <g transform="matrix(0.039997,0,0,0.0399986,0,0)">
                    <path d="M18180,15172C18180,14960 18352,14788 18564,14788L22340,14788C22553,14788 22724,14960 22724,15172L22724,18508C22724,18721 22553,18892 22340,18892L18564,18892C18352,18892 18180,18721 18180,18508L18180,15172Z" style="fill:rgb(15,15,15);"/>
                </g>
                <rect x="0" y="0" width="910.332" height="758.373" style="fill:none;fill-rule:nonzero;"/>
                <clipPath id="_clip1">
                    <rect x="0" y="0" width="910.332" height="758.373" clip-rule="nonzero"/>
                </clipPath>
                <g clip-path="url(#_clip1)">
                    <g transform="matrix(0.039997,0,0,0.0399986,0,0)">
                        <path d="M18147,18508L18147,18442L18214,18442L18214,18508L18147,18508ZM18147,18375L18147,18308L18214,18308L18214,18375L18147,18375ZM18147,18242L18147,18175L18214,18175L18214,18242L18147,18242ZM18147,18108L18147,18042L18214,18042L18214,18108L18147,18108ZM18147,17975L18147,17908L18214,17908L18214,17975L18147,17975ZM18147,17842L18147,17775L18214,17775L18214,17842L18147,17842ZM18147,17708L18147,17642L18214,17642L18214,17708L18147,17708ZM18147,17575L18147,17508L18214,17508L18214,17575L18147,17575ZM18147,17442L18147,17375L18214,17375L18214,17442L18147,17442ZM18147,17308L18147,17242L18214,17242L18214,17308L18147,17308ZM18147,17175L18147,17108L18214,17108L18214,17175L18147,17175ZM18147,17042L18147,16975L18214,16975L18214,17042L18147,17042ZM18147,16908L18147,16842L18214,16842L18214,16908L18147,16908ZM18147,16775L18147,16708L18214,16708L18214,16775L18147,16775ZM18147,16642L18147,16575L18214,16575L18214,16642L18147,16642ZM18147,16508L18147,16442L18214,16442L18214,16508L18147,16508ZM18147,16375L18147,16308L18214,16308L18214,16375L18147,16375ZM18147,16242L18147,16175L18214,16175L18214,16242L18147,16242ZM18147,16108L18147,16042L18214,16042L18214,16108L18147,16108ZM18147,15975L18147,15908L18214,15908L18214,15975L18147,15975ZM18147,15842L18147,15775L18214,15775L18214,15842L18147,15842ZM18147,15708L18147,15642L18214,15642L18214,15708L18147,15708ZM18147,15575L18147,15508L18214,15508L18214,15575L18147,15575ZM18147,15442L18147,15375L18214,15375L18214,15442L18147,15442ZM18147,15308L18147,15242L18214,15242L18214,15308L18147,15308ZM18147,15175L18147,15172L18149,15132L18153,15104L18219,15114L18216,15135L18214,15172L18214,15175L18147,15175ZM18171,15033L18179,15012L18197,14975L18202,14967L18259,15001L18257,15004L18242,15034L18234,15055L18171,15033ZM18243,14909L18267,14880C18269,14878 18270,14877 18272,14875L18294,14857L18337,14908L18314,14927L18319,14922L18295,14951L18243,14909ZM18352,14814L18364,14806L18400,14789L18418,14782L18440,14845L18430,14848L18399,14864L18386,14871L18352,14814ZM18488,14763L18520,14758L18557,14755L18561,14822L18531,14823L18498,14828L18488,14763ZM18626,14755L18692,14755L18692,14822L18626,14822L18626,14755ZM18759,14755L18826,14755L18826,14822L18759,14822L18759,14755ZM18892,14755L18959,14755L18959,14822L18892,14822L18892,14755ZM19026,14755L19092,14755L19092,14822L19026,14822L19026,14755ZM19159,14755L19226,14755L19226,14822L19159,14822L19159,14755ZM19292,14755L19359,14755L19359,14822L19292,14822L19292,14755ZM19426,14755L19492,14755L19492,14822L19426,14822L19426,14755ZM19559,14755L19626,14755L19626,14822L19559,14822L19559,14755ZM19692,14755L19759,14755L19759,14822L19692,14822L19692,14755ZM19826,14755L19892,14755L19892,14822L19826,14822L19826,14755ZM19959,14755L20026,14755L20026,14822L19959,14822L19959,14755ZM20092,14755L20159,14755L20159,14822L20092,14822L20092,14755ZM20226,14755L20292,14755L20292,14822L20226,14822L20226,14755ZM20359,14755L20426,14755L20426,14822L20359,14822L20359,14755ZM20492,14755L20559,14755L20559,14822L20492,14822L20492,14755ZM20626,14755L20692,14755L20692,14822L20626,14822L20626,14755ZM20759,14755L20826,14755L20826,14822L20759,14822L20759,14755ZM20892,14755L20959,14755L20959,14822L20892,14822L20892,14755ZM21026,14755L21092,14755L21092,14822L21026,14822L21026,14755ZM21159,14755L21226,14755L21226,14822L21159,14822L21159,14755ZM21292,14755L21359,14755L21359,14822L21292,14822L21292,14755ZM21426,14755L21492,14755L21492,14822L21426,14822L21426,14755ZM21559,14755L21626,14755L21626,14822L21559,14822L21559,14755ZM21692,14755L21759,14755L21759,14822L21692,14822L21692,14755ZM21826,14755L21892,14755L21892,14822L21826,14822L21826,14755ZM21959,14755L22026,14755L22026,14822L21959,14822L21959,14755ZM22092,14755L22159,14755L22159,14822L22092,14822L22092,14755ZM22226,14755L22292,14755L22292,14822L22226,14822L22226,14755ZM22361,14756L22382,14757L22423,14764L22433,14766L22417,14831L22413,14829L22378,14824L22357,14823L22361,14756ZM22500,14787L22501,14787L22538,14805L22564,14821L22530,14878L22509,14865L22477,14849L22500,14787ZM22621,14865L22633,14875C22635,14877 22636,14878 22638,14880L22670,14919L22618,14961L22586,14922L22591,14927L22578,14916L22621,14865ZM22711,14981L22724,15008L22738,15045L22675,15068L22665,15038L22651,15010L22711,14981ZM22754,15117L22755,15128L22758,15171L22758,15188L22691,15188L22691,15174L22690,15139L22688,15127L22754,15117ZM22758,15255L22758,15322L22691,15322L22691,15255L22758,15255ZM22758,15388L22758,15455L22691,15455L22691,15388L22758,15388ZM22758,15522L22758,15588L22691,15588L22691,15522L22758,15522ZM22758,15655L22758,15722L22691,15722L22691,15655L22758,15655ZM22758,15788L22758,15855L22691,15855L22691,15788L22758,15788ZM22758,15922L22758,15988L22691,15988L22691,15922L22758,15922ZM22758,16055L22758,16122L22691,16122L22691,16055L22758,16055ZM22758,16188L22758,16255L22691,16255L22691,16188L22758,16188ZM22758,16322L22758,16388L22691,16388L22691,16322L22758,16322ZM22758,16455L22758,16522L22691,16522L22691,16455L22758,16455ZM22758,16588L22758,16655L22691,16655L22691,16588L22758,16588ZM22758,16722L22758,16788L22691,16788L22691,16722L22758,16722ZM22758,16855L22758,16922L22691,16922L22691,16855L22758,16855ZM22758,16988L22758,17055L22691,17055L22691,16988L22758,16988ZM22758,17122L22758,17188L22691,17188L22691,17122L22758,17122ZM22758,17255L22758,17322L22691,17322L22691,17255L22758,17255ZM22758,17388L22758,17455L22691,17455L22691,17388L22758,17388ZM22758,17522L22758,17588L22691,17588L22691,17522L22758,17522ZM22758,17655L22758,17722L22691,17722L22691,17655L22758,17655ZM22758,17788L22758,17855L22691,17855L22691,17788L22758,17788ZM22758,17922L22758,17988L22691,17988L22691,17922L22758,17922ZM22758,18055L22758,18122L22691,18122L22691,18055L22758,18055ZM22758,18188L22758,18255L22691,18255L22691,18188L22758,18188ZM22758,18322L22758,18388L22691,18388L22691,18322L22758,18322ZM22758,18455L22758,18508L22757,18523L22691,18520L22691,18455L22758,18455ZM22748,18595L22740,18631L22728,18663L22666,18640L22675,18615L22684,18580L22748,18595ZM22695,18728L22688,18740C22687,18742 22686,18743 22685,18745L22651,18785L22600,18742L22633,18702L22630,18706L22638,18694L22695,18728ZM22599,18834L22577,18853C22575,18854 22574,18855 22572,18856L22540,18875L22537,18876L22506,18817L22538,18798L22534,18801L22556,18783L22599,18834ZM22473,18904L22467,18907L22426,18917L22402,18921L22392,18855L22410,18852L22443,18844L22450,18842L22473,18904ZM22330,18926L22264,18926L22264,18859L22330,18859L22330,18926ZM22197,18926L22130,18926L22130,18859L22197,18859L22197,18926ZM22064,18926L21997,18926L21997,18859L22064,18859L22064,18926ZM21930,18926L21864,18926L21864,18859L21930,18859L21930,18926ZM21797,18926L21730,18926L21730,18859L21797,18859L21797,18926ZM21664,18926L21597,18926L21597,18859L21664,18859L21664,18926ZM21530,18926L21464,18926L21464,18859L21530,18859L21530,18926ZM21397,18926L21330,18926L21330,18859L21397,18859L21397,18926ZM21264,18926L21197,18926L21197,18859L21264,18859L21264,18926ZM21130,18926L21064,18926L21064,18859L21130,18859L21130,18926ZM20997,18926L20930,18926L20930,18859L20997,18859L20997,18926ZM20864,18926L20797,18926L20797,18859L20864,18859L20864,18926ZM20730,18926L20664,18926L20664,18859L20730,18859L20730,18926ZM20597,18926L20530,18926L20530,18859L20597,18859L20597,18926ZM20464,18926L20397,18926L20397,18859L20464,18859L20464,18926ZM20330,18926L20264,18926L20264,18859L20330,18859L20330,18926ZM20197,18926L20130,18926L20130,18859L20197,18859L20197,18926ZM20064,18926L19997,18926L19997,18859L20064,18859L20064,18926ZM19930,18926L19864,18926L19864,18859L19930,18859L19930,18926ZM19797,18926L19730,18926L19730,18859L19797,18859L19797,18926ZM19664,18926L19597,18926L19597,18859L19664,18859L19664,18926ZM19530,18926L19464,18926L19464,18859L19530,18859L19530,18926ZM19397,18926L19330,18926L19330,18859L19397,18859L19397,18926ZM19264,18926L19197,18926L19197,18859L19264,18859L19264,18926ZM19130,18926L19064,18926L19064,18859L19130,18859L19130,18926ZM18997,18926L18930,18926L18930,18859L18997,18859L18997,18926ZM18864,18926L18797,18926L18797,18859L18864,18859L18864,18926ZM18730,18926L18664,18926L18664,18859L18730,18859L18730,18926ZM18597,18926L18564,18926L18529,18924L18532,18857L18564,18859L18597,18859L18597,18926ZM18457,18911L18442,18908L18403,18894L18388,18886L18417,18826L18426,18831L18458,18843L18473,18847L18457,18911ZM18324,18849L18272,18806L18315,18755L18366,18797L18324,18849ZM18225,18751L18220,18745C18219,18743 18218,18742 18217,18740L18198,18708L18187,18686L18247,18657L18256,18674L18275,18706L18272,18702L18276,18708L18225,18751ZM18162,18618L18156,18594L18150,18553L18149,18546L18216,18542L18215,18543L18221,18578L18227,18601L18162,18618Z" style="fill:white;fill-rule:nonzero;stroke:white;stroke-width:1px;"/>
                    </g>
                    <g transform="matrix(0.039997,0,0,0.0399986,0,0)">
                        <path d="M2700,8601C2700,7958 3222,7436 3865,7436L15896,7436C16539,7436 17060,7958 17060,8601L17060,17760C17060,18403 16539,18924 15896,18924L3865,18924C3222,18924 2700,18403 2700,17760L2700,8601Z" style="fill:rgb(15,15,15);"/>
                    </g>
                    <g transform="matrix(0.039997,0,0,0.0399986,0,0)">
                        <path d="M2667,17760L2667,17693L2734,17693L2734,17760L2667,17760ZM2667,17627L2667,17560L2734,17560L2734,17627L2667,17627ZM2667,17493L2667,17427L2734,17427L2734,17493L2667,17493ZM2667,17360L2667,17293L2734,17293L2734,17360L2667,17360ZM2667,17227L2667,17160L2734,17160L2734,17227L2667,17227ZM2667,17093L2667,17027L2734,17027L2734,17093L2667,17093ZM2667,16960L2667,16893L2734,16893L2734,16960L2667,16960ZM2667,16827L2667,16760L2734,16760L2734,16827L2667,16827ZM2667,16693L2667,16627L2734,16627L2734,16693L2667,16693ZM2667,16560L2667,16493L2734,16493L2734,16560L2667,16560ZM2667,16427L2667,16360L2734,16360L2734,16427L2667,16427ZM2667,16293L2667,16227L2734,16227L2734,16293L2667,16293ZM2667,16160L2667,16093L2734,16093L2734,16160L2667,16160ZM2667,16027L2667,15960L2734,15960L2734,16027L2667,16027ZM2667,15893L2667,15827L2734,15827L2734,15893L2667,15893ZM2667,15760L2667,15693L2734,15693L2734,15760L2667,15760ZM2667,15627L2667,15560L2734,15560L2734,15627L2667,15627ZM2667,15493L2667,15427L2734,15427L2734,15493L2667,15493ZM2667,15360L2667,15293L2734,15293L2734,15360L2667,15360ZM2667,15227L2667,15160L2734,15160L2734,15227L2667,15227ZM2667,15093L2667,15027L2734,15027L2734,15093L2667,15093ZM2667,14960L2667,14893L2734,14893L2734,14960L2667,14960ZM2667,14827L2667,14760L2734,14760L2734,14827L2667,14827ZM2667,14693L2667,14627L2734,14627L2734,14693L2667,14693ZM2667,14560L2667,14493L2734,14493L2734,14560L2667,14560ZM2667,14427L2667,14360L2734,14360L2734,14427L2667,14427ZM2667,14293L2667,14227L2734,14227L2734,14293L2667,14293ZM2667,14160L2667,14093L2734,14093L2734,14160L2667,14160ZM2667,14027L2667,13960L2734,13960L2734,14027L2667,14027ZM2667,13893L2667,13827L2734,13827L2734,13893L2667,13893ZM2667,13760L2667,13693L2734,13693L2734,13760L2667,13760ZM2667,13627L2667,13560L2734,13560L2734,13627L2667,13627ZM2667,13493L2667,13427L2734,13427L2734,13493L2667,13493ZM2667,13360L2667,13293L2734,13293L2734,13360L2667,13360ZM2667,13227L2667,13160L2734,13160L2734,13227L2667,13227ZM2667,13093L2667,13027L2734,13027L2734,13093L2667,13093ZM2667,12960L2667,12893L2734,12893L2734,12960L2667,12960ZM2667,12827L2667,12760L2734,12760L2734,12827L2667,12827ZM2667,12693L2667,12627L2734,12627L2734,12693L2667,12693ZM2667,12560L2667,12493L2734,12493L2734,12560L2667,12560ZM2667,12427L2667,12360L2734,12360L2734,12427L2667,12427ZM2667,12293L2667,12227L2734,12227L2734,12293L2667,12293ZM2667,12160L2667,12093L2734,12093L2734,12160L2667,12160ZM2667,12027L2667,11960L2734,11960L2734,12027L2667,12027ZM2667,11893L2667,11827L2734,11827L2734,11893L2667,11893ZM2667,11760L2667,11693L2734,11693L2734,11760L2667,11760ZM2667,11627L2667,11560L2734,11560L2734,11627L2667,11627ZM2667,11493L2667,11427L2734,11427L2734,11493L2667,11493ZM2667,11360L2667,11293L2734,11293L2734,11360L2667,11360ZM2667,11227L2667,11160L2734,11160L2734,11227L2667,11227ZM2667,11093L2667,11027L2734,11027L2734,11093L2667,11093ZM2667,10960L2667,10893L2734,10893L2734,10960L2667,10960ZM2667,10827L2667,10760L2734,10760L2734,10827L2667,10827ZM2667,10693L2667,10627L2734,10627L2734,10693L2667,10693ZM2667,10560L2667,10493L2734,10493L2734,10560L2667,10560ZM2667,10427L2667,10360L2734,10360L2734,10427L2667,10427ZM2667,10293L2667,10227L2734,10227L2734,10293L2667,10293ZM2667,10160L2667,10093L2734,10093L2734,10160L2667,10160ZM2667,10027L2667,9960L2734,9960L2734,10027L2667,10027ZM2667,9893L2667,9827L2734,9827L2734,9893L2667,9893ZM2667,9760L2667,9693L2734,9693L2734,9760L2667,9760ZM2667,9627L2667,9560L2734,9560L2734,9627L2667,9627ZM2667,9493L2667,9427L2734,9427L2734,9493L2667,9493ZM2667,9360L2667,9293L2734,9293L2734,9360L2667,9360ZM2667,9227L2667,9160L2734,9160L2734,9227L2667,9227ZM2667,9093L2667,9027L2734,9027L2734,9093L2667,9093ZM2667,8960L2667,8893L2734,8893L2734,8960L2667,8960ZM2667,8827L2667,8760L2734,8760L2734,8827L2667,8827ZM2667,8693L2667,8627L2734,8627L2734,8693L2667,8693ZM2668,8559L2669,8541L2672,8491L2739,8496L2735,8542L2735,8561L2668,8559ZM2682,8422L2691,8361L2693,8353L2757,8370L2757,8371L2748,8432L2682,8422ZM2710,8289L2721,8247L2730,8222L2792,8245L2785,8263L2774,8305L2710,8289ZM2752,8159L2761,8137L2780,8095L2840,8124L2823,8159L2815,8182L2752,8159ZM2809,8035L2811,8032L2845,7975L2902,8010L2871,8060L2869,8064L2809,8035ZM2883,7916L2923,7863L2976,7903L2936,7956L2883,7916ZM2968,7810L3012,7760L3062,7805L3017,7854L2968,7810ZM3064,7713L3102,7678L3116,7667L3156,7720L3147,7727L3108,7762L3064,7713ZM3170,7627L3194,7609L3228,7588L3262,7645L3234,7662L3210,7680L3170,7627ZM3285,7553L3347,7522L3376,7582L3327,7605L3319,7610L3285,7553ZM3411,7493L3473,7470L3496,7533L3433,7556L3411,7493ZM3540,7449L3604,7432L3621,7497L3557,7514L3540,7449ZM3673,7420L3739,7410L3749,7476L3683,7486L3673,7420ZM3810,7405L3865,7403L3877,7403L3877,7470L3866,7470L3811,7471L3810,7405ZM3944,7403L4011,7403L4011,7470L3944,7470L3944,7403ZM4077,7403L4144,7403L4144,7470L4077,7470L4077,7403ZM4211,7403L4277,7403L4277,7470L4211,7470L4211,7403ZM4344,7403L4411,7403L4411,7470L4344,7470L4344,7403ZM4477,7403L4544,7403L4544,7470L4477,7470L4477,7403ZM4611,7403L4677,7403L4677,7470L4611,7470L4611,7403ZM4744,7403L4811,7403L4811,7470L4744,7470L4744,7403ZM4877,7403L4944,7403L4944,7470L4877,7470L4877,7403ZM5011,7403L5077,7403L5077,7470L5011,7470L5011,7403ZM5144,7403L5211,7403L5211,7470L5144,7470L5144,7403ZM5277,7403L5344,7403L5344,7470L5277,7470L5277,7403ZM5411,7403L5477,7403L5477,7470L5411,7470L5411,7403ZM5544,7403L5611,7403L5611,7470L5544,7470L5544,7403ZM5677,7403L5744,7403L5744,7470L5677,7470L5677,7403ZM5811,7403L5877,7403L5877,7470L5811,7470L5811,7403ZM5944,7403L6011,7403L6011,7470L5944,7470L5944,7403ZM6077,7403L6144,7403L6144,7470L6077,7470L6077,7403ZM6211,7403L6277,7403L6277,7470L6211,7470L6211,7403ZM6344,7403L6411,7403L6411,7470L6344,7470L6344,7403ZM6477,7403L6544,7403L6544,7470L6477,7470L6477,7403ZM6611,7403L6677,7403L6677,7470L6611,7470L6611,7403ZM6744,7403L6811,7403L6811,7470L6744,7470L6744,7403ZM6877,7403L6944,7403L6944,7470L6877,7470L6877,7403ZM7011,7403L7077,7403L7077,7470L7011,7470L7011,7403ZM7144,7403L7211,7403L7211,7470L7144,7470L7144,7403ZM7277,7403L7344,7403L7344,7470L7277,7470L7277,7403ZM7411,7403L7477,7403L7477,7470L7411,7470L7411,7403ZM7544,7403L7611,7403L7611,7470L7544,7470L7544,7403ZM7677,7403L7744,7403L7744,7470L7677,7470L7677,7403ZM7811,7403L7877,7403L7877,7470L7811,7470L7811,7403ZM7944,7403L8011,7403L8011,7470L7944,7470L7944,7403ZM8077,7403L8144,7403L8144,7470L8077,7470L8077,7403ZM8211,7403L8277,7403L8277,7470L8211,7470L8211,7403ZM8344,7403L8411,7403L8411,7470L8344,7470L8344,7403ZM8477,7403L8544,7403L8544,7470L8477,7470L8477,7403ZM8611,7403L8677,7403L8677,7470L8611,7470L8611,7403ZM8744,7403L8811,7403L8811,7470L8744,7470L8744,7403ZM8877,7403L8944,7403L8944,7470L8877,7470L8877,7403ZM9011,7403L9077,7403L9077,7470L9011,7470L9011,7403ZM9144,7403L9211,7403L9211,7470L9144,7470L9144,7403ZM9277,7403L9344,7403L9344,7470L9277,7470L9277,7403ZM9411,7403L9477,7403L9477,7470L9411,7470L9411,7403ZM9544,7403L9611,7403L9611,7470L9544,7470L9544,7403ZM9677,7403L9744,7403L9744,7470L9677,7470L9677,7403ZM9811,7403L9877,7403L9877,7470L9811,7470L9811,7403ZM9944,7403L10011,7403L10011,7470L9944,7470L9944,7403ZM10077,7403L10144,7403L10144,7470L10077,7470L10077,7403ZM10211,7403L10277,7403L10277,7470L10211,7470L10211,7403ZM10344,7403L10411,7403L10411,7470L10344,7470L10344,7403ZM10477,7403L10544,7403L10544,7470L10477,7470L10477,7403ZM10611,7403L10677,7403L10677,7470L10611,7470L10611,7403ZM10744,7403L10811,7403L10811,7470L10744,7470L10744,7403ZM10877,7403L10944,7403L10944,7470L10877,7470L10877,7403ZM11011,7403L11077,7403L11077,7470L11011,7470L11011,7403ZM11144,7403L11211,7403L11211,7470L11144,7470L11144,7403ZM11277,7403L11344,7403L11344,7470L11277,7470L11277,7403ZM11411,7403L11477,7403L11477,7470L11411,7470L11411,7403ZM11544,7403L11611,7403L11611,7470L11544,7470L11544,7403ZM11677,7403L11744,7403L11744,7470L11677,7470L11677,7403ZM11811,7403L11877,7403L11877,7470L11811,7470L11811,7403ZM11944,7403L12011,7403L12011,7470L11944,7470L11944,7403ZM12077,7403L12144,7403L12144,7470L12077,7470L12077,7403ZM12211,7403L12277,7403L12277,7470L12211,7470L12211,7403ZM12344,7403L12411,7403L12411,7470L12344,7470L12344,7403ZM12477,7403L12544,7403L12544,7470L12477,7470L12477,7403ZM12611,7403L12677,7403L12677,7470L12611,7470L12611,7403ZM12744,7403L12811,7403L12811,7470L12744,7470L12744,7403ZM12877,7403L12944,7403L12944,7470L12877,7470L12877,7403ZM13011,7403L13077,7403L13077,7470L13011,7470L13011,7403ZM13144,7403L13211,7403L13211,7470L13144,7470L13144,7403ZM13277,7403L13344,7403L13344,7470L13277,7470L13277,7403ZM13411,7403L13477,7403L13477,7470L13411,7470L13411,7403ZM13544,7403L13611,7403L13611,7470L13544,7470L13544,7403ZM13677,7403L13744,7403L13744,7470L13677,7470L13677,7403ZM13811,7403L13877,7403L13877,7470L13811,7470L13811,7403ZM13944,7403L14011,7403L14011,7470L13944,7470L13944,7403ZM14077,7403L14144,7403L14144,7470L14077,7470L14077,7403ZM14211,7403L14277,7403L14277,7470L14211,7470L14211,7403ZM14344,7403L14411,7403L14411,7470L14344,7470L14344,7403ZM14477,7403L14544,7403L14544,7470L14477,7470L14477,7403ZM14611,7403L14677,7403L14677,7470L14611,7470L14611,7403ZM14744,7403L14811,7403L14811,7470L14744,7470L14744,7403ZM14877,7403L14944,7403L14944,7470L14877,7470L14877,7403ZM15011,7403L15077,7403L15077,7470L15011,7470L15011,7403ZM15144,7403L15211,7403L15211,7470L15144,7470L15144,7403ZM15277,7403L15344,7403L15344,7470L15277,7470L15277,7403ZM15411,7403L15477,7403L15477,7470L15411,7470L15411,7403ZM15544,7403L15611,7403L15611,7470L15544,7470L15544,7403ZM15677,7403L15744,7403L15744,7470L15677,7470L15677,7403ZM15811,7403L15877,7403L15877,7470L15811,7470L15811,7403ZM15945,7404L15957,7405L16013,7409L16008,7475L15955,7471L15943,7471L15945,7404ZM16081,7419L16135,7427L16150,7431L16134,7495L16125,7493L16071,7485L16081,7419ZM16215,7448L16250,7457L16282,7468L16259,7531L16234,7521L16198,7512L16215,7448ZM16344,7491L16360,7497L16408,7519L16379,7579L16338,7559L16321,7553L16344,7491ZM16471,7550L16528,7585L16493,7642L16436,7607L16471,7550ZM16586,7623L16639,7663L16600,7716L16546,7677L16586,7623ZM16693,7708L16742,7753L16744,7755L16697,7802L16648,7758L16693,7708ZM16789,7805L16819,7838L16834,7858L16781,7898L16770,7883L16740,7850L16789,7805ZM16874,7911L16888,7930L16912,7970L16856,8004L16835,7970L16821,7951L16874,7911ZM16947,8027L16978,8089L16918,8118L16891,8063L16890,8061L16947,8027ZM17006,8153L17029,8216L16967,8239L16944,8176L17006,8153ZM17050,8283L17066,8347L17002,8364L16985,8299L17050,8283ZM17078,8416L17087,8477L17088,8485L17022,8490L17022,8487L17012,8426L17078,8416ZM17093,8553L17094,8601L17094,8620L17027,8620L17027,8602L17026,8554L17093,8553ZM17094,8687L17094,8754L17027,8754L17027,8687L17094,8687ZM17094,8820L17094,8887L17027,8887L17027,8820L17094,8820ZM17094,8954L17094,9020L17027,9020L17027,8954L17094,8954ZM17094,9087L17094,9154L17027,9154L17027,9087L17094,9087ZM17094,9220L17094,9287L17027,9287L17027,9220L17094,9220ZM17094,9354L17094,9420L17027,9420L17027,9354L17094,9354ZM17094,9487L17094,9554L17027,9554L17027,9487L17094,9487ZM17094,9620L17094,9687L17027,9687L17027,9620L17094,9620ZM17094,9754L17094,9820L17027,9820L17027,9754L17094,9754ZM17094,9887L17094,9954L17027,9954L17027,9887L17094,9887ZM17094,10020L17094,10087L17027,10087L17027,10020L17094,10020ZM17094,10154L17094,10220L17027,10220L17027,10154L17094,10154ZM17094,10287L17094,10354L17027,10354L17027,10287L17094,10287ZM17094,10420L17094,10487L17027,10487L17027,10420L17094,10420ZM17094,10554L17094,10620L17027,10620L17027,10554L17094,10554ZM17094,10687L17094,10754L17027,10754L17027,10687L17094,10687ZM17094,10820L17094,10887L17027,10887L17027,10820L17094,10820ZM17094,10954L17094,11020L17027,11020L17027,10954L17094,10954ZM17094,11087L17094,11154L17027,11154L17027,11087L17094,11087ZM17094,11220L17094,11287L17027,11287L17027,11220L17094,11220ZM17094,11354L17094,11420L17027,11420L17027,11354L17094,11354ZM17094,11487L17094,11554L17027,11554L17027,11487L17094,11487ZM17094,11620L17094,11687L17027,11687L17027,11620L17094,11620ZM17094,11754L17094,11820L17027,11820L17027,11754L17094,11754ZM17094,11887L17094,11954L17027,11954L17027,11887L17094,11887ZM17094,12020L17094,12087L17027,12087L17027,12020L17094,12020ZM17094,12154L17094,12220L17027,12220L17027,12154L17094,12154ZM17094,12287L17094,12354L17027,12354L17027,12287L17094,12287ZM17094,12420L17094,12487L17027,12487L17027,12420L17094,12420ZM17094,12554L17094,12620L17027,12620L17027,12554L17094,12554ZM17094,12687L17094,12754L17027,12754L17027,12687L17094,12687ZM17094,12820L17094,12887L17027,12887L17027,12820L17094,12820ZM17094,12954L17094,13020L17027,13020L17027,12954L17094,12954ZM17094,13087L17094,13154L17027,13154L17027,13087L17094,13087ZM17094,13220L17094,13287L17027,13287L17027,13220L17094,13220ZM17094,13354L17094,13420L17027,13420L17027,13354L17094,13354ZM17094,13487L17094,13554L17027,13554L17027,13487L17094,13487ZM17094,13620L17094,13687L17027,13687L17027,13620L17094,13620ZM17094,13754L17094,13820L17027,13820L17027,13754L17094,13754ZM17094,13887L17094,13954L17027,13954L17027,13887L17094,13887ZM17094,14020L17094,14087L17027,14087L17027,14020L17094,14020ZM17094,14154L17094,14220L17027,14220L17027,14154L17094,14154ZM17094,14287L17094,14354L17027,14354L17027,14287L17094,14287ZM17094,14420L17094,14487L17027,14487L17027,14420L17094,14420ZM17094,14554L17094,14620L17027,14620L17027,14554L17094,14554ZM17094,14687L17094,14754L17027,14754L17027,14687L17094,14687ZM17094,14820L17094,14887L17027,14887L17027,14820L17094,14820ZM17094,14954L17094,15020L17027,15020L17027,14954L17094,14954ZM17094,15087L17094,15154L17027,15154L17027,15087L17094,15087ZM17094,15220L17094,15287L17027,15287L17027,15220L17094,15220ZM17094,15354L17094,15420L17027,15420L17027,15354L17094,15354ZM17094,15487L17094,15554L17027,15554L17027,15487L17094,15487ZM17094,15620L17094,15687L17027,15687L17027,15620L17094,15620ZM17094,15754L17094,15820L17027,15820L17027,15754L17094,15754ZM17094,15887L17094,15954L17027,15954L17027,15887L17094,15887ZM17094,16020L17094,16087L17027,16087L17027,16020L17094,16020ZM17094,16154L17094,16220L17027,16220L17027,16154L17094,16154ZM17094,16287L17094,16354L17027,16354L17027,16287L17094,16287ZM17094,16420L17094,16487L17027,16487L17027,16420L17094,16420ZM17094,16554L17094,16620L17027,16620L17027,16554L17094,16554ZM17094,16687L17094,16754L17027,16754L17027,16687L17094,16687ZM17094,16820L17094,16887L17027,16887L17027,16820L17094,16820ZM17094,16954L17094,17020L17027,17020L17027,16954L17094,16954ZM17094,17087L17094,17154L17027,17154L17027,17087L17094,17087ZM17094,17220L17094,17287L17027,17287L17027,17220L17094,17220ZM17094,17354L17094,17420L17027,17420L17027,17354L17094,17354ZM17094,17487L17094,17554L17027,17554L17027,17487L17094,17487ZM17094,17620L17094,17687L17027,17687L17027,17620L17094,17620ZM17094,17754L17094,17760L17092,17821L17092,17823L17026,17819L17027,17760L17027,17754L17094,17754ZM17086,17892L17076,17958L17010,17948L17020,17882L17086,17892ZM17063,18026L17046,18091L16982,18074L16999,18010L17063,18026ZM17025,18157L17002,18220L16939,18197L16962,18134L17025,18157ZM16972,18283L16950,18329L16940,18345L16883,18311L16890,18301L16912,18254L16972,18283ZM16906,18402L16890,18428L16866,18460L16813,18420L16833,18394L16849,18368L16906,18402ZM16826,18513L16821,18520L16780,18566L16731,18521L16768,18480L16773,18473L16826,18513ZM16732,18617L16683,18661L16638,18612L16688,18567L16732,18617ZM16629,18706L16576,18746L16536,18692L16589,18652L16629,18706ZM16517,18783L16468,18812L16456,18818L16428,18758L16434,18755L16482,18726L16517,18783ZM16396,18847L16363,18863L16332,18875L16309,18812L16335,18803L16368,18787L16396,18847ZM16270,18897L16253,18903L16202,18917L16186,18852L16231,18841L16247,18835L16270,18897ZM16135,18934L16069,18944L16059,18878L16125,18868L16135,18934ZM16000,18953L15958,18956L15932,18957L15930,18890L15953,18890L15995,18887L16000,18953ZM15864,18958L15798,18958L15798,18891L15864,18891L15864,18958ZM15731,18958L15664,18958L15664,18891L15731,18891L15731,18958ZM15598,18958L15531,18958L15531,18891L15598,18891L15598,18958ZM15464,18958L15398,18958L15398,18891L15464,18891L15464,18958ZM15331,18958L15264,18958L15264,18891L15331,18891L15331,18958ZM15198,18958L15131,18958L15131,18891L15198,18891L15198,18958ZM15064,18958L14998,18958L14998,18891L15064,18891L15064,18958ZM14931,18958L14864,18958L14864,18891L14931,18891L14931,18958ZM14798,18958L14731,18958L14731,18891L14798,18891L14798,18958ZM14664,18958L14598,18958L14598,18891L14664,18891L14664,18958ZM14531,18958L14464,18958L14464,18891L14531,18891L14531,18958ZM14398,18958L14331,18958L14331,18891L14398,18891L14398,18958ZM14264,18958L14198,18958L14198,18891L14264,18891L14264,18958ZM14131,18958L14064,18958L14064,18891L14131,18891L14131,18958ZM13998,18958L13931,18958L13931,18891L13998,18891L13998,18958ZM13864,18958L13798,18958L13798,18891L13864,18891L13864,18958ZM13731,18958L13664,18958L13664,18891L13731,18891L13731,18958ZM13598,18958L13531,18958L13531,18891L13598,18891L13598,18958ZM13464,18958L13398,18958L13398,18891L13464,18891L13464,18958ZM13331,18958L13264,18958L13264,18891L13331,18891L13331,18958ZM13198,18958L13131,18958L13131,18891L13198,18891L13198,18958ZM13064,18958L12998,18958L12998,18891L13064,18891L13064,18958ZM12931,18958L12864,18958L12864,18891L12931,18891L12931,18958ZM12798,18958L12731,18958L12731,18891L12798,18891L12798,18958ZM12664,18958L12598,18958L12598,18891L12664,18891L12664,18958ZM12531,18958L12464,18958L12464,18891L12531,18891L12531,18958ZM12398,18958L12331,18958L12331,18891L12398,18891L12398,18958ZM12264,18958L12198,18958L12198,18891L12264,18891L12264,18958ZM12131,18958L12064,18958L12064,18891L12131,18891L12131,18958ZM11998,18958L11931,18958L11931,18891L11998,18891L11998,18958ZM11864,18958L11798,18958L11798,18891L11864,18891L11864,18958ZM11731,18958L11664,18958L11664,18891L11731,18891L11731,18958ZM11598,18958L11531,18958L11531,18891L11598,18891L11598,18958ZM11464,18958L11398,18958L11398,18891L11464,18891L11464,18958ZM11331,18958L11264,18958L11264,18891L11331,18891L11331,18958ZM11198,18958L11131,18958L11131,18891L11198,18891L11198,18958ZM11064,18958L10998,18958L10998,18891L11064,18891L11064,18958ZM10931,18958L10864,18958L10864,18891L10931,18891L10931,18958ZM10798,18958L10731,18958L10731,18891L10798,18891L10798,18958ZM10664,18958L10598,18958L10598,18891L10664,18891L10664,18958ZM10531,18958L10464,18958L10464,18891L10531,18891L10531,18958ZM10398,18958L10331,18958L10331,18891L10398,18891L10398,18958ZM10264,18958L10198,18958L10198,18891L10264,18891L10264,18958ZM10131,18958L10064,18958L10064,18891L10131,18891L10131,18958ZM9998,18958L9931,18958L9931,18891L9998,18891L9998,18958ZM9864,18958L9798,18958L9798,18891L9864,18891L9864,18958ZM9731,18958L9664,18958L9664,18891L9731,18891L9731,18958ZM9598,18958L9531,18958L9531,18891L9598,18891L9598,18958ZM9464,18958L9398,18958L9398,18891L9464,18891L9464,18958ZM9331,18958L9264,18958L9264,18891L9331,18891L9331,18958ZM9198,18958L9131,18958L9131,18891L9198,18891L9198,18958ZM9064,18958L8998,18958L8998,18891L9064,18891L9064,18958ZM8931,18958L8864,18958L8864,18891L8931,18891L8931,18958ZM8798,18958L8731,18958L8731,18891L8798,18891L8798,18958ZM8664,18958L8598,18958L8598,18891L8664,18891L8664,18958ZM8531,18958L8464,18958L8464,18891L8531,18891L8531,18958ZM8398,18958L8331,18958L8331,18891L8398,18891L8398,18958ZM8264,18958L8198,18958L8198,18891L8264,18891L8264,18958ZM8131,18958L8064,18958L8064,18891L8131,18891L8131,18958ZM7998,18958L7931,18958L7931,18891L7998,18891L7998,18958ZM7864,18958L7798,18958L7798,18891L7864,18891L7864,18958ZM7731,18958L7664,18958L7664,18891L7731,18891L7731,18958ZM7598,18958L7531,18958L7531,18891L7598,18891L7598,18958ZM7464,18958L7398,18958L7398,18891L7464,18891L7464,18958ZM7331,18958L7264,18958L7264,18891L7331,18891L7331,18958ZM7198,18958L7131,18958L7131,18891L7198,18891L7198,18958ZM7064,18958L6998,18958L6998,18891L7064,18891L7064,18958ZM6931,18958L6864,18958L6864,18891L6931,18891L6931,18958ZM6798,18958L6731,18958L6731,18891L6798,18891L6798,18958ZM6664,18958L6598,18958L6598,18891L6664,18891L6664,18958ZM6531,18958L6464,18958L6464,18891L6531,18891L6531,18958ZM6398,18958L6331,18958L6331,18891L6398,18891L6398,18958ZM6264,18958L6198,18958L6198,18891L6264,18891L6264,18958ZM6131,18958L6064,18958L6064,18891L6131,18891L6131,18958ZM5998,18958L5931,18958L5931,18891L5998,18891L5998,18958ZM5864,18958L5798,18958L5798,18891L5864,18891L5864,18958ZM5731,18958L5664,18958L5664,18891L5731,18891L5731,18958ZM5598,18958L5531,18958L5531,18891L5598,18891L5598,18958ZM5464,18958L5398,18958L5398,18891L5464,18891L5464,18958ZM5331,18958L5264,18958L5264,18891L5331,18891L5331,18958ZM5198,18958L5131,18958L5131,18891L5198,18891L5198,18958ZM5064,18958L4998,18958L4998,18891L5064,18891L5064,18958ZM4931,18958L4864,18958L4864,18891L4931,18891L4931,18958ZM4798,18958L4731,18958L4731,18891L4798,18891L4798,18958ZM4664,18958L4598,18958L4598,18891L4664,18891L4664,18958ZM4531,18958L4464,18958L4464,18891L4531,18891L4531,18958ZM4398,18958L4331,18958L4331,18891L4398,18891L4398,18958ZM4264,18958L4198,18958L4198,18891L4264,18891L4264,18958ZM4131,18958L4064,18958L4064,18891L4131,18891L4131,18958ZM3998,18958L3931,18958L3931,18891L3998,18891L3998,18958ZM3864,18958L3805,18956L3795,18956L3800,18889L3806,18890L3865,18891L3864,18958ZM3726,18949L3660,18939L3670,18873L3736,18883L3726,18949ZM3592,18925L3527,18909L3544,18844L3609,18861L3592,18925ZM3461,18886L3401,18864L3396,18862L3423,18802L3484,18824L3461,18886ZM3335,18833L3296,18814L3274,18801L3308,18744L3324,18754L3364,18773L3335,18833ZM3217,18766L3197,18754L3159,18726L3199,18673L3231,18697L3251,18709L3217,18766ZM3106,18686L3104,18685L3054,18640L3099,18590L3144,18632L3146,18633L3106,18686ZM3004,18591L2959,18542L3008,18497L3053,18547L3004,18591ZM2915,18488L2875,18434L2929,18394L2969,18448L2915,18488ZM2838,18375L2813,18332L2804,18314L2864,18285L2869,18298L2895,18340L2838,18375ZM2775,18254L2762,18227L2748,18190L2811,18167L2822,18199L2835,18225L2775,18254ZM2725,18127L2722,18117L2706,18060L2771,18043L2784,18095L2788,18104L2725,18127ZM2690,17992L2680,17926L2746,17916L2756,17982L2690,17992ZM2671,17857L2669,17822L2668,17789L2734,17787L2735,17817L2738,17852L2671,17857Z" style="fill:white;fill-rule:nonzero;stroke:white;stroke-width:1px;"/>
                    </g>
                    <g transform="matrix(0.319976,0,0,0.319989,353.25,535.143)">
                        <g transform="matrix(67,0,0,67,262.532,0)">
                        </g>
                        <text x="0px" y="0px" style="font-family:'ArialMT', 'Arial', sans-serif;font-size:67px;fill:white;">N<tspan x="52.011px 91.021px 112.01px 166.021px 206.032px 229.032px " y="0px 0px 0px 0px 0px 0px ">etwork</tspan></text>
                    </g>
                    <g transform="matrix(0.039997,0,0,0.0399986,0,0)">
                        <path d="M52,15156C52,14785 353,14484 724,14484L14124,14484C14496,14484 14796,14785 14796,15156L14796,17844C14796,18216 14496,18516 14124,18516L724,18516C353,18516 52,18216 52,17844L52,15156Z" style="fill:rgb(15,15,15);"/>
                    </g>
                    <g transform="matrix(0.039997,0,0,0.0399986,0,0)">
                        <path d="M52,15156C52,14785 353,14484 724,14484L14124,14484C14496,14484 14796,14785 14796,15156L14796,17844C14796,18216 14496,18516 14124,18516L724,18516C353,18516 52,18216 52,17844L52,15156Z" style="fill:none;stroke:rgb(3,109,188);stroke-width:67px;"/>
                    </g>
                    <g transform="matrix(0.319976,0,0,0.319989,254.766,667.934)">
                        <g transform="matrix(67,0,0,67,262.532,0)">
                        </g>
                        <text x="0px" y="0px" style="font-family:'ArialMT', 'Arial', sans-serif;font-size:67px;fill:white;">N<tspan x="52.011px 91.021px 112.01px 166.021px 206.032px 229.032px " y="0px 0px 0px 0px 0px 0px ">etwork</tspan></text>
                    </g>
                    <g transform="matrix(0.0199985,0,0,0.0199993,0,0)">
                        <rect x="9176" y="30216" width="7600" height="1632" style="fill:rgb(11,11,11);"/>
                    </g>
                    <g transform="matrix(0.319976,0,0,0.319989,222.903,627.522)">
                        <g transform="matrix(58,0,0,58,228.028,0)">
                        </g>
                        <text x="0px" y="0px" style="font-family:'ArialMT', 'Arial', sans-serif;font-size:58px;fill:white;">N<tspan x="45.01px 79.019px 98.009px 145.019px 179.027px 199.028px " y="0px 0px 0px 0px 0px 0px ">etwork</tspan></text>
                    </g>
                    <g transform="matrix(0.039997,0,0,0.0399986,0,0)">
                        <rect x="4588" y="16140" width="3800" height="816" style="fill:rgb(11,11,11);"/>
                    </g>
                    <g transform="matrix(0.319976,0,0,0.319989,226.43,668.739)">
                        <g transform="matrix(58,0,0,58,206.274,0)">
                        </g>
                        <text x="0px" y="0px" style="font-family:'ArialMT', 'Arial', sans-serif;font-size:58px;fill:white;">S<tspan x="35px 53.99px 87.999px 107.999px 139.008px 174.017px " y="0px 0px 0px 0px 0px 0px ">torage</tspan></text>
                    </g>
                    <g transform="matrix(0.039997,0,0,0.0399986,0,0)">
                        <rect x="4588" y="17140" width="3800" height="816" style="fill:rgb(11,11,11);"/>
                    </g>
                    <g transform="matrix(0.319976,0,0,0.319989,219.71,708.829)">
                        <g transform="matrix(58,0,0,58,247.284,0)">
                        </g>
                        <text x="0px" y="0px" style="font-family:'ArialMT', 'Arial', sans-serif;font-size:58px;fill:white;">C<tspan x="40.01px 74.019px 127.019px 162.028px 196.037px 215.027px " y="0px 0px 0px 0px 0px 0px ">ompute</tspan></text>
                    </g>
                    <g transform="matrix(0.319976,0,0,0.319989,24.7524,662.377)">
                        <g transform="matrix(58,0,0,58,425.387,0)">
                        </g>
                        <text x="0px" y="0px" style="font-family:'ArialMT', 'Arial', sans-serif;font-size:58px;fill:white;">H<tspan x="43.01px 74.019px 94.019px 130.028px 177.038px 208.046px 228.047px 262.056px 276.046px 310.055px 341.064px 372.064px 406.072px " y="0px 0px 0px 0px 0px 0px 0px 0px 0px 0px 0px 0px 0px ">ardware Layer</tspan></text>
                    </g>
                    <g transform="matrix(0.0199985,0,0,0.0199993,0,0)">
                        <rect x="17512" y="30216" width="9792" height="1632" style="fill:rgb(0,176,240);"/>
                    </g>
                    <g transform="matrix(0.319976,0,0,0.319989,388.254,627.522)">
                        <g transform="matrix(58,0,0,58,374.98,0)">
                        </g>
                        <text x="0px" y="0px" style="font-family:'ArialMT', 'Arial', sans-serif;font-size:58px;fill:white;">C<tspan x="40.01px 85.019px 118.962px 133.953px 168.952px 215.962px 227.972px 246.962px 278.962px 311.971px 345.98px " y="0px 0px 0px 0px 0px 0px 0px 0px 0px 0px 0px ">NT Switches</tspan></text>
                    </g>
                    <g transform="matrix(0.039997,0,0,0.0399986,0,0)">
                        <rect x="8764" y="16180" width="4896" height="816" style="fill:rgb(0,32,96);"/>
                    </g>
                    <g transform="matrix(0.319976,0,0,0.319989,379.976,669.384)">
                        <g transform="matrix(50,0,0,50,427.853,0)">
                        </g>
                        <text x="0px" y="0px" style="font-family:'ArialMT', 'Arial', sans-serif;font-size:50px;fill:white;">v<tspan x="26px 56px 89.999px 129.008px 140.999px 173.008px 202.015px 229.023px 260.03px 287.03px 300.022px 339.03px 369.038px 400.046px " y="0px 0px 0px 0px 0px 0px 0px 0px 0px 0px 0px 0px 0px 0px ">SAN Ready Node</tspan></text>
                    </g>
                    <g transform="matrix(0.039997,0,0,0.0399986,0,0)">
                        <rect x="8756" y="17156" width="4896" height="808" style="fill:rgb(0,32,96);"/>
                    </g>
                    <g transform="matrix(0.319976,0,0,0.319989,379.621,708.301)">
                        <g transform="matrix(50,0,0,50,427.853,0)">
                        </g>
                        <text x="0px" y="0px" style="font-family:'ArialMT', 'Arial', sans-serif;font-size:50px;fill:white;">v<tspan x="26px 56px 89.999px 129.008px 140.999px 173.008px 202.015px 229.023px 260.03px 287.03px 300.022px 339.03px 369.038px 400.046px " y="0px 0px 0px 0px 0px 0px 0px 0px 0px 0px 0px 0px 0px 0px ">SAN Ready Node</tspan></text>
                    </g>
                    <g transform="matrix(0.0199985,0,0,0.0199993,0,0)">
                        <path d="M104,17497C104,16321 1057,15368 2233,15368L27464,15368C28640,15368 29592,16321 29592,17497L29592,26008C29592,27184 28640,28136 27464,28136L2233,28136C1057,28136 104,27184 104,26008L104,17497Z" style="fill:rgb(15,15,15);"/>
                    </g>
                    <g transform="matrix(0.0199985,0,0,0.0199993,0,0)">
                        <path d="M104,17497C104,16321 1057,15368 2233,15368L27464,15368C28640,15368 29592,16321 29592,17497L29592,26008C29592,27184 28640,28136 27464,28136L2233,28136C1057,28136 104,27184 104,26008L104,17497Z" style="fill:none;stroke:rgb(3,109,188);stroke-width:133px;"/>
                    </g>
                    <g transform="matrix(0.319976,0,0,0.319989,254.953,442.854)">
                        <g transform="matrix(67,0,0,67,262.532,0)">
                        </g>
                        <text x="0px" y="0px" style="font-family:'ArialMT', 'Arial', sans-serif;font-size:67px;fill:white;">N<tspan x="52.011px 91.021px 112.01px 166.021px 206.032px 229.032px " y="0px 0px 0px 0px 0px 0px ">etwork</tspan></text>
                    </g>
                    <g transform="matrix(0.0199985,0,0,0.0199993,0,0)">
                        <rect x="9176" y="21320" width="7600" height="1616" style="fill:rgb(11,11,11);"/>
                    </g>
                    <g transform="matrix(0.319976,0,0,0.319989,228.023,448.549)">
                        <g transform="matrix(50,0,0,50,196.024,0)">
                        </g>
                        <text x="0px" y="0px" style="font-family:'ArialMT', 'Arial', sans-serif;font-size:50px;fill:white;">N<tspan x="39.008px 68.016px 84.008px 124.016px 154.024px 171.024px " y="0px 0px 0px 0px 0px 0px ">etwork</tspan></text>
                    </g>
                    <g transform="matrix(0.0199985,0,0,0.0199993,0,0)">
                        <rect x="9176" y="23384" width="7600" height="1616" style="fill:rgb(11,11,11);"/>
                    </g>
                    <g transform="matrix(0.319976,0,0,0.319989,230.909,489.766)">
                        <g transform="matrix(50,0,0,50,178.822,0)">
                        </g>
                        <text x="0px" y="0px" style="font-family:'ArialMT', 'Arial', sans-serif;font-size:50px;fill:white;">S<tspan x="30px 45.991px 75.999px 92.999px 120.007px 151.014px " y="0px 0px 0px 0px 0px 0px ">torage</tspan></text>
                    </g>
                    <g transform="matrix(0.0199985,0,0,0.0199993,0,0)">
                        <rect x="9176" y="25384" width="7600" height="1632" style="fill:rgb(11,11,11);"/>
                    </g>
                    <g transform="matrix(0.319976,0,0,0.319989,225.15,529.856)">
                        <g transform="matrix(50,0,0,50,214.831,0)">
                        </g>
                        <text x="0px" y="0px" style="font-family:'ArialMT', 'Arial', sans-serif;font-size:50px;fill:white;">C<tspan x="35.008px 65.016px 111.016px 142.024px 171.032px 187.023px " y="0px 0px 0px 0px 0px 0px ">ompute</tspan></text>
                    </g>
                    <g transform="matrix(0.319976,0,0,0.319989,38.7144,440.792)">
                        <g transform="matrix(58,0,0,58,337.264,0)">
                        </g>
                        <text x="0px" y="0px" style="font-family:'ArialMT', 'Arial', sans-serif;font-size:58px;fill:white;">V<tspan x="37.952px 49.961px 69.962px 88.952px 122.961px 153.97px 168.98px 180.989px 208.989px 239.998px 258.988px 270.998px 305.007px " y="0px 0px 0px 0px 0px 0px 0px 0px 0px 0px 0px 0px 0px ">irtualisation</tspan></text>
                    </g>
                    <g transform="matrix(0.319976,0,0,0.319989,69.1121,463.191)">
                        <g transform="matrix(58,0,0,58,149.341,0)">
                        </g>
                        <text x="0px" y="0px" style="font-family:'ArialMT', 'Arial', sans-serif;font-size:58px;fill:white;">L<tspan x="34.009px 65.018px 96.018px 130.027px " y="0px 0px 0px 0px ">ayer</tspan></text>
                    </g>
                    <g transform="matrix(0.0199985,0,0,0.0199993,0,0)">
                        <rect x="17512" y="21320" width="9792" height="1616" style="fill:rgb(0,176,80);"/>
                    </g>
                    <g transform="matrix(0.319976,0,0,0.319989,382.494,449.509)">
                        <g transform="matrix(58,0,0,58,355.713,0)">
                        </g>
                        <text x="0px" y="0px" style="font-family:'ArialMT', 'Arial', sans-serif;font-size:58px;fill:white;">V<tspan x="39px 90px 137.01px 168.019px 188.019px 222.028px 237.018px 282.028px 317.027px " y="0px 0px 0px 0px 0px 0px 0px 0px 0px ">Mware NSX</tspan></text>
                    </g>
                    <g transform="matrix(0.319976,0,0,0.319989,495.446,449.509)">
                        <g transform="matrix(58,0,0,58,19.3145,0)">
                        </g>
                        <text x="0px" y="0px" style="font-family:'ArialMT', 'Arial', sans-serif;font-size:58px;fill:white;">-</text>
                    </g>
                    <g transform="matrix(0.319976,0,0,0.319989,503.125,449.509)">
                        <g transform="matrix(58,0,0,58,35.4287,0)">
                        </g>
                        <text x="0px" y="0px" style="font-family:'ArialMT', 'Arial', sans-serif;font-size:58px;fill:white;">T</text>
                    </g>
                    <g transform="matrix(0.0199985,0,0,0.0199993,0,0)">
                        <rect x="17528" y="23464" width="9792" height="1616" style="fill:rgb(0,176,80);"/>
                    </g>
                    <g transform="matrix(0.319976,0,0,0.319989,424.773,492.331)">
                        <g transform="matrix(58,0,0,58,146.885,0)">
                        </g>
                        <text x="0px" y="0px" style="font-family:'ArialMT', 'Arial', sans-serif;font-size:58px;fill:white;">v<tspan x="31px 66px 104.999px " y="0px 0px 0px ">SAN</tspan></text>
                    </g>
                    <g transform="matrix(0.0199985,0,0,0.0199993,0,0)">
                        <rect x="17512" y="25416" width="9792" height="1616" style="fill:rgb(0,176,80);"/>
                    </g>
                    <g transform="matrix(0.319976,0,0,0.319989,397.54,530.288)">
                        <g transform="matrix(50,0,0,50,317.251,0)">
                        </g>
                        <text x="0px" y="0px" style="font-family:'ArialMT', 'Arial', sans-serif;font-size:50px;fill:white;">V<tspan x="34px 78px 128.137px 155.145px 172.145px 201.153px 214.144px 245.144px 275.143px 306.143px " y="0px 0px 0px 0px 0px 0px 0px 0px 0px 0px ">MWare ESXi</tspan></text>
                    </g>
                    <g transform="matrix(0.0199985,0,0,0.0199993,0,0)">
                        <rect x="9176" y="19176" width="7600" height="1632" style="fill:rgb(11,11,11);"/>
                    </g>
                    <g transform="matrix(0.319976,0,0,0.319989,210.424,405.769)">
                        <g transform="matrix(50,0,0,50,304.946,0)">
                        </g>
                        <text x="0px" y="0px" style="font-family:'ArialMT', 'Arial', sans-serif;font-size:50px;fill:white;">M<tspan x="44px 71.008px 100.016px 127.023px 158.031px 187.038px 233.039px 262.046px 291.054px " y="0px 0px 0px 0px 0px 0px 0px 0px 0px ">anagement</tspan></text>
                    </g>
                    <g transform="matrix(0.0199985,0,0,0.0199993,0,0)">
                        <rect x="17512" y="19176" width="9792" height="1632" style="fill:rgb(0,176,80);"/>
                    </g>
                    <g transform="matrix(0.319976,0,0,0.319989,376.735,406.729)">
                        <g transform="matrix(58,0,0,58,447.359,0)">
                        </g>
                        <text x="0px" y="0px" style="font-family:'ArialMT', 'Arial', sans-serif;font-size:58px;fill:white;">V<tspan x="39px 90px 137.01px 168.019px 188.019px 222.028px 237.018px 268.018px 308.028px 342.037px 375.046px 394.036px 428.045px " y="0px 0px 0px 0px 0px 0px 0px 0px 0px 0px 0px 0px 0px ">Mware vCenter</tspan></text>
                    </g>
                    <g transform="matrix(0.0199985,0,0,0.0199993,0,0)">
                        <rect x="9176" y="17000" width="7600" height="1616" style="fill:rgb(11,11,11);"/>
                    </g>
                    <g transform="matrix(0.319976,0,0,0.319989,220.148,362.021)">
                        <g transform="matrix(50,0,0,50,247.047,0)">
                        </g>
                        <text x="0px" y="0px" style="font-family:'ArialMT', 'Arial', sans-serif;font-size:50px;fill:white;">C<tspan x="35.008px 65.016px 94.024px 110.015px 137.023px 147.031px 176.039px 205.046px 222.047px " y="0px 0px 0px 0px 0px 0px 0px 0px 0px ">ontainers</tspan></text>
                    </g>
                    <g transform="matrix(0.0199985,0,0,0.0199993,0,0)">
                        <rect x="17512" y="16984" width="9792" height="1616" style="fill:rgb(0,176,80);"/>
                    </g>
                    <g transform="matrix(0.319976,0,0,0.319989,422.491,362.679)">
                        <g transform="matrix(58,0,0,58,152.837,0)">
                        </g>
                        <text x="0px" y="0px" style="font-family:'ArialMT', 'Arial', sans-serif;font-size:58px;fill:white;">T<tspan x="28.562px 59.571px 92.58px 120.58px " y="0px 0px 0px 0px ">anzu</tspan></text>
                    </g>
                    <g transform="matrix(0.039997,0,0,0.0399986,0,0)">
                        <rect x="15164" y="8420" width="816" height="9536" style="fill:rgb(11,11,11);"/>
                    </g>
                    <g transform="matrix(0.039997,0,0,0.0399986,0,0)">
                        <path d="M15980,17990L15914,17990L15914,17923L15980,17923L15980,17990ZM15847,17990L15780,17990L15780,17923L15847,17923L15847,17990ZM15714,17990L15647,17990L15647,17923L15714,17923L15714,17990ZM15580,17990L15514,17990L15514,17923L15580,17923L15580,17990ZM15447,17990L15380,17990L15380,17923L15447,17923L15447,17990ZM15314,17990L15247,17990L15247,17923L15314,17923L15314,17990ZM15180,17990L15164,17990C15146,17990 15131,17975 15131,17956L15131,17906L15198,17906L15198,17956L15164,17923L15180,17923L15180,17990ZM15131,17839L15131,17772L15198,17772L15198,17839L15131,17839ZM15131,17706L15131,17639L15198,17639L15198,17706L15131,17706ZM15131,17572L15131,17506L15198,17506L15198,17572L15131,17572ZM15131,17439L15131,17372L15198,17372L15198,17439L15131,17439ZM15131,17306L15131,17239L15198,17239L15198,17306L15131,17306ZM15131,17172L15131,17106L15198,17106L15198,17172L15131,17172ZM15131,17039L15131,16972L15198,16972L15198,17039L15131,17039ZM15131,16906L15131,16839L15198,16839L15198,16906L15131,16906ZM15131,16772L15131,16706L15198,16706L15198,16772L15131,16772ZM15131,16639L15131,16572L15198,16572L15198,16639L15131,16639ZM15131,16506L15131,16439L15198,16439L15198,16506L15131,16506ZM15131,16372L15131,16306L15198,16306L15198,16372L15131,16372ZM15131,16239L15131,16172L15198,16172L15198,16239L15131,16239ZM15131,16106L15131,16039L15198,16039L15198,16106L15131,16106ZM15131,15972L15131,15906L15198,15906L15198,15972L15131,15972ZM15131,15839L15131,15772L15198,15772L15198,15839L15131,15839ZM15131,15706L15131,15639L15198,15639L15198,15706L15131,15706ZM15131,15572L15131,15506L15198,15506L15198,15572L15131,15572ZM15131,15439L15131,15372L15198,15372L15198,15439L15131,15439ZM15131,15306L15131,15239L15198,15239L15198,15306L15131,15306ZM15131,15172L15131,15106L15198,15106L15198,15172L15131,15172ZM15131,15039L15131,14972L15198,14972L15198,15039L15131,15039ZM15131,14906L15131,14839L15198,14839L15198,14906L15131,14906ZM15131,14772L15131,14706L15198,14706L15198,14772L15131,14772ZM15131,14639L15131,14572L15198,14572L15198,14639L15131,14639ZM15131,14506L15131,14439L15198,14439L15198,14506L15131,14506ZM15131,14372L15131,14306L15198,14306L15198,14372L15131,14372ZM15131,14239L15131,14172L15198,14172L15198,14239L15131,14239ZM15131,14106L15131,14039L15198,14039L15198,14106L15131,14106ZM15131,13972L15131,13906L15198,13906L15198,13972L15131,13972ZM15131,13839L15131,13772L15198,13772L15198,13839L15131,13839ZM15131,13706L15131,13639L15198,13639L15198,13706L15131,13706ZM15131,13572L15131,13506L15198,13506L15198,13572L15131,13572ZM15131,13439L15131,13372L15198,13372L15198,13439L15131,13439ZM15131,13306L15131,13239L15198,13239L15198,13306L15131,13306ZM15131,13172L15131,13106L15198,13106L15198,13172L15131,13172ZM15131,13039L15131,12972L15198,12972L15198,13039L15131,13039ZM15131,12906L15131,12839L15198,12839L15198,12906L15131,12906ZM15131,12772L15131,12706L15198,12706L15198,12772L15131,12772ZM15131,12639L15131,12572L15198,12572L15198,12639L15131,12639ZM15131,12506L15131,12439L15198,12439L15198,12506L15131,12506ZM15131,12372L15131,12306L15198,12306L15198,12372L15131,12372ZM15131,12239L15131,12172L15198,12172L15198,12239L15131,12239ZM15131,12106L15131,12039L15198,12039L15198,12106L15131,12106ZM15131,11972L15131,11906L15198,11906L15198,11972L15131,11972ZM15131,11839L15131,11772L15198,11772L15198,11839L15131,11839ZM15131,11706L15131,11639L15198,11639L15198,11706L15131,11706ZM15131,11572L15131,11506L15198,11506L15198,11572L15131,11572ZM15131,11439L15131,11372L15198,11372L15198,11439L15131,11439ZM15131,11306L15131,11239L15198,11239L15198,11306L15131,11306ZM15131,11172L15131,11106L15198,11106L15198,11172L15131,11172ZM15131,11039L15131,10972L15198,10972L15198,11039L15131,11039ZM15131,10906L15131,10839L15198,10839L15198,10906L15131,10906ZM15131,10772L15131,10706L15198,10706L15198,10772L15131,10772ZM15131,10639L15131,10572L15198,10572L15198,10639L15131,10639ZM15131,10506L15131,10439L15198,10439L15198,10506L15131,10506ZM15131,10372L15131,10306L15198,10306L15198,10372L15131,10372ZM15131,10239L15131,10172L15198,10172L15198,10239L15131,10239ZM15131,10106L15131,10039L15198,10039L15198,10106L15131,10106ZM15131,9972L15131,9906L15198,9906L15198,9972L15131,9972ZM15131,9839L15131,9772L15198,9772L15198,9839L15131,9839ZM15131,9706L15131,9639L15198,9639L15198,9706L15131,9706ZM15131,9572L15131,9506L15198,9506L15198,9572L15131,9572ZM15131,9439L15131,9372L15198,9372L15198,9439L15131,9439ZM15131,9306L15131,9239L15198,9239L15198,9306L15131,9306ZM15131,9172L15131,9106L15198,9106L15198,9172L15131,9172ZM15131,9039L15131,8972L15198,8972L15198,9039L15131,9039ZM15131,8906L15131,8839L15198,8839L15198,8906L15131,8906ZM15131,8772L15131,8706L15198,8706L15198,8772L15131,8772ZM15131,8639L15131,8572L15198,8572L15198,8639L15131,8639ZM15131,8506L15131,8439L15198,8439L15198,8506L15131,8506ZM15212,8387L15279,8387L15279,8454L15212,8454L15212,8387ZM15346,8387L15412,8387L15412,8454L15346,8454L15346,8387ZM15479,8387L15546,8387L15546,8454L15479,8454L15479,8387ZM15612,8387L15679,8387L15679,8454L15612,8454L15612,8387ZM15746,8387L15812,8387L15812,8454L15746,8454L15746,8387ZM15879,8387L15946,8387L15946,8454L15879,8454L15879,8387ZM16014,8452L16014,8519L15947,8519L15947,8452L16014,8452ZM16014,8586L16014,8652L15947,8652L15947,8586L16014,8586ZM16014,8719L16014,8786L15947,8786L15947,8719L16014,8719ZM16014,8852L16014,8919L15947,8919L15947,8852L16014,8852ZM16014,8986L16014,9052L15947,9052L15947,8986L16014,8986ZM16014,9119L16014,9186L15947,9186L15947,9119L16014,9119ZM16014,9252L16014,9319L15947,9319L15947,9252L16014,9252ZM16014,9386L16014,9452L15947,9452L15947,9386L16014,9386ZM16014,9519L16014,9586L15947,9586L15947,9519L16014,9519ZM16014,9652L16014,9719L15947,9719L15947,9652L16014,9652ZM16014,9786L16014,9852L15947,9852L15947,9786L16014,9786ZM16014,9919L16014,9986L15947,9986L15947,9919L16014,9919ZM16014,10052L16014,10119L15947,10119L15947,10052L16014,10052ZM16014,10186L16014,10252L15947,10252L15947,10186L16014,10186ZM16014,10319L16014,10386L15947,10386L15947,10319L16014,10319ZM16014,10452L16014,10519L15947,10519L15947,10452L16014,10452ZM16014,10586L16014,10652L15947,10652L15947,10586L16014,10586ZM16014,10719L16014,10786L15947,10786L15947,10719L16014,10719ZM16014,10852L16014,10919L15947,10919L15947,10852L16014,10852ZM16014,10986L16014,11052L15947,11052L15947,10986L16014,10986ZM16014,11119L16014,11186L15947,11186L15947,11119L16014,11119ZM16014,11252L16014,11319L15947,11319L15947,11252L16014,11252ZM16014,11386L16014,11452L15947,11452L15947,11386L16014,11386ZM16014,11519L16014,11586L15947,11586L15947,11519L16014,11519ZM16014,11652L16014,11719L15947,11719L15947,11652L16014,11652ZM16014,11786L16014,11852L15947,11852L15947,11786L16014,11786ZM16014,11919L16014,11986L15947,11986L15947,11919L16014,11919ZM16014,12052L16014,12119L15947,12119L15947,12052L16014,12052ZM16014,12186L16014,12252L15947,12252L15947,12186L16014,12186ZM16014,12319L16014,12386L15947,12386L15947,12319L16014,12319ZM16014,12452L16014,12519L15947,12519L15947,12452L16014,12452ZM16014,12586L16014,12652L15947,12652L15947,12586L16014,12586ZM16014,12719L16014,12786L15947,12786L15947,12719L16014,12719ZM16014,12852L16014,12919L15947,12919L15947,12852L16014,12852ZM16014,12986L16014,13052L15947,13052L15947,12986L16014,12986ZM16014,13119L16014,13186L15947,13186L15947,13119L16014,13119ZM16014,13252L16014,13319L15947,13319L15947,13252L16014,13252ZM16014,13386L16014,13452L15947,13452L15947,13386L16014,13386ZM16014,13519L16014,13586L15947,13586L15947,13519L16014,13519ZM16014,13652L16014,13719L15947,13719L15947,13652L16014,13652ZM16014,13786L16014,13852L15947,13852L15947,13786L16014,13786ZM16014,13919L16014,13986L15947,13986L15947,13919L16014,13919ZM16014,14052L16014,14119L15947,14119L15947,14052L16014,14052ZM16014,14186L16014,14252L15947,14252L15947,14186L16014,14186ZM16014,14319L16014,14386L15947,14386L15947,14319L16014,14319ZM16014,14452L16014,14519L15947,14519L15947,14452L16014,14452ZM16014,14586L16014,14652L15947,14652L15947,14586L16014,14586ZM16014,14719L16014,14786L15947,14786L15947,14719L16014,14719ZM16014,14852L16014,14919L15947,14919L15947,14852L16014,14852ZM16014,14986L16014,15052L15947,15052L15947,14986L16014,14986ZM16014,15119L16014,15186L15947,15186L15947,15119L16014,15119ZM16014,15252L16014,15319L15947,15319L15947,15252L16014,15252ZM16014,15386L16014,15452L15947,15452L15947,15386L16014,15386ZM16014,15519L16014,15586L15947,15586L15947,15519L16014,15519ZM16014,15652L16014,15719L15947,15719L15947,15652L16014,15652ZM16014,15786L16014,15852L15947,15852L15947,15786L16014,15786ZM16014,15919L16014,15986L15947,15986L15947,15919L16014,15919ZM16014,16052L16014,16119L15947,16119L15947,16052L16014,16052ZM16014,16186L16014,16252L15947,16252L15947,16186L16014,16186ZM16014,16319L16014,16386L15947,16386L15947,16319L16014,16319ZM16014,16452L16014,16519L15947,16519L15947,16452L16014,16452ZM16014,16586L16014,16652L15947,16652L15947,16586L16014,16586ZM16014,16719L16014,16786L15947,16786L15947,16719L16014,16719ZM16014,16852L16014,16919L15947,16919L15947,16852L16014,16852ZM16014,16986L16014,17052L15947,17052L15947,16986L16014,16986ZM16014,17119L16014,17186L15947,17186L15947,17119L16014,17119ZM16014,17252L16014,17319L15947,17319L15947,17252L16014,17252ZM16014,17386L16014,17452L15947,17452L15947,17386L16014,17386ZM16014,17519L16014,17586L15947,17586L15947,17519L16014,17519ZM16014,17652L16014,17719L15947,17719L15947,17652L16014,17652ZM16014,17786L16014,17852L15947,17852L15947,17786L16014,17786ZM16014,17919L16014,17956L15947,17956L15947,17919L16014,17919Z" style="fill:rgb(3,109,188);fill-rule:nonzero;stroke:rgb(3,109,188);stroke-width:1px;"/>
                    </g>
                    <g transform="matrix(-5.87787e-17,-0.319989,0.319976,-5.87809e-17,628.706,645.304)">
                        <g transform="matrix(50,0,0,50,733.835,0)">
                        </g>
                        <text x="0px" y="0px" style="font-family:'ArialMT', 'Arial', sans-serif;font-size:50px;fill:white;">V<tspan x="34px 69.008px 99px 110.992px 154.992px 182px 211.007px 238.015px 269.022px 298.03px 344.03px 373.038px 402.046px 418.037px 430.029px 442.02px 471.028px 487.02px 504.02px 531.028px 555.028px 571.019px 588.02px 617.027px 644.027px 660.019px 689.027px 706.027px " y="0px 0px 0px 0px 0px 0px 0px 0px 0px 0px 0px 0px 0px 0px 0px 0px 0px 0px 0px 0px 0px 0px 0px 0px 0px 0px 0px 0px ">CF Management Infrastructure</tspan></text>
                    </g>
                    <g transform="matrix(0.039997,0,0,0.0399986,0,0)">
                        <path d="M2700,1110C2700,513 3185,28 3782,28L15979,28C16576,28 17060,513 17060,1110L17060,6035C17060,6632 16576,7116 15979,7116L3782,7116C3185,7116 2700,6632 2700,6035L2700,1110Z" style="fill:rgb(15,15,15);"/>
                    </g>
                    <g transform="matrix(0.039997,0,0,0.0399986,0,0)">
                        <path d="M2667,6035L2667,5969L2734,5969L2734,6035L2667,6035ZM2667,5902L2667,5835L2734,5835L2734,5902L2667,5902ZM2667,5769L2667,5702L2734,5702L2734,5769L2667,5769ZM2667,5635L2667,5569L2734,5569L2734,5635L2667,5635ZM2667,5502L2667,5435L2734,5435L2734,5502L2667,5502ZM2667,5369L2667,5302L2734,5302L2734,5369L2667,5369ZM2667,5235L2667,5169L2734,5169L2734,5235L2667,5235ZM2667,5102L2667,5035L2734,5035L2734,5102L2667,5102ZM2667,4969L2667,4902L2734,4902L2734,4969L2667,4969ZM2667,4835L2667,4769L2734,4769L2734,4835L2667,4835ZM2667,4702L2667,4635L2734,4635L2734,4702L2667,4702ZM2667,4569L2667,4502L2734,4502L2734,4569L2667,4569ZM2667,4435L2667,4369L2734,4369L2734,4435L2667,4435ZM2667,4302L2667,4235L2734,4235L2734,4302L2667,4302ZM2667,4169L2667,4102L2734,4102L2734,4169L2667,4169ZM2667,4035L2667,3969L2734,3969L2734,4035L2667,4035ZM2667,3902L2667,3835L2734,3835L2734,3902L2667,3902ZM2667,3769L2667,3702L2734,3702L2734,3769L2667,3769ZM2667,3635L2667,3569L2734,3569L2734,3635L2667,3635ZM2667,3502L2667,3435L2734,3435L2734,3502L2667,3502ZM2667,3369L2667,3302L2734,3302L2734,3369L2667,3369ZM2667,3235L2667,3169L2734,3169L2734,3235L2667,3235ZM2667,3102L2667,3035L2734,3035L2734,3102L2667,3102ZM2667,2969L2667,2902L2734,2902L2734,2969L2667,2969ZM2667,2835L2667,2769L2734,2769L2734,2835L2667,2835ZM2667,2702L2667,2635L2734,2635L2734,2702L2667,2702ZM2667,2569L2667,2502L2734,2502L2734,2569L2667,2569ZM2667,2435L2667,2369L2734,2369L2734,2435L2667,2435ZM2667,2302L2667,2235L2734,2235L2734,2302L2667,2302ZM2667,2169L2667,2102L2734,2102L2734,2169L2667,2169ZM2667,2035L2667,1969L2734,1969L2734,2035L2667,2035ZM2667,1902L2667,1835L2734,1835L2734,1902L2667,1902ZM2667,1769L2667,1702L2734,1702L2734,1769L2667,1769ZM2667,1635L2667,1569L2734,1569L2734,1635L2667,1635ZM2667,1502L2667,1435L2734,1435L2734,1502L2667,1502ZM2667,1369L2667,1302L2734,1302L2734,1369L2667,1369ZM2667,1235L2667,1169L2734,1169L2734,1235L2667,1235ZM2668,1100L2671,1034L2737,1037L2734,1104L2668,1100ZM2678,964L2688,898L2754,908L2744,974L2678,964ZM2704,830L2717,780L2723,763L2785,786L2781,797L2768,847L2704,830ZM2746,700L2754,677L2774,636L2834,665L2817,700L2808,723L2746,700ZM2805,574L2839,517L2896,552L2862,608L2805,574ZM2878,459L2918,406L2972,445L2932,499L2878,459ZM2965,353L2993,323L3014,304L3059,353L3042,368L3014,398L2965,353ZM3063,259L3071,251L3118,216L3158,269L3116,300L3108,308L3063,259ZM3175,176L3232,141L3267,198L3210,233L3175,176ZM3294,109L3347,83L3357,79L3380,142L3375,144L3323,169L3294,109ZM3420,56L3449,46L3487,36L3503,100L3472,108L3443,119L3420,56ZM3551,19L3556,18L3620,8L3631,74L3572,83L3568,84L3551,19ZM3690,0L3757,-4L3760,63L3693,66L3690,0ZM3825,-5L3891,-5L3891,62L3825,62L3825,-5ZM3958,-5L4025,-5L4025,62L3958,62L3958,-5ZM4091,-5L4158,-5L4158,62L4091,62L4091,-5ZM4225,-5L4291,-5L4291,62L4225,62L4225,-5ZM4358,-5L4425,-5L4425,62L4358,62L4358,-5ZM4491,-5L4558,-5L4558,62L4491,62L4491,-5ZM4625,-5L4691,-5L4691,62L4625,62L4625,-5ZM4758,-5L4825,-5L4825,62L4758,62L4758,-5ZM4891,-5L4958,-5L4958,62L4891,62L4891,-5ZM5025,-5L5091,-5L5091,62L5025,62L5025,-5ZM5158,-5L5225,-5L5225,62L5158,62L5158,-5ZM5291,-5L5358,-5L5358,62L5291,62L5291,-5ZM5425,-5L5491,-5L5491,62L5425,62L5425,-5ZM5558,-5L5625,-5L5625,62L5558,62L5558,-5ZM5691,-5L5758,-5L5758,62L5691,62L5691,-5ZM5825,-5L5891,-5L5891,62L5825,62L5825,-5ZM5958,-5L6025,-5L6025,62L5958,62L5958,-5ZM6091,-5L6158,-5L6158,62L6091,62L6091,-5ZM6225,-5L6291,-5L6291,62L6225,62L6225,-5ZM6358,-5L6425,-5L6425,62L6358,62L6358,-5ZM6491,-5L6558,-5L6558,62L6491,62L6491,-5ZM6625,-5L6691,-5L6691,62L6625,62L6625,-5ZM6758,-5L6825,-5L6825,62L6758,62L6758,-5ZM6891,-5L6958,-5L6958,62L6891,62L6891,-5ZM7025,-5L7091,-5L7091,62L7025,62L7025,-5ZM7158,-5L7225,-5L7225,62L7158,62L7158,-5ZM7291,-5L7358,-5L7358,62L7291,62L7291,-5ZM7425,-5L7491,-5L7491,62L7425,62L7425,-5ZM7558,-5L7625,-5L7625,62L7558,62L7558,-5ZM7691,-5L7758,-5L7758,62L7691,62L7691,-5ZM7825,-5L7891,-5L7891,62L7825,62L7825,-5ZM7958,-5L8025,-5L8025,62L7958,62L7958,-5ZM8091,-5L8158,-5L8158,62L8091,62L8091,-5ZM8225,-5L8291,-5L8291,62L8225,62L8225,-5ZM8358,-5L8425,-5L8425,62L8358,62L8358,-5ZM8491,-5L8558,-5L8558,62L8491,62L8491,-5ZM8625,-5L8691,-5L8691,62L8625,62L8625,-5ZM8758,-5L8825,-5L8825,62L8758,62L8758,-5ZM8891,-5L8958,-5L8958,62L8891,62L8891,-5ZM9025,-5L9091,-5L9091,62L9025,62L9025,-5ZM9158,-5L9225,-5L9225,62L9158,62L9158,-5ZM9291,-5L9358,-5L9358,62L9291,62L9291,-5ZM9425,-5L9491,-5L9491,62L9425,62L9425,-5ZM9558,-5L9625,-5L9625,62L9558,62L9558,-5ZM9691,-5L9758,-5L9758,62L9691,62L9691,-5ZM9825,-5L9891,-5L9891,62L9825,62L9825,-5ZM9958,-5L10025,-5L10025,62L9958,62L9958,-5ZM10091,-5L10158,-5L10158,62L10091,62L10091,-5ZM10225,-5L10291,-5L10291,62L10225,62L10225,-5ZM10358,-5L10425,-5L10425,62L10358,62L10358,-5ZM10491,-5L10558,-5L10558,62L10491,62L10491,-5ZM10625,-5L10691,-5L10691,62L10625,62L10625,-5ZM10758,-5L10825,-5L10825,62L10758,62L10758,-5ZM10891,-5L10958,-5L10958,62L10891,62L10891,-5ZM11025,-5L11091,-5L11091,62L11025,62L11025,-5ZM11158,-5L11225,-5L11225,62L11158,62L11158,-5ZM11291,-5L11358,-5L11358,62L11291,62L11291,-5ZM11425,-5L11491,-5L11491,62L11425,62L11425,-5ZM11558,-5L11625,-5L11625,62L11558,62L11558,-5ZM11691,-5L11758,-5L11758,62L11691,62L11691,-5ZM11825,-5L11891,-5L11891,62L11825,62L11825,-5ZM11958,-5L12025,-5L12025,62L11958,62L11958,-5ZM12091,-5L12158,-5L12158,62L12091,62L12091,-5ZM12225,-5L12291,-5L12291,62L12225,62L12225,-5ZM12358,-5L12425,-5L12425,62L12358,62L12358,-5ZM12491,-5L12558,-5L12558,62L12491,62L12491,-5ZM12625,-5L12691,-5L12691,62L12625,62L12625,-5ZM12758,-5L12825,-5L12825,62L12758,62L12758,-5ZM12891,-5L12958,-5L12958,62L12891,62L12891,-5ZM13025,-5L13091,-5L13091,62L13025,62L13025,-5ZM13158,-5L13225,-5L13225,62L13158,62L13158,-5ZM13291,-5L13358,-5L13358,62L13291,62L13291,-5ZM13425,-5L13491,-5L13491,62L13425,62L13425,-5ZM13558,-5L13625,-5L13625,62L13558,62L13558,-5ZM13691,-5L13758,-5L13758,62L13691,62L13691,-5ZM13825,-5L13891,-5L13891,62L13825,62L13825,-5ZM13958,-5L14025,-5L14025,62L13958,62L13958,-5ZM14091,-5L14158,-5L14158,62L14091,62L14091,-5ZM14225,-5L14291,-5L14291,62L14225,62L14225,-5ZM14358,-5L14425,-5L14425,62L14358,62L14358,-5ZM14491,-5L14558,-5L14558,62L14491,62L14491,-5ZM14625,-5L14691,-5L14691,62L14625,62L14625,-5ZM14758,-5L14825,-5L14825,62L14758,62L14758,-5ZM14891,-5L14958,-5L14958,62L14891,62L14891,-5ZM15025,-5L15091,-5L15091,62L15025,62L15025,-5ZM15158,-5L15225,-5L15225,62L15158,62L15158,-5ZM15291,-5L15358,-5L15358,62L15291,62L15291,-5ZM15425,-5L15491,-5L15491,62L15425,62L15425,-5ZM15558,-5L15625,-5L15625,62L15558,62L15558,-5ZM15691,-5L15758,-5L15758,62L15691,62L15691,-5ZM15825,-5L15891,-5L15891,62L15825,62L15825,-5ZM15958,-5L15979,-5L16026,-3L16023,64L15979,62L15958,62L15958,-5ZM16096,1L16162,11L16152,77L16086,67L16096,1ZM16231,25L16295,41L16279,106L16214,89L16231,25ZM16362,64L16412,82L16427,89L16398,149L16389,145L16339,126L16362,64ZM16487,118L16509,129L16548,152L16513,209L16481,189L16458,178L16487,118ZM16607,189L16660,229L16621,282L16567,243L16607,189ZM16714,273L16764,318L16719,368L16669,323L16714,273ZM16811,370L16838,400L16856,423L16802,463L16789,444L16762,414L16811,370ZM16896,476L16903,485L16933,535L16876,570L16849,525L16842,516L16896,476ZM16968,596L16997,656L16937,685L16908,625L16968,596ZM17023,721L17043,777L17046,787L16981,803L16981,800L16960,744L17023,721ZM17063,852L17071,884L17076,920L17011,930L17006,900L16998,868L17063,852ZM17087,986L17088,994L17091,1056L17025,1059L17022,1005L17021,996L17087,986ZM17094,1124L17094,1191L17027,1191L17027,1124L17094,1124ZM17094,1257L17094,1324L17027,1324L17027,1257L17094,1257ZM17094,1391L17094,1457L17027,1457L17027,1391L17094,1391ZM17094,1524L17094,1591L17027,1591L17027,1524L17094,1524ZM17094,1657L17094,1724L17027,1724L17027,1657L17094,1657ZM17094,1791L17094,1857L17027,1857L17027,1791L17094,1791ZM17094,1924L17094,1991L17027,1991L17027,1924L17094,1924ZM17094,2057L17094,2124L17027,2124L17027,2057L17094,2057ZM17094,2191L17094,2257L17027,2257L17027,2191L17094,2191ZM17094,2324L17094,2391L17027,2391L17027,2324L17094,2324ZM17094,2457L17094,2524L17027,2524L17027,2457L17094,2457ZM17094,2591L17094,2657L17027,2657L17027,2591L17094,2591ZM17094,2724L17094,2791L17027,2791L17027,2724L17094,2724ZM17094,2857L17094,2924L17027,2924L17027,2857L17094,2857ZM17094,2991L17094,3057L17027,3057L17027,2991L17094,2991ZM17094,3124L17094,3191L17027,3191L17027,3124L17094,3124ZM17094,3257L17094,3324L17027,3324L17027,3257L17094,3257ZM17094,3391L17094,3457L17027,3457L17027,3391L17094,3391ZM17094,3524L17094,3591L17027,3591L17027,3524L17094,3524ZM17094,3657L17094,3724L17027,3724L17027,3657L17094,3657ZM17094,3791L17094,3857L17027,3857L17027,3791L17094,3791ZM17094,3924L17094,3991L17027,3991L17027,3924L17094,3924ZM17094,4057L17094,4124L17027,4124L17027,4057L17094,4057ZM17094,4191L17094,4257L17027,4257L17027,4191L17094,4191ZM17094,4324L17094,4391L17027,4391L17027,4324L17094,4324ZM17094,4457L17094,4524L17027,4524L17027,4457L17094,4457ZM17094,4591L17094,4657L17027,4657L17027,4591L17094,4591ZM17094,4724L17094,4791L17027,4791L17027,4724L17094,4724ZM17094,4857L17094,4924L17027,4924L17027,4857L17094,4857ZM17094,4991L17094,5057L17027,5057L17027,4991L17094,4991ZM17094,5124L17094,5191L17027,5191L17027,5124L17094,5124ZM17094,5257L17094,5324L17027,5324L17027,5257L17094,5257ZM17094,5391L17094,5457L17027,5457L17027,5391L17094,5391ZM17094,5524L17094,5591L17027,5591L17027,5524L17094,5524ZM17094,5657L17094,5724L17027,5724L17027,5657L17094,5657ZM17094,5791L17094,5857L17027,5857L17027,5791L17094,5791ZM17094,5924L17094,5991L17027,5991L17027,5924L17094,5924ZM17093,6059L17089,6126L17023,6122L17026,6056L17093,6059ZM17081,6195L17071,6259L17070,6264L17006,6248L17015,6185L17081,6195ZM17054,6329L17044,6365L17033,6396L16971,6373L16980,6349L16989,6312L17054,6329ZM17010,6458L17007,6468L16981,6522L16921,6493L16944,6445L16948,6435L17010,6458ZM16949,6584L16914,6641L16857,6606L16892,6549L16949,6584ZM16874,6698L16840,6743L16831,6753L16782,6708L16787,6703L16821,6658L16874,6698ZM16787,6802L16769,6822L16737,6851L16692,6802L16719,6778L16737,6758L16787,6802ZM16685,6898L16632,6938L16592,6885L16645,6844L16685,6898ZM16574,6977L16517,7012L16482,6955L16539,6920L16574,6977ZM16454,7043L16415,7061L16390,7071L16367,7008L16386,7001L16425,6983L16454,7043ZM16328,7094L16312,7099L16260,7113L16244,7048L16289,7037L16305,7031L16328,7094ZM16192,7129L16126,7139L16116,7073L16182,7063L16192,7129ZM16057,7146L15990,7149L15987,7083L16053,7079L16057,7146ZM15922,7150L15855,7150L15855,7083L15922,7083L15922,7150ZM15789,7150L15722,7150L15722,7083L15789,7083L15789,7150ZM15655,7150L15589,7150L15589,7083L15655,7083L15655,7150ZM15522,7150L15455,7150L15455,7083L15522,7083L15522,7150ZM15389,7150L15322,7150L15322,7083L15389,7083L15389,7150ZM15255,7150L15189,7150L15189,7083L15255,7083L15255,7150ZM15122,7150L15055,7150L15055,7083L15122,7083L15122,7150ZM14989,7150L14922,7150L14922,7083L14989,7083L14989,7150ZM14855,7150L14789,7150L14789,7083L14855,7083L14855,7150ZM14722,7150L14655,7150L14655,7083L14722,7083L14722,7150ZM14589,7150L14522,7150L14522,7083L14589,7083L14589,7150ZM14455,7150L14389,7150L14389,7083L14455,7083L14455,7150ZM14322,7150L14255,7150L14255,7083L14322,7083L14322,7150ZM14189,7150L14122,7150L14122,7083L14189,7083L14189,7150ZM14055,7150L13989,7150L13989,7083L14055,7083L14055,7150ZM13922,7150L13855,7150L13855,7083L13922,7083L13922,7150ZM13789,7150L13722,7150L13722,7083L13789,7083L13789,7150ZM13655,7150L13589,7150L13589,7083L13655,7083L13655,7150ZM13522,7150L13455,7150L13455,7083L13522,7083L13522,7150ZM13389,7150L13322,7150L13322,7083L13389,7083L13389,7150ZM13255,7150L13189,7150L13189,7083L13255,7083L13255,7150ZM13122,7150L13055,7150L13055,7083L13122,7083L13122,7150ZM12989,7150L12922,7150L12922,7083L12989,7083L12989,7150ZM12855,7150L12789,7150L12789,7083L12855,7083L12855,7150ZM12722,7150L12655,7150L12655,7083L12722,7083L12722,7150ZM12589,7150L12522,7150L12522,7083L12589,7083L12589,7150ZM12455,7150L12389,7150L12389,7083L12455,7083L12455,7150ZM12322,7150L12255,7150L12255,7083L12322,7083L12322,7150ZM12189,7150L12122,7150L12122,7083L12189,7083L12189,7150ZM12055,7150L11989,7150L11989,7083L12055,7083L12055,7150ZM11922,7150L11855,7150L11855,7083L11922,7083L11922,7150ZM11789,7150L11722,7150L11722,7083L11789,7083L11789,7150ZM11655,7150L11589,7150L11589,7083L11655,7083L11655,7150ZM11522,7150L11455,7150L11455,7083L11522,7083L11522,7150ZM11389,7150L11322,7150L11322,7083L11389,7083L11389,7150ZM11255,7150L11189,7150L11189,7083L11255,7083L11255,7150ZM11122,7150L11055,7150L11055,7083L11122,7083L11122,7150ZM10989,7150L10922,7150L10922,7083L10989,7083L10989,7150ZM10855,7150L10789,7150L10789,7083L10855,7083L10855,7150ZM10722,7150L10655,7150L10655,7083L10722,7083L10722,7150ZM10589,7150L10522,7150L10522,7083L10589,7083L10589,7150ZM10455,7150L10389,7150L10389,7083L10455,7083L10455,7150ZM10322,7150L10255,7150L10255,7083L10322,7083L10322,7150ZM10189,7150L10122,7150L10122,7083L10189,7083L10189,7150ZM10055,7150L9989,7150L9989,7083L10055,7083L10055,7150ZM9922,7150L9855,7150L9855,7083L9922,7083L9922,7150ZM9789,7150L9722,7150L9722,7083L9789,7083L9789,7150ZM9655,7150L9589,7150L9589,7083L9655,7083L9655,7150ZM9522,7150L9455,7150L9455,7083L9522,7083L9522,7150ZM9389,7150L9322,7150L9322,7083L9389,7083L9389,7150ZM9255,7150L9189,7150L9189,7083L9255,7083L9255,7150ZM9122,7150L9055,7150L9055,7083L9122,7083L9122,7150ZM8989,7150L8922,7150L8922,7083L8989,7083L8989,7150ZM8855,7150L8789,7150L8789,7083L8855,7083L8855,7150ZM8722,7150L8655,7150L8655,7083L8722,7083L8722,7150ZM8589,7150L8522,7150L8522,7083L8589,7083L8589,7150ZM8455,7150L8389,7150L8389,7083L8455,7083L8455,7150ZM8322,7150L8255,7150L8255,7083L8322,7083L8322,7150ZM8189,7150L8122,7150L8122,7083L8189,7083L8189,7150ZM8055,7150L7989,7150L7989,7083L8055,7083L8055,7150ZM7922,7150L7855,7150L7855,7083L7922,7083L7922,7150ZM7789,7150L7722,7150L7722,7083L7789,7083L7789,7150ZM7655,7150L7589,7150L7589,7083L7655,7083L7655,7150ZM7522,7150L7455,7150L7455,7083L7522,7083L7522,7150ZM7389,7150L7322,7150L7322,7083L7389,7083L7389,7150ZM7255,7150L7189,7150L7189,7083L7255,7083L7255,7150ZM7122,7150L7055,7150L7055,7083L7122,7083L7122,7150ZM6989,7150L6922,7150L6922,7083L6989,7083L6989,7150ZM6855,7150L6789,7150L6789,7083L6855,7083L6855,7150ZM6722,7150L6655,7150L6655,7083L6722,7083L6722,7150ZM6589,7150L6522,7150L6522,7083L6589,7083L6589,7150ZM6455,7150L6389,7150L6389,7083L6455,7083L6455,7150ZM6322,7150L6255,7150L6255,7083L6322,7083L6322,7150ZM6189,7150L6122,7150L6122,7083L6189,7083L6189,7150ZM6055,7150L5989,7150L5989,7083L6055,7083L6055,7150ZM5922,7150L5855,7150L5855,7083L5922,7083L5922,7150ZM5789,7150L5722,7150L5722,7083L5789,7083L5789,7150ZM5655,7150L5589,7150L5589,7083L5655,7083L5655,7150ZM5522,7150L5455,7150L5455,7083L5522,7083L5522,7150ZM5389,7150L5322,7150L5322,7083L5389,7083L5389,7150ZM5255,7150L5189,7150L5189,7083L5255,7083L5255,7150ZM5122,7150L5055,7150L5055,7083L5122,7083L5122,7150ZM4989,7150L4922,7150L4922,7083L4989,7083L4989,7150ZM4855,7150L4789,7150L4789,7083L4855,7083L4855,7150ZM4722,7150L4655,7150L4655,7083L4722,7083L4722,7150ZM4589,7150L4522,7150L4522,7083L4589,7083L4589,7150ZM4455,7150L4389,7150L4389,7083L4455,7083L4455,7150ZM4322,7150L4255,7150L4255,7083L4322,7083L4322,7150ZM4189,7150L4122,7150L4122,7083L4189,7083L4189,7150ZM4055,7150L3989,7150L3989,7083L4055,7083L4055,7150ZM3922,7150L3855,7150L3855,7083L3922,7083L3922,7150ZM3789,7150L3782,7150L3720,7147L3724,7080L3782,7083L3789,7083L3789,7150ZM3651,7141L3585,7131L3595,7065L3661,7076L3651,7141ZM3516,7117L3452,7100L3449,7099L3469,7036L3533,7052L3516,7117ZM3386,7076L3349,7063L3321,7049L3350,6989L3372,7000L3409,7014L3386,7076ZM3261,7020L3252,7016L3201,6985L3236,6928L3281,6956L3290,6960L3261,7020ZM3142,6947L3089,6907L3129,6854L3182,6894L3142,6947ZM3036,6862L2995,6825L2985,6814L3035,6769L3040,6775L3081,6813L3036,6862ZM2940,6765L2923,6745L2897,6710L2950,6671L2972,6701L2990,6720L2940,6765ZM2855,6654L2820,6597L2877,6563L2912,6620L2855,6654ZM2787,6536L2758,6476L2818,6447L2847,6507L2787,6536ZM2733,6411L2718,6368L2711,6344L2776,6328L2780,6345L2796,6388L2733,6411ZM2695,6280L2690,6262L2682,6211L2748,6201L2755,6245L2759,6263L2695,6280ZM2672,6142L2669,6075L2736,6072L2739,6138L2672,6142Z" style="fill:white;fill-rule:nonzero;stroke:white;stroke-width:1px;"/>
                    </g>
                    <g transform="matrix(0.319976,0,0,0.319989,353.21,150.747)">
                        <g transform="matrix(67,0,0,67,262.532,0)">
                        </g>
                        <text x="0px" y="0px" style="font-family:'ArialMT', 'Arial', sans-serif;font-size:67px;fill:white;">N<tspan x="52.011px 91.021px 112.01px 166.021px 206.032px 229.032px " y="0px 0px 0px 0px 0px 0px ">etwork</tspan></text>
                    </g>
                    <g transform="matrix(0.0199985,0,0,0.0199993,0,0)">
                        <path d="M216,8315C216,8057 425,7848 683,7848L29222,7848C29480,7848 29688,8057 29688,8315L29688,10182C29688,10440 29480,10648 29222,10648L683,10648C425,10648 216,10440 216,10182L216,8315Z" style="fill:rgb(15,15,15);"/>
                    </g>
                    <g transform="matrix(0.0199985,0,0,0.0199993,0,0)">
                        <path d="M216,8315C216,8057 425,7848 683,7848L29222,7848C29480,7848 29688,8057 29688,8315L29688,10182C29688,10440 29480,10648 29222,10648L683,10648C425,10648 216,10440 216,10182L216,8315Z" style="fill:none;stroke:rgb(3,109,188);stroke-width:133px;"/>
                    </g>
                    <g transform="matrix(0.319976,0,0,0.319989,256.781,192.69)">
                        <g transform="matrix(67,0,0,67,262.532,0)">
                        </g>
                        <text x="0px" y="0px" style="font-family:'ArialMT', 'Arial', sans-serif;font-size:67px;fill:white;">N<tspan x="52.011px 91.021px 112.01px 166.021px 206.032px 229.032px " y="0px 0px 0px 0px 0px 0px ">etwork</tspan></text>
                    </g>
                    <g transform="matrix(0.0199985,0,0,0.0199993,0,0)">
                        <rect x="9288" y="8472" width="19552" height="1616" style="fill:rgb(0,176,80);"/>
                    </g>
                    <g transform="matrix(0.319976,0,0,0.319989,244.533,191.425)">
                        <g transform="matrix(50,0,0,50,851.915,0)">
                        </g>
                        <text x="0px" y="0px" style="font-family:'ArialMT', 'Arial', sans-serif;font-size:50px;fill:white;">A<tspan x="34px 51px 61.008px 88.016px 100.008px 137.999px 169.007px 198.014px 215.015px 242.022px 258.014px 268.022px 298.03px 327.038px 351.038px 361.029px 390.021px 403.012px 415.004px 444.012px 468.012px 478.02px 509.028px 538.035px 554.027px 566.019px 595.01px 607.002px 646.01px 675.018px 691.009px 703.001px 714.993px 744px 768px 778.009px 809.016px 838.024px " y="0px 0px 0px 0px 0px 0px 0px 0px 0px 0px 0px 0px 0px 0px 0px 0px 0px 0px 0px 0px 0px 0px 0px 0px 0px 0px 0px 0px 0px 0px 0px 0px 0px 0px 0px 0px 0px 0px ">ria Operations / Insight / Net Insight</tspan></text>
                    </g>
                    <g transform="matrix(0.319976,0,0,0.319989,21.5274,192.994)">
                        <g transform="matrix(58,0,0,58,449.386,0)">
                        </g>
                        <text x="0px" y="0px" style="font-family:'ArialMT', 'Arial', sans-serif;font-size:58px;fill:white;">M<tspan x="51px 85.009px 118.018px 130.028px 149.018px 183.027px 203.027px 215.037px 248.046px 283.055px 300.045px 334.054px 365.063px 396.063px 430.072px " y="0px 0px 0px 0px 0px 0px 0px 0px 0px 0px 0px 0px 0px 0px 0px ">onitoring Layer</tspan></text>
                    </g>
                    <g transform="matrix(0.0199985,0,0,0.0199993,0,0)">
                        <path d="M104,3168C104,2705 481,2328 944,2328L28736,2328C29200,2328 29576,2705 29576,3168L29576,6528C29576,6992 29200,7368 28736,7368L944,7368C481,7368 104,6992 104,6528L104,3168Z" style="fill:rgb(15,15,15);"/>
                    </g>
                    <g transform="matrix(0.0199985,0,0,0.0199993,0,0)">
                        <path d="M104,3168C104,2705 481,2328 944,2328L28736,2328C29200,2328 29576,2705 29576,3168L29576,6528C29576,6992 29200,7368 28736,7368L944,7368C481,7368 104,6992 104,6528L104,3168Z" style="fill:none;stroke:rgb(3,109,188);stroke-width:133px;"/>
                    </g>
                    <g transform="matrix(0.319976,0,0,0.319989,254.765,104.831)">
                        <g transform="matrix(67,0,0,67,262.532,0)">
                        </g>
                        <text x="0px" y="0px" style="font-family:'ArialMT', 'Arial', sans-serif;font-size:67px;fill:white;">N<tspan x="52.011px 91.021px 112.01px 166.021px 206.032px 229.032px " y="0px 0px 0px 0px 0px 0px ">etwork</tspan></text>
                    </g>
                    <g transform="matrix(0.0199985,0,0,0.0199993,0,0)">
                        <rect x="9288" y="2712" width="19520" height="1328" style="fill:rgb(0,176,80);"/>
                    </g>
                    <g transform="matrix(0.319976,0,0,0.319989,289.535,73.4277)">
                        <g transform="matrix(50,0,0,50,564.335,0)">
                        </g>
                        <text x="0px" y="0px" style="font-family:'ArialMT', 'Arial', sans-serif;font-size:50px;fill:white;">V<tspan x="34px 78px 118.008px 145.016px 162.016px 191.024px 201.257px 235.256px 252.257px 262.265px 289.273px 298.506px 332.505px 361.513px 377.504px 407.512px 453.512px 480.52px 496.512px 506.52px 536.528px " y="0px 0px 0px 0px 0px 0px 0px 0px 0px 0px 0px 0px 0px 0px 0px 0px 0px 0px 0px 0px 0px ">Mware Aria Automation</tspan></text>
                    </g>
                    <g transform="matrix(0.319976,0,0,0.319989,19.2582,91.1102)">
                        <g transform="matrix(58,0,0,58,307.282,0)">
                        </g>
                        <text x="0px" y="0px" style="font-family:'ArialMT', 'Arial', sans-serif;font-size:58px;fill:white;">A<tspan x="39px 73.008px 91.999px 126.007px 179.008px 210.017px 229.007px 241.017px 275.026px " y="0px 0px 0px 0px 0px 0px 0px 0px 0px ">utomation</tspan></text>
                    </g>
                    <g transform="matrix(0.319976,0,0,0.319989,19.2582,113.509)">
                        <g transform="matrix(58,0,0,58,149.341,0)">
                        </g>
                        <text x="0px" y="0px" style="font-family:'ArialMT', 'Arial', sans-serif;font-size:58px;fill:white;">L<tspan x="34.009px 65.018px 96.018px 130.027px " y="0px 0px 0px 0px ">ayer</tspan></text>
                    </g>
                    <g transform="matrix(0.319976,0,0,0.319989,293.915,34.9016)">
                        <g transform="matrix(58,0,0,58,481.176,0)">
                        </g>
                        <text x="0px" y="0px" style="font-family:'ArialMT', 'Arial', sans-serif;font-size:58px;fill:white;">V<tspan x="39px 79.009px 114.009px 129.999px 181px 212.008px 245.017px 276.026px 311.035px 345.044px 398.044px 432.053px 465.062px " y="0px 0px 0px 0px 0px 0px 0px 0px 0px 0px 0px 0px 0px ">CS Management</tspan></text>
                    </g>
                    <g transform="matrix(0.0199985,0,0,0.0199993,0,0)">
                        <path d="M104,11563C104,11305 313,11096 571,11096L29110,11096C29368,11096 29576,11305 29576,11563L29576,13430C29576,13688 29368,13896 29110,13896L571,13896C313,13896 104,13688 104,13430L104,11563Z" style="fill:rgb(15,15,15);"/>
                    </g>
                    <g transform="matrix(0.0199985,0,0,0.0199993,0,0)">
                        <path d="M104,11563C104,11305 313,11096 571,11096L29110,11096C29368,11096 29576,11305 29576,11563L29576,13430C29576,13688 29368,13896 29110,13896L571,13896C313,13896 104,13688 104,13430L104,11563Z" style="fill:none;stroke:rgb(3,109,188);stroke-width:133px;"/>
                    </g>
                    <g transform="matrix(0.319976,0,0,0.319989,254.512,257.683)">
                        <g transform="matrix(67,0,0,67,262.532,0)">
                        </g>
                        <text x="0px" y="0px" style="font-family:'ArialMT', 'Arial', sans-serif;font-size:67px;fill:white;">N<tspan x="52.011px 91.021px 112.01px 166.021px 206.032px 229.032px " y="0px 0px 0px 0px 0px 0px ">etwork</tspan></text>
                    </g>
                    <g transform="matrix(0.0199985,0,0,0.0199993,0,0)">
                        <rect x="9288" y="11720" width="19520" height="1616" style="fill:rgb(0,176,80);"/>
                    </g>
                    <g transform="matrix(0.319976,0,0,0.319989,239.945,256.433)">
                        <g transform="matrix(50,0,0,50,872.893,0)">
                        </g>
                        <text x="0px" y="0px" style="font-family:'ArialMT', 'Arial', sans-serif;font-size:50px;fill:white;">A<tspan x="34px 49.991px 79.999px 103.999px 114.087px 138.537px 168.545px 198.552px 211.561px 221.569px 250.577px 281.584px 291.576px 320.568px 330.8px 364.8px 395.808px 426.815px 436.824px 452.815px 462.824px 492.831px 521.839px 548.846px 561.855px 572.846px 607.855px 637.862px 683.863px 714.87px 744.878px 773.886px 802.893px 831.901px 847.893px " y="0px 0px 0px 0px 0px 0px 0px 0px 0px 0px 0px 0px 0px 0px 0px 0px 0px 0px 0px 0px 0px 0px 0px 0px 0px 0px 0px 0px 0px 0px 0px 0px 0px 0px 0px ">tos Tooling / Additional Components</tspan></text>
                    </g>
                    <g transform="matrix(0.319976,0,0,0.319989,19.2582,257.988)">
                        <g transform="matrix(58,0,0,58,392.359,0)">
                        </g>
                        <text x="0px" y="0px" style="font-family:'ArialMT', 'Arial', sans-serif;font-size:58px;fill:white;">S<tspan x="35px 69.008px 89.009px 120.009px 132.019px 164.019px 198.027px 226.027px 243.018px 277.026px 308.035px 339.035px 373.044px " y="0px 0px 0px 0px 0px 0px 0px 0px 0px 0px 0px 0px 0px ">ervices Layer</tspan></text>
                    </g>
                    <g transform="matrix(0.0199985,0,0,0.0199993,0,0)">
                        <rect x="9288" y="4200" width="19520" height="1328" style="fill:rgb(0,176,80);"/>
                    </g>
                    <g transform="matrix(0.319976,0,0,0.319989,290.495,103.299)">
                        <g transform="matrix(50,0,0,50,561.109,0)">
                        </g>
                        <text x="0px" y="0px" style="font-family:'ArialMT', 'Arial', sans-serif;font-size:50px;fill:white;">A<tspan x="34px 63.007px 87.007px 97.016px 128.023px 141.032px 170.039px 199.031px 233.03px 250.031px 260.039px 287.047px 295.28px 329.279px 358.287px 374.279px 404.286px 450.287px 477.294px 493.286px 503.294px 533.302px " y="0px 0px 0px 0px 0px 0px 0px 0px 0px 0px 0px 0px 0px 0px 0px 0px 0px 0px 0px 0px 0px 0px ">nsible/Aria Automation</tspan></text>
                    </g>
                    <g transform="matrix(0.0199985,0,0,0.0199993,0,0)">
                        <rect x="9304" y="5704" width="19536" height="1328" style="fill:rgb(0,176,80);"/>
                    </g>
                    <g transform="matrix(0.319976,0,0,0.319989,359.219,133.293)">
                        <g transform="matrix(50,0,0,50,133.273,0)">
                        </g>
                        <text x="0px" y="0px" style="font-family:'ArialMT', 'Arial', sans-serif;font-size:50px;fill:white;">T<tspan x="24.45px 51.458px 80.465px " y="0px 0px 0px ">anz</tspan>u</text>
                    </g>
                    <g transform="matrix(0.039997,0,0,0.0399986,0,0)">
                        <path d="M18836,16722C18836,16533 18989,16380 19178,16380L21591,16380C21780,16380 21932,16533 21932,16722L21932,18087C21932,18276 21780,18428 21591,18428L19178,18428C18989,18428 18836,18276 18836,18087L18836,16722Z" style="fill:rgb(15,15,15);"/>
                    </g>
                    <g transform="matrix(0.039997,0,0,0.0399986,0,0)">
                        <path d="M18836,16722C18836,16533 18989,16380 19178,16380L21591,16380C21780,16380 21932,16533 21932,16722L21932,18087C21932,18276 21780,18428 21591,18428L19178,18428C18989,18428 18836,18276 18836,18087L18836,16722Z" style="fill:none;stroke:rgb(3,109,188);stroke-width:67px;"/>
                    </g>
                    <g transform="matrix(0.319976,0,0,0.319989,785.413,692.417)">
                        <g transform="matrix(50,0,0,50,196.114,0)">
                        </g>
                        <text x="0px" y="0px" style="font-family:'ArialMT', 'Arial', sans-serif;font-size:50px;fill:white;">E<tspan x="31px 56px 71.991px 100.999px 117.999px 147.007px 174.014px " y="0px 0px 0px 0px 0px 0px 0px ">xternal</tspan></text>
                    </g>
                    <g transform="matrix(0.319976,0,0,0.319989,782.533,711.616)">
                        <g transform="matrix(50,0,0,50,209.65,0)">
                        </g>
                        <text x="0px" y="0px" style="font-family:'ArialMT', 'Arial', sans-serif;font-size:50px;fill:white;">S<tspan x="30px 63.999px 103.008px 114.999px 128px 157.992px 193px " y="0px 0px 0px 0px 0px 0px 0px ">AN (FC)</tspan></text>
                    </g>
                    <g transform="matrix(0.319976,0,0,0.319989,763.201,620.509)">
                        <g transform="matrix(58,0,0,58,357.253,0)">
                        </g>
                        <text x="0px" y="0px" style="font-family:'ArialMT', 'Arial', sans-serif;font-size:58px;fill:white;">A<tspan x="39px 57.99px 91.999px 119.999px 134.989px 169.988px 188.979px 222.988px 242.988px 273.997px 309.006px " y="0px 0px 0px 0px 0px 0px 0px 0px 0px 0px 0px ">tos Storage</tspan></text>
                    </g>
                    <g transform="matrix(0.319976,0,0,0.319989,793.599,642.908)">
                        <g transform="matrix(58,0,0,58,141.894,0)">
                        </g>
                        <text x="0px" y="0px" style="font-family:'ArialMT', 'Arial', sans-serif;font-size:58px;fill:white;">T<tspan x="28.562px 62.571px 93.58px " y="0px 0px 0px ">eam</tspan></text>
                    </g>
                    <g transform="matrix(0.039997,0,0,0.0399986,0,0)">
                        <path d="M18832,17404L16246,17404L16246,16588L13660,16588" style="fill:none;stroke:white;stroke-width:50px;"/>
                    </g>
                </g>
            </g>
        </g>
    </g>
</svg>
