<?xml version="1.0" encoding="UTF-8" standalone="no"?>
<!DOCTYPE svg PUBLIC "-//W3C//DTD SVG 1.1//EN" "http://www.w3.org/Graphics/SVG/1.1/DTD/svg11.dtd">
<svg width="100%" height="100%" viewBox="0 0 1134 703" version="1.1" xmlns="http://www.w3.org/2000/svg" xmlns:xlink="http://www.w3.org/1999/xlink" xml:space="preserve" xmlns:serif="http://www.serif.com/" style="fill-rule:evenodd;clip-rule:evenodd;stroke-linejoin:round;stroke-miterlimit:2;">
    <g transform="matrix(1,0,0,1,15.8206,23.0784)">
        <g id="Layer-1" serif:id="Layer 1">
            <g>
                <g transform="matrix(0.039997,0,0,0.0399986,0,0)">
                    <rect x="1884" y="2548" width="25312" height="1424" style="fill:rgb(0,176,240);"/>
                </g>
                <rect x="0" y="5.12" width="1089.2" height="638.697" style="fill:none;"/>
                <g transform="matrix(0.039997,0,0,0.0399986,0,0)">
                    <rect x="1884" y="2548" width="25312" height="1424" style="fill:none;stroke:rgb(0,112,192);stroke-width:67px;"/>
                </g>
                <rect x="0" y="0" width="1089.2" height="643.817" style="fill:none;"/>
                <g transform="matrix(0.319976,0,0,0.319989,488.108,130.543)">
                    <g transform="matrix(83,0,0,83,585.731,0)">
                    </g>
                    <text x="0px" y="0px" style="font-family:'ArialMT', 'Arial', sans-serif;font-size:83px;fill:white;">S<tspan x="49.999px 109.013px 168.027px 225.041px 248.027px 321.028px 366.041px 414.053px 459.066px 510.078px 558.091px " y="0px 0px 0px 0px 0px 0px 0px 0px 0px 0px 0px ">DDC Manager</tspan></text>
                </g>
                <g transform="matrix(0.319976,0,0,0.319989,466.99,152.302)">
                    <g transform="matrix(50,0,0,50,721.766,0)">
                    </g>
                    <text x="0px" y="0px" style="font-family:'ArialMT', 'Arial', sans-serif;font-size:50px;fill:white;">(<tspan x="13px 53.009px 63.017px 79.009px 108.016px 121.008px 156.016px 169.025px 199.032px 228.04px 259.048px 270.039px 300.031px 330.039px 359.046px 388.054px 419.062px 446.069px 462.061px 472.069px 502.077px 531.085px 543.076px 576.076px 605.083px 615.092px 628.1px 659.108px 688.115px 705.116px " y="0px 0px 0px 0px 0px 0px 0px 0px 0px 0px 0px 0px 0px 0px 0px 0px 0px 0px 0px 0px 0px 0px 0px 0px 0px 0px 0px 0px 0px 0px ">with Cloud Foundation Builder)</tspan></text>
                </g>
                <g transform="matrix(0.0199985,0,0,0.0199993,0,0)">
                    <rect x="3768" y="9624" width="12048" height="3776" style="fill:rgb(0,176,240);"/>
                </g>
                <g transform="matrix(0.0199985,0,0,0.0199993,0,0)">
                    <rect x="3768" y="9624" width="12048" height="3776" style="fill:none;stroke:rgb(0,112,192);stroke-width:133px;"/>
                </g>
                <g transform="matrix(0.319976,0,0,0.319989,138.386,230.489)">
                    <g transform="matrix(83,0,0,83,358.185,0)">
                    </g>
                    <text x="0px" y="0px" style="font-family:'ArialMT', 'Arial', sans-serif;font-size:83px;fill:white;">A<tspan x="55.999px 84px 101.014px 146.027px 169.013px 219.012px 268.025px 285.039px 312.025px " y="0px 0px 0px 0px 0px 0px 0px 0px 0px ">ria Suite</tspan></text>
                </g>
                <g transform="matrix(0.319976,0,0,0.319989,179.662,252.248)">
                    <g transform="matrix(50,0,0,50,105.65,0)">
                    </g>
                    <text x="0px" y="0px" style="font-family:'ArialMT', 'Arial', sans-serif;font-size:50px;fill:white;">(<tspan x="13px 44px 73.008px 88.999px " y="0px 0px 0px 0px ">Ent)</tspan></text>
                </g>
                <g transform="matrix(0.0199985,0,0,0.0199993,0,0)">
                    <rect x="16504" y="9624" width="12032" height="3776" style="fill:rgb(0,176,240);"/>
                </g>
                <g transform="matrix(0.0199985,0,0,0.0199993,0,0)">
                    <rect x="16504" y="9624" width="12032" height="3776" style="fill:none;stroke:rgb(0,112,192);stroke-width:133px;"/>
                </g>
                <g transform="matrix(0.319976,0,0,0.319989,423.909,240.089)">
                    <g transform="matrix(83,0,0,83,169.374,0)">
                    </g>
                    <text x="0px" y="0px" style="font-family:'ArialMT', 'Arial', sans-serif;font-size:83px;fill:white;">N<tspan x="64.014px 114.013px " y="0px 0px ">SX</tspan></text>
                </g>
                <g transform="matrix(0.039997,0,0,0.0399986,0,0)">
                    <rect x="14708" y="4812" width="6024" height="1888" style="fill:rgb(0,176,240);"/>
                </g>
                <g transform="matrix(0.039997,0,0,0.0399986,0,0)">
                    <rect x="14708" y="4812" width="6024" height="1888" style="fill:none;stroke:rgb(0,112,192);stroke-width:67px;"/>
                </g>
                <g transform="matrix(0.319976,0,0,0.319989,658.102,240.089)">
                    <g transform="matrix(83,0,0,83,315.199,0)">
                    </g>
                    <text x="0px" y="0px" style="font-family:'ArialMT', 'Arial', sans-serif;font-size:83px;fill:white;">v<tspan x="44px 93.999px 145.012px 193.025px 241.037px 269.038px " y="0px 0px 0px 0px 0px 0px ">Sphere</tspan></text>
                </g>
                <g transform="matrix(0.0199985,0,0,0.0199993,0,0)">
                    <rect x="3768" y="18984" width="12048" height="3776" style="fill:rgb(0,176,240);"/>
                </g>
                <g transform="matrix(0.0199985,0,0,0.0199993,0,0)">
                    <rect x="3768" y="18984" width="12048" height="3776" style="fill:none;stroke:rgb(0,112,192);stroke-width:133px;"/>
                </g>
                <g transform="matrix(0.319976,0,0,0.319989,132.306,427.169)">
                    <g transform="matrix(83,0,0,83,393.178,0)">
                    </g>
                    <text x="0px" y="0px" style="font-family:'ArialMT', 'Arial', sans-serif;font-size:83px;fill:white;">A<tspan x="55.999px 84px 101.014px 146.027px 169.013px 219.012px 267.025px 324.039px " y="0px 0px 0px 0px 0px 0px 0px 0px ">ria SLCM</tspan></text>
                </g>
                <g transform="matrix(0.039997,0,0,0.0399986,0,0)">
                    <rect x="14708" y="7172" width="6024" height="1888" style="fill:rgb(0,176,240);"/>
                </g>
                <g transform="matrix(0.039997,0,0,0.0399986,0,0)">
                    <rect x="14708" y="7172" width="6024" height="1888" style="fill:none;stroke:rgb(0,112,192);stroke-width:67px;"/>
                </g>
                <g transform="matrix(0.319976,0,0,0.319989,673.774,334.377)">
                    <g transform="matrix(83,0,0,83,218.373,0)">
                    </g>
                    <text x="0px" y="0px" style="font-family:'ArialMT', 'Arial', sans-serif;font-size:83px;fill:white;">V<tspan x="55.999px 113.013px 163.013px " y="0px 0px 0px ">CSA</tspan></text>
                </g>
                <g transform="matrix(0.039997,0,0,0.0399986,0,0)">
                    <rect x="14708" y="9532" width="6024" height="1888" style="fill:rgb(0,176,240);"/>
                </g>
                <g transform="matrix(0.039997,0,0,0.0399986,0,0)">
                    <rect x="14708" y="9532" width="6024" height="1888" style="fill:none;stroke:rgb(0,112,192);stroke-width:67px;"/>
                </g>
                <g transform="matrix(0.319976,0,0,0.319989,681.63,428.666)">
                    <g transform="matrix(83,0,0,83,171.438,0)">
                    </g>
                    <text x="0px" y="0px" style="font-family:'ArialMT', 'Arial', sans-serif;font-size:83px;fill:white;">E<tspan x="50.999px 100.999px 152.998px " y="0px 0px 0px ">SXi</tspan></text>
                </g>
                <g transform="matrix(0.039997,0,0,0.0399986,0,0)">
                    <rect x="21180" y="4804" width="6016" height="1888" style="fill:rgb(0,176,240);"/>
                </g>
                <rect x="0" y="5.12" width="1089.2" height="638.697" style="fill:none;"/>
                <g transform="matrix(0.039997,0,0,0.0399986,0,0)">
                    <rect x="21180" y="4804" width="6016" height="1888" style="fill:none;stroke:rgb(0,112,192);stroke-width:67px;"/>
                </g>
                <rect x="0" y="0" width="1089.2" height="643.817" style="fill:none;"/>
                <g transform="matrix(0.319976,0,0,0.319989,931.404,230.081)">
                    <g transform="matrix(83,0,0,83,221.938,0)">
                    </g>
                    <text x="0px" y="0px" style="font-family:'ArialMT', 'Arial', sans-serif;font-size:83px;fill:white;">V<tspan x="55.999px 105.999px 161.998px " y="0px 0px 0px ">SAN</tspan></text>
                </g>
                <g transform="matrix(0.319976,0,0,0.319989,919.245,251.84)">
                    <g transform="matrix(50,0,0,50,304.641,0)">
                    </g>
                    <text x="0px" y="0px" style="font-family:'ArialMT', 'Arial', sans-serif;font-size:50px;fill:white;">(<tspan x="13px 53.009px 63.017px 79.009px 108.016px 121.008px 157.016px 166.008px 200.008px 208.999px 241.008px 249.999px 279.999px 287.99px " y="0px 0px 0px 0px 0px 0px 0px 0px 0px 0px 0px 0px 0px 0px ">with D.A.R.E.)</tspan></text>
                </g>
                <g transform="matrix(0.0199985,0,0,0.0199993,0,0)">
                    <rect x="3816" y="23672" width="12048" height="3776" style="fill:rgb(0,176,240);"/>
                </g>
                <g transform="matrix(0.0199985,0,0,0.0199993,0,0)">
                    <rect x="3816" y="23672" width="12048" height="3776" style="fill:none;stroke:rgb(0,112,192);stroke-width:133px;"/>
                </g>
                <g transform="matrix(0.319976,0,0,0.319989,129.711,512.826)">
                    <g transform="matrix(83,0,0,83,416.111,0)">
                    </g>
                    <text x="0px" y="0px" style="font-family:'ArialMT', 'Arial', sans-serif;font-size:83px;fill:white;">A<tspan x="55.999px 84px 101.014px 146.027px 169.013px 188.999px 237.011px 277.011px 294.025px 345.038px 393.051px " y="0px 0px 0px 0px 0px 0px 0px 0px 0px 0px 0px ">ria Insight</tspan></text>
                </g>
                <g transform="matrix(0.319976,0,0,0.319989,116.911,532.025)">
                    <g transform="matrix(42,0,0,42,499.015,0)">
                    </g>
                    <text x="0px" y="0px" style="font-family:'ArialMT', 'Arial', sans-serif;font-size:42px;fill:white;">+<tspan x="16.999px 49.006px 74.006px 100.006px 123.999px 152.998px 177.998px 205.998px 238.005px 248.998px 271.998px 297.004px 321.011px 334.003px 358.01px 382.016px 395.009px 406.002px 432.009px 455.015px 478.015px " y="0px 0px 0px 0px 0px 0px 0px 0px 0px 0px 0px 0px 0px 0px 0px 0px 0px 0px 0px 0px 0px ">NSX/VSAN content pack</tspan></text>
                </g>
                <g transform="matrix(0.0199985,0,0,0.0199993,0,0)">
                    <rect x="3768" y="28344" width="12048" height="3776" style="fill:rgb(0,176,240);"/>
                </g>
                <rect x="0" y="5.12" width="1089.2" height="638.697" style="fill:none;"/>
                <g transform="matrix(0.0199985,0,0,0.0199993,0,0)">
                    <rect x="3768" y="28344" width="12048" height="3776" style="fill:none;stroke:rgb(0,112,192);stroke-width:133px;"/>
                </g>
                <rect x="0" y="0" width="1089.2" height="643.817" style="fill:none;"/>
                <g transform="matrix(0.319976,0,0,0.319989,102.555,614.482)">
                    <g transform="matrix(83,0,0,83,585.563,0)">
                    </g>
                    <text x="0px" y="0px" style="font-family:'ArialMT', 'Arial', sans-serif;font-size:83px;fill:white;">A<tspan x="55.999px 84px 101.014px 146.027px 169.013px 230.999px 282.011px 330.024px 358.025px 403.037px 430.023px 447.037px 496.05px 544.063px " y="0px 0px 0px 0px 0px 0px 0px 0px 0px 0px 0px 0px 0px 0px ">ria Operations</tspan></text>
                </g>
                <g transform="matrix(0.0199985,0,0,0.0199993,0,0)">
                    <rect x="16520" y="14312" width="12032" height="3792" style="fill:rgb(0,176,240);"/>
                </g>
                <g transform="matrix(0.0199985,0,0,0.0199993,0,0)">
                    <rect x="16520" y="14312" width="12032" height="3792" style="fill:none;stroke:rgb(0,112,192);stroke-width:133px;"/>
                </g>
                <g transform="matrix(0.319976,0,0,0.319989,410.519,333.904)">
                    <g transform="matrix(83,0,0,83,169.374,0)">
                    </g>
                    <text x="0px" y="0px" style="font-family:'ArialMT', 'Arial', sans-serif;font-size:83px;fill:white;">N<tspan x="64.014px 114.013px " y="0px 0px ">SX</tspan></text>
                </g>
                <g transform="matrix(0.319976,0,0,0.319989,463.635,333.904)">
                    <g transform="matrix(83,0,0,83,27.6396,0)">
                    </g>
                    <text x="0px" y="0px" style="font-family:'ArialMT', 'Arial', sans-serif;font-size:83px;fill:white;">-</text>
                </g>
                <g transform="matrix(0.319976,0,0,0.319989,474.834,333.904)">
                    <g transform="matrix(83,0,0,83,50.6997,0)">
                    </g>
                    <text x="0px" y="0px" style="font-family:'ArialMT', 'Arial', sans-serif;font-size:83px;fill:white;">T</text>
                </g>
                <rect x="0" y="5.12" width="1089.2" height="638.697" style="fill:none;"/>
                <clipPath id="_clip1">
                    <rect x="0" y="5.12" width="1089.2" height="638.697"/>
                </clipPath>
                <g clip-path="url(#_clip1)">
                    <g transform="matrix(0.0199985,0,0,0.0199993,0,0)">
                        <path d="M-8,14568L3016,14568" style="fill:none;stroke:rgb(75,75,75);stroke-width:100px;"/>
                    </g>
                    <g transform="matrix(0.0199985,0,0,0.0199993,0,0)">
                        <path d="M40,32120L3064,32120" style="fill:none;stroke:rgb(75,75,75);stroke-width:100px;"/>
                    </g>
                    <g transform="matrix(0.0199985,0,0,0.0199993,0,0)">
                        <path d="M1512,14568L1729,32120" style="fill:none;stroke:rgb(75,75,75);stroke-width:100px;"/>
                    </g>
                    <g transform="matrix(0.0199985,0,0,0.0199993,0,0)">
                        <path d="M216,7656L3240,7656" style="fill:none;stroke:rgb(75,75,75);stroke-width:100px;"/>
                    </g>
                    <g transform="matrix(0.0199985,0,0,0.0199993,0,0)">
                        <path d="M216,5384L3240,5384" style="fill:none;stroke:rgb(75,75,75);stroke-width:100px;"/>
                    </g>
                    <g transform="matrix(0.0199985,0,0,0.0199993,0,0)">
                        <path d="M1720,5384L1720,7652" style="fill:none;stroke:rgb(75,75,75);stroke-width:100px;"/>
                    </g>
                    <g transform="matrix(0.0199985,0,0,0.0199993,0,0)">
                        <path d="M168,13368L3192,13368" style="fill:none;stroke:rgb(75,75,75);stroke-width:100px;"/>
                    </g>
                    <g transform="matrix(0.0199985,0,0,0.0199993,0,0)">
                        <path d="M168,9624L3192,9624" style="fill:none;stroke:rgb(75,75,75);stroke-width:100px;"/>
                    </g>
                    <g transform="matrix(0.0199985,0,0,0.0199993,0,0)">
                        <path d="M1672,9624L1672,13370" style="fill:none;stroke:rgb(75,75,75);stroke-width:100px;"/>
                    </g>
                </g>
                <rect x="0" y="0" width="1089.2" height="643.817" style="fill:none;"/>
                <g transform="matrix(0.319976,0,0,0.319989,221.568,60.4824)">
                    <g transform="matrix(150,0,0,150,2263.2,0)">
                    </g>
                    <text x="0px" y="0px" style="font-family:'ArialMT', 'Arial', sans-serif;font-size:150px;fill:rgb(75,75,75);">V<tspan x="101.999px 234px 355.025px 436.048px 487.049px 574.072px 612.047px 715.072px 754.097px 843.12px 931.143px 1023.17px 1063.14px 1152.12px 1241.14px 1329.16px 1415.18px 1507.21px 1588.23px 1636.21px 1667.23px 1756.25px 1842.28px 1881.25px 1919.25px 2021.25px 2124.28px 2213.25px " y="0px 0px 0px 0px 0px 0px 0px 0px 0px 0px 0px 0px 0px 0px 0px 0px 0px 0px 0px 0px 0px 0px 0px 0px 0px 0px 0px 0px ">Mware Cloud Foundation (VCF)</tspan></text>
                </g>
                <g transform="matrix(0.0199985,0,0,0.0199993,0,0)">
                    <rect x="16504" y="19016" width="12032" height="3776" style="fill:rgb(0,176,240);"/>
                </g>
                <g transform="matrix(0.0199985,0,0,0.0199993,0,0)">
                    <rect x="16504" y="19016" width="12032" height="3776" style="fill:none;stroke:rgb(0,112,192);stroke-width:133px;"/>
                </g>
                <g transform="matrix(0.319976,0,0,0.319989,373.353,411.719)">
                    <g transform="matrix(83,0,0,83,502.661,0)">
                    </g>
                    <text x="0px" y="0px" style="font-family:'ArialMT', 'Arial', sans-serif;font-size:83px;fill:white;">A<tspan x="55.999px 84px 101.014px 146.027px 169.013px 217.025px 266.038px 317.051px 357.051px 378.037px 404.023px 453.035px " y="0px 0px 0px 0px 0px 0px 0px 0px 0px 0px 0px 0px ">ria Logs for</tspan></text>
                </g>
                <g transform="matrix(0.319976,0,0,0.319989,398.311,443.718)">
                    <g transform="matrix(83,0,0,83,324.54,0)">
                    </g>
                    <text x="0px" y="0px" style="font-family:'ArialMT', 'Arial', sans-serif;font-size:83px;fill:white;">N<tspan x="64.014px 112.027px 139.013px 206.027px 255.039px 283.04px " y="0px 0px 0px 0px 0px 0px ">etwork</tspan></text>
                </g>
                <g transform="matrix(0.0199985,0,0,0.0199993,0,0)">
                    <rect x="3768" y="14312" width="12048" height="3776" style="fill:rgb(0,176,240);"/>
                </g>
                <g transform="matrix(0.0199985,0,0,0.0199993,0,0)">
                    <rect x="3768" y="14312" width="12048" height="3776" style="fill:none;stroke:rgb(0,112,192);stroke-width:133px;"/>
                </g>
                <g transform="matrix(0.319976,0,0,0.319989,98.0752,333.679)">
                    <g transform="matrix(83,0,0,83,605.63,0)">
                    </g>
                    <text x="0px" y="0px" style="font-family:'ArialMT', 'Arial', sans-serif;font-size:83px;fill:white;">A<tspan x="55.999px 84px 101.014px 146.027px 164.433px 220.432px 269.445px 296.431px 345.444px 390.456px 466.457px 493.443px 510.457px 559.47px " y="0px 0px 0px 0px 0px 0px 0px 0px 0px 0px 0px 0px 0px 0px ">ria Autoamtion</tspan></text>
                </g>
            </g>
        </g>
    </g>
</svg>
