<?xml version="1.0" encoding="UTF-8" standalone="no"?>
<!DOCTYPE svg PUBLIC "-//W3C//DTD SVG 1.1//EN" "http://www.w3.org/Graphics/SVG/1.1/DTD/svg11.dtd">
<!-- Generated by Microsoft Visio, SVG Export access_review_process.svg Page-1 -->
<svg xmlns="http://www.w3.org/2000/svg" xmlns:xlink="http://www.w3.org/1999/xlink" xmlns:ev="http://www.w3.org/2001/xml-events"
		xmlns:v="http://schemas.microsoft.com/visio/2003/SVGExtensions/" width="11.7999in" height="7.46396in"
		viewBox="0 0 849.592 537.405" xml:space="preserve" color-interpolation-filters="sRGB" class="st16">
	<v:documentProperties v:langID="1033" v:metric="true" v:viewMarkup="false">
		<v:userDefs>
			<v:ud v:nameU="msvNoAutoConnect" v:val="VT0(1):26"/>
		</v:userDefs>
	</v:documentProperties>

	<style type="text/css">
	<![CDATA[
		.st1 {fill:#ffffff;stroke:#000000;stroke-linecap:round;stroke-linejoin:round;stroke-width:0.24}
		.st2 {fill:#000000;font-family:Calibri;font-size:0.666664em}
		.st3 {font-size:1em;font-weight:bold}
		.st4 {font-size:1em}
		.st5 {fill:none;stroke:#000000;stroke-linecap:round;stroke-linejoin:round;stroke-width:0.24}
		.st6 {fill:#fff2cc;stroke:#000000;stroke-linecap:round;stroke-linejoin:round;stroke-width:0.24}
		.st7 {fill:#000000;font-family:Calibri;font-size:0.833336em}
		.st8 {fill:#000000;font-family:Calibri;font-size:4.00001em}
		.st9 {marker-end:url(#mrkr5-56);stroke:#000000;stroke-linecap:round;stroke-linejoin:round;stroke-width:0.75}
		.st10 {fill:#000000;fill-opacity:1;stroke:#000000;stroke-opacity:1;stroke-width:0.22935779816514}
		.st11 {fill:#ffffff;stroke:none;stroke-linecap:butt;stroke-width:7.2}
		.st12 {fill:#ffffff;stroke:#000000;stroke-dasharray:1.68,1.2;stroke-linecap:round;stroke-linejoin:round;stroke-width:0.24}
		.st13 {fill:#000000;stroke:none;stroke-linecap:butt;stroke-width:6.375}
		.st14 {fill:#000000;stroke:none;stroke-linecap:round;stroke-linejoin:round;stroke-width:6.375}
		.st15 {fill:#000000;font-family:Calibri;font-size:0.75em}
		.st16 {fill:none;fill-rule:evenodd;font-size:12px;overflow:visible;stroke-linecap:square;stroke-miterlimit:3}
	]]>
	</style>

	<defs id="Markers">
		<g id="lend5">
			<path d="M 2 1 L 0 0 L 1.98117 -0.993387 C 1.67173 -0.364515 1.67301 0.372641 1.98465 1.00043 " style="stroke:none"/>
		</g>
		<marker id="mrkr5-56" class="st10" v:arrowType="5" v:arrowSize="2" v:setback="7.63" refX="-7.63" orient="auto"
				markerUnits="strokeWidth" overflow="visible">
			<use xlink:href="#lend5" transform="scale(-4.36,-4.36) "/>
		</marker>
	</defs>
	<g v:mID="0" v:index="1" v:groupContext="foregroundPage">
		<title>Page-1</title>
		<v:pageProperties v:drawingScale="0.0393701" v:pageScale="0.0393701" v:drawingUnits="24" v:shadowOffsetX="8.50394"
				v:shadowOffsetY="-8.50394"/>
		<v:layer v:name="Connector" v:index="0"/>
		<g id="group5-1" transform="translate(229.613,-425.567)" v:mID="5" v:groupContext="group">
			<title>Sheet.5</title>
			<g id="shape6-2" v:mID="6" v:groupContext="shape" transform="translate(0.395858,-18.8499)">
				<title>Rectangle</title>
				<desc>Scan task under DHC vCenter-ESXi to fetch AD accounts with gr...</desc>
				<v:userDefs>
					<v:ud v:nameU="visVersion" v:val="VT0(15):26"/>
				</v:userDefs>
				<v:textBlock v:margins="rect(4,4,4,4)" v:tabSpace="42.5197"/>
				<v:textRect cx="43.285" cy="502.528" width="86.58" height="69.7552"/>
				<rect x="0" y="467.65" width="86.5701" height="69.7552" class="st1"/>
				<text x="9.61" y="480.93" class="st2" v:langID="1033"><v:paragraph v:horizAlign="1"/><v:tabList/>Scan task under DHC <tspan
							x="8.21" dy="1.2em" class="st3">vCenter</tspan><tspan class="st3">-</tspan><tspan class="st3">ESXi to fetch </tspan><tspan
							x="14.29" dy="1.2em" class="st3">AD accounts with </tspan><tspan x="31.93" dy="1.2em" class="st3">groups<v:lf/><v:lf/></tspan><tspan
							x="9.22" dy="2.4em" class="st4">(Every day per week)</tspan></text>			</g>
		</g>
		<g id="group16-11" transform="translate(326.104,-462.592)" v:mID="16" v:groupContext="group">
			<title>Sheet.16</title>
			<g id="shape17-12" v:mID="17" v:groupContext="shape" transform="translate(32.9528,51.7323)">
				<title>Rectangle</title>
				<desc>DHC SOXDB script Task to Upload generated CSV files</desc>
				<v:userDefs>
					<v:ud v:nameU="visVersion" v:val="VT0(15):26"/>
				</v:userDefs>
				<v:textBlock v:margins="rect(4,4,4,4)" v:tabSpace="42.5197"/>
				<v:textRect cx="33.1299" cy="514.02" width="66.26" height="46.7717"/>
				<rect x="0" y="490.634" width="66.2598" height="46.7717" class="st1"/>
				<text x="13.94" y="497.22" class="st2" v:langID="1033"><v:paragraph v:horizAlign="1"/><v:tabList/>DHC SOXDB<v:lf/><tspan
							x="24.12" dy="1.2em" class="st4">script<v:lf/></tspan><tspan x="8.91" dy="1.2em" class="st4">Task to Upload<v:lf/></tspan><tspan
							x="16.42" dy="1.2em" class="st4">generated <v:lf/></tspan><tspan x="19.37" dy="1.2em" class="st4">CSV files</tspan></text>			</g>
		</g>
		<g id="group18-19" transform="translate(463.159,-410.86)" v:mID="18" v:groupContext="group">
			<title>Sheet.18</title>
			<g id="shape19-20" v:mID="19" v:groupContext="shape" transform="translate(-4.88976,0)">
				<title>Rectangle</title>
				<desc>DHC SOXDB API Weekly Upload CSV reports files (per scan type)</desc>
				<v:userDefs>
					<v:ud v:nameU="visVersion" v:val="VT0(15):26"/>
				</v:userDefs>
				<v:textBlock v:margins="rect(4,4,4,4)" v:tabSpace="42.5197"/>
				<v:textRect cx="35.2559" cy="514.02" width="70.52" height="46.7717"/>
				<rect x="0" y="490.634" width="70.5118" height="46.7717" class="st1"/>
				<text x="9.77" y="502.02" class="st2" v:langID="1033"><v:paragraph v:horizAlign="1"/><v:tabList/>DHC SOXDB API<v:lf/><tspan
							x="10.55" dy="1.2em" class="st4">Weekly Upload<v:lf/></tspan><tspan x="8.7" dy="1.2em" class="st4">CSV reports files<v:lf/></tspan><tspan
							x="11.02" dy="1.2em" class="st4">(per scan type)</tspan></text>			</g>
		</g>
		<g id="shape23-26" v:mID="23" v:groupContext="shape" transform="translate(18.12,-340.703)">
			<title>Rectangle</title>
			<v:userDefs>
				<v:ud v:nameU="visVersion" v:val="VT0(15):26"/>
			</v:userDefs>
			<rect x="0" y="358.823" width="805.89" height="178.583" class="st5"/>
		</g>
		<g id="shape24-28" v:mID="24" v:groupContext="shape" transform="translate(18.12,-18.12)">
			<title>Rectangle.24</title>
			<v:userDefs>
				<v:ud v:nameU="visVersion" v:val="VT0(15):26"/>
			</v:userDefs>
			<rect x="0" y="214.823" width="805.89" height="322.583" class="st5"/>
		</g>
		<g id="shape25-30" v:mID="25" v:groupContext="shape" transform="translate(18.12,-18.12)">
			<title>Rectangle.25</title>
			<desc>DHC – Vmware accounts review process</desc>
			<v:userDefs>
				<v:ud v:nameU="visVersion" v:val="VT0(15):26"/>
			</v:userDefs>
			<v:textBlock v:margins="rect(4,4,4,4)" v:tabSpace="42.5197"/>
			<v:textRect cx="26.4331" cy="342.098" width="52.87" height="390.614"/>
			<rect x="0" y="146.791" width="52.8661" height="390.614" class="st6"/>
			<text x="13.96" y="321.1" class="st7" v:langID="1033"><v:paragraph v:horizAlign="1"/><v:tabList/>DHC – <tspan x="9.4"
						dy="1.2em" class="st4">Vmware </tspan><tspan x="8.29" dy="1.2em" class="st4">accounts </tspan><tspan
						x="12.73" dy="1.2em" class="st4">review </tspan><tspan x="10.91" dy="1.2em" class="st4">process</tspan></text>		</g>
		<g id="shape26-37" v:mID="26" v:groupContext="shape" transform="translate(18.12,-340.703)">
			<title>Rectangle.26</title>
			<desc>DevSecops Team</desc>
			<v:userDefs>
				<v:ud v:nameU="visVersion" v:val="VT0(15):26"/>
			</v:userDefs>
			<v:textBlock v:margins="rect(4,4,4,4)" v:tabSpace="42.5197"/>
			<v:textRect cx="26.4331" cy="448.114" width="52.87" height="178.583"/>
			<rect x="0" y="358.823" width="52.8661" height="178.583" class="st6"/>
			<text x="4.49" y="445.11" class="st7" v:langID="1033"><v:paragraph v:horizAlign="1"/><v:tabList/>DevSecops<v:lf/><tspan
						x="15.12" dy="1.2em" class="st4">Team</tspan></text>		</g>
		<g id="group27-41" transform="translate(340.277,-281.85)" v:mID="27" v:groupContext="group">
			<title>Sheet.27</title>
			<g id="shape28-42" v:mID="28" v:groupContext="shape" transform="translate(-4.88976,0)">
				<title>Rectangle</title>
				<desc>Review of VMware ESXi AD accounts</desc>
				<v:userDefs>
					<v:ud v:nameU="visVersion" v:val="VT0(15):26"/>
				</v:userDefs>
				<v:textBlock v:margins="rect(4,4,4,4)" v:tabSpace="42.5197"/>
				<v:textRect cx="30.6954" cy="514.02" width="61.4" height="46.7717"/>
				<rect x="0" y="490.634" width="61.3908" height="46.7717" class="st1"/>
				<text x="14.72" y="502.02" class="st2" v:langID="1033"><v:paragraph v:horizAlign="1"/><v:tabList/>Review of <tspan
							x="16.85" dy="1.2em" class="st4">VMware <v:lf/></tspan><tspan x="18.23" dy="1.2em" class="st4">ESXi AD </tspan><tspan
							x="16.18" dy="1.2em" class="st4">accounts</tspan></text>			</g>
		</g>
		<g id="shape29-48" v:mID="29" v:groupContext="shape" transform="translate(471.054,-249.994)">
			<title>Diamond</title>
			<desc>X</desc>
			<v:userDefs>
				<v:ud v:nameU="visVersion" v:prompt="" v:val="VT0(15):26"/>
			</v:userDefs>
			<v:textBlock v:margins="rect(4,4,4,4)" v:tabSpace="42.5197"/>
			<v:textRect cx="43.285" cy="504.942" width="86.58" height="64.9276"/>
			<path d="M43.29 537.41 L86.57 504.94 L43.29 472.48 L0 504.94 L43.29 537.41 Z" class="st1"/>
			<text x="30.83" y="519.34" class="st8" v:langID="1033"><v:paragraph v:horizAlign="1"/><v:tabList/>X</text>		</g>
		<g id="shape33-51" v:mID="33" v:groupContext="shape" v:layerMember="0" transform="translate(396.779,-305.236)">
			<title>Dynamic connector</title>
			<path d="M0 537.41 L11.77 537.41 L11.77 560.18 L68.55 560.18" class="st9"/>
		</g>
		<g id="group34-57" transform="translate(604.892,-259.072)" v:mID="34" v:groupContext="group">
			<title>Sheet.34</title>
			<g id="shape35-58" v:mID="35" v:groupContext="shape" transform="translate(-4.88976,0)">
				<title>Rectangle</title>
				<desc>Prepare CSV input file and upload ** mass_import.html</desc>
				<v:userDefs>
					<v:ud v:nameU="visVersion" v:val="VT0(15):26"/>
				</v:userDefs>
				<v:textBlock v:margins="rect(4,4,4,4)" v:tabSpace="42.5197"/>
				<v:textRect cx="47.0906" cy="514.02" width="94.19" height="46.7717"/>
				<rect x="0" y="490.634" width="94.1811" height="46.7717" class="st1"/>
				<text x="11.67" y="506.82" class="st2" v:langID="1033"><v:paragraph v:horizAlign="1"/><v:tabList/>Prepare CSV input file<v:lf/><tspan
							x="23.93" dy="1.2em" class="st4">and upload </tspan><tspan class="st3">**<v:lf/></tspan><tspan x="16.5"
							dy="1.2em" class="st3">mass_import.html</tspan></text>			</g>
		</g>
		<g id="shape36-64" v:mID="36" v:groupContext="shape" v:layerMember="0" transform="translate(557.624,-275.371)">
			<title>Dynamic connector.36</title>
			<desc>NO</desc>
			<v:textBlock v:margins="rect(4,4,4,4)" v:tabSpace="42.5197"/>
			<v:textRect cx="21.189" cy="530.319" width="40" height="17.6036"/>
			<path d="M0 530.32 L36.66 530.32" class="st9"/>
			<rect v:rectContext="textBkgnd" x="15.9584" y="525.519" width="10.4609" height="9.59985" class="st11"/>
			<text x="15.96" y="532.72" class="st2" v:langID="1033"><v:paragraph v:horizAlign="1"/><v:tabList/>NO</text>		</g>
		<g id="group37-71" transform="translate(472.585,-169.915)" v:mID="37" v:groupContext="group">
			<title>Sheet.37</title>
			<g id="shape38-72" v:mID="38" v:groupContext="shape" transform="translate(-4.88976,0)">
				<title>Rectangle</title>
				<desc>Identify Service Accounts from the error list</desc>
				<v:userDefs>
					<v:ud v:nameU="visVersion" v:val="VT0(15):26"/>
				</v:userDefs>
				<v:textBlock v:margins="rect(4,4,4,4)" v:tabSpace="42.5197"/>
				<v:textRect cx="47.0906" cy="514.02" width="94.19" height="46.7717"/>
				<rect x="0" y="490.634" width="94.1811" height="46.7717" class="st1"/>
				<text x="6.25" y="511.62" class="st2" v:langID="1033"><v:paragraph v:horizAlign="1"/><v:tabList/>Identify Service Accounts <tspan
							x="18" dy="1.2em" class="st4">from the error list</tspan></text>			</g>
		</g>
		<g id="shape39-76" v:mID="39" v:groupContext="shape" v:layerMember="0" transform="translate(507.476,-249.994)">
			<title>Dynamic connector.39</title>
			<desc>YES</desc>
			<v:textBlock v:margins="rect(4,4,4,4)" v:tabSpace="42.5197"/>
			<v:textRect cx="7.30984" cy="553.836" width="40" height="17.6036"/>
			<path d="M6.86 537.41 L6.86 549.18 L7.31 549.18 L7.31 564.99" class="st9"/>
			<rect v:rectContext="textBkgnd" x="1.56955" y="549.036" width="11.4804" height="9.59985" class="st11"/>
			<text x="1.57" y="556.24" class="st2" v:langID="1033"><v:paragraph v:horizAlign="1"/><v:tabList/>YES</text>		</g>
		<g id="group40-83" transform="translate(453.592,-313.752)" v:mID="40" v:groupContext="group">
			<title>Sheet.40</title>
			<g id="shape41-84" v:mID="41" v:groupContext="shape" transform="translate(-7.02045,0)">
				<title>Rectangle</title>
				<desc>Are they any accounts not found by SOXDB in DAS?</desc>
				<v:userDefs>
					<v:ud v:nameU="visVersion" v:val="VT0(15):26"/>
				</v:userDefs>
				<v:textBlock v:margins="rect(4,4,4,4)" v:tabSpace="42.5197"/>
				<v:textRect cx="67.61" cy="524.683" width="135.22" height="25.4445"/>
				<path d="M0 537.41 L135.22 537.41 L135.22 511.96 L0 511.96 L0 537.41 Z" class="st12"/>
				<text x="14.62" y="522.28" class="st2" v:langID="1033"><v:paragraph v:horizAlign="1"/><v:tabList/>Are they any accounts not found <v:lf/><tspan
							x="38.3" dy="1.2em" class="st4">by SOXDB in DAS?</tspan></text>			</g>
		</g>
		<g id="group42-88" transform="translate(-437.012,393.994) rotate(-90)" v:mID="42" v:groupContext="group">
			<title>Sheet.42</title>
			<g id="shape43-89" v:mID="43" v:groupContext="shape" transform="translate(-43.6318,-1.06093)">
				<title>Rectangle</title>
				<desc>Service Responsible Manager</desc>
				<v:userDefs>
					<v:ud v:nameU="visVersion" v:val="VT0(15):26"/>
				</v:userDefs>
				<v:textBlock v:margins="rect(4,4,4,4)" v:tabSpace="42.5197"/>
				<v:textRect cx="120.472" cy="523.232" width="240.95" height="28.3465"/>
				<rect x="0" y="509.059" width="240.945" height="28.3465" class="st1"/>
				<text x="72.88" y="525.63" class="st2" v:langID="1033"><v:paragraph v:horizAlign="1"/><v:tabList/>Service Responsible Manager</text>			</g>
		</g>
		<g id="group51-92" transform="translate(90.5594,-433.225)" v:mID="51" v:groupContext="group">
			<title>Sheet.51</title>
			<g id="group4-93" v:mID="4" v:groupContext="group">
				<title>Sheet.4</title>
				<g id="shape1-94" v:mID="1" v:groupContext="shape">
					<title>Rectangle</title>
					<desc>Every week scans occurs automatically</desc>
					<v:userDefs>
						<v:ud v:nameU="visVersion" v:val="VT0(15):26"/>
					</v:userDefs>
					<v:textBlock v:margins="rect(4,4,4,4)" v:tabSpace="42.5197"/>
					<v:textRect cx="49.7754" cy="514.02" width="99.56" height="46.7717"/>
					<rect x="0" y="490.634" width="99.5507" height="46.7717" class="st1"/>
					<text x="40.82" y="502.02" class="st2" v:langID="1033"><v:paragraph v:horizAlign="1"/><v:tabList/>Every <v:lf/><tspan
								x="31.38" dy="1.2em" class="st4">week scans <v:lf/></tspan><tspan x="39.22" dy="1.2em" class="st4">occurs<v:lf/></tspan><tspan
								x="27.69" dy="1.2em" class="st4">automatically </tspan> </text>				</g>
			</g>
			<g id="group44-100" transform="translate(-2.19824E-14,-9.62793)" v:mID="44" v:groupContext="group">
				<title>Sheet.44</title>
				<g id="shape45-101" v:mID="45" v:groupContext="shape" transform="translate(11.4057,-18.7162)">
					<title>Sheet.45</title>
					<ellipse cx="0.676896" cy="536.728" rx="0.676896" ry="0.676896" class="st13"/>
				</g>
				<g id="shape46-103" v:mID="46" v:groupContext="shape" transform="translate(11.4057,-5.17825)">
					<title>Sheet.46</title>
					<ellipse cx="0.676896" cy="536.728" rx="0.676896" ry="0.676896" class="st13"/>
				</g>
				<g id="shape47-105" v:mID="47" v:groupContext="shape" transform="translate(18.1746,-12.2857)">
					<title>Sheet.47</title>
					<ellipse cx="0.676896" cy="536.728" rx="0.676896" ry="0.676896" class="st13"/>
				</g>
				<g id="shape48-107" v:mID="48" v:groupContext="shape" transform="translate(4.63673,-12.2857)">
					<title>Sheet.48</title>
					<ellipse cx="0.676896" cy="536.728" rx="0.676896" ry="0.676896" class="st13"/>
				</g>
				<g id="shape49-109" v:mID="49" v:groupContext="shape" transform="translate(11.4057,-9.13809)">
					<title>Sheet.49</title>
					<path d="M1.35 528.84 L0 528.84 L0 533.58 C0 533.75 0.07 533.92 0.2 534.05 L3.55 537.41 L4.5 536.46 L1.35 533.31
								 L1.35 528.84 Z" class="st13"/>
				</g>
				<g id="shape50-111" v:mID="50" v:groupContext="shape">
					<title>Sheet.50</title>
					<path d="M12.08 534.26 C6.84 534.26 2.61 530.03 2.61 524.78 C2.61 519.54 6.84 515.3 12.08 515.3 C17.33 515.3
								 21.56 519.54 21.56 524.78 C21.56 530.03 17.33 534.26 12.08 534.26 ZM20.1 516.52 L21.12 515.51 C21.49
								 515.1 21.49 514.49 21.09 514.09 C20.71 513.71 20.07 513.68 19.66 514.05 L18.51 515.24 C16.89 514.15
								 15.03 513.48 13.1 513.34 L13.1 511.92 L16.14 511.92 L16.14 509.89 L8.02 509.89 L8.02 511.92 L11.07
								 511.92 L11.07 513.31 C5.69 513.78 1.35 517.94 0.68 523.33 C0 528.71 3.15 533.82 8.26 535.61 C13.37
								 537.41 19.02 535.44 21.9 530.84 C24.77 526.24 23.96 520.28 20.1 516.52 Z" class="st13"/>
				</g>
			</g>
		</g>
		<g id="shape54-113" v:mID="54" v:groupContext="shape" v:layerMember="0" transform="translate(190.11,-456.61)">
			<title>Dynamic connector.54</title>
			<path d="M0 537.41 L11.77 537.41 L11.77 514.72 L34.18 514.72" class="st9"/>
		</g>
		<g id="shape55-118" v:mID="55" v:groupContext="shape" v:layerMember="0" transform="translate(316.579,-479.295)">
			<title>Dynamic connector.55</title>
			<path d="M0 537.41 L16.61 537.41 L16.61 582.45 L36.76 582.45" class="st9"/>
		</g>
		<g id="shape56-123" v:mID="56" v:groupContext="shape" v:layerMember="0" transform="translate(425.317,-427.159)">
			<title>Dynamic connector.56</title>
			<path d="M0 530.32 L27.23 530.32" class="st9"/>
		</g>
		<g id="group58-128" transform="translate(104.045,-281.85)" v:mID="58" v:groupContext="group">
			<title>Sheet.58</title>
			<g id="group59-129" v:mID="59" v:groupContext="group">
				<title>Sheet.59</title>
				<g id="shape60-130" v:mID="60" v:groupContext="shape">
					<title>Rectangle</title>
					<desc>Every first month of each quarter</desc>
					<v:userDefs>
						<v:ud v:nameU="visVersion" v:val="VT0(15):26"/>
					</v:userDefs>
					<v:textBlock v:margins="rect(4,4,4,4)" v:tabSpace="42.5197"/>
					<v:textRect cx="51.9449" cy="514.02" width="103.89" height="46.7717"/>
					<rect x="0" y="490.634" width="103.89" height="46.7717" class="st1"/>
					<text x="35.65" y="506.82" class="st2" v:langID="1033"><v:paragraph v:horizAlign="1"/><v:tabList/>Every first <v:lf/><tspan
								x="41.1" dy="1.2em" class="st4">month <v:lf/></tspan><tspan x="26.87" dy="1.2em" class="st4">of each quarter</tspan></text>				</g>
			</g>
			<g id="group61-135" transform="translate(-2.19824E-14,-9.62793)" v:mID="61" v:groupContext="group">
				<title>Sheet.61</title>
				<g id="shape62-136" v:mID="62" v:groupContext="shape" transform="translate(11.4057,-18.7162)">
					<title>Sheet.62</title>
					<ellipse cx="0.676896" cy="536.728" rx="0.676896" ry="0.676896" class="st13"/>
				</g>
				<g id="shape63-138" v:mID="63" v:groupContext="shape" transform="translate(11.4057,-5.17825)">
					<title>Sheet.63</title>
					<ellipse cx="0.676896" cy="536.728" rx="0.676896" ry="0.676896" class="st13"/>
				</g>
				<g id="shape64-140" v:mID="64" v:groupContext="shape" transform="translate(18.1746,-12.2857)">
					<title>Sheet.64</title>
					<ellipse cx="0.676896" cy="536.728" rx="0.676896" ry="0.676896" class="st13"/>
				</g>
				<g id="shape65-142" v:mID="65" v:groupContext="shape" transform="translate(4.63673,-12.2857)">
					<title>Sheet.65</title>
					<ellipse cx="0.676896" cy="536.728" rx="0.676896" ry="0.676896" class="st13"/>
				</g>
				<g id="shape66-144" v:mID="66" v:groupContext="shape" transform="translate(11.4057,-9.13809)">
					<title>Sheet.66</title>
					<path d="M1.35 528.84 L0 528.84 L0 533.58 C0 533.75 0.07 533.92 0.2 534.05 L3.55 537.41 L4.5 536.46 L1.35 533.31
								 L1.35 528.84 Z" class="st13"/>
				</g>
				<g id="shape67-146" v:mID="67" v:groupContext="shape">
					<title>Sheet.67</title>
					<path d="M12.08 534.26 C6.84 534.26 2.61 530.03 2.61 524.78 C2.61 519.54 6.84 515.3 12.08 515.3 C17.33 515.3
								 21.56 519.54 21.56 524.78 C21.56 530.03 17.33 534.26 12.08 534.26 ZM20.1 516.52 L21.12 515.51 C21.49
								 515.1 21.49 514.49 21.09 514.09 C20.71 513.71 20.07 513.68 19.66 514.05 L18.51 515.24 C16.89 514.15
								 15.03 513.48 13.1 513.34 L13.1 511.92 L16.14 511.92 L16.14 509.89 L8.02 509.89 L8.02 511.92 L11.07
								 511.92 L11.07 513.31 C5.69 513.78 1.35 517.94 0.68 523.33 C0 528.71 3.15 533.82 8.26 535.61 C13.37
								 537.41 19.02 535.44 21.9 530.84 C24.77 526.24 23.96 520.28 20.1 516.52 Z" class="st13"/>
				</g>
			</g>
		</g>
		<g id="group68-148" transform="translate(245.813,-281.85)" v:mID="68" v:groupContext="group">
			<title>Sheet.68</title>
			<g id="shape69-149" v:mID="69" v:groupContext="shape" transform="translate(-8.53228,10.1816)">
				<title>Rectangle</title>
				<desc>Generate export of VMware vCenter-ESXi accounts using SOXDB G...</desc>
				<v:userDefs>
					<v:ud v:nameU="visVersion" v:val="VT0(15):26"/>
				</v:userDefs>
				<v:textBlock v:margins="rect(4,4,4,4)" v:tabSpace="42.5197"/>
				<v:textRect cx="38.0551" cy="508.929" width="76.12" height="56.9532"/>
				<rect x="0" y="480.452" width="76.1102" height="56.9532" class="st1"/>
				<text x="7" y="492.13" class="st2" v:langID="1033"><v:paragraph v:horizAlign="1"/><v:tabList/>Generate export of <tspan
							x="9.32" dy="1.2em" class="st4">VMware vCenter</tspan>-<tspan x="15.85" dy="1.2em" class="st4">ESXi accounts<v:lf/></tspan><tspan
							x="10.38" dy="1.2em" class="st4">using SOXDB GUI </tspan><tspan x="30.48" dy="1.2em" class="st4">view</tspan></text>			</g>
		</g>
		<g id="shape70-156" v:mID="70" v:groupContext="shape" v:layerMember="0" transform="translate(207.934,-309.777)">
			<title>Dynamic connector.70</title>
			<path d="M0 541.95 L11.77 541.95 L11.77 547.04 L23.62 547.04" class="st9"/>
		</g>
		<g id="shape71-161" v:mID="71" v:groupContext="shape" v:layerMember="0" transform="translate(313.391,-295.604)">
			<title>Dynamic connector.71</title>
			<path d="M0 532.86 L11.77 532.86 L11.77 527.77 L16.27 527.77" class="st9"/>
		</g>
		<g id="shape72-166" v:mID="72" v:groupContext="shape" v:layerMember="0" transform="translate(694.396,-282.458)">
			<title>Dynamic connector.72</title>
			<desc>Upload API</desc>
			<v:textBlock v:margins="rect(4,4,4,4)" v:tabSpace="42.5197"/>
			<v:textRect cx="11.5594" cy="449.769" width="40" height="27.2035"/>
			<path d="M-0.21 537.41 L11.56 537.41 L11.56 375.88 L-8.24 375.88" class="st9"/>
			<rect v:rectContext="textBkgnd" x="-0.153336" y="440.17" width="23.4256" height="19.1997" class="st11"/>
			<text x="-0.15" y="447.37" class="st2" v:langID="1033"><v:paragraph v:horizAlign="1"/><v:tabList/>Upload<v:lf/><tspan
						x="6.17" dy="1.2em" class="st4">API</tspan></text>		</g>
		<g id="group73-174" transform="translate(472.585,-104.01)" v:mID="73" v:groupContext="group">
			<title>Sheet.73</title>
			<g id="shape74-175" v:mID="74" v:groupContext="shape" transform="translate(-4.88976,0)">
				<title>Rectangle</title>
				<desc>Create JIRA story for the DevSecOps to review and identify no...</desc>
				<v:userDefs>
					<v:ud v:nameU="visVersion" v:val="VT0(15):26"/>
				</v:userDefs>
				<v:textBlock v:margins="rect(4,4,4,4)" v:tabSpace="42.5197"/>
				<v:textRect cx="47.0906" cy="514.02" width="94.19" height="46.7717"/>
				<rect x="0" y="490.634" width="94.1811" height="46.7717" class="st1"/>
				<text x="7.57" y="502.02" class="st2" v:langID="1033"><v:paragraph v:horizAlign="1"/><v:tabList/>Create JIRA story for the<v:lf/><tspan
							x="5.76" dy="1.2em" class="st4">DevSecOps to review and </tspan><tspan x="19.2" dy="1.2em" class="st4">identify non</tspan>-user <tspan
							x="32.58" dy="1.2em" class="st4">accounts</tspan></text>			</g>
		</g>
		<g id="shape75-181" v:mID="75" v:groupContext="shape" v:layerMember="0" transform="translate(507.699,-169.915)">
			<title>Dynamic connector.75</title>
			<path d="M7.09 537.41 L7.09 550.82" class="st9"/>
		</g>
		<g id="shape77-186" v:mID="77" v:groupContext="shape" transform="translate(-438.365,519.405) rotate(-90)">
			<title>Rectangle.77</title>
			<desc>DevSecops Team lead /delegate</desc>
			<v:userDefs>
				<v:ud v:nameU="visVersion" v:val="VT0(15):26"/>
			</v:userDefs>
			<v:textBlock v:margins="rect(4,4,4,4)" v:tabSpace="42.5197"/>
			<v:textRect cx="39.9455" cy="523.378" width="79.9" height="28.0544"/>
			<rect x="0" y="509.351" width="79.8911" height="28.0544" class="st1"/>
			<text x="4.61" y="520.98" class="st2" v:langID="1033"><v:paragraph v:horizAlign="1"/><v:tabList/>DevSecops Team lead<v:lf/><tspan
						x="24.27" dy="1.2em" class="st4">/delegate</tspan></text>		</g>
		<g id="shape76-190" v:mID="76" v:groupContext="shape" transform="translate(70.8661,-18.4494)">
			<title>Rectangle.76</title>
			<v:userDefs>
				<v:ud v:nameU="visVersion" v:val="VT0(15):26"/>
			</v:userDefs>
			<rect x="0" y="457.514" width="752.904" height="79.8911" class="st5"/>
		</g>
		<g id="group78-192" transform="translate(604.892,-169.915)" v:mID="78" v:groupContext="group">
			<title>Sheet.78</title>
			<g id="shape79-193" v:mID="79" v:groupContext="shape" transform="translate(-4.88976,0)">
				<title>Rectangle</title>
				<desc>Identify Service Accounts from the error list that needs to b...</desc>
				<v:userDefs>
					<v:ud v:nameU="visVersion" v:val="VT0(15):26"/>
				</v:userDefs>
				<v:textBlock v:margins="rect(4,4,4,4)" v:tabSpace="42.5197"/>
				<v:textRect cx="47.0906" cy="514.02" width="94.19" height="46.7717"/>
				<rect x="0" y="490.634" width="94.1811" height="46.7717" class="st1"/>
				<text x="6.25" y="506.82" class="st2" v:langID="1033"><v:paragraph v:horizAlign="1"/><v:tabList/>Identify Service Accounts <tspan
							x="18" dy="1.2em" class="st4">from the error list<v:lf/></tspan><tspan x="4.9" dy="1.2em" class="st4">that needs to be removed</tspan></text>			</g>
		</g>
		<g id="shape80-198" v:mID="80" v:groupContext="shape" v:layerMember="0" transform="translate(561.876,-186.214)">
			<title>Dynamic connector.80</title>
			<path d="M0 530.32 L32.4 530.32" class="st9"/>
		</g>
		<g id="shape81-203" v:mID="81" v:groupContext="shape" v:layerMember="0" transform="translate(640.006,-216.687)">
			<title>Dynamic connector.81</title>
			<path d="M7.09 537.41 L7.09 500.74" class="st9"/>
		</g>
		<g id="group82-208" transform="translate(472.585,-28.183)" v:mID="82" v:groupContext="group">
			<title>Sheet.82</title>
			<g id="shape83-209" v:mID="83" v:groupContext="shape" transform="translate(-4.88976,0)">
				<title>Rectangle</title>
				<desc>Review and identify non-user accounts</desc>
				<v:userDefs>
					<v:ud v:nameU="visVersion" v:val="VT0(15):26"/>
				</v:userDefs>
				<v:textBlock v:margins="rect(4,4,4,4)" v:tabSpace="42.5197"/>
				<v:textRect cx="47.0906" cy="514.02" width="94.19" height="46.7717"/>
				<rect x="0" y="490.634" width="94.1811" height="46.7717" class="st1"/>
				<text x="6.59" y="511.62" class="st2" v:langID="1033"><v:paragraph v:horizAlign="1"/><v:tabList/>Review and identify non-<tspan
							x="24.62" dy="1.2em" class="st4">user accounts</tspan></text>			</g>
		</g>
		<g id="shape84-213" v:mID="84" v:groupContext="shape" transform="translate(600.427,-28.183)">
			<title>Rectangle.84</title>
			<desc>Provide review results to the SRM</desc>
			<v:userDefs>
				<v:ud v:nameU="visVersion" v:val="VT0(15):26"/>
			</v:userDefs>
			<v:textBlock v:margins="rect(4,4,4,4)" v:tabSpace="42.5197"/>
			<v:textRect cx="47.0906" cy="514.02" width="94.19" height="46.7717"/>
			<rect x="0" y="490.634" width="94.1811" height="46.7717" class="st1"/>
			<text x="22.84" y="511.62" class="st2" v:langID="1033"><v:paragraph v:horizAlign="1"/><v:tabList/>Provide review <v:lf/><tspan
						x="17.19" dy="1.2em" class="st4">results to the SRM</tspan></text>		</g>
		<g id="shape85-217" v:mID="85" v:groupContext="shape" v:layerMember="0" transform="translate(654.392,-74.9546)">
			<title>Dynamic connector.85</title>
			<path d="M-6.87 537.41 L-7.3 495.45 L-7.3 448.17" class="st9"/>
		</g>
		<g id="shape86-222" v:mID="86" v:groupContext="shape" v:layerMember="0" transform="translate(507.699,-104.01)">
			<title>Dynamic connector.86</title>
			<path d="M7.09 537.41 L7.09 560.74" class="st9"/>
		</g>
		<g id="shape87-227" v:mID="87" v:groupContext="shape" v:layerMember="0" transform="translate(561.876,-44.4822)">
			<title>Dynamic connector.87</title>
			<path d="M0 530.32 L32.83 530.32" class="st9"/>
		</g>
		<g id="group95-232" transform="translate(523.785,-415.821)" v:mID="95" v:groupContext="group">
			<title>Sheet.95</title>
			<g id="group52-233" v:mID="52" v:groupContext="group">
				<title>Sheet.52</title>
			</g>
		</g>
		<g id="group96-234" transform="translate(727.703,-440.886)" v:mID="96" v:groupContext="group">
			<title>Sheet.96</title>
			<g id="shape97-235" v:mID="97" v:groupContext="shape" transform="translate(-4.88976,0)">
				<title>Rectangle</title>
				<desc>Every one week notification sent by SOXDB who didn’t complete...</desc>
				<v:userDefs>
					<v:ud v:nameU="visVersion" v:val="VT0(15):26"/>
				</v:userDefs>
				<v:textBlock v:margins="rect(4,4,4,4)" v:tabSpace="42.5197"/>
				<v:textRect cx="47.0906" cy="514.02" width="94.19" height="46.7717"/>
				<rect x="0" y="490.634" width="94.1811" height="46.7717" class="st1"/>
				<text x="21.47" y="497.22" class="st2" v:langID="1033"><v:paragraph v:horizAlign="1"/><v:tabList/>Every one week<v:lf/><tspan
							x="15.69" dy="1.2em" class="st4">notification sent by </tspan><tspan x="35.89" dy="1.2em" class="st4">SOXDB<v:lf/></tspan><tspan
							x="11.21" dy="1.2em" class="st4">who didn</tspan>’t completed <tspan x="36.13" dy="1.2em" class="st4">review</tspan></text>			</g>
		</g>
		<g id="group88-242" transform="translate(799.235,-481.105)" v:mID="88" v:groupContext="group">
			<title>Sheet.88</title>
			<g id="shape89-243" v:mID="89" v:groupContext="shape" transform="translate(11.4057,-18.7162)">
				<title>Sheet.89</title>
				<ellipse cx="0.676896" cy="536.728" rx="0.676896" ry="0.676896" class="st13"/>
			</g>
			<g id="shape90-245" v:mID="90" v:groupContext="shape" transform="translate(11.4057,-5.17825)">
				<title>Sheet.90</title>
				<ellipse cx="0.676896" cy="536.728" rx="0.676896" ry="0.676896" class="st13"/>
			</g>
			<g id="shape91-247" v:mID="91" v:groupContext="shape" transform="translate(18.1746,-12.2857)">
				<title>Sheet.91</title>
				<ellipse cx="0.676896" cy="536.728" rx="0.676896" ry="0.676896" class="st13"/>
			</g>
			<g id="shape92-249" v:mID="92" v:groupContext="shape" transform="translate(4.63673,-12.2857)">
				<title>Sheet.92</title>
				<ellipse cx="0.676896" cy="536.728" rx="0.676896" ry="0.676896" class="st13"/>
			</g>
			<g id="shape93-251" v:mID="93" v:groupContext="shape" transform="translate(11.4057,-9.13809)">
				<title>Sheet.93</title>
				<path d="M1.35 528.84 L0 528.84 L0 533.58 C0 533.75 0.07 533.92 0.2 534.05 L3.55 537.41 L4.5 536.46 L1.35 533.31
							 L1.35 528.84 Z" class="st13"/>
			</g>
			<g id="shape94-253" v:mID="94" v:groupContext="shape">
				<title>Sheet.94</title>
				<path d="M12.08 534.26 C6.84 534.26 2.61 530.03 2.61 524.78 C2.61 519.54 6.84 515.3 12.08 515.3 C17.33 515.3 21.56
							 519.54 21.56 524.78 C21.56 530.03 17.33 534.26 12.08 534.26 ZM20.1 516.52 L21.12 515.51 C21.49 515.1
							 21.49 514.49 21.09 514.09 C20.71 513.71 20.07 513.68 19.66 514.05 L18.51 515.24 C16.89 514.15 15.03
							 513.48 13.1 513.34 L13.1 511.92 L16.14 511.92 L16.14 509.89 L8.02 509.89 L8.02 511.92 L11.07 511.92
							 L11.07 513.31 C5.69 513.78 1.35 517.94 0.68 523.33 C0 528.71 3.15 533.82 8.26 535.61 C13.37 537.41 19.02
							 535.44 21.9 530.84 C24.77 526.24 23.96 520.28 20.1 516.52 Z" class="st13"/>
			</g>
		</g>
		<g id="group98-255" transform="translate(727.703,-152.232)" v:mID="98" v:groupContext="group">
			<title>Sheet.98</title>
			<g id="shape99-256" v:mID="99" v:groupContext="shape" transform="translate(-4.88976,0)">
				<title>Rectangle</title>
				<desc>Users Line Manager Review accesses for identifies users (for ...</desc>
				<v:userDefs>
					<v:ud v:nameU="visVersion" v:val="VT0(15):26"/>
				</v:userDefs>
				<v:textBlock v:margins="rect(4,4,4,4)" v:tabSpace="42.5197"/>
				<v:textRect cx="47.0906" cy="514.02" width="94.19" height="46.7717"/>
				<rect x="0" y="490.634" width="94.1811" height="46.7717" class="st1"/>
				<text x="14.89" y="502.02" class="st2" v:langID="1033"><v:paragraph v:horizAlign="1"/><v:tabList/>Users Line Manager<v:lf/><tspan
							x="14.85" dy="1.2em" class="st4">Review accesses for </tspan><tspan x="15.67" dy="1.2em" class="st4">identifies users (for </tspan><tspan
							x="32.55" dy="1.2em" class="st4">removal)</tspan></text>			</g>
		</g>
		<g id="shape100-262" v:mID="100" v:groupContext="shape" v:layerMember="0" transform="translate(776.99,-440.886)">
			<title>Dynamic connector.100</title>
			<path d="M-7.09 537.41 L-7.09 721.76 L-7.09 773.56" class="st9"/>
		</g>
		<g id="shape101-267" v:mID="101" v:groupContext="shape" v:layerMember="0" transform="translate(769.903,-199.004)">
			<title>Dynamic connector.101</title>
			<desc>Upload API</desc>
			<v:textBlock v:margins="rect(4,4,4,4)" v:tabSpace="42.5197"/>
			<v:textRect cx="0" cy="457.818" width="40" height="27.2035"/>
			<path d="M0 537.41 L0 453.95 L-70 453.95" class="st9"/>
			<rect v:rectContext="textBkgnd" x="-11.7127" y="448.219" width="23.4256" height="19.1997" class="st11"/>
			<text x="-11.71" y="455.42" class="st2" v:langID="1033"><v:paragraph v:horizAlign="1"/><v:tabList/>Upload<v:lf/><tspan
						x="-5.39" dy="1.2em" class="st4">API</tspan></text>		</g>
		<g id="group1000-275" transform="translate(340.277,-206.788)" v:mID="1000" v:groupContext="group">
			<title>Sheet.1000</title>
			<g id="shape1001-276" v:mID="1001" v:groupContext="shape" transform="translate(-4.88976,0)">
				<title>Rectangle</title>
				<desc>Review of DHC AD users account with groups</desc>
				<v:userDefs>
					<v:ud v:nameU="visVersion" v:val="VT0(15):26"/>
				</v:userDefs>
				<v:textBlock v:margins="rect(4,4,4,4)" v:tabSpace="42.5197"/>
				<v:textRect cx="30.6954" cy="514.02" width="61.4" height="46.7717"/>
				<rect x="0" y="490.634" width="61.3908" height="46.7717" class="st1"/>
				<text x="6.73" y="502.02" class="st2" v:langID="1033"><v:paragraph v:horizAlign="1"/><v:tabList/>Review of DHC <tspan
							x="16.4" dy="1.2em" class="st4">AD users </tspan><tspan x="9.62" dy="1.2em" class="st4">account with </tspan><tspan
							x="19.54" dy="1.2em" class="st4">groups</tspan></text>			</g>
		</g>
		<g id="group1012-282" transform="translate(245.813,-206.788)" v:mID="1012" v:groupContext="group">
			<title>Sheet.1012</title>
			<g id="shape1013-283" v:mID="1013" v:groupContext="shape" transform="translate(-4.88976,0)">
				<title>Rectangle</title>
				<desc>Generate export of DHC AD user accounts using SOXDB GUI view</desc>
				<v:userDefs>
					<v:ud v:nameU="visVersion" v:val="VT0(15):26"/>
				</v:userDefs>
				<v:textBlock v:margins="rect(4,4,4,4)" v:tabSpace="42.5197"/>
				<v:textRect cx="31.252" cy="514.02" width="62.51" height="46.7717"/>
				<rect x="0" y="490.634" width="62.5039" height="46.7717" class="st1"/>
				<text x="4.43" y="497.22" class="st2" v:langID="1033"><v:paragraph v:horizAlign="1"/><v:tabList/>Generate export <tspan
							x="6.3" dy="1.2em" class="st4">of DHC AD user </tspan><tspan x="16.74" dy="1.2em" class="st4">accounts<v:lf/></tspan><tspan
							x="10.58" dy="1.2em" class="st4">using SOXDB </tspan><tspan x="16.68" dy="1.2em" class="st4">GUI view</tspan></text>			</g>
		</g>
		<g id="shape1015-290" v:mID="1015" v:groupContext="shape" v:layerMember="0" transform="translate(303.427,-223.087)">
			<title>Dynamic connector.1015</title>
			<path d="M0 530.32 L26.24 530.32" class="st9"/>
		</g>
		<g id="shape1016-295" v:mID="1016" v:groupContext="shape" v:layerMember="0" transform="translate(169.72,-281.85)">
			<title>Dynamic connector.1016</title>
			<path d="M0 537.41 L0 589.08 L65.48 589.08" class="st9"/>
		</g>
		<g id="shape1017-300" v:mID="1017" v:groupContext="shape" v:layerMember="0" transform="translate(396.779,-230.174)">
			<title>Dynamic connector.1017</title>
			<path d="M0 537.41 L11.77 537.41 L11.77 485.12 L68.55 485.12" class="st9"/>
		</g>
		<g id="shape1018-305" v:mID="1018" v:groupContext="shape" transform="translate(234.29,-363.38)">
			<title>Rectangle.1018</title>
			<desc>Scan task under DHC Active Directory to fetch user accounts w...</desc>
			<v:userDefs>
				<v:ud v:nameU="visVersion" v:val="VT0(15):26"/>
			</v:userDefs>
			<v:textBlock v:margins="rect(4,4,4,4)" v:tabSpace="42.5197"/>
			<v:textRect cx="43.285" cy="502.528" width="86.58" height="69.7552"/>
			<rect x="0" y="467.65" width="86.5701" height="69.7552" class="st1"/>
			<text x="9.61" y="480.93" class="st2" v:langID="1033"><v:paragraph v:horizAlign="1"/><v:tabList/>Scan task under DHC <tspan
						x="11.2" dy="1.2em" class="st3">Active Directory  to </tspan><tspan x="11.06" dy="1.2em" class="st3">fetch user accounts </tspan><tspan
						x="23.53" dy="1.2em" class="st3">with groups<v:lf/><v:lf/></tspan><tspan x="9.22" dy="2.4em" class="st4">(Every day per week)</tspan></text>		</g>
		<g id="shape1019-312" v:mID="1019" v:groupContext="shape" v:layerMember="0" transform="translate(190.11,-456.61)">
			<title>Dynamic connector.1019</title>
			<path d="M0 537.41 L11.77 537.41 L11.77 595.76 L38.46 595.76" class="st9"/>
		</g>
		<g id="shape1020-317" v:mID="1020" v:groupContext="shape" v:layerMember="0" transform="translate(320.86,-398.257)">
			<title>Dynamic connector.1020</title>
			<path d="M0 537.41 L11.77 537.41 L11.77 501.42 L32.47 501.42" class="st9"/>
		</g>
		<g id="group1021-322" transform="translate(576.545,-391.726)" v:mID="1021" v:groupContext="group">
			<title>Sheet.1021</title>
			<g id="group20-323" transform="translate(36.9359,-24.4907)" v:mID="20" v:groupContext="group">
				<title>Database</title>
				<desc>SOXDB</desc>
				<g id="shape21-324" v:mID="21" v:groupContext="shape">
					<title>Sheet.21</title>
					<path d="M12.39 530.54 C19.2 530.54 24.77 529 24.77 527.11 L24.77 533.97 C24.77 535.86 19.2 537.41 12.39 537.41
								 C5.57 537.41 0 535.86 0 533.97 L0 527.11 C0 529 5.57 530.54 12.39 530.54 ZM21.24 533.97 C21.77 533.97
								 22.12 533.63 22.12 533.12 C22.12 532.6 21.77 532.26 21.24 532.26 C20.7 532.26 20.35 532.6 20.35
								 533.12 C20.35 533.63 20.7 533.97 21.24 533.97 ZM12.39 521.96 C19.2 521.96 24.77 520.42 24.77 518.53
								 L24.77 525.4 C24.77 527.28 19.2 528.83 12.39 528.83 C5.57 528.83 0 527.28 0 525.4 L0 518.53 C0 520.42
								 5.57 521.96 12.39 521.96 ZM21.24 525.4 C21.77 525.4 22.12 525.05 22.12 524.54 C22.12 524.02 21.77
								 523.68 21.24 523.68 C20.7 523.68 20.35 524.02 20.35 524.54 C20.35 525.05 20.7 525.4 21.24 525.4
								 ZM12.39 513.39 C19.2 513.39 24.77 511.84 24.77 509.95 L24.77 516.82 C24.77 518.7 19.2 520.25 12.39
								 520.25 C5.57 520.25 0 518.7 0 516.82 L0 509.95 C0 511.84 5.57 513.39 12.39 513.39 ZM21.24 516.82
								 C21.77 516.82 22.12 516.47 22.12 515.96 C22.12 515.44 21.77 515.1 21.24 515.1 C20.7 515.1 20.35
								 515.44 20.35 515.96 C20.35 516.47 20.7 516.82 21.24 516.82 ZM24.77 508.24 A12.3872 3.43135 0 1 1
								 -0 508.24 A12.3872 3.43135 0 1 1 24.77 508.24 Z" class="st14"/>
				</g>
				<g id="shape20-326" v:mID="20" v:groupContext="groupContent">
					<v:textBlock v:margins="rect(4,4,4,4)" v:tabSpace="42.5197"/>
					<v:textRect cx="12.3872" cy="546.807" width="35.24" height="18.8036"/>
					<text x="-0.21" y="549.51" class="st15" v:langID="1033"><v:paragraph v:horizAlign="1"/><v:tabList/>SOXDB</text>				</g>
			</g>
			<g id="shape53-328" v:mID="53" v:groupContext="shape" transform="translate(0,-7.60992)">
				<title>Rectangle</title>
				<desc>https://globalview.it-solutions.atos.net/sox/api/_rest/upload...</desc>
				<v:userDefs>
					<v:ud v:nameU="visVersion" v:val="VT0(15):26"/>
				</v:userDefs>
				<v:textBlock v:margins="rect(4,4,4,4)" v:tabSpace="42.5197" v:verticalAlign="0"/>
				<v:textRect cx="51.9449" cy="492.76" width="103.89" height="89.2913"/>
				<rect x="0" y="448.114" width="103.89" height="89.2913" class="st5"/>
				<text x="17.43" y="459.31" class="st2" v:langID="1033"><v:paragraph v:horizAlign="1"/><v:tabList/>https://globalview.it-<tspan
							x="7.86" dy="1.2em" class="st4">solutions.atos.net/sox/api/</tspan><tspan x="14.06" dy="1.2em"
							class="st4">_rest/upload/esxi/</tspan><tspan class="st3">dhc</tspan>/</text>			</g>
		</g>
		<g id="shape1022-334" v:mID="1022" v:groupContext="shape" v:layerMember="0" transform="translate(528.781,-432.027)">
			<title>Dynamic connector.1022</title>
			<path d="M0 535.19 L11.77 535.19 L11.77 525.45 L42.04 525.45" class="st9"/>
		</g>
	</g>
</svg>
