<?xml version="1.0" encoding="UTF-8" standalone="no"?>
<!DOCTYPE svg PUBLIC "-//W3C//DTD SVG 1.1//EN" "http://www.w3.org/Graphics/SVG/1.1/DTD/svg11.dtd">
<!-- Generated by Microsoft Visio, SVG Export extensibilityVroHA.svg Page-5 -->
<svg xmlns="http://www.w3.org/2000/svg" xmlns:xlink="http://www.w3.org/1999/xlink" xmlns:ev="http://www.w3.org/2001/xml-events"
		xmlns:v="http://schemas.microsoft.com/visio/2003/SVGExtensions/" width="11in" height="8.5in" viewBox="0 0 792 612"
		xml:space="preserve" color-interpolation-filters="sRGB" class="st20">
	<v:documentProperties v:langID="1033" v:viewMarkup="false">
		<v:userDefs>
			<v:ud v:nameU="msvNoAutoConnect" v:val="VT0(1):26"/>
		</v:userDefs>
	</v:documentProperties>

	<style type="text/css">
	<![CDATA[
		.st1 {fill:#dde2cd;stroke:#000000;stroke-linecap:round;stroke-linejoin:round;stroke-width:0.24}
		.st2 {fill:#000000;font-family:Calibri;font-size:1.16666em;font-weight:bold}
		.st3 {fill:#dbeef3;stroke:#000000;stroke-linecap:round;stroke-linejoin:round;stroke-width:0.24}
		.st4 {fill:#a5a5a5;stroke:#000000;stroke-linecap:round;stroke-linejoin:round;stroke-width:0.24}
		.st5 {fill:#ffffff;font-family:Calibri;font-size:1.16666em}
		.st6 {fill:#ea700d;stroke:#000000;stroke-linecap:round;stroke-linejoin:round;stroke-width:0.24}
		.st7 {fill:#ffffff;font-family:Calibri;font-size:1.00001em}
		.st8 {font-size:1em}
		.st9 {fill:#31859b;stroke:#000000;stroke-linecap:round;stroke-linejoin:round;stroke-width:0.24}
		.st10 {fill:#1f477d}
		.st11 {stroke:#1f477d;stroke-linecap:round;stroke-linejoin:round;stroke-width:0.75}
		.st12 {fill:#ffffff;stroke:none;stroke-linecap:butt;stroke-width:7.2}
		.st13 {fill:#000000;font-family:Calibri;font-size:0.666664em}
		.st14 {fill:#ffffff;stroke:none;stroke-linecap:butt}
		.st15 {fill:#923931;stroke:#000000;stroke-linecap:round;stroke-linejoin:round;stroke-width:0.24}
		.st16 {fill:#ffffff;font-family:Calibri;font-size:0.833336em}
		.st17 {fill:#ff0000;stroke:#000000;stroke-linecap:round;stroke-linejoin:round;stroke-width:0.24}
		.st18 {fill:#f2f2f2;stroke:#000000;stroke-linecap:round;stroke-linejoin:round;stroke-width:0.24}
		.st19 {fill:#000000;font-family:Calibri;font-size:1.00001em;font-weight:bold}
		.st20 {fill:none;fill-rule:evenodd;font-size:12px;overflow:visible;stroke-linecap:square;stroke-miterlimit:3}
	]]>
	</style>

	<g v:mID="9" v:index="5" v:groupContext="foregroundPage">
		<title>Page-5</title>
		<v:pageProperties v:drawingScale="1" v:pageScale="1" v:drawingUnits="19" v:shadowOffsetX="8.50394"
				v:shadowOffsetY="-8.50394"/>
		<g id="shape17-1" v:mID="17" v:groupContext="shape" transform="translate(131.2,-117)">
			<title>Box.17</title>
			<desc>vRA Cloud Tenant Organization</desc>
			<v:userDefs>
				<v:ud v:nameU="visVersion" v:val="VT0(15):26"/>
			</v:userDefs>
			<v:textBlock v:margins="rect(4,4,4,4)" v:verticalAlign="0"/>
			<v:textRect cx="234" cy="382.5" width="468" height="459"/>
			<rect x="0" y="153" width="468" height="459" class="st1"/>
			<text x="4" y="169.6" class="st2" v:langID="1033"><v:paragraph/><v:tabList/>vRA Cloud Tenant Organization</text>		</g>
		<g id="shape18-4" v:mID="18" v:groupContext="shape" transform="translate(143.575,-126)">
			<title>Box.18</title>
			<desc>Cloud Assembly</desc>
			<v:userDefs>
				<v:ud v:nameU="visVersion" v:val="VT0(15):26"/>
			</v:userDefs>
			<v:textBlock v:margins="rect(4,4,4,4)" v:verticalAlign="0"/>
			<v:textRect cx="221.625" cy="402.4" width="443.25" height="419.2"/>
			<rect x="0" y="192.8" width="443.25" height="419.2" class="st3"/>
			<text x="4" y="209.4" class="st2" v:langID="1033"><v:paragraph/><v:tabList/>Cloud Assembly</text>		</g>
		<g id="shape49-7" v:mID="49" v:groupContext="shape" transform="translate(156.513,-207)">
			<title>Box.49</title>
			<desc>Cloud Extensibility Proxies</desc>
			<v:userDefs>
				<v:ud v:nameU="visVersion" v:val="VT0(15):26"/>
			</v:userDefs>
			<v:textBlock v:margins="rect(4,4,4,4)" v:verticalAlign="0"/>
			<v:textRect cx="208.688" cy="553.244" width="417.38" height="117.512"/>
			<rect x="0" y="494.488" width="417.375" height="117.512" class="st4"/>
			<text x="4" y="511.09" class="st5" v:langID="1033"><v:paragraph/><v:tabList/>Cloud Extensibility Proxies</text>		</g>
		<g id="shape44-10" v:mID="44" v:groupContext="shape" transform="translate(155.95,-328.5)">
			<title>Box.44</title>
			<desc>Integrations</desc>
			<v:userDefs>
				<v:ud v:nameU="visVersion" v:val="VT0(15):26"/>
			</v:userDefs>
			<v:textBlock v:margins="rect(4,4,4,4)" v:verticalAlign="0"/>
			<v:textRect cx="208.688" cy="562.094" width="417.38" height="99.8125"/>
			<rect x="0" y="512.188" width="417.375" height="99.8125" class="st4"/>
			<text x="4" y="528.79" class="st5" v:langID="1033"><v:paragraph/><v:tabList/>Integrations</text>		</g>
		<g id="shape21-13" v:mID="21" v:groupContext="shape" transform="translate(155.95,-433.775)">
			<title>Box.21</title>
			<desc>Project (prd001)</desc>
			<v:userDefs>
				<v:ud v:nameU="visVersion" v:val="VT0(15):26"/>
			</v:userDefs>
			<v:textBlock v:margins="rect(4,4,4,4)" v:verticalAlign="0"/>
			<v:textRect cx="208.688" cy="566.488" width="417.38" height="91.025"/>
			<rect x="0" y="520.975" width="417.375" height="91.025" class="st4"/>
			<text x="4" y="537.58" class="st5" v:langID="1033"><v:paragraph/><v:tabList/>Project (prd001)</text>		</g>
		<g id="shape22-16" v:mID="22" v:groupContext="shape" transform="translate(167.625,-333)">
			<title>Box.22</title>
			<desc>ABX1 integration</desc>
			<v:userDefs>
				<v:ud v:nameU="visVersion" v:val="VT0(15):26"/>
			</v:userDefs>
			<v:textBlock v:margins="rect(4,4,4,4)"/>
			<v:textRect cx="41.975" cy="578.1" width="83.96" height="67.8"/>
			<rect x="0" y="544.2" width="83.95" height="67.8" class="st6"/>
			<text x="29.08" y="560.1" class="st7" v:langID="1033"><v:paragraph v:horizAlign="1"/><v:tabList/>ABX1 <v:lf/><tspan
						x="14.96" dy="1.2em" class="st8">integration</tspan><v:lf/><v:newlineChar/></text>		</g>
		<g id="shape24-20" v:mID="24" v:groupContext="shape" transform="translate(310.919,-462.8)">
			<title>Box.24</title>
			<desc>Extensibility tag</desc>
			<v:userDefs>
				<v:ud v:nameU="visVersion" v:val="VT0(15):26"/>
			</v:userDefs>
			<v:textBlock v:margins="rect(4,4,4,4)" v:verticalAlign="0"/>
			<v:textRect cx="54" cy="588.38" width="108" height="47.24"/>
			<rect x="0" y="564.76" width="108" height="47.24" class="st9"/>
			<text x="9.12" y="581.36" class="st5" v:langID="1033"><v:paragraph v:horizAlign="1"/><v:tabList/>Extensibility tag<v:newlineChar/></text>		</g>
		<g id="shape25-23" v:mID="25" v:groupContext="shape" transform="translate(658.721,650.265) rotate(147.345)">
			<title>Dot &#38; arrow</title>
			<desc>Assigned to</desc>
			<v:userDefs>
				<v:ud v:nameU="ControlX" v:val="VT0(0.0625):0"/>
				<v:ud v:nameU="Scale" v:val="VT0(1):26"/>
				<v:ud v:nameU="AntiScale" v:val="VT0(1):26"/>
				<v:ud v:nameU="visVersion" v:val="VT0(15):26"/>
			</v:userDefs>
			<v:textBlock v:margins="rect(4,4,4,4)"/>
			<v:textRect cx="70.611" cy="612" width="141.23" height="0" transform="rotate(-180)"/>
			<path d="M-4.5 612 A4.5 4.5 -180 1 0 4.5 612 A4.5 4.5 -180 0 0 -4.5 612 ZM132.22 607.5 L132.22 616.5 L141.22 612 L132.22
						 607.5 Z" class="st10"/>
			<path d="M-4.5 612 A4.5 4.5 -180 1 0 4.5 612 A4.5 4.5 -180 0 0 -4.5 612" class="st11"/>
			<path d="M132.22 607.5 L132.22 616.5 L141.22 612 L132.22 607.5" class="st11"/>
			<path d="M4.5 612 L132.22 612" class="st11"/>
			<rect v:rectContext="textBkgnd" x="-89.4017" y="-616.8" width="37.5815" height="9.59985" transform="rotate(-180)"
					class="st12"/>
			<text x="-89.4" y="-609.6" transform="rotate(-180)" class="st13" v:langID="1033"><v:paragraph v:horizAlign="1"/><v:tabList/>Assigned to</text>		</g>
		<g id="shape26-30" v:mID="26" v:groupContext="shape" transform="translate(737.48,-375.59) rotate(33.4572)">
			<title>Dot &#38; arrow.26</title>
			<desc>Assigned to</desc>
			<v:userDefs>
				<v:ud v:nameU="ControlX" v:val="VT0(0.0625):0"/>
				<v:ud v:nameU="Scale" v:val="VT0(1):26"/>
				<v:ud v:nameU="AntiScale" v:val="VT0(1):26"/>
				<v:ud v:nameU="visVersion" v:val="VT0(15):26"/>
			</v:userDefs>
			<v:textBlock v:margins="rect(4,4,4,4)"/>
			<v:textRect cx="69.1075" cy="612" width="138.22" height="0"/>
			<path d="M-4.5 612 A4.5 4.5 -180 1 0 4.5 612 A4.5 4.5 -180 0 0 -4.5 612 ZM129.22 607.5 L129.22 616.5 L138.22 612 L129.22
						 607.5 Z" class="st10"/>
			<path d="M-4.5 612 A4.5 4.5 -180 1 0 4.5 612 A4.5 4.5 -180 0 0 -4.5 612" class="st11"/>
			<path d="M129.22 607.5 L129.22 616.5 L138.22 612 L129.22 607.5" class="st11"/>
			<path d="M4.5 612 L129.22 612" class="st11"/>
			<rect v:rectContext="textBkgnd" x="50.3168" y="607.2" width="37.5815" height="9.59985" class="st14"/>
			<text x="50.32" y="614.4" class="st13" v:langID="1033"><v:paragraph v:horizAlign="1"/><v:tabList/>Assigned to</text>		</g>
		<g id="shape29-37" v:mID="29" v:groupContext="shape" transform="translate(875.987,470.719) rotate(123.268)">
			<title>Dot &#38; arrow.29</title>
			<desc>Assigned to</desc>
			<v:userDefs>
				<v:ud v:nameU="ControlX" v:val="VT0(0.0625):0"/>
				<v:ud v:nameU="Scale" v:val="VT0(1):26"/>
				<v:ud v:nameU="AntiScale" v:val="VT0(1):26"/>
				<v:ud v:nameU="visVersion" v:val="VT0(15):26"/>
			</v:userDefs>
			<v:textBlock v:margins="rect(4,4,4,4)"/>
			<v:textRect cx="45.5681" cy="612" width="91.14" height="0" transform="rotate(-180)"/>
			<path d="M-4.5 612 A4.5 4.5 -180 1 0 4.5 612 A4.5 4.5 -180 0 0 -4.5 612 ZM82.14 607.5 L82.14 616.5 L91.14 612 L82.14
						 607.5 Z" class="st10"/>
			<path d="M-4.5 612 A4.5 4.5 -180 1 0 4.5 612 A4.5 4.5 -180 0 0 -4.5 612" class="st11"/>
			<path d="M82.14 607.5 L82.14 616.5 L91.14 612 L82.14 607.5" class="st11"/>
			<path d="M4.5 612 L82.14 612" class="st11"/>
			<rect v:rectContext="textBkgnd" x="-64.3587" y="-616.8" width="37.5815" height="9.59985" transform="rotate(180)"
					class="st14"/>
			<text x="-64.36" y="-609.6" transform="rotate(180)" class="st13" v:langID="1033"><v:paragraph v:horizAlign="1"/><v:tabList/>Assigned to</text>		</g>
		<g id="shape31-44" v:mID="31" v:groupContext="shape" transform="translate(860.797,-222.803) rotate(54.2221)">
			<title>Dot &#38; arrow.31</title>
			<desc>Assigned to</desc>
			<v:userDefs>
				<v:ud v:nameU="ControlX" v:val="VT0(0.0625):0"/>
				<v:ud v:nameU="Scale" v:val="VT0(1):26"/>
				<v:ud v:nameU="AntiScale" v:val="VT0(1):26"/>
				<v:ud v:nameU="visVersion" v:val="VT0(15):26"/>
				<v:ud v:nameU="ControlX" v:prompt="" v:val="VT0(0.05877769):1"/>
			</v:userDefs>
			<v:textBlock v:margins="rect(4,4,4,4)"/>
			<v:textRect cx="46.9623" cy="612" width="93.93" height="0"/>
			<path d="M-4.23 612 A4.23199 4.23199 -180 1 0 4.23 612 A4.23199 4.23199 -180 0 0 -4.23 612 ZM85.46 607.77 L85.46 616.23
						 L93.92 612 L85.46 607.77 Z" class="st10"/>
			<path d="M-4.23 612 A4.23199 4.23199 -180 1 0 4.23 612 A4.23199 4.23199 -180 0 0 -4.23 612" class="st11"/>
			<path d="M85.46 607.77 L85.46 616.23 L93.92 612 L85.46 607.77" class="st11"/>
			<path d="M4.23 612 L85.46 612" class="st11"/>
			<rect v:rectContext="textBkgnd" x="28.1717" y="607.2" width="37.5815" height="9.59985" class="st14"/>
			<text x="28.17" y="614.4" class="st13" v:langID="1033"><v:paragraph v:horizAlign="1"/><v:tabList/>Assigned to</text>		</g>
		<g id="group34-51" transform="translate(207,-214.975)" v:mID="34" v:groupContext="group">
			<title>Sheet.34</title>
			<g id="shape32-52" v:mID="32" v:groupContext="shape" transform="translate(9,0)">
				<title>Box.32</title>
				<desc>ABX1 Proxy</desc>
				<v:userDefs>
					<v:ud v:nameU="visVersion" v:val="VT0(15):26"/>
				</v:userDefs>
				<v:textBlock v:margins="rect(4,4,4,4)" v:verticalAlign="0"/>
				<v:textRect cx="49.5" cy="569.89" width="99" height="84.2194"/>
				<rect x="0" y="527.781" width="99" height="84.2194" class="st6"/>
				<text x="36.61" y="542.58" class="st7" v:langID="1033"><v:paragraph v:horizAlign="1"/><v:tabList/>ABX1<v:lf/><tspan
							x="34.47" dy="1.2em" class="st8"> </tspan>Proxy</text>			</g>
			<g id="shape33-56" v:mID="33" v:groupContext="shape" transform="translate(36,-12.4525)">
				<title>Box.33</title>
				<desc>vRO1 container</desc>
				<v:userDefs>
					<v:ud v:nameU="visVersion" v:val="VT0(15):26"/>
				</v:userDefs>
				<v:textBlock v:margins="rect(4,4,4,4)" v:verticalAlign="0"/>
				<v:textRect cx="24.9" cy="596.428" width="49.8" height="31.1449"/>
				<rect x="0" y="580.855" width="49.8" height="31.1449" class="st15"/>
				<text x="14.08" y="593.86" class="st16" v:langID="1033"><v:paragraph v:horizAlign="1"/><v:tabList/>vRO1 <v:lf/><tspan
							x="5.45" dy="1.2em" class="st8">container</tspan></text>			</g>
		</g>
		<g id="group50-60" transform="translate(407.812,-214.975)" v:mID="50" v:groupContext="group">
			<title>Sheet.50</title>
			<g id="shape51-61" v:mID="51" v:groupContext="shape" transform="translate(9,0)">
				<title>Box.32</title>
				<desc>ABX2 Proxy</desc>
				<v:userDefs>
					<v:ud v:nameU="visVersion" v:val="VT0(15):26"/>
				</v:userDefs>
				<v:textBlock v:margins="rect(4,4,4,4)" v:verticalAlign="0"/>
				<v:textRect cx="49.5" cy="569.89" width="99" height="84.2194"/>
				<rect x="0" y="527.781" width="99" height="84.2194" class="st6"/>
				<text x="36.61" y="542.58" class="st7" v:langID="1033"><v:paragraph v:horizAlign="1"/><v:tabList/>ABX2 <v:lf/><tspan
							x="35.83" dy="1.2em" class="st8">Proxy</tspan></text>			</g>
			<g id="shape52-65" v:mID="52" v:groupContext="shape" transform="translate(36,-12.4525)">
				<title>Box.33</title>
				<desc>vRO2 container</desc>
				<v:userDefs>
					<v:ud v:nameU="visVersion" v:val="VT0(15):26"/>
				</v:userDefs>
				<v:textBlock v:margins="rect(4,4,4,4)" v:verticalAlign="0"/>
				<v:textRect cx="24.9" cy="596.428" width="49.8" height="31.1449"/>
				<rect x="0" y="580.855" width="49.8" height="31.1449" class="st15"/>
				<text x="14.08" y="593.86" class="st16" v:langID="1033"><v:paragraph v:horizAlign="1"/><v:tabList/>vRO2 <v:lf/><tspan
							x="5.45" dy="1.2em" class="st8">container</tspan></text>			</g>
		</g>
		<g id="shape53-69" v:mID="53" v:groupContext="shape" transform="translate(328.5,-467.564)">
			<title>Box.53</title>
			<desc>abx:prd001</desc>
			<v:userDefs>
				<v:ud v:nameU="visVersion" v:val="VT0(15):26"/>
			</v:userDefs>
			<v:textBlock v:margins="rect(4,4,4,4)"/>
			<v:textRect cx="35.7875" cy="602.564" width="71.58" height="18.8725"/>
			<rect x="0" y="593.128" width="71.575" height="18.8725" class="st17"/>
			<text x="8.04" y="606.16" class="st7" v:langID="1033"><v:paragraph v:horizAlign="1"/><v:tabList/>abx:prd001</text>		</g>
		<g id="shape57-72" v:mID="57" v:groupContext="shape" transform="translate(175.2,-342)">
			<title>Box.57</title>
			<desc>abx:prd001</desc>
			<v:userDefs>
				<v:ud v:nameU="visVersion" v:val="VT0(15):26"/>
			</v:userDefs>
			<v:textBlock v:margins="rect(4,4,4,4)"/>
			<v:textRect cx="35.7875" cy="602.564" width="71.58" height="18.8725"/>
			<rect x="0" y="593.128" width="71.575" height="18.8725" class="st17"/>
			<text x="8.04" y="606.16" class="st7" v:langID="1033"><v:paragraph v:horizAlign="1"/><v:tabList/>abx:prd001</text>		</g>
		<g id="shape58-75" v:mID="58" v:groupContext="shape" transform="translate(267.05,-333)">
			<title>Box.58</title>
			<desc>vRO1 integration</desc>
			<v:userDefs>
				<v:ud v:nameU="visVersion" v:val="VT0(15):26"/>
			</v:userDefs>
			<v:textBlock v:margins="rect(4,4,4,4)"/>
			<v:textRect cx="41.975" cy="578.1" width="83.96" height="67.8"/>
			<rect x="0" y="544.2" width="83.95" height="67.8" class="st15"/>
			<text x="28.99" y="560.1" class="st7" v:langID="1033"><v:paragraph v:horizAlign="1"/><v:tabList/>vRO1<v:lf/><tspan
						x="14.96" dy="1.2em" class="st8">integration</tspan><v:lf/><v:newlineChar/></text>		</g>
		<g id="shape59-79" v:mID="59" v:groupContext="shape" transform="translate(274.8,-342)">
			<title>Box.59</title>
			<desc>abx:prd001</desc>
			<v:userDefs>
				<v:ud v:nameU="visVersion" v:val="VT0(15):26"/>
			</v:userDefs>
			<v:textBlock v:margins="rect(4,4,4,4)"/>
			<v:textRect cx="35.7875" cy="602.564" width="71.58" height="18.8725"/>
			<rect x="0" y="593.128" width="71.575" height="18.8725" class="st17"/>
			<text x="8.04" y="606.16" class="st7" v:langID="1033"><v:paragraph v:horizAlign="1"/><v:tabList/>abx:prd001</text>		</g>
		<g id="shape60-82" v:mID="60" v:groupContext="shape" transform="translate(365.2,-333)">
			<title>Box.60</title>
			<desc>vRO2 integration</desc>
			<v:userDefs>
				<v:ud v:nameU="visVersion" v:val="VT0(15):26"/>
			</v:userDefs>
			<v:textBlock v:margins="rect(4,4,4,4)"/>
			<v:textRect cx="41.975" cy="578.1" width="83.96" height="67.8"/>
			<rect x="0" y="544.2" width="83.95" height="67.8" class="st15"/>
			<text x="28.99" y="560.1" class="st7" v:langID="1033"><v:paragraph v:horizAlign="1"/><v:tabList/>vRO2 <v:lf/><tspan
						x="14.96" dy="1.2em" class="st8">integration</tspan><v:lf/><v:newlineChar/></text>		</g>
		<g id="shape61-86" v:mID="61" v:groupContext="shape" transform="translate(369.425,-342)">
			<title>Box.61</title>
			<desc>abx:prd001</desc>
			<v:userDefs>
				<v:ud v:nameU="visVersion" v:val="VT0(15):26"/>
			</v:userDefs>
			<v:textBlock v:margins="rect(4,4,4,4)"/>
			<v:textRect cx="35.7875" cy="602.564" width="71.58" height="18.8725"/>
			<rect x="0" y="593.128" width="71.575" height="18.8725" class="st17"/>
			<text x="8.04" y="606.16" class="st7" v:langID="1033"><v:paragraph v:horizAlign="1"/><v:tabList/>abx:prd001</text>		</g>
		<g id="shape62-89" v:mID="62" v:groupContext="shape" transform="translate(465.05,-333)">
			<title>Box.62</title>
			<desc>ABX2 integration</desc>
			<v:userDefs>
				<v:ud v:nameU="visVersion" v:val="VT0(15):26"/>
			</v:userDefs>
			<v:textBlock v:margins="rect(4,4,4,4)"/>
			<v:textRect cx="46.475" cy="578.1" width="92.96" height="67.8"/>
			<rect x="0" y="544.2" width="92.95" height="67.8" class="st6"/>
			<text x="33.58" y="560.1" class="st7" v:langID="1033"><v:paragraph v:horizAlign="1"/><v:tabList/>ABX2 <v:lf/><tspan
						x="19.46" dy="1.2em" class="st8">integration</tspan><v:lf/><v:newlineChar/></text>		</g>
		<g id="shape63-93" v:mID="63" v:groupContext="shape" transform="translate(477.425,-342)">
			<title>Box.63</title>
			<desc>abx:prd001</desc>
			<v:userDefs>
				<v:ud v:nameU="visVersion" v:val="VT0(15):26"/>
			</v:userDefs>
			<v:textBlock v:margins="rect(4,4,4,4)"/>
			<v:textRect cx="35.7875" cy="602.564" width="71.58" height="18.8725"/>
			<rect x="0" y="593.128" width="71.575" height="18.8725" class="st17"/>
			<text x="8.04" y="606.16" class="st7" v:langID="1033"><v:paragraph v:horizAlign="1"/><v:tabList/>abx:prd001</text>		</g>
		<g id="shape64-96" v:mID="64" v:groupContext="shape" transform="translate(298.403,-136.406)">
			<title>Concentric layer 1</title>
			<desc>Round robin selection using healthy ABX</desc>
			<v:userDefs>
				<v:ud v:nameU="ControlX" v:val="VT0(0.25):0"/>
				<v:ud v:nameU="Scale" v:val="VT0(1):26"/>
				<v:ud v:nameU="AntiScale" v:val="VT0(1):26"/>
				<v:ud v:nameU="visVersion" v:val="VT0(15):26"/>
				<v:ud v:nameU="ControlX" v:prompt="" v:val="VT0(0.89453125):1"/>
			</v:userDefs>
			<v:textBlock v:margins="rect(4,4,4,4)"/>
			<v:textRect cx="68.1015" cy="570.252" width="122.77" height="36.8038" transform="rotate(-2.98146)"/>
			<path d="M0 545.2 A66.7969 66.7969 -180 0 0 133.59 545.2 A66.7969 66.7969 -180 0 0 -0 545.2 ZM64.41 545.2 A2.39062 2.39062
						 0 0 1 69.19 545.2 A2.39062 2.39062 0 1 1 64.41 545.2 Z" class="st18"/>
			<text x="-16.32" y="569.42" transform="rotate(-2.98146)" class="st19" v:langID="1033"><v:paragraph v:horizAlign="1"/><v:tabList/>Round robin selection <v:lf/><tspan
						x="-6.64" dy="1.2em" class="st8">using healthy ABX </tspan> </text>		</g>
		<g id="shape65-100" v:mID="65" v:groupContext="shape" transform="translate(-82.5765,825.978) rotate(-132.974)">
			<title>Dot &#38; arrow.65</title>
			<desc>Execute abx script</desc>
			<v:userDefs>
				<v:ud v:nameU="ControlX" v:val="VT0(0.0625):0"/>
				<v:ud v:nameU="Scale" v:val="VT0(1):26"/>
				<v:ud v:nameU="AntiScale" v:val="VT0(1):26"/>
				<v:ud v:nameU="visVersion" v:val="VT0(15):26"/>
			</v:userDefs>
			<v:textBlock v:margins="rect(4,4,4,4)"/>
			<v:textRect cx="36.8214" cy="612" width="73.65" height="0" transform="rotate(180)"/>
			<path d="M-4.5 612 A4.5 4.5 -180 1 0 4.5 612 A4.5 4.5 -180 0 0 -4.5 612 ZM64.64 607.5 L64.64 616.5 L73.64 612 L64.64
						 607.5 Z" class="st10"/>
			<path d="M-4.5 612 A4.5 4.5 -180 1 0 4.5 612 A4.5 4.5 -180 0 0 -4.5 612" class="st11"/>
			<path d="M64.64 607.5 L64.64 616.5 L73.64 612 L64.64 607.5" class="st11"/>
			<path d="M4.5 612 L64.64 612" class="st11"/>
			<rect v:rectContext="textBkgnd" x="-66.188" y="-616.8" width="58.7335" height="9.59985" transform="rotate(180)"
					class="st14"/>
			<text x="-66.19" y="-609.6" transform="rotate(180)" class="st13" v:langID="1033"><v:paragraph v:horizAlign="1"/><v:tabList/>Execute abx script</text>		</g>
		<g id="shape66-107" v:mID="66" v:groupContext="shape" transform="translate(-76.7551,-14.5466) rotate(-46.2322)">
			<title>Dot &#38; arrow.66</title>
			<desc>Execute abx script</desc>
			<v:userDefs>
				<v:ud v:nameU="ControlX" v:val="VT0(0.0625):0"/>
				<v:ud v:nameU="Scale" v:val="VT0(1):26"/>
				<v:ud v:nameU="AntiScale" v:val="VT0(1):26"/>
				<v:ud v:nameU="visVersion" v:val="VT0(15):26"/>
			</v:userDefs>
			<v:textBlock v:margins="rect(4,4,4,4)"/>
			<v:textRect cx="37.3064" cy="612" width="74.62" height="0"/>
			<path d="M-4.5 612 A4.5 4.5 -180 1 0 4.5 612 A4.5 4.5 -180 0 0 -4.5 612 ZM65.61 607.5 L65.61 616.5 L74.61 612 L65.61
						 607.5 Z" class="st10"/>
			<path d="M-4.5 612 A4.5 4.5 -180 1 0 4.5 612 A4.5 4.5 -180 0 0 -4.5 612" class="st11"/>
			<path d="M65.61 607.5 L65.61 616.5 L74.61 612 L65.61 607.5" class="st11"/>
			<path d="M4.5 612 L65.61 612" class="st11"/>
			<rect v:rectContext="textBkgnd" x="7.93982" y="607.2" width="58.7335" height="9.59985" class="st14"/>
			<text x="7.94" y="614.4" class="st13" v:langID="1033"><v:paragraph v:horizAlign="1"/><v:tabList/>Execute abx script</text>		</g>
		<g id="shape68-114" v:mID="68" v:groupContext="shape" transform="translate(217.346,1002.67) rotate(-166.02)">
			<title>Dot &#38; arrow.68</title>
			<desc>Execute vRO workflow</desc>
			<v:userDefs>
				<v:ud v:nameU="ControlX" v:val="VT0(0.0625):0"/>
				<v:ud v:nameU="Scale" v:val="VT0(1):26"/>
				<v:ud v:nameU="AntiScale" v:val="VT0(1):26"/>
				<v:ud v:nameU="visVersion" v:val="VT0(15):26"/>
			</v:userDefs>
			<v:textBlock v:margins="rect(4,4,4,4)"/>
			<v:textRect cx="50.1351" cy="612" width="100.28" height="0" transform="rotate(180)"/>
			<path d="M-4.5 612 A4.5 4.5 -180 1 0 4.5 612 A4.5 4.5 -180 0 0 -4.5 612 ZM91.27 607.5 L91.27 616.5 L100.27 612 L91.27
						 607.5 Z" class="st10"/>
			<path d="M-4.5 612 A4.5 4.5 -180 1 0 4.5 612 A4.5 4.5 -180 0 0 -4.5 612" class="st11"/>
			<path d="M91.27 607.5 L91.27 616.5 L100.27 612 L91.27 607.5" class="st11"/>
			<path d="M4.5 612 L91.27 612" class="st11"/>
			<rect v:rectContext="textBkgnd" x="-86.6581" y="-616.8" width="73.0462" height="9.59985" transform="rotate(180)"
					class="st14"/>
			<text x="-86.66" y="-609.6" transform="rotate(180)" class="st13" v:langID="1033"><v:paragraph v:horizAlign="1"/><v:tabList/>Execute vRO workflow</text>		</g>
		<g id="shape69-121" v:mID="69" v:groupContext="shape" transform="translate(225.745,-187.103) rotate(-13.1715)">
			<title>Dot &#38; arrow.69</title>
			<desc>Execute vRO workflow</desc>
			<v:userDefs>
				<v:ud v:nameU="ControlX" v:val="VT0(0.0625):0"/>
				<v:ud v:nameU="Scale" v:val="VT0(1):26"/>
				<v:ud v:nameU="AntiScale" v:val="VT0(1):26"/>
				<v:ud v:nameU="visVersion" v:val="VT0(15):26"/>
			</v:userDefs>
			<v:textBlock v:margins="rect(4,4,4,4)"/>
			<v:textRect cx="53.1546" cy="612" width="106.31" height="0"/>
			<path d="M-4.5 612 A4.5 4.5 -180 1 0 4.5 612 A4.5 4.5 -180 0 0 -4.5 612 ZM97.31 607.5 L97.31 616.5 L106.31 612 L97.31
						 607.5 Z" class="st10"/>
			<path d="M-4.5 612 A4.5 4.5 -180 1 0 4.5 612 A4.5 4.5 -180 0 0 -4.5 612" class="st11"/>
			<path d="M97.31 607.5 L97.31 616.5 L106.31 612 L97.31 607.5" class="st11"/>
			<path d="M4.5 612 L97.31 612" class="st11"/>
			<rect v:rectContext="textBkgnd" x="16.6317" y="607.2" width="73.0462" height="9.59985" class="st14"/>
			<text x="16.63" y="614.4" class="st13" v:langID="1033"><v:paragraph v:horizAlign="1"/><v:tabList/>Execute vRO workflow</text>		</g>
		<g id="shape73-128" v:mID="73" v:groupContext="shape" transform="translate(526.299,-244.685) rotate(31.1635)">
			<title>Dot &#38; arrow.73</title>
			<desc>Linked with abx</desc>
			<v:userDefs>
				<v:ud v:nameU="ControlX" v:val="VT0(0.0625):0"/>
				<v:ud v:nameU="Scale" v:val="VT0(1):26"/>
				<v:ud v:nameU="AntiScale" v:val="VT0(1):26"/>
				<v:ud v:nameU="visVersion" v:val="VT0(15):26"/>
			</v:userDefs>
			<v:textBlock v:margins="rect(4,4,4,4)"/>
			<v:textRect cx="32.6635" cy="612" width="65.33" height="0"/>
			<path d="M-4.5 612 A4.5 4.5 -180 1 0 4.5 612 A4.5 4.5 -180 0 0 -4.5 612 ZM56.33 607.5 L56.33 616.5 L65.33 612 L56.33
						 607.5 Z" class="st10"/>
			<path d="M-4.5 612 A4.5 4.5 -180 1 0 4.5 612 A4.5 4.5 -180 0 0 -4.5 612" class="st11"/>
			<path d="M56.33 607.5 L56.33 616.5 L65.33 612 L56.33 607.5" class="st11"/>
			<path d="M4.5 612 L56.33 612" class="st11"/>
			<rect v:rectContext="textBkgnd" x="7.27542" y="607.2" width="50.7766" height="9.59985" class="st14"/>
			<text x="7.28" y="614.4" class="st13" v:langID="1033"><v:paragraph v:horizAlign="1"/><v:tabList/>Linked with abx</text>		</g>
		<g id="shape74-135" v:mID="74" v:groupContext="shape" transform="translate(839.953,583.4) rotate(119.827)">
			<title>Dot &#38; arrow.74</title>
			<desc>Linked with vRO</desc>
			<v:userDefs>
				<v:ud v:nameU="ControlX" v:val="VT0(0.0625):0"/>
				<v:ud v:nameU="Scale" v:val="VT0(1):26"/>
				<v:ud v:nameU="AntiScale" v:val="VT0(1):26"/>
				<v:ud v:nameU="visVersion" v:val="VT0(15):26"/>
			</v:userDefs>
			<v:textBlock v:margins="rect(4,4,4,4)"/>
			<v:textRect cx="43.7537" cy="612" width="87.51" height="0" transform="rotate(-180)"/>
			<path d="M-4.5 612 A4.5 4.5 -180 1 0 4.5 612 A4.5 4.5 -180 0 0 -4.5 612 ZM78.51 607.5 L78.51 616.5 L87.51 612 L78.51
						 607.5 Z" class="st10"/>
			<path d="M-4.5 612 A4.5 4.5 -180 1 0 4.5 612 A4.5 4.5 -180 0 0 -4.5 612" class="st11"/>
			<path d="M78.51 607.5 L78.51 616.5 L87.51 612 L78.51 607.5" class="st11"/>
			<path d="M4.5 612 L78.51 612" class="st11"/>
			<rect v:rectContext="textBkgnd" x="-70.0189" y="-616.8" width="52.5306" height="9.59985" transform="rotate(180)"
					class="st12"/>
			<text x="-70.02" y="-609.6" transform="rotate(180)" class="st13" v:langID="1033"><v:paragraph v:horizAlign="1"/><v:tabList/>Linked with vRO</text>		</g>
		<g id="shape75-142" v:mID="75" v:groupContext="shape" transform="translate(974.008,48.2519) rotate(67.8496)">
			<title>Dot &#38; arrow.75</title>
			<desc>Linked with vRO</desc>
			<v:userDefs>
				<v:ud v:nameU="ControlX" v:val="VT0(0.0625):0"/>
				<v:ud v:nameU="Scale" v:val="VT0(1):26"/>
				<v:ud v:nameU="AntiScale" v:val="VT0(1):26"/>
				<v:ud v:nameU="visVersion" v:val="VT0(15):26"/>
			</v:userDefs>
			<v:textBlock v:margins="rect(4,4,4,4)"/>
			<v:textRect cx="48.5858" cy="612" width="97.18" height="0" transform="rotate(-180)"/>
			<path d="M-4.5 612 A4.5 4.5 -180 1 0 4.5 612 A4.5 4.5 -180 0 0 -4.5 612 ZM88.17 607.5 L88.17 616.5 L97.17 612 L88.17
						 607.5 Z" class="st10"/>
			<path d="M-4.5 612 A4.5 4.5 -180 1 0 4.5 612 A4.5 4.5 -180 0 0 -4.5 612" class="st11"/>
			<path d="M88.17 607.5 L88.17 616.5 L97.17 612 L88.17 607.5" class="st11"/>
			<path d="M4.5 612 L88.17 612" class="st11"/>
			<rect v:rectContext="textBkgnd" x="-74.8509" y="-616.8" width="52.5306" height="9.59985" transform="rotate(180)"
					class="st12"/>
			<text x="-74.85" y="-609.6" transform="rotate(180)" class="st13" v:langID="1033"><v:paragraph v:horizAlign="1"/><v:tabList/>Linked with vRO</text>		</g>
		<g id="shape76-149" v:mID="76" v:groupContext="shape" transform="translate(878.005,769.139) rotate(143.214)">
			<title>Dot &#38; arrow.76</title>
			<desc>Linked with ABX</desc>
			<v:userDefs>
				<v:ud v:nameU="ControlX" v:val="VT0(0.0625):0"/>
				<v:ud v:nameU="Scale" v:val="VT0(1):26"/>
				<v:ud v:nameU="AntiScale" v:val="VT0(1):26"/>
				<v:ud v:nameU="visVersion" v:val="VT0(15):26"/>
			</v:userDefs>
			<v:textBlock v:margins="rect(4,4,4,4)"/>
			<v:textRect cx="28.2267" cy="612" width="56.46" height="0" transform="rotate(-180)"/>
			<path d="M-4.5 612 A4.5 4.5 -180 1 0 4.5 612 A4.5 4.5 -180 0 0 -4.5 612 ZM47.45 607.5 L47.45 616.5 L56.45 612 L47.45
						 607.5 Z" class="st10"/>
			<path d="M-4.5 612 A4.5 4.5 -180 1 0 4.5 612 A4.5 4.5 -180 0 0 -4.5 612" class="st11"/>
			<path d="M47.45 607.5 L47.45 616.5 L56.45 612 L47.45 607.5" class="st11"/>
			<path d="M4.5 612 L47.45 612" class="st11"/>
			<rect v:rectContext="textBkgnd" x="-46.9607" y="-621.6" width="37.468" height="19.1997" transform="rotate(-180)"
					class="st14"/>
			<text x="-46.96" y="-614.4" transform="rotate(-180)" class="st13" v:langID="1033"><v:paragraph v:horizAlign="1"/><v:tabList/>Linked with <tspan
						x="-34.79" dy="1.2em" class="st8">ABX</tspan></text>		</g>
	</g>
</svg>
