<?xml version="1.0" encoding="UTF-8" standalone="no"?>
<!DOCTYPE svg PUBLIC "-//W3C//DTD SVG 1.1//EN" "http://www.w3.org/Graphics/SVG/1.1/DTD/svg11.dtd">
<!-- Generated by Microsoft Visio, SVG Export figure9.svg Page-1 -->
<svg xmlns="http://www.w3.org/2000/svg" xmlns:xlink="http://www.w3.org/1999/xlink" xmlns:ev="http://www.w3.org/2001/xml-events"
		xmlns:v="http://schemas.microsoft.com/visio/2003/SVGExtensions/" width="9.25in" height="6.37in" viewBox="0 0 666 458.64"
		xml:space="preserve" color-interpolation-filters="sRGB" class="st22">
	<v:documentProperties v:langID="1033">
		<v:userDefs>
			<v:ud v:nameU="msvSubprocessMaster" v:prompt="" v:val="VT4(Rectangle)"/>
			<v:ud v:nameU="msvNoAutoConnect" v:val="VT0(1):26"/>
		</v:userDefs>
	</v:documentProperties>

	<style type="text/css">
	<![CDATA[
		.st1 {fill:#f2f2f2;stroke:#c7c8c8;stroke-width:0.25}
		.st2 {fill:#000000;font-family:Calibri;font-size:0.833336em}
		.st3 {fill:#bdd0e9;stroke:#c7c8c8;stroke-width:0.25}
		.st4 {fill:#feffff;font-family:Calibri;font-size:0.833336em}
		.st5 {fill:#4672c4;stroke:#c7c8c8;stroke-width:0.25}
		.st6 {marker-end:url(#mrkr4-27);stroke:#4672c4;stroke-linecap:round;stroke-linejoin:round;stroke-width:1}
		.st7 {fill:#4672c4;fill-opacity:1;stroke:#4672c4;stroke-opacity:1;stroke-width:0.28409090909091}
		.st8 {marker-end:url(#mrkr4-33);stroke:#4672c4;stroke-linecap:round;stroke-linejoin:round;stroke-width:1}
		.st9 {fill:#4bacc6;stroke:#c7c8c8;stroke-width:0.25}
		.st10 {fill:#000000;stroke:none;stroke-linecap:round;stroke-linejoin:round;stroke-width:6.375}
		.st11 {fill:none;stroke:none;stroke-linecap:round;stroke-linejoin:round;stroke-width:0.75}
		.st12 {fill:#000000;font-family:Calibri;font-size:1.00001em}
		.st13 {fill:#ffffff;stroke:#000000;stroke-linecap:round;stroke-linejoin:round;stroke-width:3.12}
		.st14 {fill:#000000;font-family:Calibri;font-size:0.916672em}
		.st15 {font-size:1em}
		.st16 {marker-end:url(#mrkr13-73);stroke:#000000;stroke-linecap:round;stroke-linejoin:round;stroke-width:0.75}
		.st17 {fill:#000000;fill-opacity:1;stroke:#000000;stroke-opacity:1;stroke-width:0.22935779816514}
		.st18 {fill:#ffffff;stroke:none;stroke-linecap:butt;stroke-width:7.2}
		.st19 {fill:#000000;font-family:Calibri;font-size:0.666664em}
		.st20 {marker-end:url(#mrkr5-91);stroke:#000000;stroke-linecap:round;stroke-linejoin:round;stroke-width:0.75}
		.st21 {marker-end:url(#mrkr5-91);marker-start:url(#mrkr5-106);stroke:#000000;stroke-linecap:round;stroke-linejoin:round;stroke-width:0.75}
		.st22 {fill:none;fill-rule:evenodd;font-size:12px;overflow:visible;stroke-linecap:square;stroke-miterlimit:3}
	]]>
	</style>

	<defs id="Markers">
		<g id="lend4">
			<path d="M 2 1 L 0 0 L 2 -1 L 2 1 " style="stroke:none"/>
		</g>
		<marker id="mrkr4-27" class="st7" v:arrowType="4" v:arrowSize="2" v:setback="6.68" refX="-6.68" orient="auto"
				markerUnits="strokeWidth" overflow="visible">
			<use xlink:href="#lend4" transform="scale(-3.52,-3.52) "/>
		</marker>
		<marker id="mrkr4-33" class="st7" v:arrowType="4" v:arrowSize="2" v:setback="0" refX="-0" orient="auto"
				markerUnits="strokeWidth" overflow="visible">
			<use xlink:href="#lend4" transform="scale(-3.52,-3.52) "/>
		</marker>
		<g id="lend13">
			<path d="M 3 1 L 0 0 L 3 -1 L 3 1 " style="stroke:none"/>
		</g>
		<marker id="mrkr13-73" class="st17" v:arrowType="13" v:arrowSize="2" v:setback="12.6" refX="-12.6" orient="auto"
				markerUnits="strokeWidth" overflow="visible">
			<use xlink:href="#lend13" transform="scale(-4.36,-4.36) "/>
		</marker>
		<g id="lend5">
			<path d="M 2 1 L 0 0 L 1.98117 -0.993387 C 1.67173 -0.364515 1.67301 0.372641 1.98465 1.00043 " style="stroke:none"/>
		</g>
		<marker id="mrkr5-91" class="st17" v:arrowType="5" v:arrowSize="2" v:setback="7.63" refX="-7.63" orient="auto"
				markerUnits="strokeWidth" overflow="visible">
			<use xlink:href="#lend5" transform="scale(-4.36,-4.36) "/>
		</marker>
		<marker id="mrkr5-106" class="st17" v:arrowType="5" v:arrowSize="2" v:setback="7.15" refX="7.15" orient="auto"
				markerUnits="strokeWidth" overflow="visible">
			<use xlink:href="#lend5" transform="scale(4.36) "/>
		</marker>
	</defs>
	<g v:mID="0" v:index="1" v:groupContext="foregroundPage">
		<v:userDefs>
			<v:ud v:nameU="msvThemeOrder" v:val="VT0(0):26"/>
		</v:userDefs>
		<title>Page-1</title>
		<v:pageProperties v:drawingScale="1" v:pageScale="1" v:drawingUnits="0" v:shadowOffsetX="9" v:shadowOffsetY="-9"/>
		<v:layer v:name="Connector" v:index="0"/>
		<g id="shape1-1" v:mID="1" v:groupContext="shape" transform="translate(144,-101.64)">
			<title>Rectangle.16</title>
			<desc>Workload Domain</desc>
			<v:userDefs>
				<v:ud v:nameU="visVersion" v:val="VT0(15):26"/>
			</v:userDefs>
			<v:textBlock v:margins="rect(4,4,4,4)" v:verticalAlign="0"/>
			<v:textRect cx="234" cy="302.64" width="468" height="312"/>
			<rect x="0" y="146.64" width="468" height="312" class="st1"/>
			<text x="197.09" y="159.64" class="st2" v:langID="1033"><v:paragraph v:horizAlign="1"/><v:tabList/>Workload Domain</text>		</g>
		<g id="shape2-4" v:mID="2" v:groupContext="shape" transform="translate(166.5,-193.14)">
			<title>Rectangle.7</title>
			<desc>PKS Endpoint</desc>
			<v:userDefs>
				<v:ud v:nameU="visVersion" v:val="VT0(15):26"/>
			</v:userDefs>
			<v:textBlock v:margins="rect(4,4,4,4)" v:verticalAlign="0"/>
			<v:textRect cx="128.25" cy="373.14" width="256.5" height="171"/>
			<rect x="0" y="287.64" width="256.5" height="171" class="st3"/>
			<text x="92.14" y="300.64" class="st4" v:langID="1033"><v:paragraph v:horizAlign="1"/><v:tabList/>PKS Control Plane</text>		</g>
		<g id="shape3-7" v:mID="3" v:groupContext="shape" transform="translate(18,-242.64)">
			<title>Rectangle</title>
			<desc>VRA Cloud</desc>
			<v:userDefs>
				<v:ud v:nameU="visVersion" v:val="VT0(15):26"/>
			</v:userDefs>
			<v:textBlock v:margins="rect(4,4,4,4)"/>
			<v:textRect cx="54" cy="422.64" width="108" height="72"/>
			<rect x="0" y="386.64" width="108" height="72" class="st5"/>
			<text x="32.72" y="425.64" class="st4" v:langID="1033"><v:paragraph v:horizAlign="1"/><v:tabList/>VRA Cloud</text>		</g>
		<g id="shape4-10" v:mID="4" v:groupContext="shape" transform="translate(202.77,-282.6)">
			<title>Rectangle.2</title>
			<desc>OPS Manager</desc>
			<v:userDefs>
				<v:ud v:nameU="visVersion" v:val="VT0(15):26"/>
			</v:userDefs>
			<v:textBlock v:margins="rect(4,4,4,4)"/>
			<v:textRect cx="40.23" cy="431.82" width="80.49" height="53.64"/>
			<rect x="0" y="405" width="80.46" height="53.64" class="st5"/>
			<text x="12.63" y="434.82" class="st4" v:langID="1033"><v:paragraph v:horizAlign="1"/><v:tabList/>OPS Manager</text>		</g>
		<g id="shape5-13" v:mID="5" v:groupContext="shape" transform="translate(486,-305.64)">
			<title>Rectangle.5</title>
			<desc>vCenter</desc>
			<v:userDefs>
				<v:ud v:nameU="visVersion" v:val="VT0(15):26"/>
			</v:userDefs>
			<v:textBlock v:margins="rect(4,4,4,4)"/>
			<v:textRect cx="54" cy="422.64" width="108" height="72"/>
			<rect x="0" y="386.64" width="108" height="72" class="st5"/>
			<text x="37.47" y="425.64" class="st4" v:langID="1033"><v:paragraph v:horizAlign="1"/><v:tabList/>vSphere</text>		</g>
		<g id="shape6-16" v:mID="6" v:groupContext="shape" transform="translate(486,-141.84)">
			<title>Rectangle.6</title>
			<desc>NSX-T</desc>
			<v:userDefs>
				<v:ud v:nameU="visVersion" v:val="VT0(15):26"/>
			</v:userDefs>
			<v:textBlock v:margins="rect(4,4,4,4)"/>
			<v:textRect cx="54" cy="422.64" width="108" height="72"/>
			<rect x="0" y="386.64" width="108" height="72" class="st5"/>
			<text x="41.91" y="425.64" class="st4" v:langID="1033"><v:paragraph v:horizAlign="1"/><v:tabList/>NSX-T</text>		</g>
		<g id="shape7-19" v:mID="7" v:groupContext="shape" transform="translate(243,-243)">
			<title>Rectangle.9</title>
			<desc>PKS API</desc>
			<v:userDefs>
				<v:ud v:nameU="visVersion" v:val="VT0(15):26"/>
			</v:userDefs>
			<v:textBlock v:margins="rect(4,4,4,4)"/>
			<v:textRect cx="40.23" cy="431.82" width="80.49" height="53.64"/>
			<rect x="0" y="405" width="80.46" height="53.64" class="st5"/>
			<text x="24.89" y="434.82" class="st4" v:langID="1033"><v:paragraph v:horizAlign="1"/><v:tabList/>PKS API</text>		</g>
		<g id="shape9-22" v:mID="9" v:groupContext="shape" v:layerMember="0" transform="translate(126,-278.64)">
			<title>Dynamic connector</title>
			<path d="M0 458.64 L98.15 458.64 L111.76 458.64 L111.76 458.64 L112.12 458.64" class="st6"/>
		</g>
		<g id="shape10-28" v:mID="10" v:groupContext="shape" v:layerMember="0" transform="translate(423,-278.64)">
			<title>Dynamic connector.12</title>
			<path d="M0 458.64 L13.5 458.64 L13.5 395.64 L55.96 395.64 L56.32 395.64 L63 395.64" class="st8"/>
		</g>
		<g id="shape11-34" v:mID="11" v:groupContext="shape" v:layerMember="0" transform="translate(424.8,-167.657)">
			<title>Dynamic connector.14</title>
			<path d="M0 347.55 L13.89 347.55 L13.89 458.64 L57.56 458.64 L57.93 458.64 L64.8 458.64" class="st8"/>
		</g>
		<g id="shape12-39" v:mID="12" v:groupContext="shape" v:layerMember="0" transform="translate(999,252.36)">
			<title>Dynamic connector.15</title>
			<path d="M9 458.64 L9 413.64 L7.04 413.64 L6.68 413.64 L0 413.64" class="st8"/>
		</g>
		<g id="shape13-44" v:mID="13" v:groupContext="shape" transform="translate(475.2,-289.23)">
			<title>Rectangle.13</title>
			<desc>BOSH</desc>
			<v:userDefs>
				<v:ud v:nameU="visVersion" v:val="VT0(15):26"/>
			</v:userDefs>
			<v:textBlock v:margins="rect(4,4,4,4)"/>
			<v:textRect cx="27.315" cy="440.43" width="54.64" height="36.42"/>
			<rect x="0" y="422.22" width="54.63" height="36.42" class="st9"/>
			<text x="6.42" y="443.43" class="st4" v:langID="1033"><v:paragraph v:horizAlign="1"/><v:tabList/>K8S nodes</text>		</g>
		<g id="shape14-47" v:mID="14" v:groupContext="shape" transform="translate(535.77,-289.23)">
			<title>Rectangle.14</title>
			<desc>BOSH</desc>
			<v:userDefs>
				<v:ud v:nameU="visVersion" v:val="VT0(15):26"/>
			</v:userDefs>
			<v:textBlock v:margins="rect(4,4,4,4)"/>
			<v:textRect cx="27.315" cy="440.43" width="54.64" height="36.42"/>
			<rect x="0" y="422.22" width="54.63" height="36.42" class="st9"/>
			<text x="6.42" y="443.43" class="st4" v:langID="1033"><v:paragraph v:horizAlign="1"/><v:tabList/>K8S nodes</text>		</g>
		<g id="group15-50" transform="translate(43.2,-408.24)" v:mID="15" v:groupContext="group">
			<title>User</title>
			<g id="shape16-51" v:mID="16" v:groupContext="shape">
				<title>Sheet.16</title>
				<path d="M28.8 458.64 L0 458.64 L0 451.44 C0 450.36 0.54 449.28 1.44 448.56 C3.42 447.12 5.94 445.86 8.46 445.14
							 C10.44 444.6 12.42 444.24 14.4 444.24 C16.56 444.24 18.54 444.6 20.34 445.14 C22.86 445.86 25.38 446.94
							 27.36 448.56 C28.26 449.28 28.8 450.36 28.8 451.44 L28.8 458.64 ZM21.6 435.24 A7.2 7.2 0 0 1 7.2 435.24
							 A7.2 7.2 0 0 1 21.6 435.24 Z" class="st10"/>
			</g>
		</g>
		<g id="shape17-53" v:mID="17" v:groupContext="shape" v:layerMember="0" transform="translate(516.24,71.7594) rotate(90)">
			<title>Dynamic connector.35</title>
			<path d="M0 458.64 L59.88 458.64 L65.44 458.64 L65.44 458.64 L65.8 458.64" class="st6"/>
		</g>
		<g id="shape18-58" v:mID="18" v:groupContext="shape" transform="translate(-31.2842,-345.156)">
			<title>Sheet.18</title>
			<desc>API</desc>
			<v:userDefs/>
			<v:textBlock v:margins="rect(4,4,4,4)"/>
			<v:textRect cx="76" cy="448.64" width="152" height="20"/>
			<rect x="0" y="438.64" width="152" height="20" class="st11"/>
			<text x="67.92" y="452.24" class="st12" v:langID="1033"><v:paragraph v:horizAlign="1"/><v:tabList/>API</text>		</g>
		<g id="shape19-61" v:mID="19" v:groupContext="shape" transform="translate(21.6035,-378.814)">
			<title>Cloud</title>
			<desc>Internet</desc>
			<v:userDefs>
				<v:ud v:nameU="solsh"/>
				<v:ud v:nameU="shapetype" v:val="VT0(1):26"/>
				<v:ud v:nameU="shapelook" v:val="VT0(2):26"/>
				<v:ud v:nameU="visVersion" v:val="VT0(15):26"/>
			</v:userDefs>
			<v:textBlock v:margins="rect(0,0,0,0)"/>
			<v:textRect cx="35.9965" cy="443.942" width="72.02" height="29.4545"/>
			<path d="M26.74 433.27 A11.3963 7.57023 180 0 1 46.85 433.17 A8.36468 5.5564 180 0 1 61.24 435.01 A8.41242 5.58811 180
						 0 1 71.17 437.83 A6.34589 4.21538 180 0 1 67.8 442.94 A7.16645 4.76046 180 0 1 62.3 451.73 A12.9049 8.57233
						 180 0 1 44.33 456.15 A16.253 10.7964 180 0 1 21.78 455.07 A8.94435 5.94146 180 0 1 6.05 450.28 A6.46321
						 4.29331 180 0 1 6.08 441.71 A5.53009 3.67347 180 1 1 10.54 434.99 A8.66938 5.75881 180 0 1 26.74 433.27
						 Z" class="st13"/>
			<text x="17.76" y="447.24" class="st14" v:langID="1033"><v:paragraph v:horizAlign="1"/><v:tabList/>Internet</text>		</g>
		<g id="shape20-64" v:mID="20" v:groupContext="shape" transform="translate(244.8,-37.8)">
			<title>Rectangle.39</title>
			<desc>BOSH</desc>
			<v:userDefs>
				<v:ud v:nameU="visVersion" v:val="VT0(15):26"/>
			</v:userDefs>
			<v:textBlock v:margins="rect(4,4,4,4)"/>
			<v:textRect cx="40.23" cy="431.82" width="80.49" height="53.64"/>
			<rect x="0" y="405" width="80.46" height="53.64" class="st5"/>
			<text x="29.83" y="428.82" class="st4" v:langID="1033"><v:paragraph v:horizAlign="1"/><v:tabList/>Local <tspan
						x="15.02" dy="1.2em" class="st15">Workstation</tspan></text>		</g>
		<g id="shape22-68" v:mID="22" v:groupContext="shape" v:layerMember="0" transform="translate(309.052,-91.44)">
			<title>Dynamic connector.41</title>
			<desc>Kubectl</desc>
			<v:userDefs/>
			<v:textBlock v:margins="rect(4,4,4,4)"/>
			<v:textRect cx="88.5766" cy="359.745" width="40.01" height="17.6036"/>
			<path d="M0 458.64 L170.61 268.16 L170.61 268.16 L170.85 267.89" class="st16"/>
			<rect v:rectContext="textBkgnd" x="76.3563" y="354.945" width="24.4407" height="9.59985" class="st18"/>
			<text x="76.36" y="362.15" class="st19" v:langID="1033"><v:paragraph v:horizAlign="1"/><v:tabList/>Kubectl</text>		</g>
		<g id="group23-76" transform="translate(316.8,-19.44)" v:mID="23" v:groupContext="group">
			<title>User.42</title>
			<g id="shape24-77" v:mID="24" v:groupContext="shape">
				<title>Sheet.24</title>
				<path d="M28.8 458.64 L0 458.64 L0 451.44 C0 450.36 0.54 449.28 1.44 448.56 C3.42 447.12 5.94 445.86 8.46 445.14
							 C10.44 444.6 12.42 444.24 14.4 444.24 C16.56 444.24 18.54 444.6 20.34 445.14 C22.86 445.86 25.38 446.94
							 27.36 448.56 C28.26 449.28 28.8 450.36 28.8 451.44 L28.8 458.64 ZM21.6 435.24 A7.2 7.2 0 0 1 7.2 435.24
							 A7.2 7.2 0 0 1 21.6 435.24 Z" class="st10"/>
			</g>
		</g>
		<g id="shape25-79" v:mID="25" v:groupContext="shape" v:layerMember="0" transform="translate(283.464,-91.44)">
			<title>Dynamic connector.44</title>
			<desc>PKS CLI</desc>
			<v:userDefs/>
			<v:textBlock v:margins="rect(4,4,4,4)"/>
			<v:textRect cx="0.665813" cy="382.86" width="40.01" height="17.6036"/>
			<path d="M1.33 458.64 L0.09 316.89 L0.09 316.89 L0.08 316.53" class="st16"/>
			<rect v:rectContext="textBkgnd" x="-11.0431" y="378.06" width="23.4179" height="9.59985" class="st18"/>
			<text x="-11.04" y="385.26" class="st19" v:langID="1033"><v:paragraph v:horizAlign="1"/><v:tabList/>PKS CLI</text>		</g>
		<g id="shape1002-86" v:mID="1002" v:groupContext="shape" v:layerMember="0" transform="translate(368.46,-224.82)">
			<title>Dynamic connector.1002</title>
			<path d="M0 458.64 L194.63 458.64 L194.63 399.95" class="st20"/>
		</g>
		<g id="shape1003-92" v:mID="1003" v:groupContext="shape" v:layerMember="0" transform="translate(288,-224.82)">
			<title>Dynamic connector.1003</title>
			<path d="M0 458.64 L214.51 458.64 L214.51 399.95" class="st20"/>
		</g>
		<g id="shape8-97" v:mID="8" v:groupContext="shape" transform="translate(288,-198)">
			<title>Rectangle.10</title>
			<desc>BOSH</desc>
			<v:userDefs>
				<v:ud v:nameU="visVersion" v:val="VT0(15):26"/>
			</v:userDefs>
			<v:textBlock v:margins="rect(4,4,4,4)"/>
			<v:textRect cx="40.23" cy="431.82" width="80.49" height="53.64"/>
			<rect x="0" y="405" width="80.46" height="53.64" class="st5"/>
			<text x="28.79" y="434.82" class="st4" v:langID="1033"><v:paragraph v:horizAlign="1"/><v:tabList/>BOSH</text>		</g>
		<g id="shape1004-100" v:mID="1004" v:groupContext="shape" v:layerMember="0" transform="translate(345.96,-251.64)">
			<title>Dynamic connector.1004</title>
			<path d="M0 453.28 L0 452.92 L0 436.14 L-16.78 436.14" class="st21"/>
		</g>
		<g id="shape1005-108" v:mID="1005" v:groupContext="shape" v:layerMember="0" transform="translate(305.73,-296.64)">
			<title>Dynamic connector.1005</title>
			<path d="M0 453.28 L0 452.92 L0 436.14 L-16.78 436.14" class="st21"/>
		</g>
	</g>
</svg>
