<?xml version="1.0" encoding="UTF-8" standalone="no"?>
<!DOCTYPE svg PUBLIC "-//W3C//DTD SVG 1.1//EN" "http://www.w3.org/Graphics/SVG/1.1/DTD/svg11.dtd">
<!-- Generated by Microsoft Visio, SVG Export multitenancySchema.svg Page-1 -->
<svg xmlns="http://www.w3.org/2000/svg" xmlns:xlink="http://www.w3.org/1999/xlink" xmlns:ev="http://www.w3.org/2001/xml-events"
		xmlns:v="http://schemas.microsoft.com/visio/2003/SVGExtensions/" width="8.21539in" height="6.20136in"
		viewBox="0 0 591.508 446.498" xml:space="preserve" color-interpolation-filters="sRGB" class="st19">
	<v:documentProperties v:langID="2057" v:metric="true" v:viewMarkup="false"/>

	<style type="text/css">
	<![CDATA[
		.st1 {fill:#2b2b2b;stroke:#000000;stroke-linecap:round;stroke-linejoin:round;stroke-width:0.75}
		.st2 {fill:#ffffff;font-family:Calibri;font-size:1.00001em}
		.st3 {fill:#f26522;stroke:none;stroke-linecap:round;stroke-linejoin:round;stroke-width:0.75}
		.st4 {fill:#8dc63f;stroke:none;stroke-linecap:round;stroke-linejoin:round;stroke-width:0.75}
		.st5 {fill:#00aeef;stroke:none;stroke-linecap:round;stroke-linejoin:round;stroke-width:0.75}
		.st6 {fill:#ffc20e;stroke:none;stroke-linecap:round;stroke-linejoin:round;stroke-width:0.75}
		.st7 {fill:#00a69c;stroke:#000000;stroke-linecap:round;stroke-linejoin:round;stroke-width:0.75}
		.st8 {fill:#000000;fill-opacity:0.098;stroke:#000000;stroke-dasharray:5.25,3.75;stroke-linecap:round;stroke-linejoin:round;stroke-width:0.75}
		.st9 {fill:#000000;font-family:Calibri;font-size:1.00001em}
		.st10 {font-size:1em}
		.st11 {fill:none;stroke:none;stroke-linecap:round;stroke-linejoin:round;stroke-width:0.75}
		.st12 {fill:#000000;font-family:Calibri;font-size:0.916672em;font-weight:bold}
		.st13 {fill:#0596ff;stroke:none;stroke-linecap:butt;stroke-width:2.55}
		.st14 {marker-end:url(#mrkr4-38);marker-start:url(#mrkr4-36);stroke:#000000;stroke-dasharray:8,4;stroke-linecap:butt;stroke-width:1}
		.st15 {fill:#000000;fill-opacity:1;stroke:#000000;stroke-opacity:1;stroke-width:0.28409090909091}
		.st16 {stroke:#000000;stroke-linecap:round;stroke-linejoin:round;stroke-width:1}
		.st17 {fill:#000000;font-family:Calibri;font-size:0.916672em}
		.st18 {stroke:#000000;stroke-linecap:round;stroke-linejoin:round;stroke-width:0.75}
		.st19 {fill:none;fill-rule:evenodd;font-size:12px;overflow:visible;stroke-linecap:square;stroke-miterlimit:3}
	]]>
	</style>

	<defs id="Markers">
		<g id="lend4">
			<path d="M 2 1 L 0 0 L 2 -1 L 2 1 " style="stroke:none"/>
		</g>
		<marker id="mrkr4-36" class="st15" v:arrowType="4" v:arrowSize="2" v:setback="6.68" refX="6.68" orient="auto"
				markerUnits="strokeWidth" overflow="visible">
			<use xlink:href="#lend4" transform="scale(3.52) "/>
		</marker>
		<marker id="mrkr4-38" class="st15" v:arrowType="4" v:arrowSize="2" v:setback="7.04" refX="-7.04" orient="auto"
				markerUnits="strokeWidth" overflow="visible">
			<use xlink:href="#lend4" transform="scale(-3.52,-3.52) "/>
		</marker>
	</defs>
	<g v:mID="0" v:index="1" v:groupContext="foregroundPage">
		<title>Page-1</title>
		<v:pageProperties v:drawingScale="0.0393701" v:pageScale="0.0393701" v:drawingUnits="24" v:shadowOffsetX="8.50394"
				v:shadowOffsetY="-8.50394"/>
		<v:layer v:name="Azure" v:index="0"/>
		<v:layer v:name="Connector" v:index="1"/>
		<g id="shape1014-1" v:mID="1014" v:groupContext="shape" transform="translate(471.493,-374.548)">
			<title>Sheet.1014</title>
			<desc>VCS #1</desc>
			<v:textBlock v:margins="rect(4,4,4,4)" v:tabSpace="42.5197" v:verticalAlign="0"/>
			<v:textRect cx="59.5453" cy="414.608" width="119.1" height="63.7795"/>
			<rect x="0" y="382.718" width="119.091" height="63.7795" class="st1"/>
			<text x="41.53" y="397.52" class="st2" v:langID="1045"><v:paragraph v:horizAlign="1"/><v:tabList/>VCS #1</text>		</g>
		<g id="group1000-4" transform="translate(27.0207,-395.099)" v:mID="1000" v:groupContext="group" v:layerMember="0">
			<title>Microsoft.1000</title>
			<g id="shape1001-5" v:mID="1001" v:groupContext="shape" v:layerMember="0" transform="translate(0,-11.9016)">
				<title>Sheet.1001</title>
				<rect x="0" y="435.722" width="10.7777" height="10.7756" class="st3"/>
			</g>
			<g id="shape1002-7" v:mID="1002" v:groupContext="shape" v:layerMember="0" transform="translate(11.8997,-11.9016)">
				<title>Sheet.1002</title>
				<rect x="0" y="435.722" width="10.7775" height="10.7756" class="st4"/>
			</g>
			<g id="shape1003-9" v:mID="1003" v:groupContext="shape" v:layerMember="0">
				<title>Sheet.1003</title>
				<rect x="0" y="435.722" width="10.7775" height="10.7756" class="st5"/>
			</g>
			<g id="shape1004-11" v:mID="1004" v:groupContext="shape" v:layerMember="0" transform="translate(11.8997,1.7053E-13)">
				<title>Sheet.1004</title>
				<rect x="0" y="435.722" width="10.7775" height="10.7756" class="st6"/>
			</g>
		</g>
		<g id="shape1005-13" v:mID="1005" v:groupContext="shape" transform="translate(95.0522,-366.753)">
			<title>Sheet.1005</title>
			<rect x="0" y="367.128" width="147.402" height="79.3701" class="st7"/>
		</g>
		<g id="shape1006-15" v:mID="1006" v:groupContext="shape" transform="translate(103.556,-386.595)">
			<title>Sheet.1006</title>
			<desc>Customer A Organization (Tenant)</desc>
			<v:textBlock v:margins="rect(4,4,4,4)" v:tabSpace="42.5197"/>
			<v:textRect cx="65.1968" cy="426.655" width="130.4" height="39.685"/>
			<path d="M0 446.5 L130.39 446.5 L130.39 406.81 L0 406.81 L0 446.5 Z" class="st8"/>
			<text x="4.03" y="423.06" class="st9" v:langID="1045"><v:paragraph v:horizAlign="1"/><v:tabList/>Customer A Organization <tspan
						x="44.46" dy="1.2em" class="st10">(Tenant)</tspan></text>		</g>
		<g id="shape1007-19" v:mID="1007" v:groupContext="shape" transform="translate(95.0522,-366.753)">
			<title>Sheet.1007</title>
			<desc>Single tenant – single site</desc>
			<v:textBlock v:margins="rect(4,4,4,4)" v:tabSpace="42.5197"/>
			<v:textRect cx="73.7008" cy="436.498" width="147.41" height="20"/>
			<rect x="0" y="426.498" width="147.402" height="20" class="st11"/>
			<text x="15.71" y="439.8" class="st12" v:langID="1045"><v:paragraph v:horizAlign="1"/><v:tabList/>Single tenant – single site</text>		</g>
		<g id="shape1008-22" v:mID="1008" v:groupContext="shape" transform="translate(95.0522,-426.123)">
			<title>Sheet.1008</title>
			<desc>Provider Organization #1</desc>
			<v:textBlock v:margins="rect(4,4,4,4)" v:tabSpace="42.5197"/>
			<v:textRect cx="73.7008" cy="436.498" width="147.41" height="20"/>
			<rect x="0" y="426.498" width="147.402" height="20" class="st11"/>
			<text x="13.05" y="440.1" class="st9" v:langID="1045"><v:paragraph v:horizAlign="1"/><v:tabList/>Provider Organization #1</text>		</g>
		<g id="group1009-25" transform="translate(509.814,-376.745)" v:mID="1009" v:groupContext="group">
			<title>Sheet.1009</title>
			<g id="shape1010-26" v:mID="1010" v:groupContext="shape">
				<title>Sheet.1010</title>
				<path d="M21.22 404.05 C9.5 404.05 0 413.55 0 425.27 C0 437 9.5 446.5 21.22 446.5 C32.95 446.5 42.45 437 42.45 425.27
							 C42.43 413.56 32.93 404.07 21.22 404.05 ZM21.22 445.26 C10.19 445.26 1.24 436.31 1.24 425.27 C1.24 414.24
							 10.19 405.29 21.22 405.29 C32.26 405.29 41.21 414.24 41.21 425.27 C41.19 436.31 32.26 445.24 21.22 445.26
							 Z" class="st13"/>
			</g>
			<g id="shape1011-28" v:mID="1011" v:groupContext="shape" transform="translate(5.99501,-11.449)">
				<title>Sheet.1011</title>
				<path d="M24.04 446.5 L6.28 446.5 C2.81 446.5 0 443.69 0 440.22 C0 437.21 2.12 434.67 5.02 434.06 C5.27 432.67 6.14
							 431.46 7.39 430.79 C8.65 430.12 10.1 430.05 11.37 430.58 C13.37 427.84 16.73 426.6 20.07 427.43 C23.47
							 428.26 25.89 430.97 26.32 434.4 C28.72 435.34 30.3 437.64 30.3 440.24 C30.32 443.69 27.49 446.5 24.04
							 446.5 ZM9.62 431.48 C9.06 431.48 8.51 431.62 7.98 431.91 C6.93 432.47 6.28 433.5 6.19 434.67 L6.16 435.18
							 L5.64 435.25 C3.11 435.55 1.22 437.71 1.22 440.24 C1.22 443.01 3.48 445.28 6.26 445.28 L24 445.28 C26.78
							 445.28 29.04 443.01 29.04 440.24 C29.04 438.03 27.63 436.1 25.52 435.44 L25.13 435.32 L25.1 434.91 C24.85
							 431.85 22.75 429.39 19.74 428.65 C17.35 428.07 14.08 428.56 12.08 431.73 L11.76 432.22 L11.25 431.94
							 C10.77 431.64 10.21 431.48 9.62 431.48 Z" class="st13"/>
			</g>
		</g>
		<g id="shape1012-30" v:mID="1012" v:groupContext="shape" v:layerMember="1" transform="translate(49.6978,-399.351)">
			<title>Dynamic connector.1012</title>
			<path d="M6.68 439.41 L7.04 439.41 L46.82 439.41" class="st14"/>
		</g>
		<g id="shape1013-39" v:mID="1013" v:groupContext="shape" transform="translate(287.808,-386.595)">
			<title>Sheet.1013</title>
			<desc>Project A1</desc>
			<v:textBlock v:margins="rect(4,4,4,4)" v:tabSpace="42.5197"/>
			<v:textRect cx="43.937" cy="426.655" width="87.88" height="39.685"/>
			<rect x="0" y="406.813" width="87.874" height="39.685" class="st1"/>
			<text x="18.74" y="430.26" class="st2" v:langID="1045"><v:paragraph v:horizAlign="1"/><v:tabList/>Project A1</text>		</g>
		<g id="shape1015-42" v:mID="1015" v:groupContext="shape" v:layerMember="1" transform="translate(233.95,-399.351)">
			<title>Dynamic connector.1015</title>
			<path d="M0 439.41 L53.86 439.41" class="st16"/>
		</g>
		<g id="shape1016-45" v:mID="1016" v:groupContext="shape" v:layerMember="1" transform="translate(375.682,-399.351)">
			<title>Dynamic connector.1016</title>
			<path d="M0 439.41 L95.81 439.41" class="st16"/>
		</g>
		<g id="shape1017-48" v:mID="1017" v:groupContext="shape" transform="translate(0.375,-362.501)">
			<title>Sheet.1017</title>
			<desc>Customer A AD (Optional)</desc>
			<v:textBlock v:margins="rect(4,4,4,4)" v:tabSpace="42.5197"/>
			<v:textRect cx="37.9842" cy="432.325" width="75.97" height="28.3465"/>
			<rect x="0" y="418.151" width="75.9685" height="28.3465" class="st11"/>
			<text x="11.79" y="429.02" class="st17" v:langID="1045"><v:paragraph v:horizAlign="1"/><v:tabList/>Customer A <tspan
						x="7.52" dy="1.2em" class="st10">AD (Optional)</tspan></text>		</g>
		<g id="shape1018-52" v:mID="1018" v:groupContext="shape" transform="translate(471.583,-283.131)">
			<title>Sheet.1018</title>
			<desc>VCS #2</desc>
			<v:textBlock v:margins="rect(4,4,4,4)" v:tabSpace="42.5197" v:verticalAlign="0"/>
			<v:textRect cx="59.5453" cy="414.608" width="119.1" height="63.7795"/>
			<rect x="0" y="382.718" width="119.091" height="63.7795" class="st1"/>
			<text x="41.53" y="397.52" class="st2" v:langID="1045"><v:paragraph v:horizAlign="1"/><v:tabList/>VCS #2</text>		</g>
		<g id="group1019-55" transform="translate(27.1102,-303.682)" v:mID="1019" v:groupContext="group" v:layerMember="0">
			<title>Microsoft.1019</title>
			<g id="shape1020-56" v:mID="1020" v:groupContext="shape" v:layerMember="0" transform="translate(0,-11.9016)">
				<title>Sheet.1020</title>
				<rect x="0" y="435.722" width="10.7777" height="10.7756" class="st3"/>
			</g>
			<g id="shape1021-58" v:mID="1021" v:groupContext="shape" v:layerMember="0" transform="translate(11.8997,-11.9016)">
				<title>Sheet.1021</title>
				<rect x="0" y="435.722" width="10.7775" height="10.7756" class="st4"/>
			</g>
			<g id="shape1022-60" v:mID="1022" v:groupContext="shape" v:layerMember="0">
				<title>Sheet.1022</title>
				<rect x="0" y="435.722" width="10.7775" height="10.7756" class="st5"/>
			</g>
			<g id="shape1023-62" v:mID="1023" v:groupContext="shape" v:layerMember="0" transform="translate(11.8997,1.7053E-13)">
				<title>Sheet.1023</title>
				<rect x="0" y="435.722" width="10.7775" height="10.7756" class="st6"/>
			</g>
		</g>
		<g id="shape1024-64" v:mID="1024" v:groupContext="shape" transform="translate(95.1417,-275.336)">
			<title>Sheet.1024</title>
			<rect x="0" y="367.128" width="147.402" height="79.3701" class="st7"/>
		</g>
		<g id="shape1025-66" v:mID="1025" v:groupContext="shape" transform="translate(103.646,-295.178)">
			<title>Sheet.1025</title>
			<desc>Customer B Organization (Tenant)</desc>
			<v:textBlock v:margins="rect(4,4,4,4)" v:tabSpace="42.5197"/>
			<v:textRect cx="65.1968" cy="426.655" width="130.4" height="39.685"/>
			<path d="M0 446.5 L130.39 446.5 L130.39 406.81 L0 406.81 L0 446.5 Z" class="st8"/>
			<text x="4.24" y="423.06" class="st9" v:langID="1045"><v:paragraph v:horizAlign="1"/><v:tabList/>Customer B Organization <tspan
						x="44.46" dy="1.2em" class="st10">(Tenant)</tspan></text>		</g>
		<g id="shape1026-70" v:mID="1026" v:groupContext="shape" transform="translate(95.1417,-275.336)">
			<title>Sheet.1026</title>
			<desc>Single tenant – A/A DR</desc>
			<v:textBlock v:margins="rect(4,4,4,4)" v:tabSpace="42.5197"/>
			<v:textRect cx="73.7008" cy="436.498" width="147.41" height="20"/>
			<rect x="0" y="426.498" width="147.402" height="20" class="st11"/>
			<text x="21.57" y="439.8" class="st12" v:langID="1045"><v:paragraph v:horizAlign="1"/><v:tabList/>Single tenant – A/A DR</text>		</g>
		<g id="shape1027-73" v:mID="1027" v:groupContext="shape" transform="translate(95.1417,-334.706)">
			<title>Sheet.1027</title>
			<desc>Provider Organization #2</desc>
			<v:textBlock v:margins="rect(4,4,4,4)" v:tabSpace="42.5197"/>
			<v:textRect cx="73.7008" cy="436.498" width="147.41" height="20"/>
			<rect x="0" y="426.498" width="147.402" height="20" class="st11"/>
			<text x="13.05" y="440.1" class="st9" v:langID="1045"><v:paragraph v:horizAlign="1"/><v:tabList/>Provider Organization #2</text>		</g>
		<g id="group1028-76" transform="translate(509.904,-285.328)" v:mID="1028" v:groupContext="group">
			<title>Sheet.1028</title>
			<g id="shape1029-77" v:mID="1029" v:groupContext="shape">
				<title>Sheet.1029</title>
				<path d="M21.22 404.05 C9.5 404.05 0 413.55 0 425.27 C0 437 9.5 446.5 21.22 446.5 C32.95 446.5 42.45 437 42.45 425.27
							 C42.43 413.56 32.93 404.07 21.22 404.05 ZM21.22 445.26 C10.19 445.26 1.24 436.31 1.24 425.27 C1.24 414.24
							 10.19 405.29 21.22 405.29 C32.26 405.29 41.21 414.24 41.21 425.27 C41.19 436.31 32.26 445.24 21.22 445.26
							 Z" class="st13"/>
			</g>
			<g id="shape1030-79" v:mID="1030" v:groupContext="shape" transform="translate(5.99501,-11.449)">
				<title>Sheet.1030</title>
				<path d="M24.04 446.5 L6.28 446.5 C2.81 446.5 0 443.69 0 440.22 C0 437.21 2.12 434.67 5.02 434.06 C5.27 432.67 6.14
							 431.46 7.39 430.79 C8.65 430.12 10.1 430.05 11.37 430.58 C13.37 427.84 16.73 426.6 20.07 427.43 C23.47
							 428.26 25.89 430.97 26.32 434.4 C28.72 435.34 30.3 437.64 30.3 440.24 C30.32 443.69 27.49 446.5 24.04
							 446.5 ZM9.62 431.48 C9.06 431.48 8.51 431.62 7.98 431.91 C6.93 432.47 6.28 433.5 6.19 434.67 L6.16 435.18
							 L5.64 435.25 C3.11 435.55 1.22 437.71 1.22 440.24 C1.22 443.01 3.48 445.28 6.26 445.28 L24 445.28 C26.78
							 445.28 29.04 443.01 29.04 440.24 C29.04 438.03 27.63 436.1 25.52 435.44 L25.13 435.32 L25.1 434.91 C24.85
							 431.85 22.75 429.39 19.74 428.65 C17.35 428.07 14.08 428.56 12.08 431.73 L11.76 432.22 L11.25 431.94
							 C10.77 431.64 10.21 431.48 9.62 431.48 Z" class="st13"/>
			</g>
		</g>
		<g id="shape1031-81" v:mID="1031" v:groupContext="shape" v:layerMember="1" transform="translate(49.7873,-307.934)">
			<title>Dynamic connector.1031</title>
			<path d="M6.68 439.41 L7.04 439.41 L46.82 439.41" class="st14"/>
		</g>
		<g id="shape1032-88" v:mID="1032" v:groupContext="shape" transform="translate(287.898,-295.178)">
			<title>Sheet.1032</title>
			<desc>Project B1</desc>
			<v:textBlock v:margins="rect(4,4,4,4)" v:tabSpace="42.5197"/>
			<v:textRect cx="43.937" cy="426.655" width="87.88" height="39.685"/>
			<rect x="0" y="406.813" width="87.874" height="39.685" class="st1"/>
			<text x="18.95" y="430.26" class="st2" v:langID="1045"><v:paragraph v:horizAlign="1"/><v:tabList/>Project B1</text>		</g>
		<g id="shape1033-91" v:mID="1033" v:groupContext="shape" v:layerMember="1" transform="translate(234.039,-307.934)">
			<title>Dynamic connector.1033</title>
			<path d="M0 439.41 L53.86 439.41" class="st16"/>
		</g>
		<g id="shape1034-94" v:mID="1034" v:groupContext="shape" v:layerMember="1" transform="translate(375.772,-307.934)">
			<title>Dynamic connector.1034</title>
			<path d="M0 439.41 L95.81 439.41" class="st16"/>
		</g>
		<g id="shape1035-97" v:mID="1035" v:groupContext="shape" transform="translate(0.464517,-271.084)">
			<title>Sheet.1035</title>
			<desc>Customer B AD (Optional)</desc>
			<v:textBlock v:margins="rect(4,4,4,4)" v:tabSpace="42.5197"/>
			<v:textRect cx="37.9842" cy="432.325" width="75.97" height="28.3465"/>
			<rect x="0" y="418.151" width="75.9685" height="28.3465" class="st11"/>
			<text x="11.99" y="429.02" class="st17" v:langID="1045"><v:paragraph v:horizAlign="1"/><v:tabList/>Customer B<v:newlineChar/><tspan
						x="7.52" dy="1.2em" class="st10">AD (Optional)</tspan></text>		</g>
		<g id="shape1036-101" v:mID="1036" v:groupContext="shape" transform="translate(471.505,-203.052)">
			<title>Sheet.1036</title>
			<desc>VCS #3 – Site A</desc>
			<v:textBlock v:margins="rect(4,4,4,4)" v:tabSpace="42.5197" v:verticalAlign="0"/>
			<v:textRect cx="59.5453" cy="414.608" width="119.1" height="63.7795"/>
			<rect x="0" y="382.718" width="119.091" height="63.7795" class="st1"/>
			<text x="21.87" y="397.52" class="st2" v:langID="1045"><v:paragraph v:horizAlign="1"/><v:tabList/>VCS #3 – Site A</text>		</g>
		<g id="group1037-104" transform="translate(27.0328,-211.556)" v:mID="1037" v:groupContext="group" v:layerMember="0">
			<title>Microsoft.1037</title>
			<g id="shape1038-105" v:mID="1038" v:groupContext="shape" v:layerMember="0" transform="translate(0,-11.9016)">
				<title>Sheet.1038</title>
				<rect x="0" y="435.722" width="10.7777" height="10.7756" class="st3"/>
			</g>
			<g id="shape1039-107" v:mID="1039" v:groupContext="shape" v:layerMember="0" transform="translate(11.8997,-11.9016)">
				<title>Sheet.1039</title>
				<rect x="0" y="435.722" width="10.7775" height="10.7756" class="st4"/>
			</g>
			<g id="shape1040-109" v:mID="1040" v:groupContext="shape" v:layerMember="0">
				<title>Sheet.1040</title>
				<rect x="0" y="435.722" width="10.7775" height="10.7756" class="st5"/>
			</g>
			<g id="shape1041-111" v:mID="1041" v:groupContext="shape" v:layerMember="0" transform="translate(11.8997,1.7053E-13)">
				<title>Sheet.1041</title>
				<rect x="0" y="435.722" width="10.7775" height="10.7756" class="st6"/>
			</g>
		</g>
		<g id="shape1042-113" v:mID="1042" v:groupContext="shape" transform="translate(95.0643,-138.564)">
			<title>Sheet.1042</title>
			<rect x="0" y="322.482" width="147.402" height="124.016" class="st7"/>
		</g>
		<g id="shape1043-115" v:mID="1043" v:groupContext="shape" transform="translate(103.568,-203.052)">
			<title>Sheet.1043</title>
			<desc>Customer C Organization (Tenant)</desc>
			<v:textBlock v:margins="rect(4,4,4,4)" v:tabSpace="42.5197"/>
			<v:textRect cx="65.1968" cy="426.655" width="130.4" height="39.685"/>
			<path d="M0 446.5 L130.39 446.5 L130.39 406.81 L0 406.81 L0 446.5 Z" class="st8"/>
			<text x="4.3" y="423.06" class="st9" v:langID="1045"><v:paragraph v:horizAlign="1"/><v:tabList/>Customer C Organization <tspan
						x="44.46" dy="1.2em" class="st10">(Tenant)</tspan></text>		</g>
		<g id="shape1044-119" v:mID="1044" v:groupContext="shape" transform="translate(95.0643,-138.564)">
			<title>Sheet.1044</title>
			<desc>Single tenant – A/P DR</desc>
			<v:textBlock v:margins="rect(4,4,4,4)" v:tabSpace="42.5197"/>
			<v:textRect cx="73.7008" cy="436.498" width="147.41" height="20"/>
			<rect x="0" y="426.498" width="147.402" height="20" class="st11"/>
			<text x="21.97" y="439.8" class="st12" v:langID="1045"><v:paragraph v:horizAlign="1"/><v:tabList/>Single tenant – A/P DR</text>		</g>
		<g id="shape1045-122" v:mID="1045" v:groupContext="shape" transform="translate(95.0643,-242.58)">
			<title>Sheet.1045</title>
			<desc>Provider Organization #1</desc>
			<v:textBlock v:margins="rect(4,4,4,4)" v:tabSpace="42.5197"/>
			<v:textRect cx="73.7008" cy="436.498" width="147.41" height="20"/>
			<rect x="0" y="426.498" width="147.402" height="20" class="st11"/>
			<text x="13.05" y="440.1" class="st9" v:langID="1045"><v:paragraph v:horizAlign="1"/><v:tabList/>Provider Organization #1</text>		</g>
		<g id="group1046-125" transform="translate(509.826,-206.595)" v:mID="1046" v:groupContext="group">
			<title>Sheet.1046</title>
			<g id="shape1047-126" v:mID="1047" v:groupContext="shape">
				<title>Sheet.1047</title>
				<path d="M21.22 404.05 C9.5 404.05 0 413.55 0 425.27 C0 437 9.5 446.5 21.22 446.5 C32.95 446.5 42.45 437 42.45 425.27
							 C42.43 413.56 32.93 404.07 21.22 404.05 ZM21.22 445.26 C10.19 445.26 1.24 436.31 1.24 425.27 C1.24 414.24
							 10.19 405.29 21.22 405.29 C32.26 405.29 41.21 414.24 41.21 425.27 C41.19 436.31 32.26 445.24 21.22 445.26
							 Z" class="st13"/>
			</g>
			<g id="shape1048-128" v:mID="1048" v:groupContext="shape" transform="translate(5.99501,-11.449)">
				<title>Sheet.1048</title>
				<path d="M24.04 446.5 L6.28 446.5 C2.81 446.5 0 443.69 0 440.22 C0 437.21 2.12 434.67 5.02 434.06 C5.27 432.67 6.14
							 431.46 7.39 430.79 C8.65 430.12 10.1 430.05 11.37 430.58 C13.37 427.84 16.73 426.6 20.07 427.43 C23.47
							 428.26 25.89 430.97 26.32 434.4 C28.72 435.34 30.3 437.64 30.3 440.24 C30.32 443.69 27.49 446.5 24.04
							 446.5 ZM9.62 431.48 C9.06 431.48 8.51 431.62 7.98 431.91 C6.93 432.47 6.28 433.5 6.19 434.67 L6.16 435.18
							 L5.64 435.25 C3.11 435.55 1.22 437.71 1.22 440.24 C1.22 443.01 3.48 445.28 6.26 445.28 L24 445.28 C26.78
							 445.28 29.04 443.01 29.04 440.24 C29.04 438.03 27.63 436.1 25.52 435.44 L25.13 435.32 L25.1 434.91 C24.85
							 431.85 22.75 429.39 19.74 428.65 C17.35 428.07 14.08 428.56 12.08 431.73 L11.76 432.22 L11.25 431.94
							 C10.77 431.64 10.21 431.48 9.62 431.48 Z" class="st13"/>
			</g>
		</g>
		<g id="shape1049-130" v:mID="1049" v:groupContext="shape" v:layerMember="1" transform="translate(49.71,-215.808)">
			<title>Dynamic connector.1049</title>
			<path d="M6.68 439.41 L7.04 439.41 L46.82 439.41" class="st14"/>
		</g>
		<g id="shape1050-137" v:mID="1050" v:groupContext="shape" transform="translate(287.82,-203.052)">
			<title>Sheet.1050</title>
			<desc>Project C1</desc>
			<v:textBlock v:margins="rect(4,4,4,4)" v:tabSpace="42.5197"/>
			<v:textRect cx="43.937" cy="426.655" width="87.88" height="39.685"/>
			<rect x="0" y="406.813" width="87.874" height="39.685" class="st1"/>
			<text x="19.02" y="430.26" class="st2" v:langID="1045"><v:paragraph v:horizAlign="1"/><v:tabList/>Project C1</text>		</g>
		<g id="shape1051-140" v:mID="1051" v:groupContext="shape" v:layerMember="1" transform="translate(233.962,-215.808)">
			<title>Dynamic connector.1051</title>
			<path d="M0 439.41 L53.86 439.41" class="st16"/>
		</g>
		<g id="shape1052-143" v:mID="1052" v:groupContext="shape" v:layerMember="1" transform="translate(375.694,-223.022)">
			<title>Dynamic connector.1052</title>
			<path d="M0 439.41 L95.81 439.41" class="st16"/>
		</g>
		<g id="shape1053-146" v:mID="1053" v:groupContext="shape" transform="translate(0.387126,-178.958)">
			<title>Sheet.1053</title>
			<desc>Customer C AD (Optional)</desc>
			<v:textBlock v:margins="rect(4,4,4,4)" v:tabSpace="42.5197"/>
			<v:textRect cx="37.9842" cy="432.325" width="75.97" height="28.3465"/>
			<rect x="0" y="418.151" width="75.9685" height="28.3465" class="st11"/>
			<text x="12.04" y="429.02" class="st17" v:langID="1045"><v:paragraph v:horizAlign="1"/><v:tabList/>Customer C<v:newlineChar/><tspan
						x="7.52" dy="1.2em" class="st10">AD (Optional)</tspan></text>		</g>
		<g id="shape1054-150" v:mID="1054" v:groupContext="shape" transform="translate(103.568,-159.824)">
			<title>Sheet.1054</title>
			<desc>Customer C Organization (Tenant)</desc>
			<v:textBlock v:margins="rect(4,4,4,4)" v:tabSpace="42.5197"/>
			<v:textRect cx="65.1968" cy="426.655" width="130.4" height="39.685"/>
			<path d="M0 446.5 L130.39 446.5 L130.39 406.81 L0 406.81 L0 446.5 Z" class="st8"/>
			<text x="4.3" y="423.06" class="st9" v:langID="1045"><v:paragraph v:horizAlign="1"/><v:tabList/>Customer C Organization <tspan
						x="44.46" dy="1.2em" class="st10">(Tenant)</tspan></text>		</g>
		<g id="shape1055-154" v:mID="1055" v:groupContext="shape" transform="translate(191.513,-203.052)">
			<title>Sheet.1055</title>
			<desc>Active</desc>
			<v:textBlock v:margins="rect(4,4,4,4)" v:tabSpace="42.5197"/>
			<v:textRect cx="21.2244" cy="441.579" width="42.45" height="9.83843"/>
			<rect x="0" y="436.66" width="42.4488" height="9.83843" class="st11"/>
			<text x="9.92" y="444.88" class="st12" v:langID="1045"><v:paragraph v:horizAlign="2"/><v:tabList/>Active</text>		</g>
		<g id="shape1056-157" v:mID="1056" v:groupContext="shape" transform="translate(191.513,-159.824)">
			<title>Sheet.1056</title>
			<desc>Passive</desc>
			<v:textBlock v:margins="rect(4,4,4,4)" v:tabSpace="42.5197"/>
			<v:textRect cx="21.2244" cy="441.579" width="42.45" height="9.83843"/>
			<rect x="0" y="436.66" width="42.4488" height="9.83843" class="st11"/>
			<text x="4.94" y="444.88" class="st12" v:langID="1045"><v:paragraph v:horizAlign="2"/><v:tabList/>Passive</text>		</g>
		<g id="shape1057-160" v:mID="1057" v:groupContext="shape" transform="translate(287.82,-158.406)">
			<title>Sheet.1057</title>
			<desc>Project C1</desc>
			<v:textBlock v:margins="rect(4,4,4,4)" v:tabSpace="42.5197"/>
			<v:textRect cx="43.937" cy="426.655" width="87.88" height="39.685"/>
			<rect x="0" y="406.813" width="87.874" height="39.685" class="st1"/>
			<text x="19.02" y="430.26" class="st2" v:langID="1045"><v:paragraph v:horizAlign="1"/><v:tabList/>Project C1</text>		</g>
		<g id="shape1058-163" v:mID="1058" v:groupContext="shape" v:layerMember="1" transform="translate(233.962,-171.871)">
			<title>Dynamic connector.1058</title>
			<path d="M0 439.41 L53.86 439.41" class="st18"/>
		</g>
		<g id="shape1059-166" v:mID="1059" v:groupContext="shape" transform="translate(471.505,-134.312)">
			<title>Sheet.1059</title>
			<desc>VCS #4 – Site B</desc>
			<v:textBlock v:margins="rect(4,4,4,4)" v:tabSpace="42.5197" v:verticalAlign="0"/>
			<v:textRect cx="59.5453" cy="414.608" width="119.1" height="63.7795"/>
			<rect x="0" y="382.718" width="119.091" height="63.7795" class="st1"/>
			<text x="22.08" y="397.52" class="st2" v:langID="1045"><v:paragraph v:horizAlign="1"/><v:tabList/>VCS #4 – Site B</text>		</g>
		<g id="group1060-169" transform="translate(509.826,-136.546)" v:mID="1060" v:groupContext="group">
			<title>Sheet.1060</title>
			<g id="shape1061-170" v:mID="1061" v:groupContext="shape">
				<title>Sheet.1061</title>
				<path d="M21.22 404.05 C9.5 404.05 0 413.55 0 425.27 C0 437 9.5 446.5 21.22 446.5 C32.95 446.5 42.45 437 42.45 425.27
							 C42.43 413.56 32.93 404.07 21.22 404.05 ZM21.22 445.26 C10.19 445.26 1.24 436.31 1.24 425.27 C1.24 414.24
							 10.19 405.29 21.22 405.29 C32.26 405.29 41.21 414.24 41.21 425.27 C41.19 436.31 32.26 445.24 21.22 445.26
							 Z" class="st13"/>
			</g>
			<g id="shape1062-172" v:mID="1062" v:groupContext="shape" transform="translate(5.99501,-11.449)">
				<title>Sheet.1062</title>
				<path d="M24.04 446.5 L6.28 446.5 C2.81 446.5 0 443.69 0 440.22 C0 437.21 2.12 434.67 5.02 434.06 C5.27 432.67 6.14
							 431.46 7.39 430.79 C8.65 430.12 10.1 430.05 11.37 430.58 C13.37 427.84 16.73 426.6 20.07 427.43 C23.47
							 428.26 25.89 430.97 26.32 434.4 C28.72 435.34 30.3 437.64 30.3 440.24 C30.32 443.69 27.49 446.5 24.04
							 446.5 ZM9.62 431.48 C9.06 431.48 8.51 431.62 7.98 431.91 C6.93 432.47 6.28 433.5 6.19 434.67 L6.16 435.18
							 L5.64 435.25 C3.11 435.55 1.22 437.71 1.22 440.24 C1.22 443.01 3.48 445.28 6.26 445.28 L24 445.28 C26.78
							 445.28 29.04 443.01 29.04 440.24 C29.04 438.03 27.63 436.1 25.52 435.44 L25.13 435.32 L25.1 434.91 C24.85
							 431.85 22.75 429.39 19.74 428.65 C17.35 428.07 14.08 428.56 12.08 431.73 L11.76 432.22 L11.25 431.94
							 C10.77 431.64 10.21 431.48 9.62 431.48 Z" class="st13"/>
			</g>
		</g>
		<g id="shape1063-174" v:mID="1063" v:groupContext="shape" v:layerMember="1" transform="translate(375.694,-171.162)">
			<title>Dynamic connector.1063</title>
			<path d="M0 439.41 L95.81 439.41" class="st18"/>
		</g>
		<g id="shape1064-177" v:mID="1064" v:groupContext="shape" transform="translate(472.042,-30.1761)">
			<title>Sheet.1064</title>
			<desc>VCS #5</desc>
			<v:textBlock v:margins="rect(4,4,4,4)" v:tabSpace="42.5197" v:verticalAlign="0"/>
			<v:textRect cx="59.5453" cy="414.608" width="119.1" height="63.7795"/>
			<rect x="0" y="382.718" width="119.091" height="63.7795" class="st1"/>
			<text x="41.53" y="397.52" class="st2" v:langID="1045"><v:paragraph v:horizAlign="1"/><v:tabList/>VCS #5</text>		</g>
		<g id="group1065-180" transform="translate(27.1102,-73.3671)" v:mID="1065" v:groupContext="group" v:layerMember="0">
			<title>Microsoft.1065</title>
			<g id="shape1066-181" v:mID="1066" v:groupContext="shape" v:layerMember="0" transform="translate(0,-11.9016)">
				<title>Sheet.1066</title>
				<rect x="0" y="435.722" width="10.7777" height="10.7756" class="st3"/>
			</g>
			<g id="shape1067-183" v:mID="1067" v:groupContext="shape" v:layerMember="0" transform="translate(11.8997,-11.9016)">
				<title>Sheet.1067</title>
				<rect x="0" y="435.722" width="10.7775" height="10.7756" class="st4"/>
			</g>
			<g id="shape1068-185" v:mID="1068" v:groupContext="shape" v:layerMember="0">
				<title>Sheet.1068</title>
				<rect x="0" y="435.722" width="10.7775" height="10.7756" class="st5"/>
			</g>
			<g id="shape1069-187" v:mID="1069" v:groupContext="shape" v:layerMember="0" transform="translate(11.8997,1.7053E-13)">
				<title>Sheet.1069</title>
				<rect x="0" y="435.722" width="10.7775" height="10.7756" class="st6"/>
			</g>
		</g>
		<g id="shape1070-189" v:mID="1070" v:groupContext="shape" transform="translate(95.1417,-0.375)">
			<title>Sheet.1070</title>
			<rect x="0" y="322.482" width="147.402" height="124.016" class="st7"/>
		</g>
		<g id="shape1071-191" v:mID="1071" v:groupContext="shape" transform="translate(103.646,-64.8632)">
			<title>Sheet.1071</title>
			<desc>Customer D Organization (Tenant)</desc>
			<v:textBlock v:margins="rect(4,4,4,4)" v:tabSpace="42.5197"/>
			<v:textRect cx="65.1968" cy="426.655" width="130.4" height="39.685"/>
			<path d="M0 446.5 L130.39 446.5 L130.39 406.81 L0 406.81 L0 446.5 Z" class="st8"/>
			<text x="36.41" y="423.06" class="st9" v:langID="1045"><v:paragraph v:horizAlign="1"/><v:tabList/>Customer D <tspan
						x="11.86" dy="1.2em" class="st10">Organization (Tenant)</tspan></text>		</g>
		<g id="shape1072-195" v:mID="1072" v:groupContext="shape" transform="translate(95.1417,-0.375)">
			<title>Sheet.1072</title>
			<desc>Mult-tenant</desc>
			<v:textBlock v:margins="rect(4,4,4,4)" v:tabSpace="42.5197"/>
			<v:textRect cx="73.7008" cy="436.498" width="147.41" height="20"/>
			<rect x="0" y="426.498" width="147.402" height="20" class="st11"/>
			<text x="45.8" y="439.8" class="st12" v:langID="1045"><v:paragraph v:horizAlign="1"/><v:tabList/>Mult-tenant</text>		</g>
		<g id="shape1073-198" v:mID="1073" v:groupContext="shape" transform="translate(95.1417,-104.391)">
			<title>Sheet.1073</title>
			<desc>Provider Organization #1</desc>
			<v:textBlock v:margins="rect(4,4,4,4)" v:tabSpace="42.5197"/>
			<v:textRect cx="73.7008" cy="436.498" width="147.41" height="20"/>
			<rect x="0" y="426.498" width="147.402" height="20" class="st11"/>
			<text x="13.05" y="440.1" class="st9" v:langID="1045"><v:paragraph v:horizAlign="1"/><v:tabList/>Provider Organization #1</text>		</g>
		<g id="group1074-201" transform="translate(509.826,-32.4848)" v:mID="1074" v:groupContext="group">
			<title>Sheet.1074</title>
			<g id="shape1075-202" v:mID="1075" v:groupContext="shape">
				<title>Sheet.1075</title>
				<path d="M21.22 404.05 C9.5 404.05 0 413.55 0 425.27 C0 437 9.5 446.5 21.22 446.5 C32.95 446.5 42.45 437 42.45 425.27
							 C42.43 413.56 32.93 404.07 21.22 404.05 ZM21.22 445.26 C10.19 445.26 1.24 436.31 1.24 425.27 C1.24 414.24
							 10.19 405.29 21.22 405.29 C32.26 405.29 41.21 414.24 41.21 425.27 C41.19 436.31 32.26 445.24 21.22 445.26
							 Z" class="st13"/>
			</g>
			<g id="shape1076-204" v:mID="1076" v:groupContext="shape" transform="translate(5.99501,-11.449)">
				<title>Sheet.1076</title>
				<path d="M24.04 446.5 L6.28 446.5 C2.81 446.5 0 443.69 0 440.22 C0 437.21 2.12 434.67 5.02 434.06 C5.27 432.67 6.14
							 431.46 7.39 430.79 C8.65 430.12 10.1 430.05 11.37 430.58 C13.37 427.84 16.73 426.6 20.07 427.43 C23.47
							 428.26 25.89 430.97 26.32 434.4 C28.72 435.34 30.3 437.64 30.3 440.24 C30.32 443.69 27.49 446.5 24.04
							 446.5 ZM9.62 431.48 C9.06 431.48 8.51 431.62 7.98 431.91 C6.93 432.47 6.28 433.5 6.19 434.67 L6.16 435.18
							 L5.64 435.25 C3.11 435.55 1.22 437.71 1.22 440.24 C1.22 443.01 3.48 445.28 6.26 445.28 L24 445.28 C26.78
							 445.28 29.04 443.01 29.04 440.24 C29.04 438.03 27.63 436.1 25.52 435.44 L25.13 435.32 L25.1 434.91 C24.85
							 431.85 22.75 429.39 19.74 428.65 C17.35 428.07 14.08 428.56 12.08 431.73 L11.76 432.22 L11.25 431.94
							 C10.77 431.64 10.21 431.48 9.62 431.48 Z" class="st13"/>
			</g>
		</g>
		<g id="shape1077-206" v:mID="1077" v:groupContext="shape" v:layerMember="1" transform="translate(49.7873,-77.6191)">
			<title>Dynamic connector.1077</title>
			<path d="M6.68 439.41 L7.04 439.41 L46.82 439.41" class="st14"/>
		</g>
		<g id="shape1078-213" v:mID="1078" v:groupContext="shape" transform="translate(287.898,-64.8632)">
			<title>Sheet.1078</title>
			<desc>Project D1</desc>
			<v:textBlock v:margins="rect(4,4,4,4)" v:tabSpace="42.5197"/>
			<v:textRect cx="43.937" cy="426.655" width="87.88" height="39.685"/>
			<rect x="0" y="406.813" width="87.874" height="39.685" class="st1"/>
			<text x="18.52" y="430.26" class="st2" v:langID="1045"><v:paragraph v:horizAlign="1"/><v:tabList/>Project D1</text>		</g>
		<g id="shape1079-216" v:mID="1079" v:groupContext="shape" v:layerMember="1" transform="translate(234.039,-77.6191)">
			<title>Dynamic connector.1079</title>
			<path d="M0 439.41 L53.86 439.41" class="st16"/>
		</g>
		<g id="shape1081-219" v:mID="1081" v:groupContext="shape" transform="translate(0.464517,-40.7688)">
			<title>Sheet.1081</title>
			<desc>Customer D AD (Optional)</desc>
			<v:textBlock v:margins="rect(4,4,4,4)" v:tabSpace="42.5197"/>
			<v:textRect cx="37.9842" cy="432.325" width="75.97" height="28.3465"/>
			<rect x="0" y="418.151" width="75.9685" height="28.3465" class="st11"/>
			<text x="11.59" y="429.02" class="st17" v:langID="1045"><v:paragraph v:horizAlign="1"/><v:tabList/>Customer D <tspan
						x="7.52" dy="1.2em" class="st10">AD (Optional)</tspan></text>		</g>
		<g id="shape1082-223" v:mID="1082" v:groupContext="shape" transform="translate(103.646,-21.6349)">
			<title>Sheet.1082</title>
			<desc>Customer E Organization (Tenant)</desc>
			<v:textBlock v:margins="rect(4,4,4,4)" v:tabSpace="42.5197"/>
			<v:textRect cx="65.1968" cy="426.655" width="130.4" height="39.685"/>
			<path d="M0 446.5 L130.39 446.5 L130.39 406.81 L0 406.81 L0 446.5 Z" class="st8"/>
			<text x="4.57" y="423.06" class="st9" v:langID="1045"><v:paragraph v:horizAlign="1"/><v:tabList/>Customer E Organization <tspan
						x="44.46" dy="1.2em" class="st10">(Tenant)</tspan></text>		</g>
		<g id="shape1085-227" v:mID="1085" v:groupContext="shape" transform="translate(287.898,-20.2175)">
			<title>Sheet.1085</title>
			<desc>Project E1</desc>
			<v:textBlock v:margins="rect(4,4,4,4)" v:tabSpace="42.5197"/>
			<v:textRect cx="43.937" cy="426.655" width="87.88" height="39.685"/>
			<rect x="0" y="406.813" width="87.874" height="39.685" class="st1"/>
			<text x="19.29" y="430.26" class="st2" v:langID="1045"><v:paragraph v:horizAlign="1"/><v:tabList/>Project E1</text>		</g>
		<g id="shape1086-230" v:mID="1086" v:groupContext="shape" v:layerMember="1" transform="translate(234.039,-33.6821)">
			<title>Dynamic connector.1086</title>
			<path d="M0 439.41 L53.86 439.41" class="st18"/>
		</g>
		<g id="shape1087-233" v:mID="1087" v:groupContext="shape" v:layerMember="1" transform="translate(375.772,-72.3228)">
			<title>Dynamic connector.1087</title>
			<path d="M0 439.41 L96.27 439.41" class="st18"/>
		</g>
		<g id="shape1088-236" v:mID="1088" v:groupContext="shape" v:layerMember="1" transform="translate(375.772,-36.5167)">
			<title>Dynamic connector.1088</title>
			<path d="M0 439.41 L96.27 439.41" class="st18"/>
		</g>
	</g>
</svg>
