<?xml version="1.0" encoding="UTF-8" standalone="no"?>
<!DOCTYPE svg PUBLIC "-//W3C//DTD SVG 1.1//EN" "http://www.w3.org/Graphics/SVG/1.1/DTD/svg11.dtd">
<!-- Generated by Microsoft Visio, SVG Export onpremnew.svg onprem -->
<svg xmlns="http://www.w3.org/2000/svg" xmlns:xlink="http://www.w3.org/1999/xlink" xmlns:ev="http://www.w3.org/2001/xml-events"
		xmlns:v="http://schemas.microsoft.com/visio/2003/SVGExtensions/" width="12.9921in" height="5.51181in"
		viewBox="0 0 935.433 396.85" xml:space="preserve" color-interpolation-filters="sRGB" class="st68">
	<v:documentProperties v:langID="1033" v:metric="true" v:viewMarkup="false">
		<v:userDefs>
			<v:ud v:nameU="msvSubprocessMaster" v:prompt="" v:val="VT4(Rectangle)"/>
			<v:ud v:nameU="msvNoAutoConnect" v:val="VT0(1):26"/>
		</v:userDefs>
	</v:documentProperties>

	<style type="text/css">
	<![CDATA[
		.st1 {fill:#ffffff;stroke:#002060;stroke-dasharray:0.01,9;stroke-width:3}
		.st2 {fill:#000000;font-family:Calibri;font-size:1.00001em}
		.st3 {fill:none;stroke:none;stroke-width:0.25}
		.st4 {fill:#4672c4;stroke:#c7c8c8;stroke-width:0.25}
		.st5 {fill:#feffff;font-family:Calibri;font-size:1.00001em}
		.st6 {font-size:1em}
		.st7 {marker-end:url(#mrkr13-22);stroke:#00b0f0;stroke-linecap:round;stroke-linejoin:round;stroke-width:3}
		.st8 {fill:#00b0f0;fill-opacity:1;stroke:#00b0f0;stroke-opacity:1;stroke-width:0.54347826086957}
		.st9 {marker-end:url(#mrkr4-31);stroke:#4672c4;stroke-linecap:round;stroke-linejoin:round;stroke-width:3}
		.st10 {fill:#4672c4;fill-opacity:1;stroke:#4672c4;stroke-opacity:1;stroke-width:0.54347826086957}
		.st11 {fill:#ffffff;stroke:none;stroke-linecap:butt}
		.st12 {fill:#3c63ac;font-family:Calibri;font-size:1.00001em}
		.st13 {fill:url(#grad0-41);stroke:none;stroke-linecap:butt;stroke-width:0.75}
		.st14 {fill:#50e6ff;stroke:none;stroke-linecap:butt;stroke-width:0.75}
		.st15 {fill:#c3f1ff;stroke:none;stroke-linecap:butt;stroke-width:0.75}
		.st16 {fill:#9cebff;stroke:none;stroke-linecap:butt;stroke-width:0.75}
		.st17 {fill:url(#grad0-55);stroke:none;stroke-linecap:butt;stroke-width:0.75}
		.st18 {marker-end:url(#mrkr4-64);stroke:#4672c4;stroke-linecap:round;stroke-linejoin:round;stroke-width:1}
		.st19 {fill:#4672c4;fill-opacity:1;stroke:#4672c4;stroke-opacity:1;stroke-width:0.28409090909091}
		.st20 {fill:url(#grad11-69);stroke:#c7c8c8;stroke-opacity:0;stroke-width:0.72}
		.st21 {fill:url(#grad12-75)}
		.st22 {fill:url(#grad0-82)}
		.st23 {fill:url(#grad11-87)}
		.st24 {stroke:#e7e4cd;stroke-width:0.72}
		.st25 {stroke:#c8c8c8;stroke-width:1.5}
		.st26 {marker-end:url(#mrkr4-116);stroke:#00b0f0;stroke-linecap:round;stroke-linejoin:round;stroke-width:3}
		.st27 {fill:#ffffff;stroke:none;stroke-linecap:butt;stroke-width:7.2}
		.st28 {stroke:#000000;stroke-linecap:round;stroke-linejoin:round;stroke-width:1}
		.st29 {fill:#ed7d31;stroke:#00b050;stroke-width:0.25}
		.st30 {marker-start:url(#mrkr13-147);stroke:#00b050;stroke-linecap:round;stroke-linejoin:round;stroke-width:3}
		.st31 {fill:#00b050;fill-opacity:1;stroke:#00b050;stroke-opacity:1;stroke-width:0.54347826086957}
		.st32 {fill:none;marker-start:url(#mrkr13-167);stroke:#ffffff;stroke-linecap:round;stroke-linejoin:round;stroke-width:0.750001}
		.st33 {fill:#ffffff;fill-opacity:1;stroke:#ffffff;stroke-opacity:1;stroke-width:0.22935801798089}
		.st34 {fill:#000000;font-family:Verdana;font-size:1.00001em}
		.st35 {fill:url(#grad0-172);stroke:#3c63ac;stroke-width:0.75}
		.st36 {fill:#3c63ac;font-family:Calibri;font-size:0.666664em}
		.st37 {font-size:0.749991em}
		.st38 {marker-end:url(#mrkr13-182);stroke:#ed7d31;stroke-linecap:round;stroke-linejoin:round;stroke-width:1.5}
		.st39 {fill:#ed7d31;fill-opacity:1;stroke:#ed7d31;stroke-opacity:1;stroke-width:0.37313432835821}
		.st40 {stroke:#4672c4;stroke-dasharray:1,2;stroke-linecap:round;stroke-linejoin:round;stroke-width:1}
		.st41 {fill:#000000;fill-opacity:0;stroke:none;stroke-linecap:round;stroke-linejoin:round;stroke-width:0.75}
		.st42 {fill:#cc6633}
		.st43 {stroke:none;stroke-linecap:round;stroke-linejoin:round;stroke-width:0.75}
		.st44 {fill:url(#grad0-195)}
		.st45 {fill:url(#grad5-200);stroke:none;stroke-linecap:round;stroke-linejoin:round;stroke-width:0.75}
		.st46 {fill:#cc6633;stroke:#cc6633;stroke-linecap:butt;stroke-width:0.0755208}
		.st47 {fill:url(#grad9-206)}
		.st48 {stroke:#1f2d6d;stroke-linecap:round;stroke-linejoin:round;stroke-width:0.130208}
		.st49 {fill:url(#grad7-213)}
		.st50 {fill:url(#grad0-218)}
		.st51 {fill:url(#grad10-223)}
		.st52 {fill:#45569c;stroke:none;stroke-linecap:round;stroke-linejoin:round;stroke-width:0.75}
		.st53 {fill:url(#grad2-234);stroke:none;stroke-linecap:round;stroke-linejoin:round;stroke-width:0.75}
		.st54 {fill:url(#grad0-238)}
		.st55 {fill:#4672c4;stroke:none;stroke-linecap:round;stroke-linejoin:round;stroke-width:0.75}
		.st56 {fill:#4672c4}
		.st57 {fill:url(#grad3-248)}
		.st58 {stroke:#d75139;stroke-linecap:butt;stroke-width:0.130208}
		.st59 {fill:#ffffff}
		.st60 {fill:none}
		.st61 {fill:#1f2d6d;stroke:#1f2d6d;stroke-linecap:butt;stroke-width:0.0755208}
		.st62 {fill:url(#grad0-218);stroke:none;stroke-linecap:round;stroke-linejoin:round;stroke-width:0.75}
		.st63 {fill:url(#grad5-264);stroke:#1f2d6d;stroke-linecap:butt;stroke-width:0.130208}
		.st64 {fill:url(#grad10-268);stroke:#1f2d6d;stroke-linecap:butt;stroke-width:0.130208}
		.st65 {fill:url(#grad9-206);stroke:#1f2d6d;stroke-linecap:round;stroke-linejoin:round;stroke-width:0.130208}
		.st66 {fill:#1f2d6d;stroke:#1f2d6d;stroke-linecap:butt;stroke-width:0.129583}
		.st67 {fill:none;stroke:#c8c8c8;stroke-width:0.25}
		.st68 {fill:none;fill-rule:evenodd;font-size:12px;overflow:visible;stroke-linecap:square;stroke-miterlimit:3}
	]]>
	</style>

	<defs id="Patterns_And_Gradients">
		<linearGradient id="grad0-41" x1="0" y1="0" x2="1" y2="0" gradientTransform="rotate(-90 0.5 0.5)">
			<stop offset="0" stop-color="#0078d4" stop-opacity="1"/>
			<stop offset="0.82" stop-color="#5ea0ef" stop-opacity="1"/>
		</linearGradient>
		<linearGradient id="grad0-55" x1="0" y1="0" x2="1" y2="0" gradientTransform="rotate(-90 0.5 0.5)">
			<stop offset="0.15" stop-color="#cccccc" stop-opacity="1"/>
			<stop offset="1" stop-color="#707070" stop-opacity="1"/>
		</linearGradient>
		<pattern id="grad11-69" x="0" y="0" width="1" height="1" patternContentUnits="objectBoundingBox">
			<path d="M 0 1 L 0 0 L 1 0 z" style="fill:url(#grad0-70)"/>
			<path d="M 0 1 L 1 1 L 1 0 z" style="fill:url(#grad0-71)"/>
		</pattern>
		<linearGradient id="grad0-70" x1="0" y1="0" x2="1" y2="0" gradientTransform="rotate(180 0.5 0.5)">
			<stop offset="0" stop-color="#ff00ff" stop-opacity="0"/>
			<stop offset="1" stop-color="#ff00ff" stop-opacity="0"/>
		</linearGradient>
		<linearGradient id="grad0-71" x1="0" y1="0" x2="1" y2="0" gradientTransform="rotate(90 0.5 0.5)">
			<stop offset="0" stop-color="#ff00ff" stop-opacity="0"/>
			<stop offset="1" stop-color="#ff00ff" stop-opacity="0"/>
		</linearGradient>
		<pattern id="grad12-75" x="0" y="0" width="1" height="1" patternContentUnits="objectBoundingBox">
			<path d="M 0 0 L 0 1 L 1 1 z" style="fill:url(#grad0-76)"/>
			<path d="M 0 0 L 1 0 L 1 1 z" style="fill:url(#grad0-77)"/>
		</pattern>
		<linearGradient id="grad0-76" x1="0" y1="0" x2="1" y2="0" gradientTransform="rotate(90 0.5 0.5)">
			<stop offset="0" stop-color="#e7e4cd" stop-opacity="1"/>
			<stop offset="1" stop-color="#ff6600" stop-opacity="1"/>
		</linearGradient>
		<linearGradient id="grad0-77" x1="0" y1="0" x2="1" y2="0" gradientTransform="rotate(360 0.5 0.5)">
			<stop offset="0" stop-color="#e7e4cd" stop-opacity="1"/>
			<stop offset="1" stop-color="#ff6600" stop-opacity="1"/>
		</linearGradient>
		<linearGradient id="grad0-82" x1="0" y1="0" x2="1" y2="0" gradientTransform="rotate(270 0.5 0.5)">
			<stop offset="0" stop-color="#e7e4cd" stop-opacity="1"/>
			<stop offset="1" stop-color="#ff6600" stop-opacity="1"/>
		</linearGradient>
		<pattern id="grad11-87" x="0" y="0" width="1" height="1" patternContentUnits="objectBoundingBox">
			<path d="M 0 1 L 0 0 L 1 0 z" style="fill:url(#grad0-88)"/>
			<path d="M 0 1 L 1 1 L 1 0 z" style="fill:url(#grad0-76)"/>
		</pattern>
		<linearGradient id="grad0-88" x1="0" y1="0" x2="1" y2="0" gradientTransform="rotate(180 0.5 0.5)">
			<stop offset="0" stop-color="#e7e4cd" stop-opacity="1"/>
			<stop offset="1" stop-color="#ff6600" stop-opacity="1"/>
		</linearGradient>
		<linearGradient id="grad0-93" x1="0" y1="0" x2="1" y2="0" gradientTransform="rotate(180 0.5 0.5)">
			<stop offset="0.01" stop-color="#ff6600" stop-opacity="1"/>
			<stop offset="0.5" stop-color="#e7e4cd" stop-opacity="1"/>
			<stop offset="1" stop-color="#ff6600" stop-opacity="1"/>
		</linearGradient>
		<linearGradient id="grad0-172" x1="0" y1="0" x2="1" y2="0" gradientTransform="rotate(60 0.5 0.5)">
			<stop offset="0" stop-color="#e8ebf4" stop-opacity="1"/>
			<stop offset="0.24" stop-color="#f4f5f9" stop-opacity="1"/>
			<stop offset="0.54" stop-color="#feffff" stop-opacity="1"/>
		</linearGradient>
		<linearGradient id="grad0-195" x1="0" y1="0" x2="1" y2="0" gradientTransform="rotate(270 0.5 0.5)">
			<stop offset="0" stop-color="#f6f8b0" stop-opacity="1"/>
			<stop offset="1" stop-color="#dab971" stop-opacity="1"/>
		</linearGradient>
		<radialGradient id="grad5-200" cx="0.5" cy="1" r="1.1">
			<stop offset="0" stop-color="#f6f8b0" stop-opacity="1"/>
			<stop offset="1" stop-color="#dab971" stop-opacity="1"/>
		</radialGradient>
		<pattern id="grad9-206" x="0" y="0" width="1" height="1" patternContentUnits="objectBoundingBox">
			<path d="M 0 1 L 0 0 L 1 0 z" style="fill:url(#grad0-207)"/>
			<path d="M 0 1 L 1 1 L 1 0 z" style="fill:url(#grad0-208)"/>
		</pattern>
		<linearGradient id="grad0-207" x1="0" y1="0" x2="1" y2="0" gradientTransform="rotate(270 0.5 0.5)">
			<stop offset="0" stop-color="#ffffff" stop-opacity="1"/>
			<stop offset="1" stop-color="#9bc5ea" stop-opacity="1"/>
		</linearGradient>
		<linearGradient id="grad0-208" x1="0" y1="0" x2="1" y2="0" gradientTransform="rotate(360 0.5 0.5)">
			<stop offset="0" stop-color="#ffffff" stop-opacity="1"/>
			<stop offset="1" stop-color="#9bc5ea" stop-opacity="1"/>
		</linearGradient>
		<radialGradient id="grad7-213" cx="0" cy="0" r="1.4">
			<stop offset="0" stop-color="#d7e8f7" stop-opacity="1"/>
			<stop offset="1" stop-color="#4672c4" stop-opacity="1"/>
		</radialGradient>
		<linearGradient id="grad0-218" x1="0" y1="0" x2="1" y2="0" gradientTransform="rotate(0 0.5 0.5)">
			<stop offset="0" stop-color="#f7f3e8" stop-opacity="1"/>
			<stop offset="1" stop-color="#9bc5ea" stop-opacity="1"/>
		</linearGradient>
		<pattern id="grad10-223" x="0" y="0" width="1" height="1" patternContentUnits="objectBoundingBox">
			<path d="M 0.5 0.5 L 0 0 L 0 1 z" style="fill:url(#grad0-224)"/>
			<path d="M 0.5 0.5 L 1 0 L 1 1 z" style="fill:url(#grad0-225)"/>
			<path d="M 0.5 0.5 L 0 0 L 1 0 z" style="fill:url(#grad0-226)"/>
			<path d="M 0.5 0.5 L 0 1 L 1 1 z" style="fill:url(#grad0-227)"/>
		</pattern>
		<linearGradient id="grad0-224" x1="0" y1="0" x2="1" y2="0" gradientTransform="rotate(180 0.5 0.5)">
			<stop offset="0" stop-color="#9bc5ea" stop-opacity="1"/>
			<stop offset="1" stop-color="#4672c4" stop-opacity="1"/>
		</linearGradient>
		<linearGradient id="grad0-225" x1="0" y1="0" x2="1" y2="0" gradientTransform="rotate(360 0.5 0.5)">
			<stop offset="0" stop-color="#9bc5ea" stop-opacity="1"/>
			<stop offset="1" stop-color="#4672c4" stop-opacity="1"/>
		</linearGradient>
		<linearGradient id="grad0-226" x1="0" y1="0" x2="1" y2="0" gradientTransform="rotate(270 0.5 0.5)">
			<stop offset="0" stop-color="#9bc5ea" stop-opacity="1"/>
			<stop offset="1" stop-color="#4672c4" stop-opacity="1"/>
		</linearGradient>
		<linearGradient id="grad0-227" x1="0" y1="0" x2="1" y2="0" gradientTransform="rotate(90 0.5 0.5)">
			<stop offset="0" stop-color="#9bc5ea" stop-opacity="1"/>
			<stop offset="1" stop-color="#4672c4" stop-opacity="1"/>
		</linearGradient>
		<radialGradient id="grad2-234" cx="0" cy="1" r="1.4">
			<stop offset="0" stop-color="#ffffff" stop-opacity="1"/>
			<stop offset="1" stop-color="#da8c36" stop-opacity="1"/>
		</radialGradient>
		<linearGradient id="grad0-238" x1="0" y1="0" x2="1" y2="0" gradientTransform="rotate(0 0.5 0.5)">
			<stop offset="0" stop-color="#4672c4" stop-opacity="1"/>
			<stop offset="1" stop-color="#45569c" stop-opacity="1"/>
		</linearGradient>
		<radialGradient id="grad3-248" cx="0.5" cy="0.5" r="0.73">
			<stop offset="0" stop-color="#ffffff" stop-opacity="1"/>
			<stop offset="1" stop-color="#da8c36" stop-opacity="1"/>
		</radialGradient>
		<radialGradient id="grad5-264" cx="0.5" cy="1" r="1.1">
			<stop offset="0" stop-color="#ffffff" stop-opacity="1"/>
			<stop offset="1" stop-color="#4672c4" stop-opacity="1"/>
		</radialGradient>
		<pattern id="grad10-268" x="0" y="0" width="1" height="1" patternContentUnits="objectBoundingBox">
			<path d="M 0.5 0.5 L 0 0 L 0 1 z" style="fill:url(#grad0-269)"/>
			<path d="M 0.5 0.5 L 1 0 L 1 1 z" style="fill:url(#grad0-270)"/>
			<path d="M 0.5 0.5 L 0 0 L 1 0 z" style="fill:url(#grad0-271)"/>
			<path d="M 0.5 0.5 L 0 1 L 1 1 z" style="fill:url(#grad0-272)"/>
		</pattern>
		<linearGradient id="grad0-269" x1="0" y1="0" x2="1" y2="0" gradientTransform="rotate(180 0.5 0.5)">
			<stop offset="0" stop-color="#ffffff" stop-opacity="1"/>
			<stop offset="1" stop-color="#4672c4" stop-opacity="1"/>
		</linearGradient>
		<linearGradient id="grad0-270" x1="0" y1="0" x2="1" y2="0" gradientTransform="rotate(360 0.5 0.5)">
			<stop offset="0" stop-color="#ffffff" stop-opacity="1"/>
			<stop offset="1" stop-color="#4672c4" stop-opacity="1"/>
		</linearGradient>
		<linearGradient id="grad0-271" x1="0" y1="0" x2="1" y2="0" gradientTransform="rotate(270 0.5 0.5)">
			<stop offset="0" stop-color="#ffffff" stop-opacity="1"/>
			<stop offset="1" stop-color="#4672c4" stop-opacity="1"/>
		</linearGradient>
		<linearGradient id="grad0-272" x1="0" y1="0" x2="1" y2="0" gradientTransform="rotate(90 0.5 0.5)">
			<stop offset="0" stop-color="#ffffff" stop-opacity="1"/>
			<stop offset="1" stop-color="#4672c4" stop-opacity="1"/>
		</linearGradient>
	</defs>
	<defs id="Markers">
		<g id="lend13">
			<path d="M 3 1 L 0 0 L 3 -1 L 3 1 " style="stroke:none"/>
		</g>
		<marker id="mrkr13-22" class="st8" v:arrowType="13" v:arrowSize="2" v:setback="5.52" refX="-5.52" orient="auto"
				markerUnits="strokeWidth" overflow="visible">
			<use xlink:href="#lend13" transform="scale(-1.84,-1.84) "/>
		</marker>
		<g id="lend4">
			<path d="M 2 1 L 0 0 L 2 -1 L 2 1 " style="stroke:none"/>
		</g>
		<marker id="mrkr4-31" class="st10" v:arrowType="4" v:arrowSize="2" v:setback="3.68" refX="-3.68" orient="auto"
				markerUnits="strokeWidth" overflow="visible">
			<use xlink:href="#lend4" transform="scale(-1.84,-1.84) "/>
		</marker>
		<marker id="mrkr4-64" class="st19" v:arrowType="4" v:arrowSize="2" v:setback="7.04" refX="-7.04" orient="auto"
				markerUnits="strokeWidth" overflow="visible">
			<use xlink:href="#lend4" transform="scale(-3.52,-3.52) "/>
		</marker>
		<marker id="mrkr4-116" class="st8" v:arrowType="4" v:arrowSize="2" v:setback="3.68" refX="-3.68" orient="auto"
				markerUnits="strokeWidth" overflow="visible">
			<use xlink:href="#lend4" transform="scale(-1.84,-1.84) "/>
		</marker>
		<marker id="mrkr13-147" class="st31" v:arrowType="13" v:arrowSize="2" v:setback="5.4" refX="5.4" orient="auto"
				markerUnits="strokeWidth" overflow="visible">
			<use xlink:href="#lend13" transform="scale(1.84) "/>
		</marker>
		<marker id="mrkr13-167" class="st33" v:arrowType="13" v:arrowSize="2" v:setback="13.08" refX="13.079987464183"
				orient="auto" markerUnits="strokeWidth" overflow="visible">
			<use xlink:href="#lend13" transform="scale(4.3599958213945) "/>
		</marker>
		<marker id="mrkr13-182" class="st39" v:arrowType="13" v:arrowSize="2" v:setback="7.8" refX="-7.8" orient="auto"
				markerUnits="strokeWidth" overflow="visible">
			<use xlink:href="#lend13" transform="scale(-2.68,-2.68) "/>
		</marker>
	</defs>
	<g v:mID="6" v:index="2" v:groupContext="foregroundPage">
		<v:userDefs>
			<v:ud v:nameU="msvThemeOrder" v:val="VT0(0):26"/>
		</v:userDefs>
		<title>onprem</title>
		<v:pageProperties v:drawingScale="0.0393701" v:pageScale="0.0393701" v:drawingUnits="24" v:shadowOffsetX="9"
				v:shadowOffsetY="-9"/>
		<v:layer v:name="Connector" v:index="0"/>
		<g id="group1070-1" transform="translate(317.48,-127.559)" v:mID="1070" v:groupContext="group">
			<title>Sheet.1070</title>
			<g id="shape1071-2" v:mID="1071" v:groupContext="shape">
				<title>Sheet.1071</title>
				<path d="M0 396.85 L486.99 396.85 L486.99 164.41 L0 164.41 L0 396.85 Z" class="st1"/>
			</g>
		</g>
		<g id="group1069-4" transform="translate(42.5197,-127.559)" v:mID="1069" v:groupContext="group">
			<title>Sheet.1069</title>
			<g id="shape1068-5" v:mID="1068" v:groupContext="shape">
				<title>Sheet.1068</title>
				<path d="M0 396.85 L215.43 396.85 L215.43 164.41 L0 164.41 L0 396.85 Z" class="st1"/>
			</g>
		</g>
		<g id="group1006-7" transform="translate(35.4327,-127.117)" v:mID="1006" v:groupContext="group">
			<title>Sheet.1006</title>
			<desc>ok</desc>
			<g id="shape1006-8" v:mID="1006" v:groupContext="groupContent">
				<v:textBlock v:margins="rect(0,0,0,0)" v:tabSpace="42.5197"/>
				<v:textRect cx="389.764" cy="277.929" width="779.53" height="237.843"/>
				<text x="383.87" y="281.53" class="st2" v:langID="16393"><v:paragraph v:horizAlign="1"/><v:tabList/>ok</text>			</g>
		</g>
		<g id="shape1023-10" v:mID="1023" v:groupContext="shape" transform="translate(102.515,-316.594)">
			<title>Sheet.1023</title>
			<desc>SaaCON</desc>
			<v:textBlock v:margins="rect(4,4,4,4)" v:tabSpace="42.5197"/>
			<v:textRect cx="76" cy="374.134" width="152.01" height="45.4331"/>
			<rect x="0" y="351.417" width="152" height="45.4331" class="st3"/>
			<text x="56.45" y="377.73" class="st2" v:langID="16393"><v:paragraph v:horizAlign="1"/><v:tabList/>SaaCON</text>		</g>
		<g id="shape1025-13" v:mID="1025" v:groupContext="shape" transform="translate(460.517,-238.447)">
			<title>Rectangle.1025</title>
			<desc>vRA Appliance</desc>
			<v:userDefs>
				<v:ud v:nameU="visVersion" v:val="VT0(15):26"/>
			</v:userDefs>
			<v:textBlock v:margins="rect(4,4,4,4)" v:tabSpace="42.5197"/>
			<v:textRect cx="31.9462" cy="375.219" width="63.9" height="43.2636"/>
			<rect x="0" y="353.587" width="63.8925" height="43.2636" class="st4"/>
			<text x="22.51" y="371.62" class="st5" v:langID="16393"><v:paragraph v:horizAlign="1"/><v:tabList/>vRA <tspan x="7.87"
						dy="1.2em" class="st6">Appliance</tspan></text>		</g>
		<g id="shape1032-17" v:mID="1032" v:groupContext="shape" v:layerMember="0" transform="translate(202.181,-250.512)">
			<title>Dynamic connector.1032</title>
			<path d="M0 389.76 L69.68 389.76" class="st7"/>
		</g>
		<g id="shape1033-23" v:mID="1033" v:groupContext="shape" transform="translate(581.102,-238.447)">
			<title>Rectangle.1004</title>
			<desc>vCenter</desc>
			<v:userDefs>
				<v:ud v:nameU="visVersion" v:val="VT0(15):26"/>
			</v:userDefs>
			<v:textBlock v:margins="rect(4,4,4,4)" v:tabSpace="42.5197"/>
			<v:textRect cx="31.9462" cy="375.219" width="63.9" height="43.2636"/>
			<rect x="0" y="353.587" width="63.8925" height="43.2636" class="st4"/>
			<text x="12.81" y="378.82" class="st5" v:langID="16393"><v:paragraph v:horizAlign="1"/><v:tabList/>vCenter</text>		</g>
		<g id="shape1034-26" v:mID="1034" v:groupContext="shape" v:layerMember="0" transform="translate(524.409,-267.165)">
			<title>Dynamic connector.1006</title>
			<desc>443</desc>
			<v:textBlock v:margins="rect(4,4,4,4)" v:tabSpace="42.5197"/>
			<v:textRect cx="28.3465" cy="403.937" width="60" height="22.4037"/>
			<path d="M0 403.94 L45.65 403.94" class="st9"/>
			<rect v:rectContext="textBkgnd" x="19.2235" y="396.737" width="18.2461" height="14.4001" class="st11"/>
			<text x="19.22" y="407.54" class="st12" v:langID="16393"><v:paragraph v:horizAlign="1"/><v:tabList/>443</text>		</g>
		<g id="shape1035-34" v:mID="1035" v:groupContext="shape" transform="translate(669.629,-238.447)">
			<title>Rectangle.1029</title>
			<desc>ESXi</desc>
			<v:userDefs>
				<v:ud v:nameU="visVersion" v:val="VT0(15):26"/>
			</v:userDefs>
			<v:textBlock v:margins="rect(4,4,4,4)" v:tabSpace="42.5197"/>
			<v:textRect cx="31.9462" cy="375.219" width="63.9" height="43.2636"/>
			<rect x="0" y="353.587" width="63.8925" height="43.2636" class="st4"/>
			<text x="21.77" y="378.82" class="st5" v:langID="16393"><v:paragraph v:horizAlign="1"/><v:tabList/>ESXi</text>		</g>
		<g id="group1037-37" transform="translate(767.63,-307.723)" v:mID="1037" v:groupContext="group">
			<title>Virtual Machine.1035</title>
			<desc>Virtual Machine</desc>
			<g id="shape1038-38" v:mID="1038" v:groupContext="shape" transform="translate(0,-9.62194)">
				<title>Sheet.1038</title>
				<v:userDefs>
					<v:ud v:nameU="msvDisableCustomConnectionPoints" v:prompt="" v:val="VT0(1):5"/>
				</v:userDefs>
				<path d="M0 395.6 a0.793166 1.24693 -180 0 0 0.793147 1.2469 L23 396.85 a0.793166 1.24693 -180 0 0 0.793147 -1.2469
							 L23.79 373.16 a0.793166 1.24693 -180 0 0 -0.793147 -1.2469 L0.79 371.91 a0.793166 1.24693 -180 0 0 -0.793147
							 1.2469 L0 395.6 Z" class="st13"/>
			</g>
			<g id="shape1039-42" v:mID="1039" v:groupContext="shape" transform="translate(11.8972,-14.8174)">
				<title>Sheet.1039</title>
				<v:userDefs>
					<v:ud v:nameU="msvDisableCustomConnectionPoints" v:prompt="" v:val="VT0(1):5"/>
				</v:userDefs>
				<path d="M3.97 385.94 L3.97 393.19 L0 396.85 L0 389.58 L3.97 385.94 Z" class="st14"/>
			</g>
			<g id="shape1040-44" v:mID="1040" v:groupContext="shape" transform="translate(7.93147,-22.0702)">
				<title>Sheet.1040</title>
				<v:userDefs>
					<v:ud v:nameU="msvDisableCustomConnectionPoints" v:prompt="" v:val="VT0(1):5"/>
				</v:userDefs>
				<path d="M7.93 393.19 L3.97 396.85 L0 393.19 L3.97 389.56 L7.93 393.19 Z" class="st15"/>
			</g>
			<g id="shape1041-46" v:mID="1041" v:groupContext="shape" transform="translate(7.93147,-14.8174)">
				<title>Sheet.1041</title>
				<v:userDefs>
					<v:ud v:nameU="msvDisableCustomConnectionPoints" v:prompt="" v:val="VT0(1):5"/>
				</v:userDefs>
				<path d="M3.97 389.6 L3.97 396.85 L0 393.19 L0 385.94 L3.97 389.6 Z" class="st16"/>
			</g>
			<g id="shape1042-48" v:mID="1042" v:groupContext="shape" transform="translate(7.93147,-14.8174)">
				<title>Sheet.1042</title>
				<v:userDefs>
					<v:ud v:nameU="msvDisableCustomConnectionPoints" v:prompt="" v:val="VT0(1):5"/>
				</v:userDefs>
				<path d="M0 393.19 L3.97 389.58 L3.97 396.85 L0 393.19 Z" class="st15"/>
			</g>
			<g id="shape1043-50" v:mID="1043" v:groupContext="shape" transform="translate(11.8972,-14.8174)">
				<title>Sheet.1043</title>
				<v:userDefs>
					<v:ud v:nameU="msvDisableCustomConnectionPoints" v:prompt="" v:val="VT0(1):5"/>
				</v:userDefs>
				<path d="M3.97 393.19 L0 389.58 L0 396.85 L3.97 393.19 Z" class="st16"/>
			</g>
			<g id="shape1044-52" v:mID="1044" v:groupContext="shape" transform="translate(5.94861,5.68434E-14)">
				<title>Sheet.1044</title>
				<v:userDefs>
					<v:ud v:nameU="msvDisableCustomConnectionPoints" v:prompt="" v:val="VT0(1):5"/>
				</v:userDefs>
				<path d="M10.72 394.77 C8.37 394.19 8.28 391.53 8.28 387.23 L3.61 387.23 C3.61 391.53 3.53 394.19 1.18 394.77 A1.32191
							 2.07817 -180 0 0 0 396.85 L11.9 396.85 A1.32191 2.07817 -180 0 0 10.72 394.77 Z" class="st17"/>
			</g>
			<g id="shape1037-56" v:mID="1037" v:groupContext="groupContent">
				<v:textBlock v:margins="rect(0,0,0,0)" v:tabSpace="42.5197"/>
				<v:textRect cx="11.8972" cy="411.252" width="72" height="28.8038"/>
				<text x="-4.39" y="407.65" class="st2" v:langID="1033"><v:paragraph v:horizAlign="1"/><v:tabList/>Virtual <tspan
							x="-9.31" dy="1.2em" class="st6">Machine</tspan></text>			</g>
		</g>
		<g id="shape1045-59" v:mID="1045" v:groupContext="shape" v:layerMember="0" transform="translate(733.521,-260.079)">
			<title>Dynamic connector.1043</title>
			<path d="M0 396.85 L46.01 396.85 L46.01 385.05" class="st18"/>
		</g>
		<g id="group1047-65" transform="translate(269.291,-225.709)" v:mID="1047" v:groupContext="group">
			<v:custProps>
				<v:cp v:nameU="ShapeClass" v:lbl="ShapeClass" v:type="0" v:invis="true" v:ask="false" v:langID="1033"
						v:val="VT4(Equipment)"/>
				<v:cp v:nameU="ShapeType" v:lbl="ShapeType" v:type="0" v:invis="true" v:ask="false" v:langID="1033"
						v:val="VT4(Device)"/>
				<v:cp v:nameU="SubShapeType" v:lbl="SubShapeType" v:type="0" v:invis="true" v:ask="false" v:langID="1033"
						v:val="VT4(Firewall)"/>
				<v:cp v:nameU="Manufacturer" v:lbl="Manufacturer" v:type="0" v:sortKey="Equipment" v:invis="false" v:ask="false"
						v:langID="1033"/>
				<v:cp v:nameU="ProductNumber" v:lbl="Product Number" v:type="0" v:sortKey="Equipment" v:invis="false" v:ask="false"
						v:langID="1033"/>
				<v:cp v:nameU="PartNumber" v:lbl="Part Number" v:type="0" v:sortKey="Equipment" v:invis="false" v:ask="false"
						v:langID="1033"/>
				<v:cp v:nameU="ProductDescription" v:lbl="Product Description" v:type="0" v:sortKey="Equipment" v:invis="false"
						v:ask="false" v:langID="1033"/>
				<v:cp v:nameU="AssetNumber" v:lbl="Asset Number" v:type="0" v:sortKey="Asset" v:invis="false" v:ask="false"
						v:langID="1033"/>
				<v:cp v:nameU="SerialNumber" v:lbl="Serial Number" v:type="0" v:sortKey="Asset" v:invis="false" v:ask="false"
						v:langID="1033"/>
				<v:cp v:nameU="Location" v:lbl="Location" v:type="0" v:sortKey="Asset" v:invis="false" v:ask="false"
						v:langID="1033"/>
				<v:cp v:nameU="Building" v:lbl="Building" v:type="0" v:sortKey="Asset" v:invis="false" v:ask="false"
						v:langID="1033"/>
				<v:cp v:nameU="Room" v:lbl="Room" v:type="0" v:sortKey="Asset" v:invis="false" v:ask="false" v:langID="1033"/>
			</v:custProps>
			<v:userDefs>
				<v:ud v:nameU="HasText" v:val="VT0(0):5"/>
				<v:ud v:nameU="ShapeClass" v:val="VT0(5):26"/>
				<v:ud v:nameU="ShapeType" v:val="VT0(8):26"/>
				<v:ud v:nameU="SubShapeType" v:val="VT0(27):26"/>
				<v:ud v:nameU="SolSH" v:val="VT15({BF0433D9-CD73-4EB5-8390-8653BE590246}):41"/>
				<v:ud v:nameU="visLegendShape" v:val="VT0(2):26"/>
				<v:ud v:nameU="visVersion" v:prompt="" v:val="VT0(15):26"/>
			</v:userDefs>
			<title>Firewall.1018</title>
			<g id="shape1048-66" v:mID="1048" v:groupContext="shape">
				<title>Sheet.1048</title>
				<path d="M28.06 396.85 L38.27 390.98 L38.27 349.27 L10.2 333.07 L0 338.94 L0 380.52 L28.06 396.85 Z" class="st20"/>
			</g>
			<g id="shape1049-72" v:mID="1049" v:groupContext="shape" transform="translate(28.063,5.68434E-14)">
				<title>Sheet.1049</title>
				<path d="M0 355.27 L0 396.85 L10.2 390.98 L10.2 349.27 L0 355.27 Z" class="st21"/>
			</g>
			<g id="shape1050-79" v:mID="1050" v:groupContext="shape" transform="translate(0,-41.5843)">
				<title>Sheet.1050</title>
				<path d="M0 380.52 L28.06 396.85 L38.27 390.86 L10.2 374.66 L0 380.52 Z" class="st22"/>
			</g>
			<g id="shape1051-84" v:mID="1051" v:groupContext="shape">
				<title>Sheet.1051</title>
				<path d="M0 380.52 L28.06 396.85 L28.06 355.27 L0 338.94 L0 380.52 Z" class="st23"/>
			</g>
			<g id="shape1052-90" v:mID="1052" v:groupContext="shape" transform="translate(2.55118,-3.06142)">
				<title>Sheet.1052</title>
				<path d="M0 343.53 L25.51 358.33 L33.17 353.99" class="st24"/>
				<path d="M25.51 358.33 L25.51 396.85" class="st24"/>
				<path d="M0 350.42 L25.51 365.22" class="st24"/>
				<path d="M0 357.31 L25.51 372.1" class="st24"/>
				<path d="M0 364.2 L25.51 378.99" class="st24"/>
				<path d="M0 371.34 L25.51 386.14" class="st24"/>
				<path d="M0 378.23 L25.51 393.02" class="st24"/>
				<path d="M18.62 382.05 L18.62 388.94" class="st24"/>
				<path d="M4.59 374.14 L4.59 381.03" class="st24"/>
				<path d="M11.48 370.83 L11.48 377.97" class="st24"/>
				<path d="M18.62 368.28 L18.62 374.91" class="st24"/>
				<path d="M4.59 360.11 L4.59 366.75" class="st24"/>
				<path d="M11.48 357.05 L11.48 363.94" class="st24"/>
				<path d="M4.59 346.34 L4.59 352.97" class="st24"/>
			</g>
			<g id="shape1053-108" v:mID="1053" v:groupContext="shape">
				<title>Sheet.1053</title>
				<path d="M0 380.52 L28.06 396.85 L38.27 390.98 L38.27 349.27 L10.2 333.07 L0 338.94 L0 380.52" class="st25"/>
			</g>
		</g>
		<g id="shape1054-111" v:mID="1054" v:groupContext="shape" v:layerMember="0" transform="translate(288.425,-257.599)">
			<title>Dynamic connector.1054</title>
			<desc>443</desc>
			<v:textBlock v:margins="rect(4,4,4,4)" v:tabSpace="42.5197"/>
			<v:textRect cx="196.999" cy="439.489" width="60" height="22.4037"/>
			<path d="M0 396.85 L0 439.49 L413.15 439.49 L413.15 427.04" class="st26"/>
			<rect v:rectContext="textBkgnd" x="170.999" y="432.289" width="18.2461" height="14.4001" class="st27"/>
			<text x="171" y="443.09" class="st12" v:langID="16393"><v:paragraph/><v:tabList/>443</text>		</g>
		<g id="shape1055-119" v:mID="1055" v:groupContext="shape" transform="translate(382.677,-194.646)">
			<title>Sheet.1055</title>
			<path d="M0 396.85 L354.33 396.85" class="st28"/>
		</g>
		<g id="shape1057-122" v:mID="1057" v:groupContext="shape" transform="translate(889.27,164.312) rotate(90.853)">
			<title>Sheet.1057</title>
			<path d="M0 396.85 L43.81 396.85" class="st28"/>
		</g>
		<g id="shape1058-125" v:mID="1058" v:groupContext="shape" transform="translate(1009.89,160.199) rotate(90.2593)">
			<title>Sheet.1058</title>
			<path d="M0 396.85 L43.8 396.85" class="st28"/>
		</g>
		<g id="shape1059-128" v:mID="1059" v:groupContext="shape" transform="translate(1105.51,158.403) rotate(90)">
			<title>Sheet.1059</title>
			<path d="M0 396.85 L43.8 396.85" class="st28"/>
		</g>
		<g id="shape1061-131" v:mID="1061" v:groupContext="shape" v:layerMember="0" transform="translate(288.425,-251.044)">
			<title>Dynamic connector.1061</title>
			<desc>443</desc>
			<v:textBlock v:margins="rect(4,4,4,4)" v:tabSpace="42.5197"/>
			<v:textRect cx="44.7949" cy="389.233" width="60" height="22.4037"/>
			<path d="M0 390.3 L39.01 390.3 L39.01 389.23 L79.61 389.23" class="st9"/>
			<rect v:rectContext="textBkgnd" x="35.6719" y="382.033" width="18.2461" height="14.4001" class="st27"/>
			<text x="35.67" y="392.83" class="st12" v:langID="16393"><v:paragraph v:horizAlign="1"/><v:tabList/>443</text>		</g>
		<g id="shape1062-138" v:mID="1062" v:groupContext="shape" transform="translate(111.969,-241.425)">
			<title>Parallelogram.1057</title>
			<desc>Customer Terminal</desc>
			<v:userDefs>
				<v:ud v:nameU="visVersion" v:prompt="" v:val="VT0(15):26"/>
			</v:userDefs>
			<v:textBlock v:margins="rect(4,4,4,4)" v:tabSpace="42.5197"/>
			<v:textRect cx="47.4803" cy="380.676" width="94.97" height="32.3487"/>
			<path d="M0 396.85 L85.46 396.85 L94.96 364.5 L9.5 364.5 L0 396.85 Z" class="st29"/>
			<text x="23.74" y="377.08" class="st5" v:langID="16393"><v:paragraph v:horizAlign="1"/><v:tabList/>Customer <tspan
						x="25.91" dy="1.2em" class="st6">Terminal</tspan></text>		</g>
		<g id="shape1063-142" v:mID="1063" v:groupContext="shape" v:layerMember="0" transform="translate(154.701,-241.425)">
			<title>Dynamic connector.1063</title>
			<path d="M0 413.05 L0 413.41 L0 473.87 L-27.14 473.87 L-27.14 547.62" class="st30"/>
		</g>
		<g id="shape1064-148" v:mID="1064" v:groupContext="shape" v:layerMember="0" transform="translate(164.197,-273.773)">
			<title>Dynamic connector.1064</title>
			<path d="M0 396.85 L0 376.53 L124.23 376.53 L124.23 401.98" class="st9"/>
		</g>
		<g id="shape1065-153" v:mID="1065" v:groupContext="shape" transform="translate(379.077,-237.03)">
			<title>Rectangle.1065</title>
			<desc>vRA LB</desc>
			<v:userDefs>
				<v:ud v:nameU="visVersion" v:val="VT0(15):26"/>
			</v:userDefs>
			<v:textBlock v:margins="rect(4,4,4,4)" v:tabSpace="42.5197"/>
			<v:textRect cx="31.9462" cy="375.219" width="63.9" height="43.2636"/>
			<rect x="0" y="353.587" width="63.8925" height="43.2636" class="st4"/>
			<text x="15.36" y="378.82" class="st5" v:langID="16393"><v:paragraph v:horizAlign="1"/><v:tabList/>vRA LB</text>		</g>
		<g id="shape1066-156" v:mID="1066" v:groupContext="shape" transform="translate(807.874,159.821) rotate(90)">
			<title>Sheet.1066</title>
			<path d="M0 396.85 L42.38 396.85" class="st28"/>
		</g>
		<g id="shape1067-159" v:mID="1067" v:groupContext="shape" v:layerMember="0" transform="translate(411.024,-273.915)">
			<title>Dynamic connector.1067</title>
			<v:textBlock v:margins="rect(4,4,4,4)" v:tabSpace="42.5197"/>
			<path d="M0 390.47 L0 370.29 L81.44 370.29 L81.44 378.02" class="st9"/>
		</g>
		<g id="shape1072-164" v:mID="1072" v:groupContext="shape" transform="translate(330.123,-313.021)">
			<title>Sheet.1072</title>
			<desc>VCS Product Scope</desc>
			<v:userDefs/>
			<v:textBlock v:margins="rect(0,0,0,0)" v:tabSpace="42.5198"/>
			<v:textRect cx="39.0332" cy="384.872" width="78.07" height="23.9641"/>
			<rect x="0" y="372.886" width="78.0657" height="23.9643" class="st32"/>
			<text x="25.71" y="388.47" class="st34" v:langID="16393"><v:paragraph v:horizAlign="1"/><v:tabList/>VCS</text>		</g>
		<g id="shape1073-169" v:mID="1073" v:groupContext="shape" transform="translate(60.8319,-170.079)">
			<title>Snip and Round Single Corner Rectangle.1073</title>
			<desc>host file cmp001.dhc.next cmp002.dhc.next cmp003.dhc.next</desc>
			<v:userDefs>
				<v:ud v:nameU="CTypeTopLeftSnip" v:prompt="" v:val="VT0(0):5"/>
				<v:ud v:nameU="CTypeTopRightSnip" v:prompt="" v:val="VT0(1):5"/>
				<v:ud v:nameU="CTypeBotLeftSnip" v:prompt="" v:val="VT0(1):5"/>
				<v:ud v:nameU="CTypeBotRightSnip" v:prompt="" v:val="VT0(0):5"/>
				<v:ud v:nameU="CornerLockHoriz" v:prompt="" v:val="VT0(0):5"/>
				<v:ud v:nameU="CornerLockVert" v:prompt="" v:val="VT0(0):5"/>
				<v:ud v:nameU="CornerLockDiag" v:prompt="" v:val="VT0(0):5"/>
				<v:ud v:nameU="TopLeftOffset" v:prompt="" v:val="VT0(0.15748031496063):24"/>
				<v:ud v:nameU="TopRightOffset" v:prompt="" v:val="VT0(0.15748031496063):24"/>
				<v:ud v:nameU="BotLeftOffset" v:prompt="" v:val="VT0(0):24"/>
				<v:ud v:nameU="BotRightOffset" v:prompt="" v:val="VT0(0):24"/>
				<v:ud v:nameU="visVersion" v:prompt="" v:val="VT0(15):26"/>
				<v:ud v:nameU="TopLeftOffset" v:prompt="" v:val="VT0(0.07299150637584):1"/>
				<v:ud v:nameU="TopRightOffset" v:prompt="" v:val="VT0(0.07299150637584):1"/>
			</v:userDefs>
			<v:textBlock v:margins="rect(4,4,4,4)" v:tabSpace="42.5197" v:verticalAlign="0"/>
			<v:textRect cx="26.2769" cy="368.504" width="52.56" height="56.6929"/>
			<path d="M0 396.85 L52.55 396.85 L52.55 345.41 L47.3 340.16 L5.26 340.16 A5.2553 5.2553 -180 0 0 0 345.41 L0 396.85 Z"
					class="st35"/>
			<text x="13.21" y="351.36" class="st36" v:langID="16393"><v:paragraph v:horizAlign="1"/><v:tabList/>host file<v:newlineChar/><tspan
						x="5.17" dy="1.3em" class="st37">cmp001.dhc.next<v:newlineChar/></tspan><tspan x="5.17" dy="1.2em"
						class="st37">cmp002.dhc.next<v:newlineChar/></tspan><tspan x="5.17" dy="1.2em" class="st37">cmp003.dhc.next</tspan><v:newlineChar/></text>		</g>
		<g id="shape1074-177" v:mID="1074" v:groupContext="shape" transform="translate(-199.112,-104.818) rotate(-46.1561)">
			<title>Sheet.1074</title>
			<path d="M0 396.85 C1.63 394.96 3.78 393.25 5.94 391.82 C15.2 385.65 24.63 384.55 33.38 389.24 L33.66 389.47"
					class="st38"/>
		</g>
		<g id="shape1075-183" v:mID="1075" v:groupContext="shape" transform="translate(483.307,206.929) rotate(90)">
			<title>Sheet.1075</title>
			<path d="M0 396.85 L12.76 396.85" class="st40"/>
		</g>
		<g id="group1076-186" transform="translate(184.252,-31.1584) scale(-1,1)" v:mID="1076" v:groupContext="group">
			<v:userDefs>
				<v:ud v:nameU="SkinColor" v:prompt="" v:val="VT5(#da8c36)"/>
				<v:ud v:nameU="visVersion" v:prompt="" v:val="VT0(15):26"/>
			</v:userDefs>
			<title>User.1076</title>
			<g id="shape1077-187" v:mID="1077" v:groupContext="shape" transform="translate(13.4929,-15.6119)">
				<title>Sheet.1077</title>
				<path d="M59.68 338.36 L53.51 341.42 A3.54472 3.54472 -180 0 0 51.93 342.79 A38.7597 38.7597 -180 0 0 50.92 352.95
							 A60.9618 60.9618 -180 0 0 44.08 356.56 L44.02 355.07 L43.82 353.28 L24.82 343.67 L23 344.5 L23.81 355.67
							 L0 368.23 L0 369.51 L52.39 396.85 L86.4 378.89 L86.4 377.61 L81.42 375 L82.45 353.08 L77.9 350.66 A15.9516
							 15.9516 -180 0 0 68.88 339.56 A44.1806 44.1806 0 0 1 68.83 338.26 A8.34354 8.34354 -180 0 0 72.18 330.95
							 A7.97387 7.97387 -180 0 0 64.26 322.81 A7.90333 7.90333 -180 0 0 56.37 330.83 A8.41922 8.41922 -180
							 0 0 59.68 338.36 Z" class="st41"/>
			</g>
			<g id="shape1078-189" v:mID="1078" v:groupContext="shape" transform="translate(90.1491,-37.4663)">
				<title>Sheet.1078</title>
				<path d="M0 394.35 L0.49 372.14 L5.79 374.93 L4.77 396.85 L2.32 395.57 L0 394.35 Z" class="st42"/>
				<path d="M0 394.35 L0.49 372.14 L5.79 374.93 L4.77 396.85 L2.32 395.57" class="st43"/>
			</g>
			<g id="shape1079-192" v:mID="1079" v:groupContext="shape" transform="translate(91.3897,-58.3852)">
				<title>Sheet.1079</title>
				<path d="M0 393.44 L4.55 395.85 L2.06 396.85 L0.03 395.7 L0 393.44 Z" class="st44"/>
				<path d="M0 393.44 L4.55 395.85 L2.06 396.85 L0.03 395.7" class="st43"/>
			</g>
			<g id="shape1080-197" v:mID="1080" v:groupContext="shape" transform="translate(13.4929,-16.8993)">
				<title>Sheet.1080</title>
				<path d="M0 369.52 L34.18 351.49 L86.4 378.9 L52.41 396.85 L0 369.52 Z" class="st45"/>
			</g>
			<g id="shape1081-201" v:mID="1081" v:groupContext="shape" transform="translate(13.4929,-15.6119)">
				<title>Sheet.1081</title>
				<path d="M0 369.51 L52.39 396.85 L52.41 395.56 L0 368.23 L0 369.51 ZM81.79 380.01 L52.41 395.56 L52.41 396.85 L86.4
							 378.89 L86.4 377.61 L81.79 380.01 Z" class="st46"/>
			</g>
			<g id="shape1082-203" v:mID="1082" v:groupContext="shape" transform="translate(48.118,-33.3166)">
				<title>Sheet.1082</title>
				<path d="M7.82 382.91 L0 387.06 L18.03 396.85 L25.79 392.68 L7.76 382.89 L7.82 382.91 Z" class="st47"/>
				<path d="M7.82 382.91 L0 387.06 L18.03 396.85 L25.79 392.68 L7.76 382.89" class="st48"/>
			</g>
			<g id="shape1083-210" v:mID="1083" v:groupContext="shape" transform="translate(64.4054,-43.4164)">
				<title>Sheet.1083</title>
				<path d="M3.1 388.45 L3.04 388.59 L0 380.85 A55.0823 55.0823 0 0 1 1.02 370.59 A6.25846 6.25846 0 0 1 9.7 370.39
							 A17.7841 17.7841 0 0 1 20.52 390.61 L20.04 396.85 L3.1 388.45 Z" class="st49"/>
				<path d="M3.1 388.45 L3.04 388.59 L0 380.85 A55.0823 55.0823 0 0 1 1.02 370.59 A6.25846 6.25846 0 0 1 9.7 370.39
							 A17.7841 17.7841 0 0 1 20.52 390.61 L20.04 396.85" class="st43"/>
			</g>
			<g id="shape1084-215" v:mID="1084" v:groupContext="shape" transform="translate(66.5591,-59.7659)">
				<title>Sheet.1084</title>
				<path d="M16.78 396.85 A15.6227 15.6227 -180 0 0 11.34 389.64 A13.741 13.741 -180 0 0 -0 385.79 L7.57 381.94 A13.7437
							 13.7437 0 0 1 18.91 385.78 A15.7009 15.7009 0 0 1 24.31 392.86 L16.78 396.85 Z" class="st50"/>
				<path d="M16.78 396.85 A15.6227 15.6227 -180 0 0 11.34 389.64 A13.741 13.741 -180 0 0 -0 385.79 L7.57 381.94 A13.7437
							 13.7437 0 0 1 18.91 385.78 A15.7009 15.7009 0 0 1 24.31 392.86" class="st43"/>
			</g>
			<g id="shape1085-220" v:mID="1085" v:groupContext="shape" transform="translate(83.3442,-43.6609)">
				<title>Sheet.1085</title>
				<path d="M7.53 376.75 A11.8313 11.8313 0 0 1 8.09 379.37 A72.9293 72.9293 0 0 1 8.53 392.58 A25.4069 25.4069 0 0
							 1 1.37 396.85 A1465.56 1465.56 -180 0 0 0.52 383.22 A11.6918 11.6918 -180 0 0 0.04 380.87 L0 380.75
							 A6.05947 6.05947 0 0 1 7.51 376.73 L7.53 376.75 Z" class="st51"/>
				<path d="M7.53 376.75 A11.8313 11.8313 0 0 1 8.09 379.37 A72.9293 72.9293 0 0 1 8.53 392.58 A25.4069 25.4069 0 0
							 1 1.37 396.85 A1465.56 1465.56 -180 0 0 0.52 383.22 A11.6918 11.6918 -180 0 0 0.04 380.87 L0 380.75
							 A6.05947 6.05947 0 0 1 7.51 376.73" class="st43"/>
			</g>
			<g id="shape1086-229" v:mID="1086" v:groupContext="shape" transform="translate(83.8992,-39.9682)">
				<title>Sheet.1086</title>
				<path d="M0 393.57 L6.82 389.97 L6.25 396.85 L0 393.57 Z" class="st52"/>
			</g>
			<g id="shape1087-231" v:mID="1087" v:groupContext="shape" transform="translate(63.5097,-36.8092)">
				<title>Sheet.1087</title>
				<path d="M10.22 391.18 A4.0616 4.0616 0 0 1 6.84 395.95 A4.86667 4.86667 0 0 1 0.75 394.43 A4.06542 4.06542 0 0 1
							 4.13 389.66 A4.86498 4.86498 0 0 1 10.22 391.18 Z" class="st53"/>
			</g>
			<g id="shape1088-235" v:mID="1088" v:groupContext="shape" transform="translate(73.2791,-70.4063)">
				<title>Sheet.1088</title>
				<path d="M0.22 393.29 L0.26 394.99 A3.28079 3.28079 -180 0 0 4.08 396.48 A9.76195 9.76195 -180 0 0 9.08 395.9 L9.04
							 392.69 A8.60187 8.60187 0 0 1 0.37 393.22 L0.22 393.29 Z" class="st54"/>
				<path d="M0.22 393.29 L0.26 394.99 A3.28079 3.28079 -180 0 0 4.08 396.48 A9.76195 9.76195 -180 0 0 9.08 395.9 L9.04
							 392.69 A8.60187 8.60187 0 0 1 0.37 393.22" class="st43"/>
			</g>
			<g id="shape1089-240" v:mID="1089" v:groupContext="shape" transform="translate(72.5901,-37.5663)">
				<title>Sheet.1089</title>
				<path d="M12.05 384.96 L0.55 391.09 A2.89701 2.89701 0 0 1 0 395.48 A3.11241 3.11241 -180 0 0 4.33 395.02 L12.23
							 390.72 L12.05 384.96 Z" class="st55"/>
			</g>
			<g id="shape1090-242" v:mID="1090" v:groupContext="shape" transform="translate(57.8006,-47.1578)">
				<title>Sheet.1090</title>
				<path d="M0.43 396.85 L10.05 391.85 L9.78 386.14 L0 391.12 L0.43 396.85 Z" class="st56"/>
				<path d="M0.43 396.85 L10.05 391.85 L9.78 386.14 L0 391.12" class="st43"/>
			</g>
			<g id="shape1091-245" v:mID="1091" v:groupContext="shape" transform="translate(69.8496,-72.7003)">
				<title>Sheet.1091</title>
				<path d="M15.81 388.37 A8.20766 8.20766 0 0 1 7.91 396.85 A8.20766 8.20766 0 0 1 0 388.37 A8.20942 8.20942 0 0 1
							 7.91 379.9 A8.20942 8.20942 0 0 1 15.81 388.37 L-3.95 375.66 L15.81 388.37 Z" class="st57"/>
				<path d="M15.81 388.37 A8.20766 8.20766 0 0 1 7.91 396.85 A8.20766 8.20766 0 0 1 0 388.37 A8.20942 8.20942 0 0 1
							 7.91 379.9 A8.20942 8.20942 0 0 1 15.81 388.37" class="st58"/>
			</g>
			<g id="shape1092-250" v:mID="1092" v:groupContext="shape" transform="translate(57.5761,-43.2958)">
				<title>Sheet.1092</title>
				<path d="M-0 384.24 A2272.47 2272.47 -180 0 0 6.97 380.6 L9.98 382.23 L0.28 387.35 L0 384.24 ZM26.83 390.79 L15.57
							 396.85 A4.05983 4.05983 -180 0 0 12.08 395.75 A2.19433 2.19433 0 0 1 13.29 394.72 A646.835 646.835 -180
							 0 0 23.82 389.17 L26.83 390.79 Z" class="st59"/>
				<path d="M-0 384.24 A2272.47 2272.47 -180 0 0 6.97 380.6 L9.98 382.23 L0.28 387.35M26.83 390.79 L15.57 396.85 A4.05983
							 4.05983 -180 0 0 12.08 395.75 A2.19433 2.19433 0 0 1 13.29 394.72 A646.835 646.835 -180 0 0 23.82 389.17
							 L26.83 390.79" class="st43"/>
			</g>
			<g id="shape1093-253" v:mID="1093" v:groupContext="shape" transform="translate(57.55,-37.2011)">
				<title>Sheet.1093</title>
				<path d="M10.15 382.15 L9.86 371.3 L10.15 382.15 ZM0.69 386.89 L10.22 382.09 L0.69 386.89 ZM23.77 378.43 L23.77 383.06
							 L14.34 388.09 A6.54267 6.54267 -180 0 0 12.18 389.56 A6.8648 6.8648 -180 0 0 7 392.28 A3.45493 3.45493
							 -180 0 0 11.98 396.65 A7.82384 7.82384 -180 0 0 15 395.15 A5.36931 5.36931 -180 0 0 20.92 393.89 L33.17
							 387.21 A4.47869 4.47869 -180 0 0 34.57 383.04 A835.189 835.189 -180 0 0 33.93 372.97 A14.5092 14.5092
							 -180 0 0 27.97 363.28 A29.4485 29.4485 -180 0 0 24.82 361.15 L24.78 359.85 A8.22096 8.22096 -180 0 0
							 28.13 353.08 A8.17694 8.17694 -180 0 0 20.21 344.4 A8.07292 8.07292 -180 0 0 12.37 353.08 A8.71472 8.71472
							 -180 0 0 15.62 359.95 L9.06 363.29 A4.0273 4.0273 -180 0 0 7.22 366.84 L6.86 374.54 A147.538 147.538
							 -180 0 0 -0 378.07 L23.77 378.43 Z" class="st60"/>
				<path d="M10.15 382.15 L9.86 371.3M0.69 386.89 L10.22 382.09M23.77 378.43 L23.77 383.06 L14.34 388.09 A6.54267 6.54267
							 -180 0 0 12.18 389.56 A6.8648 6.8648 -180 0 0 7 392.28 A3.45493 3.45493 -180 0 0 11.98 396.65 A7.82384
							 7.82384 -180 0 0 15 395.15 A5.36931 5.36931 -180 0 0 20.92 393.89 L33.17 387.21 A4.47869 4.47869 -180
							 0 0 34.57 383.04 A835.189 835.189 -180 0 0 33.93 372.97 A14.5092 14.5092 -180 0 0 27.97 363.28 A29.4485
							 29.4485 -180 0 0 24.82 361.15 L24.78 359.85 A8.22096 8.22096 -180 0 0 28.13 353.08 A8.17694 8.17694
							 -180 0 0 20.21 344.4 A8.07292 8.07292 -180 0 0 12.37 353.08 A8.71472 8.71472 -180 0 0 15.62 359.95 L9.06
							 363.29 A4.0273 4.0273 -180 0 0 7.22 366.84 L6.86 374.54 A147.538 147.538 -180 0 0 -0 378.07"
						class="st48"/>
			</g>
			<g id="shape1094-256" v:mID="1094" v:groupContext="shape" transform="translate(48.118,-31.979)">
				<title>Sheet.1094</title>
				<path d="M9.03 390.49 L0 385.49 L0 386.88 L9.13 391.93 L9.23 393.24 L10.37 392.61 L18.01 396.84 L27.2 391.93 L25.79
							 391.21 L18.03 395.47 L10.78 391.45 L9.19 369.65 L7.34 370.61 L9.03 390.49 Z" class="st61"/>
			</g>
			<g id="shape1095-258" v:mID="1095" v:groupContext="shape" transform="translate(36.4932,-58.215)">
				<title>Sheet.1095</title>
				<path d="M18.96 396.85 L0 387.1 L1.82 386.27 L20.82 395.88 L18.96 396.85 Z" class="st62"/>
			</g>
			<g id="shape1096-261" v:mID="1096" v:groupContext="shape" transform="translate(36.9184,-32.384)">
				<title>Sheet.1096</title>
				<path d="M18.91 392.9 A8.84146 8.84146 0 0 1 9.45 396.85 A8.83327 8.83327 0 0 1 0 392.9 A8.83467 8.83467 0 0 1 9.45
							 388.95 A8.84286 8.84286 0 0 1 18.91 392.9 Z" class="st63"/>
			</g>
			<g id="shape1097-265" v:mID="1097" v:groupContext="shape" transform="translate(36.5032,-35.5858)">
				<title>Sheet.1097</title>
				<path d="M0 364.45 L1.61 386.98 L20.84 396.85 L18.96 374.08 L0 364.45 Z" class="st64"/>
			</g>
			<g id="shape1098-273" v:mID="1098" v:groupContext="shape" transform="translate(38.85,-32.9246)">
				<title>Sheet.1098</title>
				<path d="M5.28 380.42 A30.9871 30.9871 -180 0 0 0 395.72 L3.07 396.85 A30.9979 30.9979 0 0 1 8.35 381.54 L5.28 380.42
							 Z" class="st65"/>
			</g>
			<g id="shape1099-276" v:mID="1099" v:groupContext="shape" transform="translate(36.9042,-30.7825)">
				<title>Sheet.1099</title>
				<path d="M10.29 379.4 L11.32 391.5 L5.08 394.79 A31.6851 31.6851 0 0 1 10.29 379.4 ZM18.91 391.35 A8.83968 8.83968
							 0 0 1 9.45 395.3 A8.83531 8.83531 0 0 1 0 391.35 L0 392.9 A8.83355 8.83355 -180 0 0 9.45 396.85 A8.84211
							 8.84211 -180 0 0 18.91 392.9 L18.91 391.35 Z" class="st66"/>
			</g>
			<g id="shape1100-278" v:mID="1100" v:groupContext="shape" transform="translate(13.4929,-15.6119)">
				<title>Sheet.1100</title>
				<path d="M59.68 338.36 L53.51 341.42 A3.70668 3.70668 -180 0 0 51.93 342.79 A36.821 36.821 -180 0 0 50.92 352.95
							 A90.9091 90.9091 -180 0 0 44.08 356.56 L44.02 355.07 L43.82 353.28 L24.82 343.67 L23 344.5 L23.81 355.67
							 L0 368.23 L0 369.51 L52.39 396.85 L86.4 378.89 L86.4 377.61 L81.42 375 L82.45 353.08 L77.9 350.66 A16.8799
							 16.8799 -180 0 0 68.88 339.56 A45.997 45.997 0 0 1 68.83 338.26 A8.36577 8.36577 -180 0 0 72.18 330.95
							 A8.04784 8.04784 -180 0 0 64.26 322.81 A7.91388 7.91388 -180 0 0 56.37 330.83 A8.67768 8.67768 -180
							 0 0 59.68 338.36 Z" class="st67"/>
			</g>
		</g>
	</g>
</svg>
