<?xml version="1.0" encoding="UTF-8" standalone="no"?>
<!DOCTYPE svg PUBLIC "-//W3C//DTD SVG 1.1//EN" "http://www.w3.org/Graphics/SVG/1.1/DTD/svg11.dtd">
<!-- Generated by Microsoft Visio, SVG Export wiCIVnetmodules.svg Page-1 -->
<svg xmlns="http://www.w3.org/2000/svg" xmlns:xlink="http://www.w3.org/1999/xlink" xmlns:ev="http://www.w3.org/2001/xml-events"
		xmlns:v="http://schemas.microsoft.com/visio/2003/SVGExtensions/" width="5.73679in" height="6.70263in"
		viewBox="0 0 413.049 482.59" xml:space="preserve" color-interpolation-filters="sRGB" class="st10">
	<v:documentProperties v:langID="1033" v:metric="true" v:viewMarkup="false">
		<v:userDefs>
			<v:ud v:nameU="msvNoAutoConnect" v:val="VT0(1):26"/>
		</v:userDefs>
	</v:documentProperties>

	<style type="text/css">
	<![CDATA[
		.st1 {fill:#434445;stroke:none;stroke-linecap:butt;stroke-width:0.75}
		.st2 {fill:none;stroke:none;stroke-linecap:round;stroke-linejoin:round;stroke-width:0.75}
		.st3 {fill:#000000;font-family:Calibri;font-size:1.00001em;font-weight:bold}
		.st4 {stroke:#000000;stroke-linecap:round;stroke-linejoin:round;stroke-width:1.5}
		.st5 {fill:#ffffff;stroke:#000000;stroke-linecap:round;stroke-linejoin:round;stroke-width:0.75}
		.st6 {fill:#000000;font-family:Calibri;font-size:1.00001em}
		.st7 {fill:none;stroke:#000000;stroke-dasharray:5.25,3.75;stroke-linecap:round;stroke-linejoin:round;stroke-width:0.75}
		.st8 {stroke:#000000;stroke-linecap:round;stroke-linejoin:round;stroke-width:2.25}
		.st9 {fill:#000000;font-family:Calibri;font-size:0.833336em}
		.st10 {fill:none;fill-rule:evenodd;font-size:12px;overflow:visible;stroke-linecap:square;stroke-miterlimit:3}
	]]>
	</style>

	<g v:mID="0" v:index="1" v:groupContext="foregroundPage">
		<title>Page-1</title>
		<v:pageProperties v:drawingScale="0.0393701" v:pageScale="0.0393701" v:drawingUnits="24" v:shadowOffsetX="8.50394"
				v:shadowOffsetY="-8.50394"/>
		<v:layer v:name="WD1" v:index="0"/>
		<g id="group93-1" transform="translate(96.6015,-306.092)" v:mID="93" v:groupContext="group">
			<title>NSX ESG</title>
			<g id="shape94-2" v:mID="94" v:groupContext="shape">
				<title>Sheet.94</title>
				<path d="M42.98 436.23 L3.38 436.23 C1.51 436.23 0 437.74 0 439.6 L0 479.21 C0 481.08 1.51 482.59 3.38 482.59 L42.98
							 482.59 C44.85 482.59 46.36 481.08 46.36 479.21 L46.36 439.6 C46.36 437.74 44.85 436.23 42.98 436.23
							 ZM12.21 448.16 L9.76 450.62 L7.51 442.22 L15.9 444.47 L13.45 446.94 L24.32 457.82 L24.29 457.86 L23.09
							 459.04 L12.21 448.16 ZM12.32 461.21 C12.32 461.83 12.21 462.34 11.98 462.76 C11.76 463.18 11.48 463.5
							 11.14 463.74 C10.8 463.98 10.45 464.14 10.09 464.21 C9.61 464.31 8.92 464.36 8 464.36 L6.69 464.36 L6.69
							 468.12 L4.68 468.12 L4.68 458.15 L7.91 458.15 C9.13 458.15 9.93 458.2 10.3 458.3 C10.87 458.45 11.35
							 458.77 11.74 459.27 C12.13 459.77 12.32 460.42 12.32 461.21 ZM44.62 479.21 C44.62 480.12 43.89 480.85
							 42.98 480.85 L3.38 480.85 C3.14 480.85 2.92 480.79 2.71 480.7 L23.67 459.7 L35.12 471.15 L32.66 473.6
							 L41.05 475.85 L38.81 467.46 L36.35 469.92 L24.9 458.47 L24.93 458.43 L24.94 458.43 L26.65 456.72 L44.47
							 438.94 C44.57 439.15 44.62 439.37 44.62 439.61 L44.62 479.21 Z" class="st1"/>
			</g>
			<g id="shape95-4" v:mID="95" v:groupContext="shape" transform="translate(6.69348,-19.9251)">
				<title>Sheet.95</title>
				<path d="M2.42 479.83 C2.18 479.78 1.7 479.76 0.97 479.76 L0 479.76 L0 482.59 L1.1 482.59 C1.9 482.59 2.43 482.54
							 2.69 482.43 C2.96 482.33 3.17 482.17 3.32 481.94 C3.48 481.72 3.55 481.46 3.55 481.17 C3.55 480.8 3.44
							 480.51 3.23 480.27 C3.02 480.04 2.75 479.89 2.42 479.83 Z" class="st1"/>
			</g>
			<g id="shape96-6" v:mID="96" v:groupContext="shape" transform="translate(17.2133,-3.00608)">
				<title>Sheet.96</title>
				<path d="M4.71 480 L2.18 472.62 L0 472.62 L3.56 482.59 L5.71 482.59 L9.28 472.62 L7.15 472.62 L4.71 480 Z"
						class="st1"/>
			</g>
		</g>
		<g id="group97-8" transform="translate(226.218,-306.092)" v:mID="97" v:groupContext="group">
			<title>NSX ESG.97</title>
			<g id="shape98-9" v:mID="98" v:groupContext="shape">
				<title>Sheet.98</title>
				<path d="M42.98 436.23 L3.38 436.23 C1.51 436.23 0 437.74 0 439.6 L0 479.21 C0 481.08 1.51 482.59 3.38 482.59 L42.98
							 482.59 C44.85 482.59 46.36 481.08 46.36 479.21 L46.36 439.6 C46.36 437.74 44.85 436.23 42.98 436.23
							 ZM12.21 448.16 L9.76 450.62 L7.51 442.22 L15.9 444.47 L13.45 446.94 L24.32 457.82 L24.29 457.86 L23.09
							 459.04 L12.21 448.16 ZM12.32 461.21 C12.32 461.83 12.21 462.34 11.98 462.76 C11.76 463.18 11.48 463.5
							 11.14 463.74 C10.8 463.98 10.45 464.14 10.09 464.21 C9.61 464.31 8.92 464.36 8 464.36 L6.69 464.36 L6.69
							 468.12 L4.68 468.12 L4.68 458.15 L7.91 458.15 C9.13 458.15 9.93 458.2 10.3 458.3 C10.87 458.45 11.35
							 458.77 11.74 459.27 C12.13 459.77 12.32 460.42 12.32 461.21 ZM44.62 479.21 C44.62 480.12 43.89 480.85
							 42.98 480.85 L3.38 480.85 C3.14 480.85 2.92 480.79 2.71 480.7 L23.67 459.7 L35.12 471.15 L32.66 473.6
							 L41.05 475.85 L38.81 467.46 L36.35 469.92 L24.9 458.47 L24.93 458.43 L24.94 458.43 L26.65 456.72 L44.47
							 438.94 C44.57 439.15 44.62 439.37 44.62 439.61 L44.62 479.21 Z" class="st1"/>
			</g>
			<g id="shape99-11" v:mID="99" v:groupContext="shape" transform="translate(6.69348,-19.9251)">
				<title>Sheet.99</title>
				<path d="M2.42 479.83 C2.18 479.78 1.7 479.76 0.97 479.76 L0 479.76 L0 482.59 L1.1 482.59 C1.9 482.59 2.43 482.54
							 2.69 482.43 C2.96 482.33 3.17 482.17 3.32 481.94 C3.48 481.72 3.55 481.46 3.55 481.17 C3.55 480.8 3.44
							 480.51 3.23 480.27 C3.02 480.04 2.75 479.89 2.42 479.83 Z" class="st1"/>
			</g>
			<g id="shape100-13" v:mID="100" v:groupContext="shape" transform="translate(17.2133,-3.00608)">
				<title>Sheet.100</title>
				<path d="M4.71 480 L2.18 472.62 L0 472.62 L3.56 482.59 L5.71 482.59 L9.28 472.62 L7.15 472.62 L4.71 480 Z"
						class="st1"/>
			</g>
		</g>
		<g id="group101-15" transform="translate(70.8159,-202.577)" v:mID="101" v:groupContext="group">
			<title>T0 Logical Router</title>
			<g id="group102-16" v:mID="102" v:groupContext="group">
				<title>Sheet.102</title>
				<g id="shape103-17" v:mID="103" v:groupContext="shape">
					<title>Logical distributed router.1182</title>
					<path d="M29.08 424.43 C13.02 424.43 0 437.45 0 453.5 L0 453.5 L0 453.5 L0 453.51 C0 469.57 13.02 482.59 29.08
								 482.59 C45.14 482.59 58.16 469.57 58.16 453.51 L58.16 453.51 L58.16 453.51 C58.16 437.45 45.14 424.43
								 29.08 424.43 ZM10.01 472.58 C5.36 467.93 2.44 461.59 2.17 454.56 L21.98 454.56 L21.98 456.14 L26.55
								 453.51 L21.99 450.87 L21.99 452.45 L2.17 452.45 C2.44 445.42 5.37 439.09 10.01 434.44 C14.82 429.64
								 21.41 426.66 28.72 426.56 L26.45 430.5 L28.02 430.5 L28.02 476.51 L26.45 476.51 L28.72 480.46 C21.42
								 480.36 14.82 477.38 10.01 472.58 ZM31.61 453.51 L36.17 456.14 L36.17 454.57 L55.99 454.57 C55.72
								 461.59 52.79 467.93 48.15 472.58 C43.34 477.38 36.74 480.36 29.43 480.46 L31.71 476.51 L30.13 476.51
								 L30.13 430.5 L31.71 430.5 L29.44 426.56 C36.74 426.66 43.34 429.64 48.15 434.44 C52.79 439.09 55.72
								 445.43 55.99 452.46 L36.17 452.45 L36.17 450.88 L31.61 453.51 Z" class="st1"/>
				</g>
				<g id="shape104-19" v:mID="104" v:groupContext="shape" v:layerMember="0" transform="translate(29.8119,-30.1873)">
					<title>NSX-T Tier 1 Router.9</title>
					<desc>T0</desc>
					<v:textBlock v:margins="rect(4,4,4,4)" v:tabSpace="42.5197"/>
					<v:textRect cx="10.5002" cy="472.428" width="21.01" height="20.323"/>
					<rect x="0" y="462.267" width="21.0004" height="20.323" class="st2"/>
					<text x="4.49" y="476.03" class="st3" v:langID="1033"><v:paragraph v:horizAlign="1"/><v:tabList/>T0</text>				</g>
			</g>
			<g id="shape105-22" v:mID="105" v:groupContext="shape" transform="translate(10.1552,-33.2814)">
				<title>Logical Firewall.1256</title>
				<path d="M13.18 467.86 L1.11 467.86 C0.5 467.86 0 468.36 0 468.97 L0 471.42 L0 471.94 L0 474.95 L0 475.5 L0 478.51
							 L0 479.03 L0 481.67 C0 482.18 0.41 482.59 0.92 482.59 L13.22 482.59 C13.78 482.59 14.23 482.14 14.23
							 481.58 L14.23 479.03 L14.23 478.76 L14.23 478.51 L14.23 475.5 L14.23 475.23 L14.23 474.95 L14.23 471.94
							 L14.23 471.67 L14.23 471.42 L14.23 468.91 C14.23 468.33 13.76 467.86 13.18 467.86 ZM13.69 468.91 L13.69
							 471.41 L7.5 471.41 L7.5 468.4 L13.18 468.4 C13.47 468.4 13.69 468.63 13.69 468.91 ZM4.04 474.95 L4.04
							 471.96 L10.44 471.96 L10.44 474.95 L4.04 474.95 ZM0.54 468.97 C0.54 468.66 0.79 468.4 1.11 468.4 L6.96
							 468.4 L6.96 471.41 L0.54 471.41 L0.54 468.97 ZM0.54 471.96 L3.5 471.96 L3.5 474.95 L0.54 474.95 L0.54
							 471.96 ZM6.96 475.5 L6.96 478.5 L0.54 478.5 L0.54 475.5 L6.96 475.5 ZM10.44 479.05 L10.44 482.05 L4.04
							 482.05 L4.04 479.05 L10.44 479.05 ZM0.54 481.67 L0.54 479.05 L3.5 479.05 L3.5 482.05 L0.92 482.05 C0.71
							 482.05 0.54 481.88 0.54 481.67 ZM13.69 481.58 C13.69 481.84 13.48 482.05 13.22 482.05 L10.98 482.05
							 L10.98 479.05 L13.69 479.05 L13.69 481.58 ZM13.69 478.5 L7.5 478.5 L7.5 475.5 L13.69 475.5 L13.69 478.5
							 ZM10.98 474.95 L10.98 471.96 L13.69 471.96 L13.69 474.95 L10.98 474.95 Z" class="st1"/>
			</g>
		</g>
		<g id="group106-24" transform="translate(219.584,-202.577)" v:mID="106" v:groupContext="group">
			<title>T0 Logical Router.106</title>
			<g id="group107-25" v:mID="107" v:groupContext="group">
				<title>Sheet.107</title>
				<g id="shape108-26" v:mID="108" v:groupContext="shape">
					<title>Logical distributed router.1182</title>
					<path d="M29.08 424.43 C13.02 424.43 0 437.45 0 453.5 L0 453.5 L0 453.5 L0 453.51 C0 469.57 13.02 482.59 29.08
								 482.59 C45.14 482.59 58.16 469.57 58.16 453.51 L58.16 453.51 L58.16 453.51 C58.16 437.45 45.14 424.43
								 29.08 424.43 ZM10.01 472.58 C5.36 467.93 2.44 461.59 2.17 454.56 L21.98 454.56 L21.98 456.14 L26.55
								 453.51 L21.99 450.87 L21.99 452.45 L2.17 452.45 C2.44 445.42 5.37 439.09 10.01 434.44 C14.82 429.64
								 21.41 426.66 28.72 426.56 L26.45 430.5 L28.02 430.5 L28.02 476.51 L26.45 476.51 L28.72 480.46 C21.42
								 480.36 14.82 477.38 10.01 472.58 ZM31.61 453.51 L36.17 456.14 L36.17 454.57 L55.99 454.57 C55.72
								 461.59 52.79 467.93 48.15 472.58 C43.34 477.38 36.74 480.36 29.43 480.46 L31.71 476.51 L30.13 476.51
								 L30.13 430.5 L31.71 430.5 L29.44 426.56 C36.74 426.66 43.34 429.64 48.15 434.44 C52.79 439.09 55.72
								 445.43 55.99 452.46 L36.17 452.45 L36.17 450.88 L31.61 453.51 Z" class="st1"/>
				</g>
				<g id="shape109-28" v:mID="109" v:groupContext="shape" v:layerMember="0" transform="translate(29.8119,-30.1873)">
					<title>NSX-T Tier 1 Router.9</title>
					<desc>T0</desc>
					<v:textBlock v:margins="rect(4,4,4,4)" v:tabSpace="42.5197"/>
					<v:textRect cx="10.5002" cy="472.428" width="21.01" height="20.323"/>
					<rect x="0" y="462.267" width="21.0004" height="20.323" class="st2"/>
					<text x="4.49" y="476.03" class="st3" v:langID="1033"><v:paragraph v:horizAlign="1"/><v:tabList/>T0</text>				</g>
			</g>
			<g id="shape110-31" v:mID="110" v:groupContext="shape" transform="translate(10.1552,-33.2814)">
				<title>Logical Firewall.1256</title>
				<path d="M13.18 467.86 L1.11 467.86 C0.5 467.86 0 468.36 0 468.97 L0 471.42 L0 471.94 L0 474.95 L0 475.5 L0 478.51
							 L0 479.03 L0 481.67 C0 482.18 0.41 482.59 0.92 482.59 L13.22 482.59 C13.78 482.59 14.23 482.14 14.23
							 481.58 L14.23 479.03 L14.23 478.76 L14.23 478.51 L14.23 475.5 L14.23 475.23 L14.23 474.95 L14.23 471.94
							 L14.23 471.67 L14.23 471.42 L14.23 468.91 C14.23 468.33 13.76 467.86 13.18 467.86 ZM13.69 468.91 L13.69
							 471.41 L7.5 471.41 L7.5 468.4 L13.18 468.4 C13.47 468.4 13.69 468.63 13.69 468.91 ZM4.04 474.95 L4.04
							 471.96 L10.44 471.96 L10.44 474.95 L4.04 474.95 ZM0.54 468.97 C0.54 468.66 0.79 468.4 1.11 468.4 L6.96
							 468.4 L6.96 471.41 L0.54 471.41 L0.54 468.97 ZM0.54 471.96 L3.5 471.96 L3.5 474.95 L0.54 474.95 L0.54
							 471.96 ZM6.96 475.5 L6.96 478.5 L0.54 478.5 L0.54 475.5 L6.96 475.5 ZM10.44 479.05 L10.44 482.05 L4.04
							 482.05 L4.04 479.05 L10.44 479.05 ZM0.54 481.67 L0.54 479.05 L3.5 479.05 L3.5 482.05 L0.92 482.05 C0.71
							 482.05 0.54 481.88 0.54 481.67 ZM13.69 481.58 C13.69 481.84 13.48 482.05 13.22 482.05 L10.98 482.05
							 L10.98 479.05 L13.69 479.05 L13.69 481.58 ZM13.69 478.5 L7.5 478.5 L7.5 475.5 L13.69 475.5 L13.69 478.5
							 ZM10.98 474.95 L10.98 471.96 L13.69 471.96 L13.69 474.95 L10.98 474.95 Z" class="st1"/>
			</g>
		</g>
		<g id="group111-33" transform="translate(219.584,-114.728)" v:mID="111" v:groupContext="group">
			<title>T1 Logical Router</title>
			<g id="shape112-34" v:mID="112" v:groupContext="shape">
				<title>Logical distributed router.1182</title>
				<path d="M29.08 424.43 C13.02 424.43 0 437.45 0 453.5 L0 453.5 L0 453.5 L0 453.51 C0 469.57 13.02 482.59 29.08 482.59
							 C45.14 482.59 58.16 469.57 58.16 453.51 L58.16 453.51 L58.16 453.51 C58.16 437.45 45.14 424.43 29.08
							 424.43 ZM10.01 472.58 C5.36 467.93 2.44 461.59 2.17 454.56 L21.98 454.56 L21.98 456.14 L26.55 453.51
							 L21.99 450.87 L21.99 452.45 L2.17 452.45 C2.44 445.42 5.37 439.09 10.01 434.44 C14.82 429.64 21.41 426.66
							 28.72 426.56 L26.45 430.5 L28.02 430.5 L28.02 476.51 L26.45 476.51 L28.72 480.46 C21.42 480.36 14.82
							 477.38 10.01 472.58 ZM31.61 453.51 L36.17 456.14 L36.17 454.57 L55.99 454.57 C55.72 461.59 52.79 467.93
							 48.15 472.58 C43.34 477.38 36.74 480.36 29.43 480.46 L31.71 476.51 L30.13 476.51 L30.13 430.5 L31.71
							 430.5 L29.44 426.56 C36.74 426.66 43.34 429.64 48.15 434.44 C52.79 439.09 55.72 445.43 55.99 452.46
							 L36.17 452.45 L36.17 450.88 L31.61 453.51 Z" class="st1"/>
			</g>
			<g id="shape113-36" v:mID="113" v:groupContext="shape" v:layerMember="0" transform="translate(29.8119,-30.1873)">
				<title>NSX-T Tier 1 Router.9</title>
				<desc>T1</desc>
				<v:textBlock v:margins="rect(4,4,4,4)" v:tabSpace="42.5197"/>
				<v:textRect cx="10.5002" cy="472.428" width="21.01" height="20.323"/>
				<rect x="0" y="462.267" width="21.0004" height="20.323" class="st2"/>
				<text x="4.49" y="476.03" class="st3" v:langID="1033"><v:paragraph v:horizAlign="1"/><v:tabList/>T1</text>			</g>
			<g id="group114-39" transform="translate(7.1188,-32.2931)" v:mID="114" v:groupContext="group">
				<title>NSX Edge and Load Balancer.1883</title>
				<g id="shape115-40" v:mID="115" v:groupContext="shape">
					<title>Sheet.115</title>
					<path d="M17.54 467.31 L7.63 467.31 C7.07 467.31 6.51 467.46 6.02 467.75 L6.02 467.75 L0.63 471.07 L0.62 471.07
								 C0.23 471.33 0 471.76 0 472.22 L0 477.07 C0 477.54 0.24 477.97 0.63 478.22 L0.63 478.22 L6.06 482.02
								 L6.07 482.03 C6.65 482.39 7.33 482.59 8.02 482.59 L17.54 482.59 C18.28 482.59 18.87 481.99 18.87
								 481.26 L18.87 468.64 C18.87 467.91 18.28 467.31 17.54 467.31 ZM18.27 481.26 C18.27 481.66 17.95
								 481.99 17.54 481.99 L8.02 481.99 C7.44 481.99 6.88 481.83 6.39 481.52 L0.97 477.73 L0.96 477.72
								 C0.74 477.58 0.6 477.33 0.6 477.07 L0.6 472.22 C0.6 471.96 0.73 471.72 0.95 471.57 L6.32 468.27
								 C6.72 468.03 7.17 467.91 7.63 467.91 L17.54 467.91 C17.95 467.91 18.27 468.24 18.27 468.64 L18.27
								 481.26 L18.27 481.26 Z" class="st1"/>
				</g>
				<g id="shape116-42" v:mID="116" v:groupContext="shape" transform="translate(10.9737,-3.21017)">
					<title>Sheet.116</title>
					<path d="M4.68 481.54 L0.3 481.54 C0.13 481.54 0 481.68 0 481.84 C0 482.01 0.13 482.14 0.3 482.14 L4.68 482.14
								 L4.68 482.59 L5.97 481.84 L4.68 481.1 L4.68 481.54 Z" class="st1"/>
				</g>
				<g id="shape117-44" v:mID="117" v:groupContext="shape" transform="translate(10.9737,-6.80652)">
					<title>Sheet.117</title>
					<path d="M4.68 481.54 L0.3 481.54 C0.13 481.54 0 481.68 0 481.84 C0 482.01 0.13 482.14 0.3 482.14 L4.68 482.14
								 L4.68 482.59 L5.97 481.84 L4.68 481.1 L4.68 481.54 Z" class="st1"/>
				</g>
				<g id="shape118-46" v:mID="118" v:groupContext="shape" transform="translate(8.18636,-6.5906)">
					<title>Sheet.118</title>
					<path d="M0.96 480.66 C0.43 480.66 0 481.09 0 481.63 C0 482.16 0.43 482.59 0.96 482.59 C1.49 482.59 1.93 482.16
								 1.93 481.63 C1.93 481.09 1.49 480.66 0.96 480.66 ZM0.96 481.99 C0.76 481.99 0.6 481.83 0.6 481.63
								 C0.6 481.43 0.76 481.26 0.96 481.26 C1.16 481.26 1.33 481.43 1.33 481.63 C1.33 481.83 1.16 481.99
								 0.96 481.99 Z" class="st1"/>
				</g>
				<g id="shape119-48" v:mID="119" v:groupContext="shape" transform="translate(10.9737,-10.7861)">
					<title>Sheet.119</title>
					<path d="M4.68 481.54 L0.3 481.54 C0.13 481.54 0 481.68 0 481.84 C0 482.01 0.13 482.14 0.3 482.14 L4.68 482.14
								 L4.68 482.59 L5.97 481.84 L4.68 481.1 L4.68 481.54 Z" class="st1"/>
				</g>
				<g id="shape120-50" v:mID="120" v:groupContext="shape" transform="translate(2.19387,-2.99524)">
					<title>Sheet.120</title>
					<path d="M6.96 473.47 C6.42 473.47 5.99 473.9 5.99 474.44 C5.99 474.47 6 474.5 6 474.54 L1.38 477.17 C1.25 477.1
								 1.11 477.07 0.96 477.07 C0.43 477.07 0 477.5 0 478.03 C0 478.56 0.43 478.99 0.96 478.99 C1.15 478.99
								 1.31 478.94 1.46 478.85 L6.01 481.8 C6.09 482.25 6.48 482.59 6.96 482.59 C7.49 482.59 7.92 482.16
								 7.92 481.63 C7.92 481.09 7.49 480.66 6.96 480.66 C6.59 480.66 6.28 480.86 6.12 481.16 L1.85 478.39
								 C1.9 478.28 1.93 478.16 1.93 478.03 C1.93 477.88 1.89 477.73 1.82 477.6 L6.25 475.09 C6.43 475.28
								 6.68 475.4 6.96 475.4 C7.49 475.4 7.92 474.97 7.92 474.44 C7.92 473.9 7.49 473.47 6.96 473.47 ZM0.6
								 478.03 C0.6 477.83 0.76 477.67 0.96 477.67 C1.16 477.67 1.33 477.83 1.33 478.03 C1.33 478.23 1.16
								 478.39 0.96 478.39 C0.76 478.39 0.6 478.23 0.6 478.03 ZM6.96 481.26 C7.16 481.26 7.32 481.43 7.32
								 481.63 C7.32 481.83 7.16 481.99 6.96 481.99 C6.75 481.99 6.59 481.83 6.59 481.63 C6.59 481.43 6.75
								 481.26 6.96 481.26 ZM6.96 474.8 C6.75 474.8 6.59 474.64 6.59 474.44 C6.59 474.23 6.75 474.07 6.96
								 474.07 C7.16 474.07 7.32 474.23 7.32 474.44 C7.32 474.64 7.16 474.8 6.96 474.8 Z" class="st1"/>
				</g>
			</g>
		</g>
		<g id="group121-52" transform="translate(162.709,-48.1139)" v:mID="121" v:groupContext="group">
			<title>Switch.356</title>
			<g id="shape122-53" v:mID="122" v:groupContext="shape">
				<title>Sheet.122</title>
				<path d="M34.09 445.51 L3 445.51 C1.34 445.51 0 446.85 0 448.5 L0 479.59 C0 481.25 1.34 482.59 3 482.59 L34.09 482.59
							 C35.74 482.59 37.08 481.25 37.08 479.59 L37.08 448.5 C37.08 446.85 35.74 445.51 34.09 445.51 ZM35.73
							 479.59 C35.73 480.5 35 481.24 34.09 481.24 L3 481.24 C2.09 481.24 1.35 480.5 1.35 479.59 L1.35 448.5
							 C1.35 447.59 2.09 446.85 3 446.85 L34.09 446.85 C35 446.85 35.73 447.59 35.73 448.5 L35.73 479.59 Z"
						class="st1"/>
			</g>
			<g id="shape123-55" v:mID="123" v:groupContext="shape" transform="translate(2.9865,-19.0553)">
				<title>Sheet.123</title>
				<path d="M2.91 481.58 L16.82 481.59 C17.19 481.59 17.49 481.28 17.49 480.91 C17.49 480.54 17.19 480.24 16.82 480.24
							 L2.91 480.23 L2.91 479.23 L0 480.91 L2.91 482.59 L2.91 481.58 Z" class="st1"/>
			</g>
			<g id="shape124-57" v:mID="124" v:groupContext="shape" transform="translate(2.9865,-7.79775)">
				<title>Sheet.124</title>
				<path d="M16.82 480.24 L2.91 480.23 L2.91 479.23 L0 480.91 L2.91 482.59 L2.91 481.58 L16.82 481.59 C17.19 481.59
							 17.49 481.28 17.49 480.91 C17.49 480.54 17.19 480.24 16.82 480.24 Z" class="st1"/>
			</g>
			<g id="shape125-59" v:mID="125" v:groupContext="shape" transform="translate(16.6057,-14.667)">
				<title>Sheet.125</title>
				<path d="M14.58 480.23 L0.67 480.23 C0.3 480.23 0 480.53 0 480.91 C-0 481.28 0.3 481.58 0.67 481.58 L14.58 481.58
							 L14.58 482.59 L17.49 480.91 L14.58 479.23 L14.58 480.23 Z" class="st1"/>
			</g>
			<g id="shape126-61" v:mID="126" v:groupContext="shape" transform="translate(16.6057,-25.9238)">
				<title>Sheet.126</title>
				<path d="M14.58 480.23 L0.67 480.23 C0.3 480.23 0 480.53 0 480.9 C-0 481.28 0.3 481.58 0.67 481.58 L14.58 481.58
							 L14.58 482.59 L17.49 480.91 L14.58 479.23 L14.58 480.23 Z" class="st1"/>
			</g>
		</g>
		<g id="group127-63" transform="translate(152.454,-410.989)" v:mID="127" v:groupContext="group">
			<title>Physical Upstream Router</title>
			<g id="shape128-64" v:mID="128" v:groupContext="shape" transform="translate(29.3053,-19.8287)">
				<title>Sheet.128</title>
				<path d="M7.4 482.59 L0 476.14 L7.4 469.8 L7.4 473.26 L20.51 473.26 L20.51 479.34 L7.4 479.34 L7.4 482.59 Z"
						class="st1"/>
			</g>
			<g id="shape129-66" v:mID="129" v:groupContext="shape">
				<title>Sheet.129</title>
				<path d="M51.89 456.16 L50.93 456.16 C50.93 462.93 48.19 469.05 43.75 473.49 C39.31 477.93 33.19 480.67 26.43 480.67
							 C19.66 480.67 13.54 477.93 9.1 473.49 C4.66 469.05 1.92 462.93 1.92 456.16 C1.92 449.39 4.66 443.28
							 9.1 438.84 C13.54 434.4 19.66 431.66 26.43 431.66 C33.19 431.66 39.31 434.4 43.75 438.84 C48.19 443.28
							 50.93 449.39 50.93 456.16 L51.89 456.16 L52.85 456.16 C52.85 441.57 41.02 429.74 26.43 429.74 C11.83
							 429.74 0 441.57 0 456.16 C0 470.76 11.83 482.59 26.43 482.59 C41.02 482.59 52.85 470.76 52.85 456.16
							 L51.89 456.16 Z" class="st1"/>
			</g>
			<g id="shape130-68" v:mID="130" v:groupContext="shape" transform="translate(3.20127,-19.8287)">
				<title>Sheet.130</title>
				<path d="M13.11 469.8 L20.51 476.25 L13.11 482.59 L13.11 479.12 L0 479.12 L0 473.05 L13.11 473.05 L13.11 469.8 Z"
						class="st1"/>
			</g>
			<g id="shape131-70" v:mID="131" v:groupContext="shape" transform="translate(20.0275,-2.49368)">
				<title>Sheet.131</title>
				<path d="M12.8 475.19 L6.34 482.59 L0 475.19 L3.47 475.19 L3.47 462.08 L9.54 462.08 L9.54 475.19 L12.8 475.19 Z"
						class="st1"/>
			</g>
			<g id="shape132-72" v:mID="132" v:groupContext="shape" transform="translate(20.0275,-29.5661)">
				<title>Sheet.132</title>
				<path d="M0 469.48 L6.45 462.08 L12.8 469.48 L9.33 469.48 L9.33 482.59 L3.25 482.59 L3.25 469.48 L0 469.48 Z"
						class="st1"/>
			</g>
		</g>
		<g id="shape134-74" v:mID="134" v:groupContext="shape" transform="translate(119.005,-352.454)">
			<title>Sheet.134</title>
			<path d="M0 482.59 L59.35 423.97 L130.39 482.59" class="st4"/>
		</g>
		<g id="shape135-77" v:mID="135" v:groupContext="shape" transform="translate(103.052,-373.885)">
			<title>Sheet.135</title>
			<desc>transportZone</desc>
			<v:textBlock v:margins="rect(4,4,4,4)" v:tabSpace="42.5197"/>
			<v:textRect cx="75.8268" cy="474.711" width="151.66" height="15.7562"/>
			<ellipse cx="75.8268" cy="474.711" rx="75.8268" ry="7.87811" class="st5"/>
			<text x="40.82" y="478.31" class="st6" v:langID="1045"><v:paragraph v:horizAlign="1"/><v:tabList/>transportZone</text>		</g>
		<g id="shape136-80" v:mID="136" v:groupContext="shape" transform="translate(52.4598,-289.084)">
			<title>Sheet.136</title>
			<desc>edgeNode</desc>
			<v:textBlock v:margins="rect(4,4,4,4)" v:tabSpace="42.5197"/>
			<v:textRect cx="67.3228" cy="474.086" width="134.65" height="17.0079"/>
			<rect x="0" y="465.582" width="134.646" height="17.0079" class="st2"/>
			<text x="42.2" y="477.69" class="st6" v:langID="1045"><v:paragraph v:horizAlign="1"/><v:tabList/>edgeNode</text>		</g>
		<g id="shape137-83" v:mID="137" v:groupContext="shape" transform="translate(182.076,-289.084)">
			<title>Sheet.137</title>
			<desc>edgeNode</desc>
			<v:textBlock v:margins="rect(4,4,4,4)" v:tabSpace="42.5197"/>
			<v:textRect cx="67.3228" cy="474.086" width="134.65" height="17.0079"/>
			<rect x="0" y="465.582" width="134.646" height="17.0079" class="st2"/>
			<text x="42.2" y="477.69" class="st6" v:langID="1045"><v:paragraph v:horizAlign="1"/><v:tabList/>edgeNode</text>		</g>
		<g id="shape138-86" v:mID="138" v:groupContext="shape" transform="translate(18.375,-18.375)">
			<title>Sheet.138</title>
			<path d="M0 482.59 L372.76 482.59 L372.76 145.27 L0 145.27 L0 482.59 Z" class="st7"/>
		</g>
		<g id="shape139-88" v:mID="139" v:groupContext="shape" transform="translate(256.485,-335.446)">
			<title>Sheet.139</title>
			<desc>edgeCluster</desc>
			<v:textBlock v:margins="rect(4,4,4,4)" v:tabSpace="42.5197"/>
			<v:textRect cx="67.3228" cy="474.086" width="134.65" height="17.0079"/>
			<rect x="0" y="465.582" width="134.646" height="17.0079" class="st2"/>
			<text x="38.21" y="477.69" class="st6" v:langID="1045"><v:paragraph v:horizAlign="1"/><v:tabList/>edgeCluster</text>		</g>
		<g id="group140-91" transform="translate(230.857,-48.1139)" v:mID="140" v:groupContext="group">
			<title>Switch.140</title>
			<g id="shape141-92" v:mID="141" v:groupContext="shape">
				<title>Sheet.141</title>
				<path d="M34.09 445.51 L3 445.51 C1.34 445.51 0 446.85 0 448.5 L0 479.59 C0 481.25 1.34 482.59 3 482.59 L34.09 482.59
							 C35.74 482.59 37.08 481.25 37.08 479.59 L37.08 448.5 C37.08 446.85 35.74 445.51 34.09 445.51 ZM35.73
							 479.59 C35.73 480.5 35 481.24 34.09 481.24 L3 481.24 C2.09 481.24 1.35 480.5 1.35 479.59 L1.35 448.5
							 C1.35 447.59 2.09 446.85 3 446.85 L34.09 446.85 C35 446.85 35.73 447.59 35.73 448.5 L35.73 479.59 Z"
						class="st1"/>
			</g>
			<g id="shape142-94" v:mID="142" v:groupContext="shape" transform="translate(2.9865,-19.0553)">
				<title>Sheet.142</title>
				<path d="M2.91 481.58 L16.82 481.59 C17.19 481.59 17.49 481.28 17.49 480.91 C17.49 480.54 17.19 480.24 16.82 480.24
							 L2.91 480.23 L2.91 479.23 L0 480.91 L2.91 482.59 L2.91 481.58 Z" class="st1"/>
			</g>
			<g id="shape143-96" v:mID="143" v:groupContext="shape" transform="translate(2.9865,-7.79775)">
				<title>Sheet.143</title>
				<path d="M16.82 480.24 L2.91 480.23 L2.91 479.23 L0 480.91 L2.91 482.59 L2.91 481.58 L16.82 481.59 C17.19 481.59
							 17.49 481.28 17.49 480.91 C17.49 480.54 17.19 480.24 16.82 480.24 Z" class="st1"/>
			</g>
			<g id="shape144-98" v:mID="144" v:groupContext="shape" transform="translate(16.6057,-14.667)">
				<title>Sheet.144</title>
				<path d="M14.58 480.23 L0.67 480.23 C0.3 480.23 0 480.53 0 480.91 C-0 481.28 0.3 481.58 0.67 481.58 L14.58 481.58
							 L14.58 482.59 L17.49 480.91 L14.58 479.23 L14.58 480.23 Z" class="st1"/>
			</g>
			<g id="shape145-100" v:mID="145" v:groupContext="shape" transform="translate(16.6057,-25.9238)">
				<title>Sheet.145</title>
				<path d="M14.58 480.23 L0.67 480.23 C0.3 480.23 0 480.53 0 480.9 C-0 481.28 0.3 481.58 0.67 481.58 L14.58 481.58
							 L14.58 482.59 L17.49 480.91 L14.58 479.23 L14.58 480.23 Z" class="st1"/>
			</g>
		</g>
		<g id="group146-102" transform="translate(299.005,-48.1139)" v:mID="146" v:groupContext="group">
			<title>Switch.146</title>
			<g id="shape147-103" v:mID="147" v:groupContext="shape">
				<title>Sheet.147</title>
				<path d="M34.09 445.51 L3 445.51 C1.34 445.51 0 446.85 0 448.5 L0 479.59 C0 481.25 1.34 482.59 3 482.59 L34.09 482.59
							 C35.74 482.59 37.08 481.25 37.08 479.59 L37.08 448.5 C37.08 446.85 35.74 445.51 34.09 445.51 ZM35.73
							 479.59 C35.73 480.5 35 481.24 34.09 481.24 L3 481.24 C2.09 481.24 1.35 480.5 1.35 479.59 L1.35 448.5
							 C1.35 447.59 2.09 446.85 3 446.85 L34.09 446.85 C35 446.85 35.73 447.59 35.73 448.5 L35.73 479.59 Z"
						class="st1"/>
			</g>
			<g id="shape148-105" v:mID="148" v:groupContext="shape" transform="translate(2.9865,-19.0553)">
				<title>Sheet.148</title>
				<path d="M2.91 481.58 L16.82 481.59 C17.19 481.59 17.49 481.28 17.49 480.91 C17.49 480.54 17.19 480.24 16.82 480.24
							 L2.91 480.23 L2.91 479.23 L0 480.91 L2.91 482.59 L2.91 481.58 Z" class="st1"/>
			</g>
			<g id="shape149-107" v:mID="149" v:groupContext="shape" transform="translate(2.9865,-7.79775)">
				<title>Sheet.149</title>
				<path d="M16.82 480.24 L2.91 480.23 L2.91 479.23 L0 480.91 L2.91 482.59 L2.91 481.58 L16.82 481.59 C17.19 481.59
							 17.49 481.28 17.49 480.91 C17.49 480.54 17.19 480.24 16.82 480.24 Z" class="st1"/>
			</g>
			<g id="shape150-109" v:mID="150" v:groupContext="shape" transform="translate(16.6057,-14.667)">
				<title>Sheet.150</title>
				<path d="M14.58 480.23 L0.67 480.23 C0.3 480.23 0 480.53 0 480.91 C-0 481.28 0.3 481.58 0.67 481.58 L14.58 481.58
							 L14.58 482.59 L17.49 480.91 L14.58 479.23 L14.58 480.23 Z" class="st1"/>
			</g>
			<g id="shape151-111" v:mID="151" v:groupContext="shape" transform="translate(16.6057,-25.9238)">
				<title>Sheet.151</title>
				<path d="M14.58 480.23 L0.67 480.23 C0.3 480.23 0 480.53 0 480.9 C-0 481.28 0.3 481.58 0.67 481.58 L14.58 481.58
							 L14.58 482.59 L17.49 480.91 L14.58 479.23 L14.58 480.23 Z" class="st1"/>
			</g>
		</g>
		<g id="shape153-113" v:mID="153" v:groupContext="shape" transform="translate(32.5737,-178.532)">
			<title>Sheet.153</title>
			<desc>logicalRouterT0template</desc>
			<v:textBlock v:margins="rect(4,4,4,4)" v:tabSpace="42.5197"/>
			<v:textRect cx="67.3228" cy="474.086" width="134.65" height="17.0079"/>
			<rect x="0" y="465.582" width="134.646" height="17.0079" class="st2"/>
			<text x="6.98" y="477.69" class="st6" v:langID="1045"><v:paragraph v:horizAlign="1"/><v:tabList/>logicalRouterT0template</text>		</g>
		<g id="shape154-116" v:mID="154" v:groupContext="shape" transform="translate(260.029,-221.052)">
			<title>Sheet.154</title>
			<desc>logicalRouterT0vrf</desc>
			<v:textBlock v:margins="rect(4,4,4,4)" v:tabSpace="42.5197"/>
			<v:textRect cx="67.3228" cy="474.086" width="134.65" height="17.0079"/>
			<rect x="0" y="465.582" width="134.646" height="17.0079" class="st2"/>
			<text x="22.53" y="477.69" class="st6" v:langID="1045"><v:paragraph v:horizAlign="1"/><v:tabList/>logicalRouterT0vrf</text>		</g>
		<g id="shape156-119" v:mID="156" v:groupContext="shape" transform="translate(731.223,274.577) rotate(89.3547)">
			<title>Sheet.156</title>
			<path d="M0 482.59 L31.82 482.59" class="st8"/>
		</g>
		<g id="shape157-122" v:mID="157" v:groupContext="shape" transform="translate(443.484,809.379) rotate(156.191)">
			<title>Sheet.157</title>
			<path d="M0 482.59 L73.56 482.59" class="st8"/>
		</g>
		<g id="shape159-125" v:mID="159" v:groupContext="shape" transform="translate(248.406,-84.9733)">
			<title>Sheet.159</title>
			<path d="M70.44 481.92 L0.12 452.83 L0 482.59" class="st8"/>
		</g>
		<g id="shape160-128" v:mID="160" v:groupContext="shape" transform="translate(253.651,-135.304)">
			<title>Sheet.160</title>
			<desc>logicalRouterT1</desc>
			<v:textBlock v:margins="rect(4,4,4,4)" v:tabSpace="42.5197"/>
			<v:textRect cx="67.3228" cy="474.086" width="134.65" height="17.0079"/>
			<rect x="0" y="465.582" width="134.646" height="17.0079" class="st2"/>
			<text x="29.17" y="477.69" class="st6" v:langID="1045"><v:paragraph v:horizAlign="1"/><v:tabList/>logicalRouterT1</text>		</g>
		<g id="shape161-131" v:mID="161" v:groupContext="shape" transform="translate(113.928,-31.1309)">
			<title>Sheet.161</title>
			<desc>segmentNsx</desc>
			<v:textBlock v:margins="rect(4,4,4,4)" v:tabSpace="42.5197"/>
			<v:textRect cx="67.3228" cy="474.086" width="134.65" height="17.0079"/>
			<rect x="0" y="465.582" width="134.646" height="17.0079" class="st2"/>
			<text x="37.41" y="477.69" class="st6" v:langID="1045"><v:paragraph v:horizAlign="1"/><v:tabList/>segmentNsx</text>		</g>
		<g id="shape163-134" v:mID="163" v:groupContext="shape" transform="translate(184.202,-31.106)">
			<title>Sheet.163</title>
			<desc>segmentNsx</desc>
			<v:textBlock v:margins="rect(4,4,4,4)" v:tabSpace="42.5197"/>
			<v:textRect cx="67.3228" cy="474.086" width="134.65" height="17.0079"/>
			<rect x="0" y="465.582" width="134.646" height="17.0079" class="st2"/>
			<text x="37.41" y="477.69" class="st6" v:langID="1045"><v:paragraph v:horizAlign="1"/><v:tabList/>segmentNsx</text>		</g>
		<g id="shape164-137" v:mID="164" v:groupContext="shape" transform="translate(252.233,-31.106)">
			<title>Sheet.164</title>
			<desc>segmentNsx</desc>
			<v:textBlock v:margins="rect(4,4,4,4)" v:tabSpace="42.5197"/>
			<v:textRect cx="67.3228" cy="474.086" width="134.65" height="17.0079"/>
			<rect x="0" y="465.582" width="134.646" height="17.0079" class="st2"/>
			<text x="37.41" y="477.69" class="st6" v:langID="1045"><v:paragraph v:horizAlign="1"/><v:tabList/>segmentNsx</text>		</g>
		<g id="shape165-140" v:mID="165" v:groupContext="shape" transform="translate(243.663,-212.598)">
			<title>Sheet.165</title>
			<desc>VRF</desc>
			<v:textBlock v:margins="rect(4,4,4,4)" v:tabSpace="42.5197"/>
			<v:textRect cx="18.5419" cy="474.086" width="37.09" height="17.0079"/>
			<rect x="0" y="465.582" width="37.0837" height="17.0079" class="st2"/>
			<text x="10.69" y="477.09" class="st9" v:langID="1045"><v:paragraph v:horizAlign="1"/><v:tabList/>VRF</text>		</g>
	</g>
</svg>
