<?xml version="1.0" encoding="UTF-8" standalone="no"?>
<!DOCTYPE svg PUBLIC "-//W3C//DTD SVG 1.1//EN" "http://www.w3.org/Graphics/SVG/1.1/DTD/svg11.dtd">
<!-- Generated by Microsoft Visio, SVG Export access_model.svg Page-1 -->
<svg xmlns="http://www.w3.org/2000/svg" xmlns:xlink="http://www.w3.org/1999/xlink" xmlns:ev="http://www.w3.org/2001/xml-events"
		xmlns:v="http://schemas.microsoft.com/visio/2003/SVGExtensions/" width="7.9059in" height="8.43561in"
		viewBox="0 0 569.225 607.364" xml:space="preserve" color-interpolation-filters="sRGB" class="st14">
	<v:documentProperties v:langID="1033"/>

	<style type="text/css">
	<![CDATA[
		.st1 {fill:#ffffff;stroke:#000000;stroke-linecap:round;stroke-linejoin:round;stroke-width:0.75}
		.st2 {fill:#000000;font-family:Calibri;font-size:1.00001em;font-weight:bold}
		.st3 {fill:#0596ff;stroke:none;stroke-linecap:butt;stroke-width:2.55}
		.st4 {fill:#000000;font-family:Calibri;font-size:1.16666em;font-weight:bold}
		.st5 {fill:none;stroke:none;stroke-linecap:round;stroke-linejoin:round;stroke-width:0.75}
		.st6 {fill:#000000;font-family:Calibri;font-size:1.00001em}
		.st7 {font-family:Symbol;font-size:1em}
		.st8 {font-size:1em}
		.st9 {font-size:1em;font-weight:normal}
		.st10 {marker-end:url(#mrkr4-177);stroke:#000000;stroke-linecap:round;stroke-linejoin:round;stroke-width:1}
		.st11 {fill:#000000;fill-opacity:1;stroke:#000000;stroke-opacity:1;stroke-width:0.28409083763119}
		.st12 {fill:#ffffff;stroke:none;stroke-linecap:butt;stroke-width:2.53942}
		.st13 {fill:#0596ff;stroke:none;stroke-linecap:butt;stroke-width:2.53942}
		.st14 {fill:none;fill-rule:evenodd;font-size:12px;overflow:visible;stroke-linecap:square;stroke-miterlimit:3}
	]]>
	</style>

	<defs id="Markers">
		<g id="lend4">
			<path d="M 2 1 L 0 0 L 2 -1 L 2 1 " style="stroke:none"/>
		</g>
		<marker id="mrkr4-177" class="st11" v:arrowType="4" v:arrowSize="2" v:setback="0" refX="-0" orient="auto"
				markerUnits="strokeWidth" overflow="visible">
			<use xlink:href="#lend4" transform="scale(-3.5200008854147,-3.5200008854147) "/>
		</marker>
	</defs>
	<g v:mID="0" v:index="1" v:groupContext="foregroundPage">
		<title>Page-1</title>
		<v:pageProperties v:drawingScale="0.0393701" v:pageScale="0.0393701" v:drawingUnits="24" v:shadowOffsetX="9"
				v:shadowOffsetY="-9"/>
		<v:layer v:name="Connector" v:index="0"/>
		<g id="shape1-1" v:mID="1" v:groupContext="shape" transform="translate(0.375,-306.516)">
			<title>Sheet.1</title>
			<desc>Tenant AD</desc>
			<v:userDefs/>
			<v:textBlock v:margins="rect(4,4,4,4)" v:tabSpace="42.5197" v:verticalAlign="0"/>
			<v:textRect cx="38.9764" cy="557.757" width="77.96" height="99.2126"/>
			<rect x="0" y="508.151" width="77.9528" height="99.2126" class="st1"/>
			<text x="12.73" y="522.95" class="st2" v:langID="2057"><v:paragraph v:horizAlign="1"/><v:tabList/>Tenant AD</text>		</g>
		<g id="group2-4" transform="translate(513.446,-524.271)" v:mID="2" v:groupContext="group">
			<title>Sheet.2</title>
			<g id="shape3-5" v:mID="3" v:groupContext="shape">
				<title>Sheet.3</title>
				<path d="M26.61 554.14 C11.91 554.14 0 566.05 0 580.75 C0 595.45 11.91 607.36 26.61 607.36 C41.32 607.36 53.23 595.45
							 53.23 580.75 C53.21 566.07 41.3 554.16 26.61 554.14 ZM26.61 605.81 C12.77 605.81 1.55 594.59 1.55 580.75
							 C1.55 566.91 12.77 555.69 26.61 555.69 C40.45 555.69 51.68 566.91 51.68 580.75 C51.65 594.59 40.45 605.79
							 26.61 605.81 Z" class="st3"/>
			</g>
			<g id="group4-7" transform="translate(8.18392,-15.0149)" v:mID="4" v:groupContext="group">
				<title>Sheet.4</title>
				<g id="shape5-8" v:mID="5" v:groupContext="shape" transform="translate(10.1356,0)">
					<title>Sheet.5</title>
					<path d="M14.04 607.36 L2.28 607.36 C1.02 607.36 0 606.21 0 604.79 C0 604.79 0 604.21 0 604.08 L0 604.06 L0 604.04
								 C0.02 603.46 0.2 602.31 0.62 601.64 C1.53 600.24 2.64 599.36 4.13 598.85 C4.41 598.71 5.61 598.25
								 8.16 598.25 C10.71 598.25 11.91 598.69 12.2 598.85 C13.68 599.34 14.79 600.22 15.7 601.64 C16.12
								 602.31 16.3 603.46 16.32 604.04 L16.32 604.06 L16.32 604.08 C16.32 604.21 16.32 604.79 16.32 604.79
								 C16.32 606.21 15.3 607.36 14.04 607.36 ZM1.55 604.06 C1.55 604.24 1.55 604.79 1.55 604.79 C1.55
								 605.35 1.89 605.81 2.28 605.81 L14.04 605.81 C14.44 605.81 14.77 605.35 14.77 604.79 C14.77 604.79
								 14.77 604.24 14.77 604.06 C14.75 603.57 14.59 602.8 14.39 602.51 C13.66 601.4 12.84 600.71 11.67
								 600.33 L11.56 600.29 C11.56 600.29 10.58 599.85 8.16 599.85 C5.72 599.85 4.77 600.29 4.75 600.29
								 L4.66 600.33 C3.48 600.73 2.64 601.4 1.93 602.51 C1.73 602.8 1.55 603.57 1.55 604.06 Z"
							class="st3"/>
				</g>
				<g id="shape6-10" v:mID="6" v:groupContext="shape" transform="translate(13.3737,-8.67185)">
					<title>Sheet.6</title>
					<path d="M4.92 607.36 C1.71 607.36 0 603.62 0 600.91 C0 598.18 2.2 595.96 4.92 595.96 C7.63 595.96 9.85 598.18
								 9.85 600.91 C9.83 603.55 8.1 607.36 4.92 607.36 ZM4.92 597.52 C3.06 597.52 1.55 599.05 1.55 600.91
								 C1.55 602.95 2.84 605.81 4.92 605.81 C7.01 605.81 8.29 602.95 8.29 600.91 C8.27 599.03 6.76 597.52
								 4.92 597.52 Z" class="st3"/>
				</g>
				<g id="shape7-12" v:mID="7" v:groupContext="shape" transform="translate(1.14908E-13,-4.03651)">
					<title>Sheet.7</title>
					<path d="M9.94 607.36 L2.2 607.36 C0.98 607.36 0 606.26 0 604.9 L0 604.48 C0 604.39 0 604.3 0 604.24 L0 604.21
								 L0 604.19 C0.02 603.64 0.18 602.57 0.6 601.93 C1.44 600.62 2.48 599.78 3.9 599.31 C4.19 599.18 5.32
								 598.76 7.7 598.76 C10.07 598.76 11.2 599.18 11.49 599.31 C12.66 599.71 13.57 600.36 14.35 601.33
								 L15.04 602.2 L13.99 602.55 C12.49 603.06 11.4 603.93 10.49 605.37 C10.34 605.61 10.16 606.12 10.07
								 606.7 L9.94 607.36 ZM1.55 604.24 C1.55 604.33 1.55 604.41 1.55 604.53 L1.55 604.92 C1.55 605.41
								 1.84 605.83 2.2 605.83 L8.65 605.83 C8.76 605.39 8.92 604.92 9.16 604.57 C10.05 603.22 11.07 602.24
								 12.38 601.6 C11.95 601.27 11.49 601.02 10.93 600.82 L10.82 600.78 C10.82 600.78 9.91 600.36 7.67
								 600.36 C5.41 600.36 4.52 600.78 4.5 600.78 L4.41 600.82 C3.33 601.18 2.55 601.8 1.89 602.82 C1.71
								 603.06 1.55 603.79 1.55 604.24 Z" class="st3"/>
				</g>
				<g id="shape8-14" v:mID="8" v:groupContext="shape" transform="translate(3.01629,-12.1317)">
					<title>Sheet.8</title>
					<path d="M4.66 607.36 C1.62 607.36 0 603.84 0 601.27 C0 598.69 2.08 596.59 4.66 596.59 C7.21 596.59 9.29 598.69
								 9.29 601.27 C9.32 603.77 7.65 607.36 4.66 607.36 ZM4.66 598.16 C2.95 598.16 1.55 599.56 1.55 601.29
								 C1.55 603.17 2.73 605.83 4.66 605.83 C6.54 605.83 7.74 603.15 7.74 601.29 C7.76 599.56 6.37 598.16
								 4.66 598.16 Z" class="st3"/>
				</g>
				<g id="shape9-16" v:mID="9" v:groupContext="shape" transform="translate(21.5798,-4.03651)">
					<title>Sheet.9</title>
					<path d="M12.84 607.36 L5.1 607.36 L4.99 606.72 C4.9 606.14 4.72 605.63 4.57 605.39 C3.64 603.95 2.55 603.08
								 1.04 602.57 L0 602.22 L0.69 601.35 C1.44 600.38 2.4 599.71 3.55 599.34 C3.84 599.2 4.97 598.78 7.34
								 598.78 C9.71 598.78 10.85 599.2 11.13 599.34 C12.53 599.8 13.57 600.64 14.44 601.95 C14.84 602.57
								 15.01 603.64 15.04 604.21 L15.04 604.24 L15.04 604.26 C15.04 604.33 15.04 604.41 15.04 604.5 L15.04
								 604.92 C15.04 606.26 14.04 607.36 12.84 607.36 ZM6.37 605.81 L12.82 605.81 C13.17 605.81 13.46 605.39
								 13.46 604.9 L13.46 604.5 C13.46 604.41 13.46 604.3 13.46 604.21 C13.44 603.77 13.31 603.06 13.13
								 602.8 C12.46 601.78 11.69 601.15 10.6 600.78 L10.49 600.73 C10.49 600.73 9.58 600.31 7.34 600.31
								 C5.08 600.31 4.19 600.73 4.17 600.73 L4.06 600.78 C3.5 600.95 3.04 601.2 2.62 601.55 C3.93 602.22
								 4.97 603.17 5.83 604.55 C6.1 604.9 6.25 605.37 6.37 605.81 Z" class="st3"/>
				</g>
				<g id="shape10-18" v:mID="10" v:groupContext="shape" transform="translate(24.2856,-12.1317)">
					<title>Sheet.10</title>
					<path d="M4.64 607.36 C1.64 607.36 0 603.77 0 601.27 C0 598.69 2.08 596.59 4.64 596.59 C7.21 596.59 9.29 598.69
								 9.29 601.27 C9.29 603.84 7.67 607.36 4.64 607.36 ZM4.64 598.16 C2.93 598.16 1.55 599.56 1.55 601.29
								 C1.55 603.13 2.75 605.83 4.64 605.83 C6.54 605.83 7.74 603.19 7.74 601.29 C7.74 599.56 6.34 598.16
								 4.64 598.16 Z" class="st3"/>
				</g>
			</g>
		</g>
		<g id="shape11-20" v:mID="11" v:groupContext="shape" transform="translate(207.304,-452.501)">
			<title>Sheet.11</title>
			<desc>Provider Organization</desc>
			<v:userDefs/>
			<v:textBlock v:margins="rect(4,4,4,4)" v:tabSpace="42.5197" v:verticalAlign="0"/>
			<v:textRect cx="111.585" cy="530.12" width="223.17" height="154.488"/>
			<rect x="0" y="452.876" width="223.17" height="154.488" class="st1"/>
			<text x="47.85" y="469.48" class="st4" v:langID="2057"><v:paragraph v:horizAlign="1"/><v:tabList/>Provider Organization</text>		</g>
		<g id="shape12-23" v:mID="12" v:groupContext="shape" transform="translate(227.546,-462.422)">
			<title>Sheet.12</title>
			<desc>Atos/Service Provider Roles: Provider Administrator Provider ...</desc>
			<v:userDefs/>
			<v:textBlock v:margins="rect(4,4,4,4)" v:tabSpace="42.5197"/>
			<v:textRect cx="91.3425" cy="569.522" width="182.69" height="75.685"/>
			<rect x="0" y="531.679" width="182.685" height="75.685" class="st5"/>
			<text x="4" y="536.76" class="st6" v:langID="2057"><v:paragraph/><v:tabList/>Atos/Service Provider Roles:<v:newlineChar/><v:paragraph
						v:indentFirst="-18" v:indentLeft="18" v:bullet="1"/><tspan x="4" dy="1.211em" class="st7" v:isBullet="true">·</tspan><tspan
						class="st7"> </tspan><tspan class="st7"> </tspan>Provider Administrator<v:newlineChar/><tspan x="4"
						dy="1.215em" class="st7" v:isBullet="true">·</tspan><tspan class="st7"> </tspan><tspan class="st7"> </tspan>Provider Service Manager<v:newlineChar/><tspan
						x="4" dy="1.215em" class="st7" v:isBullet="true">·</tspan><tspan class="st7"> </tspan><tspan class="st7"> </tspan>Provider Operations User<v:newlineChar/><tspan
						x="4" dy="1.215em" class="st7" v:isBullet="true">·</tspan><tspan class="st7"> </tspan><tspan class="st7"> </tspan>Provider Account <tspan
						x="22" dy="1.204em" class="st8">Administrator</tspan></text>		</g>
		<g id="group13-39" transform="translate(227.546,-545.778)" v:mID="13" v:groupContext="group">
			<title>Sheet.13</title>
			<g id="shape14-40" v:mID="14" v:groupContext="shape" transform="translate(0,-2.48394)">
				<title>Sheet.14</title>
				<desc>Atos/Provider VMware Users</desc>
				<v:userDefs/>
				<v:textBlock v:margins="rect(4,4,4,4)" v:tabSpace="42.5197"/>
				<v:textRect cx="91.3425" cy="594.005" width="182.69" height="26.7165"/>
				<rect x="0" y="580.647" width="182.685" height="26.7165" class="st5"/>
				<text x="36.51" y="597.61" class="st6" v:langID="2057"><v:paragraph v:horizAlign="2"/><v:tabList/>Atos/Provider VMware Users</text>			</g>
			<g id="group15-43" v:mID="15" v:groupContext="group">
				<title>Sheet.15</title>
				<g id="shape16-44" v:mID="16" v:groupContext="shape">
					<title>Sheet.16</title>
					<path d="M15.86 575.64 C7.1 575.64 0 582.74 0 591.5 C0 600.27 7.1 607.36 15.86 607.36 C24.62 607.36 31.72 600.27
								 31.72 591.5 C31.71 582.75 24.61 575.66 15.86 575.64 ZM15.86 606.44 C7.61 606.44 0.93 599.75 0.93
								 591.5 C0.93 583.26 7.61 576.57 15.86 576.57 C24.11 576.57 30.8 583.26 30.8 591.5 C30.78 599.75 24.11
								 606.43 15.86 606.44 Z" class="st3"/>
				</g>
				<g id="group17-46" transform="translate(4.87711,-8.94798)" v:mID="17" v:groupContext="group">
					<title>Sheet.17</title>
					<g id="shape18-47" v:mID="18" v:groupContext="shape" transform="translate(6.04021,0)">
						<title>Sheet.18</title>
						<path d="M8.37 607.36 L1.36 607.36 C0.61 607.36 0 606.68 0 605.83 C0 605.83 0 605.49 0 605.41 L0 605.39 L0
									 605.38 C0.01 605.04 0.12 604.35 0.37 603.95 C0.91 603.12 1.57 602.59 2.46 602.29 C2.63 602.21
									 3.34 601.93 4.86 601.93 C6.38 601.93 7.1 602.2 7.27 602.29 C8.15 602.58 8.82 603.11 9.36 603.95
									 C9.61 604.35 9.71 605.04 9.73 605.38 L9.73 605.39 L9.73 605.41 C9.73 605.49 9.73 605.83 9.73
									 605.83 C9.73 606.68 9.12 607.36 8.37 607.36 ZM0.93 605.39 C0.93 605.5 0.93 605.83 0.93 605.83
									 C0.93 606.16 1.12 606.44 1.36 606.44 L8.37 606.44 C8.6 606.44 8.8 606.16 8.8 605.83 C8.8 605.83
									 8.8 605.5 8.8 605.39 C8.79 605.1 8.7 604.64 8.58 604.47 C8.14 603.81 7.65 603.4 6.95 603.17
									 L6.89 603.15 C6.89 603.15 6.3 602.88 4.86 602.88 C3.41 602.88 2.84 603.15 2.83 603.15 L2.78
									 603.17 C2.08 603.41 1.57 603.81 1.15 604.47 C1.03 604.64 0.93 605.1 0.93 605.39 Z" class="st3"/>
					</g>
					<g id="shape19-49" v:mID="19" v:groupContext="shape" transform="translate(7.96991,-5.16789)">
						<title>Sheet.19</title>
						<path d="M2.93 607.36 C1.02 607.36 0 605.13 0 603.52 C0 601.89 1.31 600.57 2.93 600.57 C4.55 600.57 5.87
									 601.89 5.87 603.52 C5.86 605.09 4.82 607.36 2.93 607.36 ZM2.93 601.5 C1.82 601.5 0.93 602.41
									 0.93 603.52 C0.93 604.73 1.69 606.44 2.93 606.44 C4.18 606.44 4.94 604.73 4.94 603.52 C4.93
									 602.39 4.03 601.5 2.93 601.5 Z" class="st3"/>
					</g>
					<g id="shape20-51" v:mID="20" v:groupContext="shape" transform="translate(-1.14908E-13,-2.40551)">
						<title>Sheet.20</title>
						<path d="M5.92 607.36 L1.31 607.36 C0.58 607.36 0 606.7 0 605.9 L0 605.65 C0 605.59 0 605.54 0 605.5 L0 605.49
									 L0 605.47 C0.01 605.14 0.11 604.51 0.36 604.13 C0.86 603.35 1.48 602.84 2.33 602.57 C2.5 602.49
									 3.17 602.24 4.59 602.24 C6 602.24 6.67 602.49 6.85 602.57 C7.55 602.8 8.09 603.19 8.55 603.77
									 L8.96 604.28 L8.34 604.5 C7.44 604.8 6.79 605.32 6.25 606.17 C6.16 606.32 6.05 606.62 6 606.97
									 L5.92 607.36 ZM0.93 605.5 C0.93 605.55 0.93 605.61 0.93 605.67 L0.93 605.91 C0.93 606.2 1.1
									 606.45 1.31 606.45 L5.15 606.45 C5.22 606.19 5.31 605.91 5.46 605.7 C5.99 604.89 6.6 604.31
									 7.38 603.93 C7.12 603.73 6.85 603.58 6.52 603.47 L6.45 603.44 C6.45 603.44 5.91 603.19 4.57
									 603.19 C3.22 603.19 2.7 603.44 2.68 603.44 L2.63 603.47 C1.98 603.68 1.52 604.05 1.12 604.65
									 C1.02 604.8 0.93 605.24 0.93 605.5 Z" class="st3"/>
					</g>
					<g id="shape21-53" v:mID="21" v:groupContext="shape" transform="translate(1.79753,-7.22975)">
						<title>Sheet.21</title>
						<path d="M2.78 607.36 C0.96 607.36 0 605.26 0 603.73 C0 602.2 1.24 600.94 2.78 600.94 C4.3 600.94 5.54 602.2
									 5.54 603.73 C5.55 605.22 4.56 607.36 2.78 607.36 ZM2.78 601.88 C1.76 601.88 0.93 602.71 0.93
									 603.74 C0.93 604.87 1.63 606.45 2.78 606.45 C3.9 606.45 4.61 604.85 4.61 603.74 C4.63 602.71
									 3.79 601.88 2.78 601.88 Z" class="st3"/>
					</g>
					<g id="shape22-55" v:mID="22" v:groupContext="shape" transform="translate(12.8602,-2.40551)">
						<title>Sheet.22</title>
						<path d="M7.65 607.36 L3.04 607.36 L2.97 606.98 C2.92 606.64 2.82 606.33 2.72 606.19 C2.17 605.33 1.52 604.81
									 0.62 604.51 L0 604.3 L0.41 603.78 C0.86 603.2 1.43 602.8 2.11 602.58 C2.29 602.5 2.96 602.25
									 4.37 602.25 C5.79 602.25 6.46 602.5 6.63 602.58 C7.47 602.86 8.09 603.36 8.6 604.14 C8.84 604.51
									 8.95 605.14 8.96 605.49 L8.96 605.5 L8.96 605.51 C8.96 605.55 8.96 605.61 8.96 605.66 L8.96
									 605.91 C8.96 606.7 8.37 607.36 7.65 607.36 ZM3.79 606.44 L7.64 606.44 C7.85 606.44 8.02 606.19
									 8.02 605.9 L8.02 605.66 C8.02 605.61 8.02 605.54 8.02 605.49 C8.01 605.22 7.93 604.8 7.82 604.64
									 C7.43 604.03 6.97 603.66 6.32 603.44 L6.25 603.41 C6.25 603.41 5.71 603.16 4.37 603.16 C3.03
									 603.16 2.5 603.41 2.48 603.41 L2.42 603.44 C2.09 603.54 1.81 603.69 1.56 603.9 C2.34 604.3 2.96
									 604.87 3.48 605.69 C3.63 605.9 3.73 606.17 3.79 606.44 Z" class="st3"/>
					</g>
					<g id="shape23-57" v:mID="23" v:groupContext="shape" transform="translate(14.4727,-7.22975)">
						<title>Sheet.23</title>
						<path d="M2.76 607.36 C0.98 607.36 0 605.22 0 603.73 C0 602.2 1.24 600.94 2.76 600.94 C4.3 600.94 5.54 602.2
									 5.54 603.73 C5.54 605.26 4.57 607.36 2.76 607.36 ZM2.76 601.88 C1.74 601.88 0.93 602.71 0.93
									 603.74 C0.93 604.84 1.64 606.45 2.76 606.45 C3.9 606.45 4.61 604.88 4.61 603.74 C4.61 602.71
									 3.78 601.88 2.76 601.88 Z" class="st3"/>
					</g>
				</g>
			</g>
		</g>
		<g id="shape24-59" v:mID="24" v:groupContext="shape" transform="translate(207.397,-207.303)">
			<title>Sheet.24</title>
			<desc>Customer Organization</desc>
			<v:userDefs/>
			<v:textBlock v:margins="rect(4,4,4,4)" v:tabSpace="42.5197" v:verticalAlign="0"/>
			<v:textRect cx="111.585" cy="503.473" width="223.17" height="207.78"/>
			<rect x="0" y="399.584" width="223.17" height="207.78" class="st1"/>
			<text x="44.48" y="416.18" class="st4" v:langID="2057"><v:paragraph v:horizAlign="1"/><v:tabList/>Customer Organization</text>		</g>
		<g id="shape25-62" v:mID="25" v:groupContext="shape" transform="translate(227.639,-226.155)">
			<title>Sheet.25</title>
			<desc>Customer Roles: Customer User Customer Service Role: Service ...</desc>
			<v:userDefs/>
			<v:textBlock v:margins="rect(4,4,4,4)" v:tabSpace="42.5197"/>
			<v:textRect cx="91.3425" cy="569.522" width="182.69" height="75.685"/>
			<rect x="0" y="531.679" width="182.685" height="75.685" class="st5"/>
			<text x="4" y="529.56" class="st6" v:langID="2057"><v:paragraph/><v:tabList/>Customer Roles:<v:newlineChar/><v:paragraph
						v:indentFirst="-18" v:indentLeft="18" v:bullet="1"/><tspan x="4" dy="1.211em" class="st7" v:isBullet="true">·</tspan><tspan
						class="st7"> </tspan><tspan class="st7"> </tspan>Customer User<v:newlineChar/><v:paragraph/><v:newlineChar/><v:paragraph/><tspan
						x="4" dy="2.404em" class="st8">Customer Service Role:<v:newlineChar/><v:paragraph v:indentFirst="-18"
							v:indentLeft="18" v:bullet="1"/></tspan><tspan x="4" dy="1.211em" class="st7" v:isBullet="true">·</tspan><tspan
						class="st7"> </tspan><tspan class="st7"> </tspan>Service Broker <tspan class="st8" v:langID="1045">Administrator<v:newlineChar/></tspan><tspan
						x="4" dy="1.215em" class="st7" v:isBullet="true">·</tspan><tspan class="st7"> </tspan><tspan class="st7"> </tspan>Service Broker <tspan
						class="st8" v:langID="1045">User<v:newlineChar/></tspan><tspan x="4" dy="1.215em" class="st7"
						v:langID="1045" v:isBullet="true">·</tspan><tspan class="st7" v:langID="1045"> </tspan><tspan class="st8"
						v:langID="1045"> </tspan><tspan class="st8" v:langID="1045">Service Broker Viewer</tspan></text>		</g>
		<g id="group26-81" transform="translate(226.693,-357.43)" v:mID="26" v:groupContext="group">
			<title>Sheet.26</title>
			<g id="shape27-82" v:mID="27" v:groupContext="shape" transform="translate(3.19744E-14,-3.63133)">
				<title>Sheet.27</title>
				<desc>Tenant AD Group</desc>
				<v:userDefs/>
				<v:textBlock v:margins="rect(4,4,4,4)" v:tabSpace="42.5197"/>
				<v:textRect cx="62.4873" cy="594.005" width="124.98" height="26.7165"/>
				<rect x="0" y="580.647" width="124.975" height="26.7165" class="st5"/>
				<text x="36.34" y="597.61" class="st6" v:langID="2057"><v:paragraph v:horizAlign="2"/><v:tabList/>Tenant AD Group</text>			</g>
			<g id="group28-85" v:mID="28" v:groupContext="group">
				<title>Sheet.28</title>
				<g id="shape29-86" v:mID="29" v:groupContext="shape">
					<title>Sheet.29</title>
					<path d="M15.86 575.64 C7.1 575.64 0 582.74 0 591.5 C0 600.27 7.1 607.36 15.86 607.36 C24.62 607.36 31.72 600.27
								 31.72 591.5 C31.71 582.75 24.61 575.66 15.86 575.64 ZM15.86 606.44 C7.61 606.44 0.93 599.75 0.93
								 591.5 C0.93 583.26 7.61 576.57 15.86 576.57 C24.11 576.57 30.8 583.26 30.8 591.5 C30.78 599.75 24.11
								 606.43 15.86 606.44 Z" class="st3"/>
				</g>
				<g id="group30-88" transform="translate(4.87711,-8.94798)" v:mID="30" v:groupContext="group">
					<title>Sheet.30</title>
					<g id="shape31-89" v:mID="31" v:groupContext="shape" transform="translate(6.04021,0)">
						<title>Sheet.31</title>
						<path d="M8.37 607.36 L1.36 607.36 C0.61 607.36 0 606.68 0 605.83 C0 605.83 0 605.49 0 605.41 L0 605.39 L0
									 605.38 C0.01 605.04 0.12 604.35 0.37 603.95 C0.91 603.12 1.57 602.59 2.46 602.29 C2.63 602.21
									 3.34 601.93 4.86 601.93 C6.38 601.93 7.1 602.2 7.27 602.29 C8.15 602.58 8.82 603.11 9.36 603.95
									 C9.61 604.35 9.71 605.04 9.73 605.38 L9.73 605.39 L9.73 605.41 C9.73 605.49 9.73 605.83 9.73
									 605.83 C9.73 606.68 9.12 607.36 8.37 607.36 ZM0.93 605.39 C0.93 605.5 0.93 605.83 0.93 605.83
									 C0.93 606.16 1.12 606.44 1.36 606.44 L8.37 606.44 C8.6 606.44 8.8 606.16 8.8 605.83 C8.8 605.83
									 8.8 605.5 8.8 605.39 C8.79 605.1 8.7 604.64 8.58 604.47 C8.14 603.81 7.65 603.4 6.95 603.17
									 L6.89 603.15 C6.89 603.15 6.3 602.88 4.86 602.88 C3.41 602.88 2.84 603.15 2.83 603.15 L2.78
									 603.17 C2.08 603.41 1.57 603.81 1.15 604.47 C1.03 604.64 0.93 605.1 0.93 605.39 Z" class="st3"/>
					</g>
					<g id="shape32-91" v:mID="32" v:groupContext="shape" transform="translate(7.96991,-5.16789)">
						<title>Sheet.32</title>
						<path d="M2.93 607.36 C1.02 607.36 0 605.13 0 603.52 C0 601.89 1.31 600.57 2.93 600.57 C4.55 600.57 5.87
									 601.89 5.87 603.52 C5.86 605.09 4.82 607.36 2.93 607.36 ZM2.93 601.5 C1.82 601.5 0.93 602.41
									 0.93 603.52 C0.93 604.73 1.69 606.44 2.93 606.44 C4.18 606.44 4.94 604.73 4.94 603.52 C4.93
									 602.39 4.03 601.5 2.93 601.5 Z" class="st3"/>
					</g>
					<g id="shape33-93" v:mID="33" v:groupContext="shape" transform="translate(-5.59552E-14,-2.40551)">
						<title>Sheet.33</title>
						<path d="M5.92 607.36 L1.31 607.36 C0.58 607.36 0 606.7 0 605.9 L0 605.65 C0 605.59 0 605.54 0 605.5 L0 605.49
									 L0 605.47 C0.01 605.14 0.11 604.51 0.36 604.13 C0.86 603.35 1.48 602.84 2.33 602.57 C2.5 602.49
									 3.17 602.24 4.59 602.24 C6 602.24 6.67 602.49 6.85 602.57 C7.55 602.8 8.09 603.19 8.55 603.77
									 L8.96 604.28 L8.34 604.5 C7.44 604.8 6.79 605.32 6.25 606.17 C6.16 606.32 6.05 606.62 6 606.97
									 L5.92 607.36 ZM0.93 605.5 C0.93 605.55 0.93 605.61 0.93 605.67 L0.93 605.91 C0.93 606.2 1.1
									 606.45 1.31 606.45 L5.15 606.45 C5.22 606.19 5.31 605.91 5.46 605.7 C5.99 604.89 6.6 604.31
									 7.38 603.93 C7.12 603.73 6.85 603.58 6.52 603.47 L6.45 603.44 C6.45 603.44 5.91 603.19 4.57
									 603.19 C3.22 603.19 2.7 603.44 2.68 603.44 L2.63 603.47 C1.98 603.68 1.52 604.05 1.12 604.65
									 C1.02 604.8 0.93 605.24 0.93 605.5 Z" class="st3"/>
					</g>
					<g id="shape34-95" v:mID="34" v:groupContext="shape" transform="translate(1.79753,-7.22975)">
						<title>Sheet.34</title>
						<path d="M2.78 607.36 C0.96 607.36 0 605.26 0 603.73 C0 602.2 1.24 600.94 2.78 600.94 C4.3 600.94 5.54 602.2
									 5.54 603.73 C5.55 605.22 4.56 607.36 2.78 607.36 ZM2.78 601.88 C1.76 601.88 0.93 602.71 0.93
									 603.74 C0.93 604.87 1.63 606.45 2.78 606.45 C3.9 606.45 4.61 604.85 4.61 603.74 C4.63 602.71
									 3.79 601.88 2.78 601.88 Z" class="st3"/>
					</g>
					<g id="shape35-97" v:mID="35" v:groupContext="shape" transform="translate(12.8602,-2.40551)">
						<title>Sheet.35</title>
						<path d="M7.65 607.36 L3.04 607.36 L2.97 606.98 C2.92 606.64 2.82 606.33 2.72 606.19 C2.17 605.33 1.52 604.81
									 0.62 604.51 L0 604.3 L0.41 603.78 C0.86 603.2 1.43 602.8 2.11 602.58 C2.29 602.5 2.96 602.25
									 4.37 602.25 C5.79 602.25 6.46 602.5 6.63 602.58 C7.47 602.86 8.09 603.36 8.6 604.14 C8.84 604.51
									 8.95 605.14 8.96 605.49 L8.96 605.5 L8.96 605.51 C8.96 605.55 8.96 605.61 8.96 605.66 L8.96
									 605.91 C8.96 606.7 8.37 607.36 7.65 607.36 ZM3.79 606.44 L7.64 606.44 C7.85 606.44 8.02 606.19
									 8.02 605.9 L8.02 605.66 C8.02 605.61 8.02 605.54 8.02 605.49 C8.01 605.22 7.93 604.8 7.82 604.64
									 C7.43 604.03 6.97 603.66 6.32 603.44 L6.25 603.41 C6.25 603.41 5.71 603.16 4.37 603.16 C3.03
									 603.16 2.5 603.41 2.48 603.41 L2.42 603.44 C2.09 603.54 1.81 603.69 1.56 603.9 C2.34 604.3 2.96
									 604.87 3.48 605.69 C3.63 605.9 3.73 606.17 3.79 606.44 Z" class="st3"/>
					</g>
					<g id="shape36-99" v:mID="36" v:groupContext="shape" transform="translate(14.4727,-7.22975)">
						<title>Sheet.36</title>
						<path d="M2.76 607.36 C0.98 607.36 0 605.22 0 603.73 C0 602.2 1.24 600.94 2.76 600.94 C4.3 600.94 5.54 602.2
									 5.54 603.73 C5.54 605.26 4.57 607.36 2.76 607.36 ZM2.76 601.88 C1.74 601.88 0.93 602.71 0.93
									 603.74 C0.93 604.84 1.64 606.45 2.76 606.45 C3.9 606.45 4.61 604.88 4.61 603.74 C4.61 602.71
									 3.78 601.88 2.76 601.88 Z" class="st3"/>
					</g>
				</g>
			</g>
		</g>
		<g id="group37-101" transform="translate(226.748,-318.285)" v:mID="37" v:groupContext="group">
			<title>Sheet.37</title>
			<g id="shape38-102" v:mID="38" v:groupContext="shape" transform="translate(11.6397,-2.6327)">
				<title>Sheet.38</title>
				<desc>Tenant VMware Users</desc>
				<v:userDefs/>
				<v:textBlock v:margins="rect(4,4,4,4)" v:tabSpace="42.5197"/>
				<v:textRect cx="68.9846" cy="594.005" width="137.97" height="26.7165"/>
				<rect x="0" y="580.647" width="137.969" height="26.7165" class="st5"/>
				<text x="25.56" y="597.61" class="st6" v:langID="2057"><v:paragraph v:horizAlign="2"/><v:tabList/>Tenant VMware Users</text>			</g>
			<g id="group39-105" v:mID="39" v:groupContext="group">
				<title>Sheet.39</title>
				<g id="shape40-106" v:mID="40" v:groupContext="shape">
					<title>Sheet.40</title>
					<path d="M15.86 575.64 C7.1 575.64 0 582.74 0 591.5 C0 600.27 7.1 607.36 15.86 607.36 C24.62 607.36 31.72 600.27
								 31.72 591.5 C31.71 582.75 24.61 575.66 15.86 575.64 ZM15.86 606.44 C7.61 606.44 0.93 599.75 0.93
								 591.5 C0.93 583.26 7.61 576.57 15.86 576.57 C24.11 576.57 30.8 583.26 30.8 591.5 C30.78 599.75 24.11
								 606.43 15.86 606.44 Z" class="st3"/>
				</g>
				<g id="group41-108" transform="translate(4.87711,-8.94798)" v:mID="41" v:groupContext="group">
					<title>Sheet.41</title>
					<g id="shape42-109" v:mID="42" v:groupContext="shape" transform="translate(6.04021,0)">
						<title>Sheet.42</title>
						<path d="M8.37 607.36 L1.36 607.36 C0.61 607.36 0 606.68 0 605.83 C0 605.83 0 605.49 0 605.41 L0 605.39 L0
									 605.38 C0.01 605.04 0.12 604.35 0.37 603.95 C0.91 603.12 1.57 602.59 2.46 602.29 C2.63 602.21
									 3.34 601.93 4.86 601.93 C6.38 601.93 7.1 602.2 7.27 602.29 C8.15 602.58 8.82 603.11 9.36 603.95
									 C9.61 604.35 9.71 605.04 9.73 605.38 L9.73 605.39 L9.73 605.41 C9.73 605.49 9.73 605.83 9.73
									 605.83 C9.73 606.68 9.12 607.36 8.37 607.36 ZM0.93 605.39 C0.93 605.5 0.93 605.83 0.93 605.83
									 C0.93 606.16 1.12 606.44 1.36 606.44 L8.37 606.44 C8.6 606.44 8.8 606.16 8.8 605.83 C8.8 605.83
									 8.8 605.5 8.8 605.39 C8.79 605.1 8.7 604.64 8.58 604.47 C8.14 603.81 7.65 603.4 6.95 603.17
									 L6.89 603.15 C6.89 603.15 6.3 602.88 4.86 602.88 C3.41 602.88 2.84 603.15 2.83 603.15 L2.78
									 603.17 C2.08 603.41 1.57 603.81 1.15 604.47 C1.03 604.64 0.93 605.1 0.93 605.39 Z" class="st3"/>
					</g>
					<g id="shape43-111" v:mID="43" v:groupContext="shape" transform="translate(7.96991,-5.16789)">
						<title>Sheet.43</title>
						<path d="M2.93 607.36 C1.02 607.36 0 605.13 0 603.52 C0 601.89 1.31 600.57 2.93 600.57 C4.55 600.57 5.87
									 601.89 5.87 603.52 C5.86 605.09 4.82 607.36 2.93 607.36 ZM2.93 601.5 C1.82 601.5 0.93 602.41
									 0.93 603.52 C0.93 604.73 1.69 606.44 2.93 606.44 C4.18 606.44 4.94 604.73 4.94 603.52 C4.93
									 602.39 4.03 601.5 2.93 601.5 Z" class="st3"/>
					</g>
					<g id="shape44-113" v:mID="44" v:groupContext="shape" transform="translate(9.49241E-15,-2.40551)">
						<title>Sheet.44</title>
						<path d="M5.92 607.36 L1.31 607.36 C0.58 607.36 0 606.7 0 605.9 L0 605.65 C0 605.59 0 605.54 0 605.5 L0 605.49
									 L0 605.47 C0.01 605.14 0.11 604.51 0.36 604.13 C0.86 603.35 1.48 602.84 2.33 602.57 C2.5 602.49
									 3.17 602.24 4.59 602.24 C6 602.24 6.67 602.49 6.85 602.57 C7.55 602.8 8.09 603.19 8.55 603.77
									 L8.96 604.28 L8.34 604.5 C7.44 604.8 6.79 605.32 6.25 606.17 C6.16 606.32 6.05 606.62 6 606.97
									 L5.92 607.36 ZM0.93 605.5 C0.93 605.55 0.93 605.61 0.93 605.67 L0.93 605.91 C0.93 606.2 1.1
									 606.45 1.31 606.45 L5.15 606.45 C5.22 606.19 5.31 605.91 5.46 605.7 C5.99 604.89 6.6 604.31
									 7.38 603.93 C7.12 603.73 6.85 603.58 6.52 603.47 L6.45 603.44 C6.45 603.44 5.91 603.19 4.57
									 603.19 C3.22 603.19 2.7 603.44 2.68 603.44 L2.63 603.47 C1.98 603.68 1.52 604.05 1.12 604.65
									 C1.02 604.8 0.93 605.24 0.93 605.5 Z" class="st3"/>
					</g>
					<g id="shape45-115" v:mID="45" v:groupContext="shape" transform="translate(1.79753,-7.22975)">
						<title>Sheet.45</title>
						<path d="M2.78 607.36 C0.96 607.36 0 605.26 0 603.73 C0 602.2 1.24 600.94 2.78 600.94 C4.3 600.94 5.54 602.2
									 5.54 603.73 C5.55 605.22 4.56 607.36 2.78 607.36 ZM2.78 601.88 C1.76 601.88 0.93 602.71 0.93
									 603.74 C0.93 604.87 1.63 606.45 2.78 606.45 C3.9 606.45 4.61 604.85 4.61 603.74 C4.63 602.71
									 3.79 601.88 2.78 601.88 Z" class="st3"/>
					</g>
					<g id="shape46-117" v:mID="46" v:groupContext="shape" transform="translate(12.8602,-2.40551)">
						<title>Sheet.46</title>
						<path d="M7.65 607.36 L3.04 607.36 L2.97 606.98 C2.92 606.64 2.82 606.33 2.72 606.19 C2.17 605.33 1.52 604.81
									 0.62 604.51 L0 604.3 L0.41 603.78 C0.86 603.2 1.43 602.8 2.11 602.58 C2.29 602.5 2.96 602.25
									 4.37 602.25 C5.79 602.25 6.46 602.5 6.63 602.58 C7.47 602.86 8.09 603.36 8.6 604.14 C8.84 604.51
									 8.95 605.14 8.96 605.49 L8.96 605.5 L8.96 605.51 C8.96 605.55 8.96 605.61 8.96 605.66 L8.96
									 605.91 C8.96 606.7 8.37 607.36 7.65 607.36 ZM3.79 606.44 L7.64 606.44 C7.85 606.44 8.02 606.19
									 8.02 605.9 L8.02 605.66 C8.02 605.61 8.02 605.54 8.02 605.49 C8.01 605.22 7.93 604.8 7.82 604.64
									 C7.43 604.03 6.97 603.66 6.32 603.44 L6.25 603.41 C6.25 603.41 5.71 603.16 4.37 603.16 C3.03
									 603.16 2.5 603.41 2.48 603.41 L2.42 603.44 C2.09 603.54 1.81 603.69 1.56 603.9 C2.34 604.3 2.96
									 604.87 3.48 605.69 C3.63 605.9 3.73 606.17 3.79 606.44 Z" class="st3"/>
					</g>
					<g id="shape47-119" v:mID="47" v:groupContext="shape" transform="translate(14.4727,-7.22975)">
						<title>Sheet.47</title>
						<path d="M2.76 607.36 C0.98 607.36 0 605.22 0 603.73 C0 602.2 1.24 600.94 2.76 600.94 C4.3 600.94 5.54 602.2
									 5.54 603.73 C5.54 605.26 4.57 607.36 2.76 607.36 ZM2.76 601.88 C1.74 601.88 0.93 602.71 0.93
									 603.74 C0.93 604.84 1.64 606.45 2.76 606.45 C3.9 606.45 4.61 604.88 4.61 603.74 C4.61 602.71
									 3.78 601.88 2.76 601.88 Z" class="st3"/>
					</g>
				</g>
			</g>
		</g>
		<g id="shape48-121" v:mID="48" v:groupContext="shape" transform="translate(207.397,-0.375067)">
			<title>Sheet.48</title>
			<desc>Project level permissions Customer group/user roles:</desc>
			<v:userDefs/>
			<v:textBlock v:margins="rect(4,4,4,4)" v:tabSpace="42.5197" v:verticalAlign="0"/>
			<v:textRect cx="111.585" cy="525.159" width="223.17" height="164.409"/>
			<rect x="0" y="442.955" width="223.17" height="164.409" class="st1"/>
			<text x="40.45" y="459.55" class="st4" v:langID="2057"><v:paragraph v:horizAlign="1"/><v:tabList/>Project <tspan
						class="st9">level permissions<v:newlineChar/></tspan><tspan x="33.06" dy="1.2em" class="st9">Customer group/user roles:</tspan></text>		</g>
		<g id="shape49-126" v:mID="49" v:groupContext="shape" transform="translate(227.218,-11.1737)">
			<title>Sheet.49</title>
			<desc>Project Role: Member</desc>
			<v:userDefs/>
			<v:textBlock v:margins="rect(4,4,4,4)" v:tabSpace="42.5197"/>
			<v:textRect cx="91.3425" cy="591.504" width="182.69" height="31.721"/>
			<rect x="0" y="575.643" width="182.685" height="31.721" class="st5"/>
			<text x="4" y="587.81" class="st6" v:langID="2057"><v:paragraph/><v:tabList/>Project Role:<v:newlineChar/><v:paragraph
						v:indentFirst="-18" v:indentLeft="18" v:bullet="1"/><tspan x="4" dy="1.211em" class="st7" v:isBullet="true">·</tspan><tspan
						class="st7"> </tspan><tspan class="st7"> </tspan>Member</text>		</g>
		<g id="group50-132" transform="translate(226.272,-89.8391)" v:mID="50" v:groupContext="group">
			<title>Sheet.50</title>
			<g id="shape51-133" v:mID="51" v:groupContext="shape" transform="translate(3.19744E-14,-3.63133)">
				<title>Sheet.51</title>
				<desc>Tenant AD Group</desc>
				<v:userDefs/>
				<v:textBlock v:margins="rect(4,4,4,4)" v:tabSpace="42.5197"/>
				<v:textRect cx="62.4873" cy="594.005" width="124.98" height="26.7165"/>
				<rect x="0" y="580.647" width="124.975" height="26.7165" class="st5"/>
				<text x="36.34" y="597.61" class="st6" v:langID="2057"><v:paragraph v:horizAlign="2"/><v:tabList/>Tenant AD Group</text>			</g>
			<g id="group52-136" v:mID="52" v:groupContext="group">
				<title>Sheet.52</title>
				<g id="shape53-137" v:mID="53" v:groupContext="shape">
					<title>Sheet.53</title>
					<path d="M15.86 575.64 C7.1 575.64 0 582.74 0 591.5 C0 600.27 7.1 607.36 15.86 607.36 C24.62 607.36 31.72 600.27
								 31.72 591.5 C31.71 582.75 24.61 575.66 15.86 575.64 ZM15.86 606.44 C7.61 606.44 0.93 599.75 0.93
								 591.5 C0.93 583.26 7.61 576.57 15.86 576.57 C24.11 576.57 30.8 583.26 30.8 591.5 C30.78 599.75 24.11
								 606.43 15.86 606.44 Z" class="st3"/>
				</g>
				<g id="group54-139" transform="translate(4.87711,-8.94798)" v:mID="54" v:groupContext="group">
					<title>Sheet.54</title>
					<g id="shape55-140" v:mID="55" v:groupContext="shape" transform="translate(6.04021,0)">
						<title>Sheet.55</title>
						<path d="M8.37 607.36 L1.36 607.36 C0.61 607.36 0 606.68 0 605.83 C0 605.83 0 605.49 0 605.41 L0 605.39 L0
									 605.38 C0.01 605.04 0.12 604.35 0.37 603.95 C0.91 603.12 1.57 602.59 2.46 602.29 C2.63 602.21
									 3.34 601.93 4.86 601.93 C6.38 601.93 7.1 602.2 7.27 602.29 C8.15 602.58 8.82 603.11 9.36 603.95
									 C9.61 604.35 9.71 605.04 9.73 605.38 L9.73 605.39 L9.73 605.41 C9.73 605.49 9.73 605.83 9.73
									 605.83 C9.73 606.68 9.12 607.36 8.37 607.36 ZM0.93 605.39 C0.93 605.5 0.93 605.83 0.93 605.83
									 C0.93 606.16 1.12 606.44 1.36 606.44 L8.37 606.44 C8.6 606.44 8.8 606.16 8.8 605.83 C8.8 605.83
									 8.8 605.5 8.8 605.39 C8.79 605.1 8.7 604.64 8.58 604.47 C8.14 603.81 7.65 603.4 6.95 603.17
									 L6.89 603.15 C6.89 603.15 6.3 602.88 4.86 602.88 C3.41 602.88 2.84 603.15 2.83 603.15 L2.78
									 603.17 C2.08 603.41 1.57 603.81 1.15 604.47 C1.03 604.64 0.93 605.1 0.93 605.39 Z" class="st3"/>
					</g>
					<g id="shape56-142" v:mID="56" v:groupContext="shape" transform="translate(7.96991,-5.16789)">
						<title>Sheet.56</title>
						<path d="M2.93 607.36 C1.02 607.36 0 605.13 0 603.52 C0 601.89 1.31 600.57 2.93 600.57 C4.55 600.57 5.87
									 601.89 5.87 603.52 C5.86 605.09 4.82 607.36 2.93 607.36 ZM2.93 601.5 C1.82 601.5 0.93 602.41
									 0.93 603.52 C0.93 604.73 1.69 606.44 2.93 606.44 C4.18 606.44 4.94 604.73 4.94 603.52 C4.93
									 602.39 4.03 601.5 2.93 601.5 Z" class="st3"/>
					</g>
					<g id="shape57-144" v:mID="57" v:groupContext="shape" transform="translate(-5.59552E-14,-2.40551)">
						<title>Sheet.57</title>
						<path d="M5.92 607.36 L1.31 607.36 C0.58 607.36 0 606.7 0 605.9 L0 605.65 C0 605.59 0 605.54 0 605.5 L0 605.49
									 L0 605.47 C0.01 605.14 0.11 604.51 0.36 604.13 C0.86 603.35 1.48 602.84 2.33 602.57 C2.5 602.49
									 3.17 602.24 4.59 602.24 C6 602.24 6.67 602.49 6.85 602.57 C7.55 602.8 8.09 603.19 8.55 603.77
									 L8.96 604.28 L8.34 604.5 C7.44 604.8 6.79 605.32 6.25 606.17 C6.16 606.32 6.05 606.62 6 606.97
									 L5.92 607.36 ZM0.93 605.5 C0.93 605.55 0.93 605.61 0.93 605.67 L0.93 605.91 C0.93 606.2 1.1
									 606.45 1.31 606.45 L5.15 606.45 C5.22 606.19 5.31 605.91 5.46 605.7 C5.99 604.89 6.6 604.31
									 7.38 603.93 C7.12 603.73 6.85 603.58 6.52 603.47 L6.45 603.44 C6.45 603.44 5.91 603.19 4.57
									 603.19 C3.22 603.19 2.7 603.44 2.68 603.44 L2.63 603.47 C1.98 603.68 1.52 604.05 1.12 604.65
									 C1.02 604.8 0.93 605.24 0.93 605.5 Z" class="st3"/>
					</g>
					<g id="shape58-146" v:mID="58" v:groupContext="shape" transform="translate(1.79753,-7.22975)">
						<title>Sheet.58</title>
						<path d="M2.78 607.36 C0.96 607.36 0 605.26 0 603.73 C0 602.2 1.24 600.94 2.78 600.94 C4.3 600.94 5.54 602.2
									 5.54 603.73 C5.55 605.22 4.56 607.36 2.78 607.36 ZM2.78 601.88 C1.76 601.88 0.93 602.71 0.93
									 603.74 C0.93 604.87 1.63 606.45 2.78 606.45 C3.9 606.45 4.61 604.85 4.61 603.74 C4.63 602.71
									 3.79 601.88 2.78 601.88 Z" class="st3"/>
					</g>
					<g id="shape59-148" v:mID="59" v:groupContext="shape" transform="translate(12.8602,-2.40551)">
						<title>Sheet.59</title>
						<path d="M7.65 607.36 L3.04 607.36 L2.97 606.98 C2.92 606.64 2.82 606.33 2.72 606.19 C2.17 605.33 1.52 604.81
									 0.62 604.51 L0 604.3 L0.41 603.78 C0.86 603.2 1.43 602.8 2.11 602.58 C2.29 602.5 2.96 602.25
									 4.37 602.25 C5.79 602.25 6.46 602.5 6.63 602.58 C7.47 602.86 8.09 603.36 8.6 604.14 C8.84 604.51
									 8.95 605.14 8.96 605.49 L8.96 605.5 L8.96 605.51 C8.96 605.55 8.96 605.61 8.96 605.66 L8.96
									 605.91 C8.96 606.7 8.37 607.36 7.65 607.36 ZM3.79 606.44 L7.64 606.44 C7.85 606.44 8.02 606.19
									 8.02 605.9 L8.02 605.66 C8.02 605.61 8.02 605.54 8.02 605.49 C8.01 605.22 7.93 604.8 7.82 604.64
									 C7.43 604.03 6.97 603.66 6.32 603.44 L6.25 603.41 C6.25 603.41 5.71 603.16 4.37 603.16 C3.03
									 603.16 2.5 603.41 2.48 603.41 L2.42 603.44 C2.09 603.54 1.81 603.69 1.56 603.9 C2.34 604.3 2.96
									 604.87 3.48 605.69 C3.63 605.9 3.73 606.17 3.79 606.44 Z" class="st3"/>
					</g>
					<g id="shape60-150" v:mID="60" v:groupContext="shape" transform="translate(14.4727,-7.22975)">
						<title>Sheet.60</title>
						<path d="M2.76 607.36 C0.98 607.36 0 605.22 0 603.73 C0 602.2 1.24 600.94 2.76 600.94 C4.3 600.94 5.54 602.2
									 5.54 603.73 C5.54 605.26 4.57 607.36 2.76 607.36 ZM2.76 601.88 C1.74 601.88 0.93 602.71 0.93
									 603.74 C0.93 604.84 1.64 606.45 2.76 606.45 C3.9 606.45 4.61 604.88 4.61 603.74 C4.61 602.71
									 3.78 601.88 2.76 601.88 Z" class="st3"/>
					</g>
				</g>
			</g>
		</g>
		<g id="group61-152" transform="translate(226.327,-50.694)" v:mID="61" v:groupContext="group">
			<title>Sheet.61</title>
			<g id="shape62-153" v:mID="62" v:groupContext="shape" transform="translate(11.6397,-2.6327)">
				<title>Sheet.62</title>
				<desc>Tenant VMware Users</desc>
				<v:userDefs/>
				<v:textBlock v:margins="rect(4,4,4,4)" v:tabSpace="42.5197"/>
				<v:textRect cx="68.9846" cy="594.005" width="137.97" height="26.7165"/>
				<rect x="0" y="580.647" width="137.969" height="26.7165" class="st5"/>
				<text x="25.56" y="597.61" class="st6" v:langID="2057"><v:paragraph v:horizAlign="2"/><v:tabList/>Tenant VMware Users</text>			</g>
			<g id="group63-156" v:mID="63" v:groupContext="group">
				<title>Sheet.63</title>
				<g id="shape64-157" v:mID="64" v:groupContext="shape">
					<title>Sheet.64</title>
					<path d="M15.86 575.64 C7.1 575.64 0 582.74 0 591.5 C0 600.27 7.1 607.36 15.86 607.36 C24.62 607.36 31.72 600.27
								 31.72 591.5 C31.71 582.75 24.61 575.66 15.86 575.64 ZM15.86 606.44 C7.61 606.44 0.93 599.75 0.93
								 591.5 C0.93 583.26 7.61 576.57 15.86 576.57 C24.11 576.57 30.8 583.26 30.8 591.5 C30.78 599.75 24.11
								 606.43 15.86 606.44 Z" class="st3"/>
				</g>
				<g id="group65-159" transform="translate(4.87711,-8.94798)" v:mID="65" v:groupContext="group">
					<title>Sheet.65</title>
					<g id="shape66-160" v:mID="66" v:groupContext="shape" transform="translate(6.04021,0)">
						<title>Sheet.66</title>
						<path d="M8.37 607.36 L1.36 607.36 C0.61 607.36 0 606.68 0 605.83 C0 605.83 0 605.49 0 605.41 L0 605.39 L0
									 605.38 C0.01 605.04 0.12 604.35 0.37 603.95 C0.91 603.12 1.57 602.59 2.46 602.29 C2.63 602.21
									 3.34 601.93 4.86 601.93 C6.38 601.93 7.1 602.2 7.27 602.29 C8.15 602.58 8.82 603.11 9.36 603.95
									 C9.61 604.35 9.71 605.04 9.73 605.38 L9.73 605.39 L9.73 605.41 C9.73 605.49 9.73 605.83 9.73
									 605.83 C9.73 606.68 9.12 607.36 8.37 607.36 ZM0.93 605.39 C0.93 605.5 0.93 605.83 0.93 605.83
									 C0.93 606.16 1.12 606.44 1.36 606.44 L8.37 606.44 C8.6 606.44 8.8 606.16 8.8 605.83 C8.8 605.83
									 8.8 605.5 8.8 605.39 C8.79 605.1 8.7 604.64 8.58 604.47 C8.14 603.81 7.65 603.4 6.95 603.17
									 L6.89 603.15 C6.89 603.15 6.3 602.88 4.86 602.88 C3.41 602.88 2.84 603.15 2.83 603.15 L2.78
									 603.17 C2.08 603.41 1.57 603.81 1.15 604.47 C1.03 604.64 0.93 605.1 0.93 605.39 Z" class="st3"/>
					</g>
					<g id="shape67-162" v:mID="67" v:groupContext="shape" transform="translate(7.96991,-5.16789)">
						<title>Sheet.67</title>
						<path d="M2.93 607.36 C1.02 607.36 0 605.13 0 603.52 C0 601.89 1.31 600.57 2.93 600.57 C4.55 600.57 5.87
									 601.89 5.87 603.52 C5.86 605.09 4.82 607.36 2.93 607.36 ZM2.93 601.5 C1.82 601.5 0.93 602.41
									 0.93 603.52 C0.93 604.73 1.69 606.44 2.93 606.44 C4.18 606.44 4.94 604.73 4.94 603.52 C4.93
									 602.39 4.03 601.5 2.93 601.5 Z" class="st3"/>
					</g>
					<g id="shape68-164" v:mID="68" v:groupContext="shape" transform="translate(1.249E-14,-2.40551)">
						<title>Sheet.68</title>
						<path d="M5.92 607.36 L1.31 607.36 C0.58 607.36 0 606.7 0 605.9 L0 605.65 C0 605.59 0 605.54 0 605.5 L0 605.49
									 L0 605.47 C0.01 605.14 0.11 604.51 0.36 604.13 C0.86 603.35 1.48 602.84 2.33 602.57 C2.5 602.49
									 3.17 602.24 4.59 602.24 C6 602.24 6.67 602.49 6.85 602.57 C7.55 602.8 8.09 603.19 8.55 603.77
									 L8.96 604.28 L8.34 604.5 C7.44 604.8 6.79 605.32 6.25 606.17 C6.16 606.32 6.05 606.62 6 606.97
									 L5.92 607.36 ZM0.93 605.5 C0.93 605.55 0.93 605.61 0.93 605.67 L0.93 605.91 C0.93 606.2 1.1
									 606.45 1.31 606.45 L5.15 606.45 C5.22 606.19 5.31 605.91 5.46 605.7 C5.99 604.89 6.6 604.31
									 7.38 603.93 C7.12 603.73 6.85 603.58 6.52 603.47 L6.45 603.44 C6.45 603.44 5.91 603.19 4.57
									 603.19 C3.22 603.19 2.7 603.44 2.68 603.44 L2.63 603.47 C1.98 603.68 1.52 604.05 1.12 604.65
									 C1.02 604.8 0.93 605.24 0.93 605.5 Z" class="st3"/>
					</g>
					<g id="shape69-166" v:mID="69" v:groupContext="shape" transform="translate(1.79753,-7.22975)">
						<title>Sheet.69</title>
						<path d="M2.78 607.36 C0.96 607.36 0 605.26 0 603.73 C0 602.2 1.24 600.94 2.78 600.94 C4.3 600.94 5.54 602.2
									 5.54 603.73 C5.55 605.22 4.56 607.36 2.78 607.36 ZM2.78 601.88 C1.76 601.88 0.93 602.71 0.93
									 603.74 C0.93 604.87 1.63 606.45 2.78 606.45 C3.9 606.45 4.61 604.85 4.61 603.74 C4.63 602.71
									 3.79 601.88 2.78 601.88 Z" class="st3"/>
					</g>
					<g id="shape70-168" v:mID="70" v:groupContext="shape" transform="translate(12.8602,-2.40551)">
						<title>Sheet.70</title>
						<path d="M7.65 607.36 L3.04 607.36 L2.97 606.98 C2.92 606.64 2.82 606.33 2.72 606.19 C2.17 605.33 1.52 604.81
									 0.62 604.51 L0 604.3 L0.41 603.78 C0.86 603.2 1.43 602.8 2.11 602.58 C2.29 602.5 2.96 602.25
									 4.37 602.25 C5.79 602.25 6.46 602.5 6.63 602.58 C7.47 602.86 8.09 603.36 8.6 604.14 C8.84 604.51
									 8.95 605.14 8.96 605.49 L8.96 605.5 L8.96 605.51 C8.96 605.55 8.96 605.61 8.96 605.66 L8.96
									 605.91 C8.96 606.7 8.37 607.36 7.65 607.36 ZM3.79 606.44 L7.64 606.44 C7.85 606.44 8.02 606.19
									 8.02 605.9 L8.02 605.66 C8.02 605.61 8.02 605.54 8.02 605.49 C8.01 605.22 7.93 604.8 7.82 604.64
									 C7.43 604.03 6.97 603.66 6.32 603.44 L6.25 603.41 C6.25 603.41 5.71 603.16 4.37 603.16 C3.03
									 603.16 2.5 603.41 2.48 603.41 L2.42 603.44 C2.09 603.54 1.81 603.69 1.56 603.9 C2.34 604.3 2.96
									 604.87 3.48 605.69 C3.63 605.9 3.73 606.17 3.79 606.44 Z" class="st3"/>
					</g>
					<g id="shape71-170" v:mID="71" v:groupContext="shape" transform="translate(14.4727,-7.22975)">
						<title>Sheet.71</title>
						<path d="M2.76 607.36 C0.98 607.36 0 605.22 0 603.73 C0 602.2 1.24 600.94 2.76 600.94 C4.3 600.94 5.54 602.2
									 5.54 603.73 C5.54 605.26 4.57 607.36 2.76 607.36 ZM2.76 601.88 C1.74 601.88 0.93 602.71 0.93
									 603.74 C0.93 604.84 1.64 606.45 2.76 606.45 C3.9 606.45 4.61 604.88 4.61 603.74 C4.61 602.71
									 3.78 601.88 2.76 601.88 Z" class="st3"/>
					</g>
				</g>
			</g>
		</g>
		<g id="shape72-172" v:mID="72" v:groupContext="shape" v:layerMember="0" transform="translate(318.939,-415.085)">
			<title>Dynamic connector.1094</title>
			<path d="M0 569.94 L0 600.32 L0 607.36" class="st10"/>
		</g>
		<g id="shape73-178" v:mID="73" v:groupContext="shape" v:layerMember="0" transform="translate(318.985,-164.788)">
			<title>Dynamic connector.1095</title>
			<path d="M0 564.84 L0 600.32 L0 607.36" class="st10"/>
		</g>
		<g id="group74-183" transform="translate(106.989,-335.949)" v:mID="74" v:groupContext="group">
			<title>Sheet.74</title>
			<g id="shape75-184" v:mID="75" v:groupContext="shape" transform="translate(0.0266011,0)">
				<title>White</title>
				<path d="M26.6 554.16 C11.93 554.16 0 566.09 0 580.76 C0 595.44 11.93 607.36 26.6 607.36 C41.28 607.36 53.2 595.44
							 53.2 580.76 C53.2 566.09 41.28 554.16 26.6 554.16 ZM26.6 605.81 C12.79 605.81 1.55 594.57 1.55 580.76
							 C1.55 566.95 12.79 555.71 26.6 555.71 C40.41 555.71 51.65 566.95 51.65 580.76 C51.65 594.57 40.41 605.81
							 26.6 605.81 Z" class="st12"/>
			</g>
			<g id="shape76-186" v:mID="76" v:groupContext="shape">
				<title>Blue</title>
				<path d="M26.6 554.16 C11.93 554.16 0 566.09 0 580.76 C0 595.44 11.93 607.36 26.6 607.36 C41.28 607.36 53.2 595.44
							 53.2 580.76 C53.2 566.09 41.28 554.16 26.6 554.16 ZM26.6 605.81 C12.79 605.81 1.55 594.57 1.55 580.76
							 C1.55 566.95 12.79 555.71 26.6 555.71 C40.41 555.71 51.65 566.95 51.65 580.76 C51.65 594.57 40.41 605.81
							 26.6 605.81 Z" class="st13"/>
			</g>
			<g id="group77-188" transform="translate(12.088,-11.8907)" v:mID="77" v:groupContext="group">
				<title>_126-Server</title>
				<g id="shape78-189" v:mID="78" v:groupContext="shape" transform="translate(2.79776E-14,-18.552)">
					<title>Sheet.78</title>
					<path d="M28.49 607.36 L0.67 607.36 C0.3 607.36 0 607.07 0 606.7 L0 597.42 C0 597.05 0.3 596.76 0.67 596.76 L28.49
								 596.76 C28.86 596.76 29.16 597.05 29.16 597.42 L29.16 606.7 C29.16 607.07 28.86 607.36 28.49 607.36
								 ZM1.33 606.03 L27.83 606.03 L27.83 598.09 L1.33 598.09 L1.33 606.03 Z" class="st13"/>
				</g>
				<g id="shape79-191" v:mID="79" v:groupContext="shape" transform="translate(2.79776E-14,-9.27712)">
					<title>Sheet.79</title>
					<path d="M28.49 607.36 L0.67 607.36 C0.3 607.36 0 607.07 0 606.7 L0 597.42 C0 597.06 0.3 596.76 0.67 596.76 L28.49
								 596.76 C28.86 596.76 29.16 597.06 29.16 597.42 L29.16 606.7 C29.16 607.07 28.86 607.36 28.49 607.36
								 ZM1.33 606.03 L27.83 606.03 L27.83 598.09 L1.33 598.09 L1.33 606.03 Z" class="st13"/>
				</g>
				<g id="shape80-193" v:mID="80" v:groupContext="shape">
					<title>Sheet.80</title>
					<path d="M28.49 607.36 L0.67 607.36 C0.3 607.36 0 607.07 0 606.7 L0 597.42 C0 597.06 0.3 596.76 0.67 596.76 L28.49
								 596.76 C28.86 596.76 29.16 597.06 29.16 597.42 L29.16 606.7 C29.16 607.06 28.86 607.36 28.49 607.36
								 ZM1.33 606.03 L27.83 606.03 L27.83 598.09 L1.33 598.09 L1.33 606.03 Z" class="st13"/>
				</g>
				<g id="shape81-195" v:mID="81" v:groupContext="shape" transform="translate(3.44927,-23.1854)">
					<title>Sheet.81</title>
					<rect x="0" y="606.034" width="5.56627" height="1.33005" class="st13"/>
				</g>
				<g id="shape82-197" v:mID="82" v:groupContext="shape" transform="translate(4.37587,-13.9105)">
					<title>Sheet.82</title>
					<rect x="0" y="606.034" width="16.6966" height="1.33005" class="st13"/>
				</g>
				<g id="shape83-199" v:mID="83" v:groupContext="shape" transform="translate(22.9279,-13.9105)">
					<title>Sheet.83</title>
					<rect x="0" y="606.034" width="1.85542" height="1.33005" class="st13"/>
				</g>
				<g id="shape84-201" v:mID="84" v:groupContext="shape" transform="translate(22.9279,-4.63562)">
					<title>Sheet.84</title>
					<rect x="0" y="606.034" width="1.85542" height="1.33005" class="st13"/>
				</g>
				<g id="shape85-203" v:mID="85" v:groupContext="shape" transform="translate(19.2171,-4.63562)">
					<title>Sheet.85</title>
					<rect x="0" y="606.034" width="1.85542" height="1.33005" class="st13"/>
				</g>
				<g id="shape86-205" v:mID="86" v:groupContext="shape" transform="translate(15.5062,-4.63562)">
					<title>Sheet.86</title>
					<rect x="0" y="606.034" width="1.85542" height="1.33005" class="st13"/>
				</g>
				<g id="shape87-207" v:mID="87" v:groupContext="shape" transform="translate(4.37587,-4.63562)">
					<title>Sheet.87</title>
					<rect x="0" y="606.034" width="9.2749" height="1.33005" class="st13"/>
				</g>
				<g id="shape88-209" v:mID="88" v:groupContext="shape" transform="translate(10.8688,-23.1854)">
					<title>Sheet.88</title>
					<rect x="0" y="606.034" width="1.85542" height="1.33005" class="st13"/>
				</g>
				<g id="shape89-211" v:mID="89" v:groupContext="shape" transform="translate(14.5796,-23.1854)">
					<title>Sheet.89</title>
					<rect x="0" y="606.034" width="1.85542" height="1.33005" class="st13"/>
				</g>
				<g id="shape90-213" v:mID="90" v:groupContext="shape" transform="translate(18.2904,-23.1854)">
					<title>Sheet.90</title>
					<rect x="0" y="606.034" width="1.85542" height="1.33005" class="st13"/>
				</g>
				<g id="shape91-215" v:mID="91" v:groupContext="shape" transform="translate(21.9991,-23.1854)">
					<title>Sheet.91</title>
					<rect x="0" y="606.034" width="1.85542" height="1.33005" class="st13"/>
				</g>
			</g>
		</g>
		<g id="shape92-217" v:mID="92" v:groupContext="shape" transform="translate(511.714,-494.481)">
			<title>Sheet.92</title>
			<desc>Vmware accounts</desc>
			<v:userDefs/>
			<v:textBlock v:margins="rect(4,4,4,4)" v:tabSpace="42.5197"/>
			<v:textRect cx="28.3465" cy="591.504" width="56.7" height="31.721"/>
			<rect x="0" y="575.643" width="56.6929" height="31.721" class="st5"/>
			<text x="7.91" y="587.9" class="st6" v:langID="2057"><v:paragraph v:horizAlign="1"/><v:tabList/>Vmware <tspan x="6.57"
						dy="1.2em" class="st8">accounts</tspan></text>		</g>
		<g id="shape93-221" v:mID="93" v:groupContext="shape" v:layerMember="0" transform="translate(430.476,-551.05)">
			<title>Dynamic connector.1133</title>
			<path d="M82.97 607.36 L7.04 607.36 L0 607.36" class="st10"/>
		</g>
		<g id="shape94-226" v:mID="94" v:groupContext="shape" v:layerMember="0" transform="translate(160.193,-361.378)">
			<title>Dynamic connector.1134</title>
			<path d="M0 607.36 L40.16 607.36 L47.2 607.36" class="st10"/>
		</g>
		<g id="shape95-231" v:mID="95" v:groupContext="shape" transform="translate(103.515,-304.829)">
			<title>Sheet.95</title>
			<desc>AD Connector</desc>
			<v:userDefs/>
			<v:textBlock v:margins="rect(4,4,4,4)" v:tabSpace="42.5197"/>
			<v:textRect cx="30.0883" cy="591.504" width="60.18" height="31.721"/>
			<rect x="0" y="575.643" width="60.1767" height="31.721" class="st5"/>
			<text x="22.93" y="587.9" class="st6" v:langID="2057"><v:paragraph v:horizAlign="1"/><v:tabList/>AD <tspan x="4.63"
						dy="1.2em" class="st8">Connector</tspan></text>		</g>
		<g id="group96-235" transform="translate(107.035,-245.193)" v:mID="96" v:groupContext="group">
			<title>Sheet.96</title>
			<g id="shape97-236" v:mID="97" v:groupContext="shape">
				<title>Sheet.97</title>
				<path d="M26.61 554.14 C11.91 554.14 0 566.05 0 580.75 C0 595.45 11.91 607.36 26.61 607.36 C41.32 607.36 53.23 595.45
							 53.23 580.75 C53.21 566.07 41.3 554.16 26.61 554.14 ZM26.61 605.81 C12.77 605.81 1.55 594.59 1.55 580.75
							 C1.55 566.91 12.77 555.69 26.61 555.69 C40.45 555.69 51.68 566.91 51.68 580.75 C51.65 594.59 40.45 605.79
							 26.61 605.81 Z" class="st3"/>
			</g>
			<g id="group98-238" transform="translate(8.18392,-15.0149)" v:mID="98" v:groupContext="group">
				<title>Sheet.98</title>
				<g id="shape99-239" v:mID="99" v:groupContext="shape" transform="translate(10.1356,0)">
					<title>Sheet.99</title>
					<path d="M14.04 607.36 L2.28 607.36 C1.02 607.36 0 606.21 0 604.79 C0 604.79 0 604.21 0 604.08 L0 604.06 L0 604.04
								 C0.02 603.46 0.2 602.31 0.62 601.64 C1.53 600.24 2.64 599.36 4.13 598.85 C4.41 598.71 5.61 598.25
								 8.16 598.25 C10.71 598.25 11.91 598.69 12.2 598.85 C13.68 599.34 14.79 600.22 15.7 601.64 C16.12
								 602.31 16.3 603.46 16.32 604.04 L16.32 604.06 L16.32 604.08 C16.32 604.21 16.32 604.79 16.32 604.79
								 C16.32 606.21 15.3 607.36 14.04 607.36 ZM1.55 604.06 C1.55 604.24 1.55 604.79 1.55 604.79 C1.55
								 605.35 1.89 605.81 2.28 605.81 L14.04 605.81 C14.44 605.81 14.77 605.35 14.77 604.79 C14.77 604.79
								 14.77 604.24 14.77 604.06 C14.75 603.57 14.59 602.8 14.39 602.51 C13.66 601.4 12.84 600.71 11.67
								 600.33 L11.56 600.29 C11.56 600.29 10.58 599.85 8.16 599.85 C5.72 599.85 4.77 600.29 4.75 600.29
								 L4.66 600.33 C3.48 600.73 2.64 601.4 1.93 602.51 C1.73 602.8 1.55 603.57 1.55 604.06 Z"
							class="st3"/>
				</g>
				<g id="shape100-241" v:mID="100" v:groupContext="shape" transform="translate(13.3737,-8.67185)">
					<title>Sheet.100</title>
					<path d="M4.92 607.36 C1.71 607.36 0 603.62 0 600.91 C0 598.18 2.2 595.96 4.92 595.96 C7.63 595.96 9.85 598.18
								 9.85 600.91 C9.83 603.55 8.1 607.36 4.92 607.36 ZM4.92 597.52 C3.06 597.52 1.55 599.05 1.55 600.91
								 C1.55 602.95 2.84 605.81 4.92 605.81 C7.01 605.81 8.29 602.95 8.29 600.91 C8.27 599.03 6.76 597.52
								 4.92 597.52 Z" class="st3"/>
				</g>
				<g id="shape101-243" v:mID="101" v:groupContext="shape" transform="translate(1.21902E-13,-4.03651)">
					<title>Sheet.101</title>
					<path d="M9.94 607.36 L2.2 607.36 C0.98 607.36 0 606.26 0 604.9 L0 604.48 C0 604.39 0 604.3 0 604.24 L0 604.21
								 L0 604.19 C0.02 603.64 0.18 602.57 0.6 601.93 C1.44 600.62 2.48 599.78 3.9 599.31 C4.19 599.18 5.32
								 598.76 7.7 598.76 C10.07 598.76 11.2 599.18 11.49 599.31 C12.66 599.71 13.57 600.36 14.35 601.33
								 L15.04 602.2 L13.99 602.55 C12.49 603.06 11.4 603.93 10.49 605.37 C10.34 605.61 10.16 606.12 10.07
								 606.7 L9.94 607.36 ZM1.55 604.24 C1.55 604.33 1.55 604.41 1.55 604.53 L1.55 604.92 C1.55 605.41
								 1.84 605.83 2.2 605.83 L8.65 605.83 C8.76 605.39 8.92 604.92 9.16 604.57 C10.05 603.22 11.07 602.24
								 12.38 601.6 C11.95 601.27 11.49 601.02 10.93 600.82 L10.82 600.78 C10.82 600.78 9.91 600.36 7.67
								 600.36 C5.41 600.36 4.52 600.78 4.5 600.78 L4.41 600.82 C3.33 601.18 2.55 601.8 1.89 602.82 C1.71
								 603.06 1.55 603.79 1.55 604.24 Z" class="st3"/>
				</g>
				<g id="shape102-245" v:mID="102" v:groupContext="shape" transform="translate(3.01629,-12.1317)">
					<title>Sheet.102</title>
					<path d="M4.66 607.36 C1.62 607.36 0 603.84 0 601.27 C0 598.69 2.08 596.59 4.66 596.59 C7.21 596.59 9.29 598.69
								 9.29 601.27 C9.32 603.77 7.65 607.36 4.66 607.36 ZM4.66 598.16 C2.95 598.16 1.55 599.56 1.55 601.29
								 C1.55 603.17 2.73 605.83 4.66 605.83 C6.54 605.83 7.74 603.15 7.74 601.29 C7.76 599.56 6.37 598.16
								 4.66 598.16 Z" class="st3"/>
				</g>
				<g id="shape103-247" v:mID="103" v:groupContext="shape" transform="translate(21.5798,-4.03651)">
					<title>Sheet.103</title>
					<path d="M12.84 607.36 L5.1 607.36 L4.99 606.72 C4.9 606.14 4.72 605.63 4.57 605.39 C3.64 603.95 2.55 603.08
								 1.04 602.57 L0 602.22 L0.69 601.35 C1.44 600.38 2.4 599.71 3.55 599.34 C3.84 599.2 4.97 598.78 7.34
								 598.78 C9.71 598.78 10.85 599.2 11.13 599.34 C12.53 599.8 13.57 600.64 14.44 601.95 C14.84 602.57
								 15.01 603.64 15.04 604.21 L15.04 604.24 L15.04 604.26 C15.04 604.33 15.04 604.41 15.04 604.5 L15.04
								 604.92 C15.04 606.26 14.04 607.36 12.84 607.36 ZM6.37 605.81 L12.82 605.81 C13.17 605.81 13.46 605.39
								 13.46 604.9 L13.46 604.5 C13.46 604.41 13.46 604.3 13.46 604.21 C13.44 603.77 13.31 603.06 13.13
								 602.8 C12.46 601.78 11.69 601.15 10.6 600.78 L10.49 600.73 C10.49 600.73 9.58 600.31 7.34 600.31
								 C5.08 600.31 4.19 600.73 4.17 600.73 L4.06 600.78 C3.5 600.95 3.04 601.2 2.62 601.55 C3.93 602.22
								 4.97 603.17 5.83 604.55 C6.1 604.9 6.25 605.37 6.37 605.81 Z" class="st3"/>
				</g>
				<g id="shape104-249" v:mID="104" v:groupContext="shape" transform="translate(24.2856,-12.1317)">
					<title>Sheet.104</title>
					<path d="M4.64 607.36 C1.64 607.36 0 603.77 0 601.27 C0 598.69 2.08 596.59 4.64 596.59 C7.21 596.59 9.29 598.69
								 9.29 601.27 C9.29 603.84 7.67 607.36 4.64 607.36 ZM4.64 598.16 C2.93 598.16 1.55 599.56 1.55 601.29
								 C1.55 603.13 2.75 605.83 4.64 605.83 C6.54 605.83 7.74 603.19 7.74 601.29 C7.74 599.56 6.34 598.16
								 4.64 598.16 Z" class="st3"/>
				</g>
			</g>
		</g>
		<g id="shape105-251" v:mID="105" v:groupContext="shape" transform="translate(105.303,-215.403)">
			<title>Sheet.105</title>
			<desc>Vmware accounts</desc>
			<v:userDefs/>
			<v:textBlock v:margins="rect(4,4,4,4)" v:tabSpace="42.5197"/>
			<v:textRect cx="28.3465" cy="591.504" width="56.7" height="31.721"/>
			<rect x="0" y="575.643" width="56.6929" height="31.721" class="st5"/>
			<text x="7.91" y="587.9" class="st6" v:langID="2057"><v:paragraph v:horizAlign="1"/><v:tabList/>Vmware <tspan x="6.57"
						dy="1.2em" class="st8">accounts</tspan></text>		</g>
		<g id="shape106-255" v:mID="106" v:groupContext="shape" v:layerMember="0" transform="translate(160.263,-271.801)">
			<title>Dynamic connector.1146</title>
			<path d="M0 607.36 L40.09 607.36 L47.13 607.36" class="st10"/>
		</g>
		<g id="shape107-260" v:mID="107" v:groupContext="shape" transform="translate(11.0645,-315.505)">
			<title>Sheet.107</title>
			<desc>DC</desc>
			<v:userDefs/>
			<v:textBlock v:margins="rect(4,4,4,4)" v:tabSpace="42.5197"/>
			<v:textRect cx="30.0883" cy="601.672" width="60.18" height="11.384"/>
			<rect x="0" y="595.98" width="60.1767" height="11.384" class="st5"/>
			<text x="23.2" y="605.27" class="st6" v:langID="2057"><v:paragraph v:horizAlign="1"/><v:tabList/>DC</text>		</g>
		<g id="shape108-263" v:mID="108" v:groupContext="shape" v:layerMember="0" transform="translate(78.3278,-362.543)">
			<title>Dynamic connector.1149</title>
			<path d="M0 607.36 L21.62 607.36 L28.66 607.36" class="st10"/>
		</g>
		<g id="group109-268" transform="translate(12.4233,-329.579)" v:mID="109" v:groupContext="group">
			<title>Sheet.109</title>
			<g id="shape110-269" v:mID="110" v:groupContext="shape">
				<title>Sheet.110</title>
				<path d="M26.93 554.27 C12.05 554.27 0 566.15 0 580.82 C0 595.48 12.05 607.36 26.93 607.36 C41.81 607.36 53.86 595.48
							 53.86 580.82 C53.83 566.17 41.78 554.29 26.93 554.27 ZM26.93 605.82 C12.93 605.82 1.57 594.62 1.57 580.82
							 C1.57 567.01 12.93 555.82 26.93 555.82 C40.93 555.82 52.29 567.01 52.29 580.82 C52.26 594.62 40.93 605.79
							 26.93 605.82 Z" class="st3"/>
			</g>
			<g id="group111-271" transform="translate(9.20042,-10.0882)" v:mID="111" v:groupContext="group">
				<title>Sheet.111</title>
				<g id="shape112-272" v:mID="112" v:groupContext="shape" transform="translate(8.81894,1.13687E-13)">
					<title>Sheet.112</title>
					<path d="M17.91 607.36 L0 607.36 L0 574.56 L17.91 574.56 L17.91 607.36 ZM1.57 605.82 L16.34 605.82 L16.34 576.1
								 L1.57 576.1 L1.57 605.82 Z" class="st3"/>
				</g>
				<g id="shape113-274" v:mID="113" v:groupContext="shape" transform="translate(11.4893,-26.8133)">
					<title>Sheet.113</title>
					<path d="M11.76 607.36 L0.79 607.36 C0.36 607.36 0 607.01 0 606.59 C0 606.17 0.36 605.82 0.79 605.82 L11.74 605.82
								 C12.16 605.82 12.52 606.17 12.52 606.59 C12.52 607.01 12.18 607.36 11.76 607.36 Z" class="st3"/>
				</g>
				<g id="shape114-276" v:mID="114" v:groupContext="shape" transform="translate(11.4893,-23.7382)">
					<title>Sheet.114</title>
					<path d="M11.76 607.36 L0.79 607.36 C0.36 607.36 0 607.01 0 606.59 C0 606.17 0.36 605.82 0.79 605.82 L11.74 605.82
								 C12.16 605.82 12.52 606.17 12.52 606.59 C12.52 607.01 12.18 607.36 11.76 607.36 Z" class="st3"/>
				</g>
				<g id="shape115-278" v:mID="115" v:groupContext="shape" transform="translate(11.4893,-20.6409)">
					<title>Sheet.115</title>
					<path d="M11.76 607.36 L0.79 607.36 C0.36 607.36 0 607.01 0 606.59 C0 606.17 0.36 605.82 0.79 605.82 L11.74 605.82
								 C12.16 605.82 12.52 606.17 12.52 606.59 C12.52 607.01 12.18 607.36 11.76 607.36 Z" class="st3"/>
				</g>
				<g id="shape116-280" v:mID="116" v:groupContext="shape" transform="translate(25.1553,-3.98217)">
					<title>Sheet.116</title>
					<path d="M10.39 607.36 L0.79 607.36 C0.36 607.36 0 607.01 0 606.59 C0 606.17 0.36 605.82 0.79 605.82 L8.82 605.82
								 L8.82 584.05 L0.79 584.05 C0.36 584.05 0 583.69 0 583.27 C0 582.85 0.36 582.5 0.79 582.5 L10.39
								 582.5 L10.39 607.36 Z" class="st3"/>
				</g>
				<g id="shape117-282" v:mID="117" v:groupContext="shape" transform="translate(25.7387,-23.7382)">
					<title>Sheet.117</title>
					<path d="M6.4 607.36 L0.79 607.36 C0.36 607.36 0 607.01 0 606.59 C0 606.17 0.36 605.82 0.79 605.82 L6.4 605.82
								 C6.82 605.82 7.18 606.17 7.18 606.59 C7.18 607.01 6.84 607.36 6.4 607.36 Z" class="st3"/>
				</g>
				<g id="shape118-284" v:mID="118" v:groupContext="shape" transform="translate(25.7387,-21.2161)">
					<title>Sheet.118</title>
					<path d="M6.4 607.36 L0.79 607.36 C0.36 607.36 0 607.01 0 606.59 C0 606.17 0.36 605.82 0.79 605.82 L6.4 605.82
								 C6.82 605.82 7.18 606.17 7.18 606.59 C7.18 607.01 6.84 607.36 6.4 607.36 Z" class="st3"/>
				</g>
				<g id="shape119-286" v:mID="119" v:groupContext="shape" transform="translate(25.7387,-18.6719)">
					<title>Sheet.119</title>
					<path d="M6.4 607.36 L0.79 607.36 C0.36 607.36 0 607.01 0 606.59 C0 606.17 0.36 605.82 0.79 605.82 L6.4 605.82
								 C6.82 605.82 7.18 606.17 7.18 606.59 C7.18 607.01 6.84 607.36 6.4 607.36 Z" class="st3"/>
				</g>
				<g id="shape120-288" v:mID="120" v:groupContext="shape" transform="translate(-4.39648E-14,-3.98217)">
					<title>Sheet.120</title>
					<path d="M9.6 607.36 L0 607.36 L0 582.5 L9.6 582.5 C10.03 582.5 10.39 582.85 10.39 583.27 C10.39 583.69 10.03
								 584.05 9.6 584.05 L1.57 584.05 L1.57 605.82 L9.6 605.82 C10.03 605.82 10.39 606.17 10.39 606.59
								 C10.39 607.01 10.03 607.36 9.6 607.36 Z" class="st3"/>
				</g>
				<g id="shape121-290" v:mID="121" v:groupContext="shape" transform="translate(2.60305,-23.7382)">
					<title>Sheet.121</title>
					<path d="M6.4 607.36 L0.79 607.36 C0.36 607.36 0 607.01 0 606.59 C0 606.17 0.36 605.82 0.79 605.82 L6.4 605.82
								 C6.82 605.82 7.18 606.17 7.18 606.59 C7.18 607.01 6.82 607.36 6.4 607.36 Z" class="st3"/>
				</g>
				<g id="shape122-292" v:mID="122" v:groupContext="shape" transform="translate(2.60305,-21.2161)">
					<title>Sheet.122</title>
					<path d="M6.4 607.36 L0.79 607.36 C0.36 607.36 0 607.01 0 606.59 C0 606.17 0.36 605.82 0.79 605.82 L6.4 605.82
								 C6.82 605.82 7.18 606.17 7.18 606.59 C7.18 607.01 6.82 607.36 6.4 607.36 Z" class="st3"/>
				</g>
				<g id="shape123-294" v:mID="123" v:groupContext="shape" transform="translate(2.60305,-18.6719)">
					<title>Sheet.123</title>
					<path d="M6.4 607.36 L0.79 607.36 C0.36 607.36 0 607.01 0 606.59 C0 606.17 0.36 605.82 0.79 605.82 L6.4 605.82
								 C6.82 605.82 7.18 606.17 7.18 606.59 C7.18 607.01 6.82 607.36 6.4 607.36 Z" class="st3"/>
				</g>
			</g>
		</g>
	</g>
</svg>
