<?xml version="1.0" encoding="UTF-8" standalone="no"?>
<!DOCTYPE svg PUBLIC "-//W3C//DTD SVG 1.1//EN" "http://www.w3.org/Graphics/SVG/1.1/DTD/svg11.dtd">
<!-- Generated by Microsoft Visio, SVG Export Authentication.svg Page-1 -->
<svg xmlns="http://www.w3.org/2000/svg" xmlns:xlink="http://www.w3.org/1999/xlink" xmlns:ev="http://www.w3.org/2001/xml-events"
		xmlns:v="http://schemas.microsoft.com/visio/2003/SVGExtensions/" width="10.0861in" height="2.70007in"
		viewBox="0 0 726.197 194.405" xml:space="preserve" color-interpolation-filters="sRGB" class="st15">
	<v:documentProperties v:langID="2057" v:metric="true" v:viewMarkup="false"/>

	<style type="text/css">
	<![CDATA[
		.st1 {fill:#0596ff;stroke:none;stroke-linecap:butt;stroke-width:2.55}
		.st2 {fill:#ffffff;stroke:none;stroke-linecap:butt;stroke-width:2.53942}
		.st3 {fill:#0596ff;stroke:none;stroke-linecap:butt;stroke-width:2.53942}
		.st4 {marker-end:url(#mrkr4-312);stroke:#000000;stroke-linecap:round;stroke-linejoin:round;stroke-width:1}
		.st5 {fill:#000000;fill-opacity:1;stroke:#000000;stroke-opacity:1;stroke-width:0.28409090909091}
		.st6 {fill:#ffffff;stroke:none;stroke-linecap:butt;stroke-width:7.2}
		.st7 {fill:#000000;font-family:Calibri;font-size:1.00001em}
		.st8 {stroke:#000000;stroke-linecap:round;stroke-linejoin:round;stroke-width:1}
		.st9 {fill:#ffffff;stroke:none;stroke-linecap:butt}
		.st10 {fill:#000000;font-family:Calibri;font-size:0.666664em}
		.st11 {marker-start:url(#mrkr4-330);stroke:#000000;stroke-linecap:round;stroke-linejoin:round;stroke-width:1}
		.st12 {fill:none;stroke:none;stroke-linecap:round;stroke-linejoin:round;stroke-width:0.75}
		.st13 {fill:#000000;font-family:Calibri;font-size:0.916672em}
		.st14 {font-size:1em}
		.st15 {fill:none;fill-rule:evenodd;font-size:12px;overflow:visible;stroke-linecap:square;stroke-miterlimit:3}
	]]>
	</style>

	<defs id="Markers">
		<g id="lend4">
			<path d="M 2 1 L 0 0 L 2 -1 L 2 1 " style="stroke:none"/>
		</g>
		<marker id="mrkr4-312" class="st5" v:arrowType="4" v:arrowSize="2" v:setback="7.04" refX="-7.04" orient="auto"
				markerUnits="strokeWidth" overflow="visible">
			<use xlink:href="#lend4" transform="scale(-3.52,-3.52) "/>
		</marker>
		<marker id="mrkr4-330" class="st5" v:arrowType="4" v:arrowSize="2" v:setback="6.68" refX="6.68" orient="auto"
				markerUnits="strokeWidth" overflow="visible">
			<use xlink:href="#lend4" transform="scale(3.52) "/>
		</marker>
	</defs>
	<g v:mID="0" v:index="1" v:groupContext="foregroundPage">
		<title>Page-1</title>
		<v:pageProperties v:drawingScale="0.0393701" v:pageScale="0.0393701" v:drawingUnits="24" v:shadowOffsetX="9"
				v:shadowOffsetY="-9"/>
		<v:layer v:name="Connector" v:index="0"/>
		<g id="group1000-1" transform="translate(2.55,-68.7879)" v:mID="1000" v:groupContext="group">
			<title>Sheet.1000</title>
			<g id="shape1001-2" v:mID="1001" v:groupContext="shape">
				<title>Sheet.1001</title>
				<path d="M38.27 118.95 C17.13 118.95 0 135.83 0 156.68 C0 177.52 17.13 194.41 38.27 194.41 C59.41 194.41 76.54 177.52
							 76.54 156.68 C76.51 135.86 59.38 118.98 38.27 118.95 ZM38.27 192.2 C18.37 192.2 2.23 176.3 2.23 156.68
							 C2.23 137.06 18.37 121.15 38.27 121.15 C58.17 121.15 74.3 137.06 74.3 156.68 C74.27 176.3 58.17 192.17
							 38.27 192.2 Z" class="st1"/>
			</g>
			<g id="group1002-4" transform="translate(11.7676,-21.285)" v:mID="1002" v:groupContext="group">
				<title>Sheet.1002</title>
				<g id="shape1003-5" v:mID="1003" v:groupContext="shape" transform="translate(14.5739,2.84217E-14)">
					<title>Sheet.1003</title>
					<path d="M20.19 194.41 L3.28 194.41 C1.47 194.41 0 192.77 0 190.76 C0 190.76 0 189.94 0 189.75 L0 189.72 L0 189.69
								 C0.03 188.87 0.29 187.24 0.89 186.29 C2.2 184.31 3.79 183.06 5.93 182.33 C6.35 182.14 8.07 181.48
								 11.74 181.48 C15.4 181.48 17.13 182.11 17.54 182.33 C19.68 183.02 21.27 184.28 22.58 186.29 C23.18
								 187.24 23.44 188.87 23.47 189.69 L23.47 189.72 L23.47 189.75 C23.47 189.94 23.47 190.76 23.47 190.76
								 C23.47 192.77 22 194.41 20.19 194.41 ZM2.23 189.72 C2.23 189.97 2.23 190.76 2.23 190.76 C2.23 191.54
								 2.71 192.2 3.28 192.2 L20.19 192.2 C20.76 192.2 21.24 191.54 21.24 190.76 C21.24 190.76 21.24 189.97
								 21.24 189.72 C21.21 189.03 20.98 187.93 20.7 187.52 C19.64 185.95 18.46 184.97 16.77 184.44 L16.61
								 184.38 C16.61 184.38 15.21 183.75 11.74 183.75 C8.23 183.75 6.86 184.38 6.82 184.38 L6.7 184.44
								 C5.01 185 3.79 185.95 2.77 187.52 C2.49 187.93 2.23 189.03 2.23 189.72 Z" class="st1"/>
				</g>
				<g id="shape1004-7" v:mID="1004" v:groupContext="shape" transform="translate(19.2299,-12.2931)">
					<title>Sheet.1004</title>
					<path d="M7.08 194.41 C2.46 194.41 0 189.09 0 185.26 C0 181.39 3.16 178.25 7.08 178.25 C10.97 178.25 14.16 181.39
								 14.16 185.26 C14.13 189 11.64 194.41 7.08 194.41 ZM7.08 180.45 C4.4 180.45 2.23 182.62 2.23 185.26
								 C2.23 188.15 4.08 192.2 7.08 192.2 C10.08 192.2 11.93 188.15 11.93 185.26 C11.9 182.58 9.73 180.45
								 7.08 180.45 Z" class="st1"/>
				</g>
				<g id="shape1005-9" v:mID="1005" v:groupContext="shape" transform="translate(0,-5.7221)">
					<title>Sheet.1005</title>
					<path d="M14.29 194.41 L3.16 194.41 C1.4 194.41 0 192.83 0 190.92 L0 190.32 C0 190.19 0 190.07 0 189.97 L0 189.94
								 L0 189.91 C0.03 189.12 0.26 187.61 0.86 186.7 C2.07 184.85 3.57 183.65 5.61 182.99 C6.03 182.8 7.65
								 182.21 11.07 182.21 C14.48 182.21 16.1 182.8 16.52 182.99 C18.21 183.56 19.52 184.47 20.63 185.85
								 L21.62 187.08 L20.12 187.58 C17.95 188.31 16.39 189.53 15.08 191.58 C14.86 191.92 14.61 192.64 14.48
								 193.46 L14.29 194.41 ZM2.23 189.97 C2.23 190.1 2.23 190.22 2.23 190.38 L2.23 190.95 C2.23 191.64
								 2.65 192.24 3.16 192.24 L12.44 192.24 C12.6 191.61 12.82 190.95 13.17 190.44 C14.45 188.53 15.91
								 187.14 17.79 186.23 C17.19 185.76 16.52 185.41 15.72 185.13 L15.56 185.07 C15.56 185.07 14.26 184.47
								 11.03 184.47 C7.78 184.47 6.51 185.07 6.47 185.07 L6.35 185.13 C4.78 185.63 3.67 186.51 2.71 187.96
								 C2.46 188.31 2.23 189.34 2.23 189.97 Z" class="st1"/>
				</g>
				<g id="shape1006-11" v:mID="1006" v:groupContext="shape" transform="translate(4.3371,-17.1977)">
					<title>Sheet.1006</title>
					<path d="M6.7 194.41 C2.33 194.41 0 189.41 0 185.76 C0 182.11 3 179.13 6.7 179.13 C10.36 179.13 13.36 182.11
								 13.36 185.76 C13.39 189.31 11 194.41 6.7 194.41 ZM6.7 181.36 C4.24 181.36 2.23 183.34 2.23 185.79
								 C2.23 188.46 3.92 192.24 6.7 192.24 C9.41 192.24 11.13 188.43 11.13 185.79 C11.16 183.34 9.15 181.36
								 6.7 181.36 Z" class="st1"/>
				</g>
				<g id="shape1007-13" v:mID="1007" v:groupContext="shape" transform="translate(31.0294,-5.7221)">
					<title>Sheet.1007</title>
					<path d="M18.46 194.41 L7.33 194.41 L7.18 193.49 C7.05 192.68 6.79 191.95 6.57 191.61 C5.23 189.56 3.67 188.34
								 1.5 187.61 L0 187.11 L0.99 185.88 C2.07 184.5 3.44 183.56 5.1 183.02 C5.52 182.84 7.14 182.24 10.56
								 182.24 C13.97 182.24 15.59 182.84 16.01 183.02 C18.02 183.68 19.52 184.88 20.76 186.73 C21.33 187.61
								 21.59 189.12 21.62 189.94 L21.62 189.97 L21.62 190 C21.62 190.1 21.62 190.22 21.62 190.35 L21.62
								 190.95 C21.62 192.83 20.19 194.41 18.46 194.41 ZM9.15 192.2 L18.43 192.2 C18.94 192.2 19.36 191.61
								 19.36 190.92 L19.36 190.35 C19.36 190.22 19.36 190.07 19.36 189.94 C19.33 189.31 19.13 188.31 18.88
								 187.93 C17.92 186.48 16.81 185.6 15.24 185.07 L15.08 185 C15.08 185 13.78 184.41 10.56 184.41 C7.3
								 184.41 6.03 185 6 185 L5.84 185.07 C5.04 185.32 4.37 185.66 3.76 186.17 C5.64 187.11 7.14 188.46
								 8.39 190.41 C8.77 190.92 8.99 191.58 9.15 192.2 Z" class="st1"/>
				</g>
				<g id="shape1008-15" v:mID="1008" v:groupContext="shape" transform="translate(34.9201,-17.1977)">
					<title>Sheet.1008</title>
					<path d="M6.67 194.41 C2.36 194.41 0 189.31 0 185.76 C0 182.11 3 179.13 6.67 179.13 C10.36 179.13 13.36 182.11
								 13.36 185.76 C13.36 189.41 11.03 194.41 6.67 194.41 ZM6.67 181.36 C4.21 181.36 2.23 183.34 2.23
								 185.79 C2.23 188.4 3.95 192.24 6.67 192.24 C9.41 192.24 11.13 188.49 11.13 185.79 C11.13 183.34
								 9.12 181.36 6.67 181.36 Z" class="st1"/>
				</g>
			</g>
		</g>
		<g id="group1009-17" transform="translate(471.76,-20.8773)" v:mID="1009" v:groupContext="group">
			<title>Sheet.1009</title>
			<g id="shape1010-18" v:mID="1010" v:groupContext="shape" transform="translate(0.0381098,2.84217E-14)">
				<title>White</title>
				<path d="M38.11 119.26 C17.09 119.26 0 136.11 0 156.83 C0 177.56 17.09 194.41 38.11 194.41 C59.13 194.41 76.22 177.56
							 76.22 156.83 C76.22 136.11 59.13 119.26 38.11 119.26 ZM38.11 192.21 C18.32 192.21 2.22 176.34 2.22 156.83
							 C2.22 137.33 18.32 121.45 38.11 121.45 C57.9 121.45 74 137.33 74 156.83 C74 176.34 57.9 192.21 38.11
							 192.21 Z" class="st2"/>
			</g>
			<g id="shape1011-20" v:mID="1011" v:groupContext="shape">
				<title>Blue</title>
				<path d="M38.11 119.26 C17.09 119.26 0 136.11 0 156.83 C0 177.56 17.09 194.41 38.11 194.41 C59.13 194.41 76.22 177.56
							 76.22 156.83 C76.22 136.11 59.13 119.26 38.11 119.26 ZM38.11 192.21 C18.32 192.21 2.22 176.34 2.22 156.83
							 C2.22 137.33 18.32 121.45 38.11 121.45 C57.9 121.45 74 137.33 74 156.83 C74 176.34 57.9 192.21 38.11
							 192.21 Z" class="st3"/>
			</g>
			<g id="group1012-22" transform="translate(17.3177,-16.7945)" v:mID="1012" v:groupContext="group">
				<title>_126-Server</title>
				<g id="shape1013-23" v:mID="1013" v:groupContext="shape" transform="translate(0,-26.2031)">
					<title>Sheet.1013</title>
					<path d="M40.82 194.41 L0.95 194.41 C0.43 194.41 0 193.99 0 193.47 L0 180.36 C0 179.84 0.43 179.42 0.95 179.42
								 L40.82 179.42 C41.35 179.42 41.77 179.84 41.77 180.36 L41.77 193.46 C41.77 193.99 41.35 194.41 40.82
								 194.41 ZM1.91 192.53 L39.87 192.53 L39.87 181.3 L1.91 181.3 L1.91 192.53 Z" class="st3"/>
				</g>
				<g id="shape1014-25" v:mID="1014" v:groupContext="shape" transform="translate(0,-13.1031)">
					<title>Sheet.1014</title>
					<path d="M40.82 194.41 L0.95 194.41 C0.43 194.41 0 193.99 0 193.47 L0 180.37 C0 179.85 0.43 179.43 0.95 179.43
								 L40.82 179.43 C41.35 179.43 41.77 179.85 41.77 180.37 L41.77 193.47 C41.77 193.99 41.35 194.41 40.82
								 194.41 ZM1.91 192.53 L39.87 192.53 L39.87 181.31 L1.91 181.31 L1.91 192.53 Z" class="st3"/>
				</g>
				<g id="shape1015-27" v:mID="1015" v:groupContext="shape">
					<title>Sheet.1015</title>
					<path d="M40.82 194.41 L0.95 194.41 C0.43 194.41 0 193.99 0 193.47 L0 180.37 C0 179.85 0.43 179.43 0.95 179.43
								 L40.82 179.43 C41.35 179.43 41.77 179.85 41.77 180.37 L41.77 193.47 C41.77 193.98 41.35 194.41 40.82
								 194.41 ZM1.91 192.53 L39.87 192.53 L39.87 181.31 L1.91 181.31 L1.91 192.53 Z" class="st3"/>
				</g>
				<g id="shape1016-29" v:mID="1016" v:groupContext="shape" transform="translate(4.94157,-32.753)">
					<title>Sheet.1016</title>
					<rect x="0" y="192.527" width="7.97447" height="1.87858" class="st3"/>
				</g>
				<g id="shape1017-31" v:mID="1017" v:groupContext="shape" transform="translate(6.26906,-19.6531)">
					<title>Sheet.1017</title>
					<rect x="0" y="192.527" width="23.9202" height="1.87858" class="st3"/>
				</g>
				<g id="shape1018-33" v:mID="1018" v:groupContext="shape" transform="translate(32.8474,-19.6531)">
					<title>Sheet.1018</title>
					<rect x="0" y="192.527" width="2.65816" height="1.87858" class="st3"/>
				</g>
				<g id="shape1019-35" v:mID="1019" v:groupContext="shape" transform="translate(32.8474,-6.55311)">
					<title>Sheet.1019</title>
					<rect x="0" y="192.527" width="2.65816" height="1.87858" class="st3"/>
				</g>
				<g id="shape1020-37" v:mID="1020" v:groupContext="shape" transform="translate(27.5311,-6.55311)">
					<title>Sheet.1020</title>
					<rect x="0" y="192.527" width="2.65816" height="1.87858" class="st3"/>
				</g>
				<g id="shape1021-39" v:mID="1021" v:groupContext="shape" transform="translate(22.2148,-6.55311)">
					<title>Sheet.1021</title>
					<rect x="0" y="192.527" width="2.65816" height="1.87858" class="st3"/>
				</g>
				<g id="shape1022-41" v:mID="1022" v:groupContext="shape" transform="translate(6.26906,-6.55311)">
					<title>Sheet.1022</title>
					<rect x="0" y="192.527" width="13.2876" height="1.87858" class="st3"/>
				</g>
				<g id="shape1023-43" v:mID="1023" v:groupContext="shape" transform="translate(15.571,-32.753)">
					<title>Sheet.1023</title>
					<rect x="0" y="192.527" width="2.65816" height="1.87858" class="st3"/>
				</g>
				<g id="shape1024-45" v:mID="1024" v:groupContext="shape" transform="translate(20.8873,-32.753)">
					<title>Sheet.1024</title>
					<rect x="0" y="192.527" width="2.65816" height="1.87858" class="st3"/>
				</g>
				<g id="shape1025-47" v:mID="1025" v:groupContext="shape" transform="translate(26.2036,-32.753)">
					<title>Sheet.1025</title>
					<rect x="0" y="192.527" width="2.65816" height="1.87858" class="st3"/>
				</g>
				<g id="shape1026-49" v:mID="1026" v:groupContext="shape" transform="translate(31.5168,-32.753)">
					<title>Sheet.1026</title>
					<rect x="0" y="192.527" width="2.65816" height="1.87858" class="st3"/>
				</g>
			</g>
		</g>
		<g id="group1027-51" transform="translate(611.553,-116.399)" v:mID="1027" v:groupContext="group">
			<title>Sheet.1027</title>
			<g id="shape1028-52" v:mID="1028" v:groupContext="shape">
				<title>Sheet.1028</title>
				<path d="M38.27 118.95 C17.13 118.95 0 135.83 0 156.68 C0 177.52 17.13 194.41 38.27 194.41 C59.41 194.41 76.54 177.52
							 76.54 156.68 C76.51 135.86 59.38 118.98 38.27 118.95 ZM38.27 192.2 C18.37 192.2 2.23 176.3 2.23 156.68
							 C2.23 137.06 18.37 121.15 38.27 121.15 C58.17 121.15 74.3 137.06 74.3 156.68 C74.27 176.3 58.17 192.17
							 38.27 192.2 Z" class="st1"/>
			</g>
			<g id="group1029-54" transform="translate(13.0751,-14.3367)" v:mID="1029" v:groupContext="group">
				<title>Sheet.1029</title>
				<g id="shape1030-55" v:mID="1030" v:groupContext="shape" transform="translate(12.533,2.84217E-14)">
					<title>Sheet.1030</title>
					<path d="M25.45 194.41 L0 194.41 L0 147.78 L25.45 147.78 L25.45 194.41 ZM2.23 192.2 L23.22 192.2 L23.22 149.98
								 L2.23 149.98 L2.23 192.2 Z" class="st1"/>
				</g>
				<g id="shape1031-57" v:mID="1031" v:groupContext="shape" transform="translate(16.3279,-38.1054)">
					<title>Sheet.1031</title>
					<path d="M16.71 194.41 L1.12 194.41 C0.51 194.41 0 193.9 0 193.3 C0 192.71 0.51 192.2 1.12 192.2 L16.68 192.2
								 C17.28 192.2 17.79 192.71 17.79 193.3 C17.79 193.9 17.32 194.41 16.71 194.41 Z" class="st1"/>
				</g>
				<g id="shape1032-59" v:mID="1032" v:groupContext="shape" transform="translate(16.3279,-33.7353)">
					<title>Sheet.1032</title>
					<path d="M16.71 194.41 L1.12 194.41 C0.51 194.41 0 193.9 0 193.3 C0 192.71 0.51 192.2 1.12 192.2 L16.68 192.2
								 C17.28 192.2 17.79 192.71 17.79 193.3 C17.79 193.9 17.32 194.41 16.71 194.41 Z" class="st1"/>
				</g>
				<g id="shape1033-61" v:mID="1033" v:groupContext="shape" transform="translate(16.3279,-29.3336)">
					<title>Sheet.1033</title>
					<path d="M16.71 194.41 L1.12 194.41 C0.51 194.41 0 193.9 0 193.3 C0 192.71 0.51 192.2 1.12 192.2 L16.68 192.2
								 C17.28 192.2 17.79 192.71 17.79 193.3 C17.79 193.9 17.32 194.41 16.71 194.41 Z" class="st1"/>
				</g>
				<g id="shape1034-63" v:mID="1034" v:groupContext="shape" transform="translate(35.7492,-5.65922)">
					<title>Sheet.1034</title>
					<path d="M14.77 194.41 L1.12 194.41 C0.51 194.41 0 193.9 0 193.3 C0 192.71 0.51 192.2 1.12 192.2 L12.53 192.2
								 L12.53 161.27 L1.12 161.27 C0.51 161.27 0 160.76 0 160.17 C0 159.57 0.51 159.07 1.12 159.07 L14.77
								 159.07 L14.77 194.41 Z" class="st1"/>
				</g>
				<g id="shape1035-65" v:mID="1035" v:groupContext="shape" transform="translate(36.5784,-33.7353)">
					<title>Sheet.1035</title>
					<path d="M9.09 194.41 L1.12 194.41 C0.51 194.41 0 193.9 0 193.3 C0 192.71 0.51 192.2 1.12 192.2 L9.09 192.2 C9.69
								 192.2 10.2 192.71 10.2 193.3 C10.2 193.9 9.73 194.41 9.09 194.41 Z" class="st1"/>
				</g>
				<g id="shape1036-67" v:mID="1036" v:groupContext="shape" transform="translate(36.5784,-30.1511)">
					<title>Sheet.1036</title>
					<path d="M9.09 194.41 L1.12 194.41 C0.51 194.41 0 193.9 0 193.3 C0 192.71 0.51 192.2 1.12 192.2 L9.09 192.2 C9.69
								 192.2 10.2 192.71 10.2 193.3 C10.2 193.9 9.73 194.41 9.09 194.41 Z" class="st1"/>
				</g>
				<g id="shape1037-69" v:mID="1037" v:groupContext="shape" transform="translate(36.5784,-26.5355)">
					<title>Sheet.1037</title>
					<path d="M9.09 194.41 L1.12 194.41 C0.51 194.41 0 193.9 0 193.3 C0 192.71 0.51 192.2 1.12 192.2 L9.09 192.2 C9.69
								 192.2 10.2 192.71 10.2 193.3 C10.2 193.9 9.73 194.41 9.09 194.41 Z" class="st1"/>
				</g>
				<g id="shape1038-71" v:mID="1038" v:groupContext="shape" transform="translate(0,-5.65922)">
					<title>Sheet.1038</title>
					<path d="M13.65 194.41 L0 194.41 L0 159.07 L13.65 159.07 C14.26 159.07 14.77 159.57 14.77 160.17 C14.77 160.76
								 14.26 161.27 13.65 161.27 L2.23 161.27 L2.23 192.2 L13.65 192.2 C14.26 192.2 14.77 192.71 14.77
								 193.3 C14.77 193.9 14.26 194.41 13.65 194.41 Z" class="st1"/>
				</g>
				<g id="shape1039-73" v:mID="1039" v:groupContext="shape" transform="translate(3.69929,-33.7353)">
					<title>Sheet.1039</title>
					<path d="M9.09 194.41 L1.12 194.41 C0.51 194.41 0 193.9 0 193.3 C0 192.71 0.51 192.2 1.12 192.2 L9.09 192.2 C9.69
								 192.2 10.2 192.71 10.2 193.3 C10.2 193.9 9.69 194.41 9.09 194.41 Z" class="st1"/>
				</g>
				<g id="shape1040-75" v:mID="1040" v:groupContext="shape" transform="translate(3.69929,-30.1511)">
					<title>Sheet.1040</title>
					<path d="M9.09 194.41 L1.12 194.41 C0.51 194.41 0 193.9 0 193.3 C0 192.71 0.51 192.2 1.12 192.2 L9.09 192.2 C9.69
								 192.2 10.2 192.71 10.2 193.3 C10.2 193.9 9.69 194.41 9.09 194.41 Z" class="st1"/>
				</g>
				<g id="shape1041-77" v:mID="1041" v:groupContext="shape" transform="translate(3.69929,-26.5355)">
					<title>Sheet.1041</title>
					<path d="M9.09 194.41 L1.12 194.41 C0.51 194.41 0 193.9 0 193.3 C0 192.71 0.51 192.2 1.12 192.2 L9.09 192.2 C9.69
								 192.2 10.2 192.71 10.2 193.3 C10.2 193.9 9.69 194.41 9.09 194.41 Z" class="st1"/>
				</g>
			</g>
		</g>
		<g id="group1042-79" transform="translate(331.687,-20.8773)" v:mID="1042" v:groupContext="group">
			<title>Sheet.1042</title>
			<g id="shape1043-80" v:mID="1043" v:groupContext="shape">
				<title>Sheet.1043</title>
				<path d="M38.27 118.95 C17.13 118.95 0 135.83 0 156.68 C0 177.52 17.13 194.41 38.27 194.41 C59.41 194.41 76.54 177.52
							 76.54 156.68 C76.51 135.86 59.38 118.98 38.27 118.95 ZM38.27 192.2 C18.37 192.2 2.23 176.3 2.23 156.68
							 C2.23 137.06 18.37 121.15 38.27 121.15 C58.17 121.15 74.3 137.06 74.3 156.68 C74.27 176.3 58.17 192.17
							 38.27 192.2 Z" class="st1"/>
			</g>
			<g id="shape1044-82" v:mID="1044" v:groupContext="shape" transform="translate(10.8093,-20.3516)">
				<title>Sheet.1044</title>
				<path d="M43.34 194.41 L11.32 194.41 C5.07 194.41 0 189.41 0 183.24 C0 177.9 3.83 173.37 9.06 172.3 C9.5 169.82 11.07
							 167.68 13.33 166.49 C15.59 165.29 18.21 165.17 20.51 166.11 C24.11 161.24 30.17 159.04 36.2 160.51 C42.32
							 161.99 46.69 166.8 47.45 172.9 C51.79 174.57 54.63 178.65 54.63 183.28 C54.66 189.41 49.56 194.41 43.34
							 194.41 ZM17.35 167.71 C16.33 167.71 15.34 167.96 14.38 168.47 C12.5 169.47 11.32 171.3 11.16 173.37
							 L11.1 174.28 L10.17 174.41 C5.61 174.94 2.2 178.78 2.2 183.28 C2.2 188.21 6.28 192.24 11.29 192.24 L43.28
							 192.24 C48.28 192.24 52.36 188.21 52.36 183.28 C52.36 179.35 49.81 175.92 46.02 174.76 L45.32 174.54
							 L45.25 173.81 C44.81 168.37 41.01 164 35.59 162.68 C31.28 161.64 25.38 162.52 21.78 168.15 L21.21 169.03
							 L20.28 168.53 C19.42 168 18.4 167.71 17.35 167.71 Z" class="st1"/>
			</g>
		</g>
		<g id="group1045-84" transform="translate(124.944,-68.7879)" v:mID="1045" v:groupContext="group">
			<title>Sheet.1045</title>
			<g id="shape1046-85" v:mID="1046" v:groupContext="shape" transform="translate(0.0381098,2.84217E-14)">
				<title>White</title>
				<path d="M38.11 119.26 C17.09 119.26 0 136.11 0 156.83 C0 177.56 17.09 194.41 38.11 194.41 C59.13 194.41 76.22 177.56
							 76.22 156.83 C76.22 136.11 59.13 119.26 38.11 119.26 ZM38.11 192.21 C18.32 192.21 2.22 176.34 2.22 156.83
							 C2.22 137.33 18.32 121.45 38.11 121.45 C57.9 121.45 74 137.33 74 156.83 C74 176.34 57.9 192.21 38.11
							 192.21 Z" class="st2"/>
			</g>
			<g id="shape1047-87" v:mID="1047" v:groupContext="shape">
				<title>Blue</title>
				<path d="M38.11 119.26 C17.09 119.26 0 136.11 0 156.83 C0 177.56 17.09 194.41 38.11 194.41 C59.13 194.41 76.22 177.56
							 76.22 156.83 C76.22 136.11 59.13 119.26 38.11 119.26 ZM38.11 192.21 C18.32 192.21 2.22 176.34 2.22 156.83
							 C2.22 137.33 18.32 121.45 38.11 121.45 C57.9 121.45 74 137.33 74 156.83 C74 176.34 57.9 192.21 38.11
							 192.21 Z" class="st3"/>
			</g>
			<g id="group1048-89" transform="translate(15.1804,-24.6282)" v:mID="1048" v:groupContext="group">
				<title>Sheet.1048</title>
				<g id="group1049-90" v:mID="1049" v:groupContext="group">
					<title>Sheet.1049</title>
					<g id="shape1050-91" v:mID="1050" v:groupContext="shape" transform="translate(0.476372,-0.472776)">
						<title>Sheet.1050</title>
						<path d="M42.39 194.41 L2.58 194.41 C1.16 194.41 0 193.26 0 191.86 L0 165.89 C0 164.49 1.16 163.35 2.58 163.35
									 L42.39 163.35 C43.82 163.35 44.98 164.49 44.98 165.89 L44.98 191.86 C44.98 193.26 43.82 194.41
									 42.39 194.41 ZM2.58 164.4 C1.74 164.4 1.06 165.07 1.06 165.89 L1.06 191.86 C1.06 192.68 1.74
									 193.35 2.58 193.35 L42.39 193.35 C43.23 193.35 43.91 192.68 43.91 191.86 L43.91 165.89 C43.91
									 165.07 43.23 164.4 42.39 164.4 L2.58 164.4 Z" class="st3"/>
					</g>
					<g id="shape1051-93" v:mID="1051" v:groupContext="shape">
						<title>Sheet.1051</title>
						<path d="M42.87 194.41 L3.06 194.41 C1.37 194.41 0 193.05 0 191.39 L0 165.42 C0 163.76 1.37 162.4 3.06 162.4
									 L42.87 162.4 C44.56 162.4 45.93 163.76 45.93 165.42 L45.93 191.38 C45.93 193.05 44.56 194.41
									 42.87 194.41 ZM3.06 163.35 C1.9 163.35 0.95 164.28 0.95 165.43 L0.95 191.39 C0.95 192.53 1.9
									 193.47 3.06 193.47 L42.87 193.47 C44.03 193.47 44.98 192.53 44.98 191.39 L44.98 165.42 C44.98
									 164.28 44.03 163.34 42.87 163.34 L3.06 163.34 L3.06 163.35 ZM42.87 193.35 L3.06 193.35 C1.96
									 193.35 1.06 192.47 1.06 191.39 L1.06 165.42 C1.06 164.34 1.96 163.46 3.06 163.46 L42.87 163.46
									 C43.97 163.46 44.86 164.34 44.86 165.42 L44.86 191.38 C44.86 192.47 43.97 193.35 42.87 193.35
									 ZM3.06 164.39 C2.48 164.39 2.02 164.86 2.02 165.42 L2.02 191.38 C2.02 191.95 2.48 192.41 3.06
									 192.41 L42.87 192.41 C43.45 192.41 43.91 191.95 43.91 191.38 L43.91 165.42 C43.91 164.86 43.45
									 164.39 42.87 164.39 L3.06 164.39 Z" class="st3"/>
					</g>
				</g>
			</g>
			<g id="shape1052-95" v:mID="1052" v:groupContext="shape" transform="translate(16.1871,-29.9133)">
				<title>Sheet.1052</title>
				<rect x="0" y="193.353" width="43.912" height="1.052" class="st3"/>
			</g>
			<g id="shape1053-97" v:mID="1053" v:groupContext="shape" transform="translate(30.4846,-18.7263)">
				<title>Sheet.1053</title>
				<path d="M4.33 188.03 L10.86 188.03 L13.49 193.36 L1.71 193.36 L4.33 188.03 ZM3.66 186.98 L0 194.41 L15.19 194.41
							 L11.53 186.98 L3.66 186.98 Z" class="st3"/>
			</g>
			<g id="shape1054-99" v:mID="1054" v:groupContext="shape" transform="translate(28.4394,-18.7294)">
				<title>Sheet.1054</title>
				<rect x="0" y="193.356" width="19.4074" height="1.04887" class="st3"/>
			</g>
			<g id="group1055-101" transform="translate(18.0704,-32.2959)" v:mID="1055" v:groupContext="group">
				<title>Sheet.1055</title>
				<g id="shape1056-102" v:mID="1056" v:groupContext="shape">
					<title>Sheet.1056</title>
					<path d="M39.22 194.41 L0.92 194.41 C0.42 194.41 0 194 0 193.5 L0 173.83 C0 173.34 0.41 172.93 0.92 172.93 L39.22
								 172.93 C39.73 172.93 40.14 173.34 40.14 173.83 L40.14 193.5 C40.15 194 39.73 194.41 39.22 194.41
								 ZM1.07 193.35 L39.08 193.35 L39.08 173.98 L1.07 173.98 L1.07 193.35 Z" class="st3"/>
				</g>
			</g>
			<g id="shape1057-104" v:mID="1057" v:groupContext="shape" transform="translate(23.5233,-47.8506)">
				<title>Sheet.1057</title>
				<rect x="0" y="193.356" width="1.27033" height="1.04887" class="st3"/>
			</g>
			<g id="shape1058-106" v:mID="1058" v:groupContext="shape" transform="translate(24.7936,-47.8506)">
				<title>Sheet.1058</title>
				<rect x="0" y="193.356" width="1.27033" height="1.04887" class="st3"/>
			</g>
			<g id="shape1059-108" v:mID="1059" v:groupContext="shape" transform="translate(27.3374,-47.8506)">
				<title>Sheet.1059</title>
				<rect x="0" y="193.356" width="1.27033" height="1.04887" class="st3"/>
			</g>
			<g id="shape1060-110" v:mID="1060" v:groupContext="shape" transform="translate(28.6077,-47.8506)">
				<title>Sheet.1060</title>
				<rect x="0" y="193.356" width="1.27033" height="1.04887" class="st3"/>
			</g>
			<g id="shape1061-112" v:mID="1061" v:groupContext="shape" transform="translate(29.8781,-47.8506)">
				<title>Sheet.1061</title>
				<rect x="0" y="193.356" width="1.27033" height="1.04887" class="st3"/>
			</g>
			<g id="shape1062-114" v:mID="1062" v:groupContext="shape" transform="translate(31.1516,-47.8506)">
				<title>Sheet.1062</title>
				<rect x="0" y="193.356" width="1.27033" height="1.04887" class="st3"/>
			</g>
			<g id="shape1063-116" v:mID="1063" v:groupContext="shape" transform="translate(32.4219,-47.8506)">
				<title>Sheet.1063</title>
				<rect x="0" y="193.356" width="1.27033" height="1.04887" class="st3"/>
			</g>
			<g id="shape1064-118" v:mID="1064" v:groupContext="shape" transform="translate(34.9657,-47.8506)">
				<title>Sheet.1064</title>
				<rect x="0" y="193.356" width="1.27033" height="1.04887" class="st3"/>
			</g>
			<g id="shape1065-120" v:mID="1065" v:groupContext="shape" transform="translate(37.5095,-47.8506)">
				<title>Sheet.1065</title>
				<rect x="0" y="193.356" width="1.27033" height="1.04887" class="st3"/>
			</g>
			<g id="shape1066-122" v:mID="1066" v:groupContext="shape" transform="translate(38.7799,-47.8506)">
				<title>Sheet.1066</title>
				<rect x="0" y="193.356" width="1.2735" height="1.04887" class="st3"/>
			</g>
			<g id="shape1067-124" v:mID="1067" v:groupContext="shape" transform="translate(41.3237,-47.8506)">
				<title>Sheet.1067</title>
				<rect x="0" y="193.356" width="1.27033" height="1.04887" class="st3"/>
			</g>
			<g id="shape1068-126" v:mID="1068" v:groupContext="shape" transform="translate(42.594,-47.8506)">
				<title>Sheet.1068</title>
				<rect x="0" y="193.356" width="1.2735" height="1.04887" class="st3"/>
			</g>
			<g id="shape1069-128" v:mID="1069" v:groupContext="shape" transform="translate(45.1378,-47.8506)">
				<title>Sheet.1069</title>
				<rect x="0" y="193.356" width="1.27033" height="1.04887" class="st3"/>
			</g>
			<g id="shape1070-130" v:mID="1070" v:groupContext="shape" transform="translate(47.6785,-47.8506)">
				<title>Sheet.1070</title>
				<rect x="0" y="193.356" width="1.27033" height="1.04887" class="st3"/>
			</g>
			<g id="shape1071-132" v:mID="1071" v:groupContext="shape" transform="translate(50.2223,-47.8506)">
				<title>Sheet.1071</title>
				<rect x="0" y="193.356" width="1.2735" height="1.04887" class="st3"/>
			</g>
			<g id="shape1072-134" v:mID="1072" v:groupContext="shape" transform="translate(51.4958,-47.8506)">
				<title>Sheet.1072</title>
				<rect x="0" y="193.356" width="1.27033" height="1.04887" class="st3"/>
			</g>
			<g id="shape1073-136" v:mID="1073" v:groupContext="shape" transform="translate(23.5233,-45.7152)">
				<title>Sheet.1073</title>
				<rect x="0" y="193.356" width="1.27033" height="1.04887" class="st3"/>
			</g>
			<g id="shape1074-138" v:mID="1074" v:groupContext="shape" transform="translate(26.0639,-45.7152)">
				<title>Sheet.1074</title>
				<rect x="0" y="193.356" width="1.2735" height="1.04887" class="st3"/>
			</g>
			<g id="shape1075-140" v:mID="1075" v:groupContext="shape" transform="translate(28.6077,-45.7152)">
				<title>Sheet.1075</title>
				<rect x="0" y="193.356" width="1.27033" height="1.04887" class="st3"/>
			</g>
			<g id="shape1076-142" v:mID="1076" v:groupContext="shape" transform="translate(31.1516,-45.7152)">
				<title>Sheet.1076</title>
				<rect x="0" y="193.356" width="1.27033" height="1.04887" class="st3"/>
			</g>
			<g id="shape1077-144" v:mID="1077" v:groupContext="shape" transform="translate(33.6922,-45.7152)">
				<title>Sheet.1077</title>
				<rect x="0" y="193.356" width="1.2735" height="1.04887" class="st3"/>
			</g>
			<g id="shape1078-146" v:mID="1078" v:groupContext="shape" transform="translate(34.9657,-45.7152)">
				<title>Sheet.1078</title>
				<rect x="0" y="193.356" width="1.27033" height="1.04887" class="st3"/>
			</g>
			<g id="shape1079-148" v:mID="1079" v:groupContext="shape" transform="translate(36.236,-45.7152)">
				<title>Sheet.1079</title>
				<rect x="0" y="193.356" width="1.27033" height="1.04887" class="st3"/>
			</g>
			<g id="shape1080-150" v:mID="1080" v:groupContext="shape" transform="translate(38.7799,-45.7152)">
				<title>Sheet.1080</title>
				<rect x="0" y="193.356" width="1.2735" height="1.04887" class="st3"/>
			</g>
			<g id="shape1081-152" v:mID="1081" v:groupContext="shape" transform="translate(40.0502,-45.7152)">
				<title>Sheet.1081</title>
				<rect x="0" y="193.356" width="1.27033" height="1.04887" class="st3"/>
			</g>
			<g id="shape1082-154" v:mID="1082" v:groupContext="shape" transform="translate(42.594,-45.7152)">
				<title>Sheet.1082</title>
				<rect x="0" y="193.356" width="1.2735" height="1.04887" class="st3"/>
			</g>
			<g id="shape1083-156" v:mID="1083" v:groupContext="shape" transform="translate(45.1378,-45.7152)">
				<title>Sheet.1083</title>
				<rect x="0" y="193.356" width="1.27033" height="1.04887" class="st3"/>
			</g>
			<g id="shape1084-158" v:mID="1084" v:groupContext="shape" transform="translate(47.6785,-45.7152)">
				<title>Sheet.1084</title>
				<rect x="0" y="193.356" width="1.27033" height="1.04887" class="st3"/>
			</g>
			<g id="shape1085-160" v:mID="1085" v:groupContext="shape" transform="translate(48.952,-45.7152)">
				<title>Sheet.1085</title>
				<rect x="0" y="193.356" width="1.27033" height="1.04887" class="st3"/>
			</g>
			<g id="shape1086-162" v:mID="1086" v:groupContext="shape" transform="translate(51.4958,-45.7152)">
				<title>Sheet.1086</title>
				<rect x="0" y="193.356" width="1.27033" height="1.04887" class="st3"/>
			</g>
			<g id="shape1087-164" v:mID="1087" v:groupContext="shape" transform="translate(51.4958,-43.5799)">
				<title>Sheet.1087</title>
				<rect x="0" y="193.356" width="1.27033" height="1.04887" class="st3"/>
			</g>
			<g id="shape1088-166" v:mID="1088" v:groupContext="shape" transform="translate(48.952,-43.5799)">
				<title>Sheet.1088</title>
				<rect x="0" y="193.356" width="1.27033" height="1.04887" class="st3"/>
			</g>
			<g id="shape1089-168" v:mID="1089" v:groupContext="shape" transform="translate(46.4082,-43.5799)">
				<title>Sheet.1089</title>
				<rect x="0" y="193.356" width="1.2735" height="1.04887" class="st3"/>
			</g>
			<g id="shape1090-170" v:mID="1090" v:groupContext="shape" transform="translate(43.8643,-43.5799)">
				<title>Sheet.1090</title>
				<rect x="0" y="193.356" width="1.27033" height="1.04887" class="st3"/>
			</g>
			<g id="shape1091-172" v:mID="1091" v:groupContext="shape" transform="translate(41.3237,-43.5799)">
				<title>Sheet.1091</title>
				<rect x="0" y="193.356" width="1.27033" height="1.04887" class="st3"/>
			</g>
			<g id="shape1092-174" v:mID="1092" v:groupContext="shape" transform="translate(38.7799,-43.5799)">
				<title>Sheet.1092</title>
				<rect x="0" y="193.356" width="1.2735" height="1.04887" class="st3"/>
			</g>
			<g id="shape1093-176" v:mID="1093" v:groupContext="shape" transform="translate(36.236,-43.5799)">
				<title>Sheet.1093</title>
				<rect x="0" y="193.356" width="1.27033" height="1.04887" class="st3"/>
			</g>
			<g id="shape1094-178" v:mID="1094" v:groupContext="shape" transform="translate(34.9657,-43.5799)">
				<title>Sheet.1094</title>
				<rect x="0" y="193.356" width="1.27033" height="1.04887" class="st3"/>
			</g>
			<g id="shape1095-180" v:mID="1095" v:groupContext="shape" transform="translate(32.4219,-43.5799)">
				<title>Sheet.1095</title>
				<rect x="0" y="193.356" width="1.27033" height="1.04887" class="st3"/>
			</g>
			<g id="shape1096-182" v:mID="1096" v:groupContext="shape" transform="translate(29.8781,-43.5799)">
				<title>Sheet.1096</title>
				<rect x="0" y="193.356" width="1.27033" height="1.04887" class="st3"/>
			</g>
			<g id="shape1097-184" v:mID="1097" v:groupContext="shape" transform="translate(26.0639,-43.5799)">
				<title>Sheet.1097</title>
				<rect x="0" y="193.356" width="1.2735" height="1.04887" class="st3"/>
			</g>
			<g id="shape1098-186" v:mID="1098" v:groupContext="shape" transform="translate(23.5233,-43.5799)">
				<title>Sheet.1098</title>
				<rect x="0" y="193.356" width="1.27033" height="1.04887" class="st3"/>
			</g>
			<g id="shape1099-188" v:mID="1099" v:groupContext="shape" transform="translate(23.5233,-41.4446)">
				<title>Sheet.1099</title>
				<rect x="0" y="193.356" width="1.27033" height="1.04887" class="st3"/>
			</g>
			<g id="shape1100-190" v:mID="1100" v:groupContext="shape" transform="translate(26.0639,-41.4446)">
				<title>Sheet.1100</title>
				<rect x="0" y="193.356" width="1.2735" height="1.04887" class="st3"/>
			</g>
			<g id="shape1101-192" v:mID="1101" v:groupContext="shape" transform="translate(27.3374,-41.4446)">
				<title>Sheet.1101</title>
				<rect x="0" y="193.356" width="1.27033" height="1.04887" class="st3"/>
			</g>
			<g id="shape1102-194" v:mID="1102" v:groupContext="shape" transform="translate(29.8781,-41.4446)">
				<title>Sheet.1102</title>
				<rect x="0" y="193.356" width="1.27033" height="1.04887" class="st3"/>
			</g>
			<g id="shape1103-196" v:mID="1103" v:groupContext="shape" transform="translate(31.1516,-41.4446)">
				<title>Sheet.1103</title>
				<rect x="0" y="193.356" width="1.27033" height="1.04887" class="st3"/>
			</g>
			<g id="shape1104-198" v:mID="1104" v:groupContext="shape" transform="translate(36.236,-41.4446)">
				<title>Sheet.1104</title>
				<rect x="0" y="193.356" width="1.27033" height="1.04887" class="st3"/>
			</g>
			<g id="shape1105-200" v:mID="1105" v:groupContext="shape" transform="translate(37.5095,-41.4446)">
				<title>Sheet.1105</title>
				<rect x="0" y="193.356" width="1.27033" height="1.04887" class="st3"/>
			</g>
			<g id="shape1106-202" v:mID="1106" v:groupContext="shape" transform="translate(40.0502,-41.4446)">
				<title>Sheet.1106</title>
				<rect x="0" y="193.356" width="1.27033" height="1.04887" class="st3"/>
			</g>
			<g id="shape1107-204" v:mID="1107" v:groupContext="shape" transform="translate(42.594,-41.4446)">
				<title>Sheet.1107</title>
				<rect x="0" y="193.356" width="1.2735" height="1.04887" class="st3"/>
			</g>
			<g id="shape1108-206" v:mID="1108" v:groupContext="shape" transform="translate(45.1378,-41.4446)">
				<title>Sheet.1108</title>
				<rect x="0" y="193.356" width="1.27033" height="1.04887" class="st3"/>
			</g>
			<g id="shape1109-208" v:mID="1109" v:groupContext="shape" transform="translate(47.6785,-41.4446)">
				<title>Sheet.1109</title>
				<rect x="0" y="193.356" width="1.27033" height="1.04887" class="st3"/>
			</g>
			<g id="shape1110-210" v:mID="1110" v:groupContext="shape" transform="translate(48.952,-41.4446)">
				<title>Sheet.1110</title>
				<rect x="0" y="193.356" width="1.27033" height="1.04887" class="st3"/>
			</g>
			<g id="shape1111-212" v:mID="1111" v:groupContext="shape" transform="translate(50.2223,-41.4446)">
				<title>Sheet.1111</title>
				<rect x="0" y="193.356" width="1.2735" height="1.04887" class="st3"/>
			</g>
			<g id="shape1112-214" v:mID="1112" v:groupContext="shape" transform="translate(51.4958,-41.4446)">
				<title>Sheet.1112</title>
				<rect x="0" y="193.356" width="1.27033" height="1.04887" class="st3"/>
			</g>
			<g id="shape1113-216" v:mID="1113" v:groupContext="shape" transform="translate(23.5233,-39.3062)">
				<title>Sheet.1113</title>
				<rect x="0" y="193.353" width="1.27033" height="1.052" class="st3"/>
			</g>
			<g id="shape1114-218" v:mID="1114" v:groupContext="shape" transform="translate(26.0639,-39.3062)">
				<title>Sheet.1114</title>
				<rect x="0" y="193.353" width="1.2735" height="1.052" class="st3"/>
			</g>
			<g id="shape1115-220" v:mID="1115" v:groupContext="shape" transform="translate(28.6077,-39.3062)">
				<title>Sheet.1115</title>
				<rect x="0" y="193.353" width="1.27033" height="1.052" class="st3"/>
			</g>
			<g id="shape1116-222" v:mID="1116" v:groupContext="shape" transform="translate(29.8781,-39.3062)">
				<title>Sheet.1116</title>
				<rect x="0" y="193.353" width="1.27033" height="1.052" class="st3"/>
			</g>
			<g id="shape1117-224" v:mID="1117" v:groupContext="shape" transform="translate(32.4219,-39.3062)">
				<title>Sheet.1117</title>
				<rect x="0" y="193.353" width="1.27033" height="1.052" class="st3"/>
			</g>
			<g id="shape1118-226" v:mID="1118" v:groupContext="shape" transform="translate(33.6922,-39.3062)">
				<title>Sheet.1118</title>
				<rect x="0" y="193.353" width="1.2735" height="1.052" class="st3"/>
			</g>
			<g id="shape1119-228" v:mID="1119" v:groupContext="shape" transform="translate(34.9657,-39.3062)">
				<title>Sheet.1119</title>
				<rect x="0" y="193.353" width="1.27033" height="1.052" class="st3"/>
			</g>
			<g id="shape1120-230" v:mID="1120" v:groupContext="shape" transform="translate(37.5095,-39.3062)">
				<title>Sheet.1120</title>
				<rect x="0" y="193.353" width="1.27033" height="1.052" class="st3"/>
			</g>
			<g id="shape1121-232" v:mID="1121" v:groupContext="shape" transform="translate(38.7799,-39.3062)">
				<title>Sheet.1121</title>
				<rect x="0" y="193.353" width="1.2735" height="1.052" class="st3"/>
			</g>
			<g id="shape1122-234" v:mID="1122" v:groupContext="shape" transform="translate(41.3237,-39.3062)">
				<title>Sheet.1122</title>
				<rect x="0" y="193.353" width="1.27033" height="1.052" class="st3"/>
			</g>
			<g id="shape1123-236" v:mID="1123" v:groupContext="shape" transform="translate(43.8643,-39.3062)">
				<title>Sheet.1123</title>
				<rect x="0" y="193.353" width="1.27033" height="1.052" class="st3"/>
			</g>
			<g id="shape1124-238" v:mID="1124" v:groupContext="shape" transform="translate(45.1378,-39.3062)">
				<title>Sheet.1124</title>
				<rect x="0" y="193.353" width="1.27033" height="1.052" class="st3"/>
			</g>
			<g id="shape1125-240" v:mID="1125" v:groupContext="shape" transform="translate(46.4082,-39.3062)">
				<title>Sheet.1125</title>
				<rect x="0" y="193.353" width="1.2735" height="1.052" class="st3"/>
			</g>
			<g id="shape1126-242" v:mID="1126" v:groupContext="shape" transform="translate(47.6785,-39.3062)">
				<title>Sheet.1126</title>
				<rect x="0" y="193.353" width="1.27033" height="1.052" class="st3"/>
			</g>
			<g id="shape1127-244" v:mID="1127" v:groupContext="shape" transform="translate(50.2223,-39.3062)">
				<title>Sheet.1127</title>
				<rect x="0" y="193.353" width="1.2735" height="1.052" class="st3"/>
			</g>
			<g id="shape1128-246" v:mID="1128" v:groupContext="shape" transform="translate(51.4958,-39.3062)">
				<title>Sheet.1128</title>
				<rect x="0" y="193.353" width="1.27033" height="1.052" class="st3"/>
			</g>
			<g id="shape1129-248" v:mID="1129" v:groupContext="shape" transform="translate(23.5233,-37.1708)">
				<title>Sheet.1129</title>
				<rect x="0" y="193.356" width="1.27033" height="1.04887" class="st3"/>
			</g>
			<g id="shape1130-250" v:mID="1130" v:groupContext="shape" transform="translate(26.0639,-37.1708)">
				<title>Sheet.1130</title>
				<rect x="0" y="193.356" width="1.2735" height="1.04887" class="st3"/>
			</g>
			<g id="shape1131-252" v:mID="1131" v:groupContext="shape" transform="translate(28.6077,-37.1708)">
				<title>Sheet.1131</title>
				<rect x="0" y="193.356" width="1.27033" height="1.04887" class="st3"/>
			</g>
			<g id="shape1132-254" v:mID="1132" v:groupContext="shape" transform="translate(29.8781,-37.1708)">
				<title>Sheet.1132</title>
				<rect x="0" y="193.356" width="1.27033" height="1.04887" class="st3"/>
			</g>
			<g id="shape1133-256" v:mID="1133" v:groupContext="shape" transform="translate(32.4219,-37.1708)">
				<title>Sheet.1133</title>
				<rect x="0" y="193.356" width="1.27033" height="1.04887" class="st3"/>
			</g>
			<g id="shape1134-258" v:mID="1134" v:groupContext="shape" transform="translate(37.5095,-37.1708)">
				<title>Sheet.1134</title>
				<rect x="0" y="193.356" width="1.27033" height="1.04887" class="st3"/>
			</g>
			<g id="shape1135-260" v:mID="1135" v:groupContext="shape" transform="translate(38.7799,-37.1708)">
				<title>Sheet.1135</title>
				<rect x="0" y="193.356" width="1.2735" height="1.04887" class="st3"/>
			</g>
			<g id="shape1136-262" v:mID="1136" v:groupContext="shape" transform="translate(41.3237,-37.1708)">
				<title>Sheet.1136</title>
				<rect x="0" y="193.356" width="1.27033" height="1.04887" class="st3"/>
			</g>
			<g id="shape1137-264" v:mID="1137" v:groupContext="shape" transform="translate(43.8643,-37.1708)">
				<title>Sheet.1137</title>
				<rect x="0" y="193.356" width="1.27033" height="1.04887" class="st3"/>
			</g>
			<g id="shape1138-266" v:mID="1138" v:groupContext="shape" transform="translate(45.1378,-37.1708)">
				<title>Sheet.1138</title>
				<rect x="0" y="193.356" width="1.27033" height="1.04887" class="st3"/>
			</g>
			<g id="shape1139-268" v:mID="1139" v:groupContext="shape" transform="translate(47.6785,-37.1708)">
				<title>Sheet.1139</title>
				<rect x="0" y="193.356" width="1.27033" height="1.04887" class="st3"/>
			</g>
			<g id="shape1140-270" v:mID="1140" v:groupContext="shape" transform="translate(48.952,-37.1708)">
				<title>Sheet.1140</title>
				<rect x="0" y="193.356" width="1.27033" height="1.04887" class="st3"/>
			</g>
			<g id="shape1141-272" v:mID="1141" v:groupContext="shape" transform="translate(51.4958,-37.1708)">
				<title>Sheet.1141</title>
				<rect x="0" y="193.356" width="1.27033" height="1.04887" class="st3"/>
			</g>
		</g>
		<g id="group1142-274" transform="translate(331.687,-116.399)" v:mID="1142" v:groupContext="group">
			<title>Sheet.1142</title>
			<g id="shape1143-275" v:mID="1143" v:groupContext="shape">
				<title>Sheet.1143</title>
				<path d="M38.27 118.95 C17.13 118.95 0 135.83 0 156.68 C0 177.52 17.13 194.41 38.27 194.41 C59.41 194.41 76.54 177.52
							 76.54 156.68 C76.51 135.86 59.38 118.98 38.27 118.95 ZM38.27 192.2 C18.37 192.2 2.23 176.3 2.23 156.68
							 C2.23 137.06 18.37 121.15 38.27 121.15 C58.17 121.15 74.3 137.06 74.3 156.68 C74.27 176.3 58.17 192.17
							 38.27 192.2 Z" class="st1"/>
			</g>
			<g id="shape1144-277" v:mID="1144" v:groupContext="shape" transform="translate(10.8093,-20.3516)">
				<title>Sheet.1144</title>
				<path d="M43.34 194.41 L11.32 194.41 C5.07 194.41 0 189.41 0 183.24 C0 177.9 3.83 173.37 9.06 172.3 C9.5 169.82 11.07
							 167.68 13.33 166.49 C15.59 165.29 18.21 165.17 20.51 166.11 C24.11 161.24 30.17 159.04 36.2 160.51 C42.32
							 161.99 46.69 166.8 47.45 172.9 C51.79 174.57 54.63 178.65 54.63 183.28 C54.66 189.41 49.56 194.41 43.34
							 194.41 ZM17.35 167.71 C16.33 167.71 15.34 167.96 14.38 168.47 C12.5 169.47 11.32 171.3 11.16 173.37
							 L11.1 174.28 L10.17 174.41 C5.61 174.94 2.2 178.78 2.2 183.28 C2.2 188.21 6.28 192.24 11.29 192.24 L43.28
							 192.24 C48.28 192.24 52.36 188.21 52.36 183.28 C52.36 179.35 49.81 175.92 46.02 174.76 L45.32 174.54
							 L45.25 173.81 C44.81 168.37 41.01 164 35.59 162.68 C31.28 161.64 25.38 162.52 21.78 168.15 L21.21 169.03
							 L20.28 168.53 C19.42 168 18.4 167.71 17.35 167.71 Z" class="st1"/>
			</g>
		</g>
		<g id="group1145-279" transform="translate(611.553,-20.5642)" v:mID="1145" v:groupContext="group">
			<title>Sheet.1145</title>
			<g id="shape1146-280" v:mID="1146" v:groupContext="shape">
				<title>Sheet.1146</title>
				<path d="M38.27 118.95 C17.13 118.95 0 135.83 0 156.68 C0 177.52 17.13 194.41 38.27 194.41 C59.41 194.41 76.54 177.52
							 76.54 156.68 C76.51 135.86 59.38 118.98 38.27 118.95 ZM38.27 192.2 C18.37 192.2 2.23 176.3 2.23 156.68
							 C2.23 137.06 18.37 121.15 38.27 121.15 C58.17 121.15 74.3 137.06 74.3 156.68 C74.27 176.3 58.17 192.17
							 38.27 192.2 Z" class="st1"/>
			</g>
			<g id="group1147-282" transform="translate(13.0751,-14.3367)" v:mID="1147" v:groupContext="group">
				<title>Sheet.1147</title>
				<g id="shape1148-283" v:mID="1148" v:groupContext="shape" transform="translate(12.533,2.84217E-14)">
					<title>Sheet.1148</title>
					<path d="M25.45 194.41 L0 194.41 L0 147.78 L25.45 147.78 L25.45 194.41 ZM2.23 192.2 L23.22 192.2 L23.22 149.98
								 L2.23 149.98 L2.23 192.2 Z" class="st1"/>
				</g>
				<g id="shape1149-285" v:mID="1149" v:groupContext="shape" transform="translate(16.3279,-38.1054)">
					<title>Sheet.1149</title>
					<path d="M16.71 194.41 L1.12 194.41 C0.51 194.41 0 193.9 0 193.3 C0 192.71 0.51 192.2 1.12 192.2 L16.68 192.2
								 C17.28 192.2 17.79 192.71 17.79 193.3 C17.79 193.9 17.32 194.41 16.71 194.41 Z" class="st1"/>
				</g>
				<g id="shape1150-287" v:mID="1150" v:groupContext="shape" transform="translate(16.3279,-33.7353)">
					<title>Sheet.1150</title>
					<path d="M16.71 194.41 L1.12 194.41 C0.51 194.41 0 193.9 0 193.3 C0 192.71 0.51 192.2 1.12 192.2 L16.68 192.2
								 C17.28 192.2 17.79 192.71 17.79 193.3 C17.79 193.9 17.32 194.41 16.71 194.41 Z" class="st1"/>
				</g>
				<g id="shape1151-289" v:mID="1151" v:groupContext="shape" transform="translate(16.3279,-29.3336)">
					<title>Sheet.1151</title>
					<path d="M16.71 194.41 L1.12 194.41 C0.51 194.41 0 193.9 0 193.3 C0 192.71 0.51 192.2 1.12 192.2 L16.68 192.2
								 C17.28 192.2 17.79 192.71 17.79 193.3 C17.79 193.9 17.32 194.41 16.71 194.41 Z" class="st1"/>
				</g>
				<g id="shape1152-291" v:mID="1152" v:groupContext="shape" transform="translate(35.7492,-5.65922)">
					<title>Sheet.1152</title>
					<path d="M14.77 194.41 L1.12 194.41 C0.51 194.41 0 193.9 0 193.3 C0 192.71 0.51 192.2 1.12 192.2 L12.53 192.2
								 L12.53 161.27 L1.12 161.27 C0.51 161.27 0 160.76 0 160.17 C0 159.57 0.51 159.07 1.12 159.07 L14.77
								 159.07 L14.77 194.41 Z" class="st1"/>
				</g>
				<g id="shape1153-293" v:mID="1153" v:groupContext="shape" transform="translate(36.5784,-33.7353)">
					<title>Sheet.1153</title>
					<path d="M9.09 194.41 L1.12 194.41 C0.51 194.41 0 193.9 0 193.3 C0 192.71 0.51 192.2 1.12 192.2 L9.09 192.2 C9.69
								 192.2 10.2 192.71 10.2 193.3 C10.2 193.9 9.73 194.41 9.09 194.41 Z" class="st1"/>
				</g>
				<g id="shape1154-295" v:mID="1154" v:groupContext="shape" transform="translate(36.5784,-30.1511)">
					<title>Sheet.1154</title>
					<path d="M9.09 194.41 L1.12 194.41 C0.51 194.41 0 193.9 0 193.3 C0 192.71 0.51 192.2 1.12 192.2 L9.09 192.2 C9.69
								 192.2 10.2 192.71 10.2 193.3 C10.2 193.9 9.73 194.41 9.09 194.41 Z" class="st1"/>
				</g>
				<g id="shape1155-297" v:mID="1155" v:groupContext="shape" transform="translate(36.5784,-26.5355)">
					<title>Sheet.1155</title>
					<path d="M9.09 194.41 L1.12 194.41 C0.51 194.41 0 193.9 0 193.3 C0 192.71 0.51 192.2 1.12 192.2 L9.09 192.2 C9.69
								 192.2 10.2 192.71 10.2 193.3 C10.2 193.9 9.73 194.41 9.09 194.41 Z" class="st1"/>
				</g>
				<g id="shape1156-299" v:mID="1156" v:groupContext="shape" transform="translate(0,-5.65922)">
					<title>Sheet.1156</title>
					<path d="M13.65 194.41 L0 194.41 L0 159.07 L13.65 159.07 C14.26 159.07 14.77 159.57 14.77 160.17 C14.77 160.76
								 14.26 161.27 13.65 161.27 L2.23 161.27 L2.23 192.2 L13.65 192.2 C14.26 192.2 14.77 192.71 14.77
								 193.3 C14.77 193.9 14.26 194.41 13.65 194.41 Z" class="st1"/>
				</g>
				<g id="shape1157-301" v:mID="1157" v:groupContext="shape" transform="translate(3.69929,-33.7353)">
					<title>Sheet.1157</title>
					<path d="M9.09 194.41 L1.12 194.41 C0.51 194.41 0 193.9 0 193.3 C0 192.71 0.51 192.2 1.12 192.2 L9.09 192.2 C9.69
								 192.2 10.2 192.71 10.2 193.3 C10.2 193.9 9.69 194.41 9.09 194.41 Z" class="st1"/>
				</g>
				<g id="shape1158-303" v:mID="1158" v:groupContext="shape" transform="translate(3.69929,-30.1511)">
					<title>Sheet.1158</title>
					<path d="M9.09 194.41 L1.12 194.41 C0.51 194.41 0 193.9 0 193.3 C0 192.71 0.51 192.2 1.12 192.2 L9.09 192.2 C9.69
								 192.2 10.2 192.71 10.2 193.3 C10.2 193.9 9.69 194.41 9.09 194.41 Z" class="st1"/>
				</g>
				<g id="shape1159-305" v:mID="1159" v:groupContext="shape" transform="translate(3.69929,-26.5355)">
					<title>Sheet.1159</title>
					<path d="M9.09 194.41 L1.12 194.41 C0.51 194.41 0 193.9 0 193.3 C0 192.71 0.51 192.2 1.12 192.2 L9.09 192.2 C9.69
								 192.2 10.2 192.71 10.2 193.3 C10.2 193.9 9.69 194.41 9.09 194.41 Z" class="st1"/>
				</g>
			</g>
		</g>
		<g id="shape1160-307" v:mID="1160" v:groupContext="shape" v:layerMember="0" transform="translate(408.225,-147.04)">
			<title>Dynamic connector.1160</title>
			<desc>SAML</desc>
			<v:textBlock v:margins="rect(4,4,4,4)" v:tabSpace="42.5197"/>
			<v:textRect cx="101.664" cy="187.319" width="60" height="22.4037"/>
			<path d="M0 187.32 L196.29 187.32" class="st4"/>
			<rect v:rectContext="textBkgnd" x="87.7835" y="180.119" width="27.7619" height="14.4001" class="st6"/>
			<text x="87.78" y="190.92" class="st7" v:langID="1045"><v:paragraph v:horizAlign="1"/><v:tabList/>SAML</text>		</g>
		<g id="shape1161-315" v:mID="1161" v:groupContext="shape" v:layerMember="0" transform="translate(79.0868,-99.2729)">
			<title>Dynamic connector.1161</title>
			<path d="M0 187.32 L38.82 187.32" class="st4"/>
		</g>
		<g id="shape1163-320" v:mID="1163" v:groupContext="shape" v:layerMember="0" transform="translate(201.201,-99.4107)">
			<title>Dynamic connector.1163</title>
			<desc>Login</desc>
			<v:textBlock v:margins="rect(4,4,4,4)" v:tabSpace="42.5197"/>
			<v:textRect cx="17.0541" cy="187.319" width="40" height="17.6036"/>
			<path d="M0 187.32 L34.11 187.32" class="st8"/>
			<rect v:rectContext="textBkgnd" x="8.361" y="182.519" width="17.3864" height="9.59985" class="st9"/>
			<text x="8.36" y="189.72" class="st10" v:langID="1045"><v:paragraph v:horizAlign="1"/><v:tabList/>Login</text>		</g>
		<g id="shape1164-325" v:mID="1164" v:groupContext="shape" v:layerMember="0" transform="translate(331.687,-154.127)">
			<title>Dynamic connector.1164</title>
			<path d="M-6.68 194.41 L-7.04 194.41 L-96.38 194.41 L-96.38 242.04" class="st11"/>
		</g>
		<g id="shape1165-331" v:mID="1165" v:groupContext="shape" v:layerMember="0" transform="translate(331.687,-58.6055)">
			<title>Dynamic connector.1165</title>
			<desc>HTTPS/443</desc>
			<v:textBlock v:margins="rect(4,4,4,4)" v:tabSpace="42.5197"/>
			<v:textRect cx="-72.1349" cy="194.405" width="45.66" height="17.6036"/>
			<path d="M-6.68 194.41 L-7.04 194.41 L-96.38 194.41 L-96.38 146.51" class="st11"/>
			<rect v:rectContext="textBkgnd" x="-90.0568" y="189.606" width="35.844" height="9.59985" class="st6"/>
			<text x="-90.06" y="196.81" class="st10" v:langID="1045"><v:paragraph v:horizAlign="1"/><v:tabList/>HTTPS/443</text>		</g>
		<g id="shape1166-338" v:mID="1166" v:groupContext="shape" transform="translate(87.0726,-49.8044)">
			<title>Sheet.1166</title>
			<desc>console.cloud.vmware.com</desc>
			<v:textBlock v:margins="rect(4,4,4,4)" v:tabSpace="42.5197"/>
			<v:textRect cx="76" cy="184.405" width="152" height="20"/>
			<rect x="0" y="174.405" width="152" height="20" class="st12"/>
			<text x="14.68" y="187.71" class="st13" v:langID="1045"><v:paragraph v:horizAlign="1"/><v:tabList/>console.cloud.vmware.com</text>		</g>
		<g id="shape1167-341" v:mID="1167" v:groupContext="shape" v:layerMember="0" transform="translate(408.224,-51.3623)">
			<title>Dynamic connector.1167</title>
			<desc>HTTPS/443 Sync &#38; Auth</desc>
			<v:textBlock v:margins="rect(4,4,4,4)" v:tabSpace="42.5197"/>
			<v:textRect cx="31.787" cy="187.319" width="49.49" height="27.2035"/>
			<path d="M6.68 187.32 L7.04 187.32 L63.57 187.32" class="st11"/>
			<rect v:rectContext="textBkgnd" x="11.9514" y="177.719" width="39.6714" height="19.1997" class="st6"/>
			<text x="13.86" y="184.92" class="st10" v:langID="1045"><v:paragraph v:horizAlign="1"/><v:tabList/>HTTPS/443<v:newlineChar/><tspan
						x="11.95" dy="1.2em" class="st14">Sync &#38; Auth</tspan></text>		</g>
		<g id="shape1168-349" v:mID="1168" v:groupContext="shape" v:layerMember="0" transform="translate(548.018,-51.3623)">
			<title>Dynamic connector.1168</title>
			<desc>LDAP/ LDAPS</desc>
			<v:textBlock v:margins="rect(4,4,4,4)" v:tabSpace="42.5197"/>
			<v:textRect cx="31.7679" cy="187.319" width="40" height="27.2035"/>
			<path d="M0 187.32 L56.5 187.32" class="st4"/>
			<rect v:rectContext="textBkgnd" x="21.4068" y="177.719" width="20.7224" height="19.1997" class="st6"/>
			<text x="21.7" y="184.92" class="st10" v:langID="1045"><v:paragraph v:horizAlign="1"/><v:tabList/>LDAP/<v:newlineChar/><tspan
						x="21.41" dy="1.2em" class="st14">LDAPS</tspan></text>		</g>
		<g id="shape1169-357" v:mID="1169" v:groupContext="shape" transform="translate(573.822,-96.2097)">
			<title>Sheet.1169</title>
			<desc>VMware IDP</desc>
			<v:textBlock v:margins="rect(4,4,4,4)" v:tabSpace="42.5197"/>
			<v:textRect cx="76" cy="184.405" width="152" height="20"/>
			<rect x="0" y="174.405" width="152" height="20" class="st12"/>
			<text x="45.57" y="188.01" class="st7" v:langID="1045"><v:paragraph v:horizAlign="1"/><v:tabList/>VMware IDP</text>		</g>
		<g id="shape1170-360" v:mID="1170" v:groupContext="shape" transform="translate(573.822,-0.375)">
			<title>Sheet.1170</title>
			<desc>Customer AD</desc>
			<v:textBlock v:margins="rect(4,4,4,4)" v:tabSpace="42.5197"/>
			<v:textRect cx="76" cy="184.405" width="152" height="20"/>
			<rect x="0" y="174.405" width="152" height="20" class="st12"/>
			<text x="43.74" y="188.01" class="st7" v:langID="1045"><v:paragraph v:horizAlign="1"/><v:tabList/>Customer AD</text>		</g>
		<g id="shape1171-363" v:mID="1171" v:groupContext="shape" transform="translate(433.889,-0.531548)">
			<title>Sheet.1171</title>
			<desc>vIDM Connector</desc>
			<v:textBlock v:margins="rect(4,4,4,4)" v:tabSpace="42.5197"/>
			<v:textRect cx="76" cy="184.405" width="152" height="20"/>
			<rect x="0" y="174.405" width="152" height="20" class="st12"/>
			<text x="36.14" y="188.01" class="st7" v:langID="1045"><v:paragraph v:horizAlign="1"/><v:tabList/>vIDM Connector</text>		</g>
		<g id="shape1172-366" v:mID="1172" v:groupContext="shape" transform="translate(293.956,-0.844645)">
			<title>Sheet.1172</title>
			<desc>vIDM Tenant for Customer</desc>
			<v:textBlock v:margins="rect(4,4,4,4)" v:tabSpace="42.5197"/>
			<v:textRect cx="76" cy="184.405" width="152" height="20"/>
			<rect x="0" y="174.405" width="152" height="20" class="st12"/>
			<text x="10.96" y="188.01" class="st7" v:langID="1045"><v:paragraph v:horizAlign="1"/><v:tabList/>vIDM Tenant for Customer</text>		</g>
		<g id="shape1173-369" v:mID="1173" v:groupContext="shape" transform="translate(293.956,-96.3663)">
			<title>Sheet.1173</title>
			<desc>vIDM Tenant for VMware IDP</desc>
			<v:textBlock v:margins="rect(4,4,4,4)" v:tabSpace="42.5197"/>
			<v:textRect cx="76" cy="184.405" width="152.01" height="20"/>
			<rect x="0" y="174.405" width="152" height="20" class="st12"/>
			<text x="4.27" y="188.01" class="st7" v:langID="1045"><v:paragraph v:horizAlign="1"/><v:tabList/>vIDM Tenant for VMware IDP</text>		</g>
	</g>
</svg>
