<?xml version="1.0" encoding="UTF-8" standalone="no"?>
<!DOCTYPE svg PUBLIC "-//W3C//DTD SVG 1.1//EN" "http://www.w3.org/Graphics/SVG/1.1/DTD/svg11.dtd">
<!-- Generated by Microsoft Visio, SVG Export multitenant.svg Page-1 -->
<svg xmlns="http://www.w3.org/2000/svg" xmlns:xlink="http://www.w3.org/1999/xlink" xmlns:ev="http://www.w3.org/2001/xml-events"
		xmlns:v="http://schemas.microsoft.com/visio/2003/SVGExtensions/" width="8.03125in" height="11.1994in"
		viewBox="0 0 578.25 806.357" xml:space="preserve" color-interpolation-filters="sRGB" class="st15">
	<v:documentProperties v:langID="2057" v:metric="true" v:viewMarkup="false"/>

	<style type="text/css">
	<![CDATA[
		.st1 {fill:#0596ff;stroke:none;stroke-linecap:butt;stroke-width:2.55}
		.st2 {fill:#ffffff;stroke:#000000;stroke-linecap:round;stroke-linejoin:round;stroke-width:0.75}
		.st3 {fill:#000000;font-family:Calibri;font-size:1.16666em;font-weight:bold}
		.st4 {font-size:1em}
		.st5 {fill:none;stroke:none;stroke-linecap:round;stroke-linejoin:round;stroke-width:0.75}
		.st6 {fill:#000000;font-family:Calibri;font-size:1.00001em}
		.st7 {font-family:Symbol;font-size:1em}
		.st8 {fill:#000000;font-family:Calibri;font-size:1.00001em;font-weight:bold}
		.st9 {fill:#ffffff;stroke:none;stroke-linecap:butt;stroke-width:2.53942}
		.st10 {fill:#0596ff;stroke:none;stroke-linecap:butt;stroke-width:2.53942}
		.st11 {marker-end:url(#mrkr4-144);stroke:#000000;stroke-linecap:round;stroke-linejoin:round;stroke-width:1}
		.st12 {fill:#000000;fill-opacity:1;stroke:#000000;stroke-opacity:1;stroke-width:0.28409090909091}
		.st13 {marker-end:url(#mrkr4-213);stroke:#000000;stroke-linecap:round;stroke-linejoin:round;stroke-width:0.75}
		.st14 {fill:#000000;fill-opacity:1;stroke:#000000;stroke-opacity:1;stroke-width:0.22935779816514}
		.st15 {fill:none;fill-rule:evenodd;font-size:12px;overflow:visible;stroke-linecap:square;stroke-miterlimit:3}
	]]>
	</style>

	<defs id="Markers">
		<g id="lend4">
			<path d="M 2 1 L 0 0 L 2 -1 L 2 1 " style="stroke:none"/>
		</g>
		<marker id="mrkr4-144" class="st12" v:arrowType="4" v:arrowSize="2" v:setback="7.04" refX="-7.04" orient="auto"
				markerUnits="strokeWidth" overflow="visible">
			<use xlink:href="#lend4" transform="scale(-3.52,-3.52) "/>
		</marker>
		<marker id="mrkr4-213" class="st14" v:arrowType="4" v:arrowSize="2" v:setback="8.72" refX="-8.72" orient="auto"
				markerUnits="strokeWidth" overflow="visible">
			<use xlink:href="#lend4" transform="scale(-4.36,-4.36) "/>
		</marker>
	</defs>
	<g v:mID="0" v:index="1" v:groupContext="foregroundPage">
		<title>Page-1</title>
		<v:pageProperties v:drawingScale="0.0393701" v:pageScale="0.0393701" v:drawingUnits="24" v:shadowOffsetX="9"
				v:shadowOffsetY="-9"/>
		<v:layer v:name="Connector" v:index="0"/>
		<g id="group1001-1" transform="translate(259.587,-750.579)" v:mID="1001" v:groupContext="group">
			<title>Sheet.1001</title>
			<g id="shape1002-2" v:mID="1002" v:groupContext="shape">
				<title>Sheet.1002</title>
				<path d="M26.61 753.13 C11.91 753.13 0 765.04 0 779.74 C0 794.45 11.91 806.36 26.61 806.36 C41.32 806.36 53.23 794.45
							 53.23 779.74 C53.21 765.06 41.3 753.15 26.61 753.13 ZM26.61 804.8 C12.77 804.8 1.55 793.58 1.55 779.74
							 C1.55 765.9 12.77 754.68 26.61 754.68 C40.45 754.68 51.68 765.9 51.68 779.74 C51.65 793.58 40.45 804.78
							 26.61 804.8 Z" class="st1"/>
			</g>
			<g id="group1003-4" transform="translate(8.18392,-15.0149)" v:mID="1003" v:groupContext="group">
				<title>Sheet.1003</title>
				<g id="shape1004-5" v:mID="1004" v:groupContext="shape" transform="translate(10.1356,0)">
					<title>Sheet.1004</title>
					<path d="M14.04 806.36 L2.28 806.36 C1.02 806.36 0 805.2 0 803.78 C0 803.78 0 803.21 0 803.07 L0 803.05 L0 803.03
								 C0.02 802.45 0.2 801.3 0.62 800.64 C1.53 799.24 2.64 798.35 4.13 797.84 C4.41 797.71 5.61 797.24
								 8.16 797.24 C10.71 797.24 11.91 797.69 12.2 797.84 C13.68 798.33 14.79 799.22 15.7 800.64 C16.12
								 801.3 16.3 802.45 16.32 803.03 L16.32 803.05 L16.32 803.07 C16.32 803.21 16.32 803.78 16.32 803.78
								 C16.32 805.2 15.3 806.36 14.04 806.36 ZM1.55 803.05 C1.55 803.23 1.55 803.78 1.55 803.78 C1.55 804.34
								 1.89 804.8 2.28 804.8 L14.04 804.8 C14.44 804.8 14.77 804.34 14.77 803.78 C14.77 803.78 14.77 803.23
								 14.77 803.05 C14.75 802.56 14.59 801.79 14.39 801.5 C13.66 800.39 12.84 799.7 11.67 799.33 L11.56
								 799.28 C11.56 799.28 10.58 798.84 8.16 798.84 C5.72 798.84 4.77 799.28 4.75 799.28 L4.66 799.33
								 C3.48 799.73 2.64 800.39 1.93 801.5 C1.73 801.79 1.55 802.56 1.55 803.05 Z" class="st1"/>
				</g>
				<g id="shape1005-7" v:mID="1005" v:groupContext="shape" transform="translate(13.3737,-8.67185)">
					<title>Sheet.1005</title>
					<path d="M4.92 806.36 C1.71 806.36 0 802.61 0 799.9 C0 797.18 2.2 794.96 4.92 794.96 C7.63 794.96 9.85 797.18
								 9.85 799.9 C9.83 802.54 8.1 806.36 4.92 806.36 ZM4.92 796.51 C3.06 796.51 1.55 798.04 1.55 799.9
								 C1.55 801.94 2.84 804.8 4.92 804.8 C7.01 804.8 8.29 801.94 8.29 799.9 C8.27 798.02 6.76 796.51 4.92
								 796.51 Z" class="st1"/>
				</g>
				<g id="shape1006-9" v:mID="1006" v:groupContext="shape" transform="translate(0,-4.03651)">
					<title>Sheet.1006</title>
					<path d="M9.94 806.36 L2.2 806.36 C0.98 806.36 0 805.25 0 803.9 L0 803.47 C0 803.39 0 803.3 0 803.23 L0 803.21
								 L0 803.19 C0.02 802.63 0.18 801.57 0.6 800.92 C1.44 799.62 2.48 798.77 3.9 798.31 C4.19 798.17 5.32
								 797.75 7.7 797.75 C10.07 797.75 11.2 798.17 11.49 798.31 C12.66 798.71 13.57 799.35 14.35 800.32
								 L15.04 801.19 L13.99 801.54 C12.49 802.05 11.4 802.92 10.49 804.36 C10.34 804.61 10.16 805.12 10.07
								 805.69 L9.94 806.36 ZM1.55 803.23 C1.55 803.32 1.55 803.41 1.55 803.52 L1.55 803.92 C1.55 804.41
								 1.84 804.83 2.2 804.83 L8.65 804.83 C8.76 804.38 8.92 803.92 9.16 803.56 C10.05 802.21 11.07 801.23
								 12.38 800.59 C11.95 800.26 11.49 800.01 10.93 799.81 L10.82 799.77 C10.82 799.77 9.91 799.35 7.67
								 799.35 C5.41 799.35 4.52 799.77 4.5 799.77 L4.41 799.81 C3.33 800.17 2.55 800.79 1.89 801.81 C1.71
								 802.05 1.55 802.79 1.55 803.23 Z" class="st1"/>
				</g>
				<g id="shape1007-11" v:mID="1007" v:groupContext="shape" transform="translate(3.01629,-12.1317)">
					<title>Sheet.1007</title>
					<path d="M4.66 806.36 C1.62 806.36 0 802.83 0 800.26 C0 797.69 2.08 795.58 4.66 795.58 C7.21 795.58 9.29 797.69
								 9.29 800.26 C9.32 802.76 7.65 806.36 4.66 806.36 ZM4.66 797.15 C2.95 797.15 1.55 798.55 1.55 800.28
								 C1.55 802.17 2.73 804.83 4.66 804.83 C6.54 804.83 7.74 802.14 7.74 800.28 C7.76 798.55 6.37 797.15
								 4.66 797.15 Z" class="st1"/>
				</g>
				<g id="shape1008-13" v:mID="1008" v:groupContext="shape" transform="translate(21.5798,-4.03651)">
					<title>Sheet.1008</title>
					<path d="M12.84 806.36 L5.1 806.36 L4.99 805.71 C4.9 805.14 4.72 804.63 4.57 804.38 C3.64 802.94 2.55 802.08
								 1.04 801.57 L0 801.21 L0.69 800.35 C1.44 799.37 2.4 798.71 3.55 798.33 C3.84 798.2 4.97 797.77 7.34
								 797.77 C9.71 797.77 10.85 798.2 11.13 798.33 C12.53 798.79 13.57 799.64 14.44 800.95 C14.84 801.57
								 15.01 802.63 15.04 803.21 L15.04 803.23 L15.04 803.25 C15.04 803.32 15.04 803.41 15.04 803.5 L15.04
								 803.92 C15.04 805.25 14.04 806.36 12.84 806.36 ZM6.37 804.8 L12.82 804.8 C13.17 804.8 13.46 804.38
								 13.46 803.9 L13.46 803.5 C13.46 803.41 13.46 803.3 13.46 803.21 C13.44 802.76 13.31 802.05 13.13
								 801.79 C12.46 800.77 11.69 800.15 10.6 799.77 L10.49 799.73 C10.49 799.73 9.58 799.3 7.34 799.3
								 C5.08 799.3 4.19 799.73 4.17 799.73 L4.06 799.77 C3.5 799.95 3.04 800.19 2.62 800.55 C3.93 801.21
								 4.97 802.17 5.83 803.54 C6.1 803.9 6.25 804.36 6.37 804.8 Z" class="st1"/>
				</g>
				<g id="shape1009-15" v:mID="1009" v:groupContext="shape" transform="translate(24.2856,-12.1317)">
					<title>Sheet.1009</title>
					<path d="M4.64 806.36 C1.64 806.36 0 802.76 0 800.26 C0 797.69 2.08 795.58 4.64 795.58 C7.21 795.58 9.29 797.69
								 9.29 800.26 C9.29 802.83 7.67 806.36 4.64 806.36 ZM4.64 797.15 C2.93 797.15 1.55 798.55 1.55 800.28
								 C1.55 802.12 2.75 804.83 4.64 804.83 C6.54 804.83 7.74 802.19 7.74 800.28 C7.74 798.55 6.34 797.15
								 4.64 797.15 Z" class="st1"/>
				</g>
			</g>
		</g>
		<g id="shape1010-17" v:mID="1010" v:groupContext="shape" transform="translate(354.706,-269.666)">
			<title>Sheet.1010</title>
			<desc>Atos/Provider Organization</desc>
			<v:textBlock v:margins="rect(4,4,4,4)" v:tabSpace="42.5197" v:verticalAlign="0"/>
			<v:textRect cx="111.585" cy="724.153" width="223.17" height="164.409"/>
			<rect x="0" y="641.948" width="223.17" height="164.409" class="st2"/>
			<text x="31.62" y="658.55" class="st3" v:langID="1045"><v:paragraph v:horizAlign="1"/><v:tabList/>Atos/<tspan
						class="st4" v:langID="1033">Provider Organization</tspan></text>		</g>
		<g id="shape1011-21" v:mID="1011" v:groupContext="shape" transform="translate(374.948,-289.509)">
			<title>Sheet.1011</title>
			<desc>Atos/Provider Service Roles: Cloud Assembly Administrator Ser...</desc>
			<v:textBlock v:margins="rect(4,4,4,4)" v:tabSpace="42.5197"/>
			<v:textRect cx="91.3425" cy="768.515" width="182.69" height="75.685"/>
			<rect x="0" y="730.672" width="182.685" height="75.685" class="st5"/>
			<text x="4" y="735.84" class="st6" v:langID="1033"><v:paragraph/><v:tabList/>Atos/Provider <tspan class="st4"
						v:langID="1045">Service </tspan>Roles:<v:newlineChar/><v:paragraph v:indentFirst="-18" v:indentLeft="18"
						v:bullet="1"/><tspan x="4" dy="1.211em" class="st7" v:langID="1045" v:isBullet="true">·</tspan><tspan
						class="st7" v:langID="1045"> </tspan><tspan class="st4" v:langID="1045">Cloud Assembly Administrator<v:newlineChar/></tspan><tspan
						x="4" dy="1.215em" class="st7" v:langID="1045" v:isBullet="true">·</tspan><tspan class="st7"
						v:langID="1045"> </tspan><tspan class="st4" v:langID="1045">Service Broker Administrator<v:newlineChar/><v:paragraph/><v:newlineChar/><v:paragraph/></tspan><tspan
						x="4" dy="2.404em" class="st4" v:langID="1045">Organization Role:<v:newlineChar/><v:paragraph
							v:indentFirst="-18" v:indentLeft="18" v:bullet="1"/></tspan><tspan x="4" dy="1.211em" class="st7"
						v:langID="1045" v:isBullet="true">·</tspan><tspan class="st7" v:langID="1045"> </tspan><tspan class="st4"
						v:langID="1045">Organization Owner</tspan></text>		</g>
		<g id="group1012-35" transform="translate(374.948,-372.861)" v:mID="1012" v:groupContext="group">
			<title>Sheet.1012</title>
			<g id="shape1013-36" v:mID="1013" v:groupContext="shape" transform="translate(0,-2.48844)">
				<title>Sheet.1013</title>
				<desc>Atos/Provider VMware Users</desc>
				<v:textBlock v:margins="rect(4,4,4,4)" v:tabSpace="42.5197"/>
				<v:textRect cx="91.3425" cy="792.999" width="182.69" height="26.7165"/>
				<rect x="0" y="779.641" width="182.685" height="26.7165" class="st5"/>
				<text x="36.51" y="796.6" class="st6" v:langID="1033"><v:paragraph v:horizAlign="2"/><v:tabList/>Atos/Provider VMware Users</text>			</g>
			<g id="group1014-39" v:mID="1014" v:groupContext="group">
				<title>Sheet.1014</title>
				<g id="shape1015-40" v:mID="1015" v:groupContext="shape">
					<title>Sheet.1015</title>
					<path d="M15.86 774.64 C7.1 774.64 0 781.73 0 790.5 C0 799.26 7.1 806.36 15.86 806.36 C24.62 806.36 31.72 799.26
								 31.72 790.5 C31.71 781.75 24.61 774.65 15.86 774.64 ZM15.86 805.43 C7.61 805.43 0.93 798.74 0.93
								 790.5 C0.93 782.25 7.61 775.56 15.86 775.56 C24.11 775.56 30.8 782.25 30.8 790.5 C30.78 798.74 24.11
								 805.42 15.86 805.43 Z" class="st1"/>
				</g>
				<g id="group1016-42" transform="translate(4.87711,-8.94798)" v:mID="1016" v:groupContext="group">
					<title>Sheet.1016</title>
					<g id="shape1017-43" v:mID="1017" v:groupContext="shape" transform="translate(6.04021,0)">
						<title>Sheet.1017</title>
						<path d="M8.37 806.36 L1.36 806.36 C0.61 806.36 0 805.67 0 804.82 C0 804.82 0 804.48 0 804.4 L0 804.39 L0
									 804.37 C0.01 804.03 0.12 803.34 0.37 802.95 C0.91 802.11 1.57 801.59 2.46 801.28 C2.63 801.2
									 3.34 800.93 4.86 800.93 C6.38 800.93 7.1 801.19 7.27 801.28 C8.15 801.57 8.82 802.1 9.36 802.95
									 C9.61 803.34 9.71 804.03 9.73 804.37 L9.73 804.39 L9.73 804.4 C9.73 804.48 9.73 804.82 9.73
									 804.82 C9.73 805.67 9.12 806.36 8.37 806.36 ZM0.93 804.39 C0.93 804.49 0.93 804.82 0.93 804.82
									 C0.93 805.15 1.12 805.43 1.36 805.43 L8.37 805.43 C8.6 805.43 8.8 805.15 8.8 804.82 C8.8 804.82
									 8.8 804.49 8.8 804.39 C8.79 804.1 8.7 803.63 8.58 803.46 C8.14 802.8 7.65 802.39 6.95 802.17
									 L6.89 802.14 C6.89 802.14 6.3 801.88 4.86 801.88 C3.41 801.88 2.84 802.14 2.83 802.14 L2.78
									 802.17 C2.08 802.41 1.57 802.8 1.15 803.46 C1.03 803.63 0.93 804.1 0.93 804.39 Z" class="st1"/>
					</g>
					<g id="shape1018-45" v:mID="1018" v:groupContext="shape" transform="translate(7.96991,-5.16789)">
						<title>Sheet.1018</title>
						<path d="M2.93 806.36 C1.02 806.36 0 804.12 0 802.51 C0 800.89 1.31 799.56 2.93 799.56 C4.55 799.56 5.87
									 800.89 5.87 802.51 C5.86 804.08 4.82 806.36 2.93 806.36 ZM2.93 800.49 C1.82 800.49 0.93 801.4
									 0.93 802.51 C0.93 803.73 1.69 805.43 2.93 805.43 C4.18 805.43 4.94 803.73 4.94 802.51 C4.93
									 801.39 4.03 800.49 2.93 800.49 Z" class="st1"/>
					</g>
					<g id="shape1019-47" v:mID="1019" v:groupContext="shape" transform="translate(0,-2.40551)">
						<title>Sheet.1019</title>
						<path d="M5.92 806.36 L1.31 806.36 C0.58 806.36 0 805.7 0 804.89 L0 804.64 C0 804.59 0 804.53 0 804.49 L0
									 804.48 L0 804.47 C0.01 804.14 0.11 803.5 0.36 803.12 C0.86 802.34 1.48 801.84 2.33 801.56 C2.5
									 801.48 3.17 801.23 4.59 801.23 C6 801.23 6.67 801.48 6.85 801.56 C7.55 801.8 8.09 802.18 8.55
									 802.76 L8.96 803.28 L8.34 803.49 C7.44 803.79 6.79 804.31 6.25 805.17 C6.16 805.31 6.05 805.62
									 6 805.96 L5.92 806.36 ZM0.93 804.49 C0.93 804.55 0.93 804.6 0.93 804.67 L0.93 804.9 C0.93 805.19
									 1.1 805.45 1.31 805.45 L5.15 805.45 C5.22 805.18 5.31 804.9 5.46 804.69 C5.99 803.89 6.6 803.3
									 7.38 802.92 C7.12 802.72 6.85 802.58 6.52 802.46 L6.45 802.43 C6.45 802.43 5.91 802.18 4.57
									 802.18 C3.22 802.18 2.7 802.43 2.68 802.43 L2.63 802.46 C1.98 802.67 1.52 803.04 1.12 803.65
									 C1.02 803.79 0.93 804.23 0.93 804.49 Z" class="st1"/>
					</g>
					<g id="shape1020-49" v:mID="1020" v:groupContext="shape" transform="translate(1.79753,-7.22975)">
						<title>Sheet.1020</title>
						<path d="M2.78 806.36 C0.96 806.36 0 804.26 0 802.72 C0 801.19 1.24 799.93 2.78 799.93 C4.3 799.93 5.54 801.19
									 5.54 802.72 C5.55 804.22 4.56 806.36 2.78 806.36 ZM2.78 800.87 C1.76 800.87 0.93 801.71 0.93
									 802.74 C0.93 803.86 1.63 805.45 2.78 805.45 C3.9 805.45 4.61 803.85 4.61 802.74 C4.63 801.71
									 3.79 800.87 2.78 800.87 Z" class="st1"/>
					</g>
					<g id="shape1021-51" v:mID="1021" v:groupContext="shape" transform="translate(12.8602,-2.40551)">
						<title>Sheet.1021</title>
						<path d="M7.65 806.36 L3.04 806.36 L2.97 805.97 C2.92 805.63 2.82 805.33 2.72 805.18 C2.17 804.32 1.52 803.81
									 0.62 803.5 L0 803.29 L0.41 802.78 C0.86 802.19 1.43 801.8 2.11 801.57 C2.29 801.49 2.96 801.24
									 4.37 801.24 C5.79 801.24 6.46 801.49 6.63 801.57 C7.47 801.85 8.09 802.35 8.6 803.13 C8.84 803.5
									 8.95 804.14 8.96 804.48 L8.96 804.49 L8.96 804.51 C8.96 804.55 8.96 804.6 8.96 804.65 L8.96
									 804.9 C8.96 805.7 8.37 806.36 7.65 806.36 ZM3.79 805.43 L7.64 805.43 C7.85 805.43 8.02 805.18
									 8.02 804.89 L8.02 804.65 C8.02 804.6 8.02 804.53 8.02 804.48 C8.01 804.22 7.93 803.79 7.82 803.63
									 C7.43 803.03 6.97 802.66 6.32 802.43 L6.25 802.41 C6.25 802.41 5.71 802.15 4.37 802.15 C3.03
									 802.15 2.5 802.41 2.48 802.41 L2.42 802.43 C2.09 802.54 1.81 802.68 1.56 802.89 C2.34 803.29
									 2.96 803.86 3.48 804.68 C3.63 804.89 3.73 805.17 3.79 805.43 Z" class="st1"/>
					</g>
					<g id="shape1022-53" v:mID="1022" v:groupContext="shape" transform="translate(14.4727,-7.22975)">
						<title>Sheet.1022</title>
						<path d="M2.76 806.36 C0.98 806.36 0 804.22 0 802.72 C0 801.19 1.24 799.93 2.76 799.93 C4.3 799.93 5.54 801.19
									 5.54 802.72 C5.54 804.26 4.57 806.36 2.76 806.36 ZM2.76 800.87 C1.74 800.87 0.93 801.71 0.93
									 802.74 C0.93 803.83 1.64 805.45 2.76 805.45 C3.9 805.45 4.61 803.87 4.61 802.74 C4.61 801.71
									 3.78 800.87 2.76 800.87 Z" class="st1"/>
					</g>
				</g>
			</g>
		</g>
		<g id="shape1109-55" v:mID="1109" v:groupContext="shape" transform="translate(228.386,-720.047)">
			<title>Sheet.1109</title>
			<desc>Tenant Users My VMware Accounts</desc>
			<v:textBlock v:margins="rect(4,4,4,4)" v:tabSpace="42.5197"/>
			<v:textRect cx="57.8156" cy="790.497" width="115.64" height="31.721"/>
			<rect x="0" y="774.636" width="115.631" height="31.721" class="st5"/>
			<text x="25.74" y="786.9" class="st6" v:langID="1045"><v:paragraph v:horizAlign="1"/><v:tabList/>Tenant Users<v:newlineChar/><tspan
						x="4.11" dy="1.2em" class="st4">My VMware Accounts</tspan></text>		</g>
		<g id="shape1125-59" v:mID="1125" v:groupContext="shape" transform="translate(127.875,-602.737)">
			<title>Sheet.1125</title>
			<desc>Atos / Service Provider AD</desc>
			<v:textBlock v:margins="rect(4,4,4,4)" v:tabSpace="42.5197" v:verticalAlign="0"/>
			<v:textRect cx="38.9764" cy="756.751" width="77.96" height="99.2126"/>
			<rect x="0" y="707.145" width="77.9528" height="99.2126" class="st2"/>
			<text x="4.52" y="721.95" class="st8" v:langID="1045"><v:paragraph v:horizAlign="1"/><v:tabList/>Atos / Service <tspan
						x="8.96" dy="1.2em" class="st4">Provider AD</tspan></text>		</g>
		<g id="group1126-63" transform="translate(140.237,-613.315)" v:mID="1126" v:groupContext="group">
			<title>Sheet.1126</title>
			<g id="shape1127-64" v:mID="1127" v:groupContext="shape" transform="translate(0.0266011,0)">
				<title>White</title>
				<path d="M26.6 753.16 C11.93 753.16 0 765.08 0 779.76 C0 794.43 11.93 806.36 26.6 806.36 C41.28 806.36 53.2 794.43
							 53.2 779.76 C53.2 765.08 41.28 753.16 26.6 753.16 ZM26.6 804.81 C12.79 804.81 1.55 793.57 1.55 779.76
							 C1.55 765.95 12.79 754.71 26.6 754.71 C40.41 754.71 51.65 765.95 51.65 779.76 C51.65 793.57 40.41 804.81
							 26.6 804.81 Z" class="st9"/>
			</g>
			<g id="shape1128-66" v:mID="1128" v:groupContext="shape">
				<title>Blue</title>
				<path d="M26.6 753.16 C11.93 753.16 0 765.08 0 779.76 C0 794.43 11.93 806.36 26.6 806.36 C41.28 806.36 53.2 794.43
							 53.2 779.76 C53.2 765.08 41.28 753.16 26.6 753.16 ZM26.6 804.81 C12.79 804.81 1.55 793.57 1.55 779.76
							 C1.55 765.95 12.79 754.71 26.6 754.71 C40.41 754.71 51.65 765.95 51.65 779.76 C51.65 793.57 40.41 804.81
							 26.6 804.81 Z" class="st10"/>
			</g>
			<g id="group1129-68" transform="translate(12.088,-11.8907)" v:mID="1129" v:groupContext="group">
				<title>_126-Server</title>
				<g id="shape1130-69" v:mID="1130" v:groupContext="shape" transform="translate(0,-18.552)">
					<title>Sheet.1130</title>
					<path d="M28.49 806.36 L0.67 806.36 C0.3 806.36 0 806.06 0 805.69 L0 796.42 C0 796.05 0.3 795.75 0.67 795.75
								 L28.49 795.75 C28.86 795.75 29.16 796.05 29.16 796.42 L29.16 805.69 C29.16 806.06 28.86 806.36 28.49
								 806.36 ZM1.33 805.03 L27.83 805.03 L27.83 797.08 L1.33 797.08 L1.33 805.03 Z" class="st10"/>
				</g>
				<g id="shape1131-71" v:mID="1131" v:groupContext="shape" transform="translate(0,-9.27712)">
					<title>Sheet.1131</title>
					<path d="M28.49 806.36 L0.67 806.36 C0.3 806.36 0 806.06 0 805.69 L0 796.42 C0 796.05 0.3 795.75 0.67 795.75
								 L28.49 795.75 C28.86 795.75 29.16 796.05 29.16 796.42 L29.16 805.69 C29.16 806.06 28.86 806.36 28.49
								 806.36 ZM1.33 805.03 L27.83 805.03 L27.83 797.08 L1.33 797.08 L1.33 805.03 Z" class="st10"/>
				</g>
				<g id="shape1132-73" v:mID="1132" v:groupContext="shape">
					<title>Sheet.1132</title>
					<path d="M28.49 806.36 L0.67 806.36 C0.3 806.36 0 806.06 0 805.69 L0 796.42 C0 796.05 0.3 795.75 0.67 795.75
								 L28.49 795.75 C28.86 795.75 29.16 796.05 29.16 796.42 L29.16 805.69 C29.16 806.06 28.86 806.36 28.49
								 806.36 ZM1.33 805.03 L27.83 805.03 L27.83 797.08 L1.33 797.08 L1.33 805.03 Z" class="st10"/>
				</g>
				<g id="shape1133-75" v:mID="1133" v:groupContext="shape" transform="translate(3.44927,-23.1895)">
					<title>Sheet.1133</title>
					<rect x="0" y="805.027" width="5.56627" height="1.33005" class="st10"/>
				</g>
				<g id="shape1134-77" v:mID="1134" v:groupContext="shape" transform="translate(4.37587,-13.9146)">
					<title>Sheet.1134</title>
					<rect x="0" y="805.027" width="16.6966" height="1.33005" class="st10"/>
				</g>
				<g id="shape1135-79" v:mID="1135" v:groupContext="shape" transform="translate(22.9279,-13.9146)">
					<title>Sheet.1135</title>
					<rect x="0" y="805.027" width="1.85542" height="1.33005" class="st10"/>
				</g>
				<g id="shape1136-81" v:mID="1136" v:groupContext="shape" transform="translate(22.9279,-4.63967)">
					<title>Sheet.1136</title>
					<rect x="0" y="805.027" width="1.85542" height="1.33005" class="st10"/>
				</g>
				<g id="shape1137-83" v:mID="1137" v:groupContext="shape" transform="translate(19.2171,-4.63967)">
					<title>Sheet.1137</title>
					<rect x="0" y="805.027" width="1.85542" height="1.33005" class="st10"/>
				</g>
				<g id="shape1138-85" v:mID="1138" v:groupContext="shape" transform="translate(15.5062,-4.63967)">
					<title>Sheet.1138</title>
					<rect x="0" y="805.027" width="1.85542" height="1.33005" class="st10"/>
				</g>
				<g id="shape1139-87" v:mID="1139" v:groupContext="shape" transform="translate(4.37587,-4.63967)">
					<title>Sheet.1139</title>
					<rect x="0" y="805.027" width="9.2749" height="1.33005" class="st10"/>
				</g>
				<g id="shape1140-89" v:mID="1140" v:groupContext="shape" transform="translate(10.8688,-23.1895)">
					<title>Sheet.1140</title>
					<rect x="0" y="805.027" width="1.85542" height="1.33005" class="st10"/>
				</g>
				<g id="shape1141-91" v:mID="1141" v:groupContext="shape" transform="translate(14.5796,-23.1895)">
					<title>Sheet.1141</title>
					<rect x="0" y="805.027" width="1.85542" height="1.33005" class="st10"/>
				</g>
				<g id="shape1142-93" v:mID="1142" v:groupContext="shape" transform="translate(18.2904,-23.1895)">
					<title>Sheet.1142</title>
					<rect x="0" y="805.027" width="1.85542" height="1.33005" class="st10"/>
				</g>
				<g id="shape1143-95" v:mID="1143" v:groupContext="shape" transform="translate(21.9991,-23.1895)">
					<title>Sheet.1143</title>
					<rect x="0" y="805.027" width="1.85542" height="1.33005" class="st10"/>
				</g>
			</g>
		</g>
		<g id="shape1144-97" v:mID="1144" v:groupContext="shape" transform="translate(351.104,-602.737)">
			<title>Sheet.1144</title>
			<desc>Tenant AD (optional)</desc>
			<v:textBlock v:margins="rect(4,4,4,4)" v:tabSpace="42.5197" v:verticalAlign="0"/>
			<v:textRect cx="38.9764" cy="756.751" width="77.96" height="99.2126"/>
			<rect x="0" y="707.145" width="77.9528" height="99.2126" class="st2"/>
			<text x="12.73" y="721.95" class="st8" v:langID="1045"><v:paragraph v:horizAlign="1"/><v:tabList/>Tenant AD <tspan
						x="14.36" dy="1.2em" class="st4">(optional)</tspan></text>		</g>
		<g id="group1145-101" transform="translate(363.466,-613.315)" v:mID="1145" v:groupContext="group">
			<title>Sheet.1145</title>
			<g id="shape1146-102" v:mID="1146" v:groupContext="shape" transform="translate(0.0266011,0)">
				<title>White</title>
				<path d="M26.6 753.16 C11.93 753.16 0 765.08 0 779.76 C0 794.43 11.93 806.36 26.6 806.36 C41.28 806.36 53.2 794.43
							 53.2 779.76 C53.2 765.08 41.28 753.16 26.6 753.16 ZM26.6 804.81 C12.79 804.81 1.55 793.57 1.55 779.76
							 C1.55 765.95 12.79 754.71 26.6 754.71 C40.41 754.71 51.65 765.95 51.65 779.76 C51.65 793.57 40.41 804.81
							 26.6 804.81 Z" class="st9"/>
			</g>
			<g id="shape1147-104" v:mID="1147" v:groupContext="shape">
				<title>Blue</title>
				<path d="M26.6 753.16 C11.93 753.16 0 765.08 0 779.76 C0 794.43 11.93 806.36 26.6 806.36 C41.28 806.36 53.2 794.43
							 53.2 779.76 C53.2 765.08 41.28 753.16 26.6 753.16 ZM26.6 804.81 C12.79 804.81 1.55 793.57 1.55 779.76
							 C1.55 765.95 12.79 754.71 26.6 754.71 C40.41 754.71 51.65 765.95 51.65 779.76 C51.65 793.57 40.41 804.81
							 26.6 804.81 Z" class="st10"/>
			</g>
			<g id="group1148-106" transform="translate(12.088,-11.8907)" v:mID="1148" v:groupContext="group">
				<title>_126-Server</title>
				<g id="shape1149-107" v:mID="1149" v:groupContext="shape" transform="translate(0,-18.552)">
					<title>Sheet.1149</title>
					<path d="M28.49 806.36 L0.67 806.36 C0.3 806.36 0 806.06 0 805.69 L0 796.42 C0 796.05 0.3 795.75 0.67 795.75
								 L28.49 795.75 C28.86 795.75 29.16 796.05 29.16 796.42 L29.16 805.69 C29.16 806.06 28.86 806.36 28.49
								 806.36 ZM1.33 805.03 L27.83 805.03 L27.83 797.08 L1.33 797.08 L1.33 805.03 Z" class="st10"/>
				</g>
				<g id="shape1150-109" v:mID="1150" v:groupContext="shape" transform="translate(0,-9.27712)">
					<title>Sheet.1150</title>
					<path d="M28.49 806.36 L0.67 806.36 C0.3 806.36 0 806.06 0 805.69 L0 796.42 C0 796.05 0.3 795.75 0.67 795.75
								 L28.49 795.75 C28.86 795.75 29.16 796.05 29.16 796.42 L29.16 805.69 C29.16 806.06 28.86 806.36 28.49
								 806.36 ZM1.33 805.03 L27.83 805.03 L27.83 797.08 L1.33 797.08 L1.33 805.03 Z" class="st10"/>
				</g>
				<g id="shape1151-111" v:mID="1151" v:groupContext="shape">
					<title>Sheet.1151</title>
					<path d="M28.49 806.36 L0.67 806.36 C0.3 806.36 0 806.06 0 805.69 L0 796.42 C0 796.05 0.3 795.75 0.67 795.75
								 L28.49 795.75 C28.86 795.75 29.16 796.05 29.16 796.42 L29.16 805.69 C29.16 806.06 28.86 806.36 28.49
								 806.36 ZM1.33 805.03 L27.83 805.03 L27.83 797.08 L1.33 797.08 L1.33 805.03 Z" class="st10"/>
				</g>
				<g id="shape1152-113" v:mID="1152" v:groupContext="shape" transform="translate(3.44927,-23.1895)">
					<title>Sheet.1152</title>
					<rect x="0" y="805.027" width="5.56627" height="1.33005" class="st10"/>
				</g>
				<g id="shape1153-115" v:mID="1153" v:groupContext="shape" transform="translate(4.37587,-13.9146)">
					<title>Sheet.1153</title>
					<rect x="0" y="805.027" width="16.6966" height="1.33005" class="st10"/>
				</g>
				<g id="shape1154-117" v:mID="1154" v:groupContext="shape" transform="translate(22.9279,-13.9146)">
					<title>Sheet.1154</title>
					<rect x="0" y="805.027" width="1.85542" height="1.33005" class="st10"/>
				</g>
				<g id="shape1155-119" v:mID="1155" v:groupContext="shape" transform="translate(22.9279,-4.63967)">
					<title>Sheet.1155</title>
					<rect x="0" y="805.027" width="1.85542" height="1.33005" class="st10"/>
				</g>
				<g id="shape1156-121" v:mID="1156" v:groupContext="shape" transform="translate(19.2171,-4.63967)">
					<title>Sheet.1156</title>
					<rect x="0" y="805.027" width="1.85542" height="1.33005" class="st10"/>
				</g>
				<g id="shape1157-123" v:mID="1157" v:groupContext="shape" transform="translate(15.5062,-4.63967)">
					<title>Sheet.1157</title>
					<rect x="0" y="805.027" width="1.85542" height="1.33005" class="st10"/>
				</g>
				<g id="shape1158-125" v:mID="1158" v:groupContext="shape" transform="translate(4.37587,-4.63967)">
					<title>Sheet.1158</title>
					<rect x="0" y="805.027" width="9.2749" height="1.33005" class="st10"/>
				</g>
				<g id="shape1159-127" v:mID="1159" v:groupContext="shape" transform="translate(10.8688,-23.1895)">
					<title>Sheet.1159</title>
					<rect x="0" y="805.027" width="1.85542" height="1.33005" class="st10"/>
				</g>
				<g id="shape1160-129" v:mID="1160" v:groupContext="shape" transform="translate(14.5796,-23.1895)">
					<title>Sheet.1160</title>
					<rect x="0" y="805.027" width="1.85542" height="1.33005" class="st10"/>
				</g>
				<g id="shape1161-131" v:mID="1161" v:groupContext="shape" transform="translate(18.2904,-23.1895)">
					<title>Sheet.1161</title>
					<rect x="0" y="805.027" width="1.85542" height="1.33005" class="st10"/>
				</g>
				<g id="shape1162-133" v:mID="1162" v:groupContext="shape" transform="translate(21.9991,-23.1895)">
					<title>Sheet.1162</title>
					<rect x="0" y="805.027" width="1.85542" height="1.33005" class="st10"/>
				</g>
			</g>
		</g>
		<g id="shape1163-135" v:mID="1163" v:groupContext="shape" transform="translate(222.843,-492.186)">
			<title>Sheet.1163</title>
			<desc>Organization Level Permissions</desc>
			<v:textBlock v:margins="rect(4,4,4,4)" v:tabSpace="42.5197"/>
			<v:textRect cx="65.622" cy="775.885" width="131.25" height="60.9449"/>
			<rect x="0" y="745.413" width="131.244" height="60.9449" class="st2"/>
			<text x="19.34" y="772.29" class="st8" v:langID="1045"><v:paragraph v:horizAlign="1"/><v:tabList/>Organization Level <tspan
						x="35.82" dy="1.2em" class="st4">Permissions</tspan></text>		</g>
		<g id="shape1164-139" v:mID="1164" v:groupContext="shape" v:layerMember="0" transform="translate(279.387,-722.076)">
			<title>Dynamic connector.1164</title>
			<path d="M7.09 806.36 L7.09 968.26" class="st11"/>
		</g>
		<g id="shape1165-145" v:mID="1165" v:groupContext="shape" transform="translate(223.503,-150.611)">
			<title>Sheet.1165</title>
			<desc>Project Level Permissions</desc>
			<v:textBlock v:margins="rect(4,4,4,4)" v:tabSpace="42.5197"/>
			<v:textRect cx="65.622" cy="775.885" width="131.25" height="60.9449"/>
			<rect x="0" y="745.413" width="131.244" height="60.9449" class="st2"/>
			<text x="33.68" y="772.29" class="st8" v:langID="1045"><v:paragraph v:horizAlign="1"/><v:tabList/>Project Level <tspan
						x="35.82" dy="1.2em" class="st4">Permissions</tspan></text>		</g>
		<g id="shape1166-149" v:mID="1166" v:groupContext="shape" transform="translate(0.375,-269.666)">
			<title>Sheet.1166</title>
			<desc>Tenant Organization</desc>
			<v:textBlock v:margins="rect(4,4,4,4)" v:tabSpace="42.5197" v:verticalAlign="0"/>
			<v:textRect cx="111.585" cy="724.153" width="223.17" height="164.409"/>
			<rect x="0" y="641.948" width="223.17" height="164.409" class="st2"/>
			<text x="52.24" y="658.55" class="st3" v:langID="1045"><v:paragraph v:horizAlign="1"/><v:tabList/>Tenant Organization</text>		</g>
		<g id="shape1167-152" v:mID="1167" v:groupContext="shape" transform="translate(20.6173,-289.509)">
			<title>Sheet.1167</title>
			<desc>Service Role Service Broker User Organization Role: Organizat...</desc>
			<v:textBlock v:margins="rect(4,4,4,4)" v:tabSpace="42.5197"/>
			<v:textRect cx="91.3425" cy="768.515" width="182.69" height="75.685"/>
			<rect x="0" y="730.672" width="182.685" height="75.685" class="st5"/>
			<text x="4" y="743.13" class="st6" v:langID="1045"><v:paragraph/><v:tabList/>Service Role<v:newlineChar/><v:paragraph
						v:indentFirst="-18" v:indentLeft="18" v:bullet="1"/><tspan x="4" dy="1.211em" class="st7" v:isBullet="true">·</tspan><tspan
						class="st7"> </tspan>Service Broker User<v:newlineChar/><v:paragraph/><v:newlineChar/><v:paragraph/><tspan
						x="4" dy="2.404em" class="st4">Organization Role:<v:newlineChar/><v:paragraph v:indentFirst="-18"
							v:indentLeft="18" v:bullet="1"/></tspan><tspan x="4" dy="1.211em" class="st7" v:isBullet="true">·</tspan><tspan
						class="st7"> </tspan>Organization Member</text>		</g>
		<g id="group1179-160" transform="translate(44.2284,-372.861)" v:mID="1179" v:groupContext="group">
			<title>Sheet.1179</title>
			<g id="shape1169-161" v:mID="1169" v:groupContext="shape" transform="translate(33.0761,-5.53609)">
				<title>Sheet.1169</title>
				<desc>Tenant User Group</desc>
				<v:textBlock v:margins="rect(4,4,4,4)" v:tabSpace="42.5197"/>
				<v:textRect cx="51.1934" cy="796.033" width="102.39" height="20.6489"/>
				<rect x="0" y="785.709" width="102.387" height="20.6489" class="st5"/>
				<text x="4" y="799.63" class="st6" v:langID="1045"><v:paragraph/><v:tabList/>Tenant User Group</text>			</g>
			<g id="group1170-164" v:mID="1170" v:groupContext="group">
				<title>Sheet.1170</title>
				<g id="shape1171-165" v:mID="1171" v:groupContext="shape">
					<title>Sheet.1171</title>
					<path d="M15.86 774.64 C7.1 774.64 0 781.73 0 790.5 C0 799.26 7.1 806.36 15.86 806.36 C24.62 806.36 31.72 799.26
								 31.72 790.5 C31.71 781.75 24.61 774.65 15.86 774.64 ZM15.86 805.43 C7.61 805.43 0.93 798.74 0.93
								 790.5 C0.93 782.25 7.61 775.56 15.86 775.56 C24.11 775.56 30.8 782.25 30.8 790.5 C30.78 798.74 24.11
								 805.42 15.86 805.43 Z" class="st1"/>
				</g>
				<g id="group1172-167" transform="translate(4.87711,-8.94798)" v:mID="1172" v:groupContext="group">
					<title>Sheet.1172</title>
					<g id="shape1173-168" v:mID="1173" v:groupContext="shape" transform="translate(6.04021,0)">
						<title>Sheet.1173</title>
						<path d="M8.37 806.36 L1.36 806.36 C0.61 806.36 0 805.67 0 804.82 C0 804.82 0 804.48 0 804.4 L0 804.39 L0
									 804.37 C0.01 804.03 0.12 803.34 0.37 802.95 C0.91 802.11 1.57 801.59 2.46 801.28 C2.63 801.2
									 3.34 800.93 4.86 800.93 C6.38 800.93 7.1 801.19 7.27 801.28 C8.15 801.57 8.82 802.1 9.36 802.95
									 C9.61 803.34 9.71 804.03 9.73 804.37 L9.73 804.39 L9.73 804.4 C9.73 804.48 9.73 804.82 9.73
									 804.82 C9.73 805.67 9.12 806.36 8.37 806.36 ZM0.93 804.39 C0.93 804.49 0.93 804.82 0.93 804.82
									 C0.93 805.15 1.12 805.43 1.36 805.43 L8.37 805.43 C8.6 805.43 8.8 805.15 8.8 804.82 C8.8 804.82
									 8.8 804.49 8.8 804.39 C8.79 804.1 8.7 803.63 8.58 803.46 C8.14 802.8 7.65 802.39 6.95 802.17
									 L6.89 802.14 C6.89 802.14 6.3 801.88 4.86 801.88 C3.41 801.88 2.84 802.14 2.83 802.14 L2.78
									 802.17 C2.08 802.41 1.57 802.8 1.15 803.46 C1.03 803.63 0.93 804.1 0.93 804.39 Z" class="st1"/>
					</g>
					<g id="shape1174-170" v:mID="1174" v:groupContext="shape" transform="translate(7.96991,-5.16789)">
						<title>Sheet.1174</title>
						<path d="M2.93 806.36 C1.02 806.36 0 804.12 0 802.51 C0 800.89 1.31 799.56 2.93 799.56 C4.55 799.56 5.87
									 800.89 5.87 802.51 C5.86 804.08 4.82 806.36 2.93 806.36 ZM2.93 800.49 C1.82 800.49 0.93 801.4
									 0.93 802.51 C0.93 803.73 1.69 805.43 2.93 805.43 C4.18 805.43 4.94 803.73 4.94 802.51 C4.93
									 801.39 4.03 800.49 2.93 800.49 Z" class="st1"/>
					</g>
					<g id="shape1175-172" v:mID="1175" v:groupContext="shape" transform="translate(0,-2.40551)">
						<title>Sheet.1175</title>
						<path d="M5.92 806.36 L1.31 806.36 C0.58 806.36 0 805.7 0 804.89 L0 804.64 C0 804.59 0 804.53 0 804.49 L0
									 804.48 L0 804.47 C0.01 804.14 0.11 803.5 0.36 803.12 C0.86 802.34 1.48 801.84 2.33 801.56 C2.5
									 801.48 3.17 801.23 4.59 801.23 C6 801.23 6.67 801.48 6.85 801.56 C7.55 801.8 8.09 802.18 8.55
									 802.76 L8.96 803.28 L8.34 803.49 C7.44 803.79 6.79 804.31 6.25 805.17 C6.16 805.31 6.05 805.62
									 6 805.96 L5.92 806.36 ZM0.93 804.49 C0.93 804.55 0.93 804.6 0.93 804.67 L0.93 804.9 C0.93 805.19
									 1.1 805.45 1.31 805.45 L5.15 805.45 C5.22 805.18 5.31 804.9 5.46 804.69 C5.99 803.89 6.6 803.3
									 7.38 802.92 C7.12 802.72 6.85 802.58 6.52 802.46 L6.45 802.43 C6.45 802.43 5.91 802.18 4.57
									 802.18 C3.22 802.18 2.7 802.43 2.68 802.43 L2.63 802.46 C1.98 802.67 1.52 803.04 1.12 803.65
									 C1.02 803.79 0.93 804.23 0.93 804.49 Z" class="st1"/>
					</g>
					<g id="shape1176-174" v:mID="1176" v:groupContext="shape" transform="translate(1.79753,-7.22975)">
						<title>Sheet.1176</title>
						<path d="M2.78 806.36 C0.96 806.36 0 804.26 0 802.72 C0 801.19 1.24 799.93 2.78 799.93 C4.3 799.93 5.54 801.19
									 5.54 802.72 C5.55 804.22 4.56 806.36 2.78 806.36 ZM2.78 800.87 C1.76 800.87 0.93 801.71 0.93
									 802.74 C0.93 803.86 1.63 805.45 2.78 805.45 C3.9 805.45 4.61 803.85 4.61 802.74 C4.63 801.71
									 3.79 800.87 2.78 800.87 Z" class="st1"/>
					</g>
					<g id="shape1177-176" v:mID="1177" v:groupContext="shape" transform="translate(12.8602,-2.40551)">
						<title>Sheet.1177</title>
						<path d="M7.65 806.36 L3.04 806.36 L2.97 805.97 C2.92 805.63 2.82 805.33 2.72 805.18 C2.17 804.32 1.52 803.81
									 0.62 803.5 L0 803.29 L0.41 802.78 C0.86 802.19 1.43 801.8 2.11 801.57 C2.29 801.49 2.96 801.24
									 4.37 801.24 C5.79 801.24 6.46 801.49 6.63 801.57 C7.47 801.85 8.09 802.35 8.6 803.13 C8.84 803.5
									 8.95 804.14 8.96 804.48 L8.96 804.49 L8.96 804.51 C8.96 804.55 8.96 804.6 8.96 804.65 L8.96
									 804.9 C8.96 805.7 8.37 806.36 7.65 806.36 ZM3.79 805.43 L7.64 805.43 C7.85 805.43 8.02 805.18
									 8.02 804.89 L8.02 804.65 C8.02 804.6 8.02 804.53 8.02 804.48 C8.01 804.22 7.93 803.79 7.82 803.63
									 C7.43 803.03 6.97 802.66 6.32 802.43 L6.25 802.41 C6.25 802.41 5.71 802.15 4.37 802.15 C3.03
									 802.15 2.5 802.41 2.48 802.41 L2.42 802.43 C2.09 802.54 1.81 802.68 1.56 802.89 C2.34 803.29
									 2.96 803.86 3.48 804.68 C3.63 804.89 3.73 805.17 3.79 805.43 Z" class="st1"/>
					</g>
					<g id="shape1178-178" v:mID="1178" v:groupContext="shape" transform="translate(14.4727,-7.22975)">
						<title>Sheet.1178</title>
						<path d="M2.76 806.36 C0.98 806.36 0 804.22 0 802.72 C0 801.19 1.24 799.93 2.76 799.93 C4.3 799.93 5.54 801.19
									 5.54 802.72 C5.54 804.26 4.57 806.36 2.76 806.36 ZM2.76 800.87 C1.74 800.87 0.93 801.71 0.93
									 802.74 C0.93 803.83 1.64 805.45 2.76 805.45 C3.9 805.45 4.61 803.87 4.61 802.74 C4.61 801.71
									 3.78 800.87 2.76 800.87 Z" class="st1"/>
					</g>
				</g>
			</g>
		</g>
		<g id="shape1180-180" v:mID="1180" v:groupContext="shape" transform="translate(181.025,-0.375)">
			<title>Sheet.1180</title>
			<desc>Tenant Organization</desc>
			<v:textBlock v:margins="rect(4,4,4,4)" v:tabSpace="42.5197" v:verticalAlign="0"/>
			<v:textRect cx="111.585" cy="749.665" width="223.17" height="113.386"/>
			<rect x="0" y="692.972" width="223.17" height="113.386" class="st2"/>
			<text x="52.24" y="709.57" class="st3" v:langID="1045"><v:paragraph v:horizAlign="1"/><v:tabList/>Tenant Organization</text>		</g>
		<g id="shape1181-183" v:mID="1181" v:groupContext="shape" transform="translate(201.267,-13.1579)">
			<title>Sheet.1181</title>
			<desc>Project Role: Member</desc>
			<v:textBlock v:margins="rect(4,4,4,4)" v:tabSpace="42.5197"/>
			<v:textRect cx="91.3425" cy="790.497" width="182.69" height="31.721"/>
			<rect x="0" y="774.636" width="182.685" height="31.721" class="st5"/>
			<text x="4" y="786.81" class="st6" v:langID="1045"><v:paragraph/><v:tabList/>Project Role:<v:newlineChar/><v:paragraph
						v:indentFirst="-18" v:indentLeft="18" v:bullet="1"/><tspan x="4" dy="1.211em" class="st7" v:isBullet="true">·</tspan><tspan
						class="st7"> </tspan>Member</text>		</g>
		<g id="group1182-188" transform="translate(224.878,-52.546)" v:mID="1182" v:groupContext="group">
			<title>Sheet.1182</title>
			<g id="shape1183-189" v:mID="1183" v:groupContext="shape" transform="translate(33.0761,-5.53609)">
				<title>Sheet.1183</title>
				<desc>Tenant User Group</desc>
				<v:textBlock v:margins="rect(4,4,4,4)" v:tabSpace="42.5197"/>
				<v:textRect cx="51.1934" cy="796.033" width="102.39" height="20.6489"/>
				<rect x="0" y="785.709" width="102.387" height="20.6489" class="st5"/>
				<text x="4" y="799.63" class="st6" v:langID="1045"><v:paragraph/><v:tabList/>Tenant User Group</text>			</g>
			<g id="group1184-192" v:mID="1184" v:groupContext="group">
				<title>Sheet.1184</title>
				<g id="shape1185-193" v:mID="1185" v:groupContext="shape">
					<title>Sheet.1185</title>
					<path d="M15.86 774.64 C7.1 774.64 0 781.73 0 790.5 C0 799.26 7.1 806.36 15.86 806.36 C24.62 806.36 31.72 799.26
								 31.72 790.5 C31.71 781.75 24.61 774.65 15.86 774.64 ZM15.86 805.43 C7.61 805.43 0.93 798.74 0.93
								 790.5 C0.93 782.25 7.61 775.56 15.86 775.56 C24.11 775.56 30.8 782.25 30.8 790.5 C30.78 798.74 24.11
								 805.42 15.86 805.43 Z" class="st1"/>
				</g>
				<g id="group1186-195" transform="translate(4.87711,-8.94798)" v:mID="1186" v:groupContext="group">
					<title>Sheet.1186</title>
					<g id="shape1187-196" v:mID="1187" v:groupContext="shape" transform="translate(6.04021,0)">
						<title>Sheet.1187</title>
						<path d="M8.37 806.36 L1.36 806.36 C0.61 806.36 0 805.67 0 804.82 C0 804.82 0 804.48 0 804.4 L0 804.39 L0
									 804.37 C0.01 804.03 0.12 803.34 0.37 802.95 C0.91 802.11 1.57 801.59 2.46 801.28 C2.63 801.2
									 3.34 800.93 4.86 800.93 C6.38 800.93 7.1 801.19 7.27 801.28 C8.15 801.57 8.82 802.1 9.36 802.95
									 C9.61 803.34 9.71 804.03 9.73 804.37 L9.73 804.39 L9.73 804.4 C9.73 804.48 9.73 804.82 9.73
									 804.82 C9.73 805.67 9.12 806.36 8.37 806.36 ZM0.93 804.39 C0.93 804.49 0.93 804.82 0.93 804.82
									 C0.93 805.15 1.12 805.43 1.36 805.43 L8.37 805.43 C8.6 805.43 8.8 805.15 8.8 804.82 C8.8 804.82
									 8.8 804.49 8.8 804.39 C8.79 804.1 8.7 803.63 8.58 803.46 C8.14 802.8 7.65 802.39 6.95 802.17
									 L6.89 802.14 C6.89 802.14 6.3 801.88 4.86 801.88 C3.41 801.88 2.84 802.14 2.83 802.14 L2.78
									 802.17 C2.08 802.41 1.57 802.8 1.15 803.46 C1.03 803.63 0.93 804.1 0.93 804.39 Z" class="st1"/>
					</g>
					<g id="shape1188-198" v:mID="1188" v:groupContext="shape" transform="translate(7.96991,-5.16789)">
						<title>Sheet.1188</title>
						<path d="M2.93 806.36 C1.02 806.36 0 804.12 0 802.51 C0 800.89 1.31 799.56 2.93 799.56 C4.55 799.56 5.87
									 800.89 5.87 802.51 C5.86 804.08 4.82 806.36 2.93 806.36 ZM2.93 800.49 C1.82 800.49 0.93 801.4
									 0.93 802.51 C0.93 803.73 1.69 805.43 2.93 805.43 C4.18 805.43 4.94 803.73 4.94 802.51 C4.93
									 801.39 4.03 800.49 2.93 800.49 Z" class="st1"/>
					</g>
					<g id="shape1189-200" v:mID="1189" v:groupContext="shape" transform="translate(0,-2.40551)">
						<title>Sheet.1189</title>
						<path d="M5.92 806.36 L1.31 806.36 C0.58 806.36 0 805.7 0 804.89 L0 804.64 C0 804.59 0 804.53 0 804.49 L0
									 804.48 L0 804.47 C0.01 804.14 0.11 803.5 0.36 803.12 C0.86 802.34 1.48 801.84 2.33 801.56 C2.5
									 801.48 3.17 801.23 4.59 801.23 C6 801.23 6.67 801.48 6.85 801.56 C7.55 801.8 8.09 802.18 8.55
									 802.76 L8.96 803.28 L8.34 803.49 C7.44 803.79 6.79 804.31 6.25 805.17 C6.16 805.31 6.05 805.62
									 6 805.96 L5.92 806.36 ZM0.93 804.49 C0.93 804.55 0.93 804.6 0.93 804.67 L0.93 804.9 C0.93 805.19
									 1.1 805.45 1.31 805.45 L5.15 805.45 C5.22 805.18 5.31 804.9 5.46 804.69 C5.99 803.89 6.6 803.3
									 7.38 802.92 C7.12 802.72 6.85 802.58 6.52 802.46 L6.45 802.43 C6.45 802.43 5.91 802.18 4.57
									 802.18 C3.22 802.18 2.7 802.43 2.68 802.43 L2.63 802.46 C1.98 802.67 1.52 803.04 1.12 803.65
									 C1.02 803.79 0.93 804.23 0.93 804.49 Z" class="st1"/>
					</g>
					<g id="shape1190-202" v:mID="1190" v:groupContext="shape" transform="translate(1.79753,-7.22975)">
						<title>Sheet.1190</title>
						<path d="M2.78 806.36 C0.96 806.36 0 804.26 0 802.72 C0 801.19 1.24 799.93 2.78 799.93 C4.3 799.93 5.54 801.19
									 5.54 802.72 C5.55 804.22 4.56 806.36 2.78 806.36 ZM2.78 800.87 C1.76 800.87 0.93 801.71 0.93
									 802.74 C0.93 803.86 1.63 805.45 2.78 805.45 C3.9 805.45 4.61 803.85 4.61 802.74 C4.63 801.71
									 3.79 800.87 2.78 800.87 Z" class="st1"/>
					</g>
					<g id="shape1191-204" v:mID="1191" v:groupContext="shape" transform="translate(12.8602,-2.40551)">
						<title>Sheet.1191</title>
						<path d="M7.65 806.36 L3.04 806.36 L2.97 805.97 C2.92 805.63 2.82 805.33 2.72 805.18 C2.17 804.32 1.52 803.81
									 0.62 803.5 L0 803.29 L0.41 802.78 C0.86 802.19 1.43 801.8 2.11 801.57 C2.29 801.49 2.96 801.24
									 4.37 801.24 C5.79 801.24 6.46 801.49 6.63 801.57 C7.47 801.85 8.09 802.35 8.6 803.13 C8.84 803.5
									 8.95 804.14 8.96 804.48 L8.96 804.49 L8.96 804.51 C8.96 804.55 8.96 804.6 8.96 804.65 L8.96
									 804.9 C8.96 805.7 8.37 806.36 7.65 806.36 ZM3.79 805.43 L7.64 805.43 C7.85 805.43 8.02 805.18
									 8.02 804.89 L8.02 804.65 C8.02 804.6 8.02 804.53 8.02 804.48 C8.01 804.22 7.93 803.79 7.82 803.63
									 C7.43 803.03 6.97 802.66 6.32 802.43 L6.25 802.41 C6.25 802.41 5.71 802.15 4.37 802.15 C3.03
									 802.15 2.5 802.41 2.48 802.41 L2.42 802.43 C2.09 802.54 1.81 802.68 1.56 802.89 C2.34 803.29
									 2.96 803.86 3.48 804.68 C3.63 804.89 3.73 805.17 3.79 805.43 Z" class="st1"/>
					</g>
					<g id="shape1192-206" v:mID="1192" v:groupContext="shape" transform="translate(14.4727,-7.22975)">
						<title>Sheet.1192</title>
						<path d="M2.76 806.36 C0.98 806.36 0 804.22 0 802.72 C0 801.19 1.24 799.93 2.76 799.93 C4.3 799.93 5.54 801.19
									 5.54 802.72 C5.54 804.26 4.57 806.36 2.76 806.36 ZM2.76 800.87 C1.74 800.87 0.93 801.71 0.93
									 802.74 C0.93 803.83 1.64 805.45 2.76 805.45 C3.9 805.45 4.61 803.87 4.61 802.74 C4.61 801.71
									 3.78 800.87 2.76 800.87 Z" class="st1"/>
					</g>
				</g>
			</g>
		</g>
		<g id="shape1193-208" v:mID="1193" v:groupContext="shape" v:layerMember="0" transform="translate(282.039,-150.611)">
			<title>Dynamic connector.1193</title>
			<path d="M7.09 806.36 L7.09 836.67" class="st13"/>
		</g>
		<g id="shape1194-214" v:mID="1194" v:groupContext="shape" v:layerMember="0" transform="translate(111.939,-269.666)">
			<title>Dynamic connector.1194</title>
			<path d="M0 806.36 L0 894.94 L104.52 894.94" class="st11"/>
		</g>
		<g id="shape1195-219" v:mID="1195" v:groupContext="shape" v:layerMember="0" transform="translate(488.248,-269.666)">
			<title>Dynamic connector.1195</title>
			<path d="M0 806.36 L0 894.94 L-126.46 894.94" class="st11"/>
		</g>
		<g id="shape1196-224" v:mID="1196" v:groupContext="shape" v:layerMember="0" transform="translate(275.508,-492.186)">
			<title>Dynamic connector.1196</title>
			<path d="M0 806.36 L0 946.67 L-44.92 946.67" class="st11"/>
		</g>
		<g id="shape1197-229" v:mID="1197" v:groupContext="shape" v:layerMember="0" transform="translate(301.617,-492.186)">
			<title>Dynamic connector.1197</title>
			<path d="M0 806.36 L0 946.63 L45.43 946.63" class="st11"/>
		</g>
		<g id="shape1198-234" v:mID="1198" v:groupContext="shape" v:layerMember="0" transform="translate(166.852,-602.737)">
			<title>Dynamic connector.1198</title>
			<path d="M0 806.36 L0 886.58 L48.95 886.58" class="st11"/>
		</g>
		<g id="shape1199-239" v:mID="1199" v:groupContext="shape" v:layerMember="0" transform="translate(391.572,-602.737)">
			<title>Dynamic connector.1199</title>
			<path d="M0 806.36 L0 886.44 L-30.44 886.44" class="st11"/>
		</g>
	</g>
</svg>
