<?xml version="1.0" encoding="UTF-8" standalone="no"?>
<!-- Generated by Microsoft Visio, SVG Export ntp.svg Page-1 -->

<svg
   width="10.2362in"
   height="8.66142in"
   viewBox="0 0 737.008 623.622"
   xml:space="preserve"
   color-interpolation-filters="sRGB"
   class="st21"
   version="1.1"
   id="svg706"
   sodipodi:docname="ntp.svg"
   inkscape:version="1.1 (c68e22c387, 2021-05-23)"
   xmlns:inkscape="http://www.inkscape.org/namespaces/inkscape"
   xmlns:sodipodi="http://sodipodi.sourceforge.net/DTD/sodipodi-0.dtd"
   xmlns:xlink="http://www.w3.org/1999/xlink"
   xmlns="http://www.w3.org/2000/svg"
   xmlns:svg="http://www.w3.org/2000/svg"
   xmlns:v="http://schemas.microsoft.com/visio/2003/SVGExtensions/"><sodipodi:namedview
   id="namedview708"
   pagecolor="#ffffff"
   bordercolor="#666666"
   borderopacity="1.0"
   inkscape:pageshadow="2"
   inkscape:pageopacity="0.0"
   inkscape:pagecheckerboard="0"
   inkscape:document-units="in"
   showgrid="false"
   inkscape:zoom="1.0499145"
   inkscape:cx="490.99238"
   inkscape:cy="409.08094"
   inkscape:window-width="5120"
   inkscape:window-height="1377"
   inkscape:window-x="-8"
   inkscape:window-y="-8"
   inkscape:window-maximized="1"
   inkscape:current-layer="g704" />
	<v:documentProperties
   v:langID="1033"
   v:metric="true"
   v:viewMarkup="false">
		<v:userDefs>
			<v:ud
   v:nameU="msvConvertTheme" />
		</v:userDefs>
	</v:documentProperties>

	<style
   type="text/css"
   id="style2">
	<![CDATA[
		.st1 {fill:#e8eef7;stroke:#000000;stroke-linecap:round;stroke-linejoin:round;stroke-width:0.24}
		.st2 {fill:#ff00ff;fill-opacity:0;stroke:#000000;stroke-linecap:round;stroke-linejoin:round;stroke-opacity:0;stroke-width:0.72}
		.st3 {fill:url(#grad12-9);stroke:#ffffff;stroke-linecap:round;stroke-linejoin:round;stroke-width:0.72}
		.st4 {fill:url(#grad0-15);stroke:#ffffff;stroke-linecap:round;stroke-linejoin:round;stroke-width:0.72}
		.st5 {fill:url(#grad11-19);stroke:#000000;stroke-linecap:round;stroke-linejoin:round;stroke-width:0.72}
		.st6 {stroke:#000000;stroke-linecap:round;stroke-linejoin:round;stroke-width:1.5}
		.st7 {fill:url(#grad7-29);stroke:#000000;stroke-linecap:round;stroke-linejoin:round;stroke-width:0.12}
		.st8 {fill:url(#grad7-33);stroke:#000000;stroke-linecap:round;stroke-linejoin:round;stroke-width:0.12}
		.st9 {fill:#000000;font-family:Calibri;font-size:1.00001em}
		.st10 {fill:none;stroke:none;stroke-linecap:round;stroke-linejoin:round;stroke-width:0.75}
		.st11 {fill:#000000;font-family:Calibri;font-size:1.16666em;font-weight:bold}
		.st12 {fill:#d8d8d8;stroke:#000000;stroke-linecap:round;stroke-linejoin:round;stroke-width:0.24}
		.st13 {fill:#000000;font-family:Calibri;font-size:1.00001em;font-weight:bold}
		.st14 {fill:#ffffff;stroke:none;stroke-linecap:butt;stroke-width:0.75}
		.st15 {fill:#515050;stroke:none;stroke-linecap:butt;stroke-width:0.75}
		.st16 {marker-end:url(#mrkr13-140);stroke:#000000;stroke-linecap:round;stroke-linejoin:round;stroke-width:1.5}
		.st17 {fill:#000000;fill-opacity:1;stroke:#000000;stroke-opacity:1;stroke-width:0.37313432835821}
		.st18 {fill:#000000;font-family:Calibri;font-size:0.916672em}
		.st19 {fill:#515150;stroke:none;stroke-linecap:butt;stroke-width:0.75}
		.st20 {font-size:1em}
		.st21 {fill:none;fill-rule:evenodd;font-size:12px;overflow:visible;stroke-linecap:square;stroke-miterlimit:3}
	]]>
	</style>

	<defs
   id="Patterns_And_Gradients">
		<pattern
   id="grad12-9"
   x="0"
   y="0"
   width="1"
   height="1"
   patternContentUnits="objectBoundingBox">
			<path
   d="M 0 0 L 0 1 L 1 1 z"
   style="fill:url(#grad0-10)"
   id="path4" />
			<path
   d="M 0 0 L 1 0 L 1 1 z"
   style="fill:url(#grad0-11)"
   id="path6" />
		</pattern>
		<linearGradient
   id="grad0-10"
   x1="0"
   y1="0"
   x2="1"
   y2="0"
   gradientTransform="rotate(90 0.5 0.5)">
			<stop
   offset="0"
   stop-color="#ffffff"
   stop-opacity="1"
   id="stop9" />
			<stop
   offset="1"
   stop-color="#969696"
   stop-opacity="1"
   id="stop11" />
		</linearGradient>
		<linearGradient
   id="grad0-11"
   x1="0"
   y1="0"
   x2="1"
   y2="0"
   gradientTransform="rotate(360 0.5 0.5)">
			<stop
   offset="0"
   stop-color="#ffffff"
   stop-opacity="1"
   id="stop14" />
			<stop
   offset="1"
   stop-color="#969696"
   stop-opacity="1"
   id="stop16" />
		</linearGradient>
		<linearGradient
   id="grad0-15"
   x1="0"
   y1="0"
   x2="1"
   y2="0"
   gradientTransform="rotate(270 0.5 0.5)">
			<stop
   offset="0"
   stop-color="#ffffff"
   stop-opacity="1"
   id="stop19" />
			<stop
   offset="1"
   stop-color="#dddddd"
   stop-opacity="1"
   id="stop21" />
		</linearGradient>
		<pattern
   id="grad11-19"
   x="0"
   y="0"
   width="1"
   height="1"
   patternContentUnits="objectBoundingBox">
			<path
   d="M 0 1 L 0 0 L 1 0 z"
   style="fill:url(#grad0-20)"
   id="path24" />
			<path
   d="M 0 1 L 1 1 L 1 0 z"
   style="fill:url(#grad0-21)"
   id="path26" />
		</pattern>
		<linearGradient
   id="grad0-20"
   x1="0"
   y1="0"
   x2="1"
   y2="0"
   gradientTransform="rotate(180 0.5 0.5)">
			<stop
   offset="0"
   stop-color="#ffffff"
   stop-opacity="1"
   id="stop29" />
			<stop
   offset="1"
   stop-color="#c0c0c0"
   stop-opacity="1"
   id="stop31" />
		</linearGradient>
		<linearGradient
   id="grad0-21"
   x1="0"
   y1="0"
   x2="1"
   y2="0"
   gradientTransform="rotate(90 0.5 0.5)">
			<stop
   offset="0"
   stop-color="#ffffff"
   stop-opacity="1"
   id="stop34" />
			<stop
   offset="1"
   stop-color="#c0c0c0"
   stop-opacity="1"
   id="stop36" />
		</linearGradient>
		<radialGradient
   id="grad7-29"
   cx="0"
   cy="0"
   r="1.4">
			<stop
   offset="0"
   stop-color="#ffffff"
   stop-opacity="1"
   id="stop39" />
			<stop
   offset="1"
   stop-color="#00ff00"
   stop-opacity="1"
   id="stop41" />
		</radialGradient>
		<radialGradient
   id="grad7-33"
   cx="0"
   cy="0"
   r="1.4">
			<stop
   offset="0"
   stop-color="#ffffff"
   stop-opacity="1"
   id="stop44" />
			<stop
   offset="1"
   stop-color="#ff0000"
   stop-opacity="1"
   id="stop46" />
		</radialGradient>
	</defs>
	<defs
   id="Markers">
		<g
   id="lend13">
			<path
   d="M 3 1 L 0 0 L 3 -1 L 3 1 "
   style="stroke:none"
   id="path50" />
		</g>
		<marker
   id="mrkr13-140"
   class="st17"
   v:arrowType="13"
   v:arrowSize="2"
   v:setback="8.04"
   refX="-8.04"
   orient="auto"
   markerUnits="strokeWidth"
   overflow="visible">
			<use
   xlink:href="#lend13"
   transform="scale(-2.68,-2.68) "
   id="use53" />
		</marker>
	</defs>
	<g
   v:mID="0"
   v:index="1"
   v:groupContext="foregroundPage"
   id="g704">
		<title
   id="title57">Page-1</title>
		<v:pageProperties
   v:drawingScale="0.0393701"
   v:pageScale="0.0393701"
   v:drawingUnits="24"
   v:shadowOffsetX="8.50394"
   v:shadowOffsetY="-8.50394" />
		<v:layer
   v:name="symbols"
   v:index="0" />
		<v:layer
   v:name="Connector"
   v:index="1" />
		<g
   id="shape26-1"
   v:mID="26"
   v:groupContext="shape"
   transform="translate(52.6181,-0.24)">
			<title
   id="title59">Triangle</title>
			<v:userDefs>
				<v:ud
   v:nameU="visVersion"
   v:val="VT0(14):26" />
			</v:userDefs>
			<path
   d="M680.26 623.62 L315.71 22.68 L-48.84 623.62 L680.26 623.62 Z"
   class="st1"
   id="path61" />
		</g>
		<g
   id="group1-3"
   transform="translate(121.89,-416.693)"
   v:mID="1"
   v:groupContext="group">
			<v:custProps>
				<v:cp
   v:nameU="ShapeClass"
   v:lbl="ShapeClass"
   v:type="0"
   v:invis="true"
   v:ask="false"
   v:langID="1033"
   v:val="VT4(Equipment)" />
				<v:cp
   v:nameU="ShapeType"
   v:lbl="ShapeType"
   v:type="0"
   v:invis="true"
   v:ask="false"
   v:langID="1033"
   v:val="VT4(Device)" />
				<v:cp
   v:nameU="SubShapeType"
   v:lbl="SubShapeType"
   v:type="0"
   v:invis="true"
   v:ask="false"
   v:langID="1033"
   v:val="VT4(Switch)" />
				<v:cp
   v:nameU="Manufacturer"
   v:lbl="Manufacturer"
   v:type="0"
   v:sortKey="Equipment"
   v:invis="false"
   v:ask="false"
   v:langID="1033" />
				<v:cp
   v:nameU="ProductNumber"
   v:lbl="Product Number"
   v:type="0"
   v:sortKey="Equipment"
   v:invis="false"
   v:ask="false"
   v:langID="1033" />
				<v:cp
   v:nameU="PartNumber"
   v:lbl="Part Number"
   v:type="0"
   v:sortKey="Equipment"
   v:invis="false"
   v:ask="false"
   v:langID="1033" />
				<v:cp
   v:nameU="ProductDescription"
   v:lbl="Product Description"
   v:type="0"
   v:sortKey="Equipment"
   v:invis="false"
   v:ask="false"
   v:langID="1033" />
				<v:cp
   v:nameU="AssetNumber"
   v:lbl="Asset Number"
   v:type="0"
   v:sortKey="Asset"
   v:invis="false"
   v:ask="false"
   v:langID="1033" />
				<v:cp
   v:nameU="SerialNumber"
   v:lbl="Serial Number"
   v:type="0"
   v:sortKey="Asset"
   v:invis="false"
   v:ask="false"
   v:langID="1033" />
				<v:cp
   v:nameU="Location"
   v:lbl="Location"
   v:type="0"
   v:sortKey="Asset"
   v:invis="false"
   v:ask="false"
   v:langID="1033" />
				<v:cp
   v:nameU="Building"
   v:lbl="Building"
   v:type="0"
   v:sortKey="Asset"
   v:invis="false"
   v:ask="false"
   v:langID="1033" />
				<v:cp
   v:nameU="Room"
   v:lbl="Room"
   v:type="0"
   v:sortKey="Asset"
   v:invis="false"
   v:ask="false"
   v:langID="1033" />
				<v:cp
   v:nameU="NetworkName"
   v:lbl="Network Name"
   v:type="0"
   v:sortKey="Network"
   v:invis="false"
   v:ask="false"
   v:langID="1033" />
				<v:cp
   v:nameU="IPAddress"
   v:lbl="IP Address"
   v:type="0"
   v:sortKey="Network"
   v:invis="false"
   v:ask="false"
   v:langID="1033" />
				<v:cp
   v:nameU="SubnetMask"
   v:lbl="Subnet Mask"
   v:type="0"
   v:sortKey="Network"
   v:invis="false"
   v:ask="false"
   v:langID="1033" />
				<v:cp
   v:nameU="AdminInterface"
   v:lbl="Administrative Interface"
   v:type="0"
   v:sortKey="Network"
   v:invis="false"
   v:ask="false"
   v:langID="1033" />
				<v:cp
   v:nameU="NumberofPorts"
   v:lbl="Number of Ports"
   v:type="0"
   v:sortKey="Network"
   v:invis="false"
   v:ask="false"
   v:langID="1033" />
				<v:cp
   v:nameU="MACAddress"
   v:lbl="MAC Address"
   v:type="0"
   v:sortKey="Network"
   v:invis="false"
   v:ask="false"
   v:langID="1033" />
				<v:cp
   v:nameU="CommunityString"
   v:lbl="Community String"
   v:type="0"
   v:sortKey="Network"
   v:invis="false"
   v:ask="false"
   v:langID="1033" />
				<v:cp
   v:nameU="NetworkDescription"
   v:lbl="Network Description"
   v:type="0"
   v:sortKey="Network"
   v:invis="false"
   v:ask="false"
   v:langID="1033" />
			</v:custProps>
			<v:userDefs>
				<v:ud
   v:nameU="HasText"
   v:val="VT0(0):5" />
				<v:ud
   v:nameU="ShapeClass"
   v:val="VT0(5):26" />
				<v:ud
   v:nameU="ShapeType"
   v:val="VT0(8):26" />
				<v:ud
   v:nameU="SubShapeType"
   v:val="VT0(66):26" />
				<v:ud
   v:nameU="SolSH"
   v:val="VT15({BF0433D9-CD73-4EB5-8390-8653BE590246}):41" />
				<v:ud
   v:nameU="visLegendShape"
   v:val="VT0(2):26" />
				<v:ud
   v:nameU="visVersion"
   v:prompt=""
   v:val="VT0(14):26" />
				<v:ud
   v:nameU="HasText"
   v:prompt=""
   v:val="VT0(1):5" />
			</v:userDefs>
			<title
   id="title64">Switch</title>
			<desc
   id="desc66">External Time Source</desc>
			<g
   id="shape2-4"
   v:mID="2"
   v:groupContext="shape">
				<title
   id="title68">Sheet.2</title>
				<path
   d="M55.1 623.62 L67.01 616.82 L67.01 615.46 L68.03 614.78 L68.03 604.4 L12.93 572.6 L0 580.08 L0 590.35 L1.02         590.97 L1.02 592.33 L55.1 623.62 Z"
   class="st2"
   id="path70" />
			</g>
			<g
   id="shape3-6"
   v:mID="3"
   v:groupContext="shape"
   transform="translate(55.1024,2.27374E-13)">
				<title
   id="title73">Sheet.3</title>
				<path
   d="M0 623.62 L11.91 616.82 L11.91 615.46 L12.93 614.78 L12.93 604.4 L0 611.89 L0 623.62 Z"
   class="st3"
   id="path75" />
			</g>
			<g
   id="shape4-12"
   v:mID="4"
   v:groupContext="shape"
   transform="translate(0,-11.7354)">
				<title
   id="title78">Sheet.4</title>
				<path
   d="M0 591.82 L55.11 623.62 L68.03 616.14 L12.93 584.33 L0 591.82 Z"
   class="st4"
   id="path80" />
			</g>
			<g
   id="shape5-16"
   v:mID="5"
   v:groupContext="shape">
				<title
   id="title83">Sheet.5</title>
				<path
   d="M1.02 592.33 L55.1 623.62 L55.11 611.89 L0 580.08 L0 590.35 L1.02 590.97 L1.02 592.33 Z"
   class="st5"
   id="path85" />
			</g>
			<g
   id="shape6-22"
   v:mID="6"
   v:groupContext="shape">
				<title
   id="title88">Sheet.6</title>
				<path
   d="M0 580.08 L0 590.35 L1.02 590.97 L1.02 592.33 L55.1 623.62 L67.01 616.82 L67.01 615.46 L68.03 614.78 L68.03         604.4 L12.93 572.6 L0 580.08"
   class="st6"
   id="path90" />
			</g>
			<g
   id="group7-25"
   transform="translate(2.89704,-23.1855)"
   v:mID="7"
   v:groupContext="group">
				<title
   id="title93">Sheet.7</title>
				<g
   id="shape8-26"
   v:mID="8"
   v:groupContext="shape"
   transform="translate(-290.885,81.9742) rotate(-30)">
					<title
   id="title95">Sheet.8</title>
					<ellipse
   cx="0.396632"
   cy="622.981"
   rx="0.396632"
   ry="0.641415"
   class="st7"
   id="ellipse97" />
				</g>
				<g
   id="shape9-30"
   v:mID="9"
   v:groupContext="shape"
   transform="translate(-294.981,79.6095) rotate(-30)">
					<title
   id="title100">Sheet.9</title>
					<ellipse
   cx="0.396632"
   cy="622.981"
   rx="0.396632"
   ry="0.641415"
   class="st8"
   id="ellipse102" />
				</g>
				<g
   id="shape10-34"
   v:mID="10"
   v:groupContext="shape"
   transform="translate(-299.077,77.2449) rotate(-30)">
					<title
   id="title105">Sheet.10</title>
					<ellipse
   cx="0.396632"
   cy="622.981"
   rx="0.396632"
   ry="0.641415"
   class="st7"
   id="ellipse107" />
				</g>
				<g
   id="shape11-37"
   v:mID="11"
   v:groupContext="shape"
   transform="translate(-303.172,74.8802) rotate(-30)">
					<title
   id="title110">Sheet.11</title>
					<ellipse
   cx="0.396632"
   cy="622.981"
   rx="0.396632"
   ry="0.641415"
   class="st7"
   id="ellipse112" />
				</g>
				<g
   id="shape12-40"
   v:mID="12"
   v:groupContext="shape"
   transform="translate(-307.268,72.5155) rotate(-30)">
					<title
   id="title115">Sheet.12</title>
					<ellipse
   cx="0.396632"
   cy="622.981"
   rx="0.396632"
   ry="0.641415"
   class="st8"
   id="ellipse117" />
				</g>
				<g
   id="shape13-43"
   v:mID="13"
   v:groupContext="shape"
   transform="translate(-311.364,70.1508) rotate(-30)">
					<title
   id="title120">Sheet.13</title>
					<ellipse
   cx="0.396632"
   cy="622.981"
   rx="0.396632"
   ry="0.641415"
   class="st8"
   id="ellipse122" />
				</g>
				<g
   id="shape14-46"
   v:mID="14"
   v:groupContext="shape"
   transform="translate(-290.885,80.1968) rotate(-30)">
					<title
   id="title125">Sheet.14</title>
					<ellipse
   cx="0.396632"
   cy="622.981"
   rx="0.396632"
   ry="0.641415"
   class="st7"
   id="ellipse127" />
				</g>
				<g
   id="shape15-49"
   v:mID="15"
   v:groupContext="shape"
   transform="translate(-294.981,77.8321) rotate(-30)">
					<title
   id="title130">Sheet.15</title>
					<ellipse
   cx="0.396632"
   cy="622.981"
   rx="0.396632"
   ry="0.641415"
   class="st8"
   id="ellipse132" />
				</g>
				<g
   id="shape16-52"
   v:mID="16"
   v:groupContext="shape"
   transform="translate(-299.077,75.4674) rotate(-30)">
					<title
   id="title135">Sheet.16</title>
					<ellipse
   cx="0.396632"
   cy="622.981"
   rx="0.396632"
   ry="0.641415"
   class="st7"
   id="ellipse137" />
				</g>
				<g
   id="shape17-55"
   v:mID="17"
   v:groupContext="shape"
   transform="translate(-303.172,73.1028) rotate(-30)">
					<title
   id="title140">Sheet.17</title>
					<ellipse
   cx="0.396632"
   cy="622.981"
   rx="0.396632"
   ry="0.641415"
   class="st7"
   id="ellipse142" />
				</g>
				<g
   id="shape18-58"
   v:mID="18"
   v:groupContext="shape"
   transform="translate(-307.268,70.7381) rotate(-30)">
					<title
   id="title145">Sheet.18</title>
					<ellipse
   cx="0.396632"
   cy="622.981"
   rx="0.396632"
   ry="0.641415"
   class="st8"
   id="ellipse147" />
				</g>
				<g
   id="shape19-61"
   v:mID="19"
   v:groupContext="shape"
   transform="translate(-311.364,68.3734) rotate(-30)">
					<title
   id="title150">Sheet.19</title>
					<ellipse
   cx="0.396632"
   cy="622.981"
   rx="0.396632"
   ry="0.641415"
   class="st8"
   id="ellipse152" />
				</g>
				<g
   id="shape20-64"
   v:mID="20"
   v:groupContext="shape"
   transform="translate(-290.885,83.7135) rotate(-30)">
					<title
   id="title155">Sheet.20</title>
					<ellipse
   cx="0.396632"
   cy="622.981"
   rx="0.396632"
   ry="0.641415"
   class="st7"
   id="ellipse157" />
				</g>
				<g
   id="shape21-67"
   v:mID="21"
   v:groupContext="shape"
   transform="translate(-294.981,81.3488) rotate(-30)">
					<title
   id="title160">Sheet.21</title>
					<ellipse
   cx="0.396632"
   cy="622.981"
   rx="0.396632"
   ry="0.641415"
   class="st8"
   id="ellipse162" />
				</g>
				<g
   id="shape22-70"
   v:mID="22"
   v:groupContext="shape"
   transform="translate(-299.077,78.9841) rotate(-30)">
					<title
   id="title165">Sheet.22</title>
					<ellipse
   cx="0.396632"
   cy="622.981"
   rx="0.396632"
   ry="0.641415"
   class="st7"
   id="ellipse167" />
				</g>
				<g
   id="shape23-73"
   v:mID="23"
   v:groupContext="shape"
   transform="translate(-303.172,76.6195) rotate(-30)">
					<title
   id="title170">Sheet.23</title>
					<ellipse
   cx="0.396632"
   cy="622.981"
   rx="0.396632"
   ry="0.641415"
   class="st7"
   id="ellipse172" />
				</g>
				<g
   id="shape24-76"
   v:mID="24"
   v:groupContext="shape"
   transform="translate(-307.268,74.2548) rotate(-30)">
					<title
   id="title175">Sheet.24</title>
					<ellipse
   cx="0.396632"
   cy="622.981"
   rx="0.396632"
   ry="0.641415"
   class="st8"
   id="ellipse177" />
				</g>
				<g
   id="shape25-79"
   v:mID="25"
   v:groupContext="shape"
   transform="translate(-311.364,71.8901) rotate(-30)">
					<title
   id="title180">Sheet.25</title>
					<ellipse
   cx="0.396632"
   cy="622.981"
   rx="0.396632"
   ry="0.641415"
   class="st8"
   id="ellipse182" />
				</g>
			</g>
			<g
   id="shape1-82"
   v:mID="1"
   v:groupContext="groupContent">
				<v:textBlock
   v:margins="rect(4,4,4,4)"
   v:tabSpace="42.5197" />
				<v:textRect
   cx="34.0157"
   cy="634.824"
   width="113.72"
   height="22.4037" />
				<text
   x="-17.48"
   y="638.42"
   class="st9"
   v:langID="1033"
   id="text186"><v:paragraph
   v:horizAlign="1" /><v:tabList />External Time Source</text>			</g>
		</g>
		<g
   id="shape27-84"
   v:mID="27"
   v:groupContext="shape"
   transform="translate(236.60806,-416.48004)">
			<title
   id="title190">Sheet.27</title>
			<desc
   id="desc192">DPC Domain</desc>
			<v:textBlock
   v:margins="rect(4,4,4,4)"
   v:tabSpace="42.5197" />
			<v:textRect
   cx="76"
   cy="613.622"
   width="152"
   height="20" />
			<rect
   x="0"
   y="603.62201"
   width="152"
   height="20"
   class="st10"
   id="rect194" />
					<text
   xml:space="preserve"
   style="font-style:normal;font-weight:normal;font-size:14px;line-height:1.25;font-family:sans-serif;fill:#000000;fill-opacity:1;stroke:none;stroke-width:0.750002"
   x="85.561737"
   y="580.77869"
   id="text2398"><tspan
     sodipodi:role="line"
     id="tspan2396"
     style="font-size:14px;stroke-width:0.750002"
     x="85.561737"
     y="580.77869">VCS Domain</tspan></text></g>
		<g
   id="shape28-87"
   v:mID="28"
   v:groupContext="shape"
   transform="translate(267.331,-20.0825)">
			<title
   id="title199">Rounded rectangle.28</title>
			<v:userDefs>
				<v:ud
   v:nameU="visVersion"
   v:val="VT0(14):26" />
			</v:userDefs>
			<path
   d="m 192.76,623.62 a 14.1733,14.1733 -180 0 0 14.17,-14.17 V 425.2 A 14.1733,14.1733 -180 0 0 192.76,411.02 H 14.17 A 14.1733,14.1733 -180 0 0 0,425.2 v 184.25 a 14.1733,14.1733 -180 0 0 14.17,14.17 z"
   class="st12"
   id="path201" />
		</g>
		
		<g
   id="shape30-91"
   v:mID="30"
   v:groupContext="shape"
   transform="translate(283.287,-303.547)">
			<title
   id="title209">Rounded rectangle.30</title>
			<v:userDefs>
				<v:ud
   v:nameU="visVersion"
   v:val="VT0(14):26" />
			</v:userDefs>
			<path
   d="M155.91 623.62 A14.1733 14.1733 -180 0 0 170.08 609.45 L170.08 510.24 A14.1733 14.1733 -180 0 0 155.91 496.06        L14.17 496.06 A14.1733 14.1733 -180 0 0 -0 510.24 L0 609.45 A14.1733 14.1733 -180 0 0 14.17 623.62 L155.91        623.62 Z"
   class="st12"
   id="path211" />
		</g>
		<g
   id="shape31-93"
   v:mID="31"
   v:groupContext="shape"
   transform="translate(334.311,-411.106)">
			<title
   id="title214">Sheet.31</title>
			<desc
   id="desc216">Central Site</desc>
			<v:textBlock
   v:margins="rect(4,4,4,4)"
   v:tabSpace="42.5197" />
			<v:textRect
   cx="34.0157"
   cy="613.622"
   width="68.04"
   height="20" />
			<rect
   x="0"
   y="603.622"
   width="68.0315"
   height="20"
   class="st10"
   id="rect218" />
			<text
   x="5.1799998"
   y="617.21997"
   class="st13"
   v:langID="1045"
   id="text220"><v:paragraph
   v:horizAlign="1" /><v:tabList />Primary Site</text>		</g>
		
		<g
   id="shape33-99"
   v:mID="33"
   v:groupContext="shape"
   transform="translate(274.417,-208.508)">
			<title
   id="title232">Sheet.33</title>
			<desc
   id="desc234">Remote Site</desc>
			<v:textBlock
   v:margins="rect(4,4,4,4)"
   v:tabSpace="42.5197" />
			<v:textRect
   cx="35.4331"
   cy="613.622"
   width="70.87"
   height="20" />
			<rect
   x="0"
   y="603.62201"
   width="70.866096"
   height="20"
   class="st10"
   id="rect236" />
			<text
   x="5.0599999"
   y="617.21997"
   class="st13"
   v:langID="1045"
   id="text238"><v:paragraph
   v:horizAlign="1" /><v:tabList />Secondary Site</text>		</g>
		<g
   id="group42-102"
   transform="translate(314.704,-370.009)"
   v:mID="42"
   v:groupContext="group"
   v:layerMember="0">
			<title
   id="title241">Domain Controller</title>
			<g
   id="group43-103"
   transform="translate(-1.51879E-13,-1.80286)"
   v:mID="43"
   v:groupContext="group"
   v:layerMember="0">
				<title
   id="title243">Sheet.43</title>
				<g
   id="shape44-104"
   v:mID="44"
   v:groupContext="shape"
   v:layerMember="0">
					<title
   id="title245">Sheet.44</title>
					<path
   d="M0 623.62 L0 592.52 C0 590.76 1.4 589.37 3.16 589.37 L15.78 589.37 C17.53 589.37 18.93 590.76 18.93          592.52 L18.93 623.62 L0 623.62 Z"
   class="st14"
   id="path247" />
				</g>
				<g
   id="shape45-106"
   v:mID="45"
   v:groupContext="shape"
   v:layerMember="0"
   transform="translate(1.35215,-1.35215)">
					<title
   id="title250">Sheet.45</title>
					<path
   d="M14.42 592.07 L1.8 592.07 C0.81 592.07 0 592.88 0 593.87 L0 623.62 L16.23 623.62 L16.23 593.87 C16.23          592.88 15.41 592.07 14.42 592.07 ZM13.07 620.02 L3.16 620.02 L3.16 618.66 L13.07 618.66 L13.07 620.02          ZM13.07 615.96 L3.16 615.96 L3.16 614.61 L13.07 614.61 L13.07 615.96 ZM13.07 597.48 L3.16 597.48          L3.16 596.13 L13.07 596.13 L13.07 597.48 Z"
   class="st15"
   id="path252" />
				</g>
			</g>
			<g
   id="group46-108"
   transform="translate(9.3749,0)"
   v:mID="46"
   v:groupContext="group"
   v:layerMember="0">
				<title
   id="title256">Sheet.46</title>
				<g
   id="shape47-109"
   v:mID="47"
   v:groupContext="shape"
   v:layerMember="0">
					<title
   id="title258">Sheet.47</title>
					<path
   d="M2.25 623.62 C1.4 623.62 0.72 623.26 0.36 622.63 C-0 622 -0 621.19 0.45 620.47 L8.38 605.86 C8.83 605.1          9.51 604.69 10.23 604.69 C10.95 604.69 11.63 605.1 12.08 605.82 L20.06 620.47 C20.46 621.19 20.51          621.95 20.1 622.59 C19.74 623.22 19.02 623.58 18.21 623.58 L2.25 623.58 L2.25 623.62 Z"
   class="st14"
   id="path260" />
				</g>
				<g
   id="shape48-111"
   v:mID="48"
   v:groupContext="shape"
   v:layerMember="0"
   transform="translate(1.21693,-1.35215)">
					<title
   id="title263">Sheet.48</title>
					<path
   d="M17.67 622.5 L9.65 607.85 C9.28 607.22 8.7 607.22 8.34 607.85 L0.36 622.5 C0 623.13 0.32 623.62 1.04          623.62 L16.99 623.62 C17.71 623.62 18.03 623.13 17.67 622.5 Z"
   class="st15"
   id="path265" />
				</g>
			</g>
		</g>
		<g
   id="group34-113"
   transform="translate(367.842,-164.857)"
   v:mID="34"
   v:groupContext="group"
   v:layerMember="0">
			<title
   id="title270">Domain Controller.34</title>
			<g
   id="group35-114"
   transform="translate(0,-1.97388)"
   v:mID="35"
   v:groupContext="group"
   v:layerMember="0">
				<title
   id="title272">Sheet.35</title>
				<g
   id="shape36-115"
   v:mID="36"
   v:groupContext="shape"
   v:layerMember="0">
					<title
   id="title274">Sheet.36</title>
					<path
   d="m 0,623.62 v -34.05 c 0,-1.92 1.53,-3.45 3.45,-3.45 h 13.82 c 1.93,0 3.46,1.53 3.46,3.45 v 34.05 z"
   class="st14"
   id="path276" />
				</g>
				<g
   id="shape37-117"
   v:mID="37"
   v:groupContext="shape"
   v:layerMember="0"
   transform="translate(1.48041,-1.48041)">
					<title
   id="title279">Sheet.37</title>
					<path
   d="M 15.79,589.08 H 1.97 c -1.08,0 -1.97,0.89 -1.97,1.97 v 32.57 h 17.76 v -32.57 c 0,-1.08 -0.88,-1.97 -1.97,-1.97 z m -1.48,30.59 H 3.45 v -1.48 h 10.86 z m 0,-4.44 H 3.45 v -1.48 h 10.86 z m 0,-20.23 H 3.45 v -1.48 h 10.86 z"
   class="st15"
   id="path281" />
				</g>
			</g>
			<g
   id="group38-119"
   transform="translate(10.2642)"
   v:mID="38"
   v:groupContext="group"
   v:layerMember="0">
				<title
   id="title285">Sheet.38</title>
				<g
   id="shape39-120"
   v:mID="39"
   v:groupContext="shape"
   v:layerMember="0">
					<title
   id="title287">Sheet.39</title>
					<path
   d="m 2.47,623.62 c -0.94,0 -1.68,-0.39 -2.08,-1.08 C 0,621.85 0,620.96 0.49,620.17 l 8.69,-15.99 c 0.49,-0.84 1.23,-1.28 2.02,-1.28 0.79,0 1.53,0.44 2.03,1.23 l 8.73,16.04 c 0.44,0.79 0.49,1.63 0.05,2.32 -0.4,0.69 -1.19,1.08 -2.07,1.08 H 2.47 Z"
   class="st14"
   id="path289" />
				</g>
				<g
   id="shape40-122"
   v:mID="40"
   v:groupContext="shape"
   v:layerMember="0"
   transform="translate(1.33237,-1.48041)">
					<title
   id="title292">Sheet.40</title>
					<path
   d="m 19.34,622.39 -8.78,-16.04 c -0.39,-0.69 -1.04,-0.69 -1.43,0 l -8.74,16.04 c -0.39,0.69 -0.04,1.23 0.74,1.23 H 18.6 c 0.79,0 1.14,-0.54 0.74,-1.23 z"
   class="st15"
   id="path294" />
				</g>
			</g>
		</g>
		
		<g
   id="shape71-135"
   v:mID="71"
   v:groupContext="shape"
   v:layerMember="1"
   transform="matrix(0.65545868,-0.80008685,0.75523103,0.69438867,-58.752124,-17.561653)">
			<title
   id="title328">Dynamic connector</title>
			<path
   d="M 0,623.62 48.84,497.45"
   class="st16"
   id="path330" />
		</g>
		<g
   id="shape73-141"
   v:mID="73"
   v:groupContext="shape"
   v:layerMember="1"
   transform="translate(310.039,-388.038)">
			<title
   id="title333">Dynamic connector.73</title>
			<path
   d="M0 623.62 L-104.3 587.35"
   class="st16"
   id="path335" />
		</g>
		<g
   id="shape74-146"
   v:mID="74"
   v:groupContext="shape"
   transform="translate(293.563,-346.067)">
			<title
   id="title338">Sheet.74</title>
			<desc
   id="desc340">PDC Emulator</desc>
			<v:textBlock
   v:margins="rect(4,4,4,4)"
   v:tabSpace="42.5197" />
			<v:textRect
   cx="43.315"
   cy="613.622"
   width="86.63"
   height="20" />
			<rect
   x="0"
   y="603.622"
   width="86.6299"
   height="20"
   class="st10"
   id="rect342" />
			<text
   x="9.58"
   y="617.22"
   class="st9"
   v:langID="1045"
   id="text344"><v:paragraph
   v:horizAlign="1" /><v:tabList />PDC Emulator</text>		</g>
		
		<g
   id="shape76-152"
   v:mID="76"
   v:groupContext="shape"
   transform="translate(426.071,-177.327)">
			<title
   id="title356">Sheet.76</title>
			<desc
   id="desc358">Site DC</desc>
			<v:textBlock
   v:margins="rect(4,4,4,4)"
   v:tabSpace="42.5197" />
			<v:textRect
   cx="26.6614"
   cy="613.622"
   width="53.33"
   height="20" />
			<rect
   x="0"
   y="603.62201"
   width="53.3228"
   height="20"
   class="st10"
   id="rect360" />
			<text
   x="10.73"
   y="616.91998"
   class="st18"
   v:langID="1045"
   id="text362"><v:paragraph
   v:horizAlign="1" /><v:tabList />Site DC</text>		</g>
		<g
   id="group77-155"
   transform="translate(409.063,-164.857)"
   v:mID="77"
   v:groupContext="group"
   v:layerMember="0">
			<title
   id="title365">Domain Controller.77</title>
			<g
   id="group78-156"
   transform="translate(0,-1.97388)"
   v:mID="78"
   v:groupContext="group"
   v:layerMember="0">
				<title
   id="title367">Sheet.78</title>
				<g
   id="shape79-157"
   v:mID="79"
   v:groupContext="shape"
   v:layerMember="0">
					<title
   id="title369">Sheet.79</title>
					<path
   d="m 0,623.62 v -34.05 c 0,-1.92 1.53,-3.45 3.45,-3.45 h 13.82 c 1.93,0 3.46,1.53 3.46,3.45 v 34.05 z"
   class="st14"
   id="path371" />
				</g>
				<g
   id="shape80-159"
   v:mID="80"
   v:groupContext="shape"
   v:layerMember="0"
   transform="translate(1.48041,-1.48041)">
					<title
   id="title374">Sheet.80</title>
					<path
   d="M 15.79,589.08 H 1.97 c -1.08,0 -1.97,0.89 -1.97,1.97 v 32.57 h 17.76 v -32.57 c 0,-1.08 -0.88,-1.97 -1.97,-1.97 z m -1.48,30.59 H 3.45 v -1.48 h 10.86 z m 0,-4.44 H 3.45 v -1.48 h 10.86 z m 0,-20.23 H 3.45 v -1.48 h 10.86 z"
   class="st15"
   id="path376" />
				</g>
			</g>
			<g
   id="group81-161"
   transform="translate(10.2642)"
   v:mID="81"
   v:groupContext="group"
   v:layerMember="0">
				<title
   id="title380">Sheet.81</title>
				<g
   id="shape82-162"
   v:mID="82"
   v:groupContext="shape"
   v:layerMember="0">
					<title
   id="title382">Sheet.82</title>
					<path
   d="m 2.47,623.62 c -0.94,0 -1.68,-0.39 -2.08,-1.08 C 0,621.85 0,620.96 0.49,620.17 l 8.69,-15.99 c 0.49,-0.84 1.23,-1.28 2.02,-1.28 0.79,0 1.53,0.44 2.03,1.23 l 8.73,16.04 c 0.44,0.79 0.49,1.63 0.05,2.32 -0.4,0.69 -1.19,1.08 -2.07,1.08 H 2.47 Z"
   class="st14"
   id="path384" />
				</g>
				<g
   id="shape83-164"
   v:mID="83"
   v:groupContext="shape"
   v:layerMember="0"
   transform="translate(1.33237,-1.48041)">
					<title
   id="title387">Sheet.83</title>
					<path
   d="m 19.34,622.39 -8.78,-16.04 c -0.39,-0.69 -1.04,-0.69 -1.43,0 l -8.74,16.04 c -0.39,0.69 -0.04,1.23 0.74,1.23 H 18.6 c 0.79,0 1.14,-0.54 0.74,-1.23 z"
   class="st15"
   id="path389" />
				</g>
			</g>
		</g>
		
		<g
   id="shape91-177"
   v:mID="91"
   v:groupContext="shape"
   v:layerMember="1"
   transform="matrix(0.91035684,-0.38898577,0.40360989,0.83459449,108.29651,-116.39097)">
			<title
   id="title423">Dynamic connector.91</title>
			<path
   d="m 13.183055,644.71904 27.51917,-140.2713"
   class="st6"
   id="path425" />
		</g>
		
		<g
   id="shape93-183"
   v:mID="93"
   v:groupContext="shape"
   transform="translate(318.89,-177.327)">
			<title
   id="title437">Sheet.93</title>
			<desc
   id="desc439">Site DC</desc>
			<v:textBlock
   v:margins="rect(4,4,4,4)"
   v:tabSpace="42.5197" />
			<v:textRect
   cx="26.6614"
   cy="613.622"
   width="53.33"
   height="20" />
			<rect
   x="0"
   y="603.62201"
   width="53.3228"
   height="20"
   class="st10"
   id="rect441" />
			<text
   x="10.73"
   y="616.91998"
   class="st18"
   v:langID="1045"
   id="text443"><v:paragraph
   v:horizAlign="1" /><v:tabList />Site DC</text>		</g>
		<g
   id="shape94-186"
   v:mID="94"
   v:groupContext="shape"
   v:layerMember="1"
   transform="translate(316.45,-98.6022)">
			<title
   id="title446">Dynamic connector.94</title>
			<path
   d="m 0,623.62 58.85,-53.8"
   class="st16"
   id="path448" />
		</g>
		<g
   id="group55-191"
   transform="translate(309.85,-62.6022)"
   v:mID="55"
   v:groupContext="group"
   v:layerMember="0">
			<title
   id="title451">Server, Generic - small</title>
			<g
   id="group56-192"
   v:mID="56"
   v:groupContext="group"
   v:layerMember="0">
				<title
   id="title453">Sheet.56</title>
				<g
   id="shape57-193"
   v:mID="57"
   v:groupContext="shape"
   v:layerMember="0">
					<title
   id="title455">Sheet.57</title>
					<path
   d="m 0,623.62 v -39 c 0,-2.47 2.02,-4.5 4.5,-4.5 h 15 c 2.47,0 4.5,2.03 4.5,4.5 v 39 z"
   class="st14"
   id="path457" />
				</g>
				<g
   id="shape58-195"
   v:mID="58"
   v:groupContext="shape"
   v:layerMember="0"
   transform="translate(2.25,-2.25)">
					<title
   id="title460">Sheet.58</title>
					<path
   d="m 17.25,584.62 h -15 c -1.2,0 -2.25,0.98 -2.25,2.25 v 36.75 h 19.5 v -36.75 c 0,-1.2 -0.98,-2.25 -2.25,-2.25 z m -2.1,34.5 H 4.35 v -1.5 h 10.8 z m 0,-5.25 H 4.35 v -1.5 h 10.8 z m 0,-22.5 H 4.35 v -1.5 h 10.8 z"
   class="st19"
   id="path462" />
				</g>
			</g>
		</g>
		<g
   id="shape95-197"
   v:mID="95"
   v:groupContext="shape"
   v:layerMember="1"
   transform="translate(324.64,-106.089)">
			<title
   id="title467">Dynamic connector.95</title>
			<path
   d="M 0,623.62 90.17,574.9"
   class="st16"
   id="path469" />
		</g>
		
		
		<g
   id="group97-212"
   transform="translate(391.24,-370.009)"
   v:mID="97"
   v:groupContext="group"
   v:layerMember="0">
			<title
   id="title482">Domain Controller.97</title>
			<g
   id="group98-213"
   transform="translate(-1.51879E-13,-1.80286)"
   v:mID="98"
   v:groupContext="group"
   v:layerMember="0">
				<title
   id="title484">Sheet.98</title>
				<g
   id="shape99-214"
   v:mID="99"
   v:groupContext="shape"
   v:layerMember="0">
					<title
   id="title486">Sheet.99</title>
					<path
   d="M0 623.62 L0 592.52 C0 590.76 1.4 589.37 3.16 589.37 L15.78 589.37 C17.53 589.37 18.93 590.76 18.93          592.52 L18.93 623.62 L0 623.62 Z"
   class="st14"
   id="path488" />
				</g>
				<g
   id="shape100-216"
   v:mID="100"
   v:groupContext="shape"
   v:layerMember="0"
   transform="translate(1.35215,-1.35215)">
					<title
   id="title491">Sheet.100</title>
					<path
   d="M14.42 592.07 L1.8 592.07 C0.81 592.07 0 592.88 0 593.87 L0 623.62 L16.23 623.62 L16.23 593.87 C16.23          592.88 15.41 592.07 14.42 592.07 ZM13.07 620.02 L3.16 620.02 L3.16 618.66 L13.07 618.66 L13.07 620.02          ZM13.07 615.96 L3.16 615.96 L3.16 614.61 L13.07 614.61 L13.07 615.96 ZM13.07 597.48 L3.16 597.48          L3.16 596.13 L13.07 596.13 L13.07 597.48 Z"
   class="st15"
   id="path493" />
				</g>
			</g>
			<g
   id="group101-218"
   transform="translate(9.3749,0)"
   v:mID="101"
   v:groupContext="group"
   v:layerMember="0">
				<title
   id="title497">Sheet.101</title>
				<g
   id="shape102-219"
   v:mID="102"
   v:groupContext="shape"
   v:layerMember="0">
					<title
   id="title499">Sheet.102</title>
					<path
   d="M2.25 623.62 C1.4 623.62 0.72 623.26 0.36 622.63 C-0 622 -0 621.19 0.45 620.47 L8.38 605.86 C8.83 605.1          9.51 604.69 10.23 604.69 C10.95 604.69 11.63 605.1 12.08 605.82 L20.06 620.47 C20.46 621.19 20.51          621.95 20.1 622.59 C19.74 623.22 19.02 623.58 18.21 623.58 L2.25 623.58 L2.25 623.62 Z"
   class="st14"
   id="path501" />
				</g>
				<g
   id="shape103-221"
   v:mID="103"
   v:groupContext="shape"
   v:layerMember="0"
   transform="translate(1.21693,-1.35215)">
					<title
   id="title504">Sheet.103</title>
					<path
   d="M17.67 622.5 L9.65 607.85 C9.28 607.22 8.7 607.22 8.34 607.85 L0.36 622.5 C0 623.13 0.32 623.62 1.04          623.62 L16.99 623.62 C17.71 623.62 18.03 623.13 17.67 622.5 Z"
   class="st15"
   id="path506" />
				</g>
			</g>
		</g>
		<g
   id="shape104-223"
   v:mID="104"
   v:groupContext="shape"
   transform="translate(385.957,-346.067)">
			<title
   id="title511">Sheet.104</title>
			<desc
   id="desc513">Site DC</desc>
			<v:textBlock
   v:margins="rect(4,4,4,4)"
   v:tabSpace="42.5197" />
			<v:textRect
   cx="26.6614"
   cy="613.622"
   width="53.33"
   height="20" />
			<rect
   x="0"
   y="603.622"
   width="53.3228"
   height="20"
   class="st10"
   id="rect515" />
			<text
   x="9.29"
   y="617.22"
   class="st9"
   v:langID="1045"
   id="text517"><v:paragraph
   v:horizAlign="1" /><v:tabList />Site DC</text>		</g>
		<g
   id="shape105-226"
   v:mID="105"
   v:groupContext="shape"
   v:layerMember="1"
   transform="translate(386.575,-395.125)">
			<title
   id="title520">Dynamic connector.105</title>
			<path
   d="M0 630.71 L-29.32 630.71"
   class="st16"
   id="path522" />
		</g>
		<g
   id="shape63-231"
   v:mID="63"
   v:groupContext="shape"
   transform="translate(289.787,-38.429)">
			<title
   id="title525">Sheet.63</title>
			<desc
   id="desc527">Virtual Server</desc>
			<v:textBlock
   v:margins="rect(4,4,4,4)"
   v:tabSpace="42.5197" />
			<v:textRect
   cx="34.2362"
   cy="613.622"
   width="68.48"
   height="20" />
			<rect
   x="0"
   y="603.62201"
   width="68.472397"
   height="20"
   class="st10"
   id="rect529" />
			<text
   x="17.950001"
   y="610.02002"
   class="st9"
   v:langID="1045"
   id="text533"><v:paragraph
   v:horizAlign="1" /><v:tabList />Virtual <tspan
   x="18.610001"
   dy="1.2em"
   class="st20"
   id="tspan531">Server</tspan></text>		</g>
		
		
		
		
		<g
   id="group1000-255"
   transform="translate(184.252,-484.724)"
   v:mID="1000"
   v:groupContext="group">
			<v:custProps>
				<v:cp
   v:nameU="ShapeClass"
   v:lbl="ShapeClass"
   v:type="0"
   v:invis="true"
   v:ask="false"
   v:langID="1033"
   v:val="VT4(Equipment)" />
				<v:cp
   v:nameU="ShapeType"
   v:lbl="ShapeType"
   v:type="0"
   v:invis="true"
   v:ask="false"
   v:langID="1033"
   v:val="VT4(Device)" />
				<v:cp
   v:nameU="SubShapeType"
   v:lbl="SubShapeType"
   v:type="0"
   v:invis="true"
   v:ask="false"
   v:langID="1033"
   v:val="VT4(Switch)" />
				<v:cp
   v:nameU="Manufacturer"
   v:lbl="Manufacturer"
   v:type="0"
   v:sortKey="Equipment"
   v:invis="false"
   v:ask="false"
   v:langID="1033" />
				<v:cp
   v:nameU="ProductNumber"
   v:lbl="Product Number"
   v:type="0"
   v:sortKey="Equipment"
   v:invis="false"
   v:ask="false"
   v:langID="1033" />
				<v:cp
   v:nameU="PartNumber"
   v:lbl="Part Number"
   v:type="0"
   v:sortKey="Equipment"
   v:invis="false"
   v:ask="false"
   v:langID="1033" />
				<v:cp
   v:nameU="ProductDescription"
   v:lbl="Product Description"
   v:type="0"
   v:sortKey="Equipment"
   v:invis="false"
   v:ask="false"
   v:langID="1033" />
				<v:cp
   v:nameU="AssetNumber"
   v:lbl="Asset Number"
   v:type="0"
   v:sortKey="Asset"
   v:invis="false"
   v:ask="false"
   v:langID="1033" />
				<v:cp
   v:nameU="SerialNumber"
   v:lbl="Serial Number"
   v:type="0"
   v:sortKey="Asset"
   v:invis="false"
   v:ask="false"
   v:langID="1033" />
				<v:cp
   v:nameU="Location"
   v:lbl="Location"
   v:type="0"
   v:sortKey="Asset"
   v:invis="false"
   v:ask="false"
   v:langID="1033" />
				<v:cp
   v:nameU="Building"
   v:lbl="Building"
   v:type="0"
   v:sortKey="Asset"
   v:invis="false"
   v:ask="false"
   v:langID="1033" />
				<v:cp
   v:nameU="Room"
   v:lbl="Room"
   v:type="0"
   v:sortKey="Asset"
   v:invis="false"
   v:ask="false"
   v:langID="1033" />
				<v:cp
   v:nameU="NetworkName"
   v:lbl="Network Name"
   v:type="0"
   v:sortKey="Network"
   v:invis="false"
   v:ask="false"
   v:langID="1033" />
				<v:cp
   v:nameU="IPAddress"
   v:lbl="IP Address"
   v:type="0"
   v:sortKey="Network"
   v:invis="false"
   v:ask="false"
   v:langID="1033" />
				<v:cp
   v:nameU="SubnetMask"
   v:lbl="Subnet Mask"
   v:type="0"
   v:sortKey="Network"
   v:invis="false"
   v:ask="false"
   v:langID="1033" />
				<v:cp
   v:nameU="AdminInterface"
   v:lbl="Administrative Interface"
   v:type="0"
   v:sortKey="Network"
   v:invis="false"
   v:ask="false"
   v:langID="1033" />
				<v:cp
   v:nameU="NumberofPorts"
   v:lbl="Number of Ports"
   v:type="0"
   v:sortKey="Network"
   v:invis="false"
   v:ask="false"
   v:langID="1033" />
				<v:cp
   v:nameU="MACAddress"
   v:lbl="MAC Address"
   v:type="0"
   v:sortKey="Network"
   v:invis="false"
   v:ask="false"
   v:langID="1033" />
				<v:cp
   v:nameU="CommunityString"
   v:lbl="Community String"
   v:type="0"
   v:sortKey="Network"
   v:invis="false"
   v:ask="false"
   v:langID="1033" />
				<v:cp
   v:nameU="NetworkDescription"
   v:lbl="Network Description"
   v:type="0"
   v:sortKey="Network"
   v:invis="false"
   v:ask="false"
   v:langID="1033" />
			</v:custProps>
			<v:userDefs>
				<v:ud
   v:nameU="HasText"
   v:val="VT0(0):5" />
				<v:ud
   v:nameU="ShapeClass"
   v:val="VT0(5):26" />
				<v:ud
   v:nameU="ShapeType"
   v:val="VT0(8):26" />
				<v:ud
   v:nameU="SubShapeType"
   v:val="VT0(66):26" />
				<v:ud
   v:nameU="SolSH"
   v:val="VT15({BF0433D9-CD73-4EB5-8390-8653BE590246}):41" />
				<v:ud
   v:nameU="visLegendShape"
   v:val="VT0(2):26" />
				<v:ud
   v:nameU="visVersion"
   v:prompt=""
   v:val="VT0(14):26" />
				<v:ud
   v:nameU="HasText"
   v:prompt=""
   v:val="VT0(1):5" />
			</v:userDefs>
			<title
   id="title573">Switch.1000</title>
			<desc
   id="desc575">External Time Source</desc>
			<g
   id="shape1001-256"
   v:mID="1001"
   v:groupContext="shape">
				<title
   id="title577">Sheet.1001</title>
				<path
   d="M55.1 623.62 L67.01 616.82 L67.01 615.46 L68.03 614.78 L68.03 604.4 L12.93 572.6 L0 580.08 L0 590.35 L1.02         590.97 L1.02 592.33 L55.1 623.62 Z"
   class="st2"
   id="path579" />
			</g>
			<g
   id="shape1002-258"
   v:mID="1002"
   v:groupContext="shape"
   transform="translate(55.1024,2.27374E-13)">
				<title
   id="title582">Sheet.1002</title>
				<path
   d="M0 623.62 L11.91 616.82 L11.91 615.46 L12.93 614.78 L12.93 604.4 L0 611.89 L0 623.62 Z"
   class="st3"
   id="path584" />
			</g>
			<g
   id="shape1003-261"
   v:mID="1003"
   v:groupContext="shape"
   transform="translate(0,-11.7354)">
				<title
   id="title587">Sheet.1003</title>
				<path
   d="M0 591.82 L55.11 623.62 L68.03 616.14 L12.93 584.33 L0 591.82 Z"
   class="st4"
   id="path589" />
			</g>
			<g
   id="shape1004-264"
   v:mID="1004"
   v:groupContext="shape">
				<title
   id="title592">Sheet.1004</title>
				<path
   d="M1.02 592.33 L55.1 623.62 L55.11 611.89 L0 580.08 L0 590.35 L1.02 590.97 L1.02 592.33 Z"
   class="st5"
   id="path594" />
			</g>
			<g
   id="shape1005-267"
   v:mID="1005"
   v:groupContext="shape">
				<title
   id="title597">Sheet.1005</title>
				<path
   d="M0 580.08 L0 590.35 L1.02 590.97 L1.02 592.33 L55.1 623.62 L67.01 616.82 L67.01 615.46 L68.03 614.78 L68.03         604.4 L12.93 572.6 L0 580.08"
   class="st6"
   id="path599" />
			</g>
			<g
   id="group1006-270"
   transform="translate(2.89704,-23.1855)"
   v:mID="1006"
   v:groupContext="group">
				<title
   id="title602">Sheet.1006</title>
				<g
   id="shape1007-271"
   v:mID="1007"
   v:groupContext="shape"
   transform="translate(-290.885,81.9742) rotate(-30)">
					<title
   id="title604">Sheet.1007</title>
					<ellipse
   cx="0.396632"
   cy="622.981"
   rx="0.396632"
   ry="0.641415"
   class="st7"
   id="ellipse606" />
				</g>
				<g
   id="shape1008-274"
   v:mID="1008"
   v:groupContext="shape"
   transform="translate(-294.981,79.6095) rotate(-30)">
					<title
   id="title609">Sheet.1008</title>
					<ellipse
   cx="0.396632"
   cy="622.981"
   rx="0.396632"
   ry="0.641415"
   class="st8"
   id="ellipse611" />
				</g>
				<g
   id="shape1009-277"
   v:mID="1009"
   v:groupContext="shape"
   transform="translate(-299.077,77.2449) rotate(-30)">
					<title
   id="title614">Sheet.1009</title>
					<ellipse
   cx="0.396632"
   cy="622.981"
   rx="0.396632"
   ry="0.641415"
   class="st7"
   id="ellipse616" />
				</g>
				<g
   id="shape1010-280"
   v:mID="1010"
   v:groupContext="shape"
   transform="translate(-303.172,74.8802) rotate(-30)">
					<title
   id="title619">Sheet.1010</title>
					<ellipse
   cx="0.396632"
   cy="622.981"
   rx="0.396632"
   ry="0.641415"
   class="st7"
   id="ellipse621" />
				</g>
				<g
   id="shape1011-283"
   v:mID="1011"
   v:groupContext="shape"
   transform="translate(-307.268,72.5155) rotate(-30)">
					<title
   id="title624">Sheet.1011</title>
					<ellipse
   cx="0.396632"
   cy="622.981"
   rx="0.396632"
   ry="0.641415"
   class="st8"
   id="ellipse626" />
				</g>
				<g
   id="shape1012-286"
   v:mID="1012"
   v:groupContext="shape"
   transform="translate(-311.364,70.1508) rotate(-30)">
					<title
   id="title629">Sheet.1012</title>
					<ellipse
   cx="0.396632"
   cy="622.981"
   rx="0.396632"
   ry="0.641415"
   class="st8"
   id="ellipse631" />
				</g>
				<g
   id="shape1013-289"
   v:mID="1013"
   v:groupContext="shape"
   transform="translate(-290.885,80.1968) rotate(-30)">
					<title
   id="title634">Sheet.1013</title>
					<ellipse
   cx="0.396632"
   cy="622.981"
   rx="0.396632"
   ry="0.641415"
   class="st7"
   id="ellipse636" />
				</g>
				<g
   id="shape1014-292"
   v:mID="1014"
   v:groupContext="shape"
   transform="translate(-294.981,77.8321) rotate(-30)">
					<title
   id="title639">Sheet.1014</title>
					<ellipse
   cx="0.396632"
   cy="622.981"
   rx="0.396632"
   ry="0.641415"
   class="st8"
   id="ellipse641" />
				</g>
				<g
   id="shape1015-295"
   v:mID="1015"
   v:groupContext="shape"
   transform="translate(-299.077,75.4674) rotate(-30)">
					<title
   id="title644">Sheet.1015</title>
					<ellipse
   cx="0.396632"
   cy="622.981"
   rx="0.396632"
   ry="0.641415"
   class="st7"
   id="ellipse646" />
				</g>
				<g
   id="shape1016-298"
   v:mID="1016"
   v:groupContext="shape"
   transform="translate(-303.172,73.1028) rotate(-30)">
					<title
   id="title649">Sheet.1016</title>
					<ellipse
   cx="0.396632"
   cy="622.981"
   rx="0.396632"
   ry="0.641415"
   class="st7"
   id="ellipse651" />
				</g>
				<g
   id="shape1017-301"
   v:mID="1017"
   v:groupContext="shape"
   transform="translate(-307.268,70.7381) rotate(-30)">
					<title
   id="title654">Sheet.1017</title>
					<ellipse
   cx="0.396632"
   cy="622.981"
   rx="0.396632"
   ry="0.641415"
   class="st8"
   id="ellipse656" />
				</g>
				<g
   id="shape1018-304"
   v:mID="1018"
   v:groupContext="shape"
   transform="translate(-311.364,68.3734) rotate(-30)">
					<title
   id="title659">Sheet.1018</title>
					<ellipse
   cx="0.396632"
   cy="622.981"
   rx="0.396632"
   ry="0.641415"
   class="st8"
   id="ellipse661" />
				</g>
				<g
   id="shape1019-307"
   v:mID="1019"
   v:groupContext="shape"
   transform="translate(-290.885,83.7135) rotate(-30)">
					<title
   id="title664">Sheet.1019</title>
					<ellipse
   cx="0.396632"
   cy="622.981"
   rx="0.396632"
   ry="0.641415"
   class="st7"
   id="ellipse666" />
				</g>
				<g
   id="shape1020-310"
   v:mID="1020"
   v:groupContext="shape"
   transform="translate(-294.981,81.3488) rotate(-30)">
					<title
   id="title669">Sheet.1020</title>
					<ellipse
   cx="0.396632"
   cy="622.981"
   rx="0.396632"
   ry="0.641415"
   class="st8"
   id="ellipse671" />
				</g>
				<g
   id="shape1021-313"
   v:mID="1021"
   v:groupContext="shape"
   transform="translate(-299.077,78.9841) rotate(-30)">
					<title
   id="title674">Sheet.1021</title>
					<ellipse
   cx="0.396632"
   cy="622.981"
   rx="0.396632"
   ry="0.641415"
   class="st7"
   id="ellipse676" />
				</g>
				<g
   id="shape1022-316"
   v:mID="1022"
   v:groupContext="shape"
   transform="translate(-303.172,76.6195) rotate(-30)">
					<title
   id="title679">Sheet.1022</title>
					<ellipse
   cx="0.396632"
   cy="622.981"
   rx="0.396632"
   ry="0.641415"
   class="st7"
   id="ellipse681" />
				</g>
				<g
   id="shape1023-319"
   v:mID="1023"
   v:groupContext="shape"
   transform="translate(-307.268,74.2548) rotate(-30)">
					<title
   id="title684">Sheet.1023</title>
					<ellipse
   cx="0.396632"
   cy="622.981"
   rx="0.396632"
   ry="0.641415"
   class="st8"
   id="ellipse686" />
				</g>
				<g
   id="shape1024-322"
   v:mID="1024"
   v:groupContext="shape"
   transform="translate(-311.364,71.8901) rotate(-30)">
					<title
   id="title689">Sheet.1024</title>
					<ellipse
   cx="0.396632"
   cy="622.981"
   rx="0.396632"
   ry="0.641415"
   class="st8"
   id="ellipse691" />
				</g>
			</g>
			<g
   id="shape1000-325"
   v:mID="1000"
   v:groupContext="groupContent">
				<v:textBlock
   v:margins="rect(4,4,4,4)"
   v:tabSpace="42.5197" />
				<v:textRect
   cx="34.0157"
   cy="634.824"
   width="113.72"
   height="22.4037" />
				<text
   x="-17.48"
   y="638.42"
   class="st9"
   v:langID="1033"
   id="text695"><v:paragraph
   v:horizAlign="1" /><v:tabList />External Time Source</text>			</g>
		</g>
		<g
   id="shape1025-327"
   v:mID="1025"
   v:groupContext="shape"
   v:layerMember="1"
   transform="translate(310.039,-388.038)">
			<title
   id="title699">Dynamic connector.1025</title>
			<path
   d="M0 623.62 L-66.85 534.61"
   class="st16"
   id="path701" />
		</g>
	</g>
</svg>
