<?xml version="1.0" encoding="UTF-8" standalone="no"?>
<!DOCTYPE svg PUBLIC "-//W3C//DTD SVG 1.1//EN" "http://www.w3.org/Graphics/SVG/1.1/DTD/svg11.dtd">
<!-- Generated by Microsoft Visio, SVG Export users.svg Page-1 -->
<svg xmlns="http://www.w3.org/2000/svg" xmlns:xlink="http://www.w3.org/1999/xlink" xmlns:ev="http://www.w3.org/2001/xml-events"
		xmlns:v="http://schemas.microsoft.com/visio/2003/SVGExtensions/" width="5.41339in" height="2.81496in"
		viewBox="0 0 389.764 202.677" xml:space="preserve" color-interpolation-filters="sRGB" class="st14">
	<v:documentProperties v:langID="1033" v:metric="true" v:viewMarkup="false">
		<v:userDefs>
			<v:ud v:nameU="msvConvertTheme"/>
		</v:userDefs>
	</v:documentProperties>

	<style type="text/css">
	<![CDATA[
		.st1 {fill:#ffffff;stroke:none;stroke-linecap:round;stroke-linejoin:round;stroke-width:0.75}
		.st2 {fill:#ffffff;stroke:none;stroke-linecap:butt;stroke-width:0.75}
		.st3 {fill:#4d81b8;stroke:none;stroke-linecap:butt;stroke-width:0.75}
		.st4 {fill:#808080;stroke:none;stroke-linecap:butt;stroke-width:0.75}
		.st5 {fill:#9e9e9e;stroke:none;stroke-linecap:butt;stroke-width:0.75}
		.st6 {fill:#77a798;stroke:none;stroke-linecap:butt;stroke-width:0.75}
		.st7 {fill:none;stroke:none;stroke-linecap:round;stroke-linejoin:round;stroke-width:0.75}
		.st8 {fill:#000000;font-family:Calibri;font-size:0.833336em}
		.st9 {font-size:1em}
		.st10 {marker-end:url(#mrkr13-88);stroke:#000000;stroke-dasharray:1.75,1.25;stroke-linecap:round;stroke-linejoin:round;stroke-width:0.25}
		.st11 {fill:#000000;fill-opacity:1;stroke:#000000;stroke-opacity:1;stroke-width:0.090252707581227}
		.st12 {fill:#00b050;stroke:#00b050;stroke-linecap:round;stroke-linejoin:round;stroke-width:0.24}
		.st13 {fill:#ff0000;stroke:#ff0000;stroke-linecap:round;stroke-linejoin:round;stroke-width:0.24}
		.st14 {fill:none;fill-rule:evenodd;font-size:12px;overflow:visible;stroke-linecap:square;stroke-miterlimit:3}
	]]>
	</style>

	<defs id="Markers">
		<g id="lend13">
			<path d="M 3 1 L 0 0 L 3 -1 L 3 1 " style="stroke:none"/>
		</g>
		<marker id="mrkr13-88" class="st11" v:arrowType="13" v:arrowSize="2" v:setback="33.24" refX="-33.24" orient="auto"
				markerUnits="strokeWidth" overflow="visible">
			<use xlink:href="#lend13" transform="scale(-11.08,-11.08) "/>
		</marker>
	</defs>
	<g v:mID="0" v:index="1" v:groupContext="foregroundPage">
		<title>Page-1</title>
		<v:pageProperties v:drawingScale="0.0393701" v:pageScale="0.0393701" v:drawingUnits="24" v:shadowOffsetX="8.50394"
				v:shadowOffsetY="-8.50394"/>
		<v:layer v:name="Connector" v:index="0"/>
		<g id="shape59-1" v:mID="59" v:groupContext="shape" transform="translate(3.40157,-3.9685)">
			<title>Sheet.59</title>
			<rect x="0" y="11.0551" width="379.276" height="191.622" class="st1"/>
		</g>
		<g id="group1-3" transform="translate(6.95713,-88.6885)" v:mID="1" v:groupContext="group">
			<title>User.17</title>
			<g id="shape2-4" v:mID="2" v:groupContext="shape">
				<title>Sheet.2</title>
				<path d="M35.04 193.84 C33.57 185.51 32.75 184.56 25.34 182.58 C25.08 182.51 24.96 182.48 24.68 182.42 C24.43 182.37
							 24.17 182.34 23.89 182.34 C23.46 182.34 23.13 182.41 23.06 182.42 L22.43 182.56 L22.11 182.56 C25.48
							 180.91 27.8 177.47 27.8 173.48 C27.8 167.9 23.27 163.36 17.69 163.36 C12.12 163.36 7.58 167.9 7.58 173.48
							 C7.58 177.47 9.91 180.91 13.28 182.56 L12.93 182.56 L12.29 182.42 C12.23 182.41 11.9 182.34 11.46 182.34
							 C11.19 182.34 10.92 182.37 10.68 182.42 C10.39 182.48 10.28 182.51 10.02 182.58 C2.6 184.56 1.79 185.51
							 0.32 193.84 C-0 195.66 0.02 196.24 0.07 196.84 C0.48 201.14 9.8 202.67 17.68 202.68 L17.69 202.68 C25.55
							 202.67 34.87 201.14 35.29 196.81 C35.34 196.24 35.36 195.66 35.04 193.84 Z" class="st2"/>
			</g>
			<g id="shape3-6" v:mID="3" v:groupContext="shape" transform="translate(8.6296,-20.1378)">
				<title>Sheet.3</title>
				<path d="M9.06 184.55 C14.07 184.55 18.13 188.61 18.13 193.61 C18.13 198.62 14.07 202.68 9.06 202.68 C4.06 202.68
							 0 198.62 0 193.61 C-0 188.61 4.06 184.55 9.06 184.55 Z" class="st3"/>
			</g>
			<g id="shape4-8" v:mID="4" v:groupContext="shape" transform="translate(1.02378,-1.04734)">
				<title>Sheet.4</title>
				<path d="M32.98 195.06 C31.56 187.02 30.99 186.49 24.04 184.64 C23.8 184.58 23.7 184.55 23.44 184.49 C22.85 184.37
							 22.26 184.49 22.26 184.49 C21.63 186.98 17.98 192.15 16.93 193.62 C16.84 193.62 16.76 193.61 16.67 193.61
							 C16.66 193.61 16.66 193.61 16.65 193.61 C16.65 193.61 16.64 193.61 16.64 193.61 C16.55 193.61 16.47
							 193.62 16.38 193.62 C15.33 192.15 11.68 186.98 11.05 184.49 C11.05 184.49 10.46 184.37 9.87 184.49 C9.61
							 184.55 9.51 184.58 9.26 184.64 C2.32 186.49 1.74 187.02 0.33 195.06 C-0 196.93 0.05 197.37 0.09 197.79
							 C0.37 200.71 7.64 202.67 16.64 202.68 C16.64 202.68 16.65 202.68 16.65 202.68 C16.66 202.68 16.66 202.68
							 16.67 202.68 C25.67 202.67 32.94 200.71 33.22 197.79 C33.26 197.37 33.31 196.93 32.98 195.06 Z"
						class="st3"/>
			</g>
		</g>
		<g id="group5-10" transform="translate(322.861,-73.8649)" v:mID="5" v:groupContext="group">
			<title>User Services</title>
			<g id="group6-11" transform="translate(0,-5.19902)" v:mID="6" v:groupContext="group">
				<title>Layer_3</title>
				<g id="shape7-12" v:mID="7" v:groupContext="shape">
					<title>Sheet.7</title>
					<path d="M35.04 193.84 C33.57 185.51 32.75 184.56 25.34 182.58 C25.08 182.51 24.96 182.48 24.68 182.42 C24.43
								 182.37 24.17 182.34 23.89 182.34 C23.45 182.34 23.12 182.41 23.06 182.42 L22.43 182.56 L22.11 182.56
								 C25.47 180.91 27.8 177.46 27.8 173.48 C27.8 167.9 23.27 163.36 17.69 163.36 C12.12 163.36 7.58 167.9
								 7.58 173.48 C7.58 177.47 9.91 180.91 13.28 182.56 L12.93 182.56 L12.29 182.42 C12.23 182.41 11.9
								 182.34 11.46 182.34 C11.19 182.34 10.92 182.37 10.68 182.42 C10.39 182.48 10.28 182.51 10.02 182.58
								 C2.6 184.56 1.79 185.51 0.32 193.84 C-0 195.66 0.02 196.24 0.07 196.84 C0.48 201.14 9.8 202.67 17.68
								 202.68 L17.69 202.68 C25.55 202.67 34.87 201.14 35.29 196.81 C35.34 196.24 35.36 195.66 35.04 193.84
								 Z" class="st2"/>
				</g>
				<g id="shape8-14" v:mID="8" v:groupContext="shape" transform="translate(8.62908,-20.1383)">
					<title>Sheet.8</title>
					<path d="M9.06 184.55 C14.07 184.55 18.13 188.61 18.13 193.61 C18.13 198.62 14.07 202.68 9.06 202.68 C4.06 202.68
								 0 198.62 0 193.61 C-0 188.61 4.06 184.55 9.06 184.55 Z" class="st3"/>
				</g>
				<g id="shape9-16" v:mID="9" v:groupContext="shape" transform="translate(1.02326,-1.04734)">
					<title>Sheet.9</title>
					<path d="M32.98 195.06 C31.56 187.02 30.99 186.49 24.04 184.64 C23.8 184.58 23.7 184.55 23.44 184.49 C22.85 184.37
								 22.26 184.49 22.26 184.49 C21.63 186.98 17.98 192.15 16.93 193.62 C16.84 193.61 16.76 193.61 16.67
								 193.61 C16.66 193.61 16.66 193.61 16.65 193.61 C16.65 193.61 16.64 193.61 16.64 193.61 C16.55 193.61
								 16.47 193.61 16.38 193.62 C15.33 192.15 11.68 186.97 11.05 184.49 C11.05 184.49 10.46 184.37 9.87
								 184.49 C9.61 184.55 9.51 184.58 9.26 184.64 C2.32 186.49 1.74 187.02 0.33 195.06 C-0 196.93 0.05
								 197.37 0.09 197.79 C0.37 200.71 7.64 202.67 16.64 202.68 C16.64 202.68 16.65 202.68 16.65 202.68
								 C16.66 202.68 16.66 202.68 16.67 202.68 C25.67 202.67 32.94 200.71 33.22 197.79 C33.26 197.37 33.31
								 196.93 32.98 195.06 Z" class="st3"/>
				</g>
			</g>
			<g id="group10-18" transform="translate(21.5109,2.55795E-13)" v:mID="10" v:groupContext="group">
				<title>Layer_4</title>
				<g id="shape11-19" v:mID="11" v:groupContext="shape">
					<title>Sheet.11</title>
					<path d="M8.69 202.68 L8.32 199.71 C8.12 199.64 7.92 199.56 7.73 199.47 L5.37 201.3 L1.37 197.3 L3.21 194.95
								 C3.12 194.75 3.04 194.56 2.96 194.36 L0 193.99 L0 188.33 L2.96 187.96 C3.04 187.76 3.12 187.56 3.21
								 187.37 L1.37 185.01 L5.37 181.01 L7.73 182.84 C7.92 182.75 8.12 182.67 8.32 182.6 L8.69 179.64 L14.35
								 179.64 L14.72 182.6 C14.92 182.67 15.12 182.75 15.31 182.84 L17.67 181.01 L21.67 185.01 L19.84 187.37
								 C19.92 187.56 20 187.76 20.08 187.96 L23.04 188.33 L23.04 193.99 L20.08 194.36 C20 194.56 19.92
								 194.75 19.84 194.95 L21.67 197.3 L17.67 201.3 L15.31 199.47 C15.12 199.56 14.92 199.64 14.72 199.72
								 L14.35 202.68 L8.69 202.68 Z" class="st2"/>
				</g>
				<g id="shape12-21" v:mID="12" v:groupContext="shape" transform="translate(1.04734,-1.04734)">
					<title>Sheet.12</title>
					<path d="M20.95 194.11 L20.95 190.3 L18.24 189.96 C18.08 189.37 17.85 188.82 17.56 188.29 L19.23 186.14 L16.53
								 183.45 L14.39 185.12 C13.86 184.83 13.3 184.6 12.72 184.43 L12.38 181.73 L8.57 181.73 L8.23 184.43
								 C7.65 184.6 7.09 184.83 6.56 185.12 L4.41 183.45 L1.72 186.14 L3.39 188.29 C3.1 188.82 2.87 189.37
								 2.7 189.96 L0 190.3 L0 194.11 L2.7 194.45 C2.87 195.03 3.1 195.59 3.39 196.12 L1.72 198.26 L4.41
								 200.96 L6.56 199.29 C7.09 199.58 7.65 199.81 8.23 199.98 L8.57 202.68 L12.38 202.68 L12.72 199.98
								 C13.3 199.81 13.86 199.58 14.39 199.29 L16.53 200.96 L19.23 198.26 L17.56 196.12 C17.85 195.59 18.08
								 195.03 18.24 194.45 L20.95 194.11 ZM14.52 192.2 C14.52 194.44 12.71 196.25 10.47 196.25 C8.24 196.25
								 6.43 194.44 6.43 192.2 C6.43 189.97 8.24 188.16 10.47 188.16 C12.71 188.16 14.52 189.97 14.52 192.2
								 Z" class="st4"/>
				</g>
			</g>
		</g>
		<g id="group13-23" transform="translate(157.11,-138.169)" v:mID="13" v:groupContext="group">
			<title>Users</title>
			<g id="group14-24" transform="translate(16.2344,-11.5203)" v:mID="14" v:groupContext="group">
				<title>Sheet.14</title>
				<g id="shape15-25" v:mID="15" v:groupContext="shape">
					<title>Sheet.15</title>
					<path d="M23.08 196.6 C22.11 191.13 21.51 190.43 16.63 189.13 C16.45 189.08 16.37 189.06 16.18 189.02 C16.11
								 189 16.02 189.01 15.94 189 C17.48 187.74 18.48 185.83 18.48 183.69 C18.48 179.93 15.42 176.87 11.65
								 176.87 C7.89 176.87 4.83 179.93 4.83 183.69 C4.83 185.83 5.82 187.74 7.37 188.99 C7.28 189 7.19
								 189 7.11 189.02 C6.92 189.06 6.84 189.08 6.67 189.13 C1.78 190.43 1.18 191.13 0.21 196.6 C-0 197.81
								 0.01 198.2 0.05 198.61 C0.33 201.61 6.22 202.67 11.64 202.68 L11.65 202.68 C17.07 202.67 22.95 201.61
								 23.24 198.59 C23.28 198.2 23.29 197.8 23.08 196.6 Z" class="st2"/>
				</g>
				<g id="shape16-27" v:mID="16" v:groupContext="shape" transform="translate(5.88084,-13.2096)">
					<title>Sheet.16</title>
					<path d="M5.77 191.13 C8.96 191.13 11.55 193.71 11.55 196.9 C11.55 200.09 8.96 202.68 5.77 202.68 C2.58 202.68
								 0 200.09 0 196.9 C0 193.71 2.58 191.13 5.77 191.13 Z" class="st5"/>
				</g>
				<g id="shape17-29" v:mID="17" v:groupContext="shape" transform="translate(1.03373,-1.04787)">
					<title>Sheet.17</title>
					<path d="M21.01 197.83 C20.11 192.7 19.74 192.37 15.32 191.19 C15.17 191.15 15.1 191.13 14.93 191.09 C14.56 191.01
								 14.18 191.09 14.18 191.09 C13.78 192.68 11.46 195.97 10.78 196.9 C10.73 196.9 10.68 196.9 10.62
								 196.9 C10.62 196.9 10.61 196.9 10.61 196.9 C10.61 196.9 10.6 196.9 10.6 196.9 C10.55 196.9 10.49
								 196.9 10.44 196.9 C9.77 195.97 7.44 192.67 7.04 191.09 C7.04 191.09 6.66 191.01 6.29 191.09 C6.12
								 191.13 6.06 191.15 5.9 191.19 C1.48 192.37 1.11 192.7 0.21 197.83 C-0 199.02 0.03 199.3 0.06 199.56
								 C0.24 201.43 4.87 202.67 10.6 202.68 C10.6 202.68 10.61 202.68 10.61 202.68 C10.61 202.68 10.62
								 202.68 10.62 202.68 C16.35 202.67 20.98 201.43 21.16 199.56 C21.19 199.3 21.22 199.02 21.01 197.83
								 Z" class="st5"/>
				</g>
			</g>
			<g id="group18-31" transform="translate(-1.93845E-13,-6.80774)" v:mID="18" v:groupContext="group">
				<title>Sheet.18</title>
				<g id="shape19-32" v:mID="19" v:groupContext="shape">
					<title>Sheet.19</title>
					<path d="M23.08 196.6 C22.11 191.13 21.51 190.43 16.62 189.13 C16.45 189.08 16.37 189.06 16.18 189.02 C16.11
								 189 16.02 189.01 15.94 189 C17.48 187.74 18.48 185.83 18.48 183.69 C18.48 179.93 15.41 176.87 11.65
								 176.87 C7.89 176.87 4.83 179.93 4.83 183.69 C4.83 185.83 5.82 187.74 7.37 189 C7.28 189.01 7.19
								 189 7.11 189.02 C6.92 189.06 6.84 189.08 6.67 189.13 C1.78 190.43 1.18 191.13 0.21 196.6 C0 197.81
								 0.01 198.2 0.05 198.61 C0.33 201.61 6.22 202.67 11.64 202.68 L11.65 202.68 C17.07 202.67 22.95 201.61
								 23.24 198.59 C23.28 198.2 23.29 197.8 23.08 196.6 Z" class="st2"/>
				</g>
				<g id="shape20-34" v:mID="20" v:groupContext="shape" transform="translate(5.87979,-13.2091)">
					<title>Sheet.20</title>
					<path d="M5.77 191.13 C8.96 191.13 11.55 193.71 11.55 196.9 C11.55 200.09 8.96 202.68 5.77 202.68 C2.58 202.68
								 0 200.09 0 196.9 C0 193.71 2.58 191.13 5.77 191.13 Z" class="st6"/>
				</g>
				<g id="shape21-36" v:mID="21" v:groupContext="shape" transform="translate(1.03373,-1.04734)">
					<title>Sheet.21</title>
					<path d="M21.01 197.83 C20.11 192.7 19.74 192.37 15.32 191.19 C15.16 191.15 15.1 191.13 14.93 191.09 C14.55 191.01
								 14.18 191.09 14.18 191.09 C13.78 192.67 11.45 195.97 10.78 196.9 C10.73 196.9 10.67 196.9 10.62
								 196.9 C10.62 196.9 10.61 196.9 10.61 196.9 C10.61 196.9 10.6 196.9 10.6 196.9 C10.55 196.9 10.49
								 196.9 10.44 196.9 C9.77 195.97 7.44 192.67 7.04 191.09 C7.04 191.09 6.66 191.01 6.29 191.09 C6.12
								 191.13 6.06 191.15 5.9 191.19 C1.48 192.37 1.11 192.7 0.21 197.83 C-0 199.02 0.03 199.3 0.06 199.56
								 C0.24 201.43 4.87 202.67 10.6 202.68 C10.6 202.68 10.61 202.68 10.61 202.68 C10.61 202.68 10.62
								 202.68 10.62 202.68 C16.35 202.67 20.98 201.43 21.16 199.56 C21.19 199.3 21.22 199.02 21.01 197.83
								 Z" class="st6"/>
				</g>
			</g>
			<g id="group22-38" transform="translate(10.9976,2.27374E-13)" v:mID="22" v:groupContext="group">
				<title>Sheet.22</title>
				<g id="shape23-39" v:mID="23" v:groupContext="shape">
					<title>Sheet.23</title>
					<path d="M23.08 196.6 C22.11 191.13 21.51 190.43 16.63 189.13 C16.45 189.08 16.37 189.06 16.18 189.02 C16.11
								 189.01 16.02 189.01 15.94 189 C17.48 187.74 18.48 185.83 18.48 183.69 C18.48 179.93 15.42 176.87
								 11.65 176.87 C7.89 176.87 4.83 179.93 4.83 183.69 C4.83 185.83 5.82 187.74 7.37 188.99 C7.28 189
								 7.19 189 7.11 189.02 C6.92 189.06 6.84 189.08 6.67 189.13 C1.78 190.43 1.18 191.13 0.21 196.6 C-0
								 197.81 0.01 198.2 0.05 198.61 C0.33 201.61 6.22 202.67 11.64 202.68 L11.65 202.68 C17.07 202.67
								 22.95 201.61 23.24 198.59 C23.28 198.2 23.29 197.8 23.08 196.6 Z" class="st2"/>
				</g>
				<g id="shape24-41" v:mID="24" v:groupContext="shape" transform="translate(5.88032,-13.2091)">
					<title>Sheet.24</title>
					<path d="M5.77 191.13 C8.96 191.13 11.55 193.71 11.55 196.9 C11.55 200.09 8.96 202.68 5.77 202.68 C2.58 202.68
								 0 200.09 0 196.9 C0 193.71 2.58 191.13 5.77 191.13 Z" class="st3"/>
				</g>
				<g id="shape25-43" v:mID="25" v:groupContext="shape" transform="translate(1.03425,-1.04734)">
					<title>Sheet.25</title>
					<path d="M21.01 197.83 C20.11 192.7 19.74 192.37 15.32 191.19 C15.16 191.15 15.1 191.13 14.93 191.09 C14.55 191.01
								 14.18 191.09 14.18 191.09 C13.78 192.68 11.45 195.97 10.78 196.9 C10.73 196.9 10.67 196.9 10.62
								 196.9 C10.62 196.9 10.61 196.9 10.61 196.9 C10.61 196.9 10.6 196.9 10.6 196.9 C10.55 196.9 10.49
								 196.9 10.44 196.9 C9.77 195.97 7.44 192.68 7.04 191.09 C7.04 191.09 6.66 191.01 6.29 191.09 C6.12
								 191.13 6.06 191.15 5.9 191.19 C1.48 192.37 1.11 192.7 0.21 197.83 C-0 199.02 0.03 199.3 0.06 199.56
								 C0.24 201.43 4.87 202.67 10.6 202.68 C10.6 202.68 10.61 202.68 10.61 202.68 C10.61 202.68 10.62
								 202.68 10.62 202.68 C16.35 202.67 20.98 201.43 21.16 199.56 C21.19 199.3 21.22 199.02 21.01 197.83
								 Z" class="st3"/>
				</g>
			</g>
		</g>
		<g id="group26-45" transform="translate(157.172,-40.3376)" v:mID="26" v:groupContext="group">
			<title>Users.26</title>
			<g id="group27-46" transform="translate(16.2344,-11.5203)" v:mID="27" v:groupContext="group">
				<title>Sheet.27</title>
				<g id="shape28-47" v:mID="28" v:groupContext="shape">
					<title>Sheet.28</title>
					<path d="M23.08 196.6 C22.11 191.13 21.51 190.43 16.63 189.13 C16.45 189.08 16.37 189.06 16.18 189.02 C16.11
								 189 16.02 189.01 15.94 189 C17.48 187.74 18.48 185.83 18.48 183.69 C18.48 179.93 15.42 176.87 11.65
								 176.87 C7.89 176.87 4.83 179.93 4.83 183.69 C4.83 185.83 5.82 187.74 7.37 188.99 C7.28 189 7.19
								 189 7.11 189.02 C6.92 189.06 6.84 189.08 6.67 189.13 C1.78 190.43 1.18 191.13 0.21 196.6 C-0 197.81
								 0.01 198.2 0.05 198.61 C0.33 201.61 6.22 202.67 11.64 202.68 L11.65 202.68 C17.07 202.67 22.95 201.61
								 23.24 198.59 C23.28 198.2 23.29 197.8 23.08 196.6 Z" class="st2"/>
				</g>
				<g id="shape29-49" v:mID="29" v:groupContext="shape" transform="translate(5.88084,-13.2096)">
					<title>Sheet.29</title>
					<path d="M5.77 191.13 C8.96 191.13 11.55 193.71 11.55 196.9 C11.55 200.09 8.96 202.68 5.77 202.68 C2.58 202.68
								 0 200.09 0 196.9 C0 193.71 2.58 191.13 5.77 191.13 Z" class="st5"/>
				</g>
				<g id="shape30-51" v:mID="30" v:groupContext="shape" transform="translate(1.03373,-1.04787)">
					<title>Sheet.30</title>
					<path d="M21.01 197.83 C20.11 192.7 19.74 192.37 15.32 191.19 C15.17 191.15 15.1 191.13 14.93 191.09 C14.56 191.01
								 14.18 191.09 14.18 191.09 C13.78 192.68 11.46 195.97 10.78 196.9 C10.73 196.9 10.68 196.9 10.62
								 196.9 C10.62 196.9 10.61 196.9 10.61 196.9 C10.61 196.9 10.6 196.9 10.6 196.9 C10.55 196.9 10.49
								 196.9 10.44 196.9 C9.77 195.97 7.44 192.67 7.04 191.09 C7.04 191.09 6.66 191.01 6.29 191.09 C6.12
								 191.13 6.06 191.15 5.9 191.19 C1.48 192.37 1.11 192.7 0.21 197.83 C-0 199.02 0.03 199.3 0.06 199.56
								 C0.24 201.43 4.87 202.67 10.6 202.68 C10.6 202.68 10.61 202.68 10.61 202.68 C10.61 202.68 10.62
								 202.68 10.62 202.68 C16.35 202.67 20.98 201.43 21.16 199.56 C21.19 199.3 21.22 199.02 21.01 197.83
								 Z" class="st5"/>
				</g>
			</g>
			<g id="group31-53" transform="translate(-1.93845E-13,-6.80774)" v:mID="31" v:groupContext="group">
				<title>Sheet.31</title>
				<g id="shape32-54" v:mID="32" v:groupContext="shape">
					<title>Sheet.32</title>
					<path d="M23.08 196.6 C22.11 191.13 21.51 190.43 16.62 189.13 C16.45 189.08 16.37 189.06 16.18 189.02 C16.11
								 189 16.02 189.01 15.94 189 C17.48 187.74 18.48 185.83 18.48 183.69 C18.48 179.93 15.41 176.87 11.65
								 176.87 C7.89 176.87 4.83 179.93 4.83 183.69 C4.83 185.83 5.82 187.74 7.37 189 C7.28 189.01 7.19
								 189 7.11 189.02 C6.92 189.06 6.84 189.08 6.67 189.13 C1.78 190.43 1.18 191.13 0.21 196.6 C0 197.81
								 0.01 198.2 0.05 198.61 C0.33 201.61 6.22 202.67 11.64 202.68 L11.65 202.68 C17.07 202.67 22.95 201.61
								 23.24 198.59 C23.28 198.2 23.29 197.8 23.08 196.6 Z" class="st2"/>
				</g>
				<g id="shape33-56" v:mID="33" v:groupContext="shape" transform="translate(5.87979,-13.2091)">
					<title>Sheet.33</title>
					<path d="M5.77 191.13 C8.96 191.13 11.55 193.71 11.55 196.9 C11.55 200.09 8.96 202.68 5.77 202.68 C2.58 202.68
								 0 200.09 0 196.9 C0 193.71 2.58 191.13 5.77 191.13 Z" class="st6"/>
				</g>
				<g id="shape34-58" v:mID="34" v:groupContext="shape" transform="translate(1.03373,-1.04734)">
					<title>Sheet.34</title>
					<path d="M21.01 197.83 C20.11 192.7 19.74 192.37 15.32 191.19 C15.16 191.15 15.1 191.13 14.93 191.09 C14.55 191.01
								 14.18 191.09 14.18 191.09 C13.78 192.67 11.45 195.97 10.78 196.9 C10.73 196.9 10.67 196.9 10.62
								 196.9 C10.62 196.9 10.61 196.9 10.61 196.9 C10.61 196.9 10.6 196.9 10.6 196.9 C10.55 196.9 10.49
								 196.9 10.44 196.9 C9.77 195.97 7.44 192.67 7.04 191.09 C7.04 191.09 6.66 191.01 6.29 191.09 C6.12
								 191.13 6.06 191.15 5.9 191.19 C1.48 192.37 1.11 192.7 0.21 197.83 C-0 199.02 0.03 199.3 0.06 199.56
								 C0.24 201.43 4.87 202.67 10.6 202.68 C10.6 202.68 10.61 202.68 10.61 202.68 C10.61 202.68 10.62
								 202.68 10.62 202.68 C16.35 202.67 20.98 201.43 21.16 199.56 C21.19 199.3 21.22 199.02 21.01 197.83
								 Z" class="st6"/>
				</g>
			</g>
			<g id="group35-60" transform="translate(10.9976,2.27374E-13)" v:mID="35" v:groupContext="group">
				<title>Sheet.35</title>
				<g id="shape36-61" v:mID="36" v:groupContext="shape">
					<title>Sheet.36</title>
					<path d="M23.08 196.6 C22.11 191.13 21.51 190.43 16.63 189.13 C16.45 189.08 16.37 189.06 16.18 189.02 C16.11
								 189.01 16.02 189.01 15.94 189 C17.48 187.74 18.48 185.83 18.48 183.69 C18.48 179.93 15.42 176.87
								 11.65 176.87 C7.89 176.87 4.83 179.93 4.83 183.69 C4.83 185.83 5.82 187.74 7.37 188.99 C7.28 189
								 7.19 189 7.11 189.02 C6.92 189.06 6.84 189.08 6.67 189.13 C1.78 190.43 1.18 191.13 0.21 196.6 C-0
								 197.81 0.01 198.2 0.05 198.61 C0.33 201.61 6.22 202.67 11.64 202.68 L11.65 202.68 C17.07 202.67
								 22.95 201.61 23.24 198.59 C23.28 198.2 23.29 197.8 23.08 196.6 Z" class="st2"/>
				</g>
				<g id="shape37-63" v:mID="37" v:groupContext="shape" transform="translate(5.88032,-13.2091)">
					<title>Sheet.37</title>
					<path d="M5.77 191.13 C8.96 191.13 11.55 193.71 11.55 196.9 C11.55 200.09 8.96 202.68 5.77 202.68 C2.58 202.68
								 0 200.09 0 196.9 C0 193.71 2.58 191.13 5.77 191.13 Z" class="st3"/>
				</g>
				<g id="shape38-65" v:mID="38" v:groupContext="shape" transform="translate(1.03425,-1.04734)">
					<title>Sheet.38</title>
					<path d="M21.01 197.83 C20.11 192.7 19.74 192.37 15.32 191.19 C15.16 191.15 15.1 191.13 14.93 191.09 C14.55 191.01
								 14.18 191.09 14.18 191.09 C13.78 192.68 11.45 195.97 10.78 196.9 C10.73 196.9 10.67 196.9 10.62
								 196.9 C10.62 196.9 10.61 196.9 10.61 196.9 C10.61 196.9 10.6 196.9 10.6 196.9 C10.55 196.9 10.49
								 196.9 10.44 196.9 C9.77 195.97 7.44 192.68 7.04 191.09 C7.04 191.09 6.66 191.01 6.29 191.09 C6.12
								 191.13 6.06 191.15 5.9 191.19 C1.48 192.37 1.11 192.7 0.21 197.83 C-0 199.02 0.03 199.3 0.06 199.56
								 C0.24 201.43 4.87 202.67 10.6 202.68 C10.6 202.68 10.61 202.68 10.61 202.68 C10.61 202.68 10.62
								 202.68 10.62 202.68 C16.35 202.67 20.98 201.43 21.16 199.56 C21.19 199.3 21.22 199.02 21.01 197.83
								 Z" class="st3"/>
				</g>
			</g>
		</g>
		<g id="shape39-67" v:mID="39" v:groupContext="shape" transform="translate(157.172,-121.291)">
			<title>Sheet.39</title>
			<desc>Role Group</desc>
			<v:textBlock v:margins="rect(4,4,4,4)" v:tabSpace="42.5197"/>
			<v:textRect cx="22.8217" cy="195.695" width="45.65" height="13.9646"/>
			<rect x="0" y="188.713" width="45.6433" height="13.9646" class="st7"/>
			<text x="13.83" y="192.69" class="st8" v:langID="1045"><v:paragraph v:horizAlign="1"/><v:tabList/>Role <tspan x="10.03"
						dy="1.2em" class="st9">Group</tspan></text>		</g>
		<g id="shape40-71" v:mID="40" v:groupContext="shape" transform="translate(157.172,-19.4153)">
			<title>Sheet.40</title>
			<desc>Resource Group</desc>
			<v:textBlock v:margins="rect(4,4,4,4)" v:tabSpace="42.5197"/>
			<v:textRect cx="22.8217" cy="195.695" width="45.65" height="13.9646"/>
			<rect x="0" y="188.713" width="45.6433" height="13.9646" class="st7"/>
			<text x="4.05" y="192.69" class="st8" v:langID="1045"><v:paragraph v:horizAlign="1"/><v:tabList/>Resource <tspan
						x="10.03" dy="1.2em" class="st9">Group</tspan></text>		</g>
		<g id="shape41-75" v:mID="41" v:groupContext="shape" transform="translate(0.75,-68.7862)">
			<title>Sheet.41</title>
			<desc>User Account</desc>
			<v:textBlock v:margins="rect(4,4,4,4)" v:tabSpace="42.5197"/>
			<v:textRect cx="22.8217" cy="195.695" width="45.65" height="13.9646"/>
			<rect x="0" y="188.713" width="45.6433" height="13.9646" class="st7"/>
			<text x="13.43" y="192.69" class="st8" v:langID="1045"><v:paragraph v:horizAlign="1"/><v:tabList/>User <tspan x="6.13"
						dy="1.2em" class="st9">Account</tspan></text>		</g>
		<g id="shape42-79" v:mID="42" v:groupContext="shape" transform="translate(322.861,-52.0177)">
			<title>Sheet.42</title>
			<desc>Service Account</desc>
			<v:textBlock v:margins="rect(4,4,4,4)" v:tabSpace="42.5197"/>
			<v:textRect cx="22.8217" cy="195.695" width="45.65" height="13.9646"/>
			<rect x="0" y="188.713" width="45.6433" height="13.9646" class="st7"/>
			<text x="8.29" y="192.69" class="st8" v:langID="1045"><v:paragraph v:horizAlign="1"/><v:tabList/>Service <tspan
						x="6.13" dy="1.2em" class="st9">Account</tspan></text>		</g>
		<g id="shape43-83" v:mID="43" v:groupContext="shape" v:layerMember="0" transform="translate(42.3139,-114.419)">
			<title>Dynamic connector</title>
			<path d="M0 202.68 L108.36 172.43" class="st10"/>
		</g>
		<g id="shape44-89" v:mID="44" v:groupContext="shape" v:layerMember="0" transform="translate(42.3139,-114.419)">
			<title>Dynamic connector.44</title>
			<path d="M0 202.68 L107.68 267.66" class="st10"/>
		</g>
		<g id="shape45-94" v:mID="45" v:groupContext="shape" v:layerMember="0" transform="translate(325.473,-95.4985)">
			<title>Dynamic connector.45</title>
			<path d="M0 202.68 L-121.32 147.86" class="st10"/>
		</g>
		<g id="shape46-99" v:mID="46" v:groupContext="shape" v:layerMember="0" transform="translate(324.568,-93.7605)">
			<title>Dynamic connector.46</title>
			<path d="M0 202.68 L-120.03 244.59" class="st10"/>
		</g>
		<g id="group49-104" transform="translate(83.0426,-124.315)" v:mID="49" v:groupContext="group">
			<title>Sheet.49</title>
			<g id="shape47-105" v:mID="47" v:groupContext="shape" transform="translate(143.314,42.1811) rotate(45)">
				<title>Rectangle</title>
				<v:userDefs>
					<v:ud v:nameU="visVersion" v:val="VT0(14):26"/>
				</v:userDefs>
				<rect x="0" y="197.817" width="24.2985" height="4.8597" class="st12"/>
			</g>
			<g id="shape48-107" v:mID="48" v:groupContext="shape" transform="translate(-125.889,59.3628) rotate(-45)">
				<title>Rectangle.48</title>
				<v:userDefs>
					<v:ud v:nameU="visVersion" v:val="VT0(14):26"/>
				</v:userDefs>
				<rect x="0" y="197.817" width="24.2985" height="4.8597" class="st12"/>
			</g>
		</g>
		<g id="group50-109" transform="translate(236.279,-64.9377)" v:mID="50" v:groupContext="group">
			<title>Sheet.50</title>
			<g id="shape51-110" v:mID="51" v:groupContext="shape" transform="translate(143.314,42.1811) rotate(45)">
				<title>Rectangle</title>
				<v:userDefs>
					<v:ud v:nameU="visVersion" v:val="VT0(14):26"/>
				</v:userDefs>
				<rect x="0" y="197.817" width="24.2985" height="4.8597" class="st12"/>
			</g>
			<g id="shape52-112" v:mID="52" v:groupContext="shape" transform="translate(-125.889,59.3628) rotate(-45)">
				<title>Rectangle.48</title>
				<v:userDefs>
					<v:ud v:nameU="visVersion" v:val="VT0(14):26"/>
				</v:userDefs>
				<rect x="0" y="197.817" width="24.2985" height="4.8597" class="st12"/>
			</g>
		</g>
		<g id="group53-114" transform="translate(91.0318,-59)" v:mID="53" v:groupContext="group">
			<title>Sheet.53</title>
			<g id="shape54-115" v:mID="54" v:groupContext="shape" transform="translate(143.314,37.233) rotate(45)">
				<title>Rectangle</title>
				<v:userDefs>
					<v:ud v:nameU="visVersion" v:val="VT0(14):26"/>
				</v:userDefs>
				<rect x="0" y="196.418" width="31.2961" height="6.25923" class="st13"/>
			</g>
			<g id="shape55-117" v:mID="55" v:groupContext="shape" transform="translate(-138.888,59.3628) rotate(-45)">
				<title>Rectangle.48</title>
				<v:userDefs>
					<v:ud v:nameU="visVersion" v:val="VT0(14):26"/>
				</v:userDefs>
				<rect x="0" y="196.418" width="31.2961" height="6.25923" class="st13"/>
			</g>
		</g>
		<g id="group56-119" transform="translate(236.279,-118.377)" v:mID="56" v:groupContext="group">
			<title>Sheet.56</title>
			<g id="shape57-120" v:mID="57" v:groupContext="shape" transform="translate(143.314,37.233) rotate(45)">
				<title>Rectangle</title>
				<v:userDefs>
					<v:ud v:nameU="visVersion" v:val="VT0(14):26"/>
				</v:userDefs>
				<rect x="0" y="196.418" width="31.2961" height="6.25923" class="st13"/>
			</g>
			<g id="shape58-122" v:mID="58" v:groupContext="shape" transform="translate(-138.888,59.3628) rotate(-45)">
				<title>Rectangle.48</title>
				<v:userDefs>
					<v:ud v:nameU="visVersion" v:val="VT0(14):26"/>
				</v:userDefs>
				<rect x="0" y="196.418" width="31.2961" height="6.25923" class="st13"/>
			</g>
		</g>
	</g>
</svg>
