<?xml version="1.0" encoding="UTF-8" standalone="no"?>
<!DOCTYPE svg PUBLIC "-//W3C//DTD SVG 1.1//EN" "http://www.w3.org/Graphics/SVG/1.1/DTD/svg11.dtd">
<!-- Generated by Microsoft Visio, SVG Export users and service accounts.svg Page-1 -->
<svg xmlns="http://www.w3.org/2000/svg" xmlns:xlink="http://www.w3.org/1999/xlink" xmlns:ev="http://www.w3.org/2001/xml-events"
		xmlns:v="http://schemas.microsoft.com/visio/2003/SVGExtensions/" width="7.33604in" height="3.17618in"
		viewBox="0 0 528.195 228.685" xml:space="preserve" color-interpolation-filters="sRGB" class="st13">
	<v:documentProperties v:langID="1033" v:metric="true" v:viewMarkup="false">
		<v:userDefs>
			<v:ud v:nameU="msvConvertTheme"/>
		</v:userDefs>
	</v:documentProperties>

	<style type="text/css">
	<![CDATA[
		.st1 {fill:#ffffff;stroke:none;stroke-linecap:butt;stroke-width:0.75}
		.st2 {fill:#4d81b8;stroke:none;stroke-linecap:butt;stroke-width:0.75}
		.st3 {fill:#808080;stroke:none;stroke-linecap:butt;stroke-width:0.75}
		.st4 {fill:#9e9e9e;stroke:none;stroke-linecap:butt;stroke-width:0.75}
		.st5 {fill:#77a798;stroke:none;stroke-linecap:butt;stroke-width:0.75}
		.st6 {fill:none;stroke:none;stroke-linecap:round;stroke-linejoin:round;stroke-width:0.75}
		.st7 {fill:#000000;font-family:Calibri;font-size:1.00001em}
		.st8 {font-size:1em}
		.st9 {marker-end:url(#mrkr13-85);stroke:#000000;stroke-dasharray:1.75,1.25;stroke-linecap:round;stroke-linejoin:round;stroke-width:0.25}
		.st10 {fill:#000000;fill-opacity:1;stroke:#000000;stroke-opacity:1;stroke-width:0.090252707581227}
		.st11 {fill:#00b050;stroke:#00b050;stroke-linecap:round;stroke-linejoin:round;stroke-width:0.24}
		.st12 {fill:#ff0000;stroke:#ff0000;stroke-linecap:round;stroke-linejoin:round;stroke-width:0.24}
		.st13 {fill:none;fill-rule:evenodd;font-size:12px;overflow:visible;stroke-linecap:square;stroke-miterlimit:3}
	]]>
	</style>

	<defs id="Markers">
		<g id="lend13">
			<path d="M 3 1 L 0 0 L 3 -1 L 3 1 " style="stroke:none"/>
		</g>
		<marker id="mrkr13-85" class="st10" v:arrowType="13" v:arrowSize="2" v:setback="33.24" refX="-33.24" orient="auto"
				markerUnits="strokeWidth" overflow="visible">
			<use xlink:href="#lend13" transform="scale(-11.08,-11.08) "/>
		</marker>
	</defs>
	<g v:mID="0" v:index="1" v:groupContext="foregroundPage">
		<title>Page-1</title>
		<v:pageProperties v:drawingScale="0.0393701" v:pageScale="0.0393701" v:drawingUnits="24" v:shadowOffsetX="8.50394"
				v:shadowOffsetY="-8.50394"/>
		<v:layer v:name="Connector" v:index="0"/>
		<g id="group1-1" transform="translate(9.63981,-103.613)" v:mID="1" v:groupContext="group">
			<title>User.17</title>
			<g id="shape2-2" v:mID="2" v:groupContext="shape">
				<title>Sheet.2</title>
				<path d="M50.18 216.02 C48.08 204.09 46.91 202.74 36.29 199.91 C35.92 199.81 35.75 199.76 35.34 199.68 C34.99 199.6
							 34.61 199.56 34.22 199.56 C33.59 199.56 33.12 199.66 33.03 199.68 L32.12 199.87 L31.67 199.87 C36.49
							 197.52 39.82 192.58 39.82 186.86 C39.82 178.88 33.32 172.38 25.34 172.38 C17.35 172.38 10.86 178.88
							 10.86 186.86 C10.86 192.58 14.19 197.52 19.01 199.87 L18.52 199.87 L17.6 199.68 C17.52 199.66 17.04
							 199.56 16.42 199.56 C16.02 199.56 15.64 199.6 15.29 199.68 C14.89 199.76 14.72 199.81 14.35 199.91 C3.73
							 202.74 2.56 204.09 0.46 216.02 C-0 218.64 0.02 219.47 0.1 220.32 C0.69 226.49 14.04 228.68 25.32 228.69
							 L25.34 228.69 C36.6 228.68 49.95 226.49 50.54 220.29 C50.61 219.47 50.64 218.64 50.18 216.02 Z"
						class="st1"/>
			</g>
			<g id="shape3-4" v:mID="3" v:groupContext="shape" transform="translate(12.3593,-28.8412)">
				<title>Sheet.3</title>
				<path d="M12.98 202.72 C20.15 202.72 25.96 208.53 25.96 215.7 C25.96 222.87 20.15 228.69 12.98 228.69 C5.81 228.69
							 0 222.87 0 215.7 C-0 208.53 5.81 202.72 12.98 202.72 Z" class="st2"/>
			</g>
			<g id="shape4-6" v:mID="4" v:groupContext="shape" transform="translate(1.46625,-1.5)">
				<title>Sheet.4</title>
				<path d="M47.23 217.78 C45.21 206.26 44.38 205.51 34.44 202.86 C34.09 202.76 33.94 202.72 33.57 202.64 C32.72 202.46
							 31.88 202.64 31.88 202.64 C30.97 206.2 25.75 213.61 24.24 215.71 C24.12 215.71 24 215.7 23.87 215.7
							 C23.87 215.7 23.86 215.7 23.85 215.7 C23.85 215.7 23.84 215.7 23.83 215.7 C23.71 215.7 23.59 215.71
							 23.46 215.71 C21.95 213.61 16.73 206.2 15.83 202.64 C15.83 202.64 14.98 202.46 14.14 202.64 C13.77 202.72
							 13.61 202.76 13.27 202.86 C3.32 205.51 2.5 206.26 0.47 217.78 C-0 220.46 0.08 221.09 0.13 221.68 C0.53
							 225.87 10.95 228.68 23.83 228.69 C23.84 228.69 23.85 228.69 23.85 228.69 C23.86 228.69 23.87 228.69
							 23.87 228.69 C36.76 228.68 47.18 225.87 47.57 221.68 C47.63 221.09 47.71 220.46 47.23 217.78 Z"
						class="st2"/>
			</g>
		</g>
		<g id="group5-8" transform="translate(462.074,-82.3824)" v:mID="5" v:groupContext="group">
			<title>User Services</title>
			<g id="group6-9" transform="translate(0,-7.446)" v:mID="6" v:groupContext="group">
				<title>Layer_3</title>
				<g id="shape7-10" v:mID="7" v:groupContext="shape">
					<title>Sheet.7</title>
					<path d="M50.18 216.02 C48.08 204.09 46.91 202.74 36.29 199.91 C35.92 199.8 35.75 199.76 35.34 199.67 C34.99
								 199.6 34.61 199.56 34.22 199.56 C33.59 199.56 33.12 199.66 33.03 199.67 L32.12 199.87 L31.66 199.87
								 C36.48 197.51 39.82 192.58 39.82 186.86 C39.82 178.88 33.32 172.38 25.34 172.38 C17.35 172.38 10.86
								 178.88 10.86 186.86 C10.86 192.58 14.19 197.51 19.01 199.87 L18.52 199.87 L17.6 199.67 C17.52 199.66
								 17.04 199.56 16.42 199.56 C16.02 199.56 15.64 199.6 15.29 199.67 C14.89 199.76 14.72 199.8 14.35
								 199.91 C3.73 202.74 2.56 204.09 0.46 216.02 C-0 218.64 0.02 219.47 0.1 220.32 C0.69 226.49 14.04
								 228.68 25.32 228.69 L25.34 228.69 C36.6 228.68 49.95 226.48 50.54 220.29 C50.61 219.47 50.64 218.64
								 50.18 216.02 Z" class="st1"/>
				</g>
				<g id="shape8-12" v:mID="8" v:groupContext="shape" transform="translate(12.3585,-28.842)">
					<title>Sheet.8</title>
					<path d="M12.98 202.72 C20.15 202.72 25.96 208.53 25.96 215.7 C25.96 222.87 20.15 228.69 12.98 228.69 C5.81 228.69
								 0 222.87 0 215.7 C0 208.53 5.81 202.72 12.98 202.72 Z" class="st2"/>
				</g>
				<g id="shape9-14" v:mID="9" v:groupContext="shape" transform="translate(1.4655,-1.5)">
					<title>Sheet.9</title>
					<path d="M47.23 217.78 C45.21 206.26 44.38 205.51 34.44 202.85 C34.09 202.76 33.94 202.72 33.57 202.64 C32.72
								 202.46 31.88 202.64 31.88 202.64 C30.97 206.2 25.75 213.61 24.24 215.71 C24.12 215.7 24 215.7 23.87
								 215.7 C23.87 215.7 23.86 215.7 23.85 215.7 C23.85 215.7 23.84 215.7 23.83 215.7 C23.71 215.7 23.59
								 215.7 23.46 215.71 C21.95 213.61 16.73 206.2 15.83 202.64 C15.83 202.64 14.98 202.46 14.14 202.64
								 C13.77 202.72 13.61 202.76 13.27 202.85 C3.32 205.51 2.5 206.26 0.47 217.78 C-0 220.46 0.08 221.09
								 0.13 221.68 C0.53 225.87 10.95 228.68 23.83 228.69 C23.84 228.69 23.85 228.69 23.85 228.69 C23.86
								 228.69 23.87 228.69 23.87 228.69 C36.76 228.68 47.17 225.87 47.57 221.68 C47.63 221.09 47.71 220.46
								 47.23 217.78 Z" class="st2"/>
				</g>
			</g>
			<g id="group10-16" transform="translate(30.8078,3.41061E-13)" v:mID="10" v:groupContext="group">
				<title>Layer_4</title>
				<g id="shape11-17" v:mID="11" v:groupContext="shape">
					<title>Sheet.11</title>
					<path d="M12.45 228.69 L11.92 224.44 C11.63 224.34 11.35 224.22 11.07 224.09 L7.7 226.72 L1.97 220.99 L4.59 217.61
								 C4.47 217.34 4.35 217.05 4.24 216.77 L0 216.24 L0 208.13 L4.24 207.6 C4.35 207.32 4.47 207.03 4.59
								 206.76 L1.97 203.38 L7.7 197.65 L11.07 200.28 C11.35 200.15 11.63 200.04 11.92 199.93 L12.45 195.69
								 L20.55 195.69 L21.08 199.93 C21.37 200.04 21.65 200.15 21.93 200.28 L25.3 197.65 L31.03 203.38 L28.41
								 206.76 C28.54 207.03 28.65 207.32 28.76 207.6 L33 208.13 L33 216.24 L28.76 216.77 C28.65 217.06
								 28.53 217.34 28.41 217.62 L31.03 220.99 L25.3 226.72 L21.93 224.09 C21.65 224.22 21.37 224.34 21.08
								 224.44 L20.55 228.69 L12.45 228.69 Z" class="st1"/>
				</g>
				<g id="shape12-19" v:mID="12" v:groupContext="shape" transform="translate(1.5,-1.5)">
					<title>Sheet.12</title>
					<path d="M30 216.41 L30 210.96 L26.13 210.47 C25.89 209.63 25.56 208.83 25.14 208.08 L27.54 205.01 L23.68 201.15
								 L20.6 203.54 C19.85 203.13 19.05 202.8 18.21 202.56 L17.73 198.69 L12.27 198.69 L11.79 202.56 C10.95
								 202.8 10.15 203.13 9.4 203.54 L6.32 201.15 L2.46 205.01 L4.86 208.08 C4.44 208.83 4.11 209.63 3.87
								 210.47 L0 210.96 L0 216.41 L3.87 216.9 C4.11 217.74 4.44 218.54 4.86 219.29 L2.46 222.36 L6.32 226.22
								 L9.4 223.83 C10.15 224.25 10.95 224.57 11.79 224.82 L12.27 228.69 L17.73 228.69 L18.21 224.82 C19.05
								 224.57 19.85 224.24 20.6 223.83 L23.68 226.22 L27.54 222.36 L25.14 219.29 C25.56 218.54 25.89 217.74
								 26.13 216.9 L30 216.41 ZM20.8 213.69 C20.8 216.89 18.2 219.48 15 219.48 C11.8 219.48 9.2 216.89
								 9.2 213.69 C9.2 210.48 11.8 207.89 15 207.89 C18.2 207.89 20.8 210.48 20.8 213.69 Z" class="st3"/>
				</g>
			</g>
		</g>
		<g id="group13-21" transform="translate(224.687,-174.479)" v:mID="13" v:groupContext="group">
			<title>Users</title>
			<g id="group14-22" transform="translate(23.2507,-16.4992)" v:mID="14" v:groupContext="group">
				<title>Sheet.14</title>
				<g id="shape15-23" v:mID="15" v:groupContext="shape">
					<title>Sheet.15</title>
					<path d="M33.05 219.98 C31.67 212.15 30.81 211.15 23.81 209.28 C23.56 209.21 23.45 209.18 23.18 209.13 C23.07
								 209.1 22.94 209.1 22.82 209.09 C25.04 207.3 26.46 204.56 26.46 201.5 C26.46 196.11 22.08 191.73
								 16.69 191.73 C11.3 191.73 6.92 196.11 6.92 201.5 C6.92 204.56 8.34 207.3 10.56 209.09 C10.43 209.1
								 10.3 209.1 10.18 209.13 C9.91 209.19 9.8 209.21 9.55 209.28 C2.55 211.15 1.68 212.15 0.3 219.98
								 C-0 221.71 0.02 222.28 0.07 222.87 C0.48 227.15 8.91 228.68 16.68 228.69 L16.69 228.69 C24.44 228.68
								 32.87 227.15 33.28 222.84 C33.34 222.27 33.35 221.71 33.05 219.98 Z" class="st1"/>
				</g>
				<g id="shape16-25" v:mID="16" v:groupContext="shape" transform="translate(8.4225,-18.9188)">
					<title>Sheet.16</title>
					<path d="M8.27 212.15 C12.83 212.15 16.54 215.85 16.54 220.42 C16.54 224.98 12.83 228.69 8.27 228.69 C3.7 228.69
								 0 224.98 0 220.42 C0 215.85 3.7 212.15 8.27 212.15 Z" class="st4"/>
				</g>
				<g id="shape17-27" v:mID="17" v:groupContext="shape" transform="translate(1.4805,-1.50075)">
					<title>Sheet.17</title>
					<path d="M30.09 221.74 C28.8 214.4 28.27 213.92 21.94 212.23 C21.72 212.17 21.62 212.15 21.39 212.1 C20.85 211.98
								 20.31 212.1 20.31 212.1 C19.73 214.36 16.41 219.08 15.45 220.42 C15.37 220.42 15.29 220.42 15.21
								 220.42 C15.21 220.42 15.2 220.42 15.2 220.42 C15.19 220.42 15.19 220.42 15.18 220.42 C15.1 220.42
								 15.03 220.42 14.95 220.42 C13.99 219.08 10.66 214.36 10.08 212.1 C10.08 212.1 9.55 211.98 9.01 212.1
								 C8.77 212.15 8.67 212.17 8.45 212.23 C2.12 213.92 1.59 214.4 0.3 221.74 C-0 223.44 0.05 223.85 0.08
								 224.22 C0.34 226.89 6.97 228.68 15.18 228.69 C15.19 228.69 15.19 228.69 15.19 228.69 C15.2 228.69
								 15.21 228.69 15.21 228.69 C23.42 228.68 30.05 226.89 30.31 224.22 C30.34 223.85 30.39 223.44 30.09
								 221.74 Z" class="st4"/>
				</g>
			</g>
			<g id="group18-29" transform="translate(-2.8777E-13,-9.75)" v:mID="18" v:groupContext="group">
				<title>Sheet.18</title>
				<g id="shape19-30" v:mID="19" v:groupContext="shape">
					<title>Sheet.19</title>
					<path d="M33.05 219.98 C31.67 212.15 30.81 211.15 23.81 209.28 C23.56 209.21 23.45 209.18 23.18 209.13 C23.07
								 209.1 22.94 209.11 22.82 209.09 C25.04 207.3 26.46 204.56 26.46 201.5 C26.46 196.11 22.08 191.73
								 16.69 191.73 C11.3 191.73 6.92 196.11 6.92 201.5 C6.92 204.56 8.34 207.3 10.55 209.09 C10.43 209.1
								 10.3 209.1 10.18 209.13 C9.91 209.19 9.8 209.22 9.55 209.28 C2.55 211.15 1.68 212.15 0.3 219.98
								 C-0 221.71 0.02 222.28 0.07 222.87 C0.48 227.15 8.91 228.68 16.68 228.69 L16.69 228.69 C24.44 228.68
								 32.87 227.15 33.28 222.84 C33.34 222.27 33.35 221.71 33.05 219.98 Z" class="st1"/>
				</g>
				<g id="shape20-32" v:mID="20" v:groupContext="shape" transform="translate(8.421,-18.918)">
					<title>Sheet.20</title>
					<path d="M8.27 212.15 C12.84 212.15 16.54 215.85 16.54 220.42 C16.54 224.98 12.83 228.69 8.27 228.69 C3.7 228.69
								 0 224.98 0 220.42 C0 215.85 3.7 212.15 8.27 212.15 Z" class="st5"/>
				</g>
				<g id="shape21-34" v:mID="21" v:groupContext="shape" transform="translate(1.4805,-1.5)">
					<title>Sheet.21</title>
					<path d="M30.09 221.74 C28.8 214.4 28.27 213.92 21.94 212.23 C21.72 212.17 21.62 212.15 21.38 212.1 C20.85 211.98
								 20.31 212.1 20.31 212.1 C19.73 214.36 16.4 219.08 15.44 220.42 C15.37 220.42 15.29 220.42 15.21
								 220.42 C15.2 220.42 15.2 220.42 15.2 220.42 C15.19 220.42 15.19 220.42 15.18 220.42 C15.1 220.42
								 15.03 220.42 14.95 220.42 C13.99 219.08 10.66 214.36 10.08 212.1 C10.08 212.1 9.55 211.98 9.01 212.1
								 C8.77 212.15 8.67 212.17 8.45 212.23 C2.12 213.92 1.59 214.4 0.3 221.74 C-0 223.44 0.05 223.85 0.08
								 224.22 C0.34 226.89 6.97 228.68 15.18 228.69 C15.19 228.69 15.19 228.69 15.2 228.69 C15.2 228.69
								 15.2 228.69 15.21 228.69 C23.42 228.68 30.05 226.89 30.31 224.22 C30.34 223.85 30.39 223.44 30.09
								 221.74 Z" class="st5"/>
				</g>
			</g>
			<g id="group22-36" transform="translate(15.7508,2.55795E-13)" v:mID="22" v:groupContext="group">
				<title>Sheet.22</title>
				<g id="shape23-37" v:mID="23" v:groupContext="shape">
					<title>Sheet.23</title>
					<path d="M33.05 219.98 C31.67 212.15 30.81 211.15 23.81 209.28 C23.56 209.21 23.45 209.18 23.18 209.13 C23.07
								 209.1 22.94 209.11 22.82 209.09 C25.04 207.3 26.46 204.56 26.46 201.5 C26.46 196.11 22.08 191.73
								 16.69 191.73 C11.3 191.73 6.92 196.11 6.92 201.5 C6.92 204.56 8.34 207.3 10.55 209.09 C10.43 209.1
								 10.3 209.1 10.18 209.13 C9.91 209.18 9.8 209.21 9.55 209.28 C2.55 211.15 1.68 212.15 0.3 219.98
								 C-0 221.71 0.02 222.28 0.07 222.87 C0.48 227.15 8.91 228.68 16.68 228.69 L16.69 228.69 C24.44 228.68
								 32.87 227.15 33.28 222.84 C33.34 222.27 33.35 221.71 33.05 219.98 Z" class="st1"/>
				</g>
				<g id="shape24-39" v:mID="24" v:groupContext="shape" transform="translate(8.42175,-18.918)">
					<title>Sheet.24</title>
					<path d="M8.27 212.15 C12.84 212.15 16.54 215.85 16.54 220.42 C16.54 224.98 12.83 228.69 8.27 228.69 C3.7 228.69
								 0 224.98 0 220.42 C0 215.85 3.7 212.15 8.27 212.15 Z" class="st2"/>
				</g>
				<g id="shape25-41" v:mID="25" v:groupContext="shape" transform="translate(1.48125,-1.5)">
					<title>Sheet.25</title>
					<path d="M30.09 221.74 C28.8 214.4 28.27 213.92 21.94 212.23 C21.72 212.17 21.62 212.15 21.38 212.1 C20.85 211.98
								 20.31 212.1 20.31 212.1 C19.73 214.36 16.41 219.08 15.44 220.42 C15.37 220.42 15.29 220.42 15.21
								 220.42 C15.2 220.42 15.2 220.42 15.19 220.42 C15.19 220.42 15.19 220.42 15.18 220.42 C15.1 220.42
								 15.02 220.42 14.95 220.42 C13.99 219.08 10.66 214.36 10.08 212.1 C10.08 212.1 9.55 211.98 9.01 212.1
								 C8.77 212.14 8.67 212.17 8.45 212.23 C2.12 213.92 1.59 214.4 0.3 221.74 C-0 223.44 0.05 223.85 0.08
								 224.22 C0.34 226.89 6.97 228.68 15.18 228.69 C15.19 228.69 15.19 228.69 15.19 228.69 C15.2 228.69
								 15.2 228.69 15.21 228.69 C23.42 228.68 30.05 226.89 30.31 224.22 C30.34 223.85 30.39 223.44 30.09
								 221.74 Z" class="st2"/>
				</g>
			</g>
		</g>
		<g id="group26-43" transform="translate(224.777,-34.3649)" v:mID="26" v:groupContext="group">
			<title>Users.26</title>
			<g id="group27-44" transform="translate(23.2507,-16.4992)" v:mID="27" v:groupContext="group">
				<title>Sheet.27</title>
				<g id="shape28-45" v:mID="28" v:groupContext="shape">
					<title>Sheet.28</title>
					<path d="M33.05 219.98 C31.67 212.15 30.81 211.15 23.81 209.28 C23.56 209.21 23.45 209.18 23.18 209.13 C23.07
								 209.1 22.94 209.1 22.82 209.09 C25.04 207.3 26.46 204.56 26.46 201.5 C26.46 196.11 22.08 191.73
								 16.69 191.73 C11.3 191.73 6.92 196.11 6.92 201.5 C6.92 204.56 8.34 207.3 10.56 209.09 C10.43 209.1
								 10.3 209.1 10.18 209.13 C9.91 209.19 9.8 209.21 9.55 209.28 C2.55 211.15 1.68 212.15 0.3 219.98
								 C-0 221.71 0.02 222.28 0.07 222.87 C0.48 227.15 8.91 228.68 16.68 228.69 L16.69 228.69 C24.44 228.68
								 32.87 227.15 33.28 222.84 C33.34 222.27 33.35 221.71 33.05 219.98 Z" class="st1"/>
				</g>
				<g id="shape29-47" v:mID="29" v:groupContext="shape" transform="translate(8.4225,-18.9188)">
					<title>Sheet.29</title>
					<path d="M8.27 212.15 C12.83 212.15 16.54 215.85 16.54 220.42 C16.54 224.98 12.83 228.69 8.27 228.69 C3.7 228.69
								 0 224.98 0 220.42 C0 215.85 3.7 212.15 8.27 212.15 Z" class="st4"/>
				</g>
				<g id="shape30-49" v:mID="30" v:groupContext="shape" transform="translate(1.4805,-1.50075)">
					<title>Sheet.30</title>
					<path d="M30.09 221.74 C28.8 214.4 28.27 213.92 21.94 212.23 C21.72 212.17 21.62 212.15 21.39 212.1 C20.85 211.98
								 20.31 212.1 20.31 212.1 C19.73 214.36 16.41 219.08 15.45 220.42 C15.37 220.42 15.29 220.42 15.21
								 220.42 C15.21 220.42 15.2 220.42 15.2 220.42 C15.19 220.42 15.19 220.42 15.18 220.42 C15.1 220.42
								 15.03 220.42 14.95 220.42 C13.99 219.08 10.66 214.36 10.08 212.1 C10.08 212.1 9.55 211.98 9.01 212.1
								 C8.77 212.15 8.67 212.17 8.45 212.23 C2.12 213.92 1.59 214.4 0.3 221.74 C-0 223.44 0.05 223.85 0.08
								 224.22 C0.34 226.89 6.97 228.68 15.18 228.69 C15.19 228.69 15.19 228.69 15.19 228.69 C15.2 228.69
								 15.21 228.69 15.21 228.69 C23.42 228.68 30.05 226.89 30.31 224.22 C30.34 223.85 30.39 223.44 30.09
								 221.74 Z" class="st4"/>
				</g>
			</g>
			<g id="group31-51" transform="translate(-2.8777E-13,-9.75)" v:mID="31" v:groupContext="group">
				<title>Sheet.31</title>
				<g id="shape32-52" v:mID="32" v:groupContext="shape">
					<title>Sheet.32</title>
					<path d="M33.05 219.98 C31.67 212.15 30.81 211.15 23.81 209.28 C23.56 209.21 23.45 209.18 23.18 209.13 C23.07
								 209.1 22.94 209.11 22.82 209.09 C25.04 207.3 26.46 204.56 26.46 201.5 C26.46 196.11 22.08 191.73
								 16.69 191.73 C11.3 191.73 6.92 196.11 6.92 201.5 C6.92 204.56 8.34 207.3 10.55 209.09 C10.43 209.1
								 10.3 209.1 10.18 209.13 C9.91 209.19 9.8 209.22 9.55 209.28 C2.55 211.15 1.68 212.15 0.3 219.98
								 C-0 221.71 0.02 222.28 0.07 222.87 C0.48 227.15 8.91 228.68 16.68 228.69 L16.69 228.69 C24.44 228.68
								 32.87 227.15 33.28 222.84 C33.34 222.27 33.35 221.71 33.05 219.98 Z" class="st1"/>
				</g>
				<g id="shape33-54" v:mID="33" v:groupContext="shape" transform="translate(8.421,-18.918)">
					<title>Sheet.33</title>
					<path d="M8.27 212.15 C12.84 212.15 16.54 215.85 16.54 220.42 C16.54 224.98 12.83 228.69 8.27 228.69 C3.7 228.69
								 0 224.98 0 220.42 C0 215.85 3.7 212.15 8.27 212.15 Z" class="st5"/>
				</g>
				<g id="shape34-56" v:mID="34" v:groupContext="shape" transform="translate(1.4805,-1.5)">
					<title>Sheet.34</title>
					<path d="M30.09 221.74 C28.8 214.4 28.27 213.92 21.94 212.23 C21.72 212.17 21.62 212.15 21.38 212.1 C20.85 211.98
								 20.31 212.1 20.31 212.1 C19.73 214.36 16.4 219.08 15.44 220.42 C15.37 220.42 15.29 220.42 15.21
								 220.42 C15.2 220.42 15.2 220.42 15.2 220.42 C15.19 220.42 15.19 220.42 15.18 220.42 C15.1 220.42
								 15.03 220.42 14.95 220.42 C13.99 219.08 10.66 214.36 10.08 212.1 C10.08 212.1 9.55 211.98 9.01 212.1
								 C8.77 212.15 8.67 212.17 8.45 212.23 C2.12 213.92 1.59 214.4 0.3 221.74 C-0 223.44 0.05 223.85 0.08
								 224.22 C0.34 226.89 6.97 228.68 15.18 228.69 C15.19 228.69 15.19 228.69 15.2 228.69 C15.2 228.69
								 15.2 228.69 15.21 228.69 C23.42 228.68 30.05 226.89 30.31 224.22 C30.34 223.85 30.39 223.44 30.09
								 221.74 Z" class="st5"/>
				</g>
			</g>
			<g id="group35-58" transform="translate(15.7508,2.55795E-13)" v:mID="35" v:groupContext="group">
				<title>Sheet.35</title>
				<g id="shape36-59" v:mID="36" v:groupContext="shape">
					<title>Sheet.36</title>
					<path d="M33.05 219.98 C31.67 212.15 30.81 211.15 23.81 209.28 C23.56 209.21 23.45 209.18 23.18 209.13 C23.07
								 209.1 22.94 209.11 22.82 209.09 C25.04 207.3 26.46 204.56 26.46 201.5 C26.46 196.11 22.08 191.73
								 16.69 191.73 C11.3 191.73 6.92 196.11 6.92 201.5 C6.92 204.56 8.34 207.3 10.55 209.09 C10.43 209.1
								 10.3 209.1 10.18 209.13 C9.91 209.18 9.8 209.21 9.55 209.28 C2.55 211.15 1.68 212.15 0.3 219.98
								 C-0 221.71 0.02 222.28 0.07 222.87 C0.48 227.15 8.91 228.68 16.68 228.69 L16.69 228.69 C24.44 228.68
								 32.87 227.15 33.28 222.84 C33.34 222.27 33.35 221.71 33.05 219.98 Z" class="st1"/>
				</g>
				<g id="shape37-61" v:mID="37" v:groupContext="shape" transform="translate(8.42175,-18.918)">
					<title>Sheet.37</title>
					<path d="M8.27 212.15 C12.84 212.15 16.54 215.85 16.54 220.42 C16.54 224.98 12.83 228.69 8.27 228.69 C3.7 228.69
								 0 224.98 0 220.42 C0 215.85 3.7 212.15 8.27 212.15 Z" class="st2"/>
				</g>
				<g id="shape38-63" v:mID="38" v:groupContext="shape" transform="translate(1.48125,-1.5)">
					<title>Sheet.38</title>
					<path d="M30.09 221.74 C28.8 214.4 28.27 213.92 21.94 212.23 C21.72 212.17 21.62 212.15 21.38 212.1 C20.85 211.98
								 20.31 212.1 20.31 212.1 C19.73 214.36 16.41 219.08 15.44 220.42 C15.37 220.42 15.29 220.42 15.21
								 220.42 C15.2 220.42 15.2 220.42 15.19 220.42 C15.19 220.42 15.19 220.42 15.18 220.42 C15.1 220.42
								 15.02 220.42 14.95 220.42 C13.99 219.08 10.66 214.36 10.08 212.1 C10.08 212.1 9.55 211.98 9.01 212.1
								 C8.77 212.14 8.67 212.17 8.45 212.23 C2.12 213.92 1.59 214.4 0.3 221.74 C-0 223.44 0.05 223.85 0.08
								 224.22 C0.34 226.89 6.97 228.68 15.18 228.69 C15.19 228.69 15.19 228.69 15.19 228.69 C15.2 228.69
								 15.2 228.69 15.21 228.69 C23.42 228.68 30.05 226.89 30.31 224.22 C30.34 223.85 30.39 223.44 30.09
								 221.74 Z" class="st2"/>
				</g>
			</g>
		</g>
		<g id="shape39-65" v:mID="39" v:groupContext="shape" transform="translate(224.777,-150.306)">
			<title>Sheet.39</title>
			<desc>Role Group</desc>
			<v:textBlock v:margins="rect(4,4,4,4)" v:tabSpace="42.5197"/>
			<v:textRect cx="32.685" cy="218.685" width="65.38" height="20"/>
			<rect x="0" y="208.685" width="65.3701" height="20" class="st6"/>
			<text x="5.2" y="222.29" class="st7" v:langID="1045"><v:paragraph v:horizAlign="1"/><v:tabList/>Role Group</text>		</g>
		<g id="shape40-68" v:mID="40" v:groupContext="shape" transform="translate(224.777,-4.40009)">
			<title>Sheet.40</title>
			<desc>Resource Group</desc>
			<v:textBlock v:margins="rect(4,4,4,4)" v:tabSpace="42.5197"/>
			<v:textRect cx="32.685" cy="218.685" width="65.38" height="20"/>
			<rect x="0" y="208.685" width="65.3701" height="20" class="st6"/>
			<text x="10.16" y="215.09" class="st7" v:langID="1045"><v:paragraph v:horizAlign="1"/><v:tabList/>Resource <tspan
						x="17.34" dy="1.2em" class="st8">Group</tspan></text>		</g>
		<g id="shape41-72" v:mID="41" v:groupContext="shape" transform="translate(0.75,-75.1087)">
			<title>Sheet.41</title>
			<desc>User Account</desc>
			<v:textBlock v:margins="rect(4,4,4,4)" v:tabSpace="42.5197"/>
			<v:textRect cx="32.685" cy="218.685" width="65.38" height="20"/>
			<rect x="0" y="208.685" width="65.3701" height="20" class="st6"/>
			<text x="21.41" y="215.09" class="st7" v:langID="1045"><v:paragraph v:horizAlign="1"/><v:tabList/>User <tspan x="12.66"
						dy="1.2em" class="st8">Account</tspan></text>		</g>
		<g id="shape42-76" v:mID="42" v:groupContext="shape" transform="translate(462.074,-51.093)">
			<title>Sheet.42</title>
			<desc>Service Account</desc>
			<v:textBlock v:margins="rect(4,4,4,4)" v:tabSpace="42.5197"/>
			<v:textRect cx="32.685" cy="218.685" width="65.38" height="20"/>
			<rect x="0" y="208.685" width="65.3701" height="20" class="st6"/>
			<text x="15.24" y="215.09" class="st7" v:langID="1045"><v:paragraph v:horizAlign="1"/><v:tabList/>Service <tspan
						x="12.66" dy="1.2em" class="st8">Account</tspan></text>		</g>
		<g id="shape43-80" v:mID="43" v:groupContext="shape" v:layerMember="0" transform="translate(60.2776,-140.463)">
			<title>Dynamic connector</title>
			<path d="M0 228.69 L158.66 184.41" class="st9"/>
		</g>
		<g id="shape44-86" v:mID="44" v:groupContext="shape" v:layerMember="0" transform="translate(60.2776,-140.463)">
			<title>Dynamic connector.44</title>
			<path d="M0 228.69 L157.29 323.6" class="st9"/>
		</g>
		<g id="shape45-91" v:mID="45" v:groupContext="shape" v:layerMember="0" transform="translate(465.815,-113.366)">
			<title>Dynamic connector.45</title>
			<path d="M0 228.69 L-177.03 148.69" class="st9"/>
		</g>
		<g id="shape46-96" v:mID="46" v:groupContext="shape" v:layerMember="0" transform="translate(464.52,-110.877)">
			<title>Dynamic connector.46</title>
			<path d="M0 228.69 L-175.29 289.9" class="st9"/>
		</g>
		<g id="group49-101" transform="translate(118.609,-154.636)" v:mID="49" v:groupContext="group">
			<title>Sheet.49</title>
			<g id="shape47-102" v:mID="47" v:groupContext="shape" transform="translate(161.705,42.3729) rotate(45)">
				<title>Rectangle</title>
				<v:userDefs>
					<v:ud v:nameU="visVersion" v:val="VT0(14):26"/>
				</v:userDefs>
				<rect x="0" y="221.725" width="34.8001" height="6.96003" class="st11"/>
			</g>
			<g id="shape48-104" v:mID="48" v:groupContext="shape" transform="translate(-136.748,66.9803) rotate(-45)">
				<title>Rectangle.48</title>
				<v:userDefs>
					<v:ud v:nameU="visVersion" v:val="VT0(14):26"/>
				</v:userDefs>
				<rect x="0" y="221.725" width="34.8001" height="6.96003" class="st11"/>
			</g>
		</g>
		<g id="group50-106" transform="translate(338.073,-69.5969)" v:mID="50" v:groupContext="group">
			<title>Sheet.50</title>
			<g id="shape51-107" v:mID="51" v:groupContext="shape" transform="translate(161.705,42.3729) rotate(45)">
				<title>Rectangle</title>
				<v:userDefs>
					<v:ud v:nameU="visVersion" v:val="VT0(14):26"/>
				</v:userDefs>
				<rect x="0" y="221.725" width="34.8001" height="6.96003" class="st11"/>
			</g>
			<g id="shape52-109" v:mID="52" v:groupContext="shape" transform="translate(-136.748,66.9803) rotate(-45)">
				<title>Rectangle.48</title>
				<v:userDefs>
					<v:ud v:nameU="visVersion" v:val="VT0(14):26"/>
				</v:userDefs>
				<rect x="0" y="221.725" width="34.8001" height="6.96003" class="st11"/>
			</g>
		</g>
		<g id="group53-111" transform="translate(130.051,-61.093)" v:mID="53" v:groupContext="group">
			<title>Sheet.53</title>
			<g id="shape54-112" v:mID="54" v:groupContext="shape" transform="translate(161.705,35.2863) rotate(45)">
				<title>Rectangle</title>
				<v:userDefs>
					<v:ud v:nameU="visVersion" v:val="VT0(14):26"/>
				</v:userDefs>
				<rect x="0" y="219.721" width="44.8221" height="8.96442" class="st12"/>
			</g>
			<g id="shape55-114" v:mID="55" v:groupContext="shape" transform="translate(-155.366,66.9803) rotate(-45)">
				<title>Rectangle.48</title>
				<v:userDefs>
					<v:ud v:nameU="visVersion" v:val="VT0(14):26"/>
				</v:userDefs>
				<rect x="0" y="219.721" width="44.8221" height="8.96442" class="st12"/>
			</g>
		</g>
		<g id="group56-116" transform="translate(338.073,-146.132)" v:mID="56" v:groupContext="group">
			<title>Sheet.56</title>
			<g id="shape57-117" v:mID="57" v:groupContext="shape" transform="translate(161.705,35.2863) rotate(45)">
				<title>Rectangle</title>
				<v:userDefs>
					<v:ud v:nameU="visVersion" v:val="VT0(14):26"/>
				</v:userDefs>
				<rect x="0" y="219.721" width="44.8221" height="8.96442" class="st12"/>
			</g>
			<g id="shape58-119" v:mID="58" v:groupContext="shape" transform="translate(-155.366,66.9803) rotate(-45)">
				<title>Rectangle.48</title>
				<v:userDefs>
					<v:ud v:nameU="visVersion" v:val="VT0(14):26"/>
				</v:userDefs>
				<rect x="0" y="219.721" width="44.8221" height="8.96442" class="st12"/>
			</g>
		</g>
	</g>
</svg>
