<?xml version="1.0" encoding="UTF-8" standalone="no"?>
<!DOCTYPE svg PUBLIC "-//W3C//DTD SVG 1.1//EN" "http://www.w3.org/Graphics/SVG/1.1/DTD/svg11.dtd">
<!-- Generated by Microsoft Visio, SVG Export MT-arch.svg Page-34 -->
<svg xmlns="http://www.w3.org/2000/svg" xmlns:xlink="http://www.w3.org/1999/xlink" xmlns:ev="http://www.w3.org/2001/xml-events"
		xmlns:v="http://schemas.microsoft.com/visio/2003/SVGExtensions/" width="16.0354in" height="11.6929in"
		viewBox="0 0 1154.55 841.89" xml:space="preserve" color-interpolation-filters="sRGB" class="st12">
	<v:documentProperties v:langID="1045" v:metric="true" v:viewMarkup="false">
		<v:userDefs>
			<v:ud v:nameU="msvNoAutoConnect" v:val="VT0(1):26"/>
		</v:userDefs>
	</v:documentProperties>

	<style type="text/css">
	<![CDATA[
		.st1 {fill:#f2f2f2;stroke:#000000;stroke-dasharray:0,15;stroke-linecap:round;stroke-linejoin:round;stroke-width:3}
		.st2 {fill:#000000;font-family:Calibri;font-size:1.99999em}
		.st3 {fill:#ffffff;stroke:#0070c0;stroke-dasharray:21,15,0,15;stroke-linecap:round;stroke-linejoin:round;stroke-width:3}
		.st4 {fill:#ffffff;stroke:#ff0000;stroke-dasharray:21,15,0,15;stroke-linecap:round;stroke-linejoin:round;stroke-width:3}
		.st5 {fill:#ffffff;stroke:#ffc000;stroke-dasharray:21,15,0,15;stroke-linecap:round;stroke-linejoin:round;stroke-width:3}
		.st6 {fill:none;stroke:none;stroke-linecap:round;stroke-linejoin:round;stroke-width:0.75}
		.st7 {fill:#000000;font-family:Calibri;font-size:2.50001em;font-weight:bold}
		.st8 {fill:#434445;stroke:none;stroke-linecap:butt;stroke-width:0.75}
		.st9 {fill:#000000;font-family:Calibri;font-size:1.99999em;font-weight:bold}
		.st10 {fill:#d7e3bf;stroke:none;stroke-linecap:butt;stroke-width:0.75}
		.st11 {stroke:#000000;stroke-linecap:round;stroke-linejoin:round;stroke-width:2.25}
		.st12 {fill:none;fill-rule:evenodd;font-size:12px;overflow:visible;stroke-linecap:square;stroke-miterlimit:3}
	]]>
	</style>

	<g v:mID="105" v:index="34" v:groupContext="foregroundPage">
		<title>Page-34</title>
		<v:pageProperties v:drawingScale="0.0393701" v:pageScale="0.0393701" v:drawingUnits="24" v:shadowOffsetX="8.50394"
				v:shadowOffsetY="-8.50394"/>
		<v:layer v:name="WD1" v:index="0"/>
		<v:layer v:name="Underlay" v:index="1"/>
		<g id="shape1-1" v:mID="1" v:groupContext="shape" v:layerMember="0" transform="translate(219.968,-13.0394)">
			<title>Sheet.1</title>
			<desc>`</desc>
			<v:textBlock v:margins="rect(4,4,4,4)" v:tabSpace="42.5197" v:verticalAlign="2"/>
			<v:textRect cx="446.457" cy="446.457" width="892.92" height="790.866"/>
			<rect x="0" y="51.0235" width="892.914" height="790.866" rx="14.1732" ry="14.1732" class="st1"/>
			<text x="442.96" y="830.69" class="st2" v:langID="1045"><v:paragraph v:horizAlign="1"/><v:tabList/>`</text>		</g>
		<g id="shape2-4" v:mID="2" v:groupContext="shape" transform="translate(324.201,-120.444)">
			<title>Sheet.2</title>
			<path d="M0 841.89 L684.02 841.89 L684.02 644.9 L0 644.9 L0 841.89 Z" class="st3"/>
		</g>
		<g id="shape3-6" v:mID="3" v:groupContext="shape" transform="translate(325.749,-351.05)">
			<title>Sheet.3</title>
			<path d="M0 841.89 L684.02 841.89 L684.02 644.9 L0 644.9 L0 841.89 Z" class="st4"/>
		</g>
		<g id="shape4-8" v:mID="4" v:groupContext="shape" transform="translate(329.929,-586.797)">
			<title>Sheet.4</title>
			<path d="M0 841.89 L683.74 841.89 L683.74 655.8 L0 655.8 L0 841.89 Z" class="st5"/>
		</g>
		<g id="shape5-10" v:mID="5" v:groupContext="shape" v:layerMember="1" transform="translate(367.105,-485.184)">
			<title>Sheet.5</title>
			<desc>VRF 2</desc>
			<v:textBlock v:margins="rect(4,4,4,4)" v:tabSpace="42.5197"/>
			<v:textRect cx="53.9906" cy="816.878" width="107.99" height="50.0239"/>
			<rect x="0" y="791.866" width="107.981" height="50.0239" class="st6"/>
			<text x="18.8" y="825.88" class="st7" v:langID="1045"><v:paragraph v:horizAlign="1"/><v:tabList/>VRF 2</text>		</g>
		<g id="group6-13" transform="translate(611.149,-614.79)" v:mID="6" v:groupContext="group">
			<title>Sheet.6</title>
			<g id="shape7-14" v:mID="7" v:groupContext="shape">
				<title>Logical distributed router.1182</title>
				<path d="M59.53 741.95 C26.65 741.95 0.01 764.31 0 791.91 L0 791.91 L0 791.91 L0 791.92 C0 819.52 26.65 841.89 59.53
							 841.89 C92.4 841.89 119.05 819.52 119.06 791.92 L119.06 791.92 L119.06 791.92 C119.05 764.32 92.4 741.95
							 59.53 741.95 ZM20.49 824.69 C10.97 816.69 4.99 805.8 4.43 793.73 L45 793.73 L45 796.44 L54.34 791.92
							 L45 787.39 L45 790.1 L4.44 790.09 C5 778.02 10.98 767.14 20.5 759.15 C30.33 750.9 43.84 745.78 58.79
							 745.61 L54.13 752.37 L57.36 752.37 L57.36 831.44 L54.13 831.44 L58.8 838.22 C43.84 838.06 30.33 832.94
							 20.49 824.69 ZM64.71 791.92 L74.05 796.45 L74.05 793.73 L114.61 793.74 C114.05 805.81 108.07 816.7 98.56
							 824.69 C88.72 832.94 75.21 838.06 60.25 838.23 L64.92 831.45 L61.69 831.45 L61.69 752.38 L64.92 752.38
							 L60.26 745.61 C75.21 745.78 88.72 750.9 98.55 759.16 C108.07 767.15 114.05 778.04 114.61 790.11 L74.04
							 790.1 L74.04 787.39 L64.71 791.92 Z" class="st8"/>
			</g>
			<g id="shape8-16" v:mID="8" v:groupContext="shape" v:layerMember="0" transform="translate(61.0246,-51.8734)">
				<title>NSX-T Tier 1 Router.9</title>
				<desc>T1</desc>
				<v:textBlock v:margins="rect(4,4,4,4)" v:tabSpace="42.5197"/>
				<v:textRect cx="21.4938" cy="824.428" width="42.99" height="34.9227"/>
				<rect x="0" y="806.967" width="42.9876" height="34.9227" class="st6"/>
				<text x="9.47" y="831.63" class="st9" v:langID="1045"><v:paragraph v:horizAlign="1"/><v:tabList/>T1</text>			</g>
		</g>
		<g id="shape9-19" v:mID="9" v:groupContext="shape" v:layerMember="1" transform="translate(599.023,-722.201)">
			<title>Sheet.9</title>
			<desc>Tier 1 - GW1</desc>
			<v:textBlock v:margins="rect(4,4,4,4)" v:tabSpace="42.5197"/>
			<v:textRect cx="86.8504" cy="816.878" width="173.71" height="50.0239"/>
			<rect x="0" y="791.866" width="173.701" height="50.0239" class="st6"/>
			<text x="9.73" y="825.88" class="st7" v:langID="1045"><v:paragraph v:horizAlign="1"/><v:tabList/>Tier 1 - GW1</text>		</g>
		<g id="group10-22" transform="translate(611.149,-401.574)" v:mID="10" v:groupContext="group">
			<title>Sheet.10</title>
			<g id="shape11-23" v:mID="11" v:groupContext="shape">
				<title>Logical distributed router.1182</title>
				<path d="M52.44 741.95 C23.48 741.95 0.01 764.31 0 791.91 L0 791.91 L0 791.91 L0 791.92 C0 819.52 23.48 841.89 52.44
							 841.89 C81.4 841.89 104.88 819.52 104.88 791.92 L104.88 791.92 L104.88 791.92 C104.88 764.32 81.4 741.95
							 52.44 741.95 ZM18.05 824.69 C9.67 816.69 4.4 805.8 3.91 793.73 L39.64 793.73 L39.64 796.44 L47.87 791.92
							 L39.65 787.39 L39.65 790.1 L3.91 790.09 C4.4 778.02 9.68 767.14 18.06 759.15 C26.72 750.9 38.62 745.78
							 51.79 745.61 L47.69 752.37 L50.54 752.37 L50.54 831.44 L47.69 831.44 L51.8 838.22 C38.62 838.06 26.72
							 832.94 18.05 824.69 ZM57.01 791.92 L65.23 796.45 L65.23 793.73 L100.97 793.74 C100.48 805.81 95.2 816.7
							 86.82 824.69 C78.16 832.94 66.26 838.06 53.08 838.23 L57.19 831.45 L54.34 831.45 L54.34 752.38 L57.19
							 752.38 L53.09 745.61 C66.26 745.78 78.16 750.9 86.82 759.16 C95.2 767.15 100.48 778.04 100.97 790.11
							 L65.23 790.1 L65.23 787.39 L57.01 791.92 Z" class="st8"/>
			</g>
			<g id="shape12-25" v:mID="12" v:groupContext="shape" v:layerMember="0" transform="translate(53.7598,-51.8734)">
				<title>NSX-T Tier 1 Router.9</title>
				<desc>T1</desc>
				<v:textBlock v:margins="rect(4,4,4,4)" v:tabSpace="42.5197"/>
				<v:textRect cx="18.935" cy="824.428" width="37.88" height="34.9227"/>
				<rect x="0" y="806.967" width="37.8701" height="34.9227" class="st6"/>
				<text x="6.91" y="831.63" class="st9" v:langID="1045"><v:paragraph v:horizAlign="1"/><v:tabList/>T1</text>			</g>
		</g>
		<g id="shape13-28" v:mID="13" v:groupContext="shape" v:layerMember="1" transform="translate(602.645,-495.429)">
			<title>Sheet.13</title>
			<desc>Tier 1 - GW 2</desc>
			<v:textBlock v:margins="rect(4,4,4,4)" v:tabSpace="42.5197"/>
			<v:textRect cx="93.937" cy="816.878" width="187.88" height="50.0239"/>
			<rect x="0" y="791.866" width="187.874" height="50.0239" class="st6"/>
			<text x="10.04" y="825.88" class="st7" v:langID="1045"><v:paragraph v:horizAlign="1"/><v:tabList/>Tier 1 -  GW 2</text>		</g>
		<g id="group14-31" transform="translate(616.819,-168.967)" v:mID="14" v:groupContext="group">
			<title>Sheet.14</title>
			<g id="shape15-32" v:mID="15" v:groupContext="shape">
				<title>Logical distributed router.1182</title>
				<path d="M49.6 741.95 C22.21 741.95 0.01 764.31 0 791.91 L0 791.91 L0 791.91 L0 791.92 C0 819.52 22.21 841.89 49.61
							 841.89 C77 841.89 99.21 819.52 99.21 791.92 L99.21 791.92 L99.21 791.92 C99.21 764.32 77 741.95 49.6
							 741.95 ZM17.08 824.69 C9.15 816.69 4.16 805.8 3.69 793.73 L37.5 793.73 L37.5 796.44 L45.29 791.92 L37.5
							 787.39 L37.5 790.1 L3.7 790.09 C4.17 778.02 9.15 767.14 17.08 759.15 C25.27 750.9 36.53 745.78 48.99
							 745.61 L45.11 752.37 L47.8 752.37 L47.8 831.44 L45.11 831.44 L49 838.22 C36.53 838.06 25.27 832.94 17.08
							 824.69 ZM53.92 791.92 L61.71 796.45 L61.71 793.73 L95.51 793.74 C95.04 805.81 90.06 816.7 82.13 824.69
							 C73.94 832.94 62.67 838.06 50.21 838.23 L54.1 831.45 L51.4 831.45 L51.4 752.38 L54.1 752.38 L50.22 745.61
							 C62.68 745.78 73.94 750.9 82.13 759.16 C90.06 767.15 95.04 778.04 95.51 790.11 L61.7 790.1 L61.7 787.39
							 L53.92 791.92 Z" class="st8"/>
			</g>
			<g id="shape16-34" v:mID="16" v:groupContext="shape" v:layerMember="0" transform="translate(50.8538,-51.8734)">
				<title>NSX-T Tier 1 Router.9</title>
				<desc>T1</desc>
				<v:textBlock v:margins="rect(4,4,4,4)" v:tabSpace="42.5197"/>
				<v:textRect cx="17.9115" cy="824.428" width="35.83" height="34.9227"/>
				<rect x="0" y="806.967" width="35.823" height="34.9227" class="st6"/>
				<text x="5.89" y="831.63" class="st9" v:langID="1045"><v:paragraph v:horizAlign="1"/><v:tabList/>T1</text>			</g>
		</g>
		<g id="shape17-37" v:mID="17" v:groupContext="shape" v:layerMember="1" transform="translate(588.472,-265.323)">
			<title>Sheet.17</title>
			<desc>Tier 1 - GW3</desc>
			<v:textBlock v:margins="rect(4,4,4,4)" v:tabSpace="42.5197"/>
			<v:textRect cx="108.139" cy="816.878" width="216.28" height="50.0239"/>
			<rect x="0" y="791.866" width="216.279" height="50.0239" class="st6"/>
			<text x="27.63" y="825.88" class="st7" v:langID="1045"><v:paragraph v:horizAlign="1"/><v:tabList/>Tier 1 -  GW3</text>		</g>
		<g id="group18-40" transform="translate(40.9075,-208.63)" v:mID="18" v:groupContext="group">
			<title>Sheet.18</title>
			<g id="shape19-41" v:mID="19" v:groupContext="shape">
				<title>Logical distributed router.1182</title>
				<path d="M231.25 366.21 C103.55 366.21 0.04 472.66 0 603.99 L0 604 L0 604.01 L0 604.04 C0.01 735.41 103.54 841.89
							 231.26 841.89 C358.98 841.89 462.51 735.43 462.53 604.07 L462.53 604.06 L462.53 604.04 C462.52 472.69
							 358.98 366.21 231.25 366.21 ZM79.62 760.01 C42.64 721.96 19.38 670.13 17.22 612.65 L174.82 612.68 L174.82
							 625.58 L211.12 604.03 L174.84 582.47 L174.84 595.38 L17.24 595.35 C19.42 537.91 42.67 486.1 79.63 448.08
							 C117.82 408.81 170.3 384.42 228.38 383.62 L210.31 415.82 L222.86 415.82 L222.86 792.16 L210.31 792.16
							 L228.43 824.43 C170.32 823.68 117.82 799.29 79.62 760.01 ZM251.39 604.03 L287.67 625.59 L287.67 612.68
							 L445.27 612.71 C443.1 670.17 419.84 721.98 382.89 760.02 C344.68 799.29 292.19 823.68 234.08 824.46
							 L252.2 792.19 L239.65 792.19 L239.65 415.85 L252.2 415.85 L234.11 383.65 C292.21 384.45 344.68 408.83
							 382.88 448.11 C419.84 486.14 443.1 537.97 445.26 595.44 L287.66 595.4 L287.66 582.5 L251.39 604.03 Z"
						class="st10"/>
			</g>
		</g>
		<g id="group20-43" transform="translate(368.718,-631.129)" v:mID="20" v:groupContext="group">
			<title>Physical Upstream Router.1107</title>
			<g id="shape21-44" v:mID="21" v:groupContext="shape" transform="translate(35.4038,-27.0028)">
				<title>Sheet.21</title>
				<path d="M8.94 841.89 L0 833.1 L8.94 824.47 L8.94 829.19 L24.78 829.19 L24.78 837.46 L8.94 837.46 L8.94 841.89 Z"
						class="st8"/>
			</g>
			<g id="shape22-46" v:mID="22" v:groupContext="shape">
				<title>Sheet.22</title>
				<path d="M62.69 805.9 L61.53 805.9 C61.53 815.12 58.21 823.45 52.86 829.5 C47.5 835.54 40.1 839.27 31.93 839.27 C23.75
							 839.27 16.35 835.54 10.99 829.5 C5.63 823.46 2.32 815.12 2.32 805.9 C2.32 796.68 5.63 788.35 10.99 782.31
							 C16.35 776.27 23.75 772.54 31.93 772.54 C40.1 772.54 47.5 776.27 52.86 782.31 C58.21 788.35 61.53 796.68
							 61.53 805.9 L62.69 805.9 L63.85 805.9 C63.85 786.03 49.56 769.92 31.93 769.92 C14.29 769.92 0 786.03
							 0 805.9 C0 825.78 14.29 841.89 31.93 841.89 C49.56 841.89 63.85 825.78 63.85 805.9 L62.69 805.9 Z"
						class="st8"/>
			</g>
			<g id="shape23-48" v:mID="23" v:groupContext="shape" transform="translate(3.86747,-27.0028)">
				<title>Sheet.23</title>
				<path d="M15.84 824.47 L24.78 833.25 L15.84 841.89 L15.84 837.17 L0 837.17 L0 828.9 L15.84 828.9 L15.84 824.47 Z"
						class="st8"/>
			</g>
			<g id="shape24-50" v:mID="24" v:groupContext="shape" transform="translate(24.1953,-3.39591)">
				<title>Sheet.24</title>
				<path d="M15.46 831.81 L7.66 841.89 L0 831.81 L4.19 831.81 L4.19 813.96 L11.53 813.96 L11.53 831.81 L15.46 831.81
							 Z" class="st8"/>
			</g>
			<g id="shape25-52" v:mID="25" v:groupContext="shape" transform="translate(24.1953,-40.2633)">
				<title>Sheet.25</title>
				<path d="M0 824.04 L7.8 813.96 L15.46 824.04 L11.27 824.04 L11.27 841.89 L3.93 841.89 L3.93 824.04 L0 824.04 Z"
						class="st8"/>
			</g>
		</g>
		<g id="shape26-54" v:mID="26" v:groupContext="shape" v:layerMember="1" transform="translate(374.473,-699.598)">
			<title>Sheet.26</title>
			<desc>VRF 1</desc>
			<v:textBlock v:margins="rect(4,4,4,4)" v:tabSpace="42.5197"/>
			<v:textRect cx="50.3068" cy="816.878" width="100.62" height="50.0239"/>
			<rect x="0" y="791.866" width="100.614" height="50.0239" class="st6"/>
			<text x="15.11" y="825.88" class="st7" v:langID="1045"><v:paragraph v:horizAlign="1"/><v:tabList/>VRF 1</text>		</g>
		<g id="shape27-57" v:mID="27" v:groupContext="shape" v:layerMember="0" transform="translate(151.125,-513.114)">
			<title>NSX-T Tier 1 Router.9</title>
			<desc>T0</desc>
			<v:textBlock v:margins="rect(4,4,4,4)" v:tabSpace="42.5197"/>
			<v:textRect cx="20.6231" cy="824.428" width="41.25" height="34.9227"/>
			<rect x="0" y="806.967" width="41.2462" height="34.9227" class="st6"/>
			<text x="5.59" y="833.43" class="st7" v:langID="1045"><v:paragraph v:horizAlign="1"/><v:tabList/>T0</text>		</g>
		<g id="group28-60" transform="translate(347.527,-415.559)" v:mID="28" v:groupContext="group">
			<title>Physical Upstream Router.374</title>
			<g id="shape29-61" v:mID="29" v:groupContext="shape" transform="translate(47.1539,-27.0028)">
				<title>Sheet.29</title>
				<path d="M11.91 841.89 L0 833.1 L11.91 824.47 L11.91 829.19 L33 829.19 L33 837.46 L11.91 837.46 L11.91 841.89 Z"
						class="st8"/>
			</g>
			<g id="shape30-63" v:mID="30" v:groupContext="shape">
				<title>Sheet.30</title>
				<path d="M83.49 805.9 L81.95 805.9 C81.95 815.12 77.54 823.45 70.4 829.5 C63.26 835.54 53.41 839.27 42.52 839.27
							 C31.63 839.27 21.78 835.54 14.64 829.5 C7.5 823.46 3.09 815.12 3.09 805.9 C3.09 796.68 7.5 788.35 14.64
							 782.31 C21.78 776.27 31.63 772.54 42.52 772.54 C53.41 772.54 63.26 776.27 70.4 782.31 C77.54 788.35
							 81.95 796.68 81.95 805.9 L83.49 805.9 L85.04 805.9 C85.04 786.03 66 769.92 42.52 769.92 C19.04 769.92
							 0 786.03 0 805.9 C0 825.78 19.04 841.89 42.52 841.89 C66 841.89 85.04 825.78 85.04 805.9 L83.49 805.9
							 Z" class="st8"/>
			</g>
			<g id="shape31-65" v:mID="31" v:groupContext="shape" transform="translate(5.15103,-27.0028)">
				<title>Sheet.31</title>
				<path d="M21.09 824.47 L33 833.25 L21.09 841.89 L21.09 837.17 L0 837.17 L0 828.9 L21.09 828.9 L21.09 824.47 Z"
						class="st8"/>
			</g>
			<g id="shape32-67" v:mID="32" v:groupContext="shape" transform="translate(32.2254,-3.39591)">
				<title>Sheet.32</title>
				<path d="M20.59 831.81 L10.21 841.89 L0 831.81 L5.58 831.81 L5.58 813.96 L15.36 813.96 L15.36 831.81 L20.59 831.81
							 Z" class="st8"/>
			</g>
			<g id="shape33-69" v:mID="33" v:groupContext="shape" transform="translate(32.2254,-40.2633)">
				<title>Sheet.33</title>
				<path d="M0 824.04 L10.38 813.96 L20.59 824.04 L15.01 824.04 L15.01 841.89 L5.23 841.89 L5.23 824.04 L0 824.04 Z"
						class="st8"/>
			</g>
		</g>
		<g id="group34-71" transform="translate(366.238,-187.558)" v:mID="34" v:groupContext="group">
			<title>Physical Upstream Router.382</title>
			<g id="shape35-72" v:mID="35" v:groupContext="shape" transform="translate(36.7791,-27.0028)">
				<title>Sheet.35</title>
				<path d="M9.29 841.89 L0 833.1 L9.29 824.47 L9.29 829.19 L25.74 829.19 L25.74 837.46 L9.29 837.46 L9.29 841.89 Z"
						class="st8"/>
			</g>
			<g id="shape36-74" v:mID="36" v:groupContext="shape">
				<title>Sheet.36</title>
				<path d="M65.12 805.9 L63.92 805.9 C63.92 815.12 60.48 823.45 54.91 829.5 C49.34 835.54 41.66 839.27 33.17 839.27
							 C24.67 839.27 16.99 835.54 11.42 829.5 C5.85 823.46 2.41 815.12 2.41 805.9 C2.41 796.68 5.85 788.35
							 11.42 782.31 C16.99 776.27 24.67 772.54 33.17 772.54 C41.66 772.54 49.34 776.27 54.91 782.31 C60.48
							 788.35 63.92 796.68 63.92 805.9 L65.12 805.9 L66.33 805.9 C66.33 786.03 51.48 769.92 33.17 769.92 C14.85
							 769.92 0 786.03 0 805.9 C0 825.78 14.85 841.89 33.17 841.89 C51.48 841.89 66.33 825.78 66.33 805.9 L65.12
							 805.9 Z" class="st8"/>
			</g>
			<g id="shape37-76" v:mID="37" v:groupContext="shape" transform="translate(4.01771,-27.0028)">
				<title>Sheet.37</title>
				<path d="M16.45 824.47 L25.74 833.25 L16.45 841.89 L16.45 837.17 L0 837.17 L0 828.9 L16.45 828.9 L16.45 824.47 Z"
						class="st8"/>
			</g>
			<g id="shape38-78" v:mID="38" v:groupContext="shape" transform="translate(25.1352,-3.39591)">
				<title>Sheet.38</title>
				<path d="M16.06 831.81 L7.96 841.89 L0 831.81 L4.35 831.81 L4.35 813.96 L11.98 813.96 L11.98 831.81 L16.06 831.81
							 Z" class="st8"/>
			</g>
			<g id="shape39-80" v:mID="39" v:groupContext="shape" transform="translate(25.1352,-40.2633)">
				<title>Sheet.39</title>
				<path d="M0 824.04 L8.1 813.96 L16.06 824.04 L11.71 824.04 L11.71 841.89 L4.08 841.89 L4.08 824.04 L0 824.04 Z"
						class="st8"/>
			</g>
		</g>
		<g id="shape40-82" v:mID="40" v:groupContext="shape" transform="translate(434.321,-667.112) rotate(0.164908)">
			<title>Sheet.40</title>
			<path d="M0 841.89 L183.55 841.89" class="st11"/>
		</g>
		<g id="shape41-85" v:mID="41" v:groupContext="shape" transform="translate(451.708,-451.498) rotate(0.608358)">
			<title>Sheet.41</title>
			<path d="M0 841.89 L170.2 841.89" class="st11"/>
		</g>
		<g id="shape42-88" v:mID="42" v:groupContext="shape" transform="translate(432.898,-218.949) rotate(0.57)">
			<title>Sheet.42</title>
			<path d="M0 841.89 L186.9 841.89" class="st11"/>
		</g>
		<g id="group43-91" transform="translate(898.175,-614.79)" v:mID="43" v:groupContext="group">
			<title>Virtual machine.406</title>
			<g id="shape44-92" v:mID="44" v:groupContext="shape">
				<title>Sheet.44</title>
				<path d="M54.66 756.85 L4.14 756.85 C1.86 756.86 0 759.53 0 762.84 L0 835.9 C0 839.21 1.86 841.88 4.14 841.89 L54.66
							 841.89 C56.94 841.88 58.8 839.21 58.8 835.9 L58.8 762.84 C58.8 759.53 56.95 756.86 54.66 756.85 ZM56.67
							 835.9 C56.67 836.7 56.45 837.42 56.08 837.95 C55.71 838.48 55.21 838.8 54.66 838.8 L4.14 838.8 C3.59
							 838.8 3.09 838.48 2.72 837.95 C2.36 837.42 2.13 836.7 2.13 835.9 L2.13 762.84 C2.13 762.04 2.36 761.32
							 2.72 760.79 C3.09 760.26 3.59 759.94 4.14 759.94 L54.66 759.94 C55.21 759.94 55.71 760.26 56.08 760.79
							 C56.44 761.32 56.67 762.04 56.67 762.84 L56.67 835.9 L56.67 835.9 Z" class="st8"/>
			</g>
			<g id="shape45-94" v:mID="45" v:groupContext="shape" transform="translate(16.5911,-35.5537)">
				<title>Sheet.45</title>
				<path d="M5.77 837.3 L2.68 824.22 L0 824.22 L4.37 841.89 L7 841.89 L11.37 824.22 L8.76 824.22 L5.77 837.3 Z"
						class="st8"/>
			</g>
			<g id="shape46-96" v:mID="46" v:groupContext="shape" transform="translate(29.1922,-35.5537)">
				<title>Sheet.46</title>
				<path d="M5.91 836.27 L3.69 824.22 L0 824.22 L0 841.89 L2.29 841.89 L2.29 827.98 L4.71 841.89 L7.08 841.89 L9.51
							 827.98 L9.51 841.89 L11.8 841.89 L11.8 824.22 L8.1 824.22 L5.91 836.27 Z" class="st8"/>
			</g>
		</g>
		<g id="group47-98" transform="translate(895.695,-401.574)" v:mID="47" v:groupContext="group">
			<title>Virtual machine.410</title>
			<g id="shape48-99" v:mID="48" v:groupContext="shape">
				<title>Sheet.48</title>
				<path d="M56.97 756.85 L4.31 756.85 C1.93 756.86 0 759.53 0 762.84 L0 835.9 C0 839.21 1.93 841.88 4.31 841.89 L56.97
							 841.89 C59.35 841.88 61.28 839.21 61.28 835.9 L61.28 762.84 C61.28 759.53 59.35 756.86 56.97 756.85
							 ZM59.06 835.9 C59.06 836.7 58.83 837.42 58.44 837.95 C58.06 838.48 57.54 838.8 56.97 838.8 L4.31 838.8
							 C3.74 838.8 3.22 838.48 2.84 837.95 C2.45 837.42 2.22 836.7 2.22 835.9 L2.22 762.84 C2.22 762.04 2.45
							 761.32 2.84 760.79 C3.22 760.26 3.74 759.94 4.31 759.94 L56.97 759.94 C57.54 759.94 58.06 760.26 58.44
							 760.79 C58.82 761.32 59.06 762.04 59.06 762.84 L59.06 835.9 L59.06 835.9 Z" class="st8"/>
			</g>
			<g id="shape49-101" v:mID="49" v:groupContext="shape" transform="translate(17.291,-35.5537)">
				<title>Sheet.49</title>
				<path d="M6.01 837.3 L2.79 824.22 L0 824.22 L4.55 841.89 L7.3 841.89 L11.85 824.22 L9.13 824.22 L6.01 837.3 Z"
						class="st8"/>
			</g>
			<g id="shape50-103" v:mID="50" v:groupContext="shape" transform="translate(30.4236,-35.5537)">
				<title>Sheet.50</title>
				<path d="M6.16 836.27 L3.85 824.22 L0 824.22 L0 841.89 L2.39 841.89 L2.39 827.98 L4.91 841.89 L7.38 841.89 L9.91
							 827.98 L9.91 841.89 L12.3 841.89 L12.3 824.22 L8.44 824.22 L6.16 836.27 Z" class="st8"/>
			</g>
		</g>
		<g id="group51-105" transform="translate(900.438,-168.967)" v:mID="51" v:groupContext="group">
			<title>Virtual machine.414</title>
			<g id="shape52-106" v:mID="52" v:groupContext="shape">
				<title>Sheet.52</title>
				<path d="M52.56 756.85 L3.98 756.85 C1.78 756.86 0 759.53 0 762.84 L0 835.9 C0 839.21 1.78 841.88 3.98 841.89 L52.56
							 841.89 C54.75 841.88 56.53 839.21 56.54 835.9 L56.54 762.84 C56.54 759.53 54.75 756.86 52.56 756.85
							 ZM54.49 835.9 C54.49 836.7 54.27 837.42 53.92 837.95 C53.57 838.48 53.09 838.8 52.56 838.8 L3.98 838.8
							 C3.45 838.8 2.97 838.48 2.62 837.95 C2.26 837.42 2.05 836.7 2.05 835.9 L2.05 762.84 C2.05 762.04 2.26
							 761.32 2.62 760.79 C2.97 760.26 3.45 759.94 3.98 759.94 L52.56 759.94 C53.09 759.94 53.57 760.26 53.92
							 760.79 C54.27 761.32 54.49 762.04 54.49 762.84 L54.49 835.9 L54.49 835.9 Z" class="st8"/>
			</g>
			<g id="shape53-108" v:mID="53" v:groupContext="shape" transform="translate(15.9528,-35.5537)">
				<title>Sheet.53</title>
				<path d="M5.55 837.3 L2.57 824.22 L0 824.22 L4.2 841.89 L6.73 841.89 L10.94 824.22 L8.42 824.22 L5.55 837.3 Z"
						class="st8"/>
			</g>
			<g id="shape54-110" v:mID="54" v:groupContext="shape" transform="translate(28.0692,-35.5537)">
				<title>Sheet.54</title>
				<path d="M5.68 836.27 L3.55 824.22 L0 824.22 L0 841.89 L2.2 841.89 L2.2 827.98 L4.53 841.89 L6.81 841.89 L9.14 827.98
							 L9.14 841.89 L11.35 841.89 L11.35 824.22 L7.79 824.22 L5.68 836.27 Z" class="st8"/>
			</g>
		</g>
		<g id="shape55-112" v:mID="55" v:groupContext="shape" transform="translate(742.326,-664.657) rotate(0.87682)">
			<title>Sheet.55</title>
			<path d="M0 841.89 L168.75 841.89" class="st11"/>
		</g>
		<g id="shape56-115" v:mID="56" v:groupContext="shape" transform="translate(725.24,-451.49) rotate(0.626686)">
			<title>Sheet.56</title>
			<path d="M0 841.89 L179.67 841.89" class="st11"/>
		</g>
		<g id="shape57-118" v:mID="57" v:groupContext="shape" transform="translate(724.241,-218.892) rotate(0.558762)">
			<title>Sheet.57</title>
			<path d="M0 841.89 L184.42 841.89" class="st11"/>
		</g>
		<g id="shape58-121" v:mID="58" v:groupContext="shape" v:layerMember="1" transform="translate(1883.69,108.85) rotate(90)">
			<title>Sheet.58</title>
			<desc>Tenant 1</desc>
			<v:textBlock v:margins="rect(4,4,4,4)" v:tabSpace="42.5197"/>
			<v:textRect cx="61.7131" cy="827.611" width="123.43" height="28.558"/>
			<rect x="0" y="813.332" width="123.426" height="28.558" class="st6"/>
			<text x="7.04" y="836.61" class="st7" v:langID="1045"><v:paragraph v:horizAlign="1"/><v:tabList/>Tenant 1</text>		</g>
		<g id="shape59-124" v:mID="59" v:groupContext="shape" v:layerMember="1" transform="translate(1878.02,321.449) rotate(90)">
			<title>Sheet.59</title>
			<desc>Tenant 2</desc>
			<v:textBlock v:margins="rect(4,4,4,4)" v:tabSpace="42.5197"/>
			<v:textRect cx="82.6643" cy="827.611" width="165.33" height="28.558"/>
			<rect x="0" y="813.332" width="165.329" height="28.558" class="st6"/>
			<text x="27.99" y="836.61" class="st7" v:langID="1045"><v:paragraph v:horizAlign="1"/><v:tabList/>Tenant 2</text>		</g>
		<g id="shape60-127" v:mID="60" v:groupContext="shape" v:layerMember="1" transform="translate(1883.69,548.221) rotate(90)">
			<title>Sheet.60</title>
			<desc>Tenant 3</desc>
			<v:textBlock v:margins="rect(4,4,4,4)" v:tabSpace="42.5197"/>
			<v:textRect cx="72.6597" cy="827.611" width="145.32" height="28.558"/>
			<rect x="0" y="813.332" width="145.319" height="28.558" class="st6"/>
			<text x="17.98" y="836.61" class="st7" v:langID="1045"><v:paragraph v:horizAlign="1"/><v:tabList/>Tenant 3</text>		</g>
		<g id="shape61-130" v:mID="61" v:groupContext="shape" v:layerMember="1" transform="translate(364.156,-253.801)">
			<title>Sheet.61</title>
			<desc>VRF 3</desc>
			<v:textBlock v:margins="rect(4,4,4,4)" v:tabSpace="42.5197"/>
			<v:textRect cx="55.4654" cy="816.878" width="110.94" height="50.0239"/>
			<rect x="0" y="791.866" width="110.931" height="50.0239" class="st6"/>
			<text x="20.27" y="825.88" class="st7" v:langID="1045"><v:paragraph v:horizAlign="1"/><v:tabList/>VRF 3</text>		</g>
		<g id="shape62-133" v:mID="62" v:groupContext="shape" v:layerMember="1" transform="translate(561.701,-32.7978)">
			<title>Sheet.62</title>
			<desc>Shared Edge Cluster</desc>
			<v:textBlock v:margins="rect(4,4,4,4)" v:tabSpace="42.5197"/>
			<v:textRect cx="137.795" cy="816.878" width="275.6" height="50.0239"/>
			<rect x="0" y="791.866" width="275.591" height="50.0239" class="st6"/>
			<text x="13.77" y="825.88" class="st7" v:langID="1045"><v:paragraph v:horizAlign="1"/><v:tabList/>Shared Edge Cluster    </text>		</g>
	</g>
</svg>
