<svg id="graph-div" width="100%" xmlns="http://www.w3.org/2000/svg" xmlns:xlink="http://www.w3.org/1999/xlink" height="154" style="max-width: 926.296875px;" viewBox="0 0 926.296875 154"><style>#graph-div {font-family:"trebuchet ms",verdana,arial,sans-serif;font-size:16px;fill:#333;}#graph-div .error-icon{fill:#552222;}#graph-div .error-text{fill:#552222;stroke:#552222;}#graph-div .edge-thickness-normal{stroke-width:2px;}#graph-div .edge-thickness-thick{stroke-width:3.5px;}#graph-div .edge-pattern-solid{stroke-dasharray:0;}#graph-div .edge-pattern-dashed{stroke-dasharray:3;}#graph-div .edge-pattern-dotted{stroke-dasharray:2;}#graph-div .marker{fill:#333333;stroke:#333333;}#graph-div .marker.cross{stroke:#333333;}#graph-div svg{font-family:"trebuchet ms",verdana,arial,sans-serif;font-size:16px;}#graph-div .label{font-family:"trebuchet ms",verdana,arial,sans-serif;color:#333;}#graph-div .cluster-label text{fill:#333;}#graph-div .cluster-label span{color:#333;}#graph-div .label text,#graph-div span{fill:#333;color:#333;}#graph-div .node rect,#graph-div .node circle,#graph-div .node ellipse,#graph-div .node polygon,#graph-div .node path{fill:#ECECFF;stroke:#9370DB;stroke-width:1px;}#graph-div .node .label{text-align:center;}#graph-div .node.clickable{cursor:pointer;}#graph-div .arrowheadPath{fill:#333333;}#graph-div .edgePath .path{stroke:#333333;stroke-width:2.0px;}#graph-div .flowchart-link{stroke:#333333;fill:none;}#graph-div .edgeLabel{background-color:#e8e8e8;text-align:center;}#graph-div .edgeLabel rect{opacity:0.5;background-color:#e8e8e8;fill:#e8e8e8;}#graph-div .cluster rect{fill:#ffffde;stroke:#aaaa33;stroke-width:1px;}#graph-div .cluster text{fill:#333;}#graph-div .cluster span{color:#333;}#graph-div div.mermaidTooltip{position:absolute;text-align:center;max-width:200px;padding:2px;font-family:"trebuchet ms",verdana,arial,sans-serif;font-size:12px;background:hsl(80, 100%, 96.2745098039%);border:1px solid #aaaa33;border-radius:2px;pointer-events:none;z-index:100;}#graph-div :root{--mermaid-font-family:"trebuchet ms",verdana,arial,sans-serif;}</style><g><g class="output"><g class="clusters"></g><g class="edgePaths"><g class="edgePath LS-master LE-t1" id="L-master-t1" style="opacity: 1;"><path class="path" d="M299.3282912234043,52L291.4773520611702,56.166666666666664C283.62641289893617,60.333333333333336,267.92453457446805,68.66666666666667,252.19013187056737,77.01726140590769C236.45572916666666,85.36785614514872,220.68880208333334,93.73571229029744,212.80533854166666,97.9196403628718L204.921875,102.10356843544616" marker-end="url(#arrowhead221)" style="fill:none"></path><defs><marker id="arrowhead221" viewBox="0 0 10 10" refX="9" refY="5" markerUnits="strokeWidth" markerWidth="8" markerHeight="6" orient="auto"><path d="M 0 0 L 10 5 L 0 10 z" class="arrowheadPath" style="stroke-width: 1; stroke-dasharray: 1, 0;"></path></marker></defs></g><g class="edgePath LS-master LE-t2" id="L-master-t2" style="opacity: 1;"><path class="path" d="M340.78125,52L340.78125,56.166666666666664C340.78125,60.333333333333336,340.78125,68.66666666666667,362.328125,78.77811663991439C383.875,88.88956661316212,426.96875,100.77913322632423,448.515625,106.7239165329053L470.0625,112.66869983948635" marker-end="url(#arrowhead222)" style="fill:none"></path><defs><marker id="arrowhead222" viewBox="0 0 10 10" refX="9" refY="5" markerUnits="strokeWidth" markerWidth="8" markerHeight="6" orient="auto"><path d="M 0 0 L 10 5 L 0 10 z" class="arrowheadPath" style="stroke-width: 1; stroke-dasharray: 1, 0;"></path></marker></defs></g><g class="edgePath LS-master LE-t3" id="L-master-t3" style="opacity: 1;"><path class="path" d="M380.65076462765956,52L388.2018090647163,56.166666666666664C395.752853501773,60.333333333333336,410.85494237588654,68.66666666666667,466.5042941046099,79.68540159525135C522.1536458333334,90.70413652383603,618.3502604166666,104.40827304767204,666.4485677083334,111.26034130959006L714.546875,118.11240957150807" marker-end="url(#arrowhead223)" style="fill:none"></path><defs><marker id="arrowhead223" viewBox="0 0 10 10" refX="9" refY="5" markerUnits="strokeWidth" markerWidth="8" markerHeight="6" orient="auto"><path d="M 0 0 L 10 5 L 0 10 z" class="arrowheadPath" style="stroke-width: 1; stroke-dasharray: 1, 0;"></path></marker></defs></g><g class="edgePath LS-u1 LE-t1" id="L-u1-t1" style="opacity: 1;"><path class="path" d="M41.03125,52L41.03125,56.166666666666664C41.03125,60.333333333333336,41.03125,68.66666666666667,54.59375,78.03126924465397C68.15625,87.39587182264127,95.28125,97.79174364528255,108.84375,102.98967955660316L122.40625,108.1876154679238" marker-end="url(#arrowhead224)" style="fill:none;stroke-width:2px;stroke-dasharray:3;"></path><defs><marker id="arrowhead224" viewBox="0 0 10 10" refX="9" refY="5" markerUnits="strokeWidth" markerWidth="8" markerHeight="6" orient="auto"><path d="M 0 0 L 10 5 L 0 10 z" class="arrowheadPath" style="stroke-width: 1; stroke-dasharray: 1, 0;"></path></marker></defs></g><g class="edgePath LS-u2 LE-t2" id="L-u2-t2" style="opacity: 1;"><path class="path" d="M511.1328125,52L511.1328125,56.166666666666664C511.1328125,60.333333333333336,511.1328125,68.66666666666667,511.1328125,77C511.1328125,85.33333333333333,511.1328125,93.66666666666667,511.1328125,97.83333333333333L511.1328125,102" marker-end="url(#arrowhead225)" style="fill:none;stroke-width:2px;stroke-dasharray:3;"></path><defs><marker id="arrowhead225" viewBox="0 0 10 10" refX="9" refY="5" markerUnits="strokeWidth" markerWidth="8" markerHeight="6" orient="auto"><path d="M 0 0 L 10 5 L 0 10 z" class="arrowheadPath" style="stroke-width: 1; stroke-dasharray: 1, 0;"></path></marker></defs></g><g class="edgePath LS-u3 LE-t3" id="L-u3-t3" style="opacity: 1;"><path class="path" d="M755.875,52L755.875,56.166666666666664C755.875,60.333333333333336,755.875,68.66666666666667,755.875,77C755.875,85.33333333333333,755.875,93.66666666666667,755.875,97.83333333333333L755.875,102" marker-end="url(#arrowhead226)" style="fill:none;stroke-width:2px;stroke-dasharray:3;"></path><defs><marker id="arrowhead226" viewBox="0 0 10 10" refX="9" refY="5" markerUnits="strokeWidth" markerWidth="8" markerHeight="6" orient="auto"><path d="M 0 0 L 10 5 L 0 10 z" class="arrowheadPath" style="stroke-width: 1; stroke-dasharray: 1, 0;"></path></marker></defs></g><g class="edgePath LS-a1 LE-t1" id="L-a1-t1" style="opacity: 1;"><path class="path" d="M163.6640625,52L163.6640625,56.166666666666664C163.6640625,60.333333333333336,163.6640625,68.66666666666667,163.6640625,77C163.6640625,85.33333333333333,163.6640625,93.66666666666667,163.6640625,97.83333333333333L163.6640625,102" marker-end="url(#arrowhead227)" style="fill:none;stroke-width:2px;stroke-dasharray:3;"></path><defs><marker id="arrowhead227" viewBox="0 0 10 10" refX="9" refY="5" markerUnits="strokeWidth" markerWidth="8" markerHeight="6" orient="auto"><path d="M 0 0 L 10 5 L 0 10 z" class="arrowheadPath" style="stroke-width: 1; stroke-dasharray: 1, 0;"></path></marker></defs></g><g class="edgePath LS-a2 LE-t2" id="L-a2-t2" style="opacity: 1;"><path class="path" d="M633.375,52L633.375,56.166666666666664C633.375,60.333333333333336,633.375,68.66666666666667,619.8463541666666,78.03486291301847C606.3177083333334,87.40305915937027,579.2604166666666,97.80611831874053,565.7317708333334,103.00764789842567L552.203125,108.20917747811082" marker-end="url(#arrowhead228)" style="fill:none;stroke-width:2px;stroke-dasharray:3;"></path><defs><marker id="arrowhead228" viewBox="0 0 10 10" refX="9" refY="5" markerUnits="strokeWidth" markerWidth="8" markerHeight="6" orient="auto"><path d="M 0 0 L 10 5 L 0 10 z" class="arrowheadPath" style="stroke-width: 1; stroke-dasharray: 1, 0;"></path></marker></defs></g><g class="edgePath LS-a3 LE-t3" id="L-a3-t3" style="opacity: 1;"><path class="path" d="M878.6328125,52L878.6328125,56.166666666666664C878.6328125,60.333333333333336,878.6328125,68.66666666666667,865.0611979166666,78.02946604722204C851.4895833333334,87.39226542777742,824.3463541666666,97.78453085555485,810.7747395833334,102.98066356944355L797.203125,108.17679628333227" marker-end="url(#arrowhead229)" style="fill:none;stroke-width:2px;stroke-dasharray:3;"></path><defs><marker id="arrowhead229" viewBox="0 0 10 10" refX="9" refY="5" markerUnits="strokeWidth" markerWidth="8" markerHeight="6" orient="auto"><path d="M 0 0 L 10 5 L 0 10 z" class="arrowheadPath" style="stroke-width: 1; stroke-dasharray: 1, 0;"></path></marker></defs></g></g><g class="edgeLabels"><g class="edgeLabel" transform="" style="opacity: 1;"><g transform="translate(0,0)" class="label"><rect rx="0" ry="0" width="0" height="0"></rect><foreignObject width="0" height="0"><div xmlns="http://www.w3.org/1999/xhtml" style="display: inline-block; white-space: nowrap;"><span id="L-L-master-t1" class="edgeLabel L-LS-master' L-LE-t1"></span></div></foreignObject></g></g><g class="edgeLabel" transform="" style="opacity: 1;"><g transform="translate(0,0)" class="label"><rect rx="0" ry="0" width="0" height="0"></rect><foreignObject width="0" height="0"><div xmlns="http://www.w3.org/1999/xhtml" style="display: inline-block; white-space: nowrap;"><span id="L-L-master-t2" class="edgeLabel L-LS-master' L-LE-t2"></span></div></foreignObject></g></g><g class="edgeLabel" transform="" style="opacity: 1;"><g transform="translate(0,0)" class="label"><rect rx="0" ry="0" width="0" height="0"></rect><foreignObject width="0" height="0"><div xmlns="http://www.w3.org/1999/xhtml" style="display: inline-block; white-space: nowrap;"><span id="L-L-master-t3" class="edgeLabel L-LS-master' L-LE-t3"></span></div></foreignObject></g></g><g class="edgeLabel" transform="" style="opacity: 1;"><g transform="translate(0,0)" class="label"><rect rx="0" ry="0" width="0" height="0"></rect><foreignObject width="0" height="0"><div xmlns="http://www.w3.org/1999/xhtml" style="display: inline-block; white-space: nowrap;"><span id="L-L-u1-t1" class="edgeLabel L-LS-u1' L-LE-t1"></span></div></foreignObject></g></g><g class="edgeLabel" transform="" style="opacity: 1;"><g transform="translate(0,0)" class="label"><rect rx="0" ry="0" width="0" height="0"></rect><foreignObject width="0" height="0"><div xmlns="http://www.w3.org/1999/xhtml" style="display: inline-block; white-space: nowrap;"><span id="L-L-u2-t2" class="edgeLabel L-LS-u2' L-LE-t2"></span></div></foreignObject></g></g><g class="edgeLabel" transform="" style="opacity: 1;"><g transform="translate(0,0)" class="label"><rect rx="0" ry="0" width="0" height="0"></rect><foreignObject width="0" height="0"><div xmlns="http://www.w3.org/1999/xhtml" style="display: inline-block; white-space: nowrap;"><span id="L-L-u3-t3" class="edgeLabel L-LS-u3' L-LE-t3"></span></div></foreignObject></g></g><g class="edgeLabel" transform="" style="opacity: 1;"><g transform="translate(0,0)" class="label"><rect rx="0" ry="0" width="0" height="0"></rect><foreignObject width="0" height="0"><div xmlns="http://www.w3.org/1999/xhtml" style="display: inline-block; white-space: nowrap;"><span id="L-L-a1-t1" class="edgeLabel L-LS-a1' L-LE-t1"></span></div></foreignObject></g></g><g class="edgeLabel" transform="" style="opacity: 1;"><g transform="translate(0,0)" class="label"><rect rx="0" ry="0" width="0" height="0"></rect><foreignObject width="0" height="0"><div xmlns="http://www.w3.org/1999/xhtml" style="display: inline-block; white-space: nowrap;"><span id="L-L-a2-t2" class="edgeLabel L-LS-a2' L-LE-t2"></span></div></foreignObject></g></g><g class="edgeLabel" transform="" style="opacity: 1;"><g transform="translate(0,0)" class="label"><rect rx="0" ry="0" width="0" height="0"></rect><foreignObject width="0" height="0"><div xmlns="http://www.w3.org/1999/xhtml" style="display: inline-block; white-space: nowrap;"><span id="L-L-a3-t3" class="edgeLabel L-LS-a3' L-LE-t3"></span></div></foreignObject></g></g></g><g class="nodes"><g class="node default" id="flowchart-master-112" transform="translate(340.78125,30)" style="opacity: 1;"><rect rx="0" ry="0" x="-87.515625" y="-22" width="175.03125" height="44" class="label-container"></rect><g class="label" transform="translate(0,0)"><g transform="translate(-77.515625,-12)"><foreignObject width="155.03125" height="24"><div xmlns="http://www.w3.org/1999/xhtml" style="display: inline-block; white-space: nowrap;">Provider Organization</div></foreignObject></g></g></g><g class="node default" id="flowchart-t1-113" transform="translate(163.6640625,124)" style="opacity: 1;"><rect rx="0" ry="0" x="-41.2578125" y="-22" width="82.515625" height="44" class="label-container"></rect><g class="label" transform="translate(0,0)"><g transform="translate(-31.2578125,-12)"><foreignObject width="62.515625" height="24"><div xmlns="http://www.w3.org/1999/xhtml" style="display: inline-block; white-space: nowrap;">Tenant A</div></foreignObject></g></g></g><g class="node default" id="flowchart-t2-115" transform="translate(511.1328125,124)" style="opacity: 1;"><rect rx="0" ry="0" x="-41.0703125" y="-22" width="82.140625" height="44" class="label-container"></rect><g class="label" transform="translate(0,0)"><g transform="translate(-31.0703125,-12)"><foreignObject width="62.140625" height="24"><div xmlns="http://www.w3.org/1999/xhtml" style="display: inline-block; white-space: nowrap;">Tenant B</div></foreignObject></g></g></g><g class="node default" id="flowchart-t3-117" transform="translate(755.875,124)" style="opacity: 1;"><rect rx="0" ry="0" x="-41.328125" y="-22" width="82.65625" height="44" class="label-container"></rect><g class="label" transform="translate(0,0)"><g transform="translate(-31.328125,-12)"><foreignObject width="62.65625" height="24"><div xmlns="http://www.w3.org/1999/xhtml" style="display: inline-block; white-space: nowrap;">Tenant C</div></foreignObject></g></g></g><g class="node default" id="flowchart-u1-118" transform="translate(41.03125,30)" style="opacity: 1;"><rect rx="0" ry="0" x="-33.03125" y="-22" width="66.0625" height="44" class="label-container"></rect><g class="label" transform="translate(0,0)"><g transform="translate(-23.03125,-12)"><foreignObject width="46.0625" height="24"><div xmlns="http://www.w3.org/1999/xhtml" style="display: inline-block; white-space: nowrap;">User A</div></foreignObject></g></g></g><g class="node default" id="flowchart-u2-120" transform="translate(511.1328125,30)" style="opacity: 1;"><rect rx="0" ry="0" x="-32.8359375" y="-22" width="65.671875" height="44" class="label-container"></rect><g class="label" transform="translate(0,0)"><g transform="translate(-22.8359375,-12)"><foreignObject width="45.671875" height="24"><div xmlns="http://www.w3.org/1999/xhtml" style="display: inline-block; white-space: nowrap;">User B</div></foreignObject></g></g></g><g class="node default" id="flowchart-u3-122" transform="translate(755.875,30)" style="opacity: 1;"><rect rx="0" ry="0" x="-33.09375" y="-22" width="66.1875" height="44" class="label-container"></rect><g class="label" transform="translate(0,0)"><g transform="translate(-23.09375,-12)"><foreignObject width="46.1875" height="24"><div xmlns="http://www.w3.org/1999/xhtml" style="display: inline-block; white-space: nowrap;">User C</div></foreignObject></g></g></g><g class="node default" id="flowchart-a1-124" transform="translate(163.6640625,30)" style="opacity: 1;"><rect rx="0" ry="0" x="-39.6015625" y="-22" width="79.203125" height="44" class="label-container"></rect><g class="label" transform="translate(0,0)"><g transform="translate(-29.6015625,-12)"><foreignObject width="59.203125" height="24"><div xmlns="http://www.w3.org/1999/xhtml" style="display: inline-block; white-space: nowrap;">Admin A</div></foreignObject></g></g></g><g class="node default" id="flowchart-a2-126" transform="translate(633.375,30)" style="opacity: 1;"><rect rx="0" ry="0" x="-39.40625" y="-22" width="78.8125" height="44" class="label-container"></rect><g class="label" transform="translate(0,0)"><g transform="translate(-29.40625,-12)"><foreignObject width="58.8125" height="24"><div xmlns="http://www.w3.org/1999/xhtml" style="display: inline-block; white-space: nowrap;">Admin B</div></foreignObject></g></g></g><g class="node default" id="flowchart-a3-128" transform="translate(878.6328125,30)" style="opacity: 1;"><rect rx="0" ry="0" x="-39.6640625" y="-22" width="79.328125" height="44" class="label-container"></rect><g class="label" transform="translate(0,0)"><g transform="translate(-29.6640625,-12)"><foreignObject width="59.328125" height="24"><div xmlns="http://www.w3.org/1999/xhtml" style="display: inline-block; white-space: nowrap;">Admin C</div></foreignObject></g></g></g></g></g></g></svg>